<?xml version="1.0" encoding="utf-8"?>
<!-- Generator: Adobe Illustrator 24.0.1, SVG Export Plug-In . SVG Version: 6.00 Build 0)  -->
<svg version="1.1" id="Layer_1" xmlns="http://www.w3.org/2000/svg" xmlns:xlink="http://www.w3.org/1999/xlink" x="0px" y="0px"
	 viewBox="0 0 1300 400" style="enable-background:new 0 0 1300 400;" xml:space="preserve">
<style type="text/css">
	.st0{fill:url(#SVGID_1_);stroke:#000000;stroke-width:1.6452;stroke-miterlimit:10;}
	.st1{opacity:0.1;fill:#0D8CD8;enable-background:new    ;}
	.st2{fill:#3A3768;}
	.st3{fill:#D48A9B;}
	.st4{opacity:5.000000e-02;enable-background:new    ;}
	.st5{fill:#EFC6CD;}
	.st6{opacity:0.1;enable-background:new    ;}
	.st7{fill:#FFFFFF;}
	.st8{fill:#D3DAE1;}
	.st9{fill:url(#SVGID_2_);}
	.st10{fill:#585B8A;}
	.st11{opacity:0.2;enable-background:new    ;}
	.st12{fill:#636992;}
	.st13{fill:#FFD6D6;}
	.st14{fill:#DCE6F2;}
	.st15{fill:#565988;}
	.st16{fill:#505484;}
	.st17{fill:#575988;}
	.st18{fill:#D28690;}
	.st19{fill:#575989;}
	.st20{fill:#353045;}
	.st21{fill:#F0F3F7;}
	.st22{fill:#663D5C;}
	.st23{fill:#0D8CD8;}
	.st24{opacity:0.3;enable-background:new    ;}
	.st25{opacity:0.15;}
	.st26{fill:#4B4770;}
</style>
<linearGradient id="SVGID_1_" gradientUnits="userSpaceOnUse" x1="0" y1="592" x2="1300" y2="592" gradientTransform="matrix(1 0 0 1 0 -392)">
	<stop  offset="0" style="stop-color:#007194"/>
	<stop  offset="1" style="stop-color:#41C1C9"/>
</linearGradient>
<rect y="0" class="st0" width="1300" height="400"/>
<path class="st1" d="M125.4,143.4h0.4c-0.3-0.1-0.5-0.4-0.5-0.7l0,0c0-0.5,0.8-0.9,1.7-0.9h12.1c0.9,0,1.7,0.4,1.7,0.9l0,0
	c0,0.5-0.8,0.9-1.7,0.9h-0.3c0.3,0.1,0.5,0.4,0.5,0.7c0,0.4-0.6,0.8-1.3,0.9h3.5c1,0,1.7,0.4,1.7,0.9s-0.8,0.9-1.7,0.9h-12.1
	c-1,0-1.7-0.4-1.7-0.9c0-0.4,0.6-0.8,1.3-0.9h-3.5c-1,0-1.7-0.4-1.7-0.9S124.5,143.4,125.4,143.4z"/>
<ellipse transform="matrix(0.2002 -0.9798 0.9798 0.2002 7.8434 473.8912)" class="st1" cx="294.2" cy="232.1" rx="18.4" ry="60.5"/>
<path class="st2" d="M287.3,180.5c0,0,3.2-15.8,15.5-14.3c0,0,8.5,0.6,10.2,6.1v12.3L287.3,180.5z"/>
<polygon class="st3" points="354.6,186.4 245.1,177.3 231.1,180.2 232,199.8 232.9,199.9 234,229.4 341.4,248.7 352.8,239 
	352.8,207.1 354.3,206.3 "/>
<polygon class="st4" points="354.7,186.4 354.4,206.3 342.6,211.8 342.4,191 "/>
<polygon class="st4" points="352.8,207.1 353,238.5 341.6,248.1 342.3,211.8 "/>
<polygon class="st4" points="233.1,201.1 342.4,214.5 342.4,211.9 233,200.1 "/>
<polygon class="st4" points="352.8,208.3 352.8,207.1 342,211.9 342,214.5 "/>
<polygon class="st5" points="230.9,180.2 245,177.3 354.4,186.4 342.2,191 "/>
<polygon class="st6" points="342.8,186.9 348.2,187.3 339.3,189.9 334.7,189.6 "/>
<polygon class="st7" points="342.8,186.7 348.2,187 339.3,189.7 334.7,189.4 "/>
<path class="st8" d="M342.1,187.3c0.2-0.1,0.4,0.1,0.7,0.1c0.1,0,0.3,0,0.4,0c0.3,0,0.5,0.2,0.8,0.1"/>
<path class="st8" d="M341.9,187.5c0.2-0.1,0.4,0.1,0.7,0.1c0.1,0,0.3,0,0.4,0c0.3,0,0.5,0.2,0.8,0.1"/>
<path class="st8" d="M341.2,187.8c0.2-0.1,0.4,0.1,0.7,0.1c0.1,0,0.3,0,0.4,0c0.3,0,0.5,0.2,0.8,0.1"/>
<polygon class="st6" points="319.6,184.3 324.9,184.6 316,187.3 311.5,187 "/>
<polygon class="st7" points="319.6,184 324.9,184.4 316,187.1 311.5,186.7 "/>
<path class="st8" d="M318.9,184.6c0.2-0.1,0.4,0.1,0.7,0.1c0.1,0,0.3,0,0.4,0c0.3,0,0.5,0.2,0.8,0.1"/>
<path class="st8" d="M318.6,184.8c0.2-0.1,0.4,0.1,0.7,0.1c0.1,0,0.3,0,0.4,0c0.3,0,0.5,0.2,0.8,0.1"/>
<path class="st8" d="M318,185.1c0.2-0.1,0.4,0.1,0.7,0.1c0.1,0,0.3,0,0.4,0c0.3,0,0.5,0.2,0.8,0.1"/>
<polygon class="st6" points="330.7,185.6 336.1,186 327.2,188.6 322.6,188.3 "/>
<polygon class="st7" points="330.7,185.4 336.1,185.7 327.2,188.4 322.6,188.1 "/>
<path class="st8" d="M330.1,186c0.2-0.1,0.4,0.1,0.7,0.1c0.1,0,0.3,0,0.4,0c0.3,0,0.5,0.2,0.8,0.1"/>
<path class="st8" d="M329.8,186.1c0.2-0.1,0.4,0.1,0.7,0.1c0.1,0,0.3,0,0.4,0c0.3,0,0.5,0.2,0.8,0.1"/>
<path class="st8" d="M329.1,186.5c0.2-0.1,0.4,0.1,0.7,0.1c0.1,0,0.3,0,0.4,0c0.3,0,0.5,0.2,0.8,0.1"/>
<ellipse class="st1" cx="209.1" cy="283.8" rx="57.3" ry="11.8"/>
<linearGradient id="SVGID_2_" gradientUnits="userSpaceOnUse" x1="271.437" y1="718.9528" x2="271.437" y2="553.1509" gradientTransform="matrix(1 0 0 1 -54.11 -427.71)">
	<stop  offset="0" style="stop-color:#808080;stop-opacity:0.25"/>
	<stop  offset="0.54" style="stop-color:#808080;stop-opacity:0.12"/>
	<stop  offset="1" style="stop-color:#808080;stop-opacity:0.1"/>
</linearGradient>
<path class="st9" d="M271.9,187.2c-0.6-5.4-3-10.5-3-10.5l0.2-1.8c0,0,0-0.9,0-2.3c0-0.8,0.1-1.7,0.3-2.5c0.5-1.6-0.6-3.5-0.7-3.7
	s0.1-3.6-1.1-5.3c-1.1-1.7-8.5-4.8-8.5-4.8s-0.4-0.8-1-1.8l0.1-0.1c-0.5-0.8-1-1.6-1.7-2.3c-0.5-0.5-0.9-0.8-1.2-0.6
	c-0.1-0.5-0.3-0.9-0.3-1.4c0.1,0,0.2,0,0.2,0.1c0.3,0.1,0.6,0.1,0.9,0c0.7-0.2,1.1-0.8,1.5-1.4c1.9-2.9,3.6-6.1,3.9-9.6
	c0.1-0.7,0.1-1.4-0.1-2.1c-0.2-0.5-0.4-1.1-0.7-1.5c-0.5-1-1.1-1.9-1.9-2.8c-1.3-1.4-3.1-2.2-5-2.7c-2.1-0.6-4.3-0.7-6.5-0.5
	c-0.6,0.1-1.1,0.2-1.7,0.2c-0.7,0-1.4,0-2.2,0l-3.7-0.2v-0.1h-0.6c-0.2,0.5,0,1.1,0.3,1.5c0.3,0.5,0.7,0.9,0.6,1.5s-0.4,1-0.7,1.4
	c-0.3,0.5-0.5,1-0.2,1.5c0,0.1,0.1,0.1,0.2,0.2c0.3,0.3,0.9,0.4,1.4,0.4h0.1c-1.2,1.6-1.9,3.6-1.9,5.6c0,3.5,2,6.7,5.1,8.3
	c0.1,0.2,0.1,0.4,0.2,0.6c0.6,2,0.8,4.1,0.6,6.1l-0.1,0.1v-0.2c0,0-4.4,3-5.7,3.7c-1.3,0.8-2.6,3.4-2.7,4.2
	c-0.1,0.7-2.1,11.7-2.1,11.7c-0.4,1.1-0.8,2.2-1,3.4l-2.6,2.3c0,0-5.4,0.5-6.9,0.1v0.3c-1.4-0.3-2.8-0.5-4.2-0.6
	c-0.8-0.1-1.5,0-2.3,0.3h-0.1l0,0c-0.8,0.1-1.6,0.3-2.4,0.7c-0.1,0-0.2,0.1-0.3,0.1v-0.4l-5.8-0.3l-3-0.6c0,0-1.1-0.8-1.7-0.7
	S202,180,202,180c-0.3-0.2-0.6-0.4-1-0.6c-0.1-0.7-0.2-1.1-0.2-1.1s-2.3-9.2-4-14.6c-1.2-3.6-2.8-5.4-3.8-6.2
	c-0.4-0.8-0.7-1.3-0.7-1.3c-0.2-0.7-1.2-2.2-1.5-2.2c0-0.1-0.1-0.1-0.1-0.1c-0.1,0-0.1,0-0.2,0c-0.5-2.4-0.8-5.5,0-8.1
	c2.1-1.7,3.3-4.2,3.3-6.9v-0.1v-0.1c0-2.1-0.7-4.1-2.1-5.7l-0.1-0.1c0,0,0.1,0,0.1-0.1c0.4-0.4,0.6-0.9,0.5-1.5
	c-0.1-0.5-0.6-1-0.8-1.5c-0.1-0.4-0.2-0.8-0.3-1.2c-0.2-0.6-0.5-1.1-0.9-1.6v0.1c-1.1-1.2-3-1.9-4.7-1.6c-1.3,0.2-2.5,0.8-3.7,1
	c-0.9,0.1-1.9,0-2.8,0.1s-1.7,0.3-2.5,0.7c-0.2,0.1-0.4,0.2-0.5,0.4s-0.2,0.5-0.3,0.7c-0.3,1.1-1.3,2-2,2.9
	c-0.8,1.1-1.3,2.4-1.4,3.8c0,0.3,0,0.7,0.1,1c0.1,0.2,0.2,0.4,0.2,0.6c0.1,0.6-0.2,1.2-0.3,1.9c-0.2,0.8-0.1,1.6,0.2,2.4
	c1.1,2.5,4.8,3.3,5.6,6c0.6,0.3,1.2,0.5,1.8,0.6c0.1,0.3,0.1,0.5,0.1,0.8l0,0c-1,1-1.2,2.8-1.2,2.8l-0.1,0.1c-0.4,0.3-1.8,1.5-3,2.3
	c-1.5,1-4,4.5-5.7,5.5s-3.2,7.4-2.8,9.7s1.9,8.8,1.3,11.1c-0.6,2.4,0.9,13.1,0.9,13.1c1,0.2,2.1,0.5,3,0.9v0.5l-0.1,1.4
	c0,0-2.8,10.1-1.7,18c1.1,7.8-0.5,8.6-0.5,8.6s0.3,3.5-0.5,4.7s-1,3.9-1,3.9s-0.1,6,0.1,7.6c0.2,1.7,0.2,4.8-0.3,5.5
	c-0.6,0.7-1.7,5.5-1.6,6.9c0.1,1.4-2.1,4.8-0.9,9c1.2,4.3-3.4,4.3-3.4,4.3s0.6,6.5,1.8,8.4l0.2,0.3c0,0.1-0.1,0.2-0.1,0.3
	c-0.5,1.7-1.1,4.4-0.7,5c0.7,1,1,0.8,1,0.8l0.2,4.3c0,0,5,4.2,8.8,4s3.1-4,3.1-4l-3.2-8.4l-0.1-0.3l3.6-6.8c0,0,1-3,1.2-4
	s1.6-4.8,1.6-4.8s3.4-8.1,3.5-9c0.1-1,0.3-6.2,1-7.2c0.7-1.1,2.5-7.1,2.5-7.1l0,0c0.6,0.6,0.9,1.5,0.6,2.4c-0.4,1.5-0.2,4.7-0.2,4.7
	s-0.2,2.7-0.5,4c-0.3,1.4-0.4,12.6,0.2,15.2c0.5,2.1,0.4,6.1,0.4,7.6c-0.4,1.6-0.7,3.6-0.1,3.8c1.1,0.4,6.5,0.3,6.5,0.3
	s2.3-0.8,5.5,2c3.1,2.8,12.8-0.8,12.8-0.8s3-0.8-2.9-3.1c-4.1-1.6-6.7-2.7-8.5-3.9c0-0.1,0.1-0.2,0.1-0.2s-2.4-2.3-0.4-6.3
	s1.9-7.4,1.9-7.4l0.3-13.5l-1-18l-0.8-18.9h0.1c0.1,3.5,0.8,11.7,4.3,10.1c4.5-2,0.7-7.2,0.7-7.2l-2-3.9l0.6-0.2l-2.2-7.2
	c-0.2-1.4-0.2-2.8-0.1-4.3c0-0.8,0-1.7-0.1-2.5c2.9-0.5,5.7-1.1,6.2-0.9c0.6,0.1,3.9,0.2,5.2,0.2c-0.4,0.3-0.8,0.7-0.8,0.7l5.3,3.6
	c0,0,1.8-1,2.2-2c0.4-0.1,0.7-0.3,1-0.5c0.1,1.2,0.4,2.6,1.5,2.6c0.3,0,0.6-0.1,0.8-0.2l8.7-1.7l-0.7,4.7l0.5,0.9
	c-0.3,3.9-0.6,8.1-0.8,11.8l-0.1,0.8h0.1c-0.4,5.7-0.7,10-0.7,10c0.5-0.9,1.2-1.7,2.2-2.2l0.1,8.4c0,0,0.4,13.3,0.4,15.1
	s0.1,5.9,0.1,5.9s0.9,5,1.5,6.6s1,9.1,1,9.1s1.3,2.1,0.7,2.8s2.2,2.5,2.2,2.5s-1.7,2.4-1.9,3.9c0,0.2,0.2,0.4,0.5,0.6
	c-0.1,0.1-0.2,0.2-0.3,0.2c-0.8,0.5-2,0.9-3.8,0.8c-4.8-0.4-8.2,4-5.3,5s11.9,1.1,11.9,1.1s2.7-1.7,4.8-0.9c0,1.8,0.1,3.4,0.1,3.6
	l0,0c-1.3,1.1-3.7,3.1-6,3.9c-3.4,1.1-4.2,5.8,0.2,6.4c4.4,0.6,10.8-0.7,10.8-0.7s3.3-2.5,5.9-3c2.5-0.5,4.7-1.8,4.3-3.2
	c-0.3-0.9-1-3.4-1.5-5c0-0.1-0.1-0.2-0.1-0.3c0.1-0.2,0.2-0.3,0.2-0.5c0,0-1.3-6.8-0.2-8.5c1.1-1.7,0.5-18.6,0.5-18.6
	s-1.8-4.3-0.9-6.9c0.9-2.6-1.5-6.3-1.5-6.3s0.3-7.4,1-11.5c0-0.2,0.1-0.3,0.1-0.5c1.2-0.4,2.3-0.8,3.5-1.3c0,0,0.6-9.3,1-11.4
	c0-0.2,0.1-0.5,0.2-0.9l0.3-1.5l0,0l0.3-1.7l0,0l1.1-5.8l2-2.6l5.3-5.4C271.2,195.4,272.5,192.5,271.9,187.2z M190.6,153.9
	L190.6,153.9L190.6,153.9L190.6,153.9z M242.7,160.5l-0.2,0.4l0.7-0.7l-1,1.1l0.3-0.7L242.7,160.5z M237.6,170.9
	c-0.2,0.5-0.4,1.1-0.6,1.7l0.4-1.2L237.6,170.9z"/>
<path class="st10" d="M221.4,187.9c0,0-0.7,4.6,1.4,4.7c2.1,0.1,3.5-3.6,3.5-3.6l-0.8-2.9L221.4,187.9z"/>
<path class="st11" d="M221.4,187.9c0,0-0.7,4.6,1.4,4.7c2.1,0.1,3.5-3.6,3.5-3.6l-0.8-2.9L221.4,187.9z"/>
<path class="st12" d="M174.8,287.8c-3.7,0.2-8.5-4-8.5-4l-0.2-4.3c0,0-0.3,0.2-1-0.8c-0.4-0.6,0.2-3.3,0.6-5
	c0.2-0.8,0.4-1.4,0.4-1.4l8.1,2.2l0.4,1l3.2,8.4C177.8,283.8,178.5,287.7,174.8,287.8z"/>
<path class="st12" d="M212.1,275.5c0,0-9.4,3.6-12.5,0.8s-5.3-2-5.3-2s-5.3,0.1-6.4-0.3c-0.6-0.2-0.3-2.2,0.1-3.9
	c0.3-1.1,0.5-2,0.5-2s9.3-3.1,10.7-1.2c0.4,0.6,1,1.1,1.5,1.5c1.7,1.2,4.3,2.3,8.4,4C215,274.7,212.1,275.5,212.1,275.5z"/>
<path class="st13" d="M203.7,202l2.6,5.2c0,0,3.7,5.2-0.6,7.2c-4.3,2-4.3-11.6-4.3-11.6L203.7,202z"/>
<path class="st14" d="M192.9,157.3c0,0,2.8,1.3,4.5,6.7s3.9,14.6,3.9,14.6s1.5,10.4,1.3,13c-0.2,1.4-0.1,2.9,0.1,4.3l2.2,7.2
	l-4.3,1.5l-6.7-25.6L192.9,157.3z"/>
<path class="st4" d="M192.9,157.3c0,0,2.8,1.3,4.5,6.7s3.9,14.6,3.9,14.6s1.5,10.4,1.3,13c-0.2,1.4-0.1,2.9,0.1,4.3l2.2,7.2
	l-4.3,1.5l-6.7-25.6L192.9,157.3z"/>
<path class="st6" d="M174.2,274.4l0.4,1l-0.5,0.9c-1.9,0.8-6.4,0.2-6.4,0.2s-0.8-1.1-2-2.9c0.2-0.8,0.4-1.4,0.4-1.4L174.2,274.4z"/>
<path class="st6" d="M201.2,268.8c-2.3,5.3-10.3,3.3-12.5,2.7c-0.4-0.1-0.6-0.2-0.6-0.2s0-0.4,0-1.1c0.3-1.1,0.5-2,0.5-2
	s9.3-3.1,10.7-1.2c0.4,0.6,1,1.1,1.5,1.5C201,268.5,201.1,268.6,201.2,268.8z"/>
<path class="st15" d="M200.8,262c-1.9,4,0.4,6.3,0.4,6.3c-2.3,5.3-10.3,3.3-12.5,2.7c-0.4-0.1-0.6-0.2-0.6-0.2s0.2-5.6-0.4-8.2
	c-0.6-2.7-0.5-13.8-0.2-15.2s0.5-4,0.5-4s-0.2-3.1,0.2-4.7c0.2-0.8,0-1.8-0.6-2.4l0,0c0,0-1.8,6-2.4,7.1c-0.6,1-0.9,6.3-1,7.2
	c-0.1,1-3.4,9-3.4,9s-1.3,3.7-1.5,4.7s-1.2,4-1.2,4l-3.9,7.5c-1.9,0.8-6.4,0.2-6.4,0.2s-0.9-1.1-2.1-3s-1.8-8.4-1.8-8.4
	s4.4-0.1,3.3-4.3c-1.1-4.3,1-7.6,0.9-9s1-6.2,1.5-6.9c0.6-0.7,0.5-3.8,0.3-5.5s-0.1-7.6-0.1-7.6s0.2-2.7,1-3.9
	c0.8-1.2,0.5-4.7,0.5-4.7s1.5-0.8,0.5-8.6s1.7-17.9,1.7-17.9l0.1-1.4l0.1-2.3c0,0,23-1.4,24.9,0.3c0.5,0.5,0.9,1.1,1.2,1.7
	c0.6,1.4,1.1,2.8,1.3,4.3l1,24.4l1,17.9l-0.3,13.5C202.6,254.6,202.7,258,200.8,262z"/>
<path class="st6" d="M193.9,213.9l-2.4,52.3l-2.9,4.8c-0.4-0.1-0.6-0.2-0.6-0.2s0.2-5.6-0.4-8.2c-0.6-2.7-0.5-13.8-0.2-15.2
	s0.5-4,0.5-4s-0.2-3.1,0.2-4.7c0.2-0.8,0-1.8-0.6-2.4V236L193.9,213.9z"/>
<path class="st6" d="M167.9,270.1c0,0,6.3-2.5,7.2-1.7s-7.4,2-7.4,2L167.9,270.1z"/>
<path class="st6" d="M198.9,263.5c-0.2,0.1-6.4,2.3-5.8,4.6S198.9,263.5,198.9,263.5z"/>
<path class="st13" d="M179.8,144.4c0,0,2.1,5,1,7.5s11.7,6.9,11.7,6.9s-3.7-9.7-0.1-15.1C196,138.2,179.8,144.4,179.8,144.4z"/>
<path class="st16" d="M254.7,287.7c-2.5,0.5-5.7,3-5.7,3s-6.3,1.3-10.6,0.7c-4.3-0.6-3.6-5.3-0.2-6.4c2.3-0.8,4.7-2.7,5.9-3.9
	c0.5-0.5,0.9-0.8,0.9-0.8l12-2.4c0,0,0.2,0.7,0.5,1.6c0.5,1.6,1.2,4.1,1.5,5C259.3,285.9,257.2,287.1,254.7,287.7z"/>
<path class="st16" d="M251.6,278.4c0,0-5.1,0.5-7.2-0.7s-5.1,0.7-5.1,0.7s-8.7-0.2-11.6-1.1s0.4-5.4,5.1-5c1.7,0.2,2.9-0.2,3.7-0.8
	c0.8-0.6,1.4-1.4,1.6-2.4l10.2,0.6l1.4,3.6L251.6,278.4z"/>
<path class="st6" d="M249.9,275.1c0,0-11.8-1.9-13.4-3.5c0.8-0.6,1.4-1.4,1.6-2.4l10.2,0.6l1.4,3.6L249.9,275.1z"/>
<path class="st17" d="M232.3,207.3l0.1,17.7c0,0,0.4,13.3,0.4,15.1s0.1,5.9,0.1,5.9s0.9,5,1.4,6.6s1,9.1,1,9.1s1.3,2.1,0.7,2.8
	c-0.5,0.8,2.1,2.5,2.1,2.5s-1.7,2.4-1.8,3.9s13.5,3.8,13.5,3.8l-5.3-54.4l-4.2-13.6L232.3,207.3z"/>
<path class="st6" d="M232.3,207.3l0.1,17.7c0,0,0.4,13.3,0.4,15.1s0.1,5.9,0.1,5.9s0.9,5,1.4,6.6s1,9.1,1,9.1s1.3,2.1,0.7,2.8
	c-0.5,0.8,2.1,2.5,2.1,2.5s-1.7,2.4-1.8,3.9s13.5,3.8,13.5,3.8l-5.3-54.4l-4.2-13.6L232.3,207.3z"/>
<path class="st6" d="M257.4,279.5c-3.9,9.4-13.3,2.1-13.3,2.1s0-0.2,0-0.5c0.5-0.5,0.9-0.8,0.9-0.8l12-2.4
	C257,277.9,257.1,278.6,257.4,279.5z"/>
<path class="st17" d="M257.6,278.7c-3.9,9.9-13.5,2.5-13.5,2.5s-0.3-5.1,0.3-7.5c0.6-2.4-0.7-9.4-0.7-9.4s-0.7-6.3-1.4-7.7
	c-0.7-1.4-0.6-4.3-0.6-4.6s0.2-2.2-0.3-3.5s-0.8-4.6-0.8-4.6s0-4.6-0.5-7.3l-1.9-9.3l-3.4-19.1l1.1-0.2l18.9-3.3
	c0,0,3.6,18.1,2.4,20c-0.3,0.4-0.5,1.3-0.7,2.4c-0.7,4.1-0.9,11.5-0.9,11.5s2.4,3.7,1.4,6.3c-0.9,2.6,0.8,6.9,0.8,6.9
	s0.5,16.9-0.5,18.6S257.6,278.7,257.6,278.7z"/>
<path class="st18" d="M255.7,155.1c0,0-17.1,12.1-13.3,6c2.1-3.3,1.7-7.4,0.9-10.5c-0.4-1.6-1-3.1-1.7-4.6c0,0,14.6-6.2,12.6-0.6
	c-0.5,1.3-0.6,2.7-0.6,4C253.8,151.5,254.5,153.4,255.7,155.1z"/>
<path class="st18" d="M224.9,182.8c0,0-7.2-2.1-8.5,0s0.4,6.6,2.5,7.3c2.2,0.7,7.2-2.5,7.2-2.5L224.9,182.8z"/>
<path class="st10" d="M233.2,179.2l-3,2.8c0,0-5.3,0.5-6.8,0.1c0,0,1.4,9.3-0.6,10.4L235,190L233.2,179.2z"/>
<path class="st6" d="M233.2,179.2l-3,2.8c0,0-5.3,0.5-6.8,0.1c0,0,1.4,9.3-0.6,10.4L235,190L233.2,179.2z"/>
<path class="st6" d="M194.4,139.3c0,5-4.1,9.1-9.1,9.1c-4.7-2.2-9.1-4.1-9.1-9.1c-0.2-5,3.7-9.2,8.7-9.4s9.2,3.7,9.4,8.7
	C194.4,138.8,194.4,139.1,194.4,139.3L194.4,139.3z"/>
<path class="st13" d="M194.4,139.1c0,5-4,9-9,9.1c-5,0-9-4-9.1-9c0-5,4-9,9-9.1c2.7,0,5.3,1.2,7,3.3
	C193.7,134.9,194.4,137,194.4,139.1z"/>
<path class="st6" d="M199.7,194.5c-0.9,0.6-1.8,1-2.8,1.5c0,0-4.6-0.7-5.3,0.1c-0.7,0.8-6.5,1.1-6.5,1.1s-8.9-0.4-10.3-1.6
	c-0.4-0.3-0.9-0.6-1.4-0.8l0.1-2.3c0,0,23-1.4,24.9,0.3C199,193.3,199.4,193.8,199.7,194.5z"/>
<path class="st14" d="M200.8,192.8c-0.2,1-3.9,2.6-3.9,2.6s-4.6-0.7-5.3,0.1c-0.7,0.8-6.5,1.1-6.5,1.1s-8.9-0.4-10.3-1.6
	c-1.3-1.1-4.3-1.7-4.3-1.7s-1.5-10.7-0.9-13.1s-0.9-8.8-1.3-11.1s1-8.6,2.7-9.7c1.7-1,4.1-4.5,5.6-5.5c1.2-0.9,2.6-2,3-2.3l0.1-0.1
	c0,0,0.2-1.9,1.2-2.8c1-1,9.8,6.1,9.8,6.1s0.1,0.5,0.7-0.5c0.1-0.2,1.3,1.5,1.5,2.2c0,0,4.8,8.5,5.1,10.2c0.3,1.7,1.6,7.4,1.8,8.8
	c0.1,0.4,0.2,1.6,0.3,3.3c0,0.3,0,0.7,0.1,1c0.2,2.8,0.4,6.3,0.5,9c0,0.3,0,0.6,0,0.9C200.8,190.8,200.9,191.8,200.8,192.8z"/>
<path class="st6" d="M170.2,171.1c0,0,3.3,4,4.4,4C175.6,175.1,170.2,171.1,170.2,171.1z"/>
<path class="st6" d="M177.1,179.7c0,0-5.4,5.9-4.7,7C173.2,187.8,177.1,179.7,177.1,179.7z"/>
<path class="st6" d="M173.2,191.5c0,0,6.2-6.8,6.5-9.2L173.2,191.5z"/>
<path class="st6" d="M181,192c0,0,7.2-3.8,7.8-6.8C189.4,182.2,181,192,181,192z"/>
<path class="st6" d="M190.1,155.3l-1,2.4l1.7,0.8l1.6,4.6c0,0,4.5,9,4.3,13.7s0.8,11.7,0.8,11.7l2.6-0.5l-1.2-13.8
	c-0.2-2.1-0.7-4.2-1.6-6.2c-2.1-4.7-5.9-13.5-6.2-13.5c-0.3,0-0.1,0.1-0.1,0.1L190.1,155.3z"/>
<path class="st19" d="M190.4,155.1l-1,2.4l1.7,0.8l1.6,4.6c0,0,4.5,9,4.3,13.7s0.8,11.7,0.8,11.7l2.6-0.5l-1.2-13.8
	c-0.2-2.1-0.7-4.2-1.6-6.2c-2.1-4.7-5.9-13.5-6.2-13.5c-0.3,0-0.1,0.1-0.1,0.1L190.4,155.1z"/>
<path class="st13" d="M219.8,190.5c-1.3-0.1-4.3-1.6-5.5-2.3l-0.5-0.3l0.1-4.7c0.3-0.2,0.6-0.3,0.9-0.5c1.6-0.7,4.9-1.7,6.6,1.4
	C223.5,188.4,221.4,190.6,219.8,190.5z"/>
<path class="st6" d="M192.4,133.3c-0.1,0.1-0.3,0.1-0.4,0.2c-1.1,0.2-2.2-0.7-3.1-0.1c-0.5,0.4-0.7,1.1-0.8,1.7
	c-0.1,1.1-0.3,2.3-0.4,3.4c0,0.4-0.1,0.8-0.2,1.2c-0.4,1-1.7,1.5-2.8,1.5c-0.4,0-0.9-0.1-1.2-0.4c-0.2-0.2-0.3-0.5-0.5-0.7
	c-1.4-1.2-1.8,1.7-1.5,2.5c0.6,1.4,2.7,2.7,1.8,4.4c-0.2,0.3-0.4,0.5-0.7,0.7c-4.8-1.5-7.4-6.6-5.9-11.4c1.5-4.8,6.6-7.4,11.4-5.9
	C189.7,130.9,191.2,131.9,192.4,133.3z"/>
<path class="st20" d="M182.7,140.1c0.2,0.2,0.3,0.5,0.5,0.7c0.3,0.3,0.8,0.4,1.2,0.4c1.1,0,2.3-0.5,2.8-1.5c0.1-0.4,0.2-0.8,0.3-1.2
	l0.4-3.4c0.1-0.7,0.2-1.4,0.8-1.7c0.9-0.6,2.1,0.3,3.1,0.1c0.8-0.2,1.3-1,1.1-1.8c-0.1-0.5-0.5-1-0.7-1.5c-0.1-0.4-0.2-0.8-0.3-1.2
	c-0.6-2.2-3.2-3.4-5.4-3.1c-1.2,0.2-2.4,0.8-3.7,1c-0.9,0.1-1.8,0-2.7,0.1c-0.8,0.1-1.7,0.3-2.4,0.7c-0.2,0.1-0.4,0.2-0.5,0.4
	c-0.1,0.2-0.2,0.5-0.3,0.7c-0.3,1.1-1.3,2-2,2.9c-0.8,1.1-1.3,2.4-1.3,3.8c0,0.3,0,0.7,0.1,1c0.1,0.2,0.2,0.4,0.2,0.6
	c0.1,0.6-0.2,1.2-0.3,1.9c-0.2,0.8-0.1,1.6,0.2,2.4c1.1,2.5,4.7,3.3,5.4,6c0.7,0.3,1.4,0.5,2.1,0.6c0.7,0,1.5-0.3,1.9-0.9
	c0.9-1.7-1.2-3-1.8-4.4C180.8,141.8,181.2,138.9,182.7,140.1z"/>
<path class="st6" d="M254.3,145.4c-0.5,1.3-0.6,2.7-0.6,4c-0.4,0.4-0.9-0.7-1.4-0.5c-1.4,0.8-3,2.7-4.7,2.7c-1.5,0-2.9-0.3-4.3-1
	c-0.4-1.6-1-3.1-1.7-4.6C241.7,146,256.2,139.8,254.3,145.4z"/>
<path class="st18" d="M257,141.8c0,5.2-4.2,9.4-9.4,9.4c-5.2,0-9.4-4.2-9.4-9.4s4.2-9.4,9.4-9.4C252.8,132.3,257,136.5,257,141.8
	L257,141.8z"/>
<path class="st21" d="M256.6,157.2c0,0-1.8,1.9-2,2.1c-0.2,0.2-5.4,21.8-5.5,22.1s-6.1,19.8-6.1,19.8l-9.7,4.7l0.8-23.9l7.1-19.7
	c0,0,2.3-2.7,3.1-3.6s9.7-6.8,9.7-6.8l1.5,3.2L256.6,157.2z"/>
<path class="st6" d="M255.4,155.6l-11.1,8l-0.2-4.4c0.7-1,9.7-6.8,9.7-6.8L255.4,155.6z"/>
<path class="st21" d="M255.6,155.1l-11.1,8l-0.2-4.4c0.7-1,9.7-6.8,9.7-6.8L255.6,155.1z"/>
<path class="st10" d="M243.9,156.7l0.4,1.9l-2.5,2.5L243.9,156.7c-0.1,0-4.3,3-5.6,3.7c-1.3,0.8-2.5,3.4-2.6,4.2
	c0,0.7-2.1,11.7-2.1,11.7s-1.5,4-1.1,5.2s-2.3,37.3-2.3,37.3c0.7-1.4,2.1-2.4,3.6-2.8l-1-21.4c0,0,1.2-14.2,1.2-14.4
	c0.1-0.2,2.7-8.4,2.7-8.4L243.9,156.7z"/>
<path class="st6" d="M244.6,158.9l-0.2,4c0,0-2.7,8.5-3.6,9.9s-3.7,9.7-3.7,9.7l-1.5,14.4l-2.7,1.2l-1.3-2.4l2.2-13.9
	c0,0,4.1-11.7,4.7-12.9l3-6.4L244.6,158.9z"/>
<path class="st22" d="M244.3,158.7l-0.2,4c0,0-2.7,8.5-3.6,9.9s-3.7,9.7-3.7,9.7l-1.5,14.4l-2.7,1.2l-1.3-2.4l2.2-13.9
	c0,0,4.1-11.7,4.7-12.9l3.1-6.4L244.3,158.7z"/>
<path class="st18" d="M213,188.9l5.2,3.6c0,0,3.7-2.1,1.5-3.4s-4-1.5-4.7-1.5S213,188.9,213,188.9z"/>
<path class="st18" d="M216.9,182.3c-0.2,0.1-0.4,0.4-0.4,0.7c0,1.1,0.1,4,1,2.7c1.1-1.6,0.9-3.1,2.7-2c1.1,0.7,2,1.5,2.8,2.5
	l-0.5-3.5C222.5,182.7,218.9,181,216.9,182.3z"/>
<path class="st6" d="M257.1,224.5c-0.3,0.4-0.5,1.3-0.7,2.4c-10.6,3.2-18.3-3.5-18.3-3.5c-0.9-3.2-1.7-6.4-2.3-9.7
	c-0.2-1.1-0.1-3.3,0-5.9l18.9-3.3C254.8,204.6,258.3,222.7,257.1,224.5z"/>
<path class="st10" d="M268,170.5c-0.5,1.6-0.3,4.8-0.3,4.8l-4.3,20.5c0,0-2.1,15.8-2.5,17.9c-0.4,2.1-1,11.4-1,11.4
	c-12.3,6-21.8-2.2-21.8-2.2c-0.9-3.2-1.7-6.4-2.3-9.7c-0.6-3.6,1.2-17.9,2-24.3c0.3-1.9,0.4-3.1,0.4-3.1l3.2-11.8
	c0,0,3.9-9.9,5.3-12.8s7.3-9.4,7.3-9.4c0.7-0.5,1.9,1.2,2.7,2.6c0.6,1.1,1.1,2.2,1.1,2.2s7.2,3.1,8.3,4.8c1.1,1.7,0.9,5.1,1,5.3
	C267.4,167,268.5,168.9,268,170.5z"/>
<path class="st6" d="M250.9,163.2c0,0,0.5,3.2-0.8,4.2c-1.3,0.9-11.4,20.6-12,21.9c0.3-1.9,0.4-3.1,0.4-3.1l3.2-11.8
	c0,0,3.9-9.9,5.3-12.8c1.4-2.9,7.3-9.4,7.3-9.4c0.7-0.5,1.9,1.2,2.7,2.6C255.7,157.5,253,162.5,250.9,163.2z"/>
<path class="st10" d="M250.7,163c0,0,0.5,3.2-0.8,4.2c-1.4,1-11.4,20.6-12,21.9c0.3-1.9,0.4-3.1,0.4-3.1l3.2-11.8
	c0,0,3.9-9.9,5.3-12.8s7.3-9.4,7.3-9.4c0.7-0.5,1.9,1.2,2.7,2.6C255.5,157.2,252.8,162.3,250.7,163z"/>
<polygon class="st23" points="265,191.9 261.6,209.6 261.6,209.6 261.3,211.3 261.3,211.3 260.6,215.1 257.4,214.5 256,214.1 
	235.8,209.9 234.3,209.6 230.9,208.8 231.6,204.4 231.9,202.6 234.3,186.4 "/>
<path class="st18" d="M246.2,206.4c0,0-8,2.9-6.3,6.3s13-2.7,13-2.7L246.2,206.4z"/>
<path class="st6" d="M251.9,231.1c0,0.2,0.3,3.3,1.5,4.4C254.7,236.5,251.9,231.1,251.9,231.1z"/>
<path class="st6" d="M243.9,242c0,0,1.4,4,7.2,5.6C256.8,249.2,243.9,242,243.9,242z"/>
<path class="st6" d="M257,141.8c0,3.4-1.8,6.5-4.7,8.2c-0.5-0.3-1-0.7-1.4-1.2s-0.7-1.2-0.5-1.8c0.2-0.5,0.7-0.8,0.8-1.3
	c0.1-0.3,0-0.6,0-0.9c-0.1-0.5-0.2-0.9-0.3-1.4c-0.1-0.4-0.2-0.9-0.6-1s-0.7,0.2-1,0.5c-0.8,0.6-2.2,1-3.1,0.5s-0.7-2.1-0.8-3
	c0-0.2-0.1-0.3-0.2-0.4c-0.1,0-0.3-0.1-0.4,0c-0.5,0-0.9-0.4-1-0.9s-0.2-1-0.2-1.5c-0.1-0.5-0.2-1-0.7-1.3c-0.3-0.2-0.7-0.2-1.1-0.2
	H240c3.1-4.2,9-5.1,13.2-2C255.6,136,257,138.8,257,141.8L257,141.8z"/>
<path class="st22" d="M249.5,142.9c0.3-0.2,0.6-0.6,1-0.5s0.5,0.6,0.6,1l0.3,1.4c0.1,0.3,0.1,0.6,0,0.9c-0.1,0.5-0.7,0.8-0.9,1.3
	c-0.2,0.6,0.1,1.3,0.5,1.8c0.7,0.9,1.8,1.5,2.9,1.7c0.3,0.1,0.6,0.1,0.9,0c0.7-0.2,1.1-0.8,1.5-1.4c1.9-2.9,3.5-6.1,3.8-9.6
	c0.1-0.7,0.1-1.4-0.1-2.1c-0.2-0.5-0.4-1.1-0.6-1.5c-0.5-1-1.1-1.9-1.8-2.8c-1.3-1.4-3.1-2.2-4.9-2.7c-2.1-0.6-4.2-0.7-6.3-0.5
	c-0.6,0.1-1.1,0.2-1.7,0.2c-0.7,0-1.4,0-2.1,0l-4.2-0.2c-0.2,0.5,0,1.1,0.3,1.5c0.3,0.5,0.6,0.9,0.6,1.5s-0.4,1-0.7,1.4
	c-0.3,0.5-0.5,1-0.2,1.5c0.3,0.4,0.9,0.5,1.4,0.5h2.1c0.4,0,0.7,0,1.1,0.2c0.4,0.3,0.6,0.8,0.7,1.3c0,0.5,0.1,1,0.2,1.5
	s0.5,0.9,1,0.9c0.1,0,0.3,0,0.4,0c0.1,0.1,0.2,0.2,0.2,0.4c0.1,0.9-0.1,2.5,0.8,3S248.7,143.5,249.5,142.9z"/>
<path class="st6" d="M261.5,161.5c-2.1-0.2-4.2,1.1-4.9,3.1c-1.1,3.2-3,9-2.5,11.3c0.7,3.3,1.4,8.7,1.4,8.7s3.4,2,1.7,4
	c-1.7,2-2.2,4.8-2.2,4.8s-2.2,1-2.7,3c-0.5,2.1-3.7,4.9-3.7,4.9l-4.9,4.9c0,0,8.1,8.2,9.7,8.6l5-5.9l5.9-7.8l5.1-5.4
	c0,0,1.2-2.8,0.6-8.2s-3-10.5-3-10.5l0.2-1.8C267.2,175.3,267.8,162.3,261.5,161.5z"/>
<path class="st10" d="M261.9,161.5c-2.1-0.2-4.2,1.1-4.9,3.1c-1.1,3.2-3,9-2.5,11.3c0.7,3.3,1.4,8.7,1.4,8.7s3.4,2,1.7,4
	c-1.7,2-2.2,4.8-2.2,4.8s-2.2,1-2.7,3c-0.5,2.1-3.7,4.9-3.7,4.9l-4.9,4.9c0,0,8.1,8.2,9.7,8.6l5-5.9l5.9-7.8l5.1-5.4
	c0,0,1.2-2.8,0.6-8.2s-3-10.5-3-10.5l0.2-1.8C267.7,175.3,268.3,162.3,261.9,161.5z"/>
<path class="st6" d="M256.9,179.9c0,0,5.1,6.3,7.3,4.9S256.9,179.9,256.9,179.9z"/>
<path class="st6" d="M258.8,175c0.5,0.2,5,6.4,7.3,5.7C268.4,180,258.8,175,258.8,175z"/>
<path class="st6" d="M260.1,185.7c0,0,0.3,3.6,4,3.1S260.1,185.7,260.1,185.7z"/>
<polygon class="st6" points="243.8,157 241.8,161.4 244.3,158.9 "/>
<polygon class="st21" points="243.8,156.7 241.8,161.2 244.3,158.7 "/>
<polygon class="st24" points="235.8,209.9 234.3,209.6 231.6,204.4 231.9,202.6 "/>
<polygon class="st24" points="261.6,209.6 261.3,211.3 261.3,211.3 257.4,214.5 256,214.1 "/>
<path class="st6" d="M200.8,189.8c-0.7,0.1-1.5,0.2-2.1,0.3c-3.7,0.5-12.4-3.9-12.4-3.9s-10.7-8.9-13.8-17.4
	c-3.1-8.5,3.7-9.7,3.7-9.7c2.5-1.4,8.1,2.6,8.9,3.3s1.4,2.4,1.4,3.4c-0.1,1.1,1.8,2.5,1.8,2.5s3.2,5.6,4,6.2c0.8,0.6,1,1.1,1.2,2.2
	c0.2,1,2.4,1.9,3.3,1.8c0.9-0.1,2,0.3,2,0.8c0,0.4,0.9,0.6,1.6,0.6C200.5,183,200.7,187.1,200.8,189.8z"/>
<path class="st6" d="M200.7,188.9c-0.6,0.1-1.1,0.2-1.6,0.2c-3.7,0.5-12.4-3.9-12.4-3.9s-10.7-8.9-13.8-17.4
	c-3.1-8.5,3.7-9.7,3.7-9.7c2.5-1.4,8.1,2.6,8.9,3.3s1.4,2.4,1.4,3.4c-0.1,1.1,1.8,2.5,1.8,2.5s3.2,5.6,4,6.2s1,1.1,1.2,2.2
	s2.4,1.9,3.3,1.8c0.9-0.1,2,0.3,2,0.8c0,0.3,0.5,0.5,1.1,0.6c0,0.3,0,0.7,0.1,1C200.4,182.7,200.6,186.2,200.7,188.9z"/>
<path class="st6" d="M214.7,182.8l-0.2,5.4h-0.2l-0.5-0.3l0.1-4.7C214.1,183.1,214.4,183,214.7,182.8z"/>
<path class="st14" d="M176.1,158.7c0,0-6.8,1.3-3.7,9.7c3.1,8.5,13.8,17.4,13.8,17.4s8.8,4.3,12.4,3.9c3.7-0.5,9.3-1.8,10-1.6
	s5.6,0.2,5.6,0.2l0.2-5.7l-5.7-0.3l-2.9-0.6c0,0-1-0.8-1.6-0.7s-1.9-0.7-1.9-0.7s-1-0.8-1.7-0.8s-2.1-0.2-2.1-0.7s-1.1-0.8-2-0.8
	s-3-0.8-3.3-1.8c-0.2-1-0.4-1.6-1.2-2.2c-0.8-0.6-4-6.2-4-6.2s-1.9-1.4-1.8-2.5s-0.6-2.8-1.4-3.4S178.7,157.2,176.1,158.7z"/>
<path class="st6" d="M193.5,178.1c0,0-2.6,2.6-1.9,3.1L193.5,178.1z"/>
<path class="st6" d="M196.3,180.2c0,0-3.4,2.6-2.5,2.8C194.7,183.1,196.3,180.2,196.3,180.2z"/>
<path class="st6" d="M190.5,184c0.5,0.2,7.7,4.5,10.4,4.5L190.5,184z"/>
<path class="st6" d="M191,155.4c0,0-1.3,4.2-1.8,4.2c-0.4,0-6.8-5.2-9.4-7.3l0.1-0.1c0,0,0.2-1.9,1.2-2.8
	C182.2,148.3,191,155.4,191,155.4z"/>
<path class="st14" d="M190.8,154.9c0,0-1.3,4.2-1.8,4.2c-0.4,0-6.8-5.2-9.4-7.3l0.1-0.1c0,0,0.2-1.9,1.2-2.8
	S190.8,154.9,190.8,154.9z"/>
<g class="st25">
	<path d="M173.7,141.4L173.7,141.4c0.8,1.9,3.2,2.9,4.5,4.4C177.4,143.9,175.1,143,173.7,141.4z"/>
	<path d="M182.3,145.9c-0.3,0.6-1.1,1-1.9,0.9c-0.6,0-1.3-0.2-1.9-0.5c0.2,0.3,0.4,0.7,0.5,1c0.7,0.3,1.4,0.5,2.1,0.6
		c0.7,0,1.5-0.3,1.9-0.9c0.5-1,0-1.9-0.7-2.8C182.6,144.8,182.6,145.4,182.3,145.9z"/>
	<path d="M192.9,131.7c-0.1-0.5-0.5-1-0.7-1.5c-0.1-0.4-0.2-0.8-0.3-1.2c-0.2-0.6-0.5-1.1-0.9-1.6c0.1,0.1,0.1,0.3,0.1,0.4
		c0.1,0.4,0.2,0.8,0.3,1.2c0.2,0.5,0.6,0.9,0.7,1.5c0.1,0.8-0.3,1.6-1.1,1.8c-1,0.2-2.2-0.7-3.1-0.1c-0.6,0.4-0.7,1.1-0.8,1.7
		c-0.1,1.1-0.3,2.3-0.4,3.4c0,0.4-0.1,0.8-0.2,1.2c-0.4,1-1.7,1.5-2.8,1.5c-0.4,0-0.9-0.1-1.2-0.4c-0.2-0.2-0.3-0.4-0.5-0.7
		c-1.4-1.2-1.8,1.7-1.5,2.5c0.2,0.4,0.4,0.7,0.7,1c-0.3-0.9,0.1-3.6,1.5-2.5c0.2,0.2,0.4,0.4,0.5,0.7c0.3,0.3,0.8,0.4,1.2,0.4
		c1.1,0,2.3-0.5,2.8-1.5c0.1-0.4,0.2-0.8,0.2-1.2c0.1-1.1,0.3-2.3,0.4-3.4c0.1-0.7,0.2-1.4,0.8-1.7c0.9-0.6,2.1,0.3,3.1,0.1
		C192.5,133.2,193,132.5,192.9,131.7z"/>
</g>
<path class="st6" d="M255.6,149.8c-0.3,0.1-0.6,0-0.9,0c-1.1-0.2-2.2-0.8-2.9-1.7c-0.4-0.5-0.7-1.2-0.5-1.8c0.2-0.5,0.7-0.8,0.8-1.3
	c0.1-0.3,0-0.6,0-0.9l-0.3-1.4c-0.1-0.4-0.2-0.9-0.6-1s-0.7,0.2-1,0.5c-0.8,0.6-2.2,1-3.1,0.5s-0.7-2.1-0.8-3c0-0.2-0.1-0.3-0.2-0.4
	c-0.1,0-0.3-0.1-0.4,0c-0.5,0-0.9-0.4-1-0.9s-0.2-1-0.2-1.5c-0.1-0.5-0.2-1-0.7-1.3c-0.3-0.2-0.7-0.2-1.1-0.2h-2.1
	c-0.5,0-1.1,0-1.4-0.5c-0.3-0.4-0.1-1,0.2-1.5s0.7-0.9,0.7-1.4s-0.3-1-0.6-1.5c-0.2-0.2-0.3-0.5-0.4-0.8h-0.6
	c-0.2,0.5,0,1.1,0.3,1.5c0.3,0.5,0.6,0.9,0.6,1.5s-0.4,1-0.7,1.4s-0.5,1-0.2,1.5c0.3,0.4,0.9,0.5,1.4,0.5h2.1c0.4,0,0.7,0,1.1,0.2
	c0.4,0.3,0.6,0.8,0.7,1.3c0,0.5,0.1,1,0.2,1.5s0.5,0.9,1,0.9c0.1,0,0.3,0,0.4,0c0.1,0.1,0.2,0.2,0.2,0.4c0.1,0.9-0.1,2.5,0.8,3
	s2.4,0.1,3.1-0.5c0.3-0.2,0.7-0.6,1-0.5s0.5,0.6,0.6,1l0.3,1.4c0.1,0.3,0.1,0.6,0,0.9c-0.1,0.5-0.7,0.8-0.9,1.3
	c-0.2,0.6,0.1,1.3,0.5,1.8c0.7,0.9,1.8,1.5,2.9,1.7c0.3,0.1,0.6,0.1,0.9,0c0.5-0.1,0.9-0.5,1.2-0.9
	C255.9,149.6,255.7,149.7,255.6,149.8z"/>
<ellipse class="st1" cx="364.6" cy="246.5" rx="6.8" ry="1.1"/>
<ellipse class="st1" cx="294.8" cy="288.8" rx="19.8" ry="3"/>
<ellipse class="st1" cx="351.2" cy="275.9" rx="15.5" ry="2.4"/>
<ellipse class="st1" cx="348.7" cy="299.6" rx="26.2" ry="4"/>
<path class="st23" d="M359.2,236.4c0,0-1,4.5,3.3,5l0.3-0.5C362.8,240.9,359.5,237.8,359.2,236.4z"/>
<path class="st23" d="M364.2,240.9l-1,0.2h-0.1c0,0-2.7-2.2-2.6-7c0.4,0.7,0.8,1.4,1.3,2C362.8,237.6,364,239.4,364.2,240.9z"/>
<path class="st23" d="M364.5,241.4c-0.2,0.1-0.4,0.1-0.5,0.1c-2.6-0.6-1.7-9-1.7-9c0.1,0.1,0.3,1.1,0.9,2.5
	C364.2,237.4,365.4,240.8,364.5,241.4z"/>
<path class="st23" d="M370.3,236.4c0,0,0.2,4.5-4.1,5l-0.3-0.5C365.8,240.9,370,237.8,370.3,236.4z"/>
<path class="st23" d="M369,234.1c0,4.8-3.4,7-3.4,7h-0.1l-1-0.2c0.2-1.5,1.4-3.4,2.5-4.8C367.5,235.4,368.2,234.7,369,234.1z"/>
<path class="st23" d="M365.5,240.9c-0.2,0.2-0.3,0.3-0.6,0.4l0,0c-0.1,0-0.1,0.1-0.2,0.1c-0.6,0.1-0.8-0.3-0.8-1.1
	c0.1-1.4,0.9-3.8,1.7-5.6c0.4-0.9,0.9-1.7,1.6-2.3C367.2,232.5,367.1,239,365.5,240.9z"/>
<path class="st23" d="M364.7,229.5c0,0-2.9,10.2-0.4,11.7S365.4,230.4,364.7,229.5z"/>
<path class="st6" d="M359.2,236.4c0,0-1,4.5,3.3,5l0.3-0.5C362.8,240.9,359.5,237.8,359.2,236.4z"/>
<path class="st6" d="M364.2,240.9l-1,0.2h-0.1c0,0-2.7-2.2-2.6-7c0.4,0.7,0.8,1.4,1.3,2C362.8,237.6,364,239.4,364.2,240.9z"/>
<path class="st6" d="M364.5,241.4c-0.2,0.1-0.4,0.1-0.5,0.1c-2.6-0.6-1.7-9-1.7-9c0.1,0.1,0.3,1.1,0.9,2.5
	C364.2,237.4,365.4,240.8,364.5,241.4z"/>
<path class="st6" d="M370.3,236.4c0,0,0.2,4.5-4.1,5l-0.3-0.5C365.8,240.9,370,237.8,370.3,236.4z"/>
<path class="st6" d="M369,234.1c0,4.8-3.4,7-3.4,7h-0.1l-1-0.2c0.2-1.5,1.4-3.4,2.5-4.8C367.5,235.4,368.2,234.7,369,234.1z"/>
<path class="st6" d="M365.5,240.9c-0.2,0.2-0.3,0.3-0.6,0.4l0,0c-0.1,0-0.1,0.1-0.2,0.1c-0.6,0.1-0.8-0.3-0.8-1.1
	c0.1-1.4,0.9-3.8,1.7-5.6c0.4-0.9,0.9-1.7,1.6-2.3C367.2,232.5,367.1,239,365.5,240.9z"/>
<path class="st6" d="M364.7,229.5c0,0-2.9,10.2-0.4,11.7S365.4,230.4,364.7,229.5z"/>
<path class="st23" d="M359.2,236.4c0,0-0.6,4.5,3.7,5l0.3-0.5C363.2,240.9,359.5,237.8,359.2,236.4z"/>
<path class="st23" d="M364.6,240.9l-1,0.2h-0.1c0,0-3.1-2.2-3-7c0,0,0.8,0.8,1.7,2C363.2,237.6,364.4,239.4,364.6,240.9z"/>
<path class="st6" d="M364.6,240.9l-1,0.2c-0.9-0.8-1.3-3-1.5-5C363.2,237.6,364.4,239.4,364.6,240.9z"/>
<path class="st23" d="M364.9,241.4c-0.2,0.1-0.4,0.1-0.5,0.1c-2.6-0.6-2.1-9-2.1-9c0.1,0.1,0.7,1.1,1.3,2.5
	C364.6,237.4,365.8,240.8,364.9,241.4z"/>
<path class="st23" d="M370.3,236.4c0,0,0.6,4.5-3.7,5l-0.3-0.5C366.2,240.9,370,237.8,370.3,236.4z"/>
<path class="st23" d="M369,234.1c0,4.8-3,7-3,7h-0.1l-1-0.2c0.2-1.5,1.4-3.4,2.5-4.8C368.2,235,369,234.1,369,234.1z"/>
<path class="st6" d="M367.3,236.2c-0.1,1.8-0.5,3.8-1.3,4.8c-0.1,0.1-0.1,0.1-0.2,0.2l-1-0.2C365.1,239.4,366.3,237.6,367.3,236.2z"
	/>
<path class="st23" d="M365.9,240.9c-0.2,0.2-0.3,0.3-0.6,0.4l0,0c-0.1,0-0.1,0.1-0.2,0.1c-0.6,0.1-0.8-0.3-0.8-1.1
	c0.1-1.4,0.9-3.8,1.7-5.6c0.6-1.3,1.1-2.3,1.2-2.3C367.2,232.5,367.5,239,365.9,240.9z"/>
<path class="st6" d="M364.9,241.4c-0.1,0-0.3,0-0.4-0.1c-1.2-0.8-1.2-3.6-0.9-6.3C364.6,237.4,365.8,240.8,364.9,241.4z"/>
<path class="st6" d="M365.9,240.9c-0.1,0.3-0.3,0.5-0.6,0.4l0,0c-0.1,0-0.2-0.1-0.3-0.1c-0.3-0.2-0.6-0.5-0.7-0.9
	c0.1-1.4,0.9-3.8,1.7-5.6C366.2,237.3,366.3,239.9,365.9,240.9z"/>
<path class="st23" d="M364.7,229.5c0,0-2.5,10.2,0,11.7C367.2,242.8,365.4,230.4,364.7,229.5z"/>
<polygon class="st26" points="369.5,240.7 359.2,240.7 359.2,242.4 360.8,242.4 360.8,242.7 361.4,246 367.4,246 368,242.7 
	368.1,242.4 369.5,242.4 "/>
<polygon class="st6" points="369.5,240.7 359.2,240.7 359.2,242.4 360.8,242.4 360.8,242.7 361.4,246 367.4,246 368,242.7 
	368.1,242.4 369.5,242.4 "/>
<polygon class="st26" points="368.6,241.7 368.4,242.7 367.8,246 361.8,246 361.2,242.7 361,241.7 "/>
<polygon class="st6" points="368.6,241.7 368.4,242.7 361.2,242.7 361,241.7 "/>
<rect x="359.6" y="240.7" class="st26" width="10.3" height="1.7"/>
<circle class="st1" cx="82.1" cy="86.2" r="3"/>
<circle class="st1" cx="366.6" cy="179.4" r="4"/>
<circle class="st1" cx="374.2" cy="170.9" r="2.9"/>
<circle class="st1" cx="87.2" cy="75.5" r="4"/>
<circle class="st1" cx="71.9" cy="93.6" r="4"/>
</svg>
