<?xml version="1.0" encoding="utf-8"?>
<!-- Generator: Adobe Illustrator 24.0.1, SVG Export Plug-In . SVG Version: 6.00 Build 0)  -->
<svg version="1.1" id="Layer_1" xmlns="http://www.w3.org/2000/svg" xmlns:xlink="http://www.w3.org/1999/xlink" x="0px" y="0px"
	 viewBox="0 0 1300 400" style="enable-background:new 0 0 1300 400;" xml:space="preserve">
<style type="text/css">
	.st0{fill:url(#SVGID_1_);stroke:#000000;stroke-width:1.6452;stroke-miterlimit:10;}
	.st1{fill:#F1F1F1;}
	.st2{fill:#FFFFFF;}
	.st3{fill:#3F3D56;}
	.st4{fill:#63C7FF;}
	.st5{opacity:0.1;enable-background:new    ;}
	.st6{fill:#CACACA;}
	.st7{fill:#FFB8B8;}
	.st8{fill:#2F2E41;}
	.st9{fill:#CCCCCC;}
</style>
<linearGradient id="SVGID_1_" gradientUnits="userSpaceOnUse" x1="-9.094947e-13" y1="-580" x2="1300" y2="-580" gradientTransform="matrix(1 0 0 -1 0 -380)">
	<stop  offset="0" style="stop-color:#007194"/>
	<stop  offset="1" style="stop-color:#41C1C9"/>
</linearGradient>
<rect x="0" class="st0" width="1300" height="400"/>
<path class="st1" d="M423.5,308.8c3.3,5.9,0.5,25.9,0.5,25.9s-18.6-7.9-21.9-13.8c-3.3-5.9-1.3-13.4,4.7-16.8
	C412.7,300.8,420.2,302.8,423.5,308.8z"/>
<path class="st2" d="M424.3,334.6l-0.4,0.1c-3.8-18.1-17.1-30.3-17.2-30.5l0.3-0.3C407.1,304.1,420.5,316.4,424.3,334.6z"/>
<path class="st1" d="M454,315.5c-4.5,8.2-30.2,19.4-30.2,19.4s-4.2-27.6,0.3-35.9c4.5-8.2,14.9-11.2,23.1-6.7
	C455.5,296.9,458.5,307.3,454,315.5L454,315.5z"/>
<path class="st2" d="M424,335.2l-0.4-0.4c18.5-17.6,23.3-42.2,23.4-42.4l0.5,0.1C447.5,292.8,442.7,317.5,424,335.2z"/>
<path class="st3" d="M164.7,253.1c-2.9,0-5.8-0.4-8.7-1.1l-0.6-0.2l-0.5-0.3c-18.8-9.4-34.6-21.8-47-36.9
	c-10.3-12.6-18.3-26.8-23.7-42.2c-6.5-18.4-9.6-37.7-9.2-57.2c0-0.4,0-0.7,0-0.9c0-9.5,5.2-17.8,13.4-21.1
	c6.2-2.6,62.7-25.8,66.7-27.5c7.7-3.8,15.9-0.6,17.2-0.1c2.9,1.2,55.1,22.5,66.4,27.9c11.6,5.5,14.7,15.5,14.7,20.5
	c0,22.6-3.9,43.8-11.7,62.9c-6.2,15.5-15.1,29.7-26.2,42.2c-21.4,24-42.7,32.6-42.9,32.6C170.1,252.7,167.4,253.1,164.7,253.1z
	 M159.7,240.6c1.9,0.4,6.1,1,8.9,0c3.5-1.3,21.4-10.6,38.1-29.4c23.1-26,34.8-58.7,34.8-97.1c0-0.8-0.6-6.3-8-9.8
	c-11.1-5.3-65.3-27.4-65.8-27.7l-0.1-0.1c-1.1-0.5-4.8-1.5-7.2-0.2l-0.5,0.2c-0.6,0.2-60.5,24.9-66.9,27.5
	c-4.5,1.9-6.1,6.5-6.1,10.2c0,0.3,0,0.7,0,1.2C86.4,141.8,92.4,206.6,159.7,240.6z"/>
<path class="st4" d="M157.6,71.2c0,0-60.5,24.8-66.9,27.5s-9.7,9.2-9.7,15.7c0,6.5-4.9,91,76.7,131.9c0,0,7.4,2,13,0
	c5.6-2,76.9-36.6,76.9-132.2c0,0,0-9.7-11.3-15.1C224.8,93.6,170,71.2,170,71.2S163.3,68.2,157.6,71.2z"/>
<path class="st5" d="M164.1,90.6v132.5c0,0-61-29.4-60.5-106.6L164.1,90.6z"/>
<polygon class="st2" points="164.9,185.8 145.4,160.8 156.8,152 166,163.9 197,131.1 207.4,140.9 "/>
<path class="st6" d="M456.2,336.1H278.7c-0.3,0-0.5-0.2-0.5-0.5s0.2-0.5,0.5-0.5h177.6c0.3,0,0.5,0.2,0.5,0.5
	S456.5,336.1,456.2,336.1z"/>
<polygon class="st7" points="330,328.7 337.2,328.7 340.6,300.9 330,300.9 "/>
<path class="st8" d="M328.2,326.4l14.2,0h0c5,0,9,4.1,9,9v0.3l-23.2,0L328.2,326.4z"/>
<polygon class="st7" points="354.2,328.7 361.4,328.7 364.9,300.9 354.2,300.9 "/>
<path class="st8" d="M352.4,326.4l14.2,0h0c5,0,9,4.1,9,9v0.3l-23.2,0L352.4,326.4z"/>
<polygon class="st8" points="341.3,231.1 343.1,319.3 329.1,318.4 319.4,262.3 316.3,224 "/>
<path class="st8" d="M365.3,216.3l2,104.4l-16.3-0.5l-3.5-62.1l-6.1-22.5l-25-11.7l4.1-28.1l36.8-0.5L365.3,216.3z"/>
<circle class="st7" cx="337.2" cy="110.3" r="12.5"/>
<polygon class="st9" points="347.6,128.1 349.5,131 354.6,145.3 350.5,201 326.5,201.5 323.5,137.6 329.9,129.6 "/>
<path class="st8" d="M313.7,139.2l-4.1-0.5c0,0-1,0.5-1.5,4.1c-0.5,3.6-6.6,35.2-6.6,35.2l8.2,38.8l9.2-12.3l-5.6-21.5l5.6-21.5
	L313.7,139.2z"/>
<polygon class="st8" points="365.8,138.7 368.9,138.7 376.6,180 369.4,212.2 362.3,200.5 364.3,187.7 363.3,176.5 359.7,169.8 "/>
<path class="st8" d="M344.6,110.3l-2.3-0.6c0,0-1.7-9.7-5.7-8.5c-4,1.1-14.2,2.3-14.2-2.3s9.7-8.5,15.4-8
	c5.7,0.6,12.9,2.5,14.8,10.8c2.9,13.4-6.1,16.8-6.1,16.8l0.1-0.5C347.5,115.3,346.7,112.3,344.6,110.3z"/>
<path class="st8" d="M310.2,138.7l16.3-6.6l3.8-2.8l11.5,50.8l5.4-52.4l21.2,11l-7.2,34.7l-1,13.3l3.1,10.7c0,0,10.7,7.7,7.2,15.8
	c-3.6,8.2-7.7,8.7-7.7,8.7s-17.4-16.3-18.4-20.4c-1-4.1-2.6-11.2-2.6-11.2s-8.7,32.7-18.9,32.2c-10.2-0.5-10.2-11.2-10.2-11.2
	l2.6-11.2l4.1-11.7l-2-19.4L310.2,138.7z"/>
</svg>
