<?xml version="1.0" encoding="utf-8"?>
<!-- Generator: Adobe Illustrator 24.0.1, SVG Export Plug-In . SVG Version: 6.00 Build 0)  -->
<svg version="1.1" id="Layer_1" xmlns="http://www.w3.org/2000/svg" xmlns:xlink="http://www.w3.org/1999/xlink" x="0px" y="0px"
	 viewBox="0 0 1300 400" style="enable-background:new 0 0 1300 400;" xml:space="preserve">
<style type="text/css">
	.st0{fill:url(#SVGID_1_);stroke:#000000;stroke-width:1.6452;stroke-miterlimit:10;}
	.st1{opacity:0.1;fill:#0D8CD8;enable-background:new    ;}
	.st2{fill:#EAECF0;}
	.st3{fill:#3A3768;}
	.st4{opacity:0.1;enable-background:new    ;}
	.st5{fill:#EFC6CD;}
	.st6{fill:#D48A9B;}
	.st7{fill:#DFE6F5;}
	.st8{opacity:0.15;enable-background:new    ;}
	.st9{fill:#4C4C56;}
	.st10{fill:#D1D9EC;}
	.st11{fill:#0D8CD8;}
	.st12{fill:url(#SVGID_2_);}
	.st13{fill:url(#SVGID_3_);}
	.st14{fill:#D38884;}
	.st15{fill:#A36468;}
	.st16{fill:#444053;}
	.st17{fill:#67647E;}
	.st18{opacity:0.1;}
	.st19{fill:#D3DAE1;}
	.st20{fill:#FFFFFF;}
	.st21{fill:#D5E1F4;}
	.st22{fill:url(#SVGID_4_);}
	.st23{fill:#EFB7B9;}
	.st24{opacity:5.000000e-02;enable-background:new    ;}
	.st25{opacity:0.7;}
	.st26{fill:#2E001E;}
	.st27{fill:#FF2BC2;}
	.st28{fill:#EA6C00;}
	.st29{fill:#FDAD00;}
	.st30{fill:#FDD231;}
	.st31{fill:#FEEEB7;}
</style>
<linearGradient id="SVGID_1_" gradientUnits="userSpaceOnUse" x1="0" y1="592" x2="1300" y2="592" gradientTransform="matrix(1 0 0 1 0 -392)">
	<stop  offset="0" style="stop-color:#007194"/>
	<stop  offset="1" style="stop-color:#41C1C9"/>
</linearGradient>
<rect class="st0" width="1300" height="400"/>
<path class="st1" d="M454.7,273.2c-1.7,3.7-4.2,6.9-7.1,9.4c-0.4,0.4-0.9,0.7-1.3,1.1c-0.6,0.5-1.2,0.9-1.8,1.3
	c-4.8,3.4-10.4,5.7-15.9,7.3c-1.5,0.5-3,0.9-4.5,1.3c-1.3,0.3-2.5,0.7-3.8,0.9c-0.5,0.1-1,0.2-1.4,0.3c-0.5,0.1-1,0.2-1.5,0.3
	l-0.7,0.2c-14.2,2.9-28.5,3.4-43,2.7H373l-1.1-0.1c-2.9-0.2-5.9-0.4-8.8-0.6l-1.1-0.1h-0.5c-1.6-0.2-3.3-0.3-4.9-0.5
	c-2.2-0.2-4.3-0.5-6.5-0.8h-0.3h-0.2l0,0c-7.8-1-15.6-2.1-23.4-3.3l-1.1-0.2l-2-0.3l-1.7-0.3l0,0l-0.5-0.1c-2.6-0.4-5.3-0.8-7.9-1.2
	l-0.4-0.1c-4.9-0.7-9.9-1.5-14.9-2.1l-0.6-0.1l0,0c-2-0.3-4.1-0.5-6.1-0.8l-1.5-0.2l-2.1-0.2c-5.7-0.6-11.4-1.1-17.1-1.4
	c-2.7-0.2-5.5-0.3-8.2-0.3c-2.3-0.1-4.5-0.1-6.8-0.1c-3.1,0-6.2,0-9.2,0.1l0,0h-0.7c-4.4,0.1-8.7,0.2-13.1,0.4h-0.8h-0.3
	c-9.3,0.4-18.6,0.8-27.8,1.2l-2.3,0.1h-0.3c-3.2,0.1-6.4,0.2-9.6,0.3h-0.9l0,0h-1h-1.4c-1.5,0-3,0-4.5,0h-1.8
	c-5.4,0-10.9-0.2-16.3-0.5h-0.6c-10.5-0.6-20.8-1.9-31-4.3c-1.1-0.2-2.1-0.5-3.2-0.8c-7-1.7-13.9-4.1-20.7-6.9
	c-3.2-1.4-6.4-2.9-8.8-5.6c-6.1-6.8-3.8-20.2,4.1-24.1c6.2-3,13.5-0.6,20.2-1.9c0.4-0.1,0.8-0.2,1.2-0.3c0.9-0.3,1.7-0.7,2.5-1.1
	c0.3-0.2,0.5-0.3,0.8-0.5c0.6-0.4,1.2-0.8,1.8-1.2c1-0.7,1.9-1.5,2.8-2.3c0.4-0.4,0.8-0.8,1.1-1.1c1.3-1.3,2.4-2.8,3.4-4.5
	c0.3-0.6,0.7-1.3,0.9-1.9c0.1-0.3,0.3-0.7,0.4-1.1c0.2-0.5,0.3-1,0.4-1.6c0.4-2.5-0.2-5-2.4-7.1c-0.2-0.2-0.4-0.4-0.6-0.5
	c-0.4-0.3-0.9-0.6-1.3-0.9c-0.2-0.1-0.4-0.2-0.6-0.3c-2.8-1.3-6.5-1.8-9.5-2.7l0,0c-0.9-0.3-1.9-0.6-2.7-1c-0.6-0.3-1.1-0.6-1.7-0.9
	l0,0l-0.1-0.1l0,0c-4.7-2.7-8.8-6.4-12.1-10.9c-0.8-1.1-1.6-2.4-2.2-3.6c-0.2-0.4-0.4-0.8-0.6-1.1c-5.4-10.8-6-24.7-0.3-35.3
	c0.7-1.3,1.5-2.5,2.3-3.7c0.3-0.4,0.6-0.8,0.8-1.1c5.4-7,13.1-11.8,20.9-15.3c10.5-4.7,21.5-7.7,32.6-9.7c2.3-0.4,4.5-0.8,6.8-1.1
	c9.5-1.3,19.1-2,28.6-2.6c8.9-0.5,17.9-0.8,26.9-1c3,0,6.1-0.1,9.2-0.1c6.9,0,13.8,0.1,20.7,0.4c2.3,0.1,4.5,0.2,6.8,0.3
	c5.8,0.3,11.6,0.8,17.4,1.4c2.8,0.3,5.6,0.6,8.3,0.9c21.1,2.5,41.9,6.9,62,13.6c2.3,0.8,4.5,1.6,6.8,2.4c8.4,3.1,16.7,6.6,24.9,10.6
	c0.8,0.4,1.5,0.8,2.3,1.1c5.1,2.6,10.1,5.3,15,8.3c6.5,3.9,12.8,8.2,18.7,13c2.3,1.9,4.6,3.9,6.8,5.9c3.9,3.6,7.5,7.6,10.9,11.8
	c0.3,0.4,0.6,0.8,0.9,1.1c1.5,2,2.9,4.1,4.3,6.2c6.6,10.5,11.1,22.5,14.3,34.8C457.4,251.2,459.3,263.2,454.7,273.2z"/>
<path class="st1" d="M450.6,236.6h-26.4v-37.1H436c-0.3-0.4-0.6-0.8-0.9-1.1h-10.9v-11.8c-2.2-2-4.5-4-6.8-5.9v17.8h-60.9v-39h27.2
	c-0.8-0.4-1.5-0.8-2.3-1.1h-24.9v-10.6c-2.3-0.8-4.5-1.6-6.8-2.4v13h-86.9l-0.2-0.2l25.1-26.4c-2.8-0.3-5.5-0.6-8.3-0.9L262,149.2
	v-19.6c-2.3-0.1-4.5-0.2-6.8-0.3v21.2l-20.7-21.6c-3.1,0-6.1,0-9.2,0.1l28,29.4l-0.2,0.2h-83.3v-26c-2.3,0.3-4.5,0.7-6.8,1.1v24.9
	h-53.6c-0.3,0.4-0.6,0.8-0.8,1.1H163v39h-56.4c0.2,0.4,0.4,0.8,0.6,1.1H163v37.1h-27.4c-0.4,0.4-0.8,0.8-1.1,1.1h28.6v38
	c2.3,0.4,4.5,0.7,6.8,1.1V238h85.3v47.6c2.3,0,4.5,0,6.8,0.1V238h87.7v58h0.3c2.2,0.3,4.4,0.5,6.5,0.8v-59h60.9v57.6
	c0.5-0.1,1-0.2,1.5-0.3c0.5-0.1,1-0.2,1.4-0.3c1.3-0.3,2.5-0.6,3.8-0.9V238h26.6C450.7,237.3,450.6,237,450.6,236.6z M255.1,236.6
	h-85.3v-37.1h85.3V236.6z M255.1,198.3h-85.3v-39h84.1l1.2,1V198.3z M349.6,236.6h-87.7v-37.1h87.7V236.6z M349.6,198.3h-87.7v-39
	h87.7V198.3z M417.3,236.6h-60.9v-37.1h60.9V236.6z"/>
<path class="st2" d="M189.3,289v0.1l0,0V289L189.3,289z"/>
<path class="st2" d="M191,287.3h-0.9l0,0h-1h-1.4l-0.2-1.8l-0.1-1.7l-0.7-7.8v-0.2v-0.1l-0.2-2.2l2.9-1.2l0.4,3.2v0.2l0,0l0.7,6.5
	l0.2,2l0.1,1.2l0.1,1l0,0L191,287.3z"/>
<polygon class="st3" points="201.3,289 201.4,289.1 201.1,289.1 201.1,289 "/>
<path class="st3" d="M227.8,289.1L227.8,289.1L227.8,289.1z"/>
<path class="st3" d="M246.1,244c0,0.1,0,0.1,0,0.1l0,0c0,0-2.7,8.1-3.6,15.1c-0.1,0.5-0.1,0.9-0.1,1.4s-0.1,1-0.1,1.4
	c0,0.5,0,1.1,0,1.6c0,0.1,0,0.2,0,0.3c0,0.2,0,0.5,0,0.7s0,0.5,0,0.7s0,0.5,0.1,0.7c0.7,7.5,3.2,18.5,3.2,18.5s0.1,0.3,0.2,0.8h-0.7
	c-4.4,0.1-8.7,0.2-13.1,0.4h-0.8h-0.3c-9.3,0.4-18.6,0.8-27.8,1.2l-2.3,0.1h-0.3c-3.2,0.1-6.4,0.2-9.6,0.3H190
	c0.2-0.3,0.5-0.7,0.7-0.9c0.2-0.2,0.5-0.5,0.8-0.6c1.5-1,3.1-1.8,4.7-2.3c0.4-0.1,0.7-0.2,1.1-0.1h2.2h0.3l3.3,0.1l28.5,0.6h0.1h0.2
	c0.3-0.1,0.7-0.2,1-0.4c1.1-0.5,1.9-1.6,2-2.9c0-0.1,0-0.2,0-0.3c0-0.2,0-0.3,0-0.5c0-0.1,0-0.2,0-0.4s0-0.3-0.1-0.4
	c-0.7-4.2-1.9-17.3-1.9-17.3l0,0c0,0,0-0.6,0-1.5c0-0.1,0-0.2,0-0.2V260c0-0.2,0-0.4,0-0.7c0-0.1,0-0.3,0-0.5s0-0.5,0.1-0.7l0,0
	c0-0.2,0-0.3,0-0.5s0,0,0-0.1c0.5-5,1.9-13,6.5-16c2.1-1.4,3.6-1.7,4.5-1.4c1.4,0.4,1.7,2,1.8,3c0,0.1,0,0.1,0,0.2
	C246.1,243.6,246.1,243.8,246.1,244z"/>
<path class="st4" d="M189.3,289v0.1l0,0V289L189.3,289z"/>
<polygon class="st4" points="201.3,289 201.4,289.1 201.1,289.1 201.1,289 "/>
<path class="st4" d="M227.8,289.1L227.8,289.1L227.8,289.1z"/>
<path class="st4" d="M246.1,244c0,0.1,0,0.1,0,0.1s-2.2,6.7-3.3,13.1l0,0c-0.1,0.5-0.1,0.9-0.2,1.3c0,0.2-0.1,0.4-0.1,0.7
	c-0.1,0.5-0.1,0.9-0.1,1.4s-0.1,1-0.1,1.4c0,0.5,0,1.1,0,1.6c0,0.1,0,0.2,0,0.3c0,0.2,0,0.5,0,0.7s0,0.5,0,0.7s0,0.5,0.1,0.7
	c0,0.2,0,0.5,0.1,0.7c0.1,1,0.2,2,0.4,3c1,7,2.8,14.8,2.8,14.8s0.1,0.3,0.2,0.8l0,0h-0.7c-4.4,0.1-8.7,0.2-13.1,0.4h-0.8H231
	c-9.3,0.4-18.6,0.8-27.8,1.2l-2.3,0.1h-0.3c-3.2,0.1-6.4,0.2-9.6,0.3h-0.9l0,0c0.2-0.4,0.5-0.7,0.8-1c0.2-0.2,0.5-0.5,0.8-0.7
	c1.5-1,3.1-1.8,4.7-2.3c0.4-0.1,0.7-0.2,1.1-0.1h2.2h0.3l3.3,0.1l28.5,0.6l0,0c0,0,0.1,0,0.2-0.1c0.3-0.1,0.7-0.2,1-0.4
	c1.1-0.5,1.8-1.6,2-2.8c0-0.1,0-0.2,0-0.3c0-0.2,0-0.3,0-0.5c0-0.1,0-0.2,0-0.4c0-0.1,0-0.3-0.1-0.4c-0.7-4.2-1.9-17.3-1.9-17.3
	s0-0.6,0-1.5c0-0.1,0-0.2,0-0.2v-0.2c0-0.2,0-0.4,0-0.7c0-0.1,0-0.3,0-0.5s0-0.5,0.1-0.7l0,0c0-0.2,0-0.3,0-0.5s0,0,0-0.1
	c0.1-0.6,0.1-1.3,0.2-2c0.6-4.9,2.3-11.4,6.3-14c2.1-1.4,3.5-1.7,4.4-1.4c1.4,0.4,1.8,2,1.9,3c0,0.1,0,0.1,0,0.2
	C246.1,243.5,246.1,243.8,246.1,244z"/>
<path class="st3" d="M189.3,289v0.1l0,0V289L189.3,289z"/>
<polygon class="st3" points="201.3,289 201.4,289.1 201.1,289.1 201.1,289 "/>
<path class="st3" d="M227.8,289.1L227.8,289.1L227.8,289.1z"/>
<path class="st3" d="M245.3,243.7c0,0-4,12.2-3.8,19.5c0.2,7.3,3.3,21,3.3,21s0.1,0.5,0.3,1.3c-4.4,0.1-8.7,0.2-13.1,0.4h-0.8h-0.3
	c-9.3,0.4-18.6,0.8-27.8,1.2l-2.3,0.1h-0.3c-3.2,0.1-6.4,0.2-9.6,0.3H190l0,0h-1c0.4-0.8,1-1.5,1.7-2l0.1-0.1c1.5-1,3.1-1.7,4.7-2.2
	c0.4-0.1,0.7-0.2,1.1-0.1l2.9,0.1h0.3l3.4,0.1l27.8,0.6c0.4-0.1,0.8-0.2,1.1-0.4c0.1-0.1,0.2-0.1,0.4-0.2l0,0
	c0.3-0.2,0.7-0.5,0.9-0.8c0.6-0.7,1-1.8,0.7-3.4c-0.7-4.2-1.9-17.3-1.9-17.3s-0.2-15.9,6.7-20.3c2.8-1.8,4.3-1.7,5.2-1
	c0,0,0.1,0,0.1,0.1C245.5,241.3,245.3,243.7,245.3,243.7z"/>
<path class="st2" d="M134.3,273.6l-0.1,1.3l-0.7,7.8c-1.1-0.2-2.1-0.5-3.2-0.8l0.8-7.1l0.3-2.4L134.3,273.6z"/>
<polygon class="st5" points="114.5,271 131.3,231.5 199.2,237.3 205.4,271 "/>
<polygon class="st6" points="114.5,274.5 114.5,271 205.4,271 205.4,276.1 "/>
<path class="st7" d="M140.1,265.3l40.7,0.9c0.3,0,0.6-0.3,0.6-0.6c0-0.1,0-0.1,0-0.2l-6.3-18.9l-27.4-0.6l-8.1,18.3
	c-0.2,0.4,0,0.8,0.3,1C139.9,265.2,140,265.3,140.1,265.3z"/>
<path class="st8" d="M140.1,265.3l40.7,0.9c0.3,0,0.6-0.3,0.6-0.6c0-0.1,0-0.1,0-0.2l-6.3-18.9l-27.4-0.6l-8.1,18.3
	c-0.2,0.4,0,0.8,0.3,1C139.9,265.2,140,265.3,140.1,265.3z"/>
<path class="st7" d="M139.8,264.5l41.1,1l-5.6-18.7c-0.2-0.6-0.7-1-1.3-1.1l-26.4-0.6L139.8,264.5z"/>
<path class="st9" d="M143.2,260.2l4.9-12c0.2-0.5,0.7-0.8,1.2-0.8h12.2c0.7,0,1.3,0.6,1.3,1.4v12.9c0,0.8-0.6,1.4-1.3,1.4
	c0,0,0,0-0.1,0l-17.2-1c-0.7,0-1.3-0.7-1.2-1.5C143.1,260.6,143.1,260.4,143.2,260.2z"/>
<path class="st10" d="M167.3,258.7l0.2-6.8c0-0.6,0.4-1,0.9-1h3.6c0.5,0,0.8,0.4,0.9,0.9l1.1,6.8c0.1,0.6-0.3,1.1-0.8,1.2
	c-0.1,0-0.1,0-0.2,0h-4.9C167.8,259.8,167.3,259.3,167.3,258.7L167.3,258.7z"/>
<path class="st9" d="M119.4,214.3L133,213c0.4-0.1,0.8,0.2,1,0.6l12.9,32.2l-7.2,17.8c0.2-0.6,0.4,3.8-1.2,0L118,216.4
	C117.7,215.9,118.8,214.4,119.4,214.3z"/>
<path class="st8" d="M119.4,214.3L133,213c0.4-0.1,0.8,0.2,1,0.6l12.9,32.2l-7.2,17.8c0.2-0.6,0.4,3.8-1.2,0L118,216.4
	C117.7,215.9,118.8,214.4,119.4,214.3z"/>
<path class="st9" d="M119.4,214.3l14.3-2c0.4-0.1,0.8,0.2,1,0.6l12.9,32.2l-7.8,19.3l-21.1-48.7c-0.2-0.5,0-1.1,0.4-1.4
	C119.2,214.3,119.3,214.3,119.4,214.3z"/>
<path class="st11" d="M123,216.6l10.4-1.8c0.4-0.1,0.8,0.2,1,0.6l10.9,29.3c0.1,0.2,0.1,0.5,0,0.8l-5,11.5c-0.2,0.5-0.7,0.7-1.1,0.4
	c-0.2-0.1-0.3-0.2-0.4-0.4l-16.5-39c-0.2-0.5,0-1.1,0.4-1.4C122.8,216.6,122.9,216.6,123,216.6z"/>
<linearGradient id="SVGID_2_" gradientUnits="userSpaceOnUse" x1="245.7401" y1="853.1665" x2="245.7401" y2="853.1665" gradientTransform="matrix(1 0 0 1 -17.96 -564.03)">
	<stop  offset="0" style="stop-color:#808080;stop-opacity:0.25"/>
	<stop  offset="0.54" style="stop-color:#808080;stop-opacity:0.12"/>
	<stop  offset="1" style="stop-color:#808080;stop-opacity:0.1"/>
</linearGradient>
<path class="st12" d="M227.8,289.1L227.8,289.1L227.8,289.1z"/>
<linearGradient id="SVGID_3_" gradientUnits="userSpaceOnUse" x1="167.6327" y1="803.0648" x2="251.5401" y2="803.0648" gradientTransform="matrix(1 0 0 1 -17.96 -564.03)">
	<stop  offset="0" style="stop-color:#808080;stop-opacity:0.25"/>
	<stop  offset="0.54" style="stop-color:#808080;stop-opacity:0.12"/>
	<stop  offset="1" style="stop-color:#808080;stop-opacity:0.1"/>
</linearGradient>
<path class="st13" d="M233.6,282.6c0,0-0.2,0.4-0.5,1v0.1c-0.3,0.5-0.6,1.3-1,2h-0.8H231c-9.3,0.4-18.6,0.8-27.8,1.2l-2.3,0.1h-0.3
	c-3.2,0.1-6.4,0.2-9.6,0.3h-0.9l0,0h-1h-1.4c-1.5,0-3,0-4.5,0h-1.8c-5.4,0-10.9-0.2-16.3-0.5h-0.6c1.1-2.5,3-6.7,4.5-8.1
	c1.2-1,9.7-2.2,17.6-3l0.8-0.1l0,0l2.2-0.2c3-0.3,5.7-0.5,7.7-0.7h0.2l-1-3.8l-1.5-5.5l0.4-4.6v-0.4l0,0c-0.4,0-0.8,0-1.2-0.2
	l-14.7-0.6h-0.3l0,0l-5.6-0.2l0,0c-3-0.1-5.2-0.2-5.3-0.2s-0.2,0-0.3-0.1s-0.3-0.1-0.4-0.2c-0.1-0.1-0.2-0.3-0.3-0.4h-0.1h-0.1
	l-0.8,0.1h-0.4v-0.1c0-0.1-0.1-0.3-0.1-0.4h-0.2l-2.8-0.1l0,0c0,0-7.2,0.6-10.9-0.9l0,0c-1.4-0.6-2.3-1.4-2.2-2.6
	c0-0.3,0.1-0.6,0.2-0.8c-1.2-2.5,4.7-7,9.2-5.8c1.2,0.4,2.5,0.4,3.7,0.2c0.7-0.2,1.3-0.5,1.9-0.9c0.1,0,0.1-0.1,0.2-0.1
	c-0.1-0.1-0.2-0.1-0.2-0.1c-0.3-0.2-0.6-0.3-1-0.4l1.2-0.4l0,0c0,0,4.3-0.4,7.1-0.6l0,0c0.8,0,1.5-0.1,2-0.1
	c1.9,0.1,5.5-1.4,5.6-1.9s1.8,0,1.8,0l1.4-0.6c1.4-0.6,2.3-1.5,2.3-2.1s1.3-1.3,1.3-1.3c0.6-1.1,1.7-2.2,2.9-3.3
	c1-0.9,2.1-1.7,2.9-2.2c0.3-2.2,0.7-4.4,1.2-6.6c0.5-2,2.2-3.5,2.9-4l0.2-0.2c-0.2-0.9-0.4-1.7-0.7-2.5c0-0.1,0-0.1-0.1-0.2
	c-0.1-0.2-0.1-0.3-0.2-0.5l-0.1-0.2c-0.2,0-0.3,0.1-0.5,0.1c-0.5,0.1-1,0.1-1.5,0.1c-4.8,0-9-3.5-10.3-8.5l0,0c-0.2-1-0.4-2-0.4-3.1
	c0-1,0.1-2,0.4-3l0,0c0-0.2,0.1-0.4,0.2-0.6c0,0,0,0,0-0.1s0.1-0.2,0.1-0.3c-0.5,0.1-0.9,0.1-1.4,0.1h-0.3c-0.9,0-1.8-0.1-2.6-0.5
	l0,0c-0.2-0.1-0.4-0.2-0.6-0.3l0,0c-0.2-0.2-0.4-0.3-0.6-0.6c0.7-0.6,1.1-1.5,1.3-2.4c0.1-0.7,0-1.6,0.4-2.2
	c0.2-0.3,0.4-0.5,0.7-0.7c1.6-1.2,3-2.9,4.4-4.4c1.5-1.5,3.3-2.7,5.3-2.8c2.7-0.1,5,2,7.7,2.4c0.8,0.1,1.7,0.1,2.5,0.3
	c0.9,0.3,1.7,0.8,2.5,1.4c0.7,0.4,1.3,1,1.8,1.7c0.3,0.6,0.6,1.2,0.7,1.9c0.3,1.4,0.6,2.9,0.6,4.4c0.1,1.5,0,3.1,0.1,4.6
	c0.1,1.3,0.5,2.6,1.2,3.7l0,0c0.1,0.2,0.2,0.4,0.4,0.5c-0.3,0.1-0.5,0.2-0.8,0.2c-0.4,0.1-0.9,0.2-1.4,0.3c-0.2,0-0.4,0.1-0.6,0.1
	c-0.1,0-0.3,0-0.4,0l0.3,0.2l0.8,0.6l0,0l0.3,0.2l0.6,0.4c0.1-0.4,0.3-0.5,0.5-0.5c0.4-0.4,1,0.5,1,0.5c0.4,0.8,1.4,1.6,2.2,2.1
	c0.5,0.3,1,0.6,1.6,0.9c11.6,7.6,10.8,19,11.5,19.9s0.7,4.2,0.7,4.2s1.7,11.1,2.5,12.1s0,1.3,0.7,2.4c0.7,1.1,0.5,3.9,0.5,3.9
	s0.5,6.8,2.1,8.2c1.5,1.3,3.5,12.4,3.9,14.6L233.6,282.6z"/>
<path class="st14" d="M165.8,247c0,0-1.6,2.8-6.2,1.5s-10.6,3.6-8.8,6c1.7,2.4,12.8-0.7,12.8-0.7l4.2-0.9l-0.3-3.9L165.8,247z"/>
<path class="st4" d="M165.8,247c0,0-1.6,2.8-6.2,1.5s-10.6,3.6-8.8,6c1.7,2.4,12.8-0.7,12.8-0.7l4.2-0.9l-0.3-3.9L165.8,247z"/>
<path class="st15" d="M167.3,246.9l-2-0.1l-1.2,0.4c0,0,3.8,0.6,2.8,6.4l4.1-0.3L167.3,246.9z"/>
<path class="st4" d="M167.3,246.9l-2-0.1l-1.2,0.4c0,0,3.8,0.6,2.8,6.4l4.1-0.3L167.3,246.9z"/>
<path class="st16" d="M193.4,234c0,0-5.4,3.4-6.9,6.3c0,0-1.3,0.7-1.3,1.3s-0.8,1.4-2.2,2l-1.4,0.6c0,0-1.6-0.4-1.8,0
	s-3.7,1.9-5.5,1.8s-8.9,0.7-8.9,0.7c2.7,1.3,4.2,4.6,3.6,7.8l16.8-0.8l6.4-1.6l3.7-4.1L193.4,234z"/>
<path class="st4" d="M193.4,234c0,0-5.4,3.4-6.9,6.3c0,0-1.3,0.7-1.3,1.3s-0.8,1.4-2.2,2l-1.4,0.6c0,0-1.6-0.4-1.8,0
	s-3.7,1.9-5.5,1.8s-8.9,0.7-8.9,0.7c2.7,1.3,4.2,4.6,3.6,7.8l16.8-0.8l6.4-1.6l3.7-4.1L193.4,234z"/>
<path class="st14" d="M168.6,258.7l-2.4-0.1l-2.8-0.1c0,0-13.1,1.1-12.9-3.5c0.3-4.6,10.4-6.3,11.8-4.9c1.1,1,3.5,1.8,4.7,2.2
	c0.4,0.1,0.6,0.2,0.6,0.2L168.6,258.7z"/>
<path class="st4" d="M168.6,258.7l-2.4-0.1c-0.9-3.6,0.2-5.6,0.8-6.4c0.4,0.1,0.6,0.2,0.6,0.2L168.6,258.7z"/>
<path class="st15" d="M170.2,258.9l-2.5,0.2l-1.2,0.1c-1.6-5.2,1-7.3,1-7.3h0.8l1.3,0.2L170.2,258.9z"/>
<path class="st14" d="M200.1,224.1l-2.9,6.1c0,0-0.4-6.2-1.8-9.2c-0.3-0.8-0.7-1.3-1.2-1.4c-1.2-0.4,5.9-9,5.9-9
	c0.2,0.1,1.6,1,3.3,2.3c1.8,1.4,4,3,5.5,4.1C211.8,219,200.1,224.1,200.1,224.1z"/>
<path class="st16" d="M196.4,224.2c0,0-2.4,1.7-3,4.1c-0.7,2.5-1.3,6.9-1.3,6.9s1.1,10.5,1.6,11s2.7,11,2.7,11l2-1.5l-2.7-13.3
	C195.7,242.5,197.5,225.4,196.4,224.2z"/>
<path class="st4" d="M196.4,224.2c0,0-2.4,1.7-3,4.1c-0.7,2.5-1.3,6.9-1.3,6.9s1.1,10.5,1.6,11s2.7,11,2.7,11l2-1.5l-2.7-13.3
	C195.7,242.5,197.5,225.4,196.4,224.2z"/>
<polygon class="st15" points="206.6,247.7 194.9,247.7 196.8,227.2 206.6,227.2 "/>
<path class="st17" d="M179.3,289L179.3,289l-0.2,0.1L179.3,289z"/>
<path class="st17" d="M201.5,279.6l-2.3,1l-0.3,0.1l-8.3,3.5l-3.2,1.3l-4.3,1.8h-1.8c-5.4,0-10.9-0.2-16.3-0.5
	c1-2.5,2.9-6.6,4.4-7.9c1.2-1,9.5-2.1,17.2-3c1-0.1,1.9-0.2,2.8-0.3h0.2c3-0.3,5.8-0.6,7.7-0.7h0.3l2.4-0.2l0.3-0.3l0.3,1.5l0.3,1.2
	L201.5,279.6z"/>
<path class="st4" d="M179.3,289L179.3,289l-0.2,0.1L179.3,289z"/>
<path class="st4" d="M201.5,279.6l-2.3,1l-0.3,0.1l-8.3,3.5l-3.2,1.3l-4.3,1.8h-1.8c-5.4,0-10.9-0.2-16.3-0.5c1-2.5,2.9-6.6,4.4-7.9
	c1.2-1,9.5-2.1,17.2-3c1-0.1,1.9-0.2,2.8-0.3h0.2c3-0.3,5.8-0.6,7.7-0.7h0.3l2.4-0.2l0.3-0.3l0.3,1.5l0.3,1.2L201.5,279.6z"/>
<path class="st17" d="M179.3,289L179.3,289l-0.2,0.1L179.3,289z"/>
<path class="st17" d="M189.3,289v0.1l0,0V289L189.3,289z"/>
<polygon class="st17" points="201.4,289.1 201.1,289.1 201.1,289 201.3,289 "/>
<path class="st17" d="M203.5,276.1l-0.2,7v0.4l0,0l-0.1,3.5l-2.3,0.1h-0.3c-3.2,0.1-6.4,0.2-9.6,0.3h-0.9l0,0h-1h-1.4
	c-1.5,0-3,0-4.5,0h-1.8c1.6-1.1,3.7-2.3,5.9-3.5c1-0.5,2-1.1,3.1-1.6c2.8-1.4,5.6-2.8,7.9-3.9l0.3-0.1c0.9-0.4,1.7-0.8,2.4-1.1
	C202.5,276.5,203.4,276,203.5,276.1L203.5,276.1z"/>
<path class="st4" d="M182.8,247.2c0.6,1.3,1.2,2.7,2.1,3.7c0.2,0.2,0.4,0.3,0.6,0.1c0-0.1,0.1-0.2,0.1-0.3c0-0.6-0.2-1.2-0.6-1.7
	c-0.3-0.5-0.7-1-0.9-1.6s-0.6-1.6-1.2-1.7C182.1,245.6,182.6,246.8,182.8,247.2z"/>
<path class="st4" d="M203.4,212.9c0,0.2-0.1,0.3-0.1,0.5c-1.2,3.9-4.1,6.9-7.8,7.7c-0.3-0.8-0.7-1.3-1.2-1.4c-1.2-0.4,5.9-9,5.9-9
	C200.4,210.6,201.7,211.6,203.4,212.9z"/>
<path class="st14" d="M203.8,209.6c0,6.3-4.7,11.5-10.4,11.5S183,216,183,209.6s4.7-11.5,10.4-11.5S203.8,203.2,203.8,209.6
	L203.8,209.6z"/>
<path class="st17" d="M197.4,226.7c0,0-2.2,2.9-1.8,4.8h2.6l1.9-2.4L197.4,226.7z"/>
<path class="st4" d="M205.1,214.4l-8.3,12.5c0,0,2.1,3.4,3.1,3.5c1,0.2,6.8-14.8,6.8-14.8L205.1,214.4z"/>
<path class="st15" d="M205.2,214.2l-8.3,12.6c0,0,2.1,3.3,3.1,3.5s6.8-14.8,6.8-14.8L205.2,214.2z"/>
<path class="st17" d="M195.9,230.2c0,0-0.4,7-0.8,8.4c-0.4,1.4,0,14.2,0,14.2l3.8-1.7l-0.7-19.7L195.9,230.2z"/>
<polygon class="st4" points="201.3,289 201.4,289.1 201.1,289.1 201.1,289 "/>
<path class="st4" d="M227.8,289.1L227.8,289.1L227.8,289.1z"/>
<path class="st4" d="M232.4,282.9c0,0-0.1,0.1-0.2,0.3c-0.1,0.2-0.2,0.5-0.4,0.8l0,0c-0.2,0.5-0.5,1-0.8,1.7
	c-9.3,0.4-18.6,0.8-27.8,1.2l-2.3,0.1h-0.3l-1-3.6l0,0l-0.1-0.4l-0.6-2.3l-0.6-2.3l-0.6-2.5l-0.2-0.9l-0.1-0.2l-1-3.8l-1.4-5.1
	l0.4-4.9l0,0v-0.4l0.4-4.4l0.1-1.3l0,0v-0.7V254l0,0l0.1-1.6l0.2-4.7l0.1-2.4l0,0v-0.4l0,0l0.2-4.8l0.6-2l0.3-1l0.7-2.3l0.1-0.6l0,0
	c0.2-0.9,0.7-2.6,1.1-4.2l0,0v-0.1l0,0v-0.1l0.3-1.2l0.4-1.5c0.1-0.6,0.2-1,0.2-1.1c0-0.2,0.6-1.3,1.4-2.7l0,0
	c1.5-2.8,3.9-7,4.1-8.4l0,0c0-0.1,0-0.2,0.1-0.2c0.1-0.4,0.3-0.5,0.5-0.5c0.1,0,0.2,0.1,0.2,0.1c0.2,0.1,0.3,0.3,0.5,0.5
	c0.4,0.8,1.3,1.5,2.2,2.1l0.2,0.1l0.1,0.1c0.7,0.4,1.3,0.7,1.3,0.7c11.3,7.5,10.6,18.8,11.3,19.7s0.7,4.1,0.7,4.1s1.7,11,2.4,12
	c0.8,1,0.1,1.3,0.7,2.3c0.7,1.1,0.5,3.9,0.5,3.9s0.5,6.7,2.1,8.1C230.2,269.5,232.4,282.9,232.4,282.9z"/>
<path class="st16" d="M232.7,282.8l-0.1,0.3l0,0c-0.1,0.2-0.3,0.5-0.5,1l0,0c-0.2,0.5-0.5,1.1-0.8,1.7H231
	c-9.3,0.4-18.6,0.8-27.8,1.2l-2.3,0.1l-1-3.6l0,0l-0.1-0.4l-0.6-2.4l-0.6-2.3l-0.6-2.3l-0.2-0.9l0,0l-1.1-4l-1.4-5.3l0.4-4.3
	l0.1-0.6l0.4-4.9l0,0l0.2-3.8l0.2-4.6l0.1-1.2l0.1-1.4v-0.6l0.2-4.6l0.6-2l0.3-0.9l0.6-2l0.1-0.4c0,0,0.6-2.2,1.1-4.5
	c0-0.1,0-0.2,0.1-0.2c0-0.2,0.1-0.4,0.1-0.6l0,0c0-0.2,0.1-0.4,0.1-0.6c0.2-0.6,0.3-1.2,0.4-1.7c0.2-0.6,0.3-1.1,0.3-1.2
	c0-0.2,0.6-1.3,1.4-2.8c1.5-2.7,3.6-6.5,4-8.1c0-0.1,0-0.2,0.1-0.2l0,0c0-0.3,0.1-0.5,0.3-0.7c0.4-0.4,1,0.5,1,0.5
	c0.4,0.8,1.3,1.5,2.2,2.1c0.5,0.3,1,0.6,1.5,0.9c11.3,7.5,10.6,18.8,11.3,19.7s0.7,4.1,0.7,4.1s1.7,11,2.4,12c0.8,1,0.1,1.3,0.7,2.3
	c0.7,1.1,0.5,3.9,0.5,3.9s0.5,6.7,2.1,8.1C230.5,269.4,232.7,282.8,232.7,282.8z"/>
<path class="st4" d="M209.6,217.1c-1.1,1.8-2.9,4.9-3.4,7.2c0,0-1.8,2-2.4,1.9c-0.7-0.1,0.6,1.5,0.6,1.5l-6.9,10.6l1-3.3
	c0,0,2.1-8,2.2-8.8c0.1-0.7,5.1-9,5.5-11.1c0.3-1.7,1.3-0.2,1.3-0.2C207.8,215.7,208.8,216.5,209.6,217.1z"/>
<path class="st16" d="M209.6,216.8c-1.1,1.8-2.9,4.9-3.4,7.2c0,0-1.8,2-2.4,1.9s0.6,1.5,0.6,1.5l-6.9,10.6l1-3.3c0,0,2.1-8,2.2-8.8
	c0.1-0.7,5.1-9,5.5-11.1c0.3-1.7,1.3-0.2,1.3-0.2C207.8,215.5,208.8,216.3,209.6,216.8z"/>
<path class="st4" d="M218.9,238.9c0.1,2.4-3.2,5.8-3.3,6s-10.1,9.2-10.1,9.2l-7.1,6c-0.8,0.7-1.8,1.2-2.8,1.4l0.5-5.4l0.5-10.9
	c1.1-1.4,2.2-2.8,2.2-3.3c0-0.9,1.9-2,1.9-2s1.3-1.2,1.1-1.8c-0.2-0.7,0.7-3.9,0.7-3.9c0.5-9.1,8.9-10,8.9-10s4.1,1.8,7,3.7
	S218.9,236.4,218.9,238.9z"/>
<path class="st4" d="M170.2,258.9l-2.5,0.2c-1-2,0.4-7.2,0.4-7.2h0.2l1.3,0.2L170.2,258.9z"/>
<path class="st16" d="M211.4,223.7c0,0-8.5,0.9-8.9,10c0,0-0.9,3.2-0.7,3.9s-1.1,1.8-1.1,1.8s-1.8,1-1.9,2c0,0.9-4.6,6.1-4.6,6.1
	s-1.9,2.4-6.4,2.7c-4.4,0.3-6.5,1.8-6.5,1.8s-2.2-1.7-3.7-1.2s-9.2,1.2-9.2,1.2s-2,7.5,0.5,7.9c0.3,0.1,25.3,1,25.3,1
	s1.7,0.9,4.3-1.3c2.6-2.2,7.1-6,7.1-6s9.9-9,10.1-9.2c0.2-0.2,3.4-3.5,3.3-6s2.3-9-0.6-10.9C215.4,225.5,211.4,223.7,211.4,223.7z"
	/>
<path class="st4" d="M203.8,209.6c0,1.2-0.2,2.4-0.5,3.6c-0.1-0.2-0.3-0.4-0.4-0.6c-0.5-0.8-1-1.6-1.5-2.5c-0.4-0.7-0.9-1.4-1.5-1.9
	s-1.5-0.7-2.2-0.3c-0.6,0.4-0.9,1.2-0.9,1.9c0,0.8,0,1.5,0.1,2.3c0,0.3,0,0.6-0.2,0.8s-0.5,0.3-0.8,0.3l-0.9,0.1
	c-0.3,0.1-0.7-0.1-0.8-0.4l0,0c-0.8-1.5-1.3-3.5-2.7-4.2c-0.9-0.5-2.1-0.4-2.6-1.3c-0.4-0.6-0.3-1.4-0.2-2.1
	c0.1-0.8,0.3-1.6,0.5-2.4c0.2-0.6,0.5-1.7-0.3-1.8c-0.6-0.1-1.3,0.6-1.6,1s-0.3,1.1-0.5,1.6c-0.4,0.9-1.1,1.6-1.9,2
	c-0.4,0.2-0.9,0.3-1.3,0.4c1.8-6,7.6-9.4,13.1-7.4C200.9,200.1,203.8,204.6,203.8,209.6L203.8,209.6z"/>
<path class="st16" d="M187.2,201.8c-0.3,0.5-0.3,1.1-0.5,1.6c-0.4,0.9-1.1,1.6-1.9,2c-0.8,0.3-1.7,0.5-2.6,0.5c-1.4,0-3-0.2-4-1.4
	c0.7-0.6,1.1-1.4,1.2-2.4c0.1-0.7,0-1.5,0.4-2.1c0.2-0.3,0.4-0.5,0.7-0.7c1.6-1.2,2.9-2.9,4.3-4.4c1.5-1.4,3.2-2.7,5.2-2.8
	c2.6-0.1,4.9,2,7.5,2.3c0.8,0.1,1.6,0.1,2.4,0.3c0.9,0.3,1.7,0.8,2.4,1.4c0.7,0.4,1.3,1,1.7,1.7c0.3,0.6,0.6,1.2,0.7,1.9
	c0.3,1.4,0.5,2.9,0.6,4.3c0.1,1.5,0,3.1,0.1,4.6s0.6,3.1,1.5,4.2c-0.7,0.2-1.4,0.4-2.1,0.5c-0.4,0.1-0.9,0.1-1.3-0.1
	c-0.3-0.2-0.6-0.6-0.8-1l-1.5-2.5c-0.4-0.7-0.9-1.4-1.5-1.9s-1.5-0.7-2.2-0.3c-0.6,0.4-0.9,1.2-0.9,1.9c0,0.8,0,1.5,0.1,2.3
	c0,0.3,0,0.6-0.2,0.8s-0.5,0.3-0.8,0.3l-0.9,0.1c-0.3,0.1-0.7-0.1-0.8-0.4l0,0c-0.8-1.5-1.3-3.5-2.7-4.2c-0.9-0.5-2.1-0.4-2.6-1.3
	c-0.4-0.6-0.3-1.4-0.2-2.1c0.1-0.8,0.3-1.6,0.5-2.4c0.2-0.6,0.5-1.7-0.3-1.8C188.3,200.7,187.5,201.3,187.2,201.8z"/>
<path class="st4" d="M210.8,228.8c0.8-0.1,1.6-0.2,2.3,0.1c-1.9-0.9-5-0.5-6.8,0.7C206.5,230,210.2,228.9,210.8,228.8z"/>
<path class="st4" d="M211.7,231.6c1.9,0.1,3.9,0.4,5.7-0.2c-1.5-0.6-3.2-0.2-4.8-0.4c-1.3-0.1-2.6-0.6-3.8-0.3
	c-0.5,0.1-2.4,1.1-2.3,1.8C208.1,231.7,209.9,231.4,211.7,231.6z"/>
<path class="st4" d="M206.6,236.2c0.4,0,0.8,0,1.2,0.1c1.4,0.4,2.9,0.5,4.4,0.5c1.1,0,2.3-0.2,3.1-1L206.6,236.2z"/>
<path class="st4" d="M200.5,246.9c1.3,0.7,2.8,1,4.3,0.9s2.9-0.4,4.3-0.9c0.6-0.2,1.3-0.5,1.7-1L200.5,246.9z"/>
<path class="st4" d="M214.2,248.4c2.9,1.8,6.1,2.9,9.4,3.2c-1.7-0.7-3.4-1.4-5.1-2.1c-1.7-0.7-3.5-1.2-5.3-1.6
	C213.6,248,213.9,248.2,214.2,248.4z"/>
<path class="st4" d="M218.9,246.4c0.6,0.1,1.2,0.1,1.8,0.1c0.3,0,0.7,0,0.9-0.3c-1.3,0.1-2.6-0.3-3.9-0.6c-0.4-0.1-1-0.3-1.3-0.1
	C216.8,245.9,218.1,246.3,218.9,246.4z"/>
<path class="st4" d="M226.9,276.9c0.7,1.3,1.4,2.7,2.4,3.8c0.6,0.6,1.1,1.2,1.8,1.7c-1.1-3.2-2.3-6.5-4.2-9.3
	c-0.5-0.7-1.2-1.7-2-1.9c-0.2,0.8,0.4,2.2,0.7,2.9C225.9,275.1,226.4,276,226.9,276.9z"/>
<path class="st4" d="M193,252.8c-0.1,0.5-0.1,1.2,0.2,1.6c0.1,0.2,0.4,0.4,0.6,0.4c-0.1,0-0.3-1.6-0.3-1.9c-0.1-0.4,0-1.3-0.3-1.6
	C193.1,251.8,193.1,252.3,193,252.8z"/>
<path class="st4" d="M194.7,252.2c0.2,1,0.8,1.8,1.5,2.3c-0.5-0.7-0.7-1.7-1.2-2.5c-0.2-0.3-0.3-0.6-0.6-0.7
	C194.5,251.6,194.6,251.9,194.7,252.2z"/>
<path class="st4" d="M193.3,242.3c-0.9,0.6-2,0.8-3.1,0.4c-0.2-0.1-0.8-0.3-0.6-0.7c0.1-0.4,0.8-0.1,1-0.1l1.3,0.2
	C192.2,242.2,193.1,242.4,193.3,242.3z"/>
<path class="st4" d="M188.7,244.7c0.6-0.1,1.2,0.4,1.8,0.7c0.7,0.2,1.3,0.3,2,0.3c0.3,0,0.7,0,1-0.3
	C191.9,245,190.4,244.5,188.7,244.7z"/>
<polygon class="st15" points="196.4,224.2 196.5,224.2 197.2,227.2 196.4,228.2 "/>
<g class="st18">
	<path d="M179.6,200.4c-0.1,0.5-0.1,1-0.1,1.5c0-0.2,0.1-0.3,0.1-0.5C179.6,201,179.6,200.7,179.6,200.4z"/>
	<path d="M188.9,200.7c0.3,0,0.5,0.3,0.5,0.6l0,0c0.1-0.6,0.2-1.3-0.4-1.4c-0.6-0.1-1.3,0.6-1.6,1c-0.3,0.5-0.3,1.1-0.5,1.6
		c-0.4,0.9-1.1,1.6-1.9,2c-0.8,0.3-1.7,0.5-2.6,0.5c-1.3,0-2.8-0.2-3.7-1.1c-0.1,0.1-0.2,0.3-0.4,0.4c0.9,1.2,2.5,1.5,4,1.4
		c0.9,0,1.8-0.2,2.6-0.5c0.8-0.4,1.5-1.1,1.9-2c0.2-0.5,0.3-1.1,0.5-1.6C187.5,201.3,188.3,200.7,188.9,200.7z"/>
	<path d="M205.2,212.7c-0.4,0.1-0.9,0.1-1.3-0.1c-0.3-0.2-0.6-0.6-0.8-1c-0.5-0.8-1-1.6-1.5-2.5c-0.4-0.7-0.9-1.4-1.5-1.9
		s-1.5-0.7-2.2-0.3c-0.6,0.4-0.9,1.2-0.9,1.9v0.1c0.1-0.6,0.4-1,0.8-1.3c0.7-0.4,1.5-0.2,2.2,0.3c0.6,0.5,1.1,1.2,1.5,1.9
		c0.5,0.8,1,1.6,1.5,2.5c0.2,0.4,0.5,0.7,0.8,1c0.4,0.2,0.9,0.2,1.3,0.1c0.7-0.1,1.4-0.3,2.1-0.5c-0.1-0.2-0.3-0.3-0.4-0.5
		C206.3,212.4,205.7,212.6,205.2,212.7z"/>
	<path d="M196.9,211.9c-0.2,0.2-0.5,0.3-0.8,0.3l-0.9,0.1c-0.3,0.1-0.7-0.1-0.8-0.4l0,0c-0.8-1.5-1.3-3.5-2.7-4.2
		c-0.9-0.5-2.1-0.4-2.6-1.3c-0.3-0.5-0.4-1.2-0.3-1.8c0,0.1,0,0.2-0.1,0.3c-0.1,0.7-0.2,1.5,0.2,2.1c0.6,0.9,1.7,0.9,2.6,1.3
		c1.4,0.7,2,2.7,2.7,4.2c0.1,0.2,0.2,0.4,0.4,0.5s0.3,0.1,0.5,0l0.9-0.1c0.3,0,0.6-0.1,0.8-0.3c0.1-0.2,0.2-0.5,0.2-0.8l0,0
		C196.9,211.8,196.9,211.9,196.9,211.9z"/>
</g>
<path class="st2" d="M324.9,292.5l-2-0.3v-32.3l0.4,0.1l1.2,0.4v1.1v0.8v1.2v1.4v2.9v0.3v0.4v0.8v0.5v1.2v0.8l0.1,14.6v0.4l0.1,5.1
	v0.1L324.9,292.5z"/>
<path class="st19" d="M326,292.6l-1.1-0.2v-0.6v-0.1l-0.1-5.1v-0.4l-0.1-14.6V271v-1.2v-0.5v-0.8v-0.4v-0.3v-2.9v-1.4v-1.2v-0.8
	v-1.1h1.2v1.2v0.8v0.9v1.2v3.1v0.7v0.7v0.5v0.6v0.8l0,0l0.1,15.3v0.4v5.1v0.1V292.6z"/>
<path class="st19" d="M326,294.5L326,294.5z"/>
<path class="st2" d="M446.3,255.8v27.9c-0.6,0.5-1.2,0.9-1.8,1.3v-23.2v-2.5L446.3,255.8z"/>
<path class="st19" d="M447.6,255.4v27.2c-0.4,0.4-0.9,0.7-1.3,1.1v-27.9L447.6,255.4z"/>
<path class="st2" d="M418.9,295c-0.8,0.2-1.5,0.3-2.3,0.5v-25.2v-1.1l2.2-1v2.3L418.9,295z"/>
<path class="st19" d="M420.3,267.3v27.3c-0.5,0.1-1,0.2-1.4,0.3l-0.1-24.5v-2.3l0.1-0.1l0,0L420.3,267.3z"/>
<path class="st2" d="M289.2,287.4l-2.1-0.2l-0.3-28.5v-0.8v-0.5h2v0.7v0.8L289.2,287.4z"/>
<path class="st19" d="M290.8,287.6l-1.5-0.2l-0.3-28.5v-0.8v-0.7h1.6v0.9v0.8L290.8,287.6z"/>
<polygon class="st4" points="418.9,268 420.3,267.3 420.3,270.7 419,271.2 "/>
<polygon class="st4" points="447.6,255.4 447.6,260.7 446.3,261.2 444.5,261.8 444.5,259.4 446.3,255.8 "/>
<polygon class="st6" points="447.6,245.3 447.6,259.9 419,270.4 418.8,254.8 "/>
<polygon class="st5" points="286.5,244.3 324.2,236.4 447.6,245.3 418.8,254.8 "/>
<polygon class="st4" points="290.5,257.3 290.5,259 288.9,258.9 286.9,258.7 286.9,257.3 "/>
<polygon class="st4" points="325.8,262.4 324.6,262.3 322.9,262.1 322.9,259.8 324.6,260.4 325.8,260.4 "/>
<polygon class="st6" points="286.5,244.3 286.5,257.9 419,270.4 418.8,254.8 "/>
<polygon class="st6" points="391.5,260.4 374.2,260.4 374.2,253.5 391.5,254.8 "/>
<polygon class="st4" points="391.5,260.4 374.2,260.4 374.2,253.5 391.5,254.8 "/>
<polygon class="st4" points="351,252 351,262.9 417.4,268.5 417.4,256.8 391.5,255.2 388.9,257.8 378.4,256.9 374.6,253.9 "/>
<polygon class="st20" points="350.6,251.6 350.6,262.5 417,268.1 417,256.4 391.1,254.8 388.6,257.3 378,256.5 374.2,253.5 "/>
<polygon class="st6" points="309.7,248.6 325.4,249.8 325.2,255.4 315,255.4 308.1,252.4 "/>
<polygon class="st4" points="309.7,248.6 325.4,249.8 325.2,255.4 315,255.4 308.1,252.4 "/>
<polygon class="st4" points="288.7,247.1 288.7,256.9 349,262.2 349,251.8 325.8,250.2 323.3,252.3 313.9,251.7 310.1,249 "/>
<polygon class="st20" points="288.4,246.7 288.4,256.5 348.6,261.8 348.6,251.4 325.4,249.8 322.9,251.9 313.5,251.3 309.7,248.6 
	"/>
<polygon class="st4" points="417.4,246.7 425.8,247.3 411.9,252 404.7,251.4 "/>
<polygon class="st20" points="417.4,246.3 425.8,246.9 411.9,251.6 404.7,251 "/>
<path class="st19" d="M416.4,247.4c0.3-0.2,0.7,0.1,1,0.2c0.2,0,0.4,0,0.6,0c0.4,0.1,0.8,0.4,1.2,0.2L416.4,247.4z"/>
<path class="st19" d="M416,247.7c0.3-0.2,0.7,0.1,1,0.2c0.2,0,0.4,0,0.6,0c0.4,0.1,0.8,0.4,1.2,0.2L416,247.7z"/>
<path class="st19" d="M415,248.2c0.3-0.2,0.7,0.1,1,0.2c0.2,0,0.4,0,0.6,0c0.4,0.1,0.8,0.4,1.2,0.2L415,248.2z"/>
<polygon class="st4" points="360.4,241.6 379.3,243 375.2,249.3 354.5,246.9 "/>
<polygon class="st3" points="360.1,241.2 378.9,242.6 374.9,248.9 354.2,246.5 "/>
<polygon class="st21" points="360.9,241.7 377.3,242.8 373.8,248 355.8,246 "/>
<path class="st3" d="M326,294.5L326,294.5z"/>
<path class="st4" d="M326,294.5L326,294.5z"/>
<path class="st3" d="M325.9,294.5L325.9,294.5z"/>
<path class="st3" d="M349.9,293.7c0,0.1,0,0.2,0,0.3s0,0.2,0,0.3c-0.1,0.6-0.2,1.2-0.4,1.7l0,0c-7.8-1-15.6-2.1-23.4-3.3l-1.1-0.2
	l-2-0.3l-1.7-0.3l0,0c-1.8-0.1-3.7-0.2-5.5-0.6c-1.1-0.2-2.3-0.4-3.4-0.8c-4.9-0.7-9.9-1.5-14.9-2.1l-0.6-0.1
	c0.1-0.6,0.2-0.9,0.2-0.9s1.1-4.6,1.9-9.8l0,0c0.2-1.1,0.4-2.3,0.5-3.4c0.1-0.9,0.2-1.8,0.3-2.7c0.1-0.5,0.1-0.9,0.1-1.4
	c0-0.2,0-0.5,0.1-0.7c0-0.2,0-0.5,0-0.7s0-0.4,0-0.7v-0.3c0-0.5,0-0.9,0-1.4c-0.2-2.5-0.5-4.9-1.1-7.3c-0.1-0.4-0.2-0.8-0.3-1.2
	c0-0.1-0.1-0.3-0.1-0.4c-1-4.3-2.2-7.8-2.2-7.8s0,0,0-0.1l0,0v-0.1c0-0.1,0-0.3,0-0.5v-0.1c0-0.4,0.1-0.7,0.2-1.1
	c0-0.1,0.1-0.2,0.1-0.4c0.2-0.7,0.7-1.2,1.4-1.4l0,0c0.9-0.2,2.2,0,4.2,1.3c0.3,0.2,0.6,0.4,0.9,0.7c0.1,0.1,0.3,0.3,0.4,0.4
	c2.3,2.4,3.5,6.2,4.2,9.8c0,0.1,0,0.3,0.1,0.4c0.1,0.4,0.1,0.9,0.2,1.3c0.1,0.7,0.2,1.4,0.3,2.1c0,0.2,0,0.3,0,0.5s0,0.3,0,0.5
	c0,0.5,0.1,1,0.1,1.4c0.1,1.1,0,1.8,0,1.8l0,0v0.1l0,0c0,0,0,0.1,0,0.2s0,0.1,0,0.2s0,0.3,0,0.5c0,0.3-0.1,0.6-0.1,1l0,0
	c0,0.3-0.1,0.6-0.1,0.9c-0.1,0.7-0.1,1.5-0.2,2.3c0,0.2,0,0.3,0,0.5c-0.1,0.7-0.1,1.5-0.2,2.2l0,0c-0.1,0.9-0.2,1.7-0.3,2.6
	c0,0.2,0,0.4-0.1,0.5c-0.2,2-0.5,3.9-0.6,5.1c0,0.2,0,0.3-0.1,0.5c0,0.1,0,0.1,0,0.2c0,0.2,0,0.3,0,0.5c0.2,2.9,3,3.4,3,3.4l13-0.3
	h1.9h1.1l10.1-0.2l0,0h0.9l5-0.1c0.3,0,0.7,0,1,0.1c1.6,0.5,3,1.2,4.4,2.1c0.4,0.3,0.8,0.7,1.1,1.1c0,0,0,0,0,0.1
	c0.7,0.9,1.1,2,1.2,3.2c0,0.1,0,0.2,0,0.2C349.9,293.3,349.9,293.5,349.9,293.7z"/>
<path class="st4" d="M325.9,294.5L325.9,294.5z"/>
<path class="st4" d="M349.9,293.7c0,0.1,0,0.2,0,0.3s0,0.2,0,0.3c-0.1,0.6-0.2,1.2-0.5,1.7c-7.8-1-15.6-2.1-23.4-3.3l-1.1-0.2
	l-2-0.3l-1.7-0.3l0,0c-1.8-0.1-3.7-0.2-5.5-0.6c-1.1-0.2-2.3-0.4-3.4-0.8c-4.9-0.7-9.9-1.5-14.9-2.1l-0.6-0.1l0,0
	c0.1-0.6,0.2-1,0.2-1s0.9-3.8,1.7-8.3l0,0c0.1-0.3,0.1-0.6,0.2-0.9l0.1-0.5l0,0c0.2-1.1,0.4-2.3,0.5-3.4c0.1-0.9,0.2-1.8,0.3-2.7
	c0.1-0.5,0.1-0.9,0.1-1.4c0-0.2,0-0.5,0.1-0.7c0-0.2,0-0.5,0-0.7s0-0.4,0-0.7v-0.3c0-0.5,0-0.9,0-1.4c-0.2-2.5-0.5-4.9-1-7.3
	c-0.1-0.4-0.2-0.8-0.3-1.2c0-0.1-0.1-0.3-0.1-0.4c-1-4.3-2.2-7.8-2.2-7.8l0,0l0,0v-0.1c0-0.1,0-0.3,0-0.5v-0.1
	c0-0.4,0.1-0.7,0.2-1.1c0-0.1,0.1-0.2,0.1-0.4c0.2-0.7,0.8-1.3,1.5-1.5c0.9-0.2,2.2,0.1,4.1,1.3c0.3,0.2,0.7,0.5,1,0.7l0,0
	c0.1,0.1,0.3,0.3,0.4,0.4c2.3,2.4,3.5,6.2,4.1,9.8c0,0.1,0,0.3,0.1,0.4c0.1,0.4,0.1,0.9,0.2,1.3c0.1,0.7,0.2,1.4,0.2,2.1
	c0,0.2,0,0.4,0,0.5c0,0.2,0,0.3,0,0.5c0,0.5,0.1,1,0.1,1.4c0.1,1.1,0,1.8,0,1.8v0.1c0,0,0,0,0,0.1l0,0c0,0,0,0.1,0,0.2s0,0.1,0,0.2
	s0,0.3,0,0.5c0,0.3-0.1,0.6-0.1,1l0,0c0,0.3-0.1,0.6-0.1,0.9c-0.1,0.7-0.1,1.5-0.2,2.3c0,0.2,0,0.3,0,0.5c-0.1,0.7-0.1,1.5-0.2,2.2
	l0,0c-0.1,0.9-0.2,1.7-0.3,2.5c0,0.2,0,0.4-0.1,0.5c-0.2,2-0.5,3.9-0.6,5c0,0.2-0.1,0.4-0.1,0.6c0,0.1,0,0.1,0,0.2
	c0,0.2,0,0.3,0,0.5c0.2,2.9,3,3.4,3,3.4l13-0.3h1.9h1.1l10.1-0.2h0.9l5-0.1c0.3,0,0.7,0,1,0.1c1.6,0.4,3.1,1.2,4.4,2.1
	c0.4,0.3,0.8,0.7,1.2,1.1c0,0,0,0,0,0.1c0.7,0.9,1.1,2,1.2,3.2c0,0.1,0,0.2,0,0.2C349.9,293.3,349.9,293.5,349.9,293.7z"/>
<path class="st3" d="M325.9,294.5L325.9,294.5z"/>
<path class="st3" d="M349.9,296l-0.5-0.1l0,0c-7.8-1-15.6-2.1-23.4-3.3l-1.1-0.2l-2-0.3l-1.7-0.3l0,0c-1.8-0.1-3.7-0.2-5.5-0.6
	c-1.1-0.2-2.3-0.4-3.4-0.8c-4.9-0.7-9.9-1.5-14.9-2.1c0.1-0.5,0.2-1,0.3-1.4c0,0,2.9-12.8,3.1-19.6c0.1-2.4-0.4-5.4-1-8.3l0,0
	c-0.1-0.4-0.2-0.8-0.3-1.2l-0.1-0.4c-1-4.5-2.3-8.2-2.3-8.2c0-0.5,0-0.9,0.1-1.4c0-0.1,0-0.2,0.1-0.4c0.1-0.6,0.4-1.1,0.8-1.5l0,0
	c0,0,0,0,0.1,0c0.8-0.7,2.3-0.7,4.9,0.9c0.5,0.3,1,0.8,1.5,1.2c0.1,0.1,0.2,0.3,0.4,0.4c2.1,2.5,3.2,6.3,3.8,9.7l0.1,0.4
	c0.1,0.4,0.1,0.8,0.2,1.3l0,0l0,0c0.1,0.5,0.1,1.1,0.2,1.5l0,0c0.1,1.4,0.2,2.9,0.2,4.4c0,0-0.1,1.3-0.3,3.3
	c-0.1,0.8-0.2,1.6-0.2,2.5v0.1v0.5c-0.2,1.6-0.3,3.3-0.5,4.8c0,0.2,0,0.4-0.1,0.6c-0.2,1.8-0.4,3.3-0.6,4.3c-0.6,4,2.9,4.6,2.9,4.6
	l12.2-0.3h1.9h1.1h0.5h0.2l9.7-0.2h0.9l5.6-0.1c0.3,0,0.7,0,1,0.1c1.6,0.4,3.1,1.2,4.4,2.1c0.4,0.3,0.7,0.6,1,1c0,0,0,0,0.1,0.1
	C350.8,291.1,351,293.8,349.9,296z"/>
<polygon class="st9" points="393.6,234.3 397.4,243.2 396.8,243.2 392.3,234.4 "/>
<polygon class="st4" points="393.6,234.3 397.4,243.2 396.8,243.2 392.3,234.4 "/>
<polygon class="st9" points="393.6,243.2 397.4,243.2 397.4,244.2 393.6,244.3 "/>
<polygon class="st4" points="393.6,243.2 397.4,243.2 397.4,244.2 393.6,244.3 "/>
<path class="st9" d="M364.2,201.4v31.2c0,1.3,0.9,2.3,2.1,2.3h47.2c1.2,0,2.1-1,2.1-2.3l0,0l-0.5-31.3c0-1.3-1-2.3-2.1-2.3h-46.6
	C365.1,199,364.2,200.1,364.2,201.4z"/>
<path class="st4" d="M364.2,201.4v31.2c0,1.3,0.9,2.3,2.1,2.3h47.2c1.2,0,2.1-1,2.1-2.3l0,0l-0.5-31.3c0-1.3-1-2.3-2.1-2.3h-46.6
	C365.1,199,364.2,200.1,364.2,201.4z"/>
<path class="st9" d="M362.5,201.4v31.2c0,1.3,0.9,2.3,2.1,2.3h47.2c1.2,0,2.1-1,2.1-2.3l0,0l-0.5-31.3c0-1.3-0.9-2.3-2.1-2.3h-46.6
	C363.5,199,362.5,200.1,362.5,201.4C362.5,201.3,362.5,201.3,362.5,201.4z"/>
<path class="st11" d="M364.4,203.3v27.5c0,1.3,0.9,2.3,2.1,2.3h43.7c1.2,0,2.1-1,2.1-2.3l0,0v-27.5c0-1.3-0.9-2.3-2.1-2.3h-43.7
	C365.3,201,364.4,202,364.4,203.3z"/>
<polygon class="st9" points="383.3,234.4 387.4,243.2 396.8,243.2 392.1,233.1 "/>
<polygon class="st9" points="380,243.2 379.3,244.2 393.6,244.2 393.6,243.2 "/>
<linearGradient id="SVGID_4_" gradientUnits="userSpaceOnUse" x1="-1638.9286" y1="862.2559" x2="-1638.9286" y2="752.0611" gradientTransform="matrix(1 0 0 1 1979.37 -564.03)">
	<stop  offset="0" style="stop-color:#808080;stop-opacity:0.25"/>
	<stop  offset="0.54" style="stop-color:#808080;stop-opacity:0.12"/>
	<stop  offset="1" style="stop-color:#808080;stop-opacity:0.1"/>
</linearGradient>
<path class="st22" d="M319.4,210.8c-1-3.2-1-6.7-2.3-9.8c-0.2-0.4-0.4-0.9-0.5-1.4c-0.1-0.3-0.1-0.6-0.1-0.9h-0.1h-0.1h-0.1l0,0
	h-0.1c0,0.1,0,0.2,0.1,0.3c0.1,0.5,0.3,0.9,0.5,1.4c1.3,3.1,1.3,6.7,2.3,9.9c0,0.1,0.1,0.3,0.2,0.4
	C319.3,210.9,319.3,210.9,319.4,210.8C319.4,210.9,319.4,210.9,319.4,210.8z M319.4,210.8c-1-3.2-1-6.7-2.3-9.8
	c-0.2-0.4-0.4-0.9-0.5-1.4c-0.1-0.3-0.1-0.6-0.1-0.9h-0.1h-0.1h-0.1l0,0h-0.1c0,0.1,0,0.2,0.1,0.3c0.1,0.5,0.3,0.9,0.5,1.4
	c1.3,3.1,1.3,6.7,2.3,9.9c0,0.1,0.1,0.3,0.2,0.4C319.3,210.9,319.3,210.9,319.4,210.8C319.4,210.9,319.4,210.9,319.4,210.8z
	 M319.4,210.8c-1-3.2-1-6.7-2.3-9.8c-0.2-0.4-0.4-0.9-0.5-1.4c-0.1-0.3-0.1-0.6-0.1-0.9h-0.1h-0.1h-0.1l0,0h-0.1
	c0,0.1,0,0.2,0.1,0.3c0.1,0.5,0.3,0.9,0.5,1.4c1.3,3.1,1.3,6.7,2.3,9.9c0,0.1,0.1,0.3,0.2,0.4C319.3,210.9,319.3,210.9,319.4,210.8
	C319.4,210.9,319.4,210.9,319.4,210.8z M319.4,210.8c-1-3.2-1-6.7-2.3-9.8c-0.2-0.4-0.4-0.9-0.5-1.4c-0.1-0.3-0.1-0.6-0.1-0.9h-0.1
	h-0.1h-0.1l0,0h-0.1c0,0.1,0,0.2,0.1,0.3c0.1,0.5,0.3,0.9,0.5,1.4c1.3,3.1,1.3,6.7,2.3,9.9c0,0.1,0.1,0.3,0.2,0.4
	C319.3,210.9,319.3,210.9,319.4,210.8C319.4,210.9,319.4,210.9,319.4,210.8z M319.4,210.8c-1-3.2-1-6.7-2.3-9.8
	c-0.2-0.4-0.4-0.9-0.5-1.4c-0.1-0.3-0.1-0.6-0.1-0.9h-0.1h-0.1h-0.1l0,0h-0.1c0,0.1,0,0.2,0.1,0.3c0.1,0.5,0.3,0.9,0.5,1.4
	c1.3,3.1,1.3,6.7,2.3,9.9c0,0.1,0.1,0.3,0.2,0.4C319.3,210.9,319.3,210.9,319.4,210.8C319.4,210.9,319.4,210.9,319.4,210.8z
	 M319.4,210.8c-1-3.2-1-6.7-2.3-9.8c-0.2-0.4-0.4-0.9-0.5-1.4c-0.1-0.3-0.1-0.6-0.1-0.9h-0.1h-0.1h-0.1l0,0h-0.1
	c0,0.1,0,0.2,0.1,0.3c0.1,0.5,0.3,0.9,0.5,1.4c1.3,3.1,1.3,6.7,2.3,9.9c0,0.1,0.1,0.3,0.2,0.4C319.3,210.9,319.3,210.9,319.4,210.8
	C319.4,210.9,319.4,210.9,319.4,210.8z M319.4,210.8c-1-3.2-1-6.7-2.3-9.8c-0.2-0.4-0.4-0.9-0.5-1.4c-0.1-0.3-0.1-0.6-0.1-0.9h-0.1
	h-0.1h-0.1l0,0h-0.1c0,0.1,0,0.2,0.1,0.3c0.1,0.5,0.3,0.9,0.5,1.4c1.3,3.1,1.3,6.7,2.3,9.9c0,0.1,0.1,0.3,0.2,0.4
	C319.3,210.9,319.3,210.9,319.4,210.8C319.4,210.9,319.4,210.9,319.4,210.8z M373.1,242.7L373.1,242.7h-0.2l0.3-0.1l0,0h0.1l0,0
	c0.3-0.1,0.7-0.2,1-0.3l0,0l0.3-0.1l0,0l0,0c2.9-0.9-0.5-1.8-4.8-2.4l0,0c-4.6-0.7-10.3-1.1-10.3-1.1l-1.8,0.3l0,0
	c-2.2,0.3-5.6,0.8-6.1,1c-0.7,0.2-6.3,0.5-8.2,0.6c-0.1-0.1-0.2-0.3-0.3-0.3l-5.8-0.3v0.9l0,0l0,0c0-1.2-0.3-2.3-0.8-3.4v-0.1
	c-1.5-3.1-1.8-3.9-1.8-3.9l0,0c0-0.1,0-0.1,0-0.2c-0.5-1.9-2.3-5.3-5.5-10l-0.1-0.2l-0.4-2.1l-0.1-0.4h-2c0.3-1.8,0.8-3.7,1.4-5.4
	c0-0.1,0.1-0.2,0.1-0.3v-0.1c0-0.1,0.1-0.2,0.1-0.3c0.1,0,0.2,0,0.3,0l0,0c4.8-0.2,8.7-4.4,9-9.7l0,0c0-0.2,0-0.4,0-0.6
	c0-1.8-0.4-3.6-1.2-5.1c0,0,0-0.1-0.1-0.1v-0.1l-0.1-0.2c0.7-0.2,1.5,0.2,2.2-0.3c0.2-0.2,0.4-0.4,0.5-0.7s0.3-0.7,0.3-1l0,0l0,0
	l0,0c0,0,0,0,0-0.1l0,0c0-0.2,0-0.5,0-0.7c0-0.5-0.1-1-0.2-1.4c-0.4-1-1.1-1.8-2-2.2c-0.5-0.2-1-0.3-1.4-0.4c-2-0.6-3.7-2-5.6-2.8
	c-1.3-0.6-2.8-0.8-4.2-0.7c-0.9,0-1.7,0.3-2.5,0.7c-0.6,0.4-1.1,0.8-1.7,1.3c-1.4,1.2-2.9,2.2-4.1,3.7c-0.2,0.3-0.4,0.5-0.6,0.8
	c-0.1,0.2-0.2,0.3-0.3,0.5c-0.2-0.2-0.5-0.4-0.7-0.3l0,0c-0.1,0-0.1,0-0.2,0s-0.3,0-0.4,0c-0.3,0.1-2.6,0.7-2.6,1.1
	c-1,0.5-1.8,1.1-2.6,1.8c-1.9,1.9-2.3,4.8-2.5,7.6c-0.3,3.2-0.4,6.4-0.3,9.6c0,1.2,0.1,2.3,0.1,3.5c-0.1,1.4-0.3,2.7-0.5,4.1
	c-0.3,1.4-0.6,2.8-0.9,4.2c-0.1,0.7-0.4,1.4-1,1.7h0.2c-0.1,0-0.1,0.1-0.2,0.1c0.3,0,0.5,0.1,0.8,0.1h0.2c0.1,0,0.3,0,0.4-0.1
	c0.2-0.1,0.4-0.2,0.6-0.3c0-0.1,0-0.1,0.1-0.2c0.2-0.2,0.3-0.4,0.4-0.6c0,0.4,0,0.8-0.1,1.2c0,0.1,0,0.1,0,0.2
	c-0.2,0.8-0.5,1.6-1.1,2.2l0.3-0.3c-0.1,0.1-0.2,0.3-0.3,0.4c0.4-0.4,0.9-0.7,1.3-1.1l0,0c0,0,0.1,0,0.1-0.1l0,0l0.8-0.7
	c0,0.1,0,0.2,0,0.3s0,0.2,0,0.3l0,0c0,0,0,0.1,0,0.2c-0.1,2.4-0.2,8.1,0.3,9.5c0,0.1,0.1,0.2,0.1,0.2c0.6,1.6,0.8,2.3,0.7,3.1
	c0,0.6,0.3,2.2,0.6,3.5c0.1,0.5,0.2,1.1,0.1,1.6c0,0.3,0,0.6,0.1,0.9c0,0.2,0.1,0.3,0.1,0.5c0,0.1,0,0.1,0,0.2
	c0.3,1.2,0.7,2.8,0.3,3.4c-0.1,0.2-0.2,0.4-0.3,0.7c-0.3,1-0.4,2.4-0.8,3c-0.5,0.7-0.3,1.8-0.3,2l0,0c0,0,0,0.1-0.1,0.3
	c-0.1,0.3-0.1,0.7-0.2,1.2l0,0c-0.1,0.7-0.3,1.4-0.5,2l0,0c-0.2,0.5-0.3,0.8-0.5,0.9c-0.6,0.2-0.9,3.5-0.9,3.5s-1.4,2.5-1.1,3.2
	c0.1,0.1,0.1,0.3,0.2,0.4l-0.1,0.2c-0.8,1.3-1.9,3.8-0.8,5.1c0.4,0.4,0.8,0.8,1.3,1.1c-0.1,0.1-0.1,0.3-0.2,0.4c-1.2,3-3,10.1,4,13
	c0.7,0.3,1.4,0.5,2.1,0.8c1.1,0.3,2.2,0.6,3.4,0.8c1.6,0.3,3.3,0.4,4.9,0.5c0.7,0,1.5,0,2.2,0s1.3,0,2-0.1c0.4,0,0.7,0,1.1-0.1
	c2.1-0.1,4.2-0.4,6.3-0.8l9.9-2c0,0,4.2,0.2,5.7,1.1l0,0c0,0,0.3-0.2,0.7-0.5l0,0c0.2-0.1,0.4-0.3,0.6-0.5c1.6-1.3,4.2-3.8,5.9-7.2
	v-0.1h0.3h0.1h0.2l0.5-0.1l0,0h0.1c1.3-0.2,2.4-0.4,2.4-0.4s0,1.5,0.1,3.3c0,0.5,0,1.1,0.1,1.6c0.1,1.9,0.1,3.6,0.1,3.6
	c0,0.1,1.3,3.8,2.7,7.5l1.1,0.1c2.9,0.3,5.9,0.5,8.8,0.6l1.1,0.1h0.7c-0.5-3.3-0.9-6.5-0.9-6.5l-1.8-9.5c0,0-0.2-2-1.6-10.7
	c-1.1-7-7.7-6.4-10.1-5.9c-0.3,0.1-0.5,0.1-0.6,0.1v-0.5c0,0-4.7,0.4-9,0.6h-1c-1,0-1.9,0.1-2.7,0.1c-0.7,0-1.4,0-2.2-0.1
	c-3.3-0.4-7,0.8-7,0.8s-4.8,0.9-5.4,0.5c-0.2-0.1-0.4-0.1-0.5-0.1s-0.2,0-0.3,0c0.2-0.1,0.4-0.3,0.3-0.6c-0.2-0.9-0.3-2.1,0.3-2.9
	c0.2-0.4,0.6-0.9,1-1.5l0.8-1.3v-0.1v-0.4l0.2-3.3l0.5-3.1v-0.2v-0.3v-0.2h0.1l0,0c1.4,0.5,2.9,0.9,4,0.5l0,0c0.1,0,0.2-0.1,0.3-0.1
	l0,0v0.2v0.4l5.2-0.3h0.1c0,0,0.2-1.1,0.4-2.6c0-0.1,0-0.2,0.1-0.4s0-0.3,0.1-0.5c0-0.1,0-0.2,0-0.2h0.2h0.1
	c2.4-0.1,5.7-0.3,7.1-0.9l0,0c0.2-0.1,0.3-0.2,0.5-0.3c0.6-0.6,2.7-1.3,4.7-2l0,0l0.8-0.3c0.6-0.2,1.2-0.4,1.7-0.5
	c1.2-0.3,2-0.6,2-0.6s8,0.8,14-1.1l0,0h0.1C377.2,243.9,375.8,243.2,373.1,242.7z M316.1,198.3c0,0.1,0,0.2,0,0.3l0,0l0,0l0,0l0,0
	v0.1v0.1c0,0.1,0,0.2,0.1,0.3c0.1,0.5,0.3,0.9,0.5,1.4c1.3,3.1,1.3,6.7,2.3,9.9c0,0.1,0.1,0.3,0.2,0.4c0,0,0.1,0.1,0.2,0.1h0.1l0,0
	h0.1v0.1l0,0l0,0c-0.4,0.8-0.9,1.5-1.3,2.2c-0.4,0.1-0.7,0.2-1.1,0.5l-0.2,0.1l-0.1,0.1c-0.1-0.6-0.3-1.2-0.4-1.7
	c-0.7-3.1-1.1-6.3-1.2-9.5c0-0.1,0-0.1,0-0.2c0-0.1,0-0.3,0-0.4c0-0.8,0-1.6,0.1-2.5c0-0.4,0.1-0.8,0.3-1.1l0,0
	C315.7,198.4,315.9,198.3,316.1,198.3L316.1,198.3z M319.4,210.8c-1-3.2-1-6.7-2.3-9.8c-0.2-0.4-0.4-0.9-0.5-1.4
	c-0.1-0.3-0.1-0.6-0.1-0.9h-0.1h-0.1h-0.1l0,0h-0.1c0,0.1,0,0.2,0.1,0.3c0.1,0.5,0.3,0.9,0.5,1.4c1.3,3.1,1.3,6.7,2.3,9.9
	c0,0.1,0.1,0.3,0.2,0.4C319.3,210.9,319.3,210.9,319.4,210.8C319.4,210.9,319.4,210.9,319.4,210.8L319.4,210.8z M319.4,210.8
	c-1-3.2-1-6.7-2.3-9.8c-0.2-0.4-0.4-0.9-0.5-1.4c-0.1-0.3-0.1-0.6-0.1-0.9h-0.1h-0.1h-0.1l0,0h-0.1c0,0.1,0,0.2,0.1,0.3
	c0.1,0.5,0.3,0.9,0.5,1.4c1.3,3.1,1.3,6.7,2.3,9.9c0,0.1,0.1,0.3,0.2,0.4C319.3,210.9,319.3,210.9,319.4,210.8
	C319.4,210.9,319.4,210.9,319.4,210.8L319.4,210.8z M319.4,210.8c-1-3.2-1-6.7-2.3-9.8c-0.2-0.4-0.4-0.9-0.5-1.4
	c-0.1-0.3-0.1-0.6-0.1-0.9h-0.1h-0.1h-0.1l0,0h-0.1c0,0.1,0,0.2,0.1,0.3c0.1,0.5,0.3,0.9,0.5,1.4c1.3,3.1,1.3,6.7,2.3,9.9
	c0,0.1,0.1,0.3,0.2,0.4C319.3,210.9,319.3,210.9,319.4,210.8C319.4,210.9,319.4,210.9,319.4,210.8L319.4,210.8z M319.4,210.8
	c-1-3.2-1-6.7-2.3-9.8c-0.2-0.4-0.4-0.9-0.5-1.4c-0.1-0.3-0.1-0.6-0.1-0.9h-0.1h-0.1h-0.1l0,0h-0.1c0,0.1,0,0.2,0.1,0.3
	c0.1,0.5,0.3,0.9,0.5,1.4c1.3,3.1,1.3,6.7,2.3,9.9c0,0.1,0.1,0.3,0.2,0.4C319.3,210.9,319.3,210.9,319.4,210.8
	C319.4,210.9,319.4,210.9,319.4,210.8L319.4,210.8z M319.4,210.8c-1-3.2-1-6.7-2.3-9.8c-0.2-0.4-0.4-0.9-0.5-1.4
	c-0.1-0.3-0.1-0.6-0.1-0.9h-0.1h-0.1h-0.1l0,0h-0.1c0,0.1,0,0.2,0.1,0.3c0.1,0.5,0.3,0.9,0.5,1.4c1.3,3.1,1.3,6.7,2.3,9.9
	c0,0.1,0.1,0.3,0.2,0.4C319.3,210.9,319.3,210.9,319.4,210.8C319.4,210.9,319.4,210.9,319.4,210.8L319.4,210.8z M319.4,210.8
	c-1-3.2-1-6.7-2.3-9.8c-0.2-0.4-0.4-0.9-0.5-1.4c-0.1-0.3-0.1-0.6-0.1-0.9h-0.1h-0.1h-0.1l0,0h-0.1c0,0.1,0,0.2,0.1,0.3
	c0.1,0.5,0.3,0.9,0.5,1.4c1.3,3.1,1.3,6.7,2.3,9.9c0,0.1,0.1,0.3,0.2,0.4C319.3,210.9,319.3,210.9,319.4,210.8
	C319.4,210.9,319.4,210.9,319.4,210.8L319.4,210.8z"/>
<path class="st23" d="M329.7,212.6c-0.5,0.6-0.9,1.3-1.2,2c0,0.1-0.1,0.2-0.1,0.3c-1.4,3.4-1.8,8.2-1.8,8.2s-0.8-0.4-2-1.1
	c-2.2-1.2-5.7-3.3-7.1-4.9c-0.6-0.7-0.8-1.4-0.3-1.8c0.1-0.1,0.2-0.2,0.3-0.3c0.4-0.4,0.8-0.9,1.1-1.4c0.4-0.7,0.9-1.4,1.3-2.2
	c0.2-0.5,0.5-0.9,0.7-1.4l0.1-0.2c0.9-1.9,1.6-3.6,1.6-3.6s0.3,0.1,0.8,0.3C325.3,207.5,331.7,210.3,329.7,212.6z"/>
<path class="st23" d="M372.1,291.8c0,0,0.4,3.1,0.9,6.4l-1.1-0.1c-2.9-0.2-5.9-0.4-8.8-0.6c-1.7-4.3-3.4-9.3-3.4-9.4
	s-0.1-1.7-0.1-3.6c0-0.7,0-1.3-0.1-2l0,0c0-1-0.1-1.8-0.1-2.4c0-0.4,0-0.6,0-0.6s-1.6,0.3-3,0.5l-0.6,0.1c-0.3,0-0.6,0.1-0.9,0.1
	c-0.2,0-0.5,0-0.7,0c-0.5-0.2,0.5-5.5,0.5-5.5l2.5-6.7l0.7-1.9l0.3-0.1c0.2,0,0.4-0.1,0.6-0.1c2.4-0.5,8.8-1.1,9.9,5.9
	c1.4,8.7,1.5,10.6,1.5,10.6L372.1,291.8z"/>
<path class="st23" d="M374.5,305.6h-0.8l0,0H374.5L374.5,305.6z"/>
<path class="st24" d="M372.1,291.8c0,0,0.4,3.1,0.9,6.4l-1.1-0.1c-2.9-0.2-5.9-0.4-8.8-0.6c-1.7-4.3-3.4-9.3-3.4-9.4
	s-0.1-1.7-0.1-3.6c0-0.7,0-1.3-0.1-2l0,0c0-1-0.1-1.8-0.1-2.4c0-0.4,0-0.6,0-0.6s-1.6,0.3-3,0.5l-0.6,0.1c-0.3,0-0.6,0.1-0.9,0.1
	c-0.2,0-0.5,0-0.7,0c-0.5-0.2,0.5-5.5,0.5-5.5l2.5-6.7l0.7-1.9l0.3-0.1c0.2,0,0.4-0.1,0.6-0.1c2.4-0.5,8.8-1.1,9.9,5.9
	c1.4,8.7,1.5,10.6,1.5,10.6L372.1,291.8z"/>
<path class="st24" d="M374.5,305.6h-0.8l0,0H374.5L374.5,305.6z"/>
<path class="st23" d="M371.8,298.1c-2.9-0.2-5.9-0.4-8.8-0.6l-1.1-0.1h-0.5c-1.4-3.7-2.6-7.3-2.6-7.4s-0.1-1.7-0.1-3.6
	c-0.1-2.3-0.2-4.9-0.2-4.9h-0.2h-0.1l0,0h-0.1l-0.5,0.1h-0.3c-0.5,0.1-1.1,0.2-1.7,0.3h-0.1h-0.3h-0.3l0,0c-0.2,0-0.5,0.1-0.7,0.1
	h-0.3c-0.2,0-0.5,0-0.7,0c-0.5-0.2,0.5-5.5,0.5-5.5l3.2-8.6h0.1c0.2,0,0.5-0.1,1-0.2c0.2,0,0.4-0.1,0.6-0.1c2.8-0.4,8.1-0.3,9.1,6
	c1.4,8.7,1.5,10.6,1.5,10.6l1.8,9.4C371.2,293.7,371.5,295.6,371.8,298.1z"/>
<path class="st4" d="M358.7,286.3c-0.1-2.3-0.2-4.9-0.2-4.9s-3.1,0.6-4.5,0.7l0.3-1.1c0,0,5.3-1.6,5.4-0.7
	C359.8,280.9,359.1,284.3,358.7,286.3z"/>
<path class="st4" d="M358.8,265.8v2.5c0,0-0.3,4.4-2.3,11.2c0,0.1-0.1,0.3-0.1,0.4c-0.2,0.7-0.5,1.3-0.8,1.9
	c-0.6,0.1-1.1,0.2-1.6,0.2c-0.2,0-0.5,0-0.7,0c-0.5-0.2,0.5-5.5,0.5-5.5l3.2-8.6h0.1l0.7-1.9C357.9,266.1,358.2,266,358.8,265.8z"/>
<path class="st16" d="M358.2,265.4v2.9c0,0-0.3,4.4-2.3,11.2c-0.1,0.2-0.1,0.3-0.2,0.5s-0.1,0.4-0.2,0.6c-0.2,0.5-0.4,0.9-0.6,1.3
	l0,0c-1.6,3.4-4.1,5.8-5.6,7.1c-0.2,0.2-0.4,0.4-0.6,0.5l0,0c-0.3,0.2-0.5,0.4-0.7,0.5c-0.1,0.1-0.2,0.1-0.2,0.1
	c-1.5-1-5.6-1.2-5.6-1.2l-9.7,2c-2.1,0.4-4.3,0.7-6.4,0.8l-1.1,0.1c-0.6,0-1.3,0-2,0c-0.5,0-1.1,0-1.7,0l0,0
	c-1.8-0.1-3.7-0.2-5.5-0.6c-1-0.2-2-0.4-2.9-0.7c-0.7-0.2-1.4-0.5-2-0.8c-6.8-3-5-9.9-3.9-13c0.1-0.2,0.1-0.3,0.2-0.4
	c0.3-0.6,0.4-1,0.4-1l0.5-1.2l0,0l0.7-2l0.2-0.4v-0.1l0.5-1.5l7.7-1.1l5.7-0.8l1.7-0.2l1.2-0.2l2.2-0.3l0.8-0.1
	c0.5-0.1,1-0.1,1.6-0.1c0.3,0,0.6,0,0.8,0.1c0.6,0.3,5.3-0.5,5.3-0.5s3.7-1.2,6.9-0.8c1.6,0.1,3.2,0.1,4.8,0l0,0h0.4h0.5h0.1
	C353.5,265.9,358.2,265.4,358.2,265.4z"/>
<path class="st4" d="M330.4,274c0,0-3.7,9.3-3.9,9.5c-0.2,0.2-0.1,3.1,0,2.9s5.3-12.8,5.3-12.8L330.4,274z"/>
<path class="st4" d="M348.3,266.1c0,0-1.9,1.3-2.4,2.4c-0.6,1.1-5.7,11.8-7,13.4c-1.1,1.4-2,2.9-2.9,4.5c-0.1,0.3-0.1,2.1,0.8,0.4
	s0.7-2,2.4-4.1c1.8-2.1,3.7-6.9,4.5-7.8c0.8-1,1.8-3.8,3.1-5.5l2.5-3.2L348.3,266.1z"/>
<path class="st4" d="M348.8,284.6c0,0-1.3-1-2.6,0.7C345,287,348.8,284.6,348.8,284.6z"/>
<path class="st4" d="M350.4,285.1c0,0-1.1,2.1-1.6,2.3C348.3,287.5,350.4,285.1,350.4,285.1z"/>
<path class="st4" d="M348.8,285.6c0,0-0.9,1.7-1.6,1.5L348.8,285.6z"/>
<path class="st23" d="M342.7,240.8c0,0,8-0.4,8.7-0.7c0.8-0.3,7.8-1.3,7.8-1.3s20.7,1.6,14.8,3.6c-5.9,2-13.9,1.1-13.9,1.1
	s-7.8,2.2-9,3.4c-1.2,1.2-10.1,1.2-10.1,1.2L342.7,240.8z"/>
<path class="st24" d="M342.7,240.8c0,0,8-0.4,8.7-0.7c0.8-0.3,7.8-1.3,7.8-1.3s20.7,1.6,14.8,3.6c-5.9,2-13.9,1.1-13.9,1.1
	s-7.8,2.2-9,3.4c-1.2,1.2-10.1,1.2-10.1,1.2L342.7,240.8z"/>
<path class="st15" d="M314.4,220.8c0,0-7.3,2.7-3.8,9.7s8.1,10.2,8.1,10.2l11.7,9c0,0,4.9,3.1,7.2,1.8l3.7-0.3l0.6-10.7
	c0,0-3.1,2.7-6.5-1c-3.4-3.7-7.5-6.2-7.8-8.2C327.3,229.3,318.6,219.1,314.4,220.8z"/>
<path class="st17" d="M337.4,243.3c0,0,3.8,1.5,3.6,1.6c-0.1,0.1-3.6,1.5-3.6,1.5l0.3,5.7l5.1-0.3c0,0,1.9-10.3,0.3-11.4l-5.7-0.3
	L337.4,243.3z"/>
<path class="st4" d="M337.4,243.3c0,0,3.8,1.5,3.6,1.6c-0.1,0.1-3.6,1.5-3.6,1.5l0.3,5.7l5.1-0.3c0,0,1.9-10.3,0.3-11.4l-5.7-0.3
	L337.4,243.3z"/>
<path class="st4" d="M329.7,212.6c-0.5,0.6-0.9,1.3-1.2,2c0,0.1-0.1,0.2-0.1,0.3c-2.8,0-4.7-2.4-6.4-4.5c-0.3-0.4-1.1,0.2-1.3-0.2
	c0-0.1-0.1-0.1-0.1-0.2l0.1-0.2c0.9-1.9,1.6-3.6,1.6-3.6s0.3,0.1,0.8,0.3C325.3,207.5,331.7,210.3,329.7,212.6z"/>
<path class="st23" d="M337.8,204.4c0,5.6-4.1,10.2-9.2,10.3h-0.1c-2.7,0-5.2-1.3-7-3.5c-0.3-0.4-0.6-0.8-0.9-1.2
	c-2.8-4.8-1.5-11.1,2.8-14.2c4.3-3.1,10.1-1.7,12.9,3.1C337.2,200.5,337.8,202.4,337.8,204.4z"/>
<path class="st4" d="M328.3,268.1c0,0-0.7,1-1.5,1.8c-0.6,0.7-1.2,1.3-1.6,1.5c-0.9,0.4-5.2,3.9-5.2,3.9s-3.4,2.5-4.2,3.3
	c-0.9,0.7-4,0.3-4,0.3s-3-0.7-4.9-2c0.2-0.5,0.4-1,0.6-1.4l2-5.2l7.7-1.1L328.3,268.1z"/>
<path class="st17" d="M328.1,267.5c0,0-0.7,1-1.5,1.8c-0.6,0.7-1.2,1.3-1.6,1.5c-0.9,0.4-5.2,3.9-5.2,3.9s-3.4,2.5-4.2,3.3
	c-0.9,0.7-4,0.3-4,0.3s-4.3-1-5.8-2.9c-1.1-1.3,0-3.7,0.8-5.1c0.3-0.6,0.6-0.9,0.6-0.9L328.1,267.5z"/>
<path class="st17" d="M333.7,235.3c-2.6-0.2-11-11.6-11-11.6l0.2-0.3l1.8-2.7h4.1l0.5,2.5c3.1,4.9,5,8.2,5.5,10.2
	C335.1,234.8,334.8,235.5,333.7,235.3z"/>
<path class="st4" d="M333.7,235.3c-2.6-0.2-11-11.6-11-11.6l0.2-0.3c1.5,1.5,2.9,3.2,4.2,4.9c6.2,8,7.4,5.8,7.6,5.1
	C335.1,234.8,334.8,235.5,333.7,235.3z"/>
<path class="st4" d="M328.1,267.5c0,0-0.7,1-1.5,1.8c-0.4,0.2-0.8,0.3-1.3,0.3c-1,0-3.2,1.7-3.2,1.7s-4-0.2-4.7,0.2
	c-0.8,0.5-3.6,0.5-3.6,0.5c-5.3,1.7-6.8-0.9-7.1-1.7c0.3-0.6,0.6-0.9,0.6-0.9L328.1,267.5z"/>
<path class="st15" d="M337.3,242.8c0,0.2,0,0.3,0,0.5s0,0.3-0.1,0.5c-0.1,0.8-0.3,1.7-0.7,2.4c-0.7,1.2-2.7,6.1-2.7,6.1l-0.1,0.9
	l-0.1,0.5l-0.1,0.5l-0.5,3.3l-0.2,3.8c0,0-1.2,1.9-1.8,2.7c-0.5,0.8-0.5,2-0.3,2.9s-1.7,1-1.7,1s-2.7,1.5-3.7,1.4s-3.2,1.7-3.2,1.7
	s-4-0.2-4.7,0.2s-3.6,0.5-3.6,0.5c-5.7,1.8-6.9-1.2-7.2-1.9c-0.3-0.6,1.1-3.1,1.1-3.1s0.3-3.2,0.9-3.4c0.6-0.2,1.3-4.5,1.3-4.5
	s-0.2-1.3,0.3-2s0.5-2.7,1.1-3.6c0.6-1-0.7-4.1-0.4-5c0.2-0.8-0.7-4.2-0.6-5.1s-0.2-1.6-0.8-3.3c-0.5-1.5-0.4-8.1-0.3-10
	c0-0.3,0-0.5,0-0.5s0.5-1.9,1.9-5.6c1.1-2.8,3.4-3.9,4.5-4.2c0.2-0.1,0.4-0.1,0.6-0.2c0.3,0,0.5,0.1,0.8,0.2
	c1.1,0.4,3.3,1.6,6.4,4.8c1.4,1.4,2.7,2.9,3.9,4.5c7,9.1,7.6,4.9,7.6,4.9s0.3,0.8,1.8,3.9C337.3,239.1,337.5,241.1,337.3,242.8z"/>
<path class="st4" d="M325.7,220.2l-7.1-6.2c0,0-2.5,0.3-3.6,5.1l7.3,7L325.7,220.2z"/>
<path class="st17" d="M325.7,220.2l-1.2,1.9l-1.3,2l-0.9,1.5l-5.8-5.4l-1-1l-0.6-0.5c0.6-2.6,1.6-3.8,2.4-4.4
	c0.4-0.3,0.8-0.5,1.2-0.6L325.7,220.2z"/>
<path class="st23" d="M374.3,244.9c-5.9,1.9-13.9,1.1-13.9,1.1s-7.8,2.2-9,3.4c-0.8,0.7-4.7,1-7.4,1.1c-1.5,0.1-2.6,0.1-2.6,0.1
	l1.6-7.4h1c2.1-0.1,7.2-0.4,7.8-0.6c0.8-0.3,7.8-1.3,7.8-1.3S380.2,242.9,374.3,244.9z"/>
<path class="st4" d="M337.2,243.7c-0.1,0.8-0.3,1.7-0.7,2.4c-0.7,1.2-2.7,6.1-2.7,6.1l-0.3,1.8c-1-0.4-1.9-0.9-2.8-1.4l-11.7-9
	c0,0-4.5-3.3-8.1-10.2c-3.5-7,3.8-9.7,3.8-9.7c4.2-1.7,12.8,8.5,13.2,10.5s4.5,4.5,7.8,8.2C336.2,242.9,336.7,243.4,337.2,243.7z"/>
<path class="st4" d="M337.3,242.8c0,0.3-0.1,0.6-0.1,0.9c-0.1,0.8-0.3,1.7-0.7,2.4c-0.7,1.2-2.7,6.1-2.7,6.1l-0.1,0.9
	c-1-0.4-2-0.9-2.9-1.5l-11.7-9c0,0-4.5-3.3-8.1-10.2c-3.5-7,3.8-9.7,3.8-9.7c4.2-1.7,12.8,8.5,13.2,10.5s4.5,4.5,7.8,8.2
	C336.2,242,336.7,242.4,337.3,242.8z"/>
<path class="st15" d="M342.2,243l-0.6,10.7l-3.7,0.3c-0.1,0-0.2,0.1-0.3,0.1c-2.3,0.9-6.9-1.9-6.9-1.9l-11.7-9c0,0-4.5-3.3-8.1-10.2
	c-3.5-7,3.8-9.7,3.8-9.7c4.2-1.7,12.8,8.5,13.2,10.5s4.5,4.5,7.8,8.2c0.5,0.5,1.1,1,1.7,1.4C338.9,244.2,340.8,244.1,342.2,243z"/>
<path class="st4" d="M342.2,243l-0.6,10.7l-3.7,0.3c-0.1,0-0.2,0.1-0.3,0.1l-0.2-5.2c0,0,3.5-1.5,3.6-1.5c0.2-0.1-3.6-1.6-3.6-1.6
	v-2.5C338.9,244.2,340.8,244.1,342.2,243z"/>
<path class="st4" d="M344,250.5c-1.5,0.1-2.6,0.1-2.6,0.1l1.7-7.3h1C344.6,244.4,344.3,247.8,344,250.5z"/>
<path class="st17" d="M337.7,245.8c0,0,3.8,1.5,3.6,1.6c-0.1,0.1-3.6,1.5-3.6,1.5l0.3,5.7l5.1-0.3c0,0,1.9-10.3,0.3-11.4l-5.7-0.3
	L337.7,245.8L337.7,245.8z"/>
<path class="st4" d="M315.2,252.6c0,0-1.3,1.3-2.3,1.7L315.2,252.6z"/>
<path class="st4" d="M312.2,256.5c0,0,3.1-0.1,3.5-0.8C316,255,312.2,256.5,312.2,256.5z"/>
<path class="st4" d="M310.6,261.5c0.2,0,3.9-0.6,4.1-1.1L310.6,261.5z"/>
<path class="st4" d="M309.5,264.6c1.4,0,3.6-1.7,3.6-1.7L309.5,264.6z"/>
<path class="st4" d="M318.2,265.4c0,0,8.1,0,8.5-1.7C327.1,262.1,318.2,265.4,318.2,265.4z"/>
<path class="st4" d="M324.3,242.3c0.2,0,6.4,0,7-1C332,240.4,324.3,242.3,324.3,242.3z"/>
<path class="st4" d="M317.4,215.1c0.1,0.3,0.1,0.7,0.1,1c0,0.4,0,0.8-0.1,1.1c-0.1,0.7-0.3,1.4-0.6,2.1l-0.1,0.2
	c-0.1,0.2-0.2,0.5-0.3,0.7c-0.5,1-1,2-1.6,3c-1.4,2.1-3,3.9-4.9,5.6c-0.3,0.3-0.6,0.6-1,0.9c0-0.3,0-0.5,0-0.5s0.5-1.9,1.9-5.6
	c1.1-2.8,3.4-3.9,4.5-4.2l-0.6-0.5c0.6-2.6,1.6-3.8,2.4-4.4C317.3,214.6,317.4,214.8,317.4,215.1z"/>
<path class="st4" d="M336.4,199c-0.1,0-0.2,0.1-0.3,0.1c-0.6,0.4-0.8,1.2-1.2,1.7c-0.6,0.6-1.4,0.7-2.2,0.8s-1.7,0.3-2.1,1.1
	c-0.3,0.6-0.3,1.3-0.4,1.9c0,0.1-0.1,0.2-0.1,0.3c-0.1,0.1-0.2,0.1-0.4,0.1c-1.5,0.1-2.7-0.5-4.1-0.9c-0.7-0.2-1.5-0.2-2,0.3
	s-0.6,1.2-0.6,1.9v0.1c0.1,0.7,0.1,1.4,0.1,2c-0.1,1.1-0.7,2-1.6,2.5c-0.4,0.2-0.8,0.3-1.2,0.4c-0.2,0-0.3,0-0.5-0.1
	c0.3-0.5,0.5-1,0.8-1.5c-2.8-4.8-1.6-11.1,2.8-14.2c4.3-3.1,10.1-1.7,12.9,3C336.3,198.9,336.3,198.9,336.4,199L336.4,199z"/>
<path class="st16" d="M338.9,197.7c-0.1,0.3-0.3,0.5-0.5,0.7c-0.7,0.5-1.7-0.1-2.5,0.4c-0.6,0.4-0.8,1.2-1.2,1.7
	c-0.6,0.6-1.4,0.7-2.2,0.8c-0.8,0.1-1.7,0.3-2.1,1.1c-0.3,0.6-0.3,1.3-0.4,1.9c0,0.1-0.1,0.2-0.1,0.3c-0.1,0.1-0.2,0.1-0.4,0.1
	c-1.5,0.1-2.7-0.5-4.1-0.9c-0.7-0.2-1.5-0.2-2,0.3s-0.6,1.2-0.6,1.9c0.1,0.7,0.1,1.4,0.1,2.1c-0.2,1.5-1.4,2.7-2.8,2.9
	c-0.2,0-0.4,0-0.6-0.2c-0.1-0.1-0.2-0.2-0.2-0.4c-1-3.2-1-6.7-2.3-9.8c-0.2-0.4-0.4-0.9-0.5-1.4c0-0.1,0-0.2-0.1-0.3
	c0-0.2-0.1-0.4-0.1-0.6c-0.1,0-0.2,0.1-0.4,0.2l-0.1,0.1c-0.2,0.3-0.3,0.7-0.3,1.1c-0.2,4.3,0.1,8.6,1.1,12.7c0.3,1,0.5,2.1,0.5,3.2
	c0,1.2-0.3,2.3-0.7,3.4c-1.9,4.9-5.8,8.6-9.7,11.8c0.8-1,1.2-2.2,1.2-3.5c-0.1,0.5-0.5,0.9-1,1s-0.9,0.1-1.4,0c0.6-0.2,0.8-1,1-1.7
	c0.3-1.4,0.6-2.7,0.8-4.1c0.3-1.3,0.5-2.7,0.5-4c0-1.2,0-2.3-0.1-3.5c-0.1-3.2,0-6.4,0.3-9.5c0.2-2.7,0.6-5.7,2.5-7.6
	c0.8-0.7,1.7-1.3,2.6-1.8c0-0.3,2.3-1,2.6-1.1c0.1,0,0.3,0,0.4,0c0.3-0.1,0.7,0.1,0.8,0.5c0.1-0.2,0.2-0.4,0.4-0.6
	c0.2-0.3,0.4-0.6,0.6-0.8c1.2-1.4,2.7-2.4,4.1-3.7c0.5-0.5,1-0.9,1.6-1.3c0.8-0.4,1.6-0.7,2.4-0.7c1.4-0.1,2.8,0.2,4.1,0.7
	c1.9,0.8,3.5,2.2,5.5,2.8c0.5,0.1,1,0.3,1.4,0.4c1.8,0.8,2.6,3,1.9,4.9C339.1,197.5,339,197.6,338.9,197.7L338.9,197.7z"/>
<g class="st18">
	<path d="M307.6,228.3c0.2-0.6,0.3-1.3,0.3-2c-0.1,0.5-0.5,0.9-1,1c-0.1,0-0.2,0.1-0.4,0.1c-0.2,0.5-0.4,1.1-0.9,1.2
		c0.5,0.1,0.9,0.1,1.4,0C307.3,228.6,307.5,228.5,307.6,228.3z"/>
	<path d="M339.2,195c0,0.5-0.1,1.1-0.4,1.6c-0.1,0.3-0.3,0.5-0.5,0.7c-0.7,0.5-1.7,0-2.5,0.4c-0.6,0.4-0.8,1.2-1.2,1.7
		c-0.6,0.6-1.4,0.7-2.2,0.8c-0.8,0.1-1.7,0.3-2.1,1.1c-0.3,0.6-0.3,1.3-0.4,1.9c0,0.3-0.2,0.5-0.4,0.5l0,0c-1.5,0.1-2.7-0.5-4.1-0.9
		c-0.7-0.2-1.5-0.2-2,0.3s-0.6,1.2-0.6,1.9c0.1,0.7,0.1,1.4,0.1,2.1c-0.2,1.6-1.4,2.7-2.8,2.9c-0.2,0-0.4,0-0.6-0.2
		c-0.1-0.1-0.2-0.2-0.2-0.4c-1-3.2-1-6.7-2.3-9.8c-0.2-0.4-0.4-0.9-0.5-1.4c-0.1-0.3-0.1-0.6-0.1-0.9c-0.2,0-0.3,0.1-0.5,0.3
		c-0.2,0.3-0.3,0.7-0.3,1.1c-0.1,2.7,0,5.5,0.3,8.2c-0.2-2.3-0.3-4.6-0.2-6.9c0-0.4,0.1-0.8,0.3-1.1c0.1-0.2,0.3-0.3,0.5-0.3
		c0,0.3,0.1,0.6,0.1,0.9c0.1,0.5,0.3,0.9,0.5,1.4c1.2,3.1,1.2,6.6,2.3,9.8c0,0.1,0.1,0.3,0.2,0.4c0.2,0.1,0.4,0.2,0.6,0.2
		c1.4-0.1,2.6-1.3,2.8-2.9c0-0.7,0-1.4-0.1-2.1c0-0.7,0.1-1.5,0.6-1.9c0.5-0.5,1.3-0.5,2-0.3c1.4,0.4,2.6,1,4.1,0.9
		c0.1,0,0.3,0,0.4-0.1s0.1-0.2,0.1-0.3c0.1-0.6,0.1-1.3,0.4-1.9c0.4-0.7,1.3-1,2.1-1.1c0.8-0.1,1.7-0.2,2.2-0.8
		c0.5-0.5,0.6-1.4,1.2-1.7c0.7-0.4,1.7,0.1,2.5-0.4c0.2-0.2,0.4-0.4,0.5-0.7C339.4,197,339.4,196,339.2,195z"/>
	<path d="M317.2,214.6c0,1.2-0.3,2.3-0.7,3.4c-1.7,4.4-5,7.8-8.5,10.8c-0.1,0.9-0.5,1.7-1.1,2.4c3.9-3.3,7.8-6.9,9.7-11.8
		c0.5-1.1,0.7-2.2,0.7-3.4c0-0.5-0.1-1-0.2-1.5C317.2,214.5,317.2,214.6,317.2,214.6z"/>
</g>
<path class="st4" d="M317.6,195c-0.3,1.4-0.7,3.3-0.9,4.2c0-0.2-0.1-0.4-0.1-0.6c-0.1,0-0.2,0.1-0.3,0.2c0-1,0.1-2.5,0.2-3.6
	c0.3-0.1,0.7,0.1,0.8,0.5C317.3,195.4,317.5,195.2,317.6,195z"/>
<path class="st17" d="M317.5,195c-0.3,1.4-0.7,3.3-0.9,4.2c0-0.2-0.1-0.4-0.1-0.6c-0.1,0-0.2,0.1-0.4,0.2c0-1,0.1-2.5,0.2-3.6
	c0.3-0.1,0.7,0.1,0.8,0.5C317.2,195.4,317.3,195.2,317.5,195z"/>
<g class="st25">
	<path class="st26" d="M380.4,118.3h51.2v55h-51.2V118.3z"/>
	<path class="st27" d="M378.1,115.7v60.2H434v-60.2H378.1z M380.5,118.3h51.2v55h-51.3L380.5,118.3z"/>
	<path class="st27" d="M418.7,141c-0.4-0.2-0.9-0.3-1.4-0.3c-2.9,0-4.9,2.5-4.9,6.6c0,4.7,2,6.6,4.6,6.6c0.5,0,1.1-0.1,1.6-0.3
		L418.7,141L418.7,141z M408.3,147.6c0-6,3.5-10.7,9.2-10.7c0.4,0,0.8,0,1.2,0.1v-6.7c0-0.1,0.1-0.3,0.2-0.3l0,0h3.7
		c0.2,0,0.2,0.1,0.2,0.2v23.5c0,0.8,0,1.7,0.1,2.5c0,0.2,0,0.2-0.1,0.3c-1.9,1-3.9,1.5-6,1.5C411.9,158.1,408.3,154.6,408.3,147.6
		L408.3,147.6z M400.3,143.4l6.5,14c0.1,0.2,0,0.4-0.1,0.4h-4.1c-0.2,0-0.4-0.1-0.5-0.3c-1.5-3.4-3-6.9-4.6-10.6l0,0
		c-1.4,3.4-2.9,7.2-4.4,10.6c-0.1,0.2-0.2,0.3-0.4,0.3h-3.9c-0.2,0-0.3-0.2-0.1-0.4l6.4-13.6l-6.2-13.4c-0.1-0.1-0.1-0.2,0-0.3
		c0,0,0.1-0.1,0.2-0.1h4c0.2,0,0.3,0.1,0.4,0.3c1.5,3.4,3,6.8,4.4,10.2l0,0c1.3-3.4,2.8-6.8,4.3-10.2c0.1-0.2,0.2-0.3,0.4-0.3h3.8
		c0.2,0,0.3,0.2,0.1,0.4L400.3,143.4L400.3,143.4z"/>
</g>
<g class="st25">
	<path id="_x38_8e22766-bb2e-4d8a-8c4e-873561c02ed1" class="st28" d="M168,140.5l17.5,37.8l-29.4-37.8H168z"/>
	<path id="dcb2c17a-6570-4f03-a416-11c2a206e419" class="st28" d="M203.1,140.5l-17.5,37.8l29.4-37.8H203.1z"/>
	<path id="d2c5ae9b-dccc-4d4c-8aa0-840002be2480" class="st29" d="M168,140.5h35l-17.5,37.8L168,140.5z"/>
	<path id="_x36_16bf47a-f8e5-41ce-b525-03b6ad416eda" class="st30" d="M185.6,119.5l-16.6,1.9l-0.9,19L185.6,119.5z"/>
	<path id="ca73b31d-b223-4f6c-ac2e-edd2597912ec" class="st30" d="M185.6,119.5l16.6,1.9l0.9,19L185.6,119.5z"/>
	<path id="_x32_a7c7013-4804-45aa-950a-2b5376f70ef0" class="st29" d="M215,140.5l-12.8-19l0.9,19H215z"/>
	<path id="_x35_dac32ab-c712-4de9-a97f-2e05661e9f0b" class="st29" d="M156.1,140.5l12.8-19l-0.9,19H156.1z"/>
	<path id="_x32_d1bbfda-86f6-4da7-9bb0-15ddbbfa97e7" class="st31" d="M185.6,119.5l-17.5,21h35L185.6,119.5z"/>
</g>
</svg>
