<?xml version="1.0" encoding="utf-8"?>
<!-- Generator: Adobe Illustrator 24.0.1, SVG Export Plug-In . SVG Version: 6.00 Build 0)  -->
<svg version="1.1" id="Layer_1" xmlns="http://www.w3.org/2000/svg" xmlns:xlink="http://www.w3.org/1999/xlink" x="0px" y="0px"
	 viewBox="0 0 1300 400" style="enable-background:new 0 0 1300 400;" xml:space="preserve">
<style type="text/css">
	.st0{fill:url(#SVGID_1_);stroke:#000000;stroke-width:1.6452;stroke-miterlimit:10;}
	.st1{fill:#F2F2F2;}
	.st2{fill:#3F3D56;}
	.st3{fill:#FFFFFF;}
	.st4{opacity:0.2;enable-background:new    ;}
	.st5{fill:#E5E5E5;}
	.st6{fill:#FFB6B6;}
	.st7{fill:#2F2E41;}
	.st8{fill:#63C7FF;}
	.st9{fill:#E6E6E6;}
	.st10{fill:#CACACA;}
</style>
<linearGradient id="SVGID_1_" gradientUnits="userSpaceOnUse" x1="-9.094947e-13" y1="1762" x2="1300" y2="1762" gradientTransform="matrix(1 0 0 1 0 -1562)">
	<stop  offset="0" style="stop-color:#007194"/>
	<stop  offset="1" style="stop-color:#41C1C9"/>
</linearGradient>
<rect x="0" class="st0" width="1300" height="400"/>
<path class="st1" d="M109.4,308.4l-12.9-10.9c1.5-8.8,5.1-17,10.5-24.1c0.4,15.8,16.6,26.4,22.2,41.2c3.4,9.4,2.4,19.8-2.7,28.3
	l-1.3,11.9c-14.3-7.4-24.6-20.8-28.2-36.5c-1-4.4-1.4-8.8-1.2-13.3C102.3,307.1,109.4,308.4,109.4,308.4z"/>
<path class="st1" d="M471.6,329.4l9-14.3c8.9,0.2,17.6,2.6,25.3,7c-15.6,2.6-23.8,20.1-37.7,27.7c-8.8,4.7-19.3,5.2-28.4,1.3
	l-12,0.4c5.4-15.2,17.1-27.2,32.2-33c4.2-1.6,8.5-2.6,13-3.1C471.9,322.2,471.6,329.4,471.6,329.4z"/>
<polygon class="st1" points="186,282.7 135.9,279.7 142.8,231.2 186.9,278.7 "/>
<polygon class="st1" points="179.6,332.1 128.6,328.7 135.4,284.6 179.8,328.7 "/>
<path class="st2" d="M464.2,127.5L464.2,127.5V82.7c0-14.3-11.6-25.9-25.9-25.9l0,0h-94.9c-14.3,0-25.9,11.6-25.9,25.9c0,0,0,0,0,0
	v245.8c0,14.3,11.6,25.9,25.9,25.9l0,0h94.9c14.3,0,25.9-11.6,25.9-25.9V159.4l0,0c0.9,0,1.6-0.7,1.6-1.6c0,0,0,0,0,0v-28.6
	C465.9,128.3,465.1,127.5,464.2,127.5z"/>
<path class="st3" d="M458.7,82.9v245.4c0,10.6-8.5,19.2-19.2,19.4c-0.1,0-0.1,0-0.2,0H344c-10.7,0-19.4-8.7-19.4-19.4V82.9
	c0-10.7,8.7-19.4,19.4-19.4h11.6c-1.9,4.7,0.3,10.1,5.1,12c1.1,0.4,2.3,0.7,3.5,0.7h54.4c5.1,0,9.2-4.2,9.2-9.2
	c0-1.2-0.2-2.3-0.7-3.4h12.4C450,63.6,458.7,72.2,458.7,82.9z"/>
<path class="st2" d="M437.7,341.7c0,2.5-0.1,5.1-0.2,7.6c-0.1,0-0.1,0-0.2,0h-95.4c-8.9,0-16.6-6-18.8-14.6
	c-0.2-0.7-0.3-1.5-0.4-2.2c-0.1-0.8-0.2-1.7-0.2-2.5V220.6c7.3,0.4,14.6,1.4,21.8,3.1c0.7,0.2,1.4,0.3,2.1,0.5c0,0,0.1,0,0.1,0
	c0.7,0.2,1.4,0.4,2.1,0.6c14.7,4,28.6,10.9,40.8,20.1c0.7,0.5,1.4,1.1,2.1,1.6l0.1,0.1c1.2,0.9,2.3,1.8,3.4,2.8
	c0.2,0.2,0.5,0.4,0.7,0.6c0.6,0.5,1.2,1,1.8,1.6c13,11.7,23.3,26.1,30.3,42.2c0.2,0.5,0.5,1.1,0.7,1.6c0.1,0.2,0.2,0.4,0.3,0.6
	c0.1,0.2,0.2,0.4,0.2,0.6C434.8,310.9,437.7,326.2,437.7,341.7z"/>
<path class="st2" d="M318,152.6c-1.2,0-2.2-1-2.2-2.2v-15c0-1.2,1-2.2,2.2-2.2c1.2,0,2.2,1,2.2,2.2l0,0v15
	C320.2,151.6,319.2,152.6,318,152.6z"/>
<path class="st2" d="M317.5,123.5c-1.2,0-2.2-1-2.2-2.2v-15c0-1.2,1-2.2,2.2-2.2s2.2,1,2.2,2.2l0,0v15
	C319.7,122.5,318.7,123.5,317.5,123.5z"/>
<path class="st3" d="M376.2,66.1c0-1.2,1-2.2,2.2-2.2h15c1.2,0,2.2,1,2.2,2.2c0,1.2-1,2.2-2.2,2.2c0,0,0,0,0,0h-15
	C377.2,68.3,376.2,67.3,376.2,66.1z"/>
<path class="st2" d="M318,178.2c-1.2,0-2.2-1-2.2-2.2v-15c0-1.2,1-2.2,2.2-2.2c1.2,0,2.2,1,2.2,2.2v15
	C320.2,177.2,319.2,178.2,318,178.2z"/>
<circle class="st3" cx="401.8" cy="66.1" r="2.2"/>
<path class="st4" d="M393.7,330.8c0-19.3,15.6-34.9,34.9-34.9c0,0,0,0,0,0h0.2c-0.1-0.2-0.2-0.4-0.3-0.6c-0.2-0.5-0.4-1.1-0.7-1.6
	h-34.1V250h2.1c-0.2-0.2-0.5-0.4-0.7-0.6c-1.1-1-2.3-1.9-3.4-2.8l-0.1-0.1v1.3h-42.9v-23c-0.7-0.2-1.4-0.4-2.1-0.6c0,0-0.1,0-0.1,0
	v23.6h-21.8v2.2h21.8v43.7h-21.8v2.2h21.8v34.9h-21.6c0.1,0.7,0.2,1.5,0.4,2.2h21.2v14.6h2.2v-14.6h42.9v14.6h2.2v-14.6h37.4v-2.2
	L393.7,330.8z M391.5,330.8h-42.9v-34.9h42.9V330.8z M391.5,293.7h-42.9v-0.9c0-23.7,19.2-42.9,42.9-42.9V293.7z"/>
<polygon class="st5" points="201.4,170.9 177.6,353.9 177.4,355.1 176.4,355.1 176.6,353.9 200.4,170.7 "/>
<polygon class="st5" points="151.8,171.1 125.6,353.9 125.4,355.1 124.4,355.1 124.6,353.9 150.9,171 "/>
<polygon class="st2" points="238.4,355 237.3,355 237,353.9 186.3,165.3 187.2,165.1 238,353.9 "/>
<rect x="262" y="161.5" transform="matrix(0.9621 -0.2727 0.2727 0.9621 -60.8399 81.4313)" class="st2" width="1" height="196.1"/>
<rect x="230.6" y="324.4" transform="matrix(0.9793 -0.2026 0.2026 0.9793 -60.5295 58.4669)" class="st2" width="49.5" height="1"/>
<rect x="222.2" y="295" transform="matrix(0.9793 -0.2026 0.2026 0.9793 -54.7408 56.1529)" class="st2" width="49.5" height="1"/>
<rect x="214.2" y="265.2" transform="matrix(0.9818 -0.19 0.19 0.9818 -46.1345 50.193)" class="st2" width="49.1" height="1"/>
<rect x="206.8" y="235.8" transform="matrix(0.981 -0.1939 0.1939 0.981 -41.4222 49.2266)" class="st2" width="48" height="1"/>
<path class="st2" d="M151,171.1c-1.5-10,5.3-19.4,15.4-20.9c10-1.5,19.4,5.3,20.9,15.4l-1,0.1c-1.4-9.5-10.3-16-19.8-14.6
	c-9.5,1.4-16,10.3-14.6,19.8c0,0,0,0,0,0L151,171.1z"/>
<path class="st2" d="M200.1,171.3c-1.7-10,5.1-19.5,15.1-21.1c10-1.7,19.5,5.1,21.1,15.1c0,0,0,0,0,0l-1,0.2
	c-1.6-9.5-10.5-15.9-20-14.3c-9.5,1.6-15.9,10.5-14.3,20L200.1,171.3z"/>
<polygon class="st6" points="250.7,211.3 241.3,234.2 272,233.9 268.8,211.2 "/>
<polygon class="st6" points="258.2,316.4 262.7,317.1 267.5,299.8 260.7,298.9 "/>
<path class="st7" d="M257.4,314l7.3,0.6l-0.4,3.1l6.1,5.7c0.8,0.7,0.8,2,0.1,2.7c-0.4,0.5-1.1,0.7-1.7,0.6l-8.6-1.2l-1-3.3l-1,3
	l-3.2-0.5L257.4,314z"/>
<polygon class="st6" points="205.6,303.7 209.2,306.5 221.8,293.8 216.5,289.7 "/>
<path class="st7" d="M206.1,301.2l6,4.1l-1.9,2.5l2.5,8c0.3,1-0.2,2.1-1.3,2.4c-0.6,0.2-1.3,0.1-1.8-0.3l-6.8-5.3l0.7-3.3l-2.4,2.1
	l-2.6-2L206.1,301.2z"/>
<path class="st7" d="M243,228.7l-3,4l-8,35l-18.3,24.7l6.1,5.9l23.3-22.6l11.4-24.2l5.8,22.3l-1.5,29.9l9.8-0.5
	c2.7-34.7,6.8-70.4,1.9-80.4l0,0c-6.5,5.7-15.1,8.4-23.7,7.6L243,228.7z"/>
<path class="st8" d="M259.2,174.2l7.7,8.5c1.7,1.9,2.8,4.2,3.1,6.7l0,0c0.1,1.1,0.1,2.3-0.1,3.4l-1.7,12.2l2.9,18.6
	c0,0-4.2,2.6-12.2,7.8c-3.3,2.2-18.6,2.1-18.6,1.5c0.1-3,2.8-11.2,3.4-21.1c0.8-12.2-0.2-26.8,2.4-33.8
	C249.5,169.5,259.2,174.2,259.2,174.2z"/>
<path class="st6" d="M232.7,228.4c1.3-1.9,0.8-4.4-1-5.7c-0.2-0.1-0.4-0.3-0.6-0.4l0.3-9.3l-5.6-1.6l-0.2,13.1
	c-0.8,2.1,0.3,4.5,2.4,5.3C229.6,230.6,231.6,229.9,232.7,228.4L232.7,228.4z"/>
<path class="st8" d="M225.2,190.8c0.3-0.9,1-1.6,1.9-1.9c3-1.3,15.9-11.8,16.4-11.6l4.1-2c0.2,0,4.2,0.1,6.2,2.3
	c0.8,1,1.2,2.2,1,3.5c-0.6,5.3-18.9,17.4-20.8,17.3l-2.1,15.2l0.8,5.8l-7.5,0.2l-2.3-8.5C222.5,210.4,222.1,198.6,225.2,190.8z"/>
<ellipse transform="matrix(0.1444 -0.9895 0.9895 0.1444 33.0383 401.8186)" class="st8" cx="248.9" cy="181.8" rx="7.6" ry="6.4"/>
<polygon class="st2" points="198.9,209.9 198.7,208.9 244.2,198.6 244.2,199.6 "/>
<path class="st9" d="M382.9,140.6h17.5c3.8,0,6.8,3.1,6.8,6.8l0,0c0,3.8-3.1,6.8-6.8,6.8h-17.5c-3.8,0-6.8-3.1-6.8-6.8l0,0
	C376.1,143.7,379.2,140.6,382.9,140.6z"/>
<path class="st9" d="M350.5,167.9h82.2c3.8,0,6.8,3.1,6.8,6.8v0c0,3.8-3.1,6.8-6.8,6.8h-82.2c-3.8,0-6.8-3.1-6.8-6.8v0
	C343.7,170.9,346.8,167.9,350.5,167.9z"/>
<path class="st8" d="M315.3,188.3h82.2c3.8,0,6.8,3.1,6.8,6.8v0c0,3.8-3.1,6.8-6.8,6.8h-82.2c-3.8,0-6.8-3.1-6.8-6.8v0
	C308.5,191.3,311.5,188.3,315.3,188.3z"/>
<path class="st10" d="M505.8,354.4c0,0.3-0.3,0.6-0.6,0.6c0,0,0,0,0,0L214.9,355l-1,0l-59.9,0h-1l-51,0h-1l-15.9,0
	c-0.3,0-0.6-0.3-0.6-0.6s0.3-0.6,0.6-0.6l16.1,0h1l51,0h1l59.5,0h1l50.7,0h0.7l239.4-0.1C505.6,353.8,505.8,354,505.8,354.4
	C505.8,354.4,505.8,354.4,505.8,354.4z"/>
<path class="st6" d="M267.4,165.8c-3.6,4.7-10.3,5.7-15,2.1c-4.7-3.6-5.7-10.3-2.1-15c3.6-4.7,10.3-5.7,15-2.1c2,1.5,3.4,3.6,4,6
	c0,0.1,0.1,0.3,0.1,0.4C269.9,160.2,269.2,163.3,267.4,165.8z"/>
<path class="st7" d="M270.1,157.3c-0.3-1.3-0.2-0.6-0.4-2c0.1,0.6-0.1,1.3-0.4,1.9l-12.6-1.8l1.1-7.3c3.9-0.9,7.7-1.6,9.5,1.4
	c4,0.6,6.9,4.4,6.3,8.4L270.1,157.3z"/>
<path class="st7" d="M262.7,177.1c0-0.1,0-0.3,0-0.4c0-1-0.2-2-0.4-3c-0.2-1.1-0.4-2.2-0.7-3.2c0.2,1.9-0.2,3.9-1.2,5.5
	c-1.9-2-0.6-4.8-3.4-5.2c-6.7-1-12.1-8.2-11.2-14.8c1-6.7,4.6-11.3,11.3-10.3c6.7,1,11.7,4.8,10.8,11.5
	C259.4,157.8,264.4,176.6,262.7,177.1z"/>
<circle class="st7" cx="248" cy="147.2" r="4.5"/>
<path class="st7" d="M253.3,143.5c-0.8-1.8-2.6-3.1-4.5-3.4c2.3,1.1,3.4,3.8,2.3,6.1c-0.2,0.5-0.6,1-1,1.5l0.9-0.8
	c0.5,0.4,1.2,0.5,1.8,0.1c0.5-0.4,0.9-1,0.9-1.6C253.7,144.7,253.6,144.1,253.3,143.5z"/>
<path class="st6" d="M310.2,190.8c-2-1-4.5-0.2-5.5,1.8c-0.1,0.2-0.2,0.4-0.3,0.7l-9.3,0.9l-0.8,5.8l13.1-1.5
	c2.2,0.5,4.4-0.9,4.9-3.1C312.8,193.5,311.9,191.6,310.2,190.8L310.2,190.8z"/>
<path class="st8" d="M273.9,203.2c-0.9-0.2-1.7-0.8-2.2-1.6c-1.6-2.8-13.8-14.2-13.7-14.7l-2.5-3.8c0-0.1-0.5-4.2,1.5-6.4
	c0.8-1,2.1-1.5,3.3-1.5c5.4-0.1,18.9,16.9,19.1,18.8l16.1-0.5l5.6-1.6l1.2,7.4l-8.2,3.4C293.7,203.2,282.1,205.2,273.9,203.2z"/>
</svg>
