<?xml version="1.0" encoding="utf-8"?>
<!-- Generator: Adobe Illustrator 24.0.1, SVG Export Plug-In . SVG Version: 6.00 Build 0)  -->
<svg version="1.1" id="Layer_1" xmlns="http://www.w3.org/2000/svg" xmlns:xlink="http://www.w3.org/1999/xlink" x="0px" y="0px"
	 viewBox="0 0 1300 400" style="enable-background:new 0 0 1300 400;" xml:space="preserve">
<style type="text/css">
	.st0{fill:url(#SVGID_1_);stroke:#000000;stroke-width:1.6452;stroke-miterlimit:10;}
	.st1{fill:#3F3D56;}
	.st2{fill:#E6E8EC;}
	.st3{fill:#63C7FF;}
	.st4{opacity:0.3;fill:#FFFFFF;enable-background:new    ;}
	.st5{fill:#FFFFFF;}
	.st6{fill:#FFB8B8;}
	.st7{fill:#2F2E41;}
	.st8{fill:#F2F2F2;}
</style>
<linearGradient id="SVGID_1_" gradientUnits="userSpaceOnUse" x1="0" y1="-970" x2="1300" y2="-970" gradientTransform="matrix(1 0 0 -1 0 -770)">
	<stop  offset="0" style="stop-color:#007194"/>
	<stop  offset="1" style="stop-color:#41C1C9"/>
</linearGradient>
<rect class="st0" width="1300" height="400"/>
<path class="st1" d="M349.1,336.3c-11.4-1.8-22.4-3.3-32.9-4.6l4.1-8.1c-1.4-0.5-7.5,4.2-7.5,4.2l5.2-23.4
	c-7,0.9-10.3,24.9-10.3,24.9l-8-8l3.9,9c-32.2-3.4-60-4.4-83.4-4.2l3.5-6.9c-1.4-0.5-7.5,4.2-7.5,4.2l5.2-23.4
	c-7,0.9-10.3,24.9-10.3,24.9l-8-8l4.2,9.6c-16,0.5-32,1.8-47.8,3.9c3.5-10.8,15.5-21.1,15.5-21.1c-9.3,2.9-14.1,7.6-16.6,12
	c-0.5-22.2,2.9-44.2,10.1-65.2c0,0-18.8,42.2-15.9,70.3l0.4,5c-16.3,2.5-24.5,5.1-24.5,5.1H349.1z"/>
<path class="st1" d="M392.1,278.2c-3.1,0-5.6-2.5-5.6-5.6c0-3.1,2.5-5.6,5.6-5.6c3.1,0,5.6,2.5,5.6,5.6
	C397.7,275.7,395.2,278.2,392.1,278.2z M392.1,267.9c-2.6,0-4.7,2.1-4.7,4.7c0,2.6,2.1,4.7,4.7,4.7s4.7-2.1,4.7-4.7
	C396.8,270,394.7,267.9,392.1,267.9z"/>
<path class="st1" d="M437,335.6h-9.3v-9.3h9.3V335.6z M428.5,334.8h7.8V327h-7.8V334.8z"/>
<path class="st1" d="M123.6,336.1l-6.3-6.8l6.8-6.3l6.3,6.8L123.6,336.1z M118.3,329.3l5.3,5.7l5.7-5.3L124,324L118.3,329.3z"/>
<rect x="57.7" y="335" class="st1" width="402.2" height="0.9"/>
<path class="st1" d="M307.1,126.4v30.8c0,0.6-0.5,1.1-1.1,1.1h-0.8v160.4c0,9.2-7.5,16.7-16.7,16.7H188.3c-9.2,0-16.7-7.5-16.7-16.7
	c0,0,0,0,0,0V163.9H171c-0.4,0-0.8-0.3-0.8-0.8v-17.5c0-0.4,0.3-0.8,0.8-0.8c0,0,0,0,0,0h0.6v-6.6H171c-0.4,0-0.8-0.4-0.8-0.8v-17.3
	c0-0.4,0.4-0.8,0.8-0.8h0.6v-9H171c-0.4,0-0.7-0.3-0.7-0.7c0,0,0,0,0,0v-9.4c0-0.4,0.3-0.7,0.7-0.7h0.6V80.4
	c0-9.2,7.5-16.7,16.7-16.7h100.2c9.2,0,16.7,7.5,16.7,16.7v44.9h0.8C306.6,125.4,307.1,125.8,307.1,126.4z"/>
<path class="st2" d="M226.9,72.3h16.3c0.7,0,1.2,0.5,1.2,1.2v1.4c0,0.7-0.5,1.2-1.2,1.2h-16.3c-0.7,0-1.2-0.5-1.2-1.2v-1.4
	C225.8,72.8,226.3,72.3,226.9,72.3z"/>
<circle class="st2" cx="249.4" cy="74.2" r="2.2"/>
<path class="st3" d="M297.3,83.7v236.4c0,3.1-1.4,6.1-3.7,8.1c-1.9,1.6-4.4,2.5-6.9,2.5h-96c-1.7,0-3.4-0.4-4.9-1.2
	c-0.4-0.2-0.7-0.4-1-0.6c-2.9-2-4.7-5.3-4.7-8.8V83.7c0-5.9,4.8-10.6,10.6-10.6c0,0,0,0,0,0H205V75c0,4.8,3.9,8.7,8.7,8.7h48.8
	c4.8,0,8.7-3.9,8.7-8.7v-1.8h15.3C292.5,73.1,297.3,77.9,297.3,83.7C297.3,83.7,297.3,83.7,297.3,83.7z"/>
<path class="st4" d="M297.3,286.3v33.8c0,3.1-1.4,6.1-3.7,8.1c-1.9,1.6-4.4,2.5-6.9,2.5h-96c-1.7,0-3.4-0.4-4.9-1.2
	c-0.4-0.2-0.7-0.4-1-0.6c-2.9-2-4.7-5.3-4.7-8.8v-33.8C213.4,256.3,263.9,256.3,297.3,286.3z"/>
<path class="st4" d="M291.5,329.5c-1.5,0.8-3.2,1.2-4.9,1.2h-96c-1.7,0-3.4-0.4-4.9-1.2c12.1-29.2,45.7-43,74.9-30.9
	C274.6,304.4,285.7,315.6,291.5,329.5L291.5,329.5z"/>
<path class="st4" d="M270.7,330.1c-0.9,0.5-1.9,0.7-3,0.7h-58.1c-1,0-2.1-0.2-3-0.7c7.3-17.7,27.6-26,45.3-18.7
	C260.4,314.9,267.1,321.6,270.7,330.1z"/>
<path class="st5" d="M263.1,164.6c-9.6,0-20.2-1.8-28.4-8c-11.5-8.6-25.6-8.2-35.5-6.2c-6.5,1.3-12.9,3.4-18.9,6.3l-0.4-0.8
	c6.1-2.9,12.5-5.1,19.1-6.4c10-1.9,24.5-2.4,36.2,6.4c22,16.5,61.5,1.7,61.9,1.5l0.3,0.9c-7.4,2.6-15.1,4.5-22.8,5.6
	C270.8,164.4,266.9,164.6,263.1,164.6z"/>
<path class="st4" d="M180,156.2c0,0,32.4-7.8,54.9,2.9c22.5,10.7,62.4-0.1,62.4-0.1"/>
<path class="st4" d="M210.6,168.4c-3.9,0-7.8-0.4-11.6-1.2c-6.6-1.3-13-3.4-19.1-6.4l0.4-0.8c6,2.9,12.3,5,18.9,6.3
	c9.8,1.9,24,2.4,35.5-6.2c11.8-8.8,28.2-8.8,40-7.2c7.8,1.1,15.4,2.9,22.8,5.6l-0.3,0.9c-0.4-0.2-39.9-15-61.9,1.5
	C227.5,166.6,218.6,168.4,210.6,168.4z"/>
<path class="st4" d="M210.8,164.6c-16.2,0-30.7-5.8-30.9-5.9l0.4-0.9c0.3,0.1,32.4,13.1,54.4,0c22.4-13.3,62.3-1.4,62.7-1.3
	l-0.3,0.9c-0.4-0.1-39.9-11.9-62,1.2C227.6,163.2,219,164.6,210.8,164.6z"/>
<path class="st4" d="M180.1,157.6c0,0,32.3,10.7,54.9,0c22.5-10.7,62.3-1,62.3-1"/>
<path class="st6" d="M305.6,186.3v13.7c0,0,1.1,15.3,7.1,23c0,0,9.8,13.9,11.2,10.9l-1.7-9.9l-5.7-5.4l-3-17l-0.8-15.3L305.6,186.3z
	"/>
<polygon class="st6" points="366,309.8 366,320 357.8,323 357.8,311.2 "/>
<polygon class="st6" points="349.3,308.8 354.8,321.1 347.2,324.3 345.5,312.3 "/>
<path class="st7" d="M363,214.4c0,0,10.9,98.7,6.8,99c-4.1,0.3-12,5.5-12,1.9s-6.3-49.8-6.3-49.8l-6-23.8v32.8l6.3,37.2
	c0,0-6,7.9-10.4,3.3l-9.3-36.4c0,0-12.3-55.2-11.8-59.6C320.4,219.1,348.5,195,363,214.4z"/>
<path class="st7" d="M360.8,320.5c0,0,2.2-4.6,7.1-1.6l4.1,4.9c0,0,10.6,8.8,3.1,10.6c-7.7,1.9-12.4-0.1-12.4-0.1s-1.4-0.8-2.5-0.8
	s-3.6-1.9-3.6-2.5c0-0.5,0.8-10.2,0.8-10.2c0.6-0.3,1.4-0.2,1.9,0.3C360.3,321.9,360.8,320.5,360.8,320.5z"/>
<path class="st7" d="M344.7,318.9c0,0,5.2-4.1,7.7,0.5c0,0,1.5,0.5,1.7,0c0.2-0.5,1.5-0.8,1.5,2.2c0,3,1.5,10.5,0.1,10.8
	c-1.4,0.3-2.7,1.1-2.5,2.2c0.3,1.1-1.5,1.2-7.8,1c-6.3-0.3-6.6-2.7-6.6-2.7s0-3.6,1.6-5.5C342.2,325.4,344.7,318.9,344.7,318.9z"/>
<path class="st6" d="M334.6,139.8c0,0-1.4,10.1,7.4,13.7c8.7,3.6-19.4,15.3-22.1,8.5c-2.7-6.8,0.5-9,0.5-9s2.7-2.7,0.3-10.1
	L334.6,139.8z"/>
<circle class="st6" cx="325.8" cy="134.9" r="12"/>
<path class="st8" d="M339.8,156.7c0,0-8.2,4.4-16.1,1.1s-7.7,10.9-7.7,10.9l4.1,10.7l28.4-2.7l-1.9-16.4L339.8,156.7z"/>
<path class="st1" d="M335.7,147.4c2.9,0.6,5.5,2.6,6.8,5.3l13.1,4.1l3.3,4.6l-3.8,33.6c0,0,7.1,6.8,7.1,10.7s8.7,17,4.4,15.3
	c-4.4-1.6-12.3-7.4-12.3-7.4s-20,0.8-26.2,6.3c-6.3,5.5-8.7,3.8-8.7,3.8s-6.6-28.4-6.8-32.8c-0.3-4.4-7.9-30.6-7.9-30.6l13.7-7.7
	l3.5-4l9.6,15.4l8.7-10.7C340.1,153.5,335.7,150.1,335.7,147.4z"/>
<path class="st6" d="M363,182.4l1.6,8.7c0,0,7.4,27.3,6.3,36.6c0,0,0.8,20.8-3.8,18.3c-4.6-2.5-2.2-17.5-2.2-17.5l-6.6-27.1
	l-3.6-15.9L363,182.4z"/>
<path class="st1" d="M356.2,159.8l2.7,1.6c0,0,10.4,21.6,7.9,23.2c-2.5,1.6-13.1,5.2-13.1,5.2L356.2,159.8z"/>
<polygon class="st1" points="311.1,160.3 304.6,160.2 303.1,162.8 305.1,189.3 314.9,191.5 "/>
<path class="st7" d="M335.6,124.7l2.2-0.8c0,0-4.5-4.5-10.8-4.1l1.8-1.8c0,0-4.3-1.6-8.3,2.6c-2.1,2.2-4.5,4.7-6,7.6h-2.3l1,1.9
	l-3.4,1.9l3.5-0.3c-0.3,1.7-0.2,3.4,0.3,5l0.8,2.2c0,0,3.2-6.3,3.2-7.1v2c0,0,2.2-1.8,2.2-3l1.2,1.4l0.6-2.2l7.3,2.2l-1.2-1.8
	l4.5,0.6l-1.8-2.2c0,0,5.1,2.6,5.3,4.7c0.2,2.2,1.6,5,1.6,5l1.6-1.9C338.8,136.7,341.3,127.7,335.6,124.7z"/>
<ellipse class="st6" cx="335.9" cy="135" rx="1" ry="2.5"/>
<path class="st1" d="M67.1,320.2c5.8,10.8,18.2,15.4,18.2,15.4s2.9-12.9-2.9-23.7c-5.8-10.8-18.2-15.4-18.2-15.4
	S61.3,309.4,67.1,320.2z"/>
<path class="st3" d="M71.1,316.6c10.5,6.3,14.6,18.9,14.6,18.9s-13,2.3-23.5-4s-14.6-18.9-14.6-18.9S60.6,310.3,71.1,316.6z"/>
<path class="st4" d="M180.1,156.2c0,0,32.3-16.9,54.9,0s62.3,1.6,62.3,1.6"/>
<circle class="st5" cx="238.8" cy="322.9" r="5.2"/>
</svg>
