<?xml version="1.0" encoding="utf-8"?>
<!-- Generator: Adobe Illustrator 24.0.1, SVG Export Plug-In . SVG Version: 6.00 Build 0)  -->
<svg version="1.1" id="Layer_1" xmlns="http://www.w3.org/2000/svg" xmlns:xlink="http://www.w3.org/1999/xlink" x="0px" y="0px"
	 viewBox="0 0 1300 400" style="enable-background:new 0 0 1300 400;" xml:space="preserve">
<style type="text/css">
	.st0{fill:url(#SVGID_1_);stroke:#000000;stroke-width:1.6452;stroke-miterlimit:10;}
	.st1{fill:#0D8CD8;}
	.st2{fill:#3F3D56;}
	.st3{opacity:0.2;enable-background:new    ;}
	.st4{fill:#D0CDE1;}
	.st5{fill:#2F2E41;}
	.st6{fill:#FFB9B9;}
</style>
<linearGradient id="SVGID_1_" gradientUnits="userSpaceOnUse" x1="0" y1="592" x2="1300" y2="592" gradientTransform="matrix(1 0 0 1 0 -392)">
	<stop  offset="0" style="stop-color:#007194"/>
	<stop  offset="1" style="stop-color:#41C1C9"/>
</linearGradient>
<rect y="0" class="st0" width="1300" height="400"/>
<path class="st1" d="M149.1,284.8c-0.4,0-0.8,0.1-1.1,0.4c-0.9-2.4-2.3-3.9-3.8-3.9c-1.6,0-2.9,1.5-3.8,3.9
	c-0.3-0.2-0.7-0.4-1.1-0.4c-1.8,0-3.2,3-3.2,6.7h16.2C152.3,287.8,150.8,284.8,149.1,284.8z"/>
<rect x="131.3" y="291.1" class="st2" width="82.2" height="0.7"/>
<path class="st1" d="M441.4,269.1c-0.4,0-0.8,0.1-1.1,0.4c-0.9-2.4-2.3-3.9-3.8-3.9s-2.9,1.5-3.8,3.9c-0.3-0.2-0.7-0.4-1.1-0.4
	c-1.8,0-3.2,3-3.2,6.7h16.2C444.6,272.1,443.2,269.1,441.4,269.1z"/>
<path class="st2" d="M406.5,146h-78.3v-1.6h-35.5v1.6h-78.6c-2.9,0-5.3,2.4-5.3,5.3l0,0v107.2c0,2.9,2.4,5.3,5.3,5.3l0,0h192.5
	c2.9,0,5.3-2.4,5.3-5.3l0,0V151.3C411.8,148.4,409.4,146,406.5,146L406.5,146z"/>
<rect x="215.8" y="155.4" class="st3" width="188.9" height="106.5"/>
<circle class="st1" cx="310.1" cy="150.5" r="1.9"/>
<rect x="172.9" y="275" class="st2" width="274" height="0.7"/>
<path class="st1" d="M336.1,195.2v-7.9c0-5.3-4.3-9.7-9.7-9.7l0,0h-7.9c0-1.1-3.4-1.9-7.8-2v-9.5c3-0.4,5.1-3.1,4.7-6
	c-0.4-3-3.1-5.1-6-4.7c-3,0.4-5.1,3.1-4.7,6c0.3,2.4,2.2,4.4,4.7,4.7v9.5c-4.3,0.1-7.8,1-7.8,2h-9.2c-5.3,0-9.7,4.3-9.7,9.7l0,0v7.9
	c-1.1,0-2,3.8-2,8.4s0.9,8.4,2,8.4v9.2c0,5.3,4.3,9.7,9.7,9.7l0,0h34c5.3,0,9.7-4.3,9.7-9.7l0,0V212c1.1,0,2-3.8,2-8.4
	S337.2,195.2,336.1,195.2z"/>
<path class="st2" d="M294.3,180.7h30.1c4.7,0,8.6,3.8,8.6,8.6l0,0v30.1c0,4.7-3.8,8.6-8.6,8.6l0,0h-30.1c-4.7,0-8.6-3.8-8.6-8.6l0,0
	v-30.1C285.8,184.5,289.6,180.7,294.3,180.7z"/>
<path class="st1" d="M298.6,203.1c-3.4,0-6.1-2.7-6.1-6.1c0-0.2,0.2-0.3,0.3-0.3s0.3,0.2,0.3,0.3c0,3,2.4,5.4,5.4,5.4
	s5.4-2.4,5.4-5.4l0,0c0-0.2,0.2-0.3,0.3-0.3c0.2,0,0.3,0.2,0.3,0.3C304.7,200.4,301.9,203.1,298.6,203.1z"/>
<path class="st1" d="M309.4,214.6c-2.6,0-4.7-2.1-4.7-4.7c0-0.2,0.2-0.3,0.3-0.3s0.3,0.2,0.3,0.3c0,2.2,1.8,4.1,4.1,4.1
	c2.2,0,4.1-1.8,4.1-4.1c0-0.2,0.1-0.3,0.3-0.3c0.2,0,0.3,0.1,0.3,0.3l0,0C314.1,212.5,312,214.6,309.4,214.6z"/>
<path class="st1" d="M320.2,203.1c-3.4,0-6.1-2.7-6.1-6.1c0-0.2,0.2-0.3,0.3-0.3s0.3,0.2,0.3,0.3c0,3,2.4,5.4,5.4,5.4
	s5.4-2.4,5.4-5.4l0,0c0-0.2,0.2-0.3,0.3-0.3c0.2,0,0.3,0.2,0.3,0.3C326.3,200.4,323.6,203.1,320.2,203.1z"/>
<circle class="st1" cx="298.6" cy="197.4" r="3"/>
<circle class="st1" cx="320.2" cy="197.4" r="3"/>
<ellipse class="st1" cx="309.4" cy="211.5" rx="2.7" ry="1.4"/>
<path class="st2" d="M417.1,260h-18.4v-1.4c0-0.1-0.1-0.3-0.3-0.3l0,0h-6.3c-0.1,0-0.3,0.1-0.3,0.3l0,0v1.3h-3.9v-1.3
	c0-0.1-0.1-0.3-0.3-0.3h-6.3c-0.1,0-0.3,0.1-0.3,0.3l0,0v1.3h-3.9v-1.3c0-0.1-0.1-0.3-0.3-0.3l0,0h-6.3c-0.1,0-0.3,0.1-0.3,0.3l0,0
	v1.3h-3.9v-1.3c0-0.1-0.1-0.3-0.3-0.3l0,0h-6.3c-0.1,0-0.3,0.1-0.3,0.3l0,0v1.3h-3.9v-1.3c0-0.1-0.1-0.3-0.3-0.3l0,0h-6.3
	c-0.1,0-0.3,0.1-0.3,0.3l0,0v1.3h-3.9v-1.3c0-0.1-0.1-0.3-0.3-0.3l0,0h-6.3c-0.1,0-0.3,0.1-0.3,0.3l0,0v1.3h-3.9v-1.3
	c0-0.1-0.1-0.3-0.3-0.3l0,0h-49.5c-0.1,0-0.3,0.1-0.3,0.3l0,0v1.3h-3.9v-1.3c0-0.1-0.1-0.3-0.3-0.3l0,0h-6.3c-0.1,0-0.3,0.1-0.3,0.3
	v1.3h-3.9v-1.3c0-0.1-0.1-0.3-0.3-0.3l0,0h-6.3c-0.1,0-0.3,0.1-0.3,0.3l0,0v1.3h-3.9v-1.3c0-0.1-0.1-0.3-0.3-0.3l0,0h-6.3
	c-0.1,0-0.3,0.1-0.3,0.3l0,0v1.3h-3.9v-1.3c0-0.1-0.1-0.3-0.3-0.3l0,0h-6.3c-0.1,0-0.3,0.1-0.3,0.3l0,0v1.3h-3.9v-1.3
	c0-0.1-0.1-0.3-0.3-0.3l0,0h-6.3c-0.1,0-0.3,0.1-0.3,0.3l0,0v1.3h-3.9v-1.3c0-0.1-0.1-0.3-0.3-0.3l0,0h-6.3c-0.1,0-0.3,0.1-0.3,0.3
	l0,0v1.3h-12.1c-3.5,0-6.3,2.8-6.3,6.3l0,0v2.9c0,3.5,2.8,6.3,6.3,6.3H417c3.5,0,6.3-2.8,6.3-6.3v-2.9
	C423.4,262.8,420.6,260,417.1,260L417.1,260z"/>
<rect x="244.7" y="230.5" class="st1" width="126" height="0.7"/>
<path class="st4" d="M253.7,230.2h-31c1-11.7,1-23.4,0-35.1h31C252,207.1,251.9,218.8,253.7,230.2z"/>
<rect x="227.1" y="202.1" class="st2" width="22.4" height="1.5"/>
<rect x="227.1" y="207" class="st2" width="22.4" height="1.5"/>
<rect x="227.1" y="211.8" class="st2" width="22.4" height="1.5"/>
<rect x="227.1" y="216.7" class="st2" width="22.4" height="1.5"/>
<rect x="227.1" y="221.6" class="st2" width="22.4" height="1.5"/>
<path class="st5" d="M171.2,112.9c0,0-4.9-1.7-8,5.2c-3.1,7-8,14.6-8,14.6l2.8,0.7c0,0,0.7-4.9,2.4-5.6l-0.7,6.3
	c0,0,20.9,7.3,30.3-0.7l-0.3-2.4c0,0,1.4,0.3,1.4,2.4l1-1c0,0-1-2.1-4.2-4.9c-2.1-1.8-2.8-5.3-3-7.5c-0.2-1.8-0.9-3.5-2.1-4.9
	C180.8,112.7,177,110.1,171.2,112.9z"/>
<polygon class="st6" points="157.2,266.5 158.7,275.1 164.7,274 165.8,266.5 "/>
<path class="st5" d="M165.8,271.3l-8.2,0.7l0.4,6.7l-0.4,8.6c0,0-4.9,9.7,2.2,9s6.4-4.5,6.4-4.5l1.9-2.2L167,284L165.8,271.3z"/>
<polygon class="st6" points="190.8,266.5 189.3,275.1 183.3,274 182.2,266.5 "/>
<path class="st5" d="M182.2,271.3l8.2,0.7l-0.4,6.7l0.4,8.6c0,0,4.9,9.7-2.2,9s-6.4-4.5-6.4-4.5l-1.9-2.2l1.1-5.6L182.2,271.3z"/>
<circle class="st6" cx="173.6" cy="127.4" r="8.6"/>
<path class="st6" d="M168,131.9l1.1,13.5l10.5-0.4c0,0-3-8.6-1.1-12L168,131.9z"/>
<path class="st5" d="M174,142.7l4.3-2.7l4.7,2.3l7.5,3.4l-2.6,31.8c0,0,6,19.8,4.9,29.5s12.3,58.3,1.5,60.6s-18.7,4.5-19.1,0.7
	c-0.4-3.8-1.1-60.9-1.1-60.9s-1.1,60.6-5.6,61.3c-4.5,0.7-23.9,3.7-22.4-0.7s11.6-83,16.4-87.5l0.7-3.7l-6.4-30.3l11.9-5.9
	L174,142.7z"/>
<path class="st6" d="M151.6,189.1l-0.4,15.3c0,0-3.6,15.1,2.5,15s1.6-15,1.6-15l2.6-15L151.6,189.1z"/>
<path class="st6" d="M208.1,173l10.5,11.2c0,0,12.8,8.9,8.2,12.9S215.6,187,215.6,187l-11.9-9.4L208.1,173z"/>
<polygon class="st4" points="162.6,179.6 188.2,178.8 187.9,177 187.9,177 163.1,176.6 "/>
<circle class="st5" cx="167.8" cy="178.1" r="2.2"/>
<path class="st5" d="M159.8,146.9l-2.4-0.6c0,0-3.2,1.3-3.9,5.4s-10.5,36.3-5.6,38.1s12,2.6,12,1.9s3-28.8,3-28.8L159.8,146.9z"/>
<path class="st5" d="M182.7,148.3l7.8-2.5c0,0,3.7,0,3.7,4.1c0,1.7,7.2,15.6,7.2,15.6s17.2,12.3,14.6,12.7c-4.5,0.7-7.1,8.6-7.1,8.6
	l-16.8-15L182.7,148.3z"/>
<path class="st5" d="M163.1,128.1c0,0,2.8-3.8,5.2-4.5s2.8-4.2,2.8-4.2s6.3,7,10.1,7.3s0.3-8.4,0.3-8.4l-7-1.7l-6.6,0.7l-5.2,3.5
	L163.1,128.1z"/>
<ellipse class="st6" cx="165.2" cy="126.1" rx="1.1" ry="1.7"/>
</svg>
