<?xml version="1.0" encoding="utf-8"?>
<!-- Generator: Adobe Illustrator 24.0.1, SVG Export Plug-In . SVG Version: 6.00 Build 0)  -->
<svg version="1.1" id="Layer_1" xmlns="http://www.w3.org/2000/svg" xmlns:xlink="http://www.w3.org/1999/xlink" x="0px" y="0px"
	 viewBox="0 0 1300 400" style="enable-background:new 0 0 1300 400;" xml:space="preserve">
<style type="text/css">
	.st0{fill:url(#SVGID_1_);stroke:#000000;stroke-width:1.6452;stroke-miterlimit:10;}
	.st1{fill:#F2F2F2;}
	.st2{fill:#3F3D56;}
	.st3{fill:none;stroke:#3F3D56;stroke-width:4;stroke-miterlimit:10;}
	.st4{fill:#57B793;}
	.st5{opacity:0.1;enable-background:new    ;}
	.st6{fill:#656380;}
	.st7{opacity:0.2;enable-background:new    ;}
	.st8{fill:#63C7FF;}
	.st9{opacity:5.000000e-02;enable-background:new    ;}
	.st10{fill:#FFC0C6;}
	.st11{fill:#605D82;}
	.st12{fill:#535070;}
</style>
<linearGradient id="SVGID_1_" gradientUnits="userSpaceOnUse" x1="9.094947e-13" y1="982" x2="1300" y2="982" gradientTransform="matrix(1 0 0 1 0 -782)">
	<stop  offset="0" style="stop-color:#007194"/>
	<stop  offset="1" style="stop-color:#41C1C9"/>
</linearGradient>
<rect x="0" class="st0" width="1300" height="400"/>
<path class="st1" d="M353.1,239.5l2.8-1.7c0.3-0.2,0.5-0.3,0.8-0.5c-12.4-2.1-21.6-12.6-22.2-25.1c-0.2-4.2,0.6-8.4,2.3-12.2
	c3.3-7.2,9.5-12.7,17.2-14.8l-0.1,11l6.1-12c0,0,0.1,0,0.1,0c14.8-0.7,27.3,10.7,28,25.5c0,0,0,0,0,0c0,0.5,0,1,0,1.5
	c2.1-2.4,4-5,5.3-7.8c2.6-5.7,2.6-12.2,2.4-20.1c-0.4-15.6-1.1-31.3-2-47c-13.1-1.5-23.2-12.2-23.8-25.3c0-0.8,0-1.6,0-2.4
	c0-0.2,0-0.4,0-0.6c0.1-0.8,0.1-1.5,0.2-2.3c0-0.1,0-0.2,0.1-0.4c0.1-0.6,0.2-1.3,0.4-1.9c0.1-0.2,0.1-0.5,0.2-0.7
	c0.2-0.7,0.4-1.4,0.6-2c0.1-0.2,0.2-0.4,0.3-0.7c0.2-0.5,0.4-1,0.6-1.4c0.1-0.3,0.2-0.5,0.4-0.8c0-0.1,0.1-0.1,0.1-0.2l0,0
	c5.8-11.5,19.1-17.2,31.4-13.6l-0.2,14.4l6-11.9c10.1,5.8,15.3,17.5,12.8,28.8h0c0,0.2-0.1,0.4-0.1,0.6c-0.1,0.4-0.2,0.7-0.3,1.1
	c-0.1,0.4-0.3,0.9-0.4,1.3c-0.1,0.3-0.2,0.7-0.3,1c-0.2,0.5-0.4,0.9-0.6,1.4c-0.1,0.3-0.2,0.5-0.4,0.8c-0.3,0.7-0.7,1.4-1.1,2
	c-0.1,0.2-0.3,0.4-0.4,0.7c-0.3,0.4-0.6,0.9-0.9,1.3c-0.2,0.3-0.4,0.5-0.6,0.8c-0.3,0.4-0.6,0.8-0.9,1.1c-0.2,0.3-0.4,0.5-0.7,0.8
	c-0.3,0.3-0.7,0.7-1,1c-0.2,0.2-0.5,0.4-0.7,0.7c-0.4,0.3-0.8,0.7-1.2,1c-0.2,0.2-0.4,0.3-0.6,0.5c-0.6,0.5-1.3,0.9-2,1.3
	c-0.1,0.1-0.3,0.1-0.4,0.2c-0.6,0.3-1.1,0.6-1.7,0.9c-0.3,0.1-0.5,0.2-0.8,0.3c-0.5,0.2-1,0.4-1.5,0.6c-0.3,0.1-0.6,0.2-0.9,0.3
	c-0.5,0.2-1,0.3-1.5,0.5c-0.3,0.1-0.6,0.2-0.9,0.2c-0.5,0.1-1.1,0.2-1.7,0.3c0,0-0.1,0-0.1,0c0.4,6.6,0.7,13.2,1,19.9
	c6.5-13.3,22.5-18.8,35.8-12.3c0.5,0.2,0.9,0.5,1.4,0.7l-4.7,13l9.7-9.3c5.2,4.8,8.3,11.4,8.6,18.5c0.1,2.5-0.1,5-0.7,7.4
	c-3.4,14.4-17.8,23.3-32.2,20c-7.2-1.7-13.4-6.3-17.1-12.7c0,0.7,0,1.3,0.1,2c0.2,7,0.4,15.6-3.1,23.3c-2.3,5.2-6.1,9.5-9.9,13.3
	c-2.4,2.5-4.9,4.9-7.5,7.2c-2.5,3.4-5.9,6.2-9.7,8c-4.2,3.3-8.6,6.3-13.2,9.2l-2.8,1.8c-2.5,1.6-5.2,3.2-7.7,4.9
	c0.5,0,0.9-0.1,1.4-0.1c11.6-0.5,22.3,6.5,26.4,17.4l-16.7,13.6l18.4-4.3c0,14.8-12,26.8-26.8,26.8c-4,0-8-0.9-11.6-2.6
	c0.4,0.5,0.8,1,1.2,1.5c0.8,1,1.6,2,2.4,3.1c10.9,13.8,13.9,26.9,8.5,36.9l-6.6-3.5c5.3-9.7-2.6-22.1-7.8-28.7c-0.8-1-1.6-2-2.4-3
	c-7-8.6-14.8-18.4-14.6-30.4C321.4,259.2,339,248.2,353.1,239.5z"/>
<ellipse class="st2" cx="267.6" cy="339" rx="170.9" ry="7.9"/>
<path class="st3" d="M405.7,336.1c1.1-2.1-0.2-4.6-1.6-6.4c-1.5-1.8-3.2-3.8-3.2-6.1c0.1-3.4,3.6-5.4,6.5-7.2
	c2.1-1.3,4.1-2.9,5.8-4.7c0.7-0.7,1.3-1.5,1.8-2.4c0.6-1.3,0.6-2.8,0.5-4.3c-0.1-4.8-0.4-9.6-0.7-14.4"/>
<path class="st4" d="M420.3,290.3c-0.1-1.8-1.1-3.4-2.6-4.3l-1.2,2.3l0-2.8c-2.8-0.8-5.7,0.7-6.5,3.5c-0.2,0.6-0.2,1.2-0.2,1.8
	c0.1,2.9,2.6,5.1,5.5,5C418.2,295.7,420.4,293.2,420.3,290.3L420.3,290.3L420.3,290.3z"/>
<path class="st4" d="M410.9,326c-1.3,2.6-4.5,3.6-7.1,2.3c-2.6-1.3-3.6-4.5-2.3-7.1s4.5-3.6,7.1-2.3c1.2,0.6,2.1,1.6,2.5,2.8
	l-3.3,2.7l3.6-0.8C411.5,324.4,411.3,325.2,410.9,326z"/>
<path class="st4" d="M408.3,315.7c-2.9,0.1-5.4-2.1-5.5-5c0,0,0,0,0,0c0-0.8,0.1-1.6,0.5-2.4c0.6-1.4,1.9-2.5,3.4-2.9l0,2.2l1.2-2.4
	l0,0c2.9-0.1,5.4,2.1,5.5,5C413.4,313.1,411.2,315.6,408.3,315.7L408.3,315.7z"/>
<path class="st4" d="M421.1,307.2c-2.9,0.1-5.4-2.1-5.5-5c-0.1-2.9,2.1-5.4,5-5.5c1,0,2,0.2,2.8,0.7l-0.9,2.6l1.9-1.8
	c1,0.9,1.6,2.2,1.7,3.6c0,0.5,0,1-0.1,1.4C425.4,305.4,423.4,307.1,421.1,307.2z"/>
<path class="st5" d="M419.6,291.7c-1.2,0.1-2.4,0.5-3.6,0.6s-2.6-0.2-3.3-1.2c-0.4-0.5-0.6-1.2-1-1.7c-0.3-0.5-0.8-0.9-1.3-1.2
	c-1.3,2.6-0.1,5.8,2.5,7c2.6,1.3,5.8,0.1,7-2.5c0.2-0.3,0.3-0.7,0.4-1C420,291.7,419.8,291.7,419.6,291.7z"/>
<path class="st5" d="M421.1,307.2c-2.9,0.1-5.4-2.1-5.5-5c0-0.9,0.1-1.7,0.5-2.5c0.4,0.3,0.8,0.6,1.1,1.1c0.4,0.6,0.6,1.2,1,1.7
	c0.8,1,2.2,1.3,3.5,1.2c1.3-0.1,2.5-0.4,3.8-0.5c0.2,0,0.4,0,0.5,0C425.4,305.4,423.4,307.1,421.1,307.2z"/>
<path class="st5" d="M408.3,315.7c-2.9,0.1-5.4-2.1-5.5-5c0,0,0,0,0,0c0-0.8,0.1-1.6,0.5-2.4c0.4,0.3,0.8,0.6,1.1,1.1
	c0.4,0.6,0.7,1.2,1.1,1.8c0.9,1,2.4,1.3,3.7,1.3c1.3,0,2.6-0.3,3.9-0.4C412.4,314.1,410.5,315.6,408.3,315.7z"/>
<path class="st5" d="M410.9,326c-1.2,2.7-4.3,3.8-7,2.6c-2.7-1.2-3.8-4.3-2.6-7c0.4,0.3,0.8,0.6,1.2,1c0.5,0.6,0.8,1.3,1.4,1.9
	c1.1,1.1,2.8,1.5,4.4,1.5C409.1,326.1,410,326.1,410.9,326z"/>
<path class="st6" d="M397.8,333.7c0,0,4.2-0.1,5.4-1c1.3-0.9,6.4-2,6.7-0.5c0.3,1.4,6.2,7.1,1.6,7.2c-4.7,0-10.9-0.8-12.2-1.5
	C398,337.1,397.8,333.7,397.8,333.7z"/>
<path class="st7" d="M411.5,338.8c-4.7,0-10.9-0.8-12.2-1.5c-0.9-0.6-1.3-2.7-1.5-3.6h-0.1c0,0,0.3,3.4,1.5,4.1
	c1.2,0.8,7.5,1.5,12.2,1.5c1.4,0,1.8-0.5,1.8-1.2C413,338.5,412.5,338.8,411.5,338.8z"/>
<path class="st3" d="M169.6,324.5c-2.7-5,0.4-11.2,3.9-15.7c3.5-4.5,7.9-9.2,7.8-14.9c-0.1-8.2-8.9-13.1-15.9-17.5
	c-5.2-3.2-10-7.1-14.2-11.4c-1.7-1.8-3.4-3.6-4.4-5.9c-1.4-3.2-1.4-6.9-1.3-10.4c0.3-11.8,0.9-23.5,1.7-35.2"/>
<path class="st4" d="M134,212.9c0.2-4.4,2.6-8.3,6.4-10.5l2.9,5.7l-0.1-6.9c6.8-2,13.9,1.9,15.9,8.7c2,6.8-1.9,13.9-8.7,15.9
	c-6.8,2-13.9-1.9-15.9-8.7C134.1,215.7,133.9,214.3,134,212.9L134,212.9z"/>
<path class="st4" d="M156.9,299.8c3.2,6.3,11,8.8,17.3,5.6c4.1-2.1,6.7-6.2,7-10.8c0.1-1.8-0.2-3.6-0.8-5.2
	c-2.6-6.6-10-9.9-16.6-7.4c-3.4,1.3-6.1,4.1-7.4,7.5l8,6.5l-8.8-2.1C155.5,296,156,298,156.9,299.8z"/>
<path class="st4" d="M163.3,274.9c7.1,0.3,13.1-5.2,13.4-12.2c0.3-6-3.6-11.3-9.3-12.9l0.1,5.3l-2.9-5.8h0
	c-7.1-0.3-13.1,5.1-13.4,12.2S156.2,274.5,163.3,274.9L163.3,274.9L163.3,274.9z"/>
<path class="st4" d="M132.1,254.1c7.1,0.3,13.1-5.1,13.5-12.2c0.3-7.1-5.1-13.1-12.2-13.5c-2.4-0.1-4.8,0.4-6.9,1.6l2.3,6.2
	l-4.6-4.5c-2.5,2.3-4,5.5-4.2,8.9c-0.1,1.2,0.1,2.4,0.3,3.5C121.5,249.8,126.3,253.8,132.1,254.1z"/>
<path class="st5" d="M135.7,216.3c3,0.3,5.8,1.2,8.8,1.4s6.2-0.5,8.1-2.8c1-1.2,1.5-2.8,2.4-4.2c0.8-1.3,1.9-2.3,3.2-3
	c3.2,6.3,0.6,14.1-5.7,17.2c-6.3,3.2-14.1,0.6-17.2-5.7c-0.5-1-0.8-2-1.1-3C134.8,216.2,135.3,216.2,135.7,216.3z"/>
<path class="st5" d="M132.1,254.1c7.1,0.3,13.1-5.2,13.4-12.2c0.1-2.1-0.3-4.2-1.2-6.1c-1,0.7-1.9,1.6-2.6,2.6
	c-0.9,1.4-1.5,3-2.5,4.2c-2,2.3-5.4,3.1-8.5,3c-3.1-0.1-6.1-1-9.2-1.3c-0.4,0-0.9-0.1-1.3-0.1C121.5,249.8,126.4,253.8,132.1,254.1z
	"/>
<path class="st5" d="M163.3,274.9c7.1,0.3,13.1-5.1,13.4-12.2c0.1-2-0.3-4-1.1-5.9c-1.1,0.7-2,1.6-2.7,2.6c-1,1.4-1.6,3-2.8,4.3
	c-2.2,2.4-5.8,3.3-9.1,3.2c-3.2-0.1-6.2-0.8-9.4-1.1C153.2,271,157.8,274.6,163.3,274.9z"/>
<path class="st5" d="M156.9,299.8c3.2,6.3,11,8.8,17.3,5.6c4.1-2.1,6.7-6.2,7-10.8c0.1-1.8-0.2-3.6-0.8-5.2c-1.1,0.7-2,1.5-2.8,2.5
	c-1.2,1.5-2,3.2-3.4,4.6c-2.6,2.6-6.9,3.6-10.6,3.8C161.3,300.2,159.1,300,156.9,299.8z"/>
<polygon class="st8" points="258.5,332 208.9,342.1 207.8,342 164.3,337.6 164.3,282.5 217.6,273.5 256.2,278 256.2,278.2 
	256.2,278.3 "/>
<polygon class="st5" points="258.5,332 208.9,342.1 207.8,342 207.8,285.5 256.2,278.2 "/>
<polygon class="st9" points="256.2,278.3 256.2,278.3 207.8,285.5 164.3,282.5 217.6,273.5 256.2,278 256.2,278.2 "/>
<polygon class="st2" points="312.9,334.3 263.4,344.4 262.2,344.3 218.7,339.9 218.7,284.7 272,275.7 310.6,280.2 310.7,280.5 
	310.7,280.6 "/>
<polygon class="st5" points="312.9,334.3 263.4,344.4 262.2,344.3 262.2,287.7 310.7,280.5 "/>
<polygon class="st9" points="310.7,280.6 310.6,280.6 262.2,287.7 218.7,284.7 272,275.7 310.6,280.2 310.7,280.5 "/>
<polygon class="st2" points="278.7,280.2 229.2,290.4 228.1,290.2 184.6,285.9 184.6,230.7 237.8,221.7 276.5,226.2 276.5,226.4 
	276.5,226.5 "/>
<polygon class="st5" points="278.7,280.2 229.2,290.4 228.1,290.2 228.1,233.7 276.5,226.4 "/>
<polygon class="st9" points="276.5,226.5 276.5,226.6 228.1,233.7 184.6,230.7 237.8,221.7 276.5,226.2 276.5,226.4 "/>
<polygon class="st2" points="306.9,282.5 281,287.8 280.5,287.8 257.7,285.5 257.7,256.7 285.5,252 305.7,254.3 305.7,254.5 
	305.7,254.5 "/>
<polygon class="st5" points="306.9,282.5 281,287.8 280.5,287.8 280.5,258.2 305.7,254.5 "/>
<polygon class="st9" points="305.7,254.5 305.7,254.5 280.5,258.2 257.7,256.7 285.5,252 305.7,254.3 305.7,254.5 "/>
<polygon class="st2" points="237.5,226.6 211.6,231.9 211,231.8 188.3,229.6 188.3,200.8 216.1,196.1 236.3,198.4 236.3,198.5 
	236.3,198.6 "/>
<polygon class="st5" points="237.5,226.6 211.6,231.9 211,231.8 211,202.3 236.3,198.5 "/>
<polygon class="st9" points="236.3,198.6 236.3,198.6 211,202.3 188.3,200.8 216.1,196.1 236.3,198.4 236.3,198.5 "/>
<polygon class="st8" points="282.9,225.5 257,230.8 256.4,230.7 233.7,228.4 233.7,199.6 261.5,194.9 281.7,197.3 281.7,197.4 
	281.7,197.5 "/>
<polygon class="st5" points="282.9,225.5 257,230.8 256.4,230.7 256.4,201.2 281.7,197.4 "/>
<polygon class="st9" points="281.7,197.5 281.7,197.5 256.4,201.2 233.7,199.6 261.5,194.9 281.7,197.3 281.7,197.4 "/>
<polygon class="st2" points="296.4,196.6 270.5,201.9 269.9,201.8 247.2,199.5 247.2,170.7 275,166 295.2,168.4 295.2,168.5 
	295.2,168.6 "/>
<polygon class="st5" points="296.4,196.6 270.5,201.9 269.9,201.8 269.9,172.3 295.2,168.5 "/>
<polygon class="st9" points="295.2,168.6 295.2,168.6 269.9,172.3 247.2,170.7 275,166 295.2,168.4 295.2,168.5 "/>
<path class="st10" d="M314,137.7c-0.3,2.4-2.1,4.4-2.8,6.8c-1,3.5,0.8,7.4,3.2,10.1c4,4.5,9.6,7.1,15.6,7.4c0.9,0.1,1.7,0,2.6-0.3
	c0.7-0.3,1.4-0.8,2-1.3c1.8-1.9,2.8-4.4,3.2-7s0.2-5.2,0.1-7.8c0-0.5-0.1-1.1-0.3-1.6c-0.3-0.5-0.6-0.9-1-1.2
	c-1.3-1.2-2.8-2.3-4.4-3.2c-0.7-0.4-1.4-0.8-1.8-1.4c-0.3-0.5-0.5-1.1-0.6-1.7l-0.5-2.5c-0.1-0.7-0.3-1.4-0.7-2
	c-0.9-1.1-2.5-1.3-3.9-1.4l-5.3-0.2c-1.6-0.1-3.8-0.5-5.4-0.2c-1.5,0.3-1,1.7-0.7,2.9C313.7,134.6,313.9,136.2,314,137.7z"/>
<path class="st5" d="M314,137.7c-0.3,2.4-2.1,4.4-2.8,6.8c-1,3.5,0.8,7.4,3.2,10.1c4,4.5,9.6,7.1,15.6,7.4c0.9,0.1,1.7,0,2.6-0.3
	c0.7-0.3,1.4-0.8,2-1.3c1.8-1.9,2.8-4.4,3.2-7s0.2-5.2,0.1-7.8c0-0.5-0.1-1.1-0.3-1.6c-0.3-0.5-0.6-0.9-1-1.2
	c-1.3-1.2-2.8-2.3-4.4-3.2c-0.7-0.4-1.4-0.8-1.8-1.4c-0.3-0.5-0.5-1.1-0.6-1.7l-0.5-2.5c-0.1-0.7-0.3-1.4-0.7-2
	c-0.9-1.1-2.5-1.3-3.9-1.4l-5.3-0.2c-1.6-0.1-3.8-0.5-5.4-0.2c-1.5,0.3-1,1.7-0.7,2.9C313.7,134.6,313.9,136.2,314,137.7z"/>
<path class="st11" d="M347.4,247.6l-2.2,24.4c-0.6,6.4-1.2,12.8-2.3,19.2c-0.4,2.2-0.9,4.3-1.4,6.5c-1.5,6-3.7,11.8-4.4,17.9
	c0,0.2,0,0.4-0.1,0.5c-0.1,1.4-0.3,2.7-0.8,4c-0.4,0.9-0.9,1.8-1.3,2.7c-0.8,1.8-0.9,3.9-1,5.9c-2.7-1.5-5.7-2.5-8.7-3
	c-1.5-0.2-3.1-0.4-4.1-1.5c-1.1-1.2-1-3.1-0.8-4.7c0.6-5.1,1.2-10.2,1.8-15.3c0.2-2.2,0.6-4.4,1.1-6.5c0.2-0.7,0.4-1.4,0.7-2.1
	c0.3-1,0.7-1.9,0.9-2.9c0.4-1.6,0.6-3.2,0.7-4.8c0.6-5.1,1.3-10.3,2-15.4l0-0.3c1-7.8,1.7-15.6,1.5-23.4c0-1.2-0.1-2.3-0.2-3.5
	c-0.1-1.7-0.3-2.6,1.1-3.6c1.5-1.2,3.6-2,5.3-2.7c0.9-0.4,11.4-4.1,11.6-3.3c0.5,1.7,0.7,3.5,0.8,5.3
	C347.7,243.2,347.6,245.4,347.4,247.6z"/>
<path class="st5" d="M342.8,291.2c-0.4,2.2-0.9,4.3-1.4,6.5c-1.5,6-3.7,11.8-4.4,17.9c0,0.2,0,0.4-0.1,0.5
	c-4.7-6.7-8.6-13.8-13.1-20.5c0.3-1,0.7-1.9,0.9-2.9c0.4-1.6,0.6-3.2,0.8-4.8c0.6-5.1,1.3-10.3,2-15.4l0-0.3
	c0.3,1.1,0.6,2.1,1.1,3.2c3.1,6.2,10.3,9.3,13.9,15.3C342.6,290.8,342.7,291,342.8,291.2z"/>
<path class="st11" d="M305,236.6c0.2,5,0.9,9.9,1.7,14.8l1.6,10.1c0.9,5.6,1.8,11.2,4.5,16.2c2,3.7,4.8,6.9,7.4,10.2
	c6.3,8.2,11,17.5,17,25.9c1.7,2.5,4.2,5.1,7.2,4.6c1.9-0.3,3.4-2,4.9-3.2c1.8-1.5,4-2.5,5.4-4.4c1.4-1.8,1.7-4.9-0.2-6.2
	c-0.7-0.4-1.5-0.6-2.2-0.9c-3-1.1-4.9-4-6.1-7c-1.2-2.9-2-6.1-3.6-8.8c-3.6-5.9-10.8-9.1-13.9-15.3c-1.7-3.5-1.9-7.5-2-11.4
	l-0.3-9.9c0-1.1-0.1-2.2,0.4-3.2c1.2-2.6,4.7-2.9,7.6-3.2c3.2-0.4,6.4-1.4,9.3-2.9c1.6-0.9,3.3-2,4.1-3.7c0.8-1.5,0.9-3.3,1-5
	l1-17.9c0.1-1.5,0.2-3.1-0.4-4.6c-1.4-3.6-5.9-4.8-9.8-4.6c-7.2,0.3-13.8,3.4-20.6,5.5c-1.7,0.5-3.4,1-5.1,1.3
	c-1.5,0.3-3.4,0.2-4.8,0.7c-2.6,0.9-2.5,6.5-2.9,8.9C305.2,227.4,304.9,232,305,236.6z"/>
<path class="st12" d="M343.4,319.3c0.6,0.6,0.8,1.6,1,2.5c0.9,4.9,1.4,9.9,1.4,14.9c0,0.5,0.1,0.9,0.3,1.4c0.2,0.2,0.4,0.4,0.7,0.6
	c1.8,0.9,4-0.3,5.5-1.7c2.8-2.5,5.2-5.8,5.4-9.6c0-1-0.1-1.9,0.1-2.9c0.2-1.4,1.1-2.7,1.8-3.9c1.2-2.1,2.3-4.4,3-6.7
	c0.3-0.9,0.5-2-0.2-2.6c-0.2-0.2-0.5-0.3-0.8-0.4l-8.3-3.1c-0.7-0.3-2.5,4.3-2.8,4.8c-0.7,1.2-1.4,1.9-2.8,2.2
	c-1.4,0.3-3.1-0.1-4.4,0.6C341,316.6,342.1,318,343.4,319.3z"/>
<path class="st12" d="M330.6,322.2c-0.2-0.3-0.4-0.6-0.6-0.8c-0.4-0.2-0.8-0.4-1.3-0.4c-1.6-0.3-3.4-0.4-4.5,0.7
	c-1,1.1-0.8,2.9-1.7,4.1c-0.3,0.4-0.6,0.7-0.9,1.1c-0.3,0.6-0.4,1.3-0.4,2c0,1.9-0.1,3.8,0,5.7c0.1,1.6,0.4,3.3,1.4,4.5
	c1.6,2,4.5,2.3,7.1,2.4l2.1,0.1c0.6,0.1,1.2,0,1.7-0.2c0.7-0.3,1.2-0.9,1.5-1.6c1.1-2.7-0.6-5.6-1.7-8.3
	C332.1,328.5,332.3,325.1,330.6,322.2z"/>
<path class="st2" d="M313.4,124c0-0.3,0-0.5,0.1-0.8c0.3-0.5,1.1-0.4,1.7-0.2c2.4,0.6,5,0.1,7.4,0.2s5.3,1.4,5.8,3.8
	c1.8-1.3,3.4-2.9,4.6-4.7c0.7-1,1.3-2.2,1.2-3.5c-0.1-1.8-1.6-3.1-3-4.3l-4.1-3.4c-0.5-0.5-1.2-0.9-1.9-1.2c-1-0.3-2-0.2-3-0.2
	c-3,0-6.2-1.4-8.9,0c-1.1,0.6-2,1.6-2.8,2.5l-3.7,4.4c-0.3,0.3-0.5,0.6-0.6,1c-0.1,0.5,0.2,1.1,0.3,1.6c0.2,1-0.2,2,0.1,3
	c0.5,1.6,2.4,1.8,3.6,2.7c0.4,0.3,1.1,1.5,1.6,1.4C312.7,126.4,313.4,124.7,313.4,124z"/>
<circle class="st10" cx="319.7" cy="125" r="11.8"/>
<path class="st2" d="M322.4,150.9c-0.8-2.4-3.1-3.9-5.6-3.8c-0.3,0.1-0.7,0-1-0.1c-0.2-0.1-0.3-0.3-0.4-0.5
	c-0.7-1.3-1.3-2.7-1.7-4.1c-0.2-0.6-0.4-1.4-1.1-1.5c-0.5-0.1-1,0.2-1.4,0.6c-0.3,0.4-0.6,0.8-1,1.2c-1.5,1.3-4.1,0.1-5.7,1.3
	c-0.3,0.2-0.5,0.5-0.8,0.6c-0.3,0.2-0.6,0.3-0.9,0.4c-3.1,1-6,2.2-9,3.5c1.1,6.3,2.1,12.8,4.6,18.7c1.2,2.8,2.5,5.6,3.4,8.5
	c2.1,6.4,2.2,13.3,2.2,20.1c0,4.6,0,9.3-1.5,13.7c-0.3,1-0.8,2-0.8,3s0.2,2.2,1.1,2.8c0.5,0.3,1,0.5,1.6,0.6
	c2.6,0.4,5.2-0.3,7.8-0.9c6.8-1.6,13.8-2.5,20.8-3.4l11.7-1.5c0.8-0.1,1.7-0.3,2.4-0.6c2.1-1.2,2.3-4.4,1-6.4
	c-0.6-1-1.5-1.8-2.1-2.8s-0.6-2.5,0.3-3.2c1.9-1.5,1.3-4.2,1.4-6.5c0.3-6.6,0.2-13.3-0.1-19.9c-0.1-1.4-0.1-2.8-0.1-4.1
	c0.1-2.3,0.7-4.6,1.3-6.9l3.5-14c-0.9-1.5-2.7-2.4-4.4-2.8c-1.7-0.4-3.4-0.5-5.1-1.1c-3.4-1.1-6.4-3.7-9.9-3.5
	c-0.3,0-0.5,0.1-0.8,0.2c-0.8,0.5-0.7,1.6-0.7,2.5c-0.1,2-1.6,3.7-3.2,4.9c-1.6,1.2-3.5,2.1-5,3.4
	C322.8,149.6,322.5,150.2,322.4,150.9z"/>
<path class="st10" d="M275.6,164.2c-0.8,0.5-1.6,0.9-2.5,1.3c-0.8,0.3-1.7,0.6-2.4,1.2c-0.3,0.3-0.6,0.6-0.8,1
	c-1.2,2.2-0.5,5,1.7,6.2c0.8,0.4,1.6,0.6,2.5,0.6c1.1-0.1,2.1-0.5,3.1-0.9l8.3-3.6c1.4-0.6,2.9-1.3,3.6-2.7c0.1-0.1,0.1-0.3,0.1-0.4
	c-0.1-0.2-0.2-0.3-0.3-0.4c-1.9-1.2-3.5-2.8-4.9-4.6c-0.3-0.5-0.8-1.6-1.2-1.8C281,158.9,277,163.2,275.6,164.2z"/>
<path class="st10" d="M364.7,161.2l3.1,3.5c0.7,0.8,1.3,1.5,1.9,2.3c1.5,2,2.7,4.3,3.5,6.6c0.7,1.8,1.2,3.6,1,5.5
	c-0.2,1-0.4,1.9-0.8,2.8c-0.6,1.7-1.3,3.4-2.1,5c-0.7,1.2-1.5,2.4-2.3,3.5c-2.4,3.2-5,6.1-7.8,8.9c-1.1,1-1.5,2.7-1.9,4.1
	c-0.8,2.6-2.9,4.6-4.8,6.5c-0.6,0.7-1.3,1.3-2.1,1.8c-1.1,0.7-2.4,1.1-3.8,1.1c-0.6,0-1.2-0.1-1.7-0.3c-1.3-0.6-2-2.2-2.1-3.6
	c-0.1-1.3,0.1-2.7,0.6-3.9c1.8-3.9,6.3-5.6,9.5-8.5c1.9-1.7,3.3-3.8,4.7-5.8c1-1.3,1.8-2.7,2.4-4.2c0.7-1.9,0.4-4.2,1.1-6.1
	c0.3-0.8,0.8-1.6,1-2.4c0.3-0.8,0.4-1.8-0.1-2.5c-0.4-0.4-0.9-0.8-1.4-1c-2-1-4.3-2.4-4.7-4.6c-0.2-1.3,0.2-2.5,0.9-3.5
	c0.7-1,1.6-1.9,2.6-2.7C362.3,162.9,363.8,162,364.7,161.2z"/>
<path class="st10" d="M273.6,169.1c-0.5-1.1-1.2-2.2-2.3-2.8c-1.1-0.5-2.3-0.5-3.4,0c-1.1,0.5-2.1,1.1-3,1.8l-2.6,2
	c-0.6,0.4-1.1,0.9-1.6,1.5c-0.4,0.7-0.7,1.5-0.8,2.3c-0.4,1.8-0.7,3.7-0.4,5.6c0.4,3,2.2,5.6,4.2,7.9c1.2,1.4,2.8,2.9,4.7,2.9
	c0.8,0,1.7-0.3,2.1-1c0.1-0.3,0.2-0.6,0.2-0.9c0.2-3.3-1-6.6-2.4-9.6c-0.4-0.8-0.8-1.7-0.8-2.6c0-0.2,0-0.3,0.1-0.4
	c0.1-0.1,0.3-0.2,0.5-0.2c1.9-0.4,5.2,1.1,6.5-1C275.4,172.9,274.2,170.3,273.6,169.1z"/>
<path class="st2" d="M312.8,120.3c0-0.3,0-0.5,0.1-0.8c0.3-0.5,1.1-0.4,1.7-0.2c2.4,0.6,5,0.1,7.4,0.2s5.3,1.4,5.8,3.8
	c1.8-1.3,3.4-2.9,4.6-4.7c0.7-1,1.3-2.2,1.2-3.5c-0.1-1.8-1.6-3.1-3-4.3l-4.1-3.4c-0.5-0.5-1.2-0.9-1.9-1.2c-1-0.3-2-0.2-3-0.2
	c-3,0-6.2-1.4-8.9,0c-1.1,0.6-2,1.6-2.8,2.5l-3.7,4.4c-0.3,0.3-0.5,0.6-0.6,1c-0.1,0.5,0.2,1.1,0.3,1.6c0.2,1-0.2,2,0.1,3
	c0.5,1.6,2.4,1.8,3.6,2.7c0.4,0.3,1.1,1.5,1.6,1.4C312.1,122.6,312.7,121,312.8,120.3z"/>
<path class="st2" d="M287.7,152.7c-0.5,0.3-0.9,0.7-1.2,1.2c-0.4,0.7-0.5,1.5-0.9,2.2c-0.8,1.5-2.7,2-3.8,3.2
	c-0.2,0.2-0.3,0.4-0.4,0.6c0,0.3,0.1,0.7,0.3,0.9l5.6,8.8c1.9,0.2,3.7-1,5.5-0.8c0.7,0.1,1.4,0.3,2.1,0.1c0.5-0.2,0.9-0.5,1.3-0.8
	c1.1-0.7,2.6-0.8,3.5-1.7s1-2.3,1-3.6c0-1.1-0.1-2.2-0.3-3.3c-0.8-3.4-3.4-6-5-9c-0.8-1.5-1.2-2.3-2.9-1.3S289.2,151.5,287.7,152.7z
	"/>
<path class="st2" d="M355.7,148.2c1.1,0.7,2,1.5,2.8,2.5c0.9,1.1,1.3,2.5,2.2,3.6c0.8,1.1,1.9,1.9,2.8,2.9c1.4,1.5,2.3,3.4,3.2,5.2
	c-2.2,2.9-4.6,5.6-7.3,8.2c-0.3,0.3-0.7,0.6-1.1,0.7c-0.6,0.1-1.2-0.2-1.6-0.6c-0.4-0.4-0.7-0.9-1.1-1.4c-0.9-0.9-2.1-1.5-3.4-1.7
	c-1.3-0.1-2.6-0.1-3.9-0.1c-0.3,0-0.6,0-0.8-0.1c-0.2-0.1-0.3-0.3-0.5-0.5c-1.5-2.6-1-5.8-0.5-8.8l1.2-6.8c0.2-1.3,0.5-2.6,1-3.8
	c0.5-1,1.5-2.7,2.8-2.4C353,145.6,354.7,147.4,355.7,148.2z"/>
<polygon class="st8" points="248.7,197.7 222.9,203 222.3,203 199.6,200.7 199.6,171.9 227.4,167.2 247.6,169.5 247.6,169.6 
	247.6,169.7 "/>
<polygon class="st5" points="248.7,197.7 222.9,203 222.3,203 222.3,173.4 247.6,169.6 "/>
<polygon class="st9" points="247.6,169.7 247.6,169.7 222.3,173.4 199.6,171.9 227.4,167.2 247.6,169.5 247.6,169.6 "/>
<polygon class="st2" points="262.2,169.2 236.4,174.5 235.8,174.4 213.1,172.1 213.1,143.3 240.9,138.6 261.1,141 261.1,141.1 
	261.1,141.2 "/>
<polygon class="st5" points="262.2,169.2 236.4,174.5 235.8,174.4 235.8,144.9 261.1,141.1 "/>
<polygon class="st9" points="261.1,141.2 261.1,141.2 235.8,144.9 213.1,143.3 240.9,138.6 261.1,141 261.1,141.1 "/>
</svg>
