<?xml version="1.0" encoding="utf-8"?>
<!-- Generator: Adobe Illustrator 24.0.1, SVG Export Plug-In . SVG Version: 6.00 Build 0)  -->
<svg version="1.1" id="Layer_1" xmlns="http://www.w3.org/2000/svg" xmlns:xlink="http://www.w3.org/1999/xlink" x="0px" y="0px"
	 viewBox="0 0 1300 400" style="enable-background:new 0 0 1300 400;" xml:space="preserve">
<style type="text/css">
	.st0{fill:url(#SVGID_1_);stroke:#000000;stroke-width:1.6452;stroke-miterlimit:10;}
	.st1{fill:#FFFFFF;}
	.st2{fill:#CCCCCC;}
	.st3{fill:#F2F2F2;}
	.st4{fill:#3F3D56;}
	.st5{fill:#FF6582;}
	.st6{fill:#E6E6E6;}
</style>
<linearGradient id="SVGID_1_" gradientUnits="userSpaceOnUse" x1="0" y1="-190" x2="1300" y2="-190" gradientTransform="matrix(1 0 0 -1 0 10)">
	<stop  offset="0" style="stop-color:#007194"/>
	<stop  offset="1" style="stop-color:#41C1C9"/>
</linearGradient>
<rect class="st0" width="1300" height="400"/>
<path class="st1" d="M366.7,238.6v0.4c-0.9-1.1-1.8-2.1-2.8-3.2c-0.4-0.4-0.8-0.9-1.2-1.3c-1.6-1.9-3.3-3.7-4.9-5.5
	c-1.7-1.8-3.3-3.7-5-5.5c-0.4-0.4-0.8-0.9-1.2-1.3c-0.3-0.4-0.7-0.7-1.1-1c-0.4-0.3-0.8-0.6-1.3-0.7c-0.6-0.2-1.1-0.2-1.7,0
	c-0.6,0.1-1.2,0.4-1.9,0.6c-0.6,0.2-1.3,0.4-1.9,0.6c-1.3,0.4-2.5,0.8-3.8,1.2c-0.1,0-0.1,0-0.2-0.1v0l0,0c0-0.1,0-0.1,0.1-0.2
	c0,0,0,0,0,0c0.3-0.1,0.6-0.2,1-0.3c1.3-0.4,2.5-0.8,3.8-1.2c0.6-0.2,1.3-0.4,1.9-0.6c0.6-0.2,1.2-0.3,1.8-0.4c1,0.1,2,0.5,2.7,1.3
	c0.4,0.4,0.8,0.8,1.1,1.1c0.4,0.5,0.8,0.9,1.3,1.4c1.7,1.9,3.4,3.7,5.1,5.6c1.7,1.9,3.3,3.7,5,5.6c0.1,0.1,0.2,0.3,0.4,0.4
	C364.9,236.5,365.8,237.5,366.7,238.6z"/>
<path class="st1" d="M350.4,222.8c-0.3-0.4-0.8-0.8-1.3-1l-0.5,0c4.1,6.4,9.5,11.8,15.7,16C359.7,232.9,355.1,227.8,350.4,222.8z"/>
<path class="st2" d="M435.8,289l-20.8-111.2c-0.7-3.8-4-6.5-7.8-6.7c-0.2,0-0.3,0-0.5,0l-14.1,0.5l-1.5,0.1l-7.1,0.3l-1.5,0.1
	l-4.5,0.2l-91.6,3.3c-0.1,0-0.3,0-0.4,0l-20.5-0.4l-7.6-0.2l-0.2,0l-5.6-0.1l-48.8-1l-13-0.3l-6.4-0.1l-1.5,0l-7.3-0.1l-1.5,0
	L166,173l-1.5,0l-8.2-0.2l-1.3,0l-7.3-0.2l-1.2,0h-0.2c-4,0-7.4,2.9-8.1,6.9l-18.8,115.4c-0.7,4.5,2.3,8.7,6.7,9.4
	c0.4,0.1,0.9,0.1,1.3,0.1h107.9c1.6,0,3.1,0.5,4.4,1.5l2,1.5c1.4,1,3.1,1.6,4.9,1.6c20.8-5.5,42.7-5.5,63.6,0c2.2,0,4.3-0.9,5.8-2.4
	c1.3-1.3,3-2.1,4.9-2.2l107.2-5.7c4.5-0.2,8-4.1,7.7-8.6C435.9,289.7,435.9,289.4,435.8,289L435.8,289z"/>
<path class="st3" d="M406.4,271.7c-0.3,7.8-6.9,14-14.7,13.7c-6.2-0.2-13.7-0.3-21.7-0.2c-26.3,0.6-59.4,4.2-79.3,17.2
	c-2.5,1.6-5.5,2.5-8.4,2.3c-0.2,0-0.4,0-0.7,0c-3.1-0.3-6-1.6-8.3-3.7c-11-10-36.1-22.2-93.7-23c-0.2,0-0.5,0-0.7,0
	c-7.8-0.5-13.8-7.2-13.3-15.1c0,0,0,0,0,0l5.7-89.8l0.8-13.5l1.5-23.5c0.3-4.9,4.4-8.8,9.3-8.8h0.1l34.3,0.2
	c14.4,0.7,26.4,2.5,35.9,5.5c3.2,1,6.4,2.3,9.4,3.8c4.1,2,7.9,4.8,11,8.2c1.9,2.2,4.6,3.6,7.4,4c0.4,0.1,0.9,0.1,1.3,0.1
	c2.7,0.1,5.3-0.6,7.5-2.1c22.4-15,68.1-16.1,93.3-15.5c7.3,0.2,13.3,5.9,13.8,13.1l1,13.4l1,13.4l5.9,77.2l1.6,21.5
	C406.4,270.6,406.5,271.1,406.4,271.7z"/>
<path class="st4" d="M188.1,158.9c20.7-6.6,43.7-4.8,63.3,4.4c5.6,2.6,10.9,5.9,15.7,9.7c1.4,1.1,3.3-0.9,1.9-1.9
	c-18-13.9-40.6-20.6-63.2-18.5c-6.3,0.6-12.5,1.8-18.5,3.7C185.7,156.8,186.4,159.4,188.1,158.9L188.1,158.9z"/>
<path class="st4" d="M301.8,174.1c19.2-10.1,42.2-12.3,63.1-6.6c6,1.6,11.7,3.9,17.2,6.8c1.6,0.8,3-1.5,1.4-2.4
	c-19.9-10.6-43.8-13.1-65.6-7.1c-6.1,1.7-11.9,4-17.5,6.9C298.9,172.6,300.3,174.9,301.8,174.1z"/>
<path class="st4" d="M301.8,192.4c19.2-10.1,42.2-12.3,63.1-6.6c6,1.6,11.7,3.9,17.2,6.8c1.6,0.8,3-1.5,1.4-2.4
	c-19.9-10.6-43.8-13.1-65.6-7.1c-6.1,1.7-11.9,4-17.5,6.9C298.9,190.9,300.3,193.3,301.8,192.4L301.8,192.4z"/>
<path class="st4" d="M384.2,209.8c0-0.5-0.2-0.9-0.7-1.1c-15.9-8.4-34-11.7-51.9-9.7c-0.1,0-0.2,0-0.3,0h0c-0.1,0-0.2,0-0.3,0
	c-10.6,1.2-21,4.4-30.4,9.4c-0.4,0.3-0.7,0.7-0.7,1.2v34.2c0,0.8,0.6,1.4,1.4,1.4c0.1,0,0.2,0,0.3,0c0.4-0.1,0.8-0.2,1.3-0.4
	c9.6-2.6,19.4-4.1,29.4-4.6c0.2,0,0.4,0,0.6,0c8.1-0.3,16.2-0.1,24.2,0.9c0.2,0,0.3,0,0.5,0.1c0.4,0,0.8,0.1,1.2,0.1
	c0.2,0,0.3,0,0.5,0.1c1.6,0.2,3.2,0.4,4.8,0.7c2.3,0.4,4.6,0.8,6.9,1.2c0.1,0,0.3,0.1,0.4,0.1c3.7,0.7,7.4,1.6,11.1,2.5
	c0.7,0.2,1.5-0.3,1.7-1c0-0.1,0-0.2,0-0.3L384.2,209.8C384.2,209.8,384.2,209.8,384.2,209.8z"/>
<path class="st5" d="M333.7,200.8c-1-0.5-2.2-0.6-3.2-0.3c-1,0.4-1.7,1.1-2.2,2c-0.4,0.9-0.6,1.8-0.7,2.8c-0.1,0.4-0.1,0.9,0.3,1
	c0.3,0.1,0.6,0,0.8-0.2c0.2-0.2,0.4-0.4,0.5-0.7c1.3-2.1,3.7-3.3,6.1-3.3l1,0.4C335.6,201.9,334.7,201.3,333.7,200.8z"/>
<path class="st1" d="M344.7,208.7c-0.8-1.2-1.7-2.4-3.2-2.8c-1.7-0.4-3.4,0.4-4.9,1.3c-4.4,2.6-8.6,5.3-12.7,8.3l0,0l9.5-0.6
	c2.3-0.1,4.7-0.3,6.7-1.3c0.7-0.5,1.5-0.8,2.4-0.9c1.1,0.1,2.1,0.5,2.8,1.3c4.4,4.1,5.6,10.5,10.6,14.1
	C352.6,221.5,348.9,214.9,344.7,208.7z"/>
<path class="st1" d="M332.8,240.1c-0.2,0-0.4,0-0.6,0c-1.5-0.6-3.1-1-4.7-1.5c-1-0.3-2.1-0.5-3.1-0.7c-1.2-0.3-2.4-0.5-3.6-0.6
	c-2.3-0.3-4.6-0.5-6.8-0.6c-0.1,0-0.1,0-0.1-0.1c0-0.1,0-0.1,0.1-0.1c0,0,0,0,0,0c0.3,0,0.6,0,0.9,0c2.3,0.1,4.6,0.3,6.9,0.7
	c1.2,0.2,2.4,0.4,3.5,0.7c1.1,0.2,2.1,0.5,3.2,0.8C329.8,239.1,331.3,239.6,332.8,240.1z"/>
<path class="st1" d="M359.2,241.3c-0.2,0-0.3,0-0.5-0.1c-0.6-0.5-1.3-1-1.9-1.5c-0.8-0.6-1.7-1.2-2.6-1.7c-1.9-1.2-4-2.2-6.1-3.1
	c-3.3-1.4-6.8-2.5-10.3-3.2c-4-0.9-8.1-1.5-12.2-1.9c-4.1-0.4-8.2-0.7-12.3-0.9c-0.2,0-0.2-0.3,0-0.3c0.5,0,1,0.1,1.5,0.1
	c4.2,0.3,8.3,0.6,12.4,1c4.1,0.4,8.1,1.1,12.1,2.1c3.4,0.8,6.7,2,10,3.4c1.8,0.8,3.6,1.8,5.4,2.9c1.1,0.7,2.1,1.4,3.2,2.2
	C358.4,240.6,358.8,240.9,359.2,241.3z"/>
<path class="st1" d="M357.5,241.1c-0.2,0-0.3,0-0.5-0.1c-0.2-0.2-0.4-0.3-0.6-0.4c-1.4-1-2.9-1.9-4.4-2.8c-1.4-0.8-2.8-1.4-4.3-2
	c-3.3-1.4-6.8-2.5-10.3-3.2c-4-0.9-8.1-1.5-12.2-1.9c-4.1-0.4-8.2-0.7-12.3-0.9c-0.2,0-0.2-0.3,0-0.3c0.5,0,1,0.1,1.5,0.1
	c4.2,0.3,8.3,0.6,12.4,1c4.1,0.4,8.1,1.1,12.1,2.1c3.4,0.8,6.7,2,10,3.4c1.2,0.6,2.4,1.1,3.5,1.8
	C354.3,238.8,355.9,239.9,357.5,241.1z"/>
<path class="st1" d="M371.4,243.3c-0.1,0-0.3-0.1-0.4-0.1c-0.2-0.2-0.3-0.4-0.5-0.5c-0.8-0.9-1.6-1.8-2.3-2.8
	c-3-3.6-5.9-7.3-8.6-11.1c-2.3-3.2-4.5-6.6-6.6-9.9c-1-1.6-2-3.2-2.9-4.8c-0.7-1.3-1.4-2.5-2.1-3.8c-0.2-0.4-0.4-0.7-0.6-1.1
	c-0.4-0.9-0.9-1.7-1.4-2.6c-0.5-1-1.3-1.9-2.2-2.6c-0.5-0.3-1-0.5-1.6-0.5c-0.8,0-1.6,0.2-2.3,0.6c-5.1,2.4-10,5.4-14.4,8.8
	c-4.3,3.4-8.3,7.3-11.7,11.6c-0.1,0.1-0.3,0-0.2-0.1c0.4-0.5,0.8-1,1.3-1.5c3.3-3.9,7-7.4,11.1-10.5c0,0,0,0,0,0
	c0.4-0.3,0.7-0.6,1.1-0.8c2.3-1.7,4.6-3.2,7.1-4.6c1.2-0.7,2.5-1.4,3.8-2.1c0.3-0.2,0.7-0.3,1-0.5c0.3-0.2,0.7-0.3,1-0.5
	c0.7-0.3,1.4-0.5,2.1-0.6c2.5,0,3.9,2.5,4.8,4.3c0.3,0.5,0.6,1.1,0.9,1.6c1.1,2,2.2,4.1,3.4,6.1c0.7,1.2,1.5,2.5,2.2,3.7
	c1.1,1.8,2.2,3.5,3.4,5.2c0,0,0,0,0,0l0,0h0c1.3,2,2.8,4,4.2,6c2.5,3.4,5.1,6.7,7.8,10C369.4,241.1,370.4,242.2,371.4,243.3z"/>
<path class="st5" d="M338.7,202.8l-0.3,0.1c-1.2-2-3.3-3.3-5.6-3.4c-3.8-0.3-7.1,2.2-7.4,5.6c-0.1,1.4,0.3,2.7,1.1,3.8l-0.2,0.1
	c-0.9-1.1-1.3-2.6-1.2-4c0.3-3.5,3.7-6.1,7.7-5.8C335.2,199.4,337.4,200.7,338.7,202.8z"/>
<path class="st1" d="M320.1,209.5c-2-0.9-4.3-0.7-6.2,0.4c3.4,0.5,6.7,1.2,10,2.1C322.6,211.3,321.5,210.2,320.1,209.5z"/>
<path class="st1" d="M313.9,209.9l-0.4,0.3C313.7,210.1,313.8,210,313.9,209.9L313.9,209.9z"/>
<path class="st1" d="M325.1,211.5c-0.1-0.1-0.3-0.3-0.4-0.4c-1.1-1.2-2.5-2.2-4-3c-0.8-0.3-1.6-0.5-2.5-0.5c-0.9,0-1.7,0.2-2.6,0.5
	c-0.4,0.1-0.8,0.3-1.1,0.5c-0.4,0.2-0.8,0.4-1.3,0.6c-0.8,0.4-1.5,0.8-2.3,1.2c-1.5,0.8-3,1.7-4.4,2.7c-0.7,0.5-1.4,1-2.1,1.5
	c-0.7,0.5-1.3,1-1.9,1.5c-0.1,0.1-0.3-0.1-0.2-0.2c0.2-0.1,0.3-0.3,0.5-0.4c0.5-0.4,0.9-0.8,1.4-1.1c0.9-0.7,1.8-1.3,2.7-1.9
	c1.4-1,2.9-1.8,4.5-2.7c0.8-0.4,1.6-0.8,2.4-1.2c0.2-0.1,0.5-0.2,0.7-0.3c0.6-0.3,1.1-0.5,1.7-0.6c0.8-0.2,1.7-0.3,2.6-0.2
	c0.8,0.1,1.7,0.4,2.4,0.7c1.5,0.8,2.9,1.9,4,3.2C325.4,211.4,325.2,211.6,325.1,211.5z"/>
<path class="st4" d="M188.1,177.2c20.7-6.6,43.7-4.8,63.3,4.4c5.6,2.6,10.9,5.9,15.7,9.7c1.4,1.1,3.3-0.9,1.9-1.9
	c-18-13.9-40.6-20.6-63.2-18.5c-6.3,0.6-12.5,1.8-18.5,3.7C185.7,175.1,186.4,177.8,188.1,177.2L188.1,177.2z"/>
<path class="st4" d="M188.1,195.6c20.7-6.6,43.7-4.8,63.3,4.4c5.6,2.6,10.9,5.9,15.7,9.7c1.4,1.1,3.3-0.9,1.9-1.9
	c-18-13.9-40.6-20.6-63.2-18.5c-6.3,0.6-12.5,1.8-18.5,3.7C185.7,193.5,186.4,196.1,188.1,195.6L188.1,195.6z"/>
<path class="st4" d="M188.1,213.9c20.7-6.6,43.7-4.8,63.3,4.4c5.6,2.6,10.9,5.9,15.7,9.7c1.4,1.1,3.3-0.9,1.9-1.9
	c-18-13.9-40.6-20.6-63.2-18.5c-6.3,0.6-12.5,1.8-18.5,3.7C185.7,211.8,186.4,214.5,188.1,213.9L188.1,213.9z"/>
<path class="st4" d="M188.1,232.2c20.7-6.6,43.7-4.8,63.3,4.4c5.6,2.6,10.9,5.9,15.7,9.7c1.4,1.1,3.3-0.9,1.9-1.9
	c-18-13.9-40.6-20.6-63.2-18.5c-6.3,0.6-12.5,1.8-18.5,3.7C185.7,230.1,186.4,232.8,188.1,232.2L188.1,232.2z"/>
<path class="st4" d="M188.1,250.6c20.7-6.6,43.7-4.8,63.3,4.4c5.6,2.6,10.9,5.9,15.7,9.7c1.4,1.1,3.3-0.9,1.9-1.9
	c-18-13.9-40.6-20.6-63.2-18.5c-6.3,0.6-12.5,1.8-18.5,3.7C185.7,248.5,186.4,251.1,188.1,250.6L188.1,250.6z"/>
<rect x="281" y="147" class="st6" width="1.3" height="156.8"/>
</svg>
