<?xml version="1.0" encoding="utf-8"?>
<!-- Generator: Adobe Illustrator 24.0.1, SVG Export Plug-In . SVG Version: 6.00 Build 0)  -->
<svg version="1.1" id="Layer_1" xmlns="http://www.w3.org/2000/svg" xmlns:xlink="http://www.w3.org/1999/xlink" x="0px" y="0px"
	 viewBox="0 0 1300 400" style="enable-background:new 0 0 1300 400;" xml:space="preserve">
<style type="text/css">
	.st0{fill:url(#SVGID_1_);stroke:#000000;stroke-width:1.6452;stroke-miterlimit:10;}
	.st1{fill:#F0F0F0;}
	.st2{fill:#FFFFFF;}
	.st3{fill:#FFB6B6;}
	.st4{fill:#2F2E41;}
	.st5{fill:#CACACA;}
	.st6{fill:#3F3D56;}
	.st7{fill:#63C7FF;}
	.st8{fill:#FFB8B8;}
	.st9{fill:#E4E4E4;}
	.st10{fill:#F2F2F2;}
	.st11{fill:#9E616A;}
	.st12{opacity:0.2;enable-background:new    ;}
</style>
<linearGradient id="SVGID_1_" gradientUnits="userSpaceOnUse" x1="9.094947e-13" y1="592" x2="1300" y2="592" gradientTransform="matrix(1 0 0 1 0 -392)">
	<stop  offset="0" style="stop-color:#007194"/>
	<stop  offset="1" style="stop-color:#41C1C9"/>
</linearGradient>
<rect x="0" class="st0" width="1300" height="400"/>
<path class="st1" d="M81.2,295.7c1.7-13.4,9.9-26.5,22.7-30.9c-5,13.8-5,28.8,0,42.6c2,5.3,4.7,11,2.8,16.3
	c-1.1,3.3-3.9,5.9-7.1,7.5c-3.1,1.6-6.6,2.3-10,3.1l-0.7,0.6C83.5,322.5,79.5,309,81.2,295.7z"/>
<path class="st2" d="M104,265.1c-7.4,8.3-12,18.8-13.2,29.8c-0.3,2.4-0.2,4.8,0.3,7.1c0.5,2.3,1.6,4.4,3.3,6.1
	c1.5,1.6,3.2,3.1,4.2,5c1.1,2,1.2,4.4,0.4,6.5c-0.9,2.7-2.8,4.8-4.6,6.9c-2.1,2.3-4.2,4.6-5.1,7.7c-0.1,0.4-0.7,0.2-0.6-0.2
	c1.5-5.3,6.6-8.3,9.1-13c1.1-2.2,1.6-4.8,0.5-7.1c-0.9-2-2.7-3.6-4.2-5.2c-1.6-1.6-2.8-3.6-3.4-5.8c-0.6-2.3-0.8-4.7-0.5-7.1
	c0.4-5.4,1.7-10.6,3.8-15.6c2.3-5.7,5.6-11,9.7-15.5C103.8,264.3,104.2,264.8,104,265.1L104,265.1z"/>
<path class="st2" d="M91,291.3c-3.8-0.9-6.4-4.4-6.1-8.3c0-0.4,0.6-0.4,0.6,0c-0.3,3.6,2.1,6.9,5.6,7.7
	C91.5,290.8,91.3,291.4,91,291.3L91,291.3z"/>
<path class="st2" d="M93.5,307.4c3.3-2,5.8-5.1,6.8-8.8c0.1-0.4,0.7-0.2,0.6,0.2c-1.1,3.8-3.7,7.1-7.1,9.2
	C93.4,308.1,93.1,307.6,93.5,307.4L93.5,307.4z"/>
<path class="st2" d="M96.8,275c1.4,0.7,3,0.6,4.3-0.2c0.3-0.2,0.6,0.3,0.3,0.5c-1.4,0.9-3.2,1-4.7,0.3c-0.2-0.1-0.2-0.2-0.2-0.4
	C96.4,275.1,96.6,275,96.8,275L96.8,275z"/>
<path class="st1" d="M142.7,288.7c-0.2,0.1-0.4,0.3-0.6,0.4c-2.7,1.8-5.2,3.7-7.6,5.9c-0.2,0.2-0.4,0.3-0.6,0.5
	c-5.6,5.3-10.2,11.6-13.6,18.6c-1.3,2.8-2.4,5.7-3.3,8.6c-1.2,4.1-2.2,8.6-4.7,11.9c-0.2,0.4-0.5,0.7-0.8,1H89.6c0,0-0.1,0-0.2-0.1
	l-0.9,0c0-0.2,0.1-0.3,0.1-0.5c0-0.1,0-0.2,0.1-0.3c0-0.1,0-0.1,0-0.2c0,0,0,0,0-0.1c0-0.1,0-0.1,0-0.2c0.2-0.9,0.4-1.8,0.7-2.7
	c0,0,0,0,0,0c1.8-6.8,4.2-13.6,7.5-19.7c0.1-0.2,0.2-0.4,0.3-0.6c1.5-2.8,3.3-5.4,5.2-7.9c1.1-1.4,2.2-2.7,3.4-3.9
	c3.1-3.2,6.7-5.9,10.7-8c7.9-4.2,17-5.7,25.4-3.2C142.3,288.5,142.5,288.6,142.7,288.7z"/>
<path class="st2" d="M142.6,289c-10.9,2.2-20.9,7.7-28.5,15.9c-1.7,1.7-3,3.7-4.1,5.9c-1,2.1-1.3,4.5-1.1,6.8
	c0.2,2.2,0.7,4.4,0.3,6.6c-0.4,2.3-1.7,4.2-3.6,5.5c-2.3,1.6-5.1,2.2-7.8,2.7c-3,0.6-6.2,1.1-8.7,3c-0.3,0.2-0.6-0.3-0.3-0.5
	c4.4-3.3,10.3-2.6,15.1-4.9c2.2-1.1,4.2-2.8,4.7-5.4c0.5-2.2,0-4.5-0.2-6.7c-0.3-2.3,0-4.6,0.8-6.7c0.9-2.2,2.2-4.2,3.9-6
	c3.6-4,7.8-7.5,12.4-10.2c5.3-3.2,11.1-5.4,17.1-6.6C143,288.3,143,288.9,142.6,289L142.6,289z"/>
<path class="st2" d="M116.4,302.1c-2.5-3-2.4-7.4,0.2-10.3c0.3-0.3,0.7,0.1,0.5,0.4c-2.4,2.7-2.5,6.8-0.1,9.6
	C117.2,302,116.7,302.4,116.4,302.1L116.4,302.1z"/>
<path class="st2" d="M108.8,316.4c3.8,0.4,7.7-0.6,10.8-2.9c0.3-0.2,0.6,0.3,0.3,0.5c-3.2,2.4-7.2,3.5-11.2,3
	C108.3,317,108.4,316.4,108.8,316.4z"/>
<path class="st2" d="M130.9,292.6c0.7,1.3,2,2.2,3.5,2.4c0.4,0,0.3,0.6-0.1,0.6c-1.7-0.2-3.1-1.2-3.9-2.6c-0.1-0.1-0.1-0.3,0.1-0.4
	C130.6,292.4,130.8,292.4,130.9,292.6L130.9,292.6z"/>
<polygon class="st3" points="261.1,329.5 266.9,327.6 262.1,304.2 253.5,307.1 "/>
<path class="st4" d="M258.9,328.1l1.6-0.6l5.5-4.8l4.3,1.4l0,0c4-1.4,8.4,0.8,9.8,4.8l0.1,0.2l-18.8,6.3L258.9,328.1z"/>
<polygon class="st3" points="232.8,325.7 238.8,327.1 247.1,304.7 238.3,302.6 "/>
<path class="st4" d="M231.8,323.4l1.7,0.4l7.2-1.1l2.9,3.5l0,0c4.1,1,6.7,5.1,5.7,9.3l-0.1,0.2l-19.3-4.6L231.8,323.4z"/>
<rect x="181.9" y="305" class="st5" width="10.5" height="17.5"/>
<rect x="202.7" y="308.5" transform="matrix(0.5615 -0.8275 0.8275 0.5615 -178.5015 310.7258)" class="st5" width="2.4" height="30.6"/>
<rect x="155.2" y="322.6" transform="matrix(0.8275 -0.5615 0.5615 0.8275 -152.3898 151.597)" class="st5" width="30.6" height="2.4"/>
<circle class="st5" cx="216.6" cy="332.4" r="3.3"/>
<circle class="st5" cx="187.1" cy="332.4" r="3.3"/>
<circle class="st5" cx="157.9" cy="332.4" r="3.3"/>
<rect x="185.9" y="315.2" class="st5" width="2.4" height="17.2"/>
<rect x="185" y="289.6" class="st5" width="4.5" height="23.2"/>
<path class="st6" d="M164.2,293.2v-5.4c0-2.1,1.7-3.8,3.8-3.8h35.2c2.1,0,3.8,1.7,3.8,3.8v5.4c0,2.1-1.7,3.8-3.8,3.8H168
	C165.9,297,164.3,295.3,164.2,293.2z"/>
<path class="st6" d="M143,283.2l-22.7-39.1c-1.5-2.7-0.6-6.1,2-7.6l1.3-0.8c2.7-1.5,6.1-0.6,7.6,2l22.7,39.1c1.5,2.7,0.6,6.1-2,7.6
	l-1.3,0.8C148,286.8,144.6,285.9,143,283.2z"/>
<path class="st6" d="M164.4,293c-10.2,0-18.5-8.3-18.5-18.5h2c0,9.1,7.4,16.5,16.5,16.5c3.4,0,6.7-1.1,9.5-3l1.2,1.6
	C172,291.9,168.2,293,164.4,293z"/>
<path class="st4" d="M185.4,265c0,0,56.1-17,64.6,4c8.5,21,16.5,45.1,16.5,45.1l-11,3.5L234,281.5c0,0-51.9,13-62.8-2.3L185.4,265z"
	/>
<path class="st7" d="M144.9,222.4l-13-1l-2.5,16c0,0,16,41.6,43.6,45.6l26-23.5l-28.8-10.7L144.9,222.4z"/>
<circle class="st8" cx="135.7" cy="197.7" r="17"/>
<path class="st4" d="M140.5,215.3c-0.8,0.7-2,1-3.6,1.1c-9.8,0.3-18.6-6-21.5-15.3c-0.7-2.3-1.3-5.7-0.1-9c0.8-2.4,2.5-4.3,4-6
	c1.3-1.4,2.6-2.9,4-4.2c1.6-1.6,3.5-3.4,6-4.2c1.8-0.6,3.7-0.7,5.5-0.7c0.6,0,1.3,0,1.9-0.1c1.6-0.1,3.2-0.4,4.6-1.1
	c0.6-0.3,1.3-0.4,1.9-0.1c0.6,0.2,1.2,0.8,1.4,1.4c0.2,0.6,0.4,1.2,1.2,1.4c0.5,0.1,1.1,0,1.5-0.3c0.2-0.2,0.5-0.3,0.8-0.2
	c0.3,0.1,0.5,0.3,0.6,0.6l0.1,0.2c0.3-0.2,0.7-0.2,1-0.1c0.5,0.2,0.8,0.7,0.7,1.2c-0.2,2.1-1.1,4.1-2.4,5.7c-0.9,1.1-2,2-3.3,2.7
	l-0.2,0.1l-0.1-0.2c-5.7,2.1-7.4,8-7.1,12.9l-0.5,0.1c-0.1-0.3-0.3-0.6-0.6-0.8c-0.3-0.2-0.7-0.3-1.1-0.2c-0.7,0.2-1.3,0.9-1.3,1.6
	c-0.1,0.8,0.2,1.6,0.8,2.1c0.6,0.6,1.3,1.1,2,1.4c0.3,0.2,0.7,0.4,1,0.6c1.9,1.2,3.2,3.1,3.8,5.3c0.3,1,0.4,2.4-0.4,3.5
	C140.9,214.9,140.7,215.1,140.5,215.3z"/>
<path class="st4" d="M252.2,275.4c-2.6,22.5-8.2,43.6-8.2,43.6l-10.5-1.5l2.4-42.5"/>
<path class="st6" d="M148.5,200.4c-1,0-1.9-0.7-2.3-1.7c-6.8-3.6-3.2-6.1-2.8-8.9c-0.4-1.2,0.3-2.6,1.6-2.9c0,0,0,0,0,0l7-2.2
	c1.2-0.4,2.6,0.3,2.9,1.6l2.8,8.9c0.4,1.2-0.3,2.6-1.6,2.9l-7,2.2C149,200.4,148.8,200.4,148.5,200.4z"/>
<path class="st7" d="M153.1,184.4c1,0,2,0.7,2.3,1.7l2.9,9.1c0.2,0.6,0.1,1.3-0.1,1.8c-0.3,0.6-0.8,1-1.4,1.2l-1.6,0.5l-4.4-13.7
	l1.6-0.5C152.6,184.5,152.9,184.4,153.1,184.4z"/>
<path class="st6" d="M117,205.5c-0.7,0-1.3-0.4-1.5-1.1l-0.7-2.4c-0.2-0.8,0.2-1.7,1-1.9c0,0,0,0,0,0l31.5-9.7
	c0.8-0.2,1.7,0.2,1.9,1c0,0,0,0,0,0l0.7,2.4c0.2,0.8-0.2,1.7-1,1.9l-31.5,9.7C117.3,205.4,117.2,205.5,117,205.5z"/>
<path class="st9" d="M202.8,279.2h-4.7c-1.3,0-2.3-1-2.4-2.2l-0.8-14.2c-0.1-1.3,0.9-2.4,2.2-2.5c0,0,0.1,0,0.1,0h6.3
	c1.3,0,2.4,1.1,2.4,2.4c0,0,0,0.1,0,0.1l-0.8,14.2C205.1,278.2,204.1,279.2,202.8,279.2z"/>
<polygon class="st5" points="205.8,263.6 205.7,264.6 195.2,264.6 195.1,263.6 "/>
<polygon class="st5" points="205.6,265.9 205.6,267 195.3,267 195.3,265.9 "/>
<polygon class="st5" points="205.5,268.3 205.5,269.3 195.5,269.3 195.4,268.3 "/>
<polygon class="st5" points="205.4,270.7 205.3,271.7 195.6,271.7 195.5,270.7 "/>
<polygon class="st5" points="205.3,273 205.2,274.1 195.7,274.1 195.7,273 "/>
<polygon class="st5" points="205.1,275.4 205.1,276.4 195.8,276.4 195.8,275.4 "/>
<ellipse class="st5" cx="200.6" cy="260.8" rx="1.7" ry="0.4"/>
<path class="st5" d="M200.7,261.2c-0.2,0-0.4-0.2-0.4-0.4v0v-7.5h-2.5c-0.2,0-0.4-0.2-0.4-0.4c0-0.2,0.2-0.4,0.4-0.4h2.9
	c0.2,0,0.4,0.2,0.4,0.4v0v7.8C201.1,261,200.9,261.2,200.7,261.2C200.7,261.2,200.7,261.2,200.7,261.2z"/>
<path class="st3" d="M199.4,267.7c-2.2-1.8-5.3-1.4-7.1,0.7c-0.2,0.2-0.4,0.5-0.5,0.7l-17.6-3.1l3.7,8.5l16.2,1.7
	c2.5,1.2,5.5,0.1,6.7-2.4C201.8,271.7,201.2,269.1,199.4,267.7L199.4,267.7z"/>
<path class="st7" d="M187.9,276.3l-32.3-2.5l-0.1-0.1c-0.1-0.2-12.4-23.4-14.2-28.7c-1.1-3.2-1.1-6.7,0-9.9l0-0.1l0.1,0
	c3.1-1.8,6.9-1.1,9.3,1.5c5.5,6.1,9.6,13.5,11.8,21.5l1.3,4.5l23.1,5.2L187.9,276.3z"/>
<path id="af4baad4-c88d-44ba-bf25-f9ac1002d243-406" class="st10" d="M270.1,107l143.8-21v137.7l-143.8-21V107z"/>
<path class="st6" d="M414.4,224.2l-144.8-21.1v-96.6l144.8-21.1V224.2z M270.6,202.2l142.8,20.8V86.5l-142.8,20.8V202.2z"/>
<path id="ff4ff120-a9b9-45f5-a9d3-5a86b5774f09-407" class="st2" d="M338.1,134.4c-0.2-0.5-0.4-1-0.7-1.5c-0.2-0.5-0.5-0.9-0.8-1.3
	c-0.3-0.4-0.6-0.8-0.9-1.1c-0.3-0.3-0.7-0.5-1.1-0.7c-0.4-0.2-0.9-0.2-1.4-0.1c-0.5,0.1-0.9,0.3-1.3,0.5c-0.5,0.3-0.9,0.6-1.3,0.9
	c-0.4,0.4-0.8,0.7-1.2,1.1c-1.1,1.1-2.3,2.3-3.4,3.5c-1.1,1.2-2.2,2.3-3.3,3.5c-1.1,1.2-2.1,2.4-3.1,3.6c-1,1.2-2,2.4-3,3.7l0,0.1
	l2.3-0.3l2.4-0.3l2.4-0.3l2.4-0.3c0.6-0.1,1.2-0.1,1.8-0.2c0.6-0.1,1.2-0.2,1.8-0.4c0.6-0.2,1.2-0.4,1.7-0.6c0.6-0.3,1.1-0.6,1.7-1
	c0.2-0.2,0.4-0.3,0.6-0.5c0.2-0.2,0.4-0.3,0.6-0.5c0.2-0.2,0.4-0.3,0.6-0.4c0.2-0.1,0.4-0.2,0.7-0.2c0.3,0,0.6,0,0.8,0.1
	c0.3,0.1,0.5,0.3,0.8,0.5c0.3,0.2,0.5,0.5,0.7,0.7c0.2,0.3,0.4,0.6,0.6,0.9c1.2,1.9,2.3,3.8,3.1,5.9c0.9,2.1,1.7,4.4,2.5,6.6
	c0.8,2.2,1.7,4.5,2.7,6.5c0.9,2,2.1,3.9,3.6,5.7c-0.9-3-1.8-6-2.8-9c-1-2.9-2-5.8-3-8.7c-1-2.8-2.1-5.6-3.2-8.4
	C340.4,139.8,339.2,137.1,338.1,134.4L338.1,134.4z"/>
<path id="aabaacff-0bee-43d0-a5f7-3609016c3fe5-408" class="st7" d="M306.7,135.3L306.7,135.3L306.7,135.3l-0.1,0.1l0,0
	c-0.1,0.1-0.2,0.1-0.3,0.2c-0.1,0.1-0.2,0.1-0.3,0.2c-0.1,0.1-0.2,0.2-0.3,0.2l-0.3,0.2c-0.2,0.1-0.3,0.3-0.5,0.4
	c-0.2,0.1-0.3,0.3-0.5,0.4c-0.2,0.1-0.3,0.3-0.5,0.5c-0.2,0.2-0.3,0.3-0.5,0.5c-0.3,0.3-0.6,0.6-0.9,0.9c-0.3,0.3-0.6,0.6-0.9,1
	c-0.3,0.3-0.6,0.7-0.9,1c-0.3,0.3-0.6,0.7-0.9,1c-0.1,0.2-0.3,0.4-0.4,0.5c-0.1,0.2-0.3,0.4-0.4,0.5c-0.1,0.2-0.3,0.4-0.4,0.6
	c-0.1,0.2-0.3,0.4-0.4,0.6l0-0.1l0-0.1l0-0.1l0-0.1l0,0l0,0l0,0l0,0c-0.3-0.6-0.5-1.2-0.7-1.8c-0.2-0.7-0.3-1.3-0.3-2
	c-0.1-0.7,0-1.4,0-2.1c0.1-0.7,0.2-1.4,0.4-2.1c0.2-0.6,0.4-1.2,0.7-1.8c0.3-0.5,0.6-1,1-1.5c0.3-0.4,0.8-0.7,1.2-1
	c0.4-0.2,0.9-0.4,1.4-0.5c0.5-0.1,0.9,0,1.4,0.1c0.5,0.2,0.9,0.4,1.3,0.7c0.4,0.3,0.8,0.8,1.1,1.2c0.4,0.5,0.6,1.1,0.9,1.7l0,0l0,0
	l0,0l0,0l0,0.1l0,0.1L306.7,135.3L306.7,135.3z"/>
<path id="bb114f98-b27e-4f6c-8dcb-dec1941c81cb-409" class="st2" d="M307.2,180.5c0.5,0.1,1.1,0.1,1.6,0.2c0.5,0.1,1.1,0.2,1.6,0.3
	c0.5,0.1,1.1,0.2,1.6,0.4c0.5,0.1,1.1,0.3,1.6,0.5c1.7,0.5,3.3,1.2,4.9,1.9c1.7,0.8,3.3,1.7,4.9,2.7c1.7,1,3.3,2.2,4.8,3.4
	c1.6,1.3,3.2,2.7,4.7,4.2c0.5,0.5,1,1,1.5,1.6c0.5,0.5,1,1.1,1.5,1.6c0.5,0.6,1,1.1,1.5,1.7c0.5,0.6,1,1.2,1.5,1.8l0.2,0.2l0.2,0.2
	l0.2,0.2l0.2,0.2c0,0,0.1,0.1,0.1,0.1c0,0,0.1,0,0.1-0.1c0,0,0-0.1,0-0.1c0-0.1,0-0.1-0.1-0.2c-0.5-0.6-1-1.2-1.5-1.8
	c-0.5-0.6-1-1.2-1.5-1.8c-0.5-0.6-1-1.1-1.5-1.7c-0.5-0.5-1-1.1-1.5-1.6c-0.5-0.5-1-1-1.6-1.5s-1.1-1-1.6-1.4
	c-0.5-0.5-1.1-0.9-1.6-1.4c-0.5-0.4-1.1-0.9-1.6-1.3c-0.5-0.4-1.1-0.8-1.6-1.2c-0.5-0.4-1.1-0.8-1.6-1.1c-0.5-0.4-1.1-0.7-1.6-1
	s-1.1-0.6-1.6-0.9c-0.5-0.3-1.1-0.6-1.6-0.9c-0.5-0.3-1.1-0.5-1.6-0.8c-0.5-0.2-1.1-0.5-1.6-0.7c-0.5-0.2-1.1-0.4-1.6-0.6
	c-0.5-0.2-1.1-0.4-1.6-0.5s-1.1-0.3-1.6-0.4c-0.5-0.1-1.1-0.2-1.6-0.3c-0.5-0.1-1.1-0.2-1.6-0.3l-0.2,0l-0.2,0l-0.2,0l-0.2,0
	c0,0,0,0-0.1,0c0,0,0,0,0,0c0,0,0,0,0,0.1c0,0,0,0.1,0,0.1c0,0,0,0.1,0,0.1C307.1,180.4,307.1,180.4,307.2,180.5
	C307.1,180.5,307.2,180.5,307.2,180.5C307.2,180.5,307.2,180.5,307.2,180.5L307.2,180.5z"/>
<path id="e686dcc4-3a5c-45d7-a372-f96757b2bc76-410" class="st2" d="M306.7,167.9c0.9,0.1,1.9,0.3,2.9,0.4c1,0.1,1.9,0.3,2.9,0.4
	c1,0.2,2,0.3,2.9,0.5c1,0.2,2,0.4,3,0.6c1,0.2,2,0.4,3,0.7c1,0.3,2,0.5,3.1,0.8c1,0.3,2.1,0.6,3.1,1c1,0.4,2.1,0.8,3.1,1.2
	c0.9,0.4,1.9,0.8,2.8,1.2c0.9,0.4,1.8,0.9,2.8,1.4c0.9,0.5,1.8,1.1,2.8,1.6s1.8,1.2,2.8,1.9c0.9,0.6,1.7,1.3,2.5,2
	c0.8,0.7,1.7,1.4,2.5,2.2c0.8,0.8,1.6,1.6,2.4,2.4c0.8,0.8,1.6,1.7,2.4,2.6c0.8,0.9,1.5,1.8,2.2,2.8c0.7,1,1.4,2,2.1,3
	c0.7,1.1,1.3,2.1,2,3.3c0.6,1.1,1.2,2.3,1.8,3.5c0.1,0.2,0.1,0.3,0.2,0.5c0.1,0.2,0.1,0.3,0.2,0.5c0.1,0.2,0.1,0.3,0.2,0.5
	c0.1,0.2,0.1,0.3,0.2,0.5c0,0.1,0.1,0.1,0.1,0.1c0,0,0.1,0,0.1,0c0,0,0.1-0.1,0.1-0.1c0-0.1,0-0.1,0-0.2c-0.5-1.2-1.1-2.4-1.7-3.6
	c-0.6-1.2-1.2-2.3-1.9-3.4c-0.7-1.1-1.3-2.2-2-3.2s-1.4-2-2.2-3c-0.8-0.9-1.5-1.9-2.3-2.7c-0.8-0.9-1.6-1.7-2.4-2.5
	c-0.8-0.8-1.6-1.6-2.5-2.3s-1.7-1.4-2.5-2.1c-0.9-0.7-1.8-1.3-2.7-1.9c-0.9-0.6-1.8-1.2-2.7-1.7c-0.9-0.5-1.8-1-2.7-1.5
	c-0.9-0.5-1.8-0.9-2.7-1.3c-1-0.5-2.1-0.9-3.1-1.3c-1-0.4-2.1-0.8-3.1-1.1c-1-0.3-2.1-0.6-3.1-0.9c-1-0.3-2-0.5-3.1-0.8
	c-1-0.2-2-0.4-3-0.6c-1-0.2-2-0.4-3-0.5c-1-0.2-2-0.3-3-0.5c-1-0.1-1.9-0.3-2.9-0.4l-0.4-0.1l-0.4-0.1l-0.4-0.1l-0.4-0.1
	c0,0-0.1,0-0.1,0.1c0,0,0,0.1,0,0.1C306.6,167.7,306.6,167.8,306.7,167.9C306.6,167.9,306.7,167.9,306.7,167.9z"/>
<path id="b63e2850-e30b-4f93-aa42-78b25661d067-411" class="st2" d="M370,198.9c-0.2-0.3-0.3-0.5-0.5-0.8s-0.3-0.5-0.5-0.8
	c-0.2-0.3-0.3-0.5-0.5-0.8c-0.2-0.3-0.3-0.5-0.5-0.8c-1.2-2.2-2.4-4.4-3.6-6.5c-1.2-2.2-2.3-4.4-3.4-6.5c-1.1-2.2-2.2-4.3-3.3-6.5
	c-1.1-2.2-2.1-4.3-3.1-6.5c-0.7-1.5-1.4-3-2-4.4c-0.7-1.5-1.3-3-2-4.4c-0.6-1.5-1.3-2.9-1.9-4.4s-1.2-3-1.8-4.4
	c-0.3-0.7-0.6-1.4-0.8-2.1c-0.3-0.7-0.6-1.4-0.8-2.1s-0.5-1.4-0.8-2.1c-0.3-0.7-0.5-1.4-0.8-2.1c-0.2-0.5-0.4-1.1-0.6-1.6
	c-0.2-0.5-0.4-1.1-0.6-1.6c-0.2-0.5-0.4-1.1-0.6-1.6c-0.2-0.5-0.4-1.1-0.6-1.6c-0.1-0.2-0.1-0.3-0.2-0.5s-0.1-0.3-0.2-0.5
	s-0.1-0.3-0.2-0.5l-0.2-0.5c-0.1-0.4-0.3-0.7-0.4-1.1s-0.2-0.7-0.4-1.1c-0.1-0.4-0.3-0.7-0.4-1.1c-0.1-0.4-0.3-0.7-0.4-1.1
	c-0.2-0.4-0.3-0.8-0.5-1.2c-0.2-0.4-0.4-0.8-0.5-1.2c-0.2-0.4-0.4-0.7-0.6-1.1c-0.2-0.3-0.5-0.6-0.8-0.9c-0.1-0.1-0.2-0.2-0.4-0.3
	c-0.1-0.1-0.3-0.2-0.4-0.2c-0.1-0.1-0.3-0.1-0.4-0.2c-0.1,0-0.3-0.1-0.5-0.1c-0.2,0-0.4,0-0.6,0.1c-0.2,0.1-0.4,0.2-0.6,0.3
	c-0.2,0.1-0.4,0.2-0.6,0.4c-0.2,0.1-0.4,0.3-0.6,0.4c-1.4,1.1-2.7,2.3-4,3.5c-1.3,1.2-2.6,2.5-3.8,3.8c-1.2,1.3-2.4,2.6-3.6,4
	c-1.1,1.4-2.3,2.8-3.3,4.2c-1.1,1.4-2.1,2.9-3.1,4.4c-1,1.5-2,3-2.9,4.6c-0.9,1.6-1.8,3.1-2.7,4.8c-0.8,1.6-1.7,3.3-2.4,4.9
	c0,0,0,0.1-0.1,0.1c0,0-0.1,0-0.1,0c0,0-0.1-0.1-0.1-0.1c0-0.1,0-0.1,0-0.2c0.1-0.2,0.2-0.4,0.3-0.6c0.1-0.2,0.2-0.4,0.3-0.6
	c0.1-0.2,0.2-0.4,0.3-0.6s0.2-0.4,0.3-0.6c1.2-2.5,2.6-4.9,3.9-7.3c1.4-2.4,2.9-4.7,4.4-6.9c1.6-2.2,3.2-4.4,4.9-6.4
	c1.7-2.1,3.6-4.1,5.5-6c0.3-0.3,0.6-0.6,1-1c0.3-0.3,0.7-0.6,1-0.9c0.3-0.3,0.7-0.6,1-0.9c0.3-0.3,0.7-0.6,1-0.9
	c0.2-0.2,0.3-0.3,0.5-0.5c0.2-0.1,0.3-0.3,0.5-0.4c0.2-0.1,0.3-0.3,0.5-0.4s0.4-0.3,0.5-0.4c0.2-0.2,0.3-0.3,0.5-0.4
	c0.2-0.1,0.4-0.2,0.6-0.3c0.2-0.1,0.4-0.2,0.6-0.2c0.2-0.1,0.4-0.1,0.6-0.2c0.7-0.1,1.3,0.1,1.8,0.6c0.6,0.5,1.1,1.1,1.4,1.7
	c0.4,0.7,0.8,1.5,1.1,2.3c0.3,0.8,0.6,1.6,0.8,2.4c0.1,0.2,0.2,0.5,0.2,0.7c0.1,0.2,0.2,0.5,0.2,0.7c0.1,0.2,0.2,0.5,0.2,0.7
	c0.1,0.2,0.2,0.5,0.2,0.7c0.3,0.9,0.6,1.7,0.9,2.6c0.3,0.9,0.6,1.7,0.9,2.6c0.3,0.9,0.6,1.7,1,2.6c0.3,0.9,0.7,1.7,1,2.6
	c0.2,0.5,0.4,1.1,0.6,1.6s0.4,1.1,0.6,1.6c0.2,0.5,0.4,1.1,0.6,1.6c0.2,0.5,0.4,1.1,0.6,1.6c0.7,1.7,1.4,3.4,2.1,5
	c0.7,1.7,1.4,3.4,2.2,5c0.7,1.7,1.5,3.4,2.2,5c0.8,1.7,1.5,3.4,2.3,5c1.1,2.2,2.1,4.5,3.2,6.7c1.1,2.2,2.2,4.5,3.4,6.7
	c1.2,2.2,2.4,4.5,3.6,6.7c1.2,2.2,2.5,4.5,3.8,6.7c0,0.1,0,0.1,0,0.2c0,0.1,0,0.1-0.1,0.2c0,0-0.1,0.1-0.1,0.1
	C370.1,199,370,198.9,370,198.9z"/>
<path id="be6f29ee-45a1-4b5e-b111-fe61a3bc9058-412" class="st2" d="M317.9,140.1l-0.1-0.2l-0.1-0.2l-0.1-0.2l-0.1-0.2
	c-0.3-0.5-0.6-0.9-0.9-1.4c-0.3-0.4-0.6-0.9-0.9-1.3c-0.3-0.4-0.6-0.8-1-1.1c-0.3-0.3-0.7-0.6-1.1-0.9c-0.2-0.1-0.4-0.2-0.6-0.3
	c-0.2-0.1-0.4-0.2-0.6-0.2c-0.2-0.1-0.4-0.1-0.6-0.1c-0.2,0-0.4,0-0.6,0c-0.2,0-0.4,0.1-0.6,0.1c-0.2,0-0.4,0.1-0.6,0.2
	c-0.2,0.1-0.4,0.2-0.6,0.3c-0.2,0.1-0.4,0.2-0.6,0.4c-0.1,0.1-0.2,0.1-0.3,0.2c-0.1,0.1-0.2,0.1-0.3,0.2c-0.1,0.1-0.2,0.1-0.3,0.2
	s-0.2,0.1-0.3,0.2c-0.1,0.1-0.2,0.2-0.3,0.2c-0.1,0.1-0.2,0.2-0.3,0.3c-0.1,0.1-0.2,0.2-0.3,0.3l-0.3,0.3c-0.2,0.2-0.4,0.3-0.5,0.5
	s-0.4,0.3-0.5,0.5c-0.2,0.2-0.3,0.3-0.5,0.5s-0.3,0.3-0.5,0.5c-0.3,0.3-0.7,0.7-1,1c-0.3,0.4-0.7,0.7-1,1.1c-0.3,0.4-0.7,0.7-1,1.1
	c-0.3,0.4-0.6,0.7-1,1.1c-0.2,0.2-0.3,0.4-0.5,0.6c-0.2,0.2-0.3,0.4-0.5,0.6s-0.3,0.4-0.5,0.6s-0.3,0.4-0.5,0.6
	c-0.1,0.2-0.3,0.4-0.4,0.6c-0.1,0.2-0.3,0.4-0.4,0.6c-0.1,0.2-0.3,0.4-0.4,0.6c-0.1,0.2-0.3,0.4-0.4,0.6c0,0-0.1,0.1-0.1,0.1
	c0,0-0.1,0-0.1-0.1c0,0,0-0.1,0-0.1c0,0,0-0.1,0-0.1l0.1-0.2l0.1-0.2l0.1-0.2l0.1-0.2c0.1-0.1,0.2-0.3,0.3-0.4s0.2-0.3,0.3-0.4
	c0.1-0.1,0.2-0.3,0.3-0.4c0.1-0.1,0.2-0.3,0.3-0.4c0.2-0.3,0.4-0.5,0.6-0.8c0.2-0.3,0.4-0.5,0.6-0.8c0.2-0.3,0.4-0.5,0.6-0.8
	c0.2-0.3,0.4-0.5,0.6-0.7c0.3-0.4,0.7-0.8,1-1.1c0.3-0.4,0.7-0.7,1-1.1c0.3-0.4,0.7-0.7,1-1.1s0.7-0.7,1-1c0.2-0.2,0.4-0.3,0.5-0.5
	c0.2-0.2,0.4-0.3,0.5-0.5c0.2-0.2,0.4-0.3,0.5-0.5c0.2-0.2,0.4-0.3,0.5-0.5l0.2-0.1c0.1,0,0.1-0.1,0.2-0.1c0.1,0,0.1-0.1,0.2-0.1
	c0.1,0,0.1-0.1,0.2-0.1c0.1-0.1,0.3-0.2,0.4-0.3c0.1-0.1,0.3-0.2,0.4-0.3c0.1-0.1,0.3-0.2,0.4-0.3c0.1-0.1,0.3-0.2,0.4-0.2
	c0.2-0.1,0.4-0.2,0.6-0.3c0.2-0.1,0.4-0.1,0.6-0.2c0.2,0,0.4-0.1,0.6-0.1c0.2,0,0.4,0,0.6,0c0.2,0,0.4,0.1,0.6,0.1
	c0.2,0.1,0.4,0.1,0.6,0.2c0.2,0.1,0.4,0.2,0.6,0.3c0.2,0.1,0.4,0.3,0.5,0.4c0.4,0.3,0.8,0.6,1.1,1c0.4,0.4,0.7,0.8,1,1.2
	c0.3,0.4,0.6,0.9,0.9,1.4c0.3,0.5,0.6,0.9,0.9,1.4c0,0,0,0.1,0,0.2c0,0,0,0.1,0,0.1C318,140.1,318,140.1,317.9,140.1
	C317.9,140.1,317.9,140.1,317.9,140.1z"/>
<path id="f1703c2c-b32c-4f49-bbb5-823edaf9ca09-413" class="st2" d="M352.5,160l4.5-2.2l2.3-1.1c0.2-0.1,0.4-0.2,0.6-0.3
	c0.2-0.1,0.4-0.2,0.6-0.3c0.2-0.1,0.4-0.2,0.6-0.2s0.4-0.2,0.6-0.2c0.2-0.1,0.3-0.1,0.5-0.1c0.3-0.1,0.7-0.1,1,0
	c0.2,0,0.3,0.1,0.5,0.2c0.2,0.1,0.3,0.2,0.4,0.3c0.1,0.1,0.3,0.2,0.4,0.3c0.1,0.1,0.3,0.2,0.4,0.4c0.1,0.1,0.3,0.3,0.4,0.4
	c0.1,0.1,0.2,0.3,0.4,0.4c0.1,0.2,0.2,0.3,0.3,0.5c0.1,0.2,0.2,0.3,0.3,0.5c0.1,0.2,0.2,0.3,0.3,0.5c0.1,0.2,0.3,0.4,0.4,0.6
	s0.3,0.4,0.4,0.6l0.4,0.6l0.4,0.6c0.5,0.9,1.1,1.7,1.6,2.6s1.1,1.7,1.6,2.6c0.5,0.9,1.1,1.7,1.6,2.6s1.1,1.8,1.6,2.6
	c0.5,0.9,1.1,1.8,1.6,2.7c0.5,0.9,1.1,1.8,1.6,2.7c0.5,0.9,1.1,1.8,1.6,2.7c0.5,0.9,1.1,1.8,1.6,2.7c0.5,0.9,1.1,1.8,1.6,2.8
	c0.5,0.9,1.1,1.9,1.6,2.8c0.6,0.9,1.1,1.9,1.7,2.8c0.6,0.9,1.1,1.9,1.7,2.8l0.2,0.4l0.2,0.4l0.2,0.4l0.2,0.4c0,0.1,0.1,0.1,0.1,0.1
	c0,0,0.1,0,0.1,0c0,0,0.1-0.1,0.1-0.1c0-0.1,0-0.1,0-0.2c-0.6-1-1.1-1.9-1.7-2.9c-0.6-1-1.1-1.9-1.7-2.9c-0.6-0.9-1.1-1.9-1.7-2.8
	c-0.6-0.9-1.1-1.9-1.7-2.8c-0.6-0.9-1.1-1.9-1.7-2.8c-0.6-0.9-1.1-1.8-1.6-2.8c-0.5-0.9-1.1-1.8-1.6-2.7c-0.5-0.9-1.1-1.8-1.6-2.7
	c-0.5-0.9-1.1-1.8-1.6-2.7c-0.5-0.9-1.1-1.8-1.6-2.7c-0.5-0.9-1.1-1.8-1.6-2.6c-0.5-0.9-1.1-1.7-1.6-2.6l-0.4-0.6l-0.4-0.6l-0.4-0.6
	l-0.4-0.6c-0.1-0.2-0.2-0.4-0.3-0.5c-0.1-0.2-0.2-0.4-0.3-0.5c-0.1-0.2-0.2-0.4-0.3-0.5c-0.1-0.2-0.2-0.3-0.4-0.5
	c-0.2-0.3-0.5-0.6-0.7-0.9c-0.2-0.3-0.5-0.5-0.8-0.7c-0.3-0.2-0.6-0.4-0.9-0.5c-0.3-0.1-0.6-0.2-1-0.2c-0.2,0-0.4,0-0.6,0.1
	c-0.2,0-0.4,0.1-0.6,0.1c-0.2,0.1-0.4,0.1-0.6,0.2c-0.2,0.1-0.4,0.2-0.5,0.3l-0.6,0.3l-0.6,0.3l-0.6,0.3l-0.6,0.3l-4.5,2.2l-1.1,0.5
	c0,0-0.1,0.1-0.1,0.1c0,0.1,0,0.1,0,0.2c0,0,0,0.1,0.1,0.1C352.4,160,352.5,160.1,352.5,160z"/>
<path id="b0037319-74a5-4008-9317-45f3792eb6f0-414" class="st2" d="M307.7,132.9l-0.2,0.3c-0.4-0.8-0.9-1.5-1.5-2.1
	c-0.5-0.5-1.1-0.9-1.8-1.2c-0.6-0.2-1.3-0.3-2-0.2c-0.7,0.1-1.4,0.4-2,0.8c-0.7,0.5-1.2,1-1.7,1.7c-0.5,0.7-0.9,1.5-1.2,2.4
	c-0.3,0.9-0.6,1.9-0.7,2.8c-0.1,1-0.2,2-0.1,3.1c0,0.5,0.1,1,0.2,1.5c0.1,0.5,0.2,1,0.3,1.4c0.1,0.5,0.3,0.9,0.5,1.3
	c0.2,0.4,0.4,0.8,0.6,1.2l-0.2,0.3c-0.3-0.4-0.5-0.8-0.7-1.2c-0.2-0.4-0.4-0.9-0.5-1.4c-0.1-0.5-0.3-1-0.4-1.5
	c-0.1-0.5-0.2-1.1-0.2-1.6c-0.1-1.1,0-2.1,0.1-3.2c0.1-1,0.4-2,0.7-2.9c0.3-0.9,0.8-1.7,1.3-2.5c0.5-0.7,1.1-1.3,1.8-1.8
	c0.6-0.4,1.3-0.7,2-0.8c0.7-0.1,1.4,0,2,0.2c0.7,0.3,1.4,0.7,1.9,1.2C306.7,131.4,307.3,132.1,307.7,132.9z"/>
<path id="aafff38a-0033-470b-af8f-2720d14bfd24-415" class="st11" d="M328.8,158.6c0,0-0.1-0.1-0.1-0.1c0-0.1-0.1-0.1-0.1-0.2
	c0-0.1-0.1-0.1-0.1-0.2c0-0.1,0-0.1,0-0.2c0-0.1,0-0.1,0-0.2c0-0.1,0-0.1,0-0.2c0-0.1,0-0.1,0.1-0.2c0-0.1,0.1-0.1,0.1-0.2
	l-0.9-12.6l1.5,0.1l0.4,12.4c0.1,0.1,0.1,0.2,0.1,0.3c0,0.1,0.1,0.2,0.1,0.3c0,0.1,0,0.2,0,0.3c0,0.1-0.1,0.2-0.1,0.3
	c0,0.1-0.1,0.2-0.2,0.2c-0.1,0.1-0.1,0.1-0.2,0.1c-0.1,0-0.2,0-0.2,0C328.9,158.8,328.9,158.7,328.8,158.6z"/>
<path id="e5744499-f715-4e36-9399-61aee0985ddd-416" class="st4" d="M329.8,144.1l-0.4,4.2l0.1,2.6l-1.6,0.2l-0.3-2.1l-0.2-5.6
	c0-0.2,0-0.4,0.1-0.6c0-0.2,0.1-0.4,0.2-0.5c0.1-0.2,0.2-0.3,0.3-0.4c0.1-0.1,0.3-0.2,0.4-0.2l0,0c0.2,0,0.3,0,0.5,0
	c0.2,0.1,0.3,0.2,0.4,0.3c0.1,0.1,0.2,0.3,0.3,0.5c0.1,0.2,0.1,0.4,0.2,0.6L329.8,144.1z"/>
<path id="a9ca9720-7309-4a38-9680-36d71a5e15ab-417" class="st11" d="M323.7,180.5l-0.9-0.1l-0.4-5.3l1.4,0.1V180.5z"/>
<path id="bee5ad7f-ff29-4d45-ab11-22ff698eac35-418" class="st4" d="M324,181.9l-3-0.2v-0.1c0-0.2,0-0.4,0.1-0.7
	c0.1-0.2,0.1-0.4,0.3-0.5c0.1-0.1,0.2-0.3,0.4-0.3c0.1-0.1,0.3-0.1,0.5-0.1l0,0l1.9,0.1L324,181.9z"/>
<path id="a21bf55f-1c38-45bb-a579-610ecd01da49-419" class="st11" d="M331.7,181.1l-1-0.1l-0.5-5.4l1.4,0.1L331.7,181.1z"/>
<path id="e08b6af7-be9b-47f0-ac97-9ea1ae8db3f0-420" class="st4" d="M332,182.5l-3.2-0.2v-0.1c0-0.2,0-0.5,0.1-0.7
	c0.1-0.2,0.1-0.4,0.3-0.5c0.1-0.1,0.2-0.3,0.4-0.4c0.1-0.1,0.3-0.1,0.5-0.1l0,0l1.9,0.1V182.5z"/>
<path id="ec3ccaec-a5a5-4434-ae33-6511140caff3-421" class="st11" d="M327.9,133.5c0.3,0,0.6,0.1,0.8,0.2c0.3,0.2,0.5,0.4,0.7,0.6
	c0.2,0.3,0.4,0.6,0.5,0.9c0.1,0.4,0.2,0.8,0.2,1.2c0,0.4-0.1,0.8-0.2,1.2c-0.1,0.3-0.3,0.7-0.5,1c-0.2,0.3-0.4,0.5-0.7,0.7
	c-0.2,0.2-0.5,0.3-0.8,0.3c-0.3,0-0.6-0.1-0.8-0.2c-0.3-0.2-0.5-0.4-0.7-0.6c-0.2-0.3-0.3-0.6-0.4-0.9c-0.1-0.4-0.2-0.8-0.2-1.2
	c0-0.4,0.1-0.8,0.2-1.2c0.1-0.3,0.2-0.7,0.4-1c0.2-0.3,0.4-0.5,0.7-0.7C327.3,133.7,327.6,133.6,327.9,133.5z"/>
<path id="e036711a-3868-4837-b3a6-788b0ed04356-422" class="st5" d="M327.6,140.8l1.5,0.2l0,0c0.2,0.4,0.3,0.8,0.4,1.2
	c0.1,0.4,0.2,0.8,0.2,1.3c0,0.4,0,0.9,0,1.3c0,0.4-0.1,0.9-0.2,1.3l-1.1,4.6c0,0,0.1,0.3,0.2,0.8c0.1,0.5,0.3,1.2,0.5,2
	c0.2,0.8,0.4,1.7,0.5,2.7c0.2,1,0.2,2,0.2,3.1c0.1,1.6,0.2,3.1,0.5,4.7c0.3,2,0.6,4.2,1,6.3c0.4,2.1,0.7,4.1,1,5.6
	c0.3,1.5,0.5,2.4,0.5,2.4l-4.1,0.4l-1.8-15.6l-2.4,15.3l-2.7-0.8l1.5-20l1-6.6l0-3.2c0,0,0-0.2-0.1-0.4c0-0.3,0-0.7,0-1
	c0-0.4,0.1-0.9,0.2-1.3c0.1-0.5,0.3-0.9,0.6-1.3l1.3-2.7L327.6,140.8z"/>
<path id="bb8fbc15-773e-43e2-a398-6f49aea3cb57-423" class="st4" d="M325.5,135.6l3.1-0.2v-1.9c-0.2-0.1-0.3-0.2-0.5-0.2
	c-0.2-0.1-0.3-0.1-0.5-0.1c-0.1,0-0.3,0-0.4,0.1c-0.1,0.1-0.3,0.2-0.3,0.4c-0.2,0-0.4,0.1-0.5,0.2c-0.2,0.1-0.3,0.3-0.4,0.4
	c-0.1,0.2-0.2,0.4-0.3,0.6C325.5,135.1,325.5,135.4,325.5,135.6z"/>
<path id="bfd64cff-ffcf-41c5-9f43-f81c5f9489c0-424" class="st4" d="M328.7,133.2c0.4,0,0.9,0.2,1.2,0.5c0.3,0.4,0.6,0.8,0.7,1.3
	c0.2,0.6,0.3,1.1,0.4,1.7c0.1,0.5,0.1,1.1,0.1,1.6c0,0.2,0,0.5-0.1,0.7c0,0.2-0.1,0.3-0.2,0.5c-0.1,0.1-0.2,0.2-0.3,0.3
	c-0.1,0.1-0.2,0.1-0.4,0.2l-0.2-1.4l-0.4,1.5l-0.1,0l-0.1,0h-0.2l-0.1-0.4l-0.3,0.4c-0.3,0-0.6,0-0.9,0.1c-0.2,0-0.5,0-0.7-0.1
	c-0.2-0.1-0.4-0.2-0.5-0.4c-0.1-0.3-0.2-0.7-0.2-1c0-0.5,0-1.1,0.1-1.6c0.1-0.6,0.2-1.2,0.4-1.7c0.1-0.5,0.4-1,0.7-1.4
	C327.8,133.4,328.3,133.2,328.7,133.2z"/>
<path id="a5e17919-4dc8-491b-a8f8-b724daf8bc20-425" class="st12" d="M326,151.6l-0.1-4.9l-0.2-2.2l-0.5,2.1L326,151.6z"/>
<path id="aba19b91-f9bc-42d8-9081-f302e7a60142-426" class="st7" d="M329.9,150.9l-2.3,0v-9.8l2.3-0.1c0.2,0,0.5,0.1,0.7,0.2
	c0.2,0.1,0.4,0.3,0.5,0.5c0.2,0.2,0.3,0.5,0.4,0.8c0.1,0.3,0.1,0.6,0.1,0.9v5c0,0.3,0,0.6-0.1,0.9c-0.1,0.3-0.2,0.5-0.4,0.8
	c-0.1,0.2-0.3,0.4-0.5,0.5C330.3,150.9,330.1,150.9,329.9,150.9L329.9,150.9z"/>
<path id="ed07398e-425f-476c-be6b-a3651f18917c-427" class="st6" d="M329.6,145.7c0,0-0.1,0-0.1,0c0,0-0.1-0.1-0.1-0.1
	c0,0,0-0.1-0.1-0.1c0-0.1,0-0.1,0-0.2v-3.7l0.6,0v3.7c0,0.1,0,0.1,0,0.2c0,0,0,0.1-0.1,0.1c0,0-0.1,0.1-0.1,0.1
	C329.6,145.6,329.6,145.7,329.6,145.7L329.6,145.7z"/>
<path id="ebf3c613-bcbf-4092-85ba-c68bf9c5e996-428" class="st6" d="M330.3,150.2l-1.7,0c-0.1,0-0.1,0-0.1,0c0,0-0.1-0.1-0.1-0.1
	c0-0.1-0.1-0.1-0.1-0.2c0-0.1,0-0.1,0-0.2v-1.5c0-0.1,0-0.1,0-0.2c0-0.1,0-0.1,0.1-0.2c0,0,0.1-0.1,0.1-0.1c0,0,0.1,0,0.1,0l1.7,0
	c0.1,0,0.1,0,0.1,0c0,0,0.1,0.1,0.1,0.1c0,0.1,0.1,0.1,0.1,0.2c0,0.1,0,0.1,0,0.2v1.5c0,0.1,0,0.1,0,0.2c0,0.1,0,0.1-0.1,0.2
	c0,0-0.1,0.1-0.1,0.1C330.4,150.1,330.3,150.2,330.3,150.2z"/>
<path id="b7342335-cfca-46c4-a9d4-7ff25269ba84-429" class="st7" d="M325.4,147.3c-0.1-0.2-0.2-0.4-0.3-0.7
	c-0.1-0.2-0.2-0.5-0.2-0.7c-0.1-0.3-0.1-0.5-0.1-0.8c0-0.3,0-0.5,0-0.8c0-0.5,0.1-1,0.2-1.5c0.1-0.4,0.2-0.9,0.4-1.3
	c0.2-0.3,0.4-0.6,0.6-0.9c0.2-0.2,0.5-0.3,0.8-0.3c0.2,0,0.3,0,0.5,0.1c0.2,0.1,0.3,0.2,0.4,0.3c0.1,0.1,0.3,0.3,0.4,0.4
	c0.1,0.2,0.2,0.4,0.3,0.5l-0.2,0.2c-0.1-0.2-0.1-0.3-0.2-0.5c-0.1-0.1-0.2-0.3-0.3-0.4c-0.1-0.1-0.2-0.2-0.4-0.2
	c-0.1-0.1-0.3-0.1-0.4-0.1c-0.3,0-0.5,0.1-0.7,0.3c-0.2,0.2-0.4,0.5-0.6,0.8c-0.2,0.4-0.3,0.8-0.4,1.2c-0.1,0.5-0.1,0.9-0.1,1.4
	c0,0.2,0,0.5,0,0.7c0,0.2,0.1,0.5,0.1,0.7c0.1,0.2,0.1,0.5,0.2,0.7c0.1,0.2,0.2,0.4,0.3,0.6L325.4,147.3z"/>
<path id="b7b642b4-9c5f-47de-b7a4-9ef0518be937-430" class="st11" d="M326.4,159.1c0,0-0.1-0.1-0.1-0.2c0-0.1-0.1-0.1-0.1-0.2
	c0-0.1,0-0.1-0.1-0.2c0-0.1,0-0.1,0-0.2c0-0.1,0-0.2,0-0.2c0-0.1,0-0.1,0-0.2c0-0.1,0-0.1,0.1-0.2c0-0.1,0.1-0.1,0.1-0.2l-0.4-13.8
	l1.6,0.2l-0.1,13.6c0.1,0.1,0.1,0.2,0.1,0.3c0.1,0.2,0.1,0.5,0,0.7c0,0.1-0.1,0.2-0.1,0.3c-0.1,0.1-0.1,0.2-0.2,0.2
	c-0.1,0.1-0.2,0.1-0.3,0.1c-0.1,0-0.2,0-0.3,0C326.5,159.3,326.4,159.2,326.4,159.1L326.4,159.1z"/>
<path id="fb8e0b0f-20d5-4e98-8c73-aaf11f36490a-431" class="st5" d="M328.1,143.4l-0.6,4.5l0,2.8l-1.7,0.1l-0.3-2.3l0-6.1
	c0-0.2,0-0.5,0.1-0.7c0.1-0.2,0.1-0.4,0.3-0.6c0.1-0.2,0.2-0.3,0.4-0.4c0.1-0.1,0.3-0.2,0.5-0.2l0,0c0.2,0,0.3,0,0.5,0.1
	c0.2,0.1,0.3,0.2,0.4,0.3c0.1,0.2,0.2,0.3,0.3,0.5c0.1,0.2,0.1,0.5,0.1,0.7L328.1,143.4z"/>
<path id="bc235a67-7b20-4a20-8858-2e3f29967952-432" class="st2" d="M328.2,184.3c0-0.1,0.1-0.2,0.2-0.3c0.1-0.1,0.3-0.1,0.5-0.1
	c0.2,0,0.4,0.1,0.6,0.2c0.3,0.1,0.5,0.2,0.7,0.4c0.2,0.1,0.5,0.3,0.7,0.5c0.2,0.2,0.4,0.4,0.5,0.6c0.1,0.2,0.2,0.3,0.3,0.5
	c0.1,0.1,0.1,0.3,0.1,0.4c0,0.1-0.1,0.2-0.2,0.3c-0.2,0.1-0.3,0.1-0.5,0c-0.2,0-0.4-0.1-0.6-0.2c-0.3-0.1-0.5-0.2-0.7-0.4
	c-0.2-0.1-0.5-0.3-0.7-0.5c-0.2-0.2-0.4-0.4-0.5-0.6c-0.1-0.2-0.2-0.3-0.3-0.5C328.2,184.6,328.2,184.5,328.2,184.3z"/>
<path id="b50bb785-b8db-4d08-96ef-ee58b0a94edf-433" class="st2" d="M334.9,184.4c0-0.1,0.2-0.2,0.3-0.2c0.2,0,0.3,0,0.5,0.1
	c0.2,0.1,0.4,0.2,0.6,0.3c0.3,0.2,0.5,0.3,0.7,0.5c0.2,0.2,0.5,0.4,0.7,0.7c0.2,0.2,0.3,0.4,0.5,0.7c0.1,0.2,0.2,0.4,0.3,0.6
	c0,0.1,0,0.3,0,0.5c0,0.1-0.2,0.2-0.3,0.2c-0.2,0-0.3,0-0.5-0.1c-0.2-0.1-0.4-0.2-0.6-0.3c-0.3-0.2-0.5-0.3-0.7-0.6
	c-0.2-0.2-0.5-0.4-0.7-0.7c-0.2-0.2-0.3-0.4-0.5-0.7c-0.1-0.2-0.2-0.4-0.3-0.6C334.9,184.7,334.9,184.5,334.9,184.4z"/>
<path id="b534d4cc-211b-4c90-a5f7-10469ec4cf05-434" class="st2" d="M338,191.1c0-0.1,0.1-0.2,0.3-0.2c0.2,0,0.3,0,0.5,0
	c0.2,0.1,0.4,0.2,0.7,0.3c0.3,0.2,0.5,0.3,0.7,0.5c0.2,0.2,0.5,0.4,0.7,0.7c0.2,0.2,0.4,0.4,0.5,0.7c0.1,0.2,0.2,0.4,0.3,0.6
	c0.1,0.1,0.1,0.3,0,0.5c0,0.1-0.2,0.2-0.3,0.2c-0.2,0-0.3,0-0.5-0.1c-0.2-0.1-0.4-0.2-0.7-0.3c-0.3-0.2-0.5-0.3-0.7-0.5
	c-0.2-0.2-0.5-0.4-0.7-0.7c-0.2-0.2-0.4-0.4-0.5-0.7c-0.1-0.2-0.2-0.4-0.3-0.6C338,191.4,338,191.2,338,191.1z"/>
<path id="a5f32c8e-80f6-4d19-8d94-c7ef166aad5d-435" class="st2" d="M344.7,193.9c0-0.1,0.2-0.2,0.3-0.2c0.2,0,0.3,0,0.5,0.1
	c0.2,0.1,0.5,0.2,0.7,0.3c0.3,0.2,0.5,0.3,0.8,0.5c0.3,0.2,0.5,0.4,0.7,0.7c0.2,0.2,0.4,0.4,0.5,0.7c0.1,0.2,0.2,0.4,0.3,0.6
	c0.1,0.1,0.1,0.3,0,0.5c0,0.1-0.2,0.2-0.3,0.2c-0.2,0-0.4,0-0.5-0.1c-0.2-0.1-0.5-0.2-0.7-0.3c-0.3-0.2-0.5-0.3-0.8-0.5
	c-0.3-0.2-0.5-0.4-0.7-0.7c-0.2-0.2-0.4-0.4-0.5-0.7c-0.1-0.2-0.2-0.4-0.3-0.6C344.6,194.2,344.6,194,344.7,193.9z"/>
<path id="a1534ae8-adba-47e7-9a6c-73e1b741057c-436" class="st2" d="M313,137.1c-0.4-0.3-0.9-0.5-1.5-0.7c-0.5-0.1-1-0.1-1.5-0.1
	c-0.5,0.1-1,0.3-1.5,0.5c-0.5,0.3-1,0.7-1.3,1.1c0.8,0.2,1.6,0.4,2.3,0.6c0.8,0.2,1.6,0.4,2.4,0.7c0.8,0.2,1.6,0.5,2.4,0.8
	c0.8,0.3,1.6,0.6,2.4,0.9c-0.3-0.3-0.7-0.6-0.9-0.9c-0.3-0.3-0.6-0.7-0.9-1c-0.3-0.4-0.6-0.7-0.9-1
	C313.7,137.7,313.4,137.4,313,137.1z"/>
<path id="ea354f02-1fc1-46f1-9fac-9aa5a529dbd3-437" class="st10" d="M307.2,138l-0.3,0.4c0,0,0.1-0.1,0.1-0.1c0,0,0.1-0.1,0.1-0.1
	c0,0,0.1-0.1,0.1-0.1C307.2,138.1,307.2,138.1,307.2,138L307.2,138z"/>
<path id="f109d977-ca8a-46c1-80d5-cfdd41118b93-438" class="st2" d="M365,160.2c-0.1-0.2-0.2-0.4-0.3-0.6c-0.1-0.2-0.2-0.3-0.4-0.5
	c-0.1-0.2-0.3-0.3-0.4-0.4c-0.2-0.1-0.3-0.2-0.5-0.3l-0.6,0c1.2,2.9,2.6,5.7,4,8.4c1.5,2.7,3,5.4,4.7,8c1.7,2.6,3.5,5.1,5.4,7.5
	c1.9,2.4,4,4.8,6.1,7l-4.6-7.5l-4.5-7.3l-4.4-7.2L365,160.2z"/>
<path class="st5" d="M319.4,336.7H63.8c-0.3,0-0.6-0.3-0.6-0.6c0-0.3,0.3-0.6,0.6-0.6h255.5c0.3,0,0.6,0.3,0.6,0.6
	C320,336.4,319.7,336.7,319.4,336.7z"/>
<path class="st6" d="M151.9,190.7c-0.5,0-1-0.3-1.2-0.9l-0.6-1.9c-0.2-0.7,0.1-1.4,0.8-1.6s1.4,0.1,1.6,0.8c0,0,0,0,0,0l0.6,1.9
	c0.2,0.7-0.1,1.4-0.8,1.6h0C152.2,190.7,152.1,190.7,151.9,190.7z"/>
<path class="st6" d="M153.4,195.7c-0.6,0-1-0.4-1.2-0.9l-0.5-1.9c-0.2-0.7,0.2-1.4,0.9-1.5c0.7-0.2,1.4,0.2,1.5,0.9l0.5,1.9
	c0.2,0.7-0.2,1.4-0.9,1.5c0,0,0,0,0,0C153.6,195.7,153.5,195.7,153.4,195.7z"/>
</svg>
