<?xml version="1.0" encoding="utf-8"?>
<!-- Generator: Adobe Illustrator 24.0.1, SVG Export Plug-In . SVG Version: 6.00 Build 0)  -->
<svg version="1.1" id="Layer_1" xmlns="http://www.w3.org/2000/svg" xmlns:xlink="http://www.w3.org/1999/xlink" x="0px" y="0px"
	 viewBox="0 0 1300 400" style="enable-background:new 0 0 1300 400;" xml:space="preserve">
<style type="text/css">
	.st0{fill:url(#SVGID_1_);stroke:#000000;stroke-width:1.6452;stroke-miterlimit:10;}
	.st1{opacity:0.1;fill:#63C7FF;enable-background:new    ;}
	.st2{opacity:0.1;}
	.st3{fill:none;stroke:#535461;stroke-width:2;stroke-miterlimit:10;}
	.st4{fill:#63C7FF;}
	.st5{opacity:0.25;enable-background:new    ;}
	.st6{fill:#535461;}
	.st7{fill:#EAEAF3;}
	.st8{fill:#FFFFFF;}
</style>
<linearGradient id="SVGID_1_" gradientUnits="userSpaceOnUse" x1="0" y1="1372" x2="1300" y2="1372" gradientTransform="matrix(1 0 0 1 0 -1172)">
	<stop  offset="0" style="stop-color:#007194"/>
	<stop  offset="1" style="stop-color:#41C1C9"/>
</linearGradient>
<rect class="st0" width="1300" height="400"/>
<path class="st1" d="M67.2,208.7c5.8,24.8,18.1,46.2,37.5,56.6C145,286.9,236,275.7,303.9,263c34.3-6.4,65.4-24.2,88.4-50.5
	L67.2,208.7z"/>
<path class="st1" d="M423.1,92h-37.2c-1.8,0-3.2-1.4-3.2-3.2s1.4-3.2,3.2-3.2h6.4c-1.8,0-3.2-1.4-3.2-3.2s1.4-3.2,3.2-3.2h-4.6
	c-1.8,0-3.2-1.4-3.2-3.2c0-1.8,1.4-3.2,3.2-3.2h19.4c-4.3-2-9.4-3.4-15.2-4.2c-53-6.8-71.9-2.3-78.6,2.3
	c-8.2,5.7-17.4,9.9-27.2,11.9c-32.7,6.7-93.9,14.9-149.3-2.6c-27.5-8.7-48,6-60.3,30.5h353c-0.5-7.1-1.8-13.7-4.4-19.5
	C424.7,91.7,423.9,92,423.1,92z"/>
<path class="st1" d="M64.1,157c-1.4,14.4-0.9,29,1.4,43.2l327,12c9.1-10.5,16.7-22.1,22.7-34.6L64.1,157z M193.4,187.8H187
	c1.8,0,3.2,1.4,3.2,3.2s-1.4,3.2-3.2,3.2h-37.2c-1.8,0-3.2-1.4-3.2-3.2s1.4-3.2,3.2-3.2h6.4c-1.8,0-3.2-1.4-3.2-3.2
	c0-1.8,1.4-3.2,3.2-3.2l0,0h-4.6c-1.8,0-3.2-1.4-3.2-3.2c0-1.8,1.4-3.2,3.2-3.2l0,0h37.2c1.8,0,3.2,1.4,3.2,3.2
	c0,1.8-1.4,3.2-3.2,3.2h4.6c1.8,0,3.2,1.4,3.2,3.2C196.6,186.4,195.2,187.8,193.4,187.8z"/>
<path class="st1" d="M429.6,110.9l-357,8.7c-4.3,11.2-7.2,23.8-8.5,36.9h359.3c2.3-7.7,4.1-15.5,5.2-23.5
	C429.6,125.3,430.1,117.8,429.6,110.9z M136.6,139.4h-6.4c1.8,0,3.2,1.4,3.2,3.2c0,1.8-1.4,3.2-3.2,3.2H92.9c-1.8,0-3.2-1.4-3.2-3.2
	c0-1.8,1.4-3.2,3.2-3.2h6.4c-1.8,0-3.2-1.4-3.2-3.2s1.4-3.2,3.2-3.2h-4.6c-1.8,0-3.2-1.4-3.2-3.2c0-1.8,1.4-3.2,3.2-3.2H132
	c1.8,0,3.2,1.4,3.2,3.2c0,1.8-1.4,3.2-3.2,3.2h4.6c1.8,0,3.2,1.4,3.2,3.2S138.4,139.4,136.6,139.4z"/>
<g class="st2">
	<path class="st3" d="M289.6,273.3c0,0,9.4-23.2,27-31.8c7.4-3.6,13.5-9.4,17.2-16.7c1.8-3.5,3.2-7.1,4.3-10.9"/>
	<path class="st4" d="M349.3,208.4c-1.8,2.3-11.3,5.7-11.3,5.7s1.1-10,3-12.3c2-2.2,5.4-2.4,7.5-0.4
		C350.5,203.1,350.8,206.2,349.3,208.4L349.3,208.4z"/>
	<path class="st4" d="M346,226.6c-2.8,0.9-12.6-1.4-12.6-1.4s6.4-7.8,9.2-8.7c2.9-0.8,5.8,0.9,6.5,3.8
		C349.8,222.9,348.5,225.6,346,226.6z"/>
	<path class="st4" d="M328.3,248.2c-2.9-0.6-10.2-7.6-10.2-7.6s9.4-3.5,12.3-2.9c2.8,0.8,4.5,3.7,3.7,6.6
		C333.5,246.9,331,248.6,328.3,248.2L328.3,248.2z"/>
	<path class="st4" d="M311.3,261.5c-2.9-0.1-11.3-5.7-11.3-5.7s8.7-5,11.7-4.9c3-0.1,5.4,2.2,5.5,5.2c0.1,3-2.2,5.4-5.2,5.5
		C311.8,261.6,311.5,261.6,311.3,261.5z"/>
	<path class="st4" d="M324.3,218.7c0.4,2.9,6.8,10.7,6.8,10.7s4.2-9.2,3.8-12.1c-0.6-2.9-3.4-4.8-6.3-4.2
		C326,213.6,324.1,216,324.3,218.7z"/>
	<path class="st4" d="M304.6,234.5c1.2,2.7,9.7,8.2,9.7,8.2s1.3-10,0-12.7c-1.1-2.8-4.2-4.1-6.9-3.1c-2.8,1.1-4.1,4.2-3.1,6.9
		C304.4,234.1,304.5,234.3,304.6,234.5L304.6,234.5z"/>
	<path class="st4" d="M287.5,252.6c0.8,2.8,8.1,9.7,8.1,9.7s2.9-9.6,2.2-12.5c-1-2.8-4-4.3-6.8-3.3
		C288.5,247.3,287,249.9,287.5,252.6L287.5,252.6z"/>
	<path class="st5" d="M349.3,208.4c-1.8,2.3-11.3,5.7-11.3,5.7s1.1-10,3-12.3c2-2.2,5.4-2.4,7.5-0.4
		C350.5,203.1,350.8,206.2,349.3,208.4L349.3,208.4z"/>
	<path class="st5" d="M346,226.6c-2.8,0.9-12.6-1.4-12.6-1.4s6.4-7.8,9.2-8.7c2.9-0.8,5.8,0.9,6.5,3.8
		C349.8,222.9,348.5,225.6,346,226.6z"/>
	<path class="st5" d="M328.3,248.2c-2.9-0.6-10.2-7.6-10.2-7.6s9.4-3.5,12.3-2.9c2.8,0.8,4.5,3.7,3.7,6.6
		C333.5,246.9,331,248.6,328.3,248.2L328.3,248.2z"/>
	<path class="st5" d="M311.3,261.5c-2.9-0.1-11.3-5.7-11.3-5.7s8.7-5,11.7-4.9c3-0.1,5.4,2.2,5.5,5.2c0.1,3-2.2,5.4-5.2,5.5
		C311.8,261.6,311.5,261.6,311.3,261.5z"/>
	<path class="st5" d="M324.3,218.7c0.4,2.9,6.8,10.7,6.8,10.7s4.2-9.2,3.8-12.1c-0.6-2.9-3.4-4.8-6.3-4.2
		C326,213.6,324.1,216,324.3,218.7z"/>
	<path class="st5" d="M304.6,234.5c1.2,2.7,9.7,8.2,9.7,8.2s1.3-10,0-12.7c-1.1-2.8-4.2-4.1-6.9-3.1c-2.8,1.1-4.1,4.2-3.1,6.9
		C304.4,234.1,304.5,234.3,304.6,234.5L304.6,234.5z"/>
	<path class="st5" d="M287.5,252.6c0.8,2.8,8.1,9.7,8.1,9.7s2.9-9.6,2.2-12.5c-1-2.8-4-4.3-6.8-3.3
		C288.5,247.3,287,249.9,287.5,252.6L287.5,252.6z"/>
</g>
<g class="st2">
	<path class="st3" d="M282.9,239.3c0,0,1.2-25,14.9-39c5.8-5.8,9.5-13.4,10.7-21.5c0.5-3.9,0.7-7.8,0.5-11.7"/>
	<path class="st4" d="M317.7,158.3c-1,2.8-8.8,9.1-8.8,9.1s-2.2-9.8-1.3-12.6c0.8-2.8,3.7-4.5,6.6-3.8c2.8,0.8,4.5,3.7,3.8,6.6
		C317.9,157.9,317.8,158.1,317.7,158.3z"/>
	<path class="st4" d="M320.7,176.6c-2.3,1.8-12.3,2.9-12.3,2.9s3.5-9.5,5.8-11.3c2.2-2,5.6-1.8,7.5,0.4c2,2.2,1.8,5.6-0.4,7.5
		C321,176.3,320.9,176.5,320.7,176.6z"/>
	<path class="st4" d="M311.2,202.9c-2.9,0.4-12.1-3.8-12.1-3.8s7.8-6.4,10.7-6.8c2.9-0.6,5.7,1.3,6.3,4.2c0.6,2.9-1.3,5.7-4.2,6.3
		C311.6,202.8,311.4,202.8,311.2,202.9L311.2,202.9z"/>
	<path class="st4" d="M299.5,221.1c-2.8,0.9-12.6-1.7-12.6-1.7s6.6-7.6,9.4-8.5c2.9-0.7,5.8,1.1,6.5,3.9
		C303.4,217.4,302,220.1,299.5,221.1L299.5,221.1z"/>
	<path class="st4" d="M297.6,176.4c1.3,2.6,9.9,7.9,9.9,7.9s0.9-10-0.4-12.7c-1.5-2.5-4.8-3.4-7.3-1.9
		C297.4,171,296.5,173.9,297.6,176.4L297.6,176.4z"/>
	<path class="st4" d="M284.2,197.8c2.1,2.1,11.8,4.5,11.8,4.5s-2.1-9.8-4.2-12c-2.2-2-5.6-1.8-7.6,0.4
		C282.5,192.8,282.4,195.8,284.2,197.8L284.2,197.8z"/>
	<path class="st4" d="M274.1,220.5c1.7,2.4,10.9,6.5,10.9,6.5s-0.4-10.1-2.1-12.5c-1.8-2.3-5.2-2.7-7.5-0.8
		C273.3,215.3,272.7,218.2,274.1,220.5L274.1,220.5z"/>
</g>
<path class="st1" d="M163.4,324.2c13.1,4.4,29.2,1.7,44.1,2c2,0,4.2,0.2,5.8,0.9c1.6,0.8,2.4,2,3.6,3.1c4.2,3.9,12.7,5.2,20.2,4.5
	c7.5-0.7,14.3-2.9,21.4-4.6c12.2-2.9,26.1-4.2,38.2-1.1c1.1,0.3,2.3,0.6,3.5,0.5c2.6-0.3,3.4-2.4,5.3-3.6c3.3-2.2,10.6-1.6,12-4.5
	c0.9-1.7-1.1-3.4-3.3-4.6c-8.2-4.4-20-5.1-30.8-4.4c-10.8,0.7-21.3,2.5-32.2,2.6c-13.5,0-26.5-2.9-39.9-4c-9.2-0.8-19.3-0.7-28,1.7
	C174,315.4,171.9,321.3,163.4,324.2z"/>
<rect x="185.4" y="126.8" class="st6" width="2.3" height="33.1"/>
<rect x="185.4" y="171.3" class="st6" width="2.3" height="18.7"/>
<path class="st6" d="M202.8,94.4h73.8c8.7,0,15.7,7,15.7,15.7v197c0,8.7-7,15.7-15.7,15.7h-73.8c-8.7,0-15.7-7-15.7-15.7v-197
	C187.1,101.5,194.1,94.4,202.8,94.4z"/>
<path class="st4" d="M202.8,105.1h73.8c8.7,0,15.7,7,15.7,15.7v176.7c0,8.7-7,15.7-15.7,15.7h-73.8c-8.7,0-15.7-7-15.7-15.7V120.8
	C187.1,112.2,194.1,105.1,202.8,105.1z"/>
<path class="st7" d="M232.3,99.4h15c0.6,0,1.2,0.5,1.2,1.2l0,0c0,0.6-0.5,1.2-1.2,1.2h-15c-0.6,0-1.2-0.5-1.2-1.2l0,0
	C231.2,100,231.7,99.4,232.3,99.4z"/>
<circle class="st7" cx="254.5" cy="100.8" r="1.7"/>
<path class="st8" d="M212.4,197.4v24.4c0,3.2-2.5,5.8-5.7,5.8c0,0-0.1,0-0.1,0c-3.2,0-6.3-2.6-6.3-5.8v-24.4c0-3.2,3.1-5.8,6.3-5.8
	C209.8,191.6,212.4,194.2,212.4,197.4z M214.7,230.4c0,3.4,2.8,6.2,6.2,6.2c0,0,0,0,0,0h4.2l0.1,12.9c0,7.8,11.6,7.7,11.6,0v-12.9
	h7.8v12.9c0,7.7,11.7,7.7,11.7,0v-12.9h4.3c3.4,0,6.2-2.8,6.2-6.2c0,0,0,0,0,0v-37.8h-52.1V230.4z M266.9,190.6h-52.5
	c0-9,5.4-16.8,13.4-20.9l-4-7.4c-0.6-1,0.9-1.7,1.4-0.8l4.1,7.5c7.3-3.2,15.5-3.2,22.8,0l4.1-7.5c0.5-0.9,2-0.2,1.4,0.8l-4,7.4
	C261.5,173.8,266.9,181.6,266.9,190.6z M230.9,178.9c0-1.2-1-2.2-2.2-2.2c-1.2,0-2.2,1.1-2.1,2.3c0,1.2,1,2.1,2.1,2.1
	C229.9,181.1,230.9,180.2,230.9,178.9L230.9,178.9z M254.8,178.9c0-1.2-1-2.2-2.2-2.1s-2.2,1-2.1,2.2c0,1.2,1,2.2,2.2,2.1
	C253.9,181.1,254.8,180.1,254.8,178.9L254.8,178.9z M274.8,191.6c-3.2,0-5.8,2.6-5.8,5.8c0,0,0,0,0,0v24.4c0,3.2,2.6,5.8,5.8,5.8
	c0,0,0,0,0,0c3.2,0,6.3-2.6,6.3-5.8v-24.4C281.1,194.1,278,191.6,274.8,191.6L274.8,191.6z"/>
<rect x="215" y="255.3" class="st6" width="21.7" height="1"/>
<rect x="244.7" y="255.3" class="st6" width="14.4" height="1"/>
<rect x="195.9" y="255.3" class="st6" width="14.4" height="1"/>
<rect x="267.4" y="255.3" class="st6" width="14.4" height="1"/>
</svg>
