<?xml version="1.0" encoding="utf-8"?>
<!-- Generator: Adobe Illustrator 24.0.1, SVG Export Plug-In . SVG Version: 6.00 Build 0)  -->
<svg version="1.1" id="Layer_1" xmlns="http://www.w3.org/2000/svg" xmlns:xlink="http://www.w3.org/1999/xlink" x="0px" y="0px"
	 viewBox="0 0 1300 400" style="enable-background:new 0 0 1300 400;" xml:space="preserve">
<style type="text/css">
	.st0{fill:url(#SVGID_1_);stroke:#000000;stroke-width:1.6452;stroke-miterlimit:10;}
	.st1{fill:#F0F0F0;}
	.st2{fill:#FFFFFF;}
	.st3{fill:#E5E5E5;}
	.st4{fill:#E6E6E6;}
	.st5{fill:#F2F2F2;}
	.st6{fill:#3F3D56;}
	.st7{fill:#FFB6B6;}
	.st8{fill:#2F2E41;}
	.st9{fill:#63C7FF;}
	.st10{fill:#CACACA;}
</style>
<linearGradient id="SVGID_1_" gradientUnits="userSpaceOnUse" x1="-9.094947e-13" y1="982" x2="1300" y2="982" gradientTransform="matrix(1 0 0 1 0 -782)">
	<stop  offset="0" style="stop-color:#007194"/>
	<stop  offset="1" style="stop-color:#41C1C9"/>
</linearGradient>
<rect x="0" class="st0" width="1300" height="400"/>
<path id="e7a552b9-89f6-403f-a662-c184ed590622-562" class="st1" d="M386.6,303.6c-0.2,6.9-1.3,13.7-3.4,20.3c0,0.2-0.1,0.3-0.1,0.5
	h-12.8c0-0.1,0-0.3,0-0.5c0.9-9.8-4-68.7-9.9-78.9C360.9,245.8,387.6,272.5,386.6,303.6z"/>
<path id="b08f6207-3c71-42fa-8723-265175c281aa-563" class="st1" d="M385.6,323.8c-0.1,0.2-0.2,0.3-0.3,0.5h-9.6
	c0.1-0.1,0.2-0.3,0.3-0.5c1.6-2.9,6.3-11.4,10.6-20.3c4.7-9.5,9-19.4,8.6-23C395.3,281.4,398.5,306,385.6,323.8z"/>
<path class="st2" d="M341.6,282.2H100.4V96.5h241.2V282.2z"/>
<path class="st3" d="M341.6,282.2H100.4V96.5h241.2V282.2z M103.9,278.6H338V100.1H103.9V278.6z"/>
<path class="st4" d="M163.5,236.5h-18.3c-1,0-1.9-0.8-1.9-1.9v-25.2c0-1,0.8-1.9,1.9-1.9h18.3c1,0,1.9,0.8,1.9,1.9v25.2
	C165.4,235.6,164.5,236.5,163.5,236.5z"/>
<path class="st4" d="M196.8,236.5h-18.3c-1,0-1.9-0.8-1.9-1.9v-49.1c0-1,0.8-1.9,1.9-1.9h18.3c1,0,1.9,0.8,1.9,1.9v49.1
	C198.7,235.6,197.8,236.5,196.8,236.5z"/>
<path class="st4" d="M230.1,236.5h-18.3c-1,0-1.9-0.8-1.9-1.9v-25.2c0-1,0.8-1.9,1.9-1.9h18.3c1,0,1.9,0.8,1.9,1.9v25.2
	C232,235.6,231.2,236.5,230.1,236.5z"/>
<path class="st4" d="M263.4,236.5h-18.3c-1,0-1.8-0.8-1.9-1.8V176c0-1,0.9-1.8,1.9-1.8h18.3c1,0,1.8,0.8,1.9,1.8v58.6
	C265.3,235.7,264.4,236.5,263.4,236.5z"/>
<path class="st5" d="M296.7,236.5h-18.3c-1,0-1.9-0.8-1.9-1.9v-75.4c0-1,0.8-1.9,1.9-1.9h18.3c1,0,1.9,0.8,1.9,1.9v75.4
	C298.6,235.6,297.8,236.5,296.7,236.5z"/>
<circle class="st6" cx="154.4" cy="196.3" r="3.8"/>
<circle class="st6" cx="187.7" cy="171.7" r="3.8"/>
<circle class="st6" cx="221" cy="196.3" r="3.8"/>
<circle class="st6" cx="254.3" cy="159.8" r="3.8"/>
<circle class="st6" cx="287.6" cy="146" r="3.8"/>
<polygon class="st6" points="221.1,197.1 187.7,172.1 154.8,196.8 154,195.8 187.7,170.5 220.9,195.4 253.9,159.3 254.1,159.2 
	287.4,145.8 287.8,147 254.7,160.3 "/>
<polygon class="st7" points="334.2,318.6 328.5,318.6 325.8,296.7 334.2,296.7 "/>
<path class="st8" d="M335.6,324.1l-18.3,0v-0.2c0-3.9,3.2-7.1,7.1-7.1h0l11.2,0L335.6,324.1z"/>
<path class="st8" d="M313.9,226l3.2,51.3l10.8,36.1l8.4,0.6l-4.2-44l1.8-29.2c0,0,8.7-6.5,3.9-14.4L313.9,226z"/>
<polygon class="st7" points="337.9,318.6 332.2,318.6 329.5,296.7 337.9,296.7 "/>
<path class="st8" d="M339.3,324.1l-18.3,0v-0.2c0-3.9,3.2-7.1,7.1-7.1h0l11.2,0L339.3,324.1z"/>
<path class="st8" d="M317.6,226l3.2,51.3l10.8,36.1l8.4,0.6l-4.2-44l1.8-29.2c0,0,8.7-6.5,3.9-14.4L317.6,226z"/>
<path class="st6" d="M335.1,233.9c-9.7,0-21-5.9-21.7-6.3l-0.2-0.1l22.2-56.6l11-5.2c2.6-1.2,5.8-0.1,7,2.5c0.4,0.9,0.6,1.9,0.5,2.8
	l-4.4,39.1l-4.5,20.2l0,0C342.4,233,338.8,233.9,335.1,233.9z"/>
<path class="st7" d="M299.6,196.5c2.2-1.4,5-0.7,6.4,1.4c0.1,0.2,0.3,0.5,0.4,0.7l16.5-0.9l-4.3,7.4l-15-0.3c-2.5,0.8-5.1-0.5-5.9-3
	C297,199.9,297.8,197.6,299.6,196.5L299.6,196.5z"/>
<path class="st6" d="M332.2,208.1l-16.5-0.4l0.2-10.9l7.8-2.5l12.8-18c2.7-3.7,7.8-4.6,11.5-1.9c3.7,2.7,4.6,7.8,1.9,11.5
	c-0.1,0.1-0.2,0.3-0.3,0.4L332.2,208.1z"/>
<circle class="st7" cx="341.8" cy="152.8" r="11"/>
<path class="st8" d="M327.9,143.6c1.1-1.1,2.6-1.9,4.1-2.2c1.5-0.3,3.2-0.4,4.4-1.4c1.4-1.1,2-3.2,3.7-3.7c0.7-0.1,1.5-0.1,2.2,0.2
	c2.7,0.8,5.1,2.4,6.9,4.6c0.4,0.6,1,1.2,1.6,1.6c0.4,0.2,0.7,0.3,1.1,0.5c0.4,0.3,0.7,0.7,0.9,1.2c1.2,2.5,1.5,5.3,0.8,8
	c-0.4,1.6-1.2,3-1.6,4.6c-0.5,1.6-2.6,4.6-3,3.9c-0.5-0.7-1.1-1.4-1.4-2.3c-0.5-1.7-0.1-3.4-1.4-4.6c-0.8-0.7-2.3-1.2-2.9-0.3
	c-0.2,0.4-0.2,0.8-0.4,1.2c-0.4,0.7-1.5,0.9-2.2,0.5c-0.7-0.5-1.2-1.2-1.4-2c-1.1-3.6-2.9-5.9-6.8-4.4c-1.5,0.6-3.2,1-4.6,0
	C326.2,147.7,326.6,145.1,327.9,143.6z"/>
<path class="st9" d="M303.2,242.5h-18.3c-1,0-1.9-0.8-1.9-1.9v-75.4c0-1,0.8-1.9,1.9-1.9h18.3c1,0,1.9,0.8,1.9,1.9v75.4
	C305.1,241.7,304.2,242.5,303.2,242.5z"/>
<path class="st7" d="M299.2,203c2.2-1.4,5-0.7,6.4,1.4c0.1,0.2,0.3,0.5,0.4,0.7l16.5-0.9l-4.3,7.4l-15-0.3c-2.5,0.8-5.1-0.5-5.9-3
	C296.5,206.4,297.3,204.1,299.2,203L299.2,203z"/>
<path class="st6" d="M331.8,214.6l-16.5-0.4l0.2-10.9l7.8-2.5l12.8-18c2.7-3.7,7.8-4.6,11.5-1.9c3.7,2.7,4.6,7.8,1.9,11.5
	c-0.1,0.1-0.2,0.3-0.3,0.4L331.8,214.6z"/>
<path class="st10" d="M404.1,324.8H227.8c-0.3,0-0.5-0.2-0.5-0.5c0-0.3,0.2-0.5,0.5-0.5c0,0,0,0,0,0h176.3c0.3,0,0.5,0.2,0.5,0.5
	S404.3,324.8,404.1,324.8C404.1,324.8,404.1,324.8,404.1,324.8z"/>
</svg>
