<?xml version="1.0" encoding="utf-8"?>
<!-- Generator: Adobe Illustrator 24.0.1, SVG Export Plug-In . SVG Version: 6.00 Build 0)  -->
<svg version="1.1" id="Layer_1" xmlns="http://www.w3.org/2000/svg" xmlns:xlink="http://www.w3.org/1999/xlink" x="0px" y="0px"
	 viewBox="0 0 1300 400" style="enable-background:new 0 0 1300 400;" xml:space="preserve">
<style type="text/css">
	.st0{opacity:5.000000e-02;fill:#020202;enable-background:new    ;}
	.st1{fill:url(#SVGID_1_);stroke:#000000;stroke-width:1.6452;stroke-miterlimit:10;}
	.st2{opacity:0.8;}
	.st3{fill:url(#SVGID_2_);}
	.st4{fill:#2B8ACA;}
	.st5{opacity:0.1;fill:#FFFFFF;enable-background:new    ;}
	.st6{opacity:0.15;fill:#537FC1;enable-background:new    ;}
	.st7{opacity:0.3;}
	.st8{fill:url(#SVGID_3_);}
	.st9{fill:#FFFFFF;}
	.st10{opacity:0.1;fill:#020202;enable-background:new    ;}
	.st11{fill:url(#SVGID_4_);}
	.st12{opacity:0.5;fill:#5D84C3;enable-background:new    ;}
	.st13{opacity:0.5;}
	.st14{fill:#6FC6A5;}
	.st15{opacity:0.5;fill:#F16147;enable-background:new    ;}
	.st16{fill:#73CAEC;}
	.st17{fill:#F16584;}
	.st18{fill:url(#SVGID_5_);}
	.st19{fill:url(#SVGID_6_);}
</style>
<ellipse class="st0" cx="1404.9" cy="1082.5" rx="8.3" ry="1.7"/>
<linearGradient id="SVGID_1_" gradientUnits="userSpaceOnUse" x1="0" y1="101.374" x2="1300" y2="101.374" gradientTransform="matrix(1 0 0 -1 0 302)">
	<stop  offset="0" style="stop-color:#007194"/>
	<stop  offset="1" style="stop-color:#41C1C9"/>
</linearGradient>
<rect y="0.6" class="st1" width="1300" height="400"/>
<g class="st2">
	
		<linearGradient id="SVGID_2_" gradientUnits="userSpaceOnUse" x1="207.4087" y1="564.5427" x2="207.4087" y2="509.2095" gradientTransform="matrix(1 0 0 1 0 -388)">
		<stop  offset="0" style="stop-color:#828282;stop-opacity:0.25"/>
		<stop  offset="0.54" style="stop-color:#828282;stop-opacity:0.12"/>
		<stop  offset="1" style="stop-color:#828282;stop-opacity:0.1"/>
	</linearGradient>
	<ellipse class="st3" cx="207.4" cy="148.8" rx="35.7" ry="27.7"/>
</g>
<ellipse class="st4" cx="207.4" cy="148.8" rx="34.9" ry="27.1"/>
<path class="st5" d="M178.1,151.8c0-14.9,15.6-27.1,34.9-27.1c6,0,11.9,1.2,17.4,3.6c-6.1-4.1-14.2-6.7-22.9-6.7
	c-19.3,0-34.9,12.1-34.9,27.1c0,10,7.1,18.8,17.5,23.5C182.7,167.2,178.1,160,178.1,151.8z"/>
<polygon class="st6" points="279.2,295.8 201.9,292.6 124.5,289.4 165.9,224 207.4,158.5 243.3,227.1 "/>
<g class="st7">
	
		<linearGradient id="SVGID_3_" gradientUnits="userSpaceOnUse" x1="225.5957" y1="2312.3833" x2="225.5957" y2="2267.157" gradientTransform="matrix(0.95 0.32 -0.32 0.95 721.48 -1998.26)">
		<stop  offset="0" style="stop-color:#828282;stop-opacity:0.25"/>
		<stop  offset="0.54" style="stop-color:#828282;stop-opacity:0.12"/>
		<stop  offset="1" style="stop-color:#828282;stop-opacity:0.1"/>
	</linearGradient>
	<path class="st8" d="M216.6,254.7l3-8.9c2.1-6.4-0.2-13.4-5.6-17.3l0,0c-1.2-0.8-2.5-1.5-3.8-2l0,0l0,0l0,0l0,0
		c-1.3-0.5-2.7-0.7-4.1-0.8c-0.5,0-1,0-1.5,0c-0.8,0-1.7,0.2-2.6,0.3c-0.2,0-0.5,0.1-0.7,0.2c-0.2,0.1-0.5,0.2-0.7,0.2
		c-0.5,0.2-0.9,0.3-1.4,0.5c-0.2,0.1-0.5,0.2-0.7,0.3c-0.7,0.3-1.3,0.7-1.9,1.1c-0.2,0.2-0.4,0.3-0.6,0.4c-2.4,1.8-4.2,4.3-5.2,7.2
		l-4.7,14c-0.7,2.2-1,4.6-0.7,6.9c0,0.3,0.1,0.7,0.2,1c0.1,0.3,0.2,0.7,0.2,1c0.1,0.2,0.1,0.5,0.2,0.7c0.1,0.3,0.2,0.7,0.4,1
		c0.1,0.2,0.2,0.4,0.3,0.7c0.2,0.4,0.4,0.8,0.7,1.3s0.5,0.8,0.8,1.2c0.2,0.3,0.4,0.6,0.7,0.8c0.3,0.4,0.6,0.7,1,1.1
		c1.5,1.5,3.2,2.6,5.1,3.4l0,0l0,0h0.1c0.1-0.2,0.2-0.3,0.3-0.5c0.7-1,2-1.7,3.2-1.5c0.1,0,0.2,0,0.3,0.1c0.6,0.2,1.2,0.6,1.8,0.8
		c0.4,0.2,0.9,0.2,1.4,0c1.2-0.6,0.7-2.6,1.8-3.5c0,0,0.1-0.1,0.2-0.1l0,0c0.8-0.5,1.9-0.2,2.8,0.2c1,0.3,2.3,0.6,2.9-0.2
		c0.5-0.5,0.4-1.4,0.8-2c0.5-0.7,1.5-0.7,2.3-0.6l0,0c1.6,0.7,3.3-0.4,3.2-2.1C215.7,257.3,216.4,255.1,216.6,254.7z"/>
</g>
<path class="st9" d="M195.5,267.8c0.7-1,1.9-1.7,3.1-1.4c1.2,0.3,2.3,1.4,3.3,0.8c1.4-0.8,0.4-3.6,2.7-3.8c0.5,0,1,0,1.4,0.2
	c1,0.4,2.5,0.8,3.3,0c0.5-0.5,0.4-1.3,0.8-1.9c0.5-0.7,1.4-0.7,2.2-0.6l0,0c1.5,0.6,3.2-0.4,3.1-2.1c-0.2-2.2,0.5-4.3,0.7-4.7
	l2.9-8.6c2.6-7.7-1.6-16-9.2-18.6l0,0c-7.7-2.6-16,1.6-18.6,9.2l-4.6,13.5c-2.5,7.4,1.3,15.4,8.5,18.3
	C195.3,268.2,195.4,268,195.5,267.8z"/>
<circle class="st9" cx="236.8" cy="235.4" r="2.4"/>
<circle class="st9" cx="244.3" cy="231.7" r="1.2"/>
<path class="st10" d="M240.9,140.8c0.5,1.8,0.7,3.6,0.7,5.4c0,14.9-15.6,27.1-34.9,27.1c-15.8,0-29.1-8.1-33.4-19.3
	c3.2,12.4,17.3,21.7,34.2,21.7c19.3,0,34.9-12.1,34.9-27.1C242.4,145.9,241.9,143.3,240.9,140.8z"/>
<g class="st2">
	
		<linearGradient id="SVGID_4_" gradientUnits="userSpaceOnUse" x1="207.4087" y1="567.5427" x2="207.4087" y2="529.7841" gradientTransform="matrix(1 0 0 1 0 -388)">
		<stop  offset="0" style="stop-color:#828282;stop-opacity:0.25"/>
		<stop  offset="0.54" style="stop-color:#828282;stop-opacity:0.12"/>
		<stop  offset="1" style="stop-color:#828282;stop-opacity:0.1"/>
	</linearGradient>
	<ellipse class="st11" cx="207.4" cy="160.6" rx="72.3" ry="18.9"/>
</g>
<path class="st9" d="M207.4,142.3c-38.6,0-69.9,8.2-69.9,18.3h139.7C277.2,150.5,245.9,142.3,207.4,142.3z"/>
<path class="st9" d="M207.4,178.9c38.6,0,69.9-8.2,69.9-18.3H137.5C137.5,170.7,168.8,178.9,207.4,178.9z"/>
<path class="st0" d="M207.4,178.9c38.6,0,69.9-8.2,69.9-18.3H137.5C137.5,170.7,168.8,178.9,207.4,178.9z"/>
<path class="st0" d="M178.2,155.8h58.3c2.3,0,4.2,1.9,4.2,4.2v1.1c0,2.3-1.9,4.2-4.2,4.2h-58.3c-2.3,0-4.2-1.9-4.2-4.2V160
	C174,157.7,175.9,155.8,178.2,155.8z"/>
<path class="st12" d="M134.7,130.6c-0.4-0.2-0.6-0.7-0.5-1.1v-0.1l0,0c0-0.2-0.2-0.5-0.4-0.5c-0.2,0-0.3,0.1-0.4,0.2l0,0
	c0,0,0,0,0,0.1c-0.2,0.4-0.7,0.7-1.1,0.5h-0.1l0,0c-0.2,0-0.5,0.2-0.5,0.4c0,0.2,0.1,0.3,0.2,0.4l0,0c0,0,0,0,0.1,0
	c0.4,0.2,0.6,0.7,0.5,1.1v0.1l0,0c0,0.2,0.2,0.5,0.4,0.5c0.2,0,0.3,0,0.4-0.2l0,0v-0.1c0.2-0.4,0.7-0.6,1.1-0.5h0.1l0,0
	c0.2,0,0.5-0.2,0.5-0.4C134.9,130.9,134.9,130.8,134.7,130.6L134.7,130.6C134.7,130.7,134.7,130.6,134.7,130.6z"/>
<path class="st12" d="M258.8,205.3c-0.4-0.2-0.6-0.7-0.5-1.1v-0.1l0,0c0-0.2-0.2-0.5-0.4-0.5c-0.2,0-0.3,0.1-0.4,0.2l0,0
	c0,0,0,0,0,0.1c-0.2,0.4-0.7,0.7-1.1,0.5h-0.1l0,0c-0.2,0-0.5,0.2-0.5,0.4s0.1,0.3,0.2,0.4l0,0c0,0,0,0,0.1,0
	c0.4,0.2,0.6,0.7,0.5,1.1v0.1l0,0c0,0.2,0.2,0.5,0.4,0.5c0.2,0,0.3,0,0.4-0.2l0,0v-0.1c0.2-0.4,0.7-0.6,1.1-0.5h0.1l0,0
	c0.2,0,0.5-0.2,0.5-0.4S259,205.4,258.8,205.3L258.8,205.3C258.9,205.3,258.8,205.3,258.8,205.3z"/>
<path class="st12" d="M121.7,239.9c-0.4-0.2-0.6-0.7-0.5-1.1v-0.1l0,0c0-0.2-0.2-0.5-0.4-0.5c-0.2,0-0.3,0.1-0.4,0.2l0,0
	c0,0,0,0,0,0.1c-0.2,0.4-0.7,0.7-1.1,0.5h-0.1l0,0c-0.2,0-0.5,0.2-0.5,0.4s0.1,0.3,0.2,0.4l0,0c0,0,0,0,0.1,0
	c0.4,0.2,0.6,0.7,0.5,1.1v0.1l0,0c0,0.2,0.2,0.5,0.4,0.5c0.2,0,0.3,0,0.4-0.2l0,0v-0.1c0.2-0.4,0.7-0.6,1.1-0.5h0.1l0,0
	c0.2,0,0.5-0.2,0.5-0.4C122,240.2,121.9,240,121.7,239.9L121.7,239.9C121.8,240,121.8,239.9,121.7,239.9z"/>
<path class="st12" d="M108.3,159.2c-0.4-0.2-0.6-0.7-0.5-1.1V158l0,0c0-0.2-0.2-0.5-0.4-0.5s-0.3,0.1-0.4,0.2l0,0c0,0,0,0,0,0.1
	c-0.2,0.4-0.7,0.7-1.1,0.5h-0.1l0,0c-0.2,0-0.5,0.2-0.5,0.4s0.1,0.3,0.2,0.4l0,0c0,0,0,0,0.1,0c0.4,0.2,0.6,0.7,0.5,1.1v0.1l0,0
	c0,0.2,0.2,0.5,0.4,0.5s0.3,0,0.4-0.2l0,0v-0.1c0.2-0.4,0.7-0.6,1.1-0.5h0.1l0,0c0.2,0,0.5-0.2,0.5-0.4
	C108.6,159.5,108.5,159.3,108.3,159.2L108.3,159.2C108.4,159.2,108.3,159.2,108.3,159.2z"/>
<path class="st12" d="M256.4,118.2c-0.4-0.2-0.6-0.7-0.5-1.1V117l0,0c0-0.2-0.2-0.5-0.4-0.5c-0.2,0-0.3,0.1-0.4,0.2l0,0
	c0,0,0,0,0,0.1c-0.2,0.4-0.7,0.6-1.1,0.5h-0.1l0,0c-0.2,0-0.5,0.1-0.5,0.3c0,0.2,0,0.4,0.2,0.5l0,0c0,0,0,0,0.1,0
	c0.4,0.2,0.6,0.7,0.5,1.1v0.1l0,0c0,0.2,0.2,0.5,0.4,0.5c0.2,0,0.3-0.1,0.4-0.2l0,0v-0.1c0.2-0.4,0.7-0.6,1.1-0.5h0.1l0,0
	c0.2,0,0.5-0.2,0.5-0.4C256.7,118.4,256.6,118.3,256.4,118.2L256.4,118.2C256.4,118.2,256.4,118.2,256.4,118.2z"/>
<g class="st13">
	<rect x="128.8" y="179.4" class="st14" width="0.7" height="4.1"/>
	<rect x="127.1" y="181.1" class="st14" width="4.1" height="0.7"/>
</g>
<g class="st13">
	<rect x="304.5" y="159.9" class="st14" width="0.7" height="4.1"/>
	<rect x="302.7" y="161.6" class="st14" width="4.1" height="0.7"/>
</g>
<circle class="st15" cx="278.3" cy="136.5" r="1.5"/>
<circle class="st15" cx="103.5" cy="119.7" r="1.5"/>
<circle class="st15" cx="147.4" cy="203.8" r="1.5"/>
<ellipse class="st0" cx="159.1" cy="154.2" rx="8.3" ry="1.7"/>
<ellipse class="st0" cx="159.1" cy="167.1" rx="8.3" ry="1.7"/>
<ellipse class="st0" cx="253.5" cy="154.2" rx="8.3" ry="1.7"/>
<ellipse class="st0" cx="253.5" cy="167.1" rx="8.3" ry="1.7"/>
<ellipse class="st0" cx="207.4" cy="146.9" rx="8.3" ry="1.7"/>
<ellipse class="st0" cx="213.5" cy="129.1" rx="8.3" ry="1.7"/>
<ellipse class="st0" cx="197.6" cy="136.4" rx="8.3" ry="1.7"/>
<ellipse class="st0" cx="228.1" cy="139.6" rx="8.3" ry="1.7"/>
<g id="Layer_5_1_">
	<path class="st16" d="M215.1,248.2c0,0-4.9-3.7-10.1-5.4s-9.1-2.3-13.1-1.8c0,0,5.5-7.3,13.6-3.8S215.1,248.2,215.1,248.2z"/>
	
		<ellipse transform="matrix(0.4331 -0.9013 0.9013 0.4331 -95.9249 313.3006)" class="st16" cx="201.1" cy="232.9" rx="1.6" ry="1.8"/>
	
		<ellipse transform="matrix(0.9999 -1.014118e-02 1.014118e-02 0.9999 -2.3828 2.1525)" class="st16" cx="211.1" cy="236" rx="1.8" ry="1.6"/>
</g>
<path class="st17" d="M156.3,220.2l-0.3-0.1c-0.3-0.1-0.7,0-0.7,0.3l-1.6,5.2l-5-2c-0.3-0.1-0.7,0-0.7,0.3l-0.1,0.3
	c-0.1,0.3,0.1,0.7,0.4,0.8l0,0l5,2l-1.6,5.2c-0.1,0.3,0.1,0.7,0.4,0.8l0.3,0.1c0.3,0.1,0.7,0,0.7-0.3l1.6-5.2l5,2
	c0.3,0.1,0.7,0,0.7-0.3l0.1-0.3c0.1-0.3-0.1-0.7-0.4-0.8l-5-2l1.6-5.2C156.8,220.6,156.6,220.3,156.3,220.2z"/>
<path class="st4" d="M164.8,215.7c-5.4-6.3-15-7-21.2-1.5c-0.1,0.1-0.2,0.2-0.3,0.2c-6,5.4-6.6,14.8-1.3,20.9
	c4.8,5.6,12.9,6.9,19.2,3.1l10.3,11.9c0.3,0.3,0.7,0.3,1,0.1l2.8-2.5c0.3-0.3,0.3-0.7,0.1-1L165.1,235
	C169.7,229.4,169.6,221.2,164.8,215.7z M160.4,233.7c-4.5,3.9-11.3,3.4-15.2-1.1c-3.9-4.5-3.4-11.3,1.1-15.2s11.3-3.4,15.2,1.1
	C165.4,223,164.9,229.8,160.4,233.7L160.4,233.7z"/>
<linearGradient id="SVGID_5_" gradientUnits="userSpaceOnUse" x1="361.8459" y1="639.1578" x2="361.8459" y2="631.7871" gradientTransform="matrix(0.9991 -4.238051e-02 4.238051e-02 0.9991 -235.462 -399.3951)">
	<stop  offset="0" style="stop-color:#020202;stop-opacity:0.12"/>
	<stop  offset="0.55" style="stop-color:#020202;stop-opacity:9.000000e-02"/>
	<stop  offset="1" style="stop-color:#020202;stop-opacity:2.000000e-02"/>
</linearGradient>
<path class="st18" d="M152.6,216.4c-3.5,0-6.5,2.3-8,5.5c-0.5,1,1.1,1.9,1.6,0.8c1.3-2.7,3.8-4.5,6.6-4.5c3,0,5.8,1.9,7.3,4.7
	c0.6,1.1,2,0,1.4-1C159.6,218.6,156.1,216.4,152.6,216.4z"/>
<path class="st4" d="M152.8,215.6c-3.4,0-6.4,2.1-8,5.2c-0.5,1,1.1,1.8,1.6,0.8c1.3-2.5,3.8-4.2,6.6-4.2c3,0,5.7,1.8,7.3,4.4
	c0.6,1,2,0,1.4-1C159.7,217.6,156.3,215.5,152.8,215.6z"/>
<linearGradient id="SVGID_6_" gradientUnits="userSpaceOnUse" x1="353.1145" y1="640.9008" x2="353.1145" y2="639.1574" gradientTransform="matrix(0.9991 -4.238051e-02 4.238051e-02 0.9991 -235.462 -399.3951)">
	<stop  offset="0" style="stop-color:#020202;stop-opacity:0.12"/>
	<stop  offset="0.55" style="stop-color:#020202;stop-opacity:9.000000e-02"/>
	<stop  offset="1" style="stop-color:#020202;stop-opacity:2.000000e-02"/>
</linearGradient>
<path class="st19" d="M144.4,224.2c-1.1,0-1,1.8,0.1,1.7S145.5,224.1,144.4,224.2z"/>
<path class="st4" d="M144.3,223.5c-1.2,0-1.2,2,0.1,1.9S145.5,223.4,144.3,223.5z"/>
</svg>
