<?xml version="1.0" encoding="utf-8"?>
<!-- Generator: Adobe Illustrator 24.0.1, SVG Export Plug-In . SVG Version: 6.00 Build 0)  -->
<svg version="1.1" id="Layer_1" xmlns="http://www.w3.org/2000/svg" xmlns:xlink="http://www.w3.org/1999/xlink" x="0px" y="0px"
	 viewBox="0 0 1300 400" style="enable-background:new 0 0 1300 400;" xml:space="preserve">
<style type="text/css">
	.st0{fill:url(#SVGID_1_);stroke:#000000;stroke-width:1.6452;stroke-miterlimit:10;}
	.st1{fill:#F2F2F2;}
	.st2{fill:#3F3D56;}
	.st3{fill:#63C7FF;}
	.st4{fill:#2F2E41;}
	.st5{fill:#FFFFFF;}
	.st6{fill:#FFB6B6;}
	.st7{fill:#E6E6E6;}
	.st8{opacity:0.2;enable-background:new    ;}
</style>
<linearGradient id="SVGID_1_" gradientUnits="userSpaceOnUse" x1="0" y1="-190" x2="1300" y2="-190" gradientTransform="matrix(1 0 0 -1 0 10)">
	<stop  offset="0" style="stop-color:#007194"/>
	<stop  offset="1" style="stop-color:#41C1C9"/>
</linearGradient>
<rect class="st0" width="1300" height="400"/>
<ellipse class="st1" cx="298.3" cy="120.5" rx="10.7" ry="10.9"/>
<path class="st1" d="M381.5,293.5c15.9-12.4,23.6-33.1,18.8-53c-0.1-0.5-0.2-1-0.4-1.5c-3.2-11.8-11-22.9-22.4-26.7
	c-9.6-3.2-20-0.7-30-2c-19.6-2.5-34.8-18.6-45.5-35.5S283.1,139,268.9,125c-23.4-23-61.6-28-90.6-13s-47.5,48.2-46.7,81.4
	c0.8,33.1,20.1,64.8,48.2,81.6c10.3,6.2,22.2,10.5,34.1,9c10.3-1.3,19.6-7,29.9-8.6c16.1-2.6,32.1,4.8,46,13.4s27.4,18.9,43.2,22.9
	C348.3,315.7,367.4,304.5,381.5,293.5z"/>
<path class="st2" d="M358.6,112.8c-0.3-0.2-0.7-0.5-1.1-0.7c-10.1-6.6-20.9-11.9-32.3-15.9l-2.6,36.9h-16.7V90.8
	c-1-0.2-2.1-0.4-3.2-0.6v42.9h-19.8c-22.7,0-41.1-18.7-41.1-41.8l0,0c-1.1,0.2-2.1,0.5-3.2,0.7v41.1h-16.1L220,97.9
	c-11.6,4.5-22.7,10.5-32.9,17.8c-0.2,0.1-0.4,0.2-0.5,0.4c-0.9,0.6-1.8,1.3-2.6,1.9v140.8h47.5l-0.8-11.8l-4.6-65h93l-4.6,65
	l-0.8,11.8h47V114.2C360,113.7,359.3,113.3,358.6,112.8z M238.8,171.2h-13.4l-2.5-34.9h15.9V171.2z M302.8,171.2h-22.5v-0.7
	c0-1.4-1.1-2.5-2.5-2.5l0,0H268c-1.4,0-2.5,1.1-2.5,2.5l0,0v0.7h-23.6v-34.9h60.9V171.2z M306,171.2v-34.9h16.4l-2.5,34.9H306z"/>
<path class="st2" d="M114.1,267.8c3.5,4.2,7.3,8.2,11.3,11.8l293.5,0.4c4-3.7,7.8-7.6,11.3-11.8L114.1,267.8z"/>
<path class="st2" d="M313.2,229.9V265c0,0.9,0.7,1.7,1.7,1.7h51c0.9,0,1.7-0.8,1.7-1.7v-35.1c0-0.9-0.7-1.7-1.7-1.7h-51
	C313.9,228.2,313.2,229,313.2,229.9z"/>
<path class="st3" d="M314.4,230.3v34.2c0,0.5,0.4,0.9,0.9,0.9h50.2c0.5,0,0.9-0.4,0.9-0.9v-34.2c0-0.5-0.4-0.9-0.9-0.9h-50.2
	C314.8,229.4,314.4,229.8,314.4,230.3z"/>
<path class="st4" d="M312.1,271.8c0.2,0.2,0.5,0.4,0.8,0.4h54.6c0.6,0,1-0.5,1-1c0-0.1,0-0.1,0-0.2l-0.8-4.1
	c-0.1-0.3-0.3-0.6-0.6-0.7c-0.1,0-0.2-0.1-0.4-0.1h-52.9c-0.1,0-0.2,0-0.4,0.1c-0.3,0.1-0.6,0.4-0.6,0.7L312,271
	C311.9,271.2,311.9,271.5,312.1,271.8z"/>
<path class="st2" d="M366.1,267.8h-1.3c-0.1,0-0.2-0.1-0.2-0.2V267c0-0.1,0.1-0.2,0.2-0.2h1.3c0.1,0,0.2,0.1,0.2,0.2v0.6
	C366.3,267.7,366.2,267.8,366.1,267.8z"/>
<path class="st2" d="M362.7,267.8h-1.3c-0.1,0-0.2-0.1-0.2-0.2V267c0-0.1,0.1-0.2,0.2-0.2h1.3c0.1,0,0.2,0.1,0.2,0.2v0.6
	C362.9,267.7,362.8,267.8,362.7,267.8z"/>
<path class="st2" d="M359.4,267.8h-1.3c-0.1,0-0.2-0.1-0.2-0.2V267c0-0.1,0.1-0.2,0.2-0.2h1.3c0.1,0,0.2,0.1,0.2,0.2v0.6
	C359.6,267.7,359.5,267.8,359.4,267.8z"/>
<path class="st2" d="M356,267.8h-1.3c-0.1,0-0.2-0.1-0.2-0.2V267c0-0.1,0.1-0.2,0.2-0.2h1.3c0.1,0,0.2,0.1,0.2,0.2v0.6
	C356.2,267.7,356.1,267.8,356,267.8z"/>
<path class="st2" d="M352.6,267.8h-1.3c-0.1,0-0.2-0.1-0.2-0.2V267c0-0.1,0.1-0.2,0.2-0.2h1.3c0.1,0,0.2,0.1,0.2,0.2v0.6
	C352.8,267.7,352.7,267.8,352.6,267.8z"/>
<path class="st2" d="M349.3,267.8H348c-0.1,0-0.2-0.1-0.2-0.2V267c0-0.1,0.1-0.2,0.2-0.2h1.3c0.1,0,0.2,0.1,0.2,0.2v0.6
	C349.5,267.7,349.4,267.8,349.3,267.8z"/>
<path class="st2" d="M345.9,267.8h-1.3c-0.1,0-0.2-0.1-0.2-0.2V267c0-0.1,0.1-0.2,0.2-0.2h1.3c0.1,0,0.2,0.1,0.2,0.2v0.6
	C346.1,267.7,346,267.8,345.9,267.8z"/>
<path class="st2" d="M342.5,267.8h-1.3c-0.1,0-0.2-0.1-0.2-0.2V267c0-0.1,0.1-0.2,0.2-0.2h1.3c0.1,0,0.2,0.1,0.2,0.2v0.6
	C342.7,267.7,342.7,267.8,342.5,267.8z"/>
<path class="st2" d="M339.2,267.8h-1.3c-0.1,0-0.2-0.1-0.2-0.2V267c0-0.1,0.1-0.2,0.2-0.2h1.3c0.1,0,0.2,0.1,0.2,0.2v0.6
	C339.4,267.7,339.3,267.8,339.2,267.8z"/>
<path class="st2" d="M335.8,267.8h-1.3c-0.1,0-0.2-0.1-0.2-0.2V267c0-0.1,0.1-0.2,0.2-0.2h1.3c0.1,0,0.2,0.1,0.2,0.2v0.6
	C336,267.7,335.9,267.8,335.8,267.8z"/>
<path class="st2" d="M332.4,267.8h-1.3c-0.1,0-0.2-0.1-0.2-0.2V267c0-0.1,0.1-0.2,0.2-0.2h1.3c0.1,0,0.2,0.1,0.2,0.2v0.6
	C332.6,267.7,332.6,267.8,332.4,267.8z"/>
<path class="st2" d="M329.1,267.8h-1.3c-0.1,0-0.2-0.1-0.2-0.2V267c0-0.1,0.1-0.2,0.2-0.2h1.3c0.1,0,0.2,0.1,0.2,0.2v0.6
	C329.3,267.7,329.2,267.8,329.1,267.8z"/>
<path class="st2" d="M325.7,267.8h-1.3c-0.1,0-0.2-0.1-0.2-0.2V267c0-0.1,0.1-0.2,0.2-0.2h1.3c0.1,0,0.2,0.1,0.2,0.2v0.6
	C325.9,267.7,325.8,267.8,325.7,267.8z"/>
<path class="st2" d="M322.3,267.8H321c-0.1,0-0.2-0.1-0.2-0.2V267c0-0.1,0.1-0.2,0.2-0.2h1.3c0.1,0,0.2,0.1,0.2,0.2v0.6
	C322.5,267.7,322.5,267.8,322.3,267.8z"/>
<path class="st2" d="M319,267.8h-1.3c-0.1,0-0.2-0.1-0.2-0.2V267c0-0.1,0.1-0.2,0.2-0.2h1.3c0.1,0,0.2,0.1,0.2,0.2v0.6
	C319.2,267.7,319.1,267.8,319,267.8z"/>
<path class="st2" d="M315.6,267.8h-1.3c-0.1,0-0.2-0.1-0.2-0.2V267c0-0.1,0.1-0.2,0.2-0.2h1.3c0.1,0,0.2,0.1,0.2,0.2v0.6
	C315.8,267.7,315.7,267.8,315.6,267.8z"/>
<path class="st2" d="M366.1,269.5h-1.3c-0.1,0-0.2-0.1-0.2-0.2v-0.6c0-0.1,0.1-0.2,0.2-0.2h1.3c0.1,0,0.2,0.1,0.2,0.2v0.6
	C366.3,269.4,366.2,269.5,366.1,269.5z"/>
<path class="st2" d="M362.8,269.5h-1.3c-0.1,0-0.2-0.1-0.2-0.2v-0.6c0-0.1,0.1-0.2,0.2-0.2h1.3c0.1,0,0.2,0.1,0.2,0.2v0.6
	C363,269.4,362.9,269.5,362.8,269.5z"/>
<path class="st2" d="M359.4,269.5h-1.3c-0.1,0-0.2-0.1-0.2-0.2v-0.6c0-0.1,0.1-0.2,0.2-0.2h1.3c0.1,0,0.2,0.1,0.2,0.2v0.6
	C359.6,269.4,359.5,269.5,359.4,269.5z"/>
<path class="st2" d="M356,269.5h-1.3c-0.1,0-0.2-0.1-0.2-0.2v-0.6c0-0.1,0.1-0.2,0.2-0.2h1.3c0.1,0,0.2,0.1,0.2,0.2v0.6
	C356.2,269.4,356.2,269.5,356,269.5z"/>
<path class="st2" d="M352.7,269.5h-1.3c-0.1,0-0.2-0.1-0.2-0.2v-0.6c0-0.1,0.1-0.2,0.2-0.2h1.3c0.1,0,0.2,0.1,0.2,0.2v0.6
	C352.9,269.4,352.8,269.5,352.7,269.5z"/>
<path class="st2" d="M349.3,269.5H348c-0.1,0-0.2-0.1-0.2-0.2v-0.6c0-0.1,0.1-0.2,0.2-0.2h1.3c0.1,0,0.2,0.1,0.2,0.2v0.6
	C349.5,269.4,349.4,269.5,349.3,269.5z"/>
<path class="st2" d="M345.9,269.5h-1.3c-0.1,0-0.2-0.1-0.2-0.2v-0.6c0-0.1,0.1-0.2,0.2-0.2h1.3c0.1,0,0.2,0.1,0.2,0.2v0.6
	C346.1,269.4,346.1,269.5,345.9,269.5z"/>
<path class="st2" d="M342.6,269.5h-1.3c-0.1,0-0.2-0.1-0.2-0.2v-0.6c0-0.1,0.1-0.2,0.2-0.2h1.3c0.1,0,0.2,0.1,0.2,0.2v0.6
	C342.8,269.4,342.7,269.5,342.6,269.5z"/>
<path class="st2" d="M339.2,269.5h-1.3c-0.1,0-0.2-0.1-0.2-0.2v-0.6c0-0.1,0.1-0.2,0.2-0.2h1.3c0.1,0,0.2,0.1,0.2,0.2v0.6
	C339.4,269.4,339.3,269.5,339.2,269.5z"/>
<path class="st2" d="M335.9,269.5h-1.3c-0.1,0-0.2-0.1-0.2-0.2v-0.6c0-0.1,0.1-0.2,0.2-0.2h1.3c0.1,0,0.2,0.1,0.2,0.2v0.6
	C336,269.4,336,269.5,335.9,269.5z"/>
<path class="st2" d="M332.5,269.5h-1.3c-0.1,0-0.2-0.1-0.2-0.2v-0.6c0-0.1,0.1-0.2,0.2-0.2h1.3c0.1,0,0.2,0.1,0.2,0.2v0.6
	C332.7,269.4,332.6,269.5,332.5,269.5z"/>
<path class="st2" d="M329.1,269.5h-1.3c-0.1,0-0.2-0.1-0.2-0.2v-0.6c0-0.1,0.1-0.2,0.2-0.2h1.3c0.1,0,0.2,0.1,0.2,0.2v0.6
	C329.3,269.4,329.2,269.5,329.1,269.5z"/>
<path class="st2" d="M325.8,269.5h-1.3c-0.1,0-0.2-0.1-0.2-0.2v-0.6c0-0.1,0.1-0.2,0.2-0.2h1.3c0.1,0,0.2,0.1,0.2,0.2v0.6
	C326,269.4,325.9,269.5,325.8,269.5z"/>
<path class="st2" d="M322.4,269.5h-1.3c-0.1,0-0.2-0.1-0.2-0.2v-0.6c0-0.1,0.1-0.2,0.2-0.2h1.3c0.1,0,0.2,0.1,0.2,0.2v0.6
	C322.6,269.4,322.5,269.5,322.4,269.5z"/>
<path class="st2" d="M319,269.5h-1.3c-0.1,0-0.2-0.1-0.2-0.2v-0.6c0-0.1,0.1-0.2,0.2-0.2h1.3c0.1,0,0.2,0.1,0.2,0.2v0.6
	C319.2,269.4,319.1,269.5,319,269.5z"/>
<path class="st2" d="M315.7,269.5h-1.3c-0.1,0-0.2-0.1-0.2-0.2v-0.6c0-0.1,0.1-0.2,0.2-0.2h1.3c0.1,0,0.2,0.1,0.2,0.2v0.6
	C315.9,269.4,315.8,269.5,315.7,269.5z"/>
<path class="st2" d="M350,271.5h-13.1c-0.1,0-0.2-0.1-0.2-0.2v-0.6c0-0.1,0.1-0.2,0.2-0.2H350c0.1,0,0.2,0.1,0.2,0.2v0.6
	C350.2,271.5,350.1,271.5,350,271.5z"/>
<path class="st5" d="M321.9,236.9h1.1c0.3,0,0.6,0.3,0.6,0.6l0,0c0,0.4-0.3,0.6-0.6,0.6h-1.1c-0.3,0-0.6-0.3-0.6-0.6l0,0
	C321.3,237.2,321.6,236.9,321.9,236.9z"/>
<path class="st5" d="M335,236.9h1.1c0.3,0,0.6,0.3,0.6,0.6l0,0c0,0.4-0.3,0.6-0.6,0.6H335c-0.3,0-0.6-0.3-0.6-0.6l0,0
	C334.4,237.2,334.6,236.9,335,236.9z"/>
<path class="st5" d="M338.7,236.9h1.1c0.3,0,0.6,0.3,0.6,0.6l0,0c0,0.4-0.3,0.6-0.6,0.6h-1.1c-0.3,0-0.6-0.3-0.6-0.6l0,0
	C338.1,237.2,338.3,236.9,338.7,236.9z"/>
<path class="st5" d="M325.5,236.8h7.1c0.3,0,0.6,0.3,0.6,0.6l0,0c0,0.4-0.3,0.6-0.6,0.6h-7.1c-0.3,0-0.6-0.3-0.6-0.6l0,0
	C324.9,237.1,325.1,236.8,325.5,236.8z"/>
<path class="st5" d="M342.9,236.8h7.1c0.3,0,0.6,0.3,0.6,0.6l0,0c0,0.4-0.3,0.6-0.6,0.6h-7.1c-0.3,0-0.6-0.3-0.6-0.6l0,0
	C342.3,237.1,342.6,236.8,342.9,236.8z"/>
<path class="st5" d="M325.4,239.8h1.1c0.3,0,0.6,0.3,0.6,0.6l0,0c0,0.4-0.3,0.6-0.6,0.6h-1.1c-0.3,0-0.6-0.3-0.6-0.6l0,0
	C324.8,240.1,325.1,239.8,325.4,239.8z"/>
<path class="st5" d="M338.5,239.8h1.1c0.3,0,0.6,0.3,0.6,0.6l0,0c0,0.4-0.3,0.6-0.6,0.6h-1.1c-0.3,0-0.6-0.3-0.6-0.6l0,0
	C337.9,240.1,338.1,239.8,338.5,239.8z"/>
<path class="st5" d="M342.2,239.8h1.1c0.3,0,0.6,0.3,0.6,0.6l0,0c0,0.4-0.3,0.6-0.6,0.6h-1.1c-0.3,0-0.6-0.3-0.6-0.6l0,0
	C341.6,240.1,341.8,239.8,342.2,239.8z"/>
<path class="st5" d="M329,239.7h7.1c0.3,0,0.6,0.3,0.6,0.6l0,0c0,0.4-0.3,0.6-0.6,0.6H329c-0.3,0-0.6-0.3-0.6-0.6l0,0
	C328.3,240,328.6,239.7,329,239.7z"/>
<path class="st5" d="M346.4,239.7h7.1c0.3,0,0.6,0.3,0.6,0.6l0,0c0,0.4-0.3,0.6-0.6,0.6h-7.1c-0.3,0-0.6-0.3-0.6-0.6l0,0
	C345.8,240,346,239.7,346.4,239.7z"/>
<path class="st5" d="M328.9,242.7h1.1c0.3,0,0.6,0.3,0.6,0.6l0,0c0,0.4-0.3,0.6-0.6,0.6h-1.1c-0.3,0-0.6-0.3-0.6-0.6l0,0
	C328.3,243,328.5,242.7,328.9,242.7z"/>
<path class="st5" d="M342,242.7h1.1c0.3,0,0.6,0.3,0.6,0.6l0,0c0,0.4-0.3,0.6-0.6,0.6H342c-0.3,0-0.6-0.3-0.6-0.6l0,0
	C341.3,243,341.6,242.7,342,242.7z"/>
<path class="st5" d="M345.7,242.7h1.1c0.3,0,0.6,0.3,0.6,0.6l0,0c0,0.4-0.3,0.6-0.6,0.6h-1.1c-0.3,0-0.6-0.3-0.6-0.6l0,0
	C345,243,345.3,242.7,345.7,242.7z"/>
<path class="st5" d="M332.4,242.6h7.1c0.3,0,0.6,0.3,0.6,0.6l0,0c0,0.4-0.3,0.6-0.6,0.6h-7.1c-0.3,0-0.6-0.3-0.6-0.6l0,0
	C331.8,242.8,332.1,242.6,332.4,242.6z"/>
<path class="st5" d="M349.9,242.6h7.1c0.3,0,0.6,0.3,0.6,0.6l0,0c0,0.4-0.3,0.6-0.6,0.6h-7.1c-0.3,0-0.6-0.3-0.6-0.6l0,0
	C349.2,242.8,349.5,242.6,349.9,242.6z"/>
<path class="st5" d="M332.4,245.5h1.1c0.3,0,0.6,0.3,0.6,0.6l0,0c0,0.4-0.3,0.6-0.6,0.6h-1.1c-0.3,0-0.6-0.3-0.6-0.6l0,0
	C331.8,245.8,332,245.5,332.4,245.5z"/>
<path class="st5" d="M345.4,245.5h1.1c0.3,0,0.6,0.3,0.6,0.6l0,0c0,0.4-0.3,0.6-0.6,0.6h-1.1c-0.3,0-0.6-0.3-0.6-0.6l0,0
	C344.8,245.8,345.1,245.5,345.4,245.5z"/>
<path class="st5" d="M349.1,245.5h1.1c0.3,0,0.6,0.3,0.6,0.6l0,0c0,0.4-0.3,0.6-0.6,0.6h-1.1c-0.3,0-0.6-0.3-0.6-0.6l0,0
	C348.5,245.8,348.8,245.5,349.1,245.5z"/>
<path class="st5" d="M335.9,245.4h7.1c0.3,0,0.6,0.3,0.6,0.6l0,0c0,0.4-0.3,0.6-0.6,0.6h-7.1c-0.3,0-0.6-0.3-0.6-0.6l0,0
	C335.3,245.7,335.6,245.4,335.9,245.4z"/>
<path class="st5" d="M335,257h1.1c0.3,0,0.6,0.3,0.6,0.6l0,0c0,0.4-0.3,0.6-0.6,0.6H335c-0.3,0-0.6-0.3-0.6-0.6l0,0
	C334.4,257.3,334.6,257,335,257z"/>
<path class="st5" d="M338.7,257h1.1c0.3,0,0.6,0.3,0.6,0.6l0,0c0,0.4-0.3,0.6-0.6,0.6h-1.1c-0.3,0-0.6-0.3-0.6-0.6l0,0
	C338.1,257.3,338.3,257,338.7,257z"/>
<path class="st5" d="M342.9,257.1h7.1c0.3,0,0.6,0.3,0.6,0.6l0,0c0,0.4-0.3,0.6-0.6,0.6h-7.1c-0.3,0-0.6-0.3-0.6-0.6l0,0
	C342.3,257.4,342.6,257.1,342.9,257.1z"/>
<path class="st5" d="M321.9,257h1.1c0.3,0,0.6,0.3,0.6,0.6l0,0c0,0.4-0.3,0.6-0.6,0.6h-1.1c-0.3,0-0.6-0.3-0.6-0.6l0,0
	C321.3,257.3,321.6,257,321.9,257z"/>
<path class="st5" d="M325.5,257.1h7.1c0.3,0,0.6,0.3,0.6,0.6l0,0c0,0.4-0.3,0.6-0.6,0.6h-7.1c-0.3,0-0.6-0.3-0.6-0.6l0,0
	C324.9,257.4,325.1,257.1,325.5,257.1z"/>
<path class="st5" d="M325.4,254.1h1.1c0.3,0,0.6,0.3,0.6,0.6l0,0c0,0.4-0.3,0.6-0.6,0.6h-1.1c-0.3,0-0.6-0.3-0.6-0.6l0,0
	C324.8,254.4,325.1,254.1,325.4,254.1z"/>
<path class="st5" d="M338.5,254.1h1.1c0.3,0,0.6,0.3,0.6,0.6l0,0c0,0.4-0.3,0.6-0.6,0.6h-1.1c-0.3,0-0.6-0.3-0.6-0.6l0,0
	C337.9,254.4,338.1,254.1,338.5,254.1z"/>
<path class="st5" d="M342.2,254.1h1.1c0.3,0,0.6,0.3,0.6,0.6l0,0c0,0.4-0.3,0.6-0.6,0.6h-1.1c-0.3,0-0.6-0.3-0.6-0.6l0,0
	C341.6,254.4,341.8,254.1,342.2,254.1z"/>
<path class="st5" d="M329,254.2h7.1c0.3,0,0.6,0.3,0.6,0.6l0,0c0,0.4-0.3,0.6-0.6,0.6H329c-0.3,0-0.6-0.3-0.6-0.6l0,0
	C328.3,254.5,328.6,254.2,329,254.2z"/>
<path class="st5" d="M328.9,251.2h1.1c0.3,0,0.6,0.3,0.6,0.6l0,0c0,0.4-0.3,0.6-0.6,0.6h-1.1c-0.3,0-0.6-0.3-0.6-0.6l0,0
	C328.3,251.5,328.5,251.2,328.9,251.2z"/>
<path class="st5" d="M342,251.2h1.1c0.3,0,0.6,0.3,0.6,0.6l0,0c0,0.4-0.3,0.6-0.6,0.6H342c-0.3,0-0.6-0.3-0.6-0.6l0,0
	C341.3,251.5,341.6,251.2,342,251.2z"/>
<path class="st5" d="M345.7,251.2h1.1c0.3,0,0.6,0.3,0.6,0.6l0,0c0,0.4-0.3,0.6-0.6,0.6h-1.1c-0.3,0-0.6-0.3-0.6-0.6l0,0
	C345,251.5,345.3,251.2,345.7,251.2z"/>
<path class="st5" d="M332.4,251.4h7.1c0.3,0,0.6,0.3,0.6,0.6l0,0c0,0.4-0.3,0.6-0.6,0.6h-7.1c-0.3,0-0.6-0.3-0.6-0.6l0,0
	C331.8,251.6,332.1,251.4,332.4,251.4z"/>
<path class="st5" d="M332.4,248.4h1.1c0.3,0,0.6,0.3,0.6,0.6l0,0c0,0.4-0.3,0.6-0.6,0.6h-1.1c-0.3,0-0.6-0.3-0.6-0.6l0,0
	C331.8,248.6,332,248.4,332.4,248.4z"/>
<path class="st5" d="M345.4,248.4h1.1c0.3,0,0.6,0.3,0.6,0.6l0,0c0,0.4-0.3,0.6-0.6,0.6h-1.1c-0.3,0-0.6-0.3-0.6-0.6l0,0
	C344.8,248.6,345.1,248.4,345.4,248.4z"/>
<path class="st5" d="M349.1,248.4h1.1c0.3,0,0.6,0.3,0.6,0.6l0,0c0,0.4-0.3,0.6-0.6,0.6h-1.1c-0.3,0-0.6-0.3-0.6-0.6l0,0
	C348.5,248.6,348.8,248.4,349.1,248.4z"/>
<path class="st5" d="M335.9,248.5h7.1c0.3,0,0.6,0.3,0.6,0.6l0,0c0,0.4-0.3,0.6-0.6,0.6h-7.1c-0.3,0-0.6-0.3-0.6-0.6l0,0
	C335.3,248.8,335.6,248.5,335.9,248.5z"/>
<path class="st6" d="M317,290.8l-5.4-8.6l16.8-13.7l6.9-7.8c2.8-3.2,7.7-3.5,10.9-0.6c1,0.9,1.7,2.1,2.2,3.4l0,0
	c1.3,4-0.8,8.4-4.6,9.8l-11,4.1L317,290.8z"/>
<path class="st4" d="M191.2,228.2v42h28.9v-42c0-0.6-0.4-1.2-1-1.3c-0.1,0-0.3-0.1-0.4-0.1h-26.1
	C191.8,226.8,191.2,227.4,191.2,228.2L191.2,228.2z M202.4,242.6c0-1.7,1.4-3.1,3.1-3.1s3,1.4,3.1,3.1v4.9c0,1.7-1.4,3.1-3.1,3.1
	s-3.1-1.4-3.1-3.1V242.6z"/>
<path class="st2" d="M191.1,268.8v4c0,0.4,0.3,0.8,0.8,0.8h27.5c0.4,0,0.8-0.4,0.8-0.8v-4H191.1z"/>
<path class="st2" d="M145.7,165v76.6c0,2,1.6,3.7,3.6,3.7h111.5c2,0,3.6-1.6,3.6-3.7V165c0-2-1.6-3.7-3.6-3.7H149.4
	C147.4,161.3,145.8,163,145.7,165z"/>
<path class="st5" d="M148.4,166v74.7c0,1.1,0.9,2,1.9,2h109.6c1.1,0,1.9-0.9,1.9-2V166c0-1.1-0.9-2-1.9-2H150.3
	C149.2,164,148.4,164.9,148.4,166z"/>
<path class="st4" d="M168.7,273.4c0.2,0.3,0.6,0.5,0.9,0.5h65.2c0.7,0,1.2-0.5,1.2-1.2c0-0.1,0-0.2,0-0.2l-1-4.9
	c-0.1-0.4-0.4-0.7-0.7-0.9c-0.1-0.1-0.3-0.1-0.4-0.1h-63.2c-0.1,0-0.3,0-0.4,0.1c-0.4,0.1-0.7,0.5-0.7,0.9l-1,4.9
	C168.4,272.7,168.5,273.1,168.7,273.4z"/>
<path class="st2" d="M256.4,174.3H153.8c-0.2,0-0.4-0.2-0.4-0.4s0.2-0.4,0.4-0.4h102.6c0.2,0,0.4,0.2,0.4,0.4
	C256.8,174.1,256.6,174.3,256.4,174.3z"/>
<ellipse class="st2" cx="160.8" cy="168.8" rx="2.4" ry="2.5"/>
<ellipse class="st2" cx="169" cy="168.8" rx="2.4" ry="2.5"/>
<ellipse class="st2" cx="177.3" cy="168.8" rx="2.4" ry="2.5"/>
<path class="st2" d="M251.4,167h-5.9c-0.2,0-0.4,0.2-0.4,0.5c0,0.2,0.2,0.4,0.4,0.4h5.9c0.2,0,0.4-0.2,0.4-0.5
	C251.8,167.2,251.6,167,251.4,167z"/>
<path class="st2" d="M251.4,168.7h-5.9c-0.2,0-0.4,0.2-0.4,0.5c0,0.2,0.2,0.4,0.4,0.4h5.9c0.2,0,0.4-0.2,0.4-0.5
	C251.8,168.9,251.6,168.7,251.4,168.7z"/>
<path class="st2" d="M251.4,170.4h-5.9c-0.2,0-0.4,0.2-0.4,0.5c0,0.2,0.2,0.4,0.4,0.4h5.9c0.2,0,0.4-0.2,0.4-0.5
	C251.8,170.6,251.6,170.4,251.4,170.4z"/>
<path class="st4" d="M392.8,270.6c0.4,1.1,1.4,1.8,2.5,1.8l10.6-0.3c1.1,0,2.1-0.8,2.4-1.9l1.5-16.4c0.5,0.2,1.1,0.4,1.7,0.4
	c2.1-0.1,3.8-1.9,3.8-4c-0.1-2.2-1.8-3.9-4-3.9c-0.2,0-0.5,0-0.7,0.1c-0.5-0.6-1.2-0.9-2-0.9l-16.4,0.4c-0.1,0-0.3,0-0.4,0.1
	c-1.4,0.3-2.3,1.6-2,3c0,0.1,0.1,0.2,0.1,0.3L392.8,270.6z M410.1,252.7l1.1-3.9c0.1-0.5,0.1-0.9,0-1.4c0.1,0,0.1,0,0.1,0
	c1.5,0,2.8,1.2,2.8,2.8s-1.2,2.8-2.7,2.9C411,253,410.6,252.9,410.1,252.7z"/>
<path class="st2" d="M391.9,245.9c0.3,2,4.3,3.5,9,3.2c4.3-0.2,7.9-1.8,8.5-3.6c-0.2-0.1-0.5-0.1-0.7-0.1l-16.4,0.4
	C392.2,245.9,392,245.9,391.9,245.9z"/>
<path class="st3" d="M401.8,261.6L401.8,261.6l2.4-1.6c0.1-0.1,0.1-0.2,0.1-0.3c0,0,0,0-0.1-0.1l-2.4-1.6c-0.1-0.1-0.2,0-0.3,0.1
	s0,0.2,0.1,0.3l2.1,1.4l-2.1,1.4c-0.1,0.1-0.1,0.2-0.1,0.3C401.6,261.6,401.7,261.6,401.8,261.6L401.8,261.6z"/>
<path class="st3" d="M398.1,261.8c0.1,0,0.2-0.1,0.1-0.2c0-0.1,0-0.1-0.1-0.1l-2.1-1.2l2.1-1.6c0.1-0.1,0.1-0.2,0-0.3
	s-0.2-0.1-0.3,0l-2.3,1.7c-0.1,0.1-0.1,0.2,0,0.3c0,0,0,0,0.1,0.1l2.4,1.4C398,261.8,398.1,261.8,398.1,261.8z"/>
<path class="st3" d="M401.5,262.9C401.5,262.9,401.6,262.9,401.5,262.9c0.1-0.1,0.2-0.2,0.1-0.3l0,0l-3.3-5.5
	c-0.1-0.1-0.2-0.1-0.3-0.1c-0.1,0.1-0.1,0.2-0.1,0.3l3.3,5.5C401.4,262.9,401.4,263,401.5,262.9z"/>
<path class="st3" d="M199.6,196.9h17.8c0.7,0,1.3,0.6,1.3,1.3v1.8c0,0.7-0.6,1.3-1.3,1.3h-17.8c-0.7,0-1.3-0.6-1.3-1.3v-1.8
	C198.3,197.4,198.9,196.9,199.6,196.9z"/>
<path class="st7" d="M189.2,205.7h38.5c0.7,0,1.3,0.6,1.3,1.3v1.8c0,0.7-0.6,1.3-1.3,1.3h-38.5c-0.7,0-1.3-0.6-1.3-1.3V207
	C187.9,206.3,188.5,205.7,189.2,205.7z"/>
<path class="st7" d="M189.2,214.6h38.5c0.7,0,1.3,0.6,1.3,1.3v1.8c0,0.7-0.6,1.3-1.3,1.3h-38.5c-0.7,0-1.3-0.6-1.3-1.3v-1.8
	C187.9,215.2,188.5,214.6,189.2,214.6z"/>
<path class="st2" d="M230.9,244.3l0.1,0.3l0,0l2.6,8.1l3,9.4l5.7,17.6l0.1,2.7l0,0l0.4,22l-1.2,3l1.3,4.9c0,0-0.6-7.4-3.8-3.1
	c-1.8,2.4-4,4.9-5.8,7.2c2.6,1.1,5.2,2,7.8,2.9c0.6,0.2,1.2,0.4,1.7,0.5c0.1,0,0.2,0.1,0.4,0.1c8.8,2.6,17.9,4.1,27.1,4.4
	c0.5,0,0.9,0,1.4,0c0.2,0,0.3,0,0.5,0c0.5,0,1,0,1.5,0c1,0,2.1,0,3.1,0c7.6-0.2,15.2-1.3,22.5-3.1c-0.1-3.1-0.2-6.7-0.4-10.6
	c-0.1-1.9-2.1-4-2.3-5.9c-0.1-1.5,1.8-2.9,1.7-4.4c-0.6-9.3-1.4-5.8-2-12.4c-0.1-0.6-0.1-1.3-0.2-1.9c-0.4-4.2-0.6-6.9-0.6-6.9
	l2.5-15.8l3.9-24.8l-0.3-0.5l-0.3-0.2l-20.4-10.3l-1.1-2.9c-0.7-1.7-2.3-2.8-4.1-2.8l-13.5-0.1c-1.4,0-2.7,0.7-3.6,1.9l-3.6,5.1
	L230.9,244.3z"/>
<path class="st2" d="M245.4,275.7l-3,6.6l-2.1,4.5l-3.6,19.1l-1.8,1.9l-1.5-6.9l-16.1,3.6c-0.5-3-0.1,0.1-0.5-3.2
	c0.1-0.1,0.2-0.2,0.3-0.3c0.3-0.2,0.5-0.5,0.5-0.7c-0.2-11.3,0.4-30.5,5-42.1c0.7-1.9,1.7-3.7,2.8-5.4c0.1-0.1,0.2-0.3,0.3-0.4
	c2.1-3,3.5-6,5.4-8.1l0,0l0,0l0,0l13-7l0.6,16l0.4,11.5L245.4,275.7z"/>
<path class="st2" d="M292.4,277.6l3.8,8.3l1.3,2.9l3.6,19.1l1.8,1.9l1.5-6.9l0.7-0.2l13-2.7l3.8,12.3c1.8-3,1.2-6.8-1.3-9.2
	c-0.3-0.2-0.5-0.5-0.5-0.7c0.2-13.3-0.6-37.5-7.8-47.5c-2.3-3.2-3.7-6.3-5.7-8.5l0,0l-4.9-8.1l-0.3-0.5l-0.3-0.2L292.4,277.6z"/>
<ellipse id="a657ec4b-47ce-4d2a-9c58-81a811696ca9" class="st6" cx="269.4" cy="199.5" rx="17.9" ry="18.2"/>
<path class="st4" d="M293.6,186.7c-0.3-0.3-0.7-0.5-1.1-0.5l0.3-0.8c0.3-0.7-0.1-1.6-0.8-1.9c-0.2-0.1-0.5-0.1-0.8-0.1l-1,0.2
	l0.1-0.7c0.1-0.8-0.4-1.5-1.2-1.6c-0.2,0-0.5,0-0.7,0.1c-0.4,0.2-0.9,0.1-1.3-0.1c-0.4-0.2-0.7-0.6-0.8-1.1l-0.3-1.7v-0.1
	c-1.7-2.8-4.9-4.9-8.8-5.6c-3.5-0.7-7.1-0.3-10.5,0c-1.4,0.1-2.9,0.3-4.2,1.1c-1.1,0.7-2,2.1-1.8,3.4c-3.4-1.1-7,1.1-8.8,3.7
	c-2.1,3.2-2.5,7.2-2.5,10.3c-0.2,7.4,1.3,13.4,4.4,17.9c0.2,0.3,0.3,1,0.7,1.2l-0.1-0.2c0.5,0.3,1,0.7,0.8,1.1c-0.5,1.3,3.1,4,5.6,5
	c4.6,1.7,10.8,1.5,15.1,0.9l0.2-1c1.6-0.2,2.7-0.6,3-1.3c0.5-0.5,1-0.9,1.4-1.3l0,0l0,0c2-1.9,2.4-3,2.6-4.7
	c0.2-1.6-0.2-3.3-0.5-4.8c7.5,1.2-3-8.2,4-10c0.1,0,0.2,0,0.2-0.1c0.2,0,0.4-0.1,0.6-0.2c0.9-0.3,1.9-0.7,2.7-1.2
	c2-1.2,2.6-2.8,3.6-4.6C294.1,187.8,294,187.2,293.6,186.7z"/>
<path class="st4" d="M332.7,278.9c0,0.7,0,1.7,0,3c0,0.2,0,0.3,0,0.5c-0.1,2.3-0.1,4.2-0.2,6.3c0,0.1,0,0.3,0,0.4
	c-0.1,3-0.3,6.4-0.6,11.9c-0.6,10.1-1.6,1.4-2.5,4.9c0,0.2-0.1,0.4-0.1,0.6c-0.2,0.9-0.4,1.8-0.8,2.6c-0.5,0.3-1.1,0.6-1.6,0.9
	c-1.5,0.9-3.1,1.7-4.6,2.5c-0.9,0.4-1.8,0.9-2.6,1.3c-0.1,0.1-0.3,0.1-0.4,0.2c-4.5,2.1-9.2,3.9-14,5.4c-0.9,0.3-1.9,0.6-2.8,0.8
	c-1,0.3-2,0.5-3,0.8c-7.4,1.8-14.9,2.9-22.5,3.1c-1,0-2.1,0-3.1,0c-0.5,0-1,0-1.5,0c-0.2,0-0.3,0-0.5,0c-0.5,0-0.9,0-1.4,0
	c-9.2-0.3-18.3-1.8-27.1-4.4l-0.4-0.1c-0.6-0.2-1.2-0.4-1.7-0.5c-2.7-0.9-5.3-1.8-7.8-2.9c-2-0.8-3.9-1.7-5.8-2.6l0,0
	c-0.4-0.2-0.8-0.4-1.2-0.6c-0.1,0-0.1-0.1-0.2-0.1c-1.5-0.7-3-1.5-4.4-2.3c-1.2-2.9-3-3.4-4-6c-0.3-0.8-0.5-1.5-0.7-2.3l0,0
	c0.1,1.5-0.5-2.7,0,0c0,0,0-0.1,0-0.2s0-0.3-0.1-0.6c-1.4-13.7-1.3-29.4-1.9-42.3c0-0.8-0.1-1.6-0.1-2.4c0-0.3,0-0.5,0-0.7
	c0-0.1,0.1-0.2,0.1-0.2s0,0,0-0.1c0,0,0,0,0-0.1l0,0l0,0c0-0.1,0.1-0.1,0.1-0.2c0,0,0,0,0.1-0.1c0,0,0,0,0-0.1c0,0,0,0,0-0.1
	c0,0,0,0,0.1-0.1l0,0l0.1-0.1c0.1-0.1,0.3-0.3,0.5-0.4c0.1,0,0.1-0.1,0.2-0.1c0.4-0.2,0.8-0.5,1.3-0.6c0.2-0.1,0.3-0.1,0.5-0.2
	c0.1,0,0.1,0,0.2-0.1c0.1,0,0.2-0.1,0.3-0.1c0.5-0.1,1-0.3,1.5-0.4c0.1,0,0.1,0,0.2,0s0.2,0,0.3-0.1c0.1,0,0.3,0,0.4-0.1
	c1.2-0.2,2.5-0.3,4-0.4c0.1,0,0.3,0,0.4,0c0.2,0,0.3,0,0.5,0c0.1,0,0.3,0,0.4,0s0.3,0,0.4,0c0.4,0,0.8,0,1.2,0c1.2,0,2.5,0,3.8,0
	c0.6,0,1.3,0,1.9,0.1h0.1c0.6,0,1.1,0,1.7,0.1c0.4,0,0.8,0,1.2,0.1c0.4,0,0.8,0,1.2,0.1c0.3,0,0.6,0,0.9,0.1c0.3,0,0.5,0,0.8,0.1
	h0.4c0.2,0,0.4,0,0.6,0c0.4,0,0.9,0.1,1.3,0.1s0.9,0.1,1.4,0.1s0.9,0.1,1.4,0.1h0.1c0.4,0,0.8,0.1,1.3,0.1c0.1,0,0.2,0,0.3,0
	c0.4,0,0.8,0.1,1.2,0.1c0.1,0,0.2,0,0.4,0c0.3,0,0.6,0.1,1,0.1s0.9,0.1,1.3,0.2c0.3,0,0.7,0.1,1,0.1c0.5,0.1,1,0.1,1.5,0.2
	c0.2,0,0.4,0,0.6,0.1c1.5,0.2,3,0.4,4.5,0.6c2.3,0.3,4.6,0.7,7,1.1s4.7,0.8,7.1,1.2c0.6,0.1,1.2,0.2,1.8,0.3
	c0.3,0.1,0.5,0.1,0.8,0.2c0.5,0.1,0.9,0.2,1.4,0.3s0.9,0.2,1.4,0.3c0.6,0.1,1.1,0.2,1.7,0.3c3.7,0.7,7.3,1.5,10.8,2.3
	c0.6,0.1,1.2,0.3,1.7,0.4c1.2,0.3,2.3,0.6,3.4,0.8c0.3,0.1,0.6,0.2,0.9,0.2c0.8,0.2,1.5,0.4,2.3,0.6h0.1c0.6,0.1,1.1,0.3,1.7,0.4
	c1.3,0.3,2.6,0.7,3.8,1c0.8,0.2,1.6,0.5,2.5,0.7c1.2,0.4,2.4,0.7,3.5,1.1c0.3,0.1,0.6,0.2,0.9,0.3c0.8,0.3,1.7,0.5,2.5,0.8
	c0.6,0.2,1.3,0.4,1.9,0.6s1.2,0.4,1.8,0.7c0.4,0.1,0.8,0.3,1.1,0.4c0.5,0.2,1.1,0.4,1.6,0.6c0.2,0.1,0.3,0.1,0.5,0.2
	c0.1,0,0.2,0.1,0.3,0.1c0.2,0.1,0.4,0.2,0.6,0.2c0.2,0.1,0.4,0.2,0.6,0.2c0.2,0.1,0.4,0.2,0.5,0.2c0.2,0.1,0.4,0.2,0.5,0.2
	c0.1,0.1,0.3,0.1,0.4,0.2c0.3,0.1,0.6,0.3,0.8,0.4c0.1,0.1,0.3,0.1,0.4,0.2l0.3,0.1c0,0,0.1,0,0.1,0.1c0.1,0,0.2,0.1,0.3,0.2
	c0.2,0.1,0.5,0.2,0.7,0.3c0.3,0.2,0.6,0.3,0.9,0.5s0.6,0.3,0.8,0.5c0,0,0.1,0,0.1,0.1c0.1,0,0.1,0.1,0.2,0.1
	c0.2,0.1,0.4,0.2,0.6,0.4c0.4,0.2,0.8,0.5,1.1,0.7c0.1,0.1,0.1,0.1,0.2,0.2c0.3,0.2,0.5,0.4,0.7,0.5l0,0c0.1,0.1,0.1,0.1,0.2,0.2
	s0.1,0.1,0.2,0.2c0.2,0.2,0.4,0.4,0.6,0.5c0.1,0.1,0.1,0.1,0.2,0.2c0,0,0,0,0.1,0.1s0.2,0.2,0.2,0.2l0,0c0.1,0.1,0.2,0.2,0.3,0.3
	c0,0.1,0.1,0.1,0.1,0.2s0.1,0.1,0.1,0.2s0.1,0.1,0.1,0.2c0.1,0.1,0.2,0.3,0.2,0.5c0,0.1,0.1,0.2,0.1,0.3
	C332.7,278.7,332.7,278.8,332.7,278.9z"/>
<path class="st8" d="M332.7,278.9c0,0.7,0,1.7,0,3c0,0.2,0,0.3,0,0.5c0,1.7-0.1,3.9-0.2,6.3c0,0.1,0,0.3,0,0.4
	c-0.1,3-0.3,6.4-0.6,11.9c-0.6,10.1-1.6,1.4-2.5,4.9c-2.8-1.7-5.8-3.5-9-5.4c-0.6-0.3-1.2-0.7-1.8-1c-6.5-3.7-13.7-7.5-21.2-11.3
	c-0.3-0.2-0.6-0.3-0.9-0.4c-17.3-8.7-36.1-17.1-51.3-22.8c-2.9-1.1-5.8-2.1-8.4-2.9c-5.6-1.8-10.4-3.1-14.1-3.6
	c-3.9-0.6-6.5-0.4-7.6,0.8c0-0.8-0.1-1.6-0.1-2.4c0-0.3,0-0.5,0-0.7c0-0.1,0.1-0.1,0.1-0.2l0,0c0,0,0,0,0-0.1c0,0,0,0,0-0.1v-0.1
	c0-0.1,0.1-0.1,0.1-0.2l0.1-0.1c0,0,0,0,0-0.1c0,0,0,0,0.1-0.1l0,0l0.1-0.1c0.1-0.1,0.3-0.3,0.5-0.4c0.1,0,0.1-0.1,0.2-0.1
	c0.4-0.2,0.8-0.5,1.3-0.6c0.2-0.1,0.3-0.1,0.5-0.2c0.1,0,0.1,0,0.2-0.1c0.1,0,0.2-0.1,0.3-0.1c0.5-0.1,1-0.3,1.5-0.4
	c0.2,0,0.3-0.1,0.5-0.1c0.1,0,0.3,0,0.4-0.1c1.2-0.2,2.5-0.3,4-0.4c0.1,0,0.3,0,0.4,0c0.2,0,0.3,0,0.5,0c0.1,0,0.3,0,0.4,0
	s0.3,0,0.4,0c0.4,0,0.8,0,1.2,0c1.2,0,2.5,0,3.8,0c0.6,0,1.3,0,1.9,0.1h0.1c0.6,0,1.1,0,1.7,0.1c0.4,0,0.8,0,1.2,0.1
	c0.4,0,0.8,0,1.2,0.1c0.3,0,0.6,0,0.9,0.1c0.3,0,0.5,0,0.8,0.1c0.3,0,0.6,0,1,0.1c0.4,0,0.9,0.1,1.3,0.1s0.9,0.1,1.4,0.1
	s0.9,0.1,1.4,0.1h0.1c0.4,0,0.8,0.1,1.3,0.1c2.3,0.2,4.7,0.5,7.2,0.8c1.5,0.2,3,0.4,4.5,0.6c2.3,0.3,4.6,0.7,7,1.1
	c2.4,0.4,4.7,0.8,7.1,1.2c0.6,0.1,1.2,0.2,1.8,0.3c0.7,0.1,1.5,0.3,2.2,0.4c0.5,0.1,0.9,0.2,1.4,0.3c0.6,0.1,1.1,0.2,1.7,0.3
	c3.7,0.7,7.3,1.5,10.8,2.3c0.6,0.1,1.2,0.3,1.7,0.4c1.2,0.3,2.3,0.6,3.4,0.8c0.3,0.1,0.6,0.2,0.9,0.2c0.8,0.2,1.5,0.4,2.3,0.6l0,0
	h0.1c0.6,0.1,1.1,0.3,1.7,0.4c1.3,0.3,2.6,0.7,3.8,1c0.8,0.2,1.6,0.5,2.5,0.7c1.2,0.4,2.4,0.7,3.5,1.1c0.3,0.1,0.6,0.2,0.9,0.3
	c0.8,0.3,1.7,0.5,2.5,0.8c0.6,0.2,1.3,0.4,1.9,0.6s1.2,0.4,1.8,0.7c0.4,0.1,0.8,0.3,1.1,0.4c0.5,0.2,1.1,0.4,1.6,0.6
	c0.2,0.1,0.3,0.1,0.5,0.2c0.3,0.1,0.6,0.2,0.9,0.4c0.2,0.1,0.4,0.2,0.6,0.2c0.2,0.1,0.4,0.2,0.5,0.2c0.2,0.1,0.4,0.2,0.5,0.2
	c0.1,0.1,0.3,0.1,0.4,0.2c0.3,0.1,0.6,0.3,0.8,0.4c0.1,0.1,0.3,0.1,0.4,0.2l0.3,0.1c0,0,0.1,0,0.1,0.1c0.3,0.2,0.7,0.3,1,0.5
	s0.6,0.3,0.9,0.5s0.7,0.4,1,0.5c0.1,0,0.1,0.1,0.2,0.1c0.2,0.1,0.4,0.2,0.6,0.4c0.4,0.2,0.8,0.5,1.1,0.7c0.3,0.2,0.7,0.5,0.9,0.7
	l0,0c0.1,0.1,0.3,0.2,0.4,0.3c0.2,0.2,0.4,0.4,0.6,0.5c0.1,0.1,0.1,0.1,0.2,0.2c0,0,0,0,0.1,0.1s0.2,0.2,0.2,0.3
	c0.1,0.1,0.2,0.2,0.3,0.3c0,0.1,0.1,0.1,0.1,0.2s0.1,0.1,0.1,0.2s0.1,0.1,0.1,0.2c0.1,0.1,0.2,0.3,0.2,0.5c0,0.1,0.1,0.2,0.1,0.3
	C332.7,278.7,332.7,278.8,332.7,278.9z"/>
</svg>
