<?xml version="1.0" encoding="utf-8"?>
<!-- Generator: Adobe Illustrator 24.0.1, SVG Export Plug-In . SVG Version: 6.00 Build 0)  -->
<svg version="1.1" id="Layer_1" xmlns="http://www.w3.org/2000/svg" xmlns:xlink="http://www.w3.org/1999/xlink" x="0px" y="0px"
	 viewBox="0 0 1300 400" style="enable-background:new 0 0 1300 400;" xml:space="preserve">
<style type="text/css">
	.st0{fill:url(#SVGID_1_);stroke:#000000;stroke-width:1.6452;stroke-miterlimit:10;}
	.st1{fill:#F2F2F2;}
	.st2{fill:#3F3D56;}
	.st3{fill:#FFB9B9;}
	.st4{fill:#575A89;}
	.st5{fill:#0D8CD8;}
	.st6{fill:none;stroke:#3F3D56;stroke-width:1.6169;stroke-miterlimit:10;}
	.st7{opacity:0.1;enable-background:new    ;}
</style>
<linearGradient id="SVGID_1_" gradientUnits="userSpaceOnUse" x1="0" y1="592" x2="1300" y2="592" gradientTransform="matrix(1 0 0 1 0 -392)">
	<stop  offset="0" style="stop-color:#007194"/>
	<stop  offset="1" style="stop-color:#41C1C9"/>
</linearGradient>
<rect class="st0" width="1300" height="400"/>
<path class="st1" d="M324.5,288l-1.6-19.6l-4.5,20.7c0,0,0.1,5.2,0.2,11h5.8C324.6,293.5,324.5,288,324.5,288z"/>
<path class="st1" d="M243.4,295c-0.4-1.8-0.8-3.7-0.9-5.6l-0.6-6.8c-0.3-1.9-0.5-3.5-0.8-4.9c-2-10.3-4.1-10.7-4.1-10.7
	c-0.1,0.1-0.2,0.1-0.3,0.2c-0.2,0.2-0.5,0.5-0.7,0.7c-3.3,4.2-5.5,15.1-6.7,22.3c-0.6,4-1,6.9-1,6.9s0.3,1.2,0.7,3h15.1
	C244,298.3,243.8,296.6,243.4,295z"/>
<path class="st1" d="M361.9,104.7H150.2c-25.2,0-45.8,20.6-45.8,45.8v103.6c0,25.2,20.6,45.8,45.8,45.8h67.1l-0.9-4.1
	c0,0-2.2-14.4,0-25.6c0.7-3.5,1.2-7.1,1.5-10.6c0.3-4,0.9-8,2-12c0.1-0.2,0.1-0.4,0.2-0.7c-0.5-0.1-0.8-0.3-0.7-0.3
	c0.3-0.2,0.5-0.8,0.6-1.6c0.6-5.3,1.7-10.5,3.4-15.6c-2.2,1.4-3.7,1.6-4.7,1c-3.4-0.9-2-8.7-2-8.7s2.1-16.7,2.8-22.8
	c0.4-3.5,5.6-5.5,10.3-6.5c0.5-1,0.8-2.1,0.6-3.2c0-0.1,0-0.1-0.1-0.2c-0.6-1.3-1.8-2.4-2.2-3.7c-0.2-0.4-0.3-0.8-0.4-1.2
	c-0.4-2.3,1.8-4.3,2.4-6.6c-0.6-0.6-1.1-1.4-1.4-2.2c-1-2-0.5-4.3,2.6-6.1c0.6-0.4,1.3-0.7,1.9-1c0.2-0.2,0.5-0.3,0.8-0.4
	c2.2-1,4.4-1.9,5.7-3.9c0.3-0.5,0.6-1.1,1.2-1.3c0.3-0.1,0.5-0.2,0.8-0.2c4.2-0.3,8,3.3,12.2,2.8c1.3-0.2,2.6-0.7,3.8-0.3
	c0.8,0.3,1.4,0.9,2,1.5c3,3.5,4.2,8.2,3.4,12.8c-0.5,2.8-1.8,5.6-0.9,8.3c0.7,2,2.5,3.5,2.5,5.6c0,1.7-1.2,3.1-2.4,4.4
	c0.2,0.2,0.3,0.3,0.4,0.5c2.9,3.2,2.3,6,1.9,7.1l0,0l-1.5,14.2l-1.2,9.5c0,0-0.3,3.9-3.2,4.8c-0.8,0.4-1.9,0.5-3.4,0.1
	c-0.9-0.3-1.7-0.6-2.4-0.8c0.6,2,1.7,6.2,1.5,10.2c-0.2,5.6,0.5,6.1,0.5,6.1c0,0.1-0.1,0.1-0.2,0.2c2.9,6.5,3,13.2-0.1,19.8
	c-3.5,7.5,0.2,25.1,0.2,25.1s0.3,2.7,0.4,5.8h53.1c-0.8-8.1-1.9-16.1-2.3-17c-0.7-1.5,0.2-26,0.6-34.5c-0.2,0-0.3-0.1-0.5-0.1
	c-0.3-0.1-0.5-0.1-0.7-0.2c0,0.4,0,0.9,0.1,1.3c0.3,0.7-0.4,1.3-1.7,1.6c0.7,3.6,1.7,10.3-1.4,11.7c-3.2,1.3-3.2-6.8-3.1-11.1
	c-0.4,0-0.8,0-1.2,0c-3.8,0,1.1-44.4,0.9-47.3s1.8-14.9,1.8-14.9s0.7-2.5,2.7-2.9s11.7-6.1,11.7-6.1c0.5-0.8,1.2-1.4,2-1.9v-0.3
	c0.3-0.2,0.5-0.5,0.8-0.7c-0.1-2-0.4-4.5-0.6-6.2c-1.1-1.1-1.8-2.5-2.1-4c-0.4-0.3-0.8-0.7-1.2-1c-0.9-1.1-1.5-2.4-1.5-3.8
	c0-1.4,0.2-2.8,0.6-4.1c0.1-0.4,0.3-0.9,0.5-1.3c0.3-0.5,0.7-0.9,1.2-1.2c0.1-0.1,0.3-0.2,0.4-0.3c0.3-0.6,0.7-1.1,1.3-1.4
	c1.1-0.8,2.6-0.7,4-0.7c0,0,0,0,0.1,0c0.3,0,0.5-0.1,0.8-0.1c0.3-0.1,0.5-0.3,0.6-0.6c0.2,0.2,0.4,0.4,0.6,0.5c0.3,0,0.6,0,0.8,0
	c0.1-0.3,0.3-0.6,0.4-0.8c0.1,0.3,0.2,0.6,0.3,0.9c0.3,0,0.6,0.1,0.8,0.1c0.2-0.2,0.4-0.3,0.7-0.5c0,0,0.2,0.5,0.3,0.7
	c0.2,0,0.3,0.1,0.4,0.1c0.2,0,0.5-0.1,0.6-0.1c0.8,0,1.6,0.2,2.3,0.6c0.6,0.4,1.1,1,1.4,1.7c0.9,1.4,1.4,3,1.6,4.6
	c0.4,0.6,0.7,1.3,0.9,2c0.4,2.3-1.8,4.1-2.2,6.4c-0.2,1.2,0,2.5-0.6,3.6c-0.3,0.4-0.6,0.8-1,1.1c-0.2,0.2-0.5,0.3-0.8,0.5
	c0,1.4,0.2,2.7,0.5,4l0.3,1.1c0.5,0.3,0.9,0.7,1.5,1.1c0,0,6.3,2.7,8.6,4.1c2,1.2,4.1,1.3,4.8,2.9h0.2c0,0,2.3,25,2.5,29.3
	s2.9,30.6,2.5,31.7c-0.2,0.4-1.2,0.9-2.5,1.3c0.7,3.4,2,10.9-1.3,12.2c-3.3,1.4-3.2-7.5-3.1-11.6c-0.4,0-0.7-0.2-0.8-0.4
	c0-0.2-0.2-1-0.3-2.3c-0.3,0-0.6,0.1-0.9,0.1c-0.1,0-0.1,0-0.2,0c2.9,9-3.5,32.8-4.7,37.5c-0.6,2.4-1.3,8.5-1.9,14.6h27.8
	c25.2,0,45.8-20.6,45.8-45.8V150.6C407.7,125.4,387.1,104.7,361.9,104.7z"/>
<ellipse class="st2" cx="172.3" cy="159.4" rx="30.7" ry="28"/>
<path class="st3" d="M222.9,250.7L222.9,250.7c0,0,10.3-7.1,10.3-10.3s7.1-24.3,11-14.9c3.9,9.4-5.5,22.6-5.5,22.6
	s-10.3,18.8-16.5,22s-11.3,1.3-11.3,1.3v-8.7l5.9-8.7C218.2,252,220.5,250.7,222.9,250.7z"/>
<path class="st4" d="M193.5,201.2c0,0,15.5,4.9,17.1,7.2s2.3-1.6,6.8,13.3s5.7,29.3,5.7,29.3s-11.2,3.7-9.9,18.3
	c1.3,14.6-1.9,30.4-1.9,30.4h-4l-8.9-27.5l10.7-41.7C209,230.4,193.8,204.7,193.5,201.2z"/>
<ellipse transform="matrix(0.3827 -0.9239 0.9239 0.3827 -39.2893 277.8871)" class="st3" cx="188.3" cy="168.3" rx="19.4" ry="19.4"/>
<path class="st3" d="M195.7,182.8c0,0-5.5,18.1-0.6,20.7c4.9,2.6,10.3,14.2,10.3,14.2l-8.4,9.4h-19.4l-8.7-9.7l-3.6-16.5l4.9-3.9
	c0,0,5.2-12.9,5.2-19.7S195.7,182.8,195.7,182.8z"/>
<path class="st5" d="M197.3,202.9c0,0-3.9-1-1.6,2.9c2.3,3.9,4.5,11-3.6,11.3s-16.2-3.9-18.8-12.6c-2.6-8.7-3.6-8.1-4.5-7.8
	c-1,0.3-11.3,11-11.3,11l3.6,20l1.3,71.8h47.2c0,0,1.9-20.7-1.3-25.5c-3.2-4.9,2.9-17.1,2.9-17.1s5.5-8.4,1.3-24.6
	C208.3,216.1,199,202.9,197.3,202.9z"/>
<path class="st4" d="M171.2,196.7c0,0-4.9-2.3-9.1,1.6c-4.2,3.9-13.6,7.1-13.6,9.1s8.1,57.2,2.6,66.9s-11.3,25.2-11.3,25.2h27
	c0,0,4.4-16.2,8.9-24.9c4.5-8.7,4.2-33.3,2.9-40.7C177.3,226.5,171.2,196.7,171.2,196.7z"/>
<polygon class="st3" points="142.7,282.4 144.3,299.6 161.8,299.6 160.2,278.2 "/>
<polygon class="st2" points="222.2,273.4 226.5,299.6 319.9,299.6 328,246.9 "/>
<polygon class="st2" points="331.5,243.3 332.5,248.2 211.6,277.3 211.6,273.1 "/>
<polygon class="st2" points="280.5,252 279.8,257.5 286.9,256.6 284,251.1 "/>
<path class="st6" d="M241.3,196.4c0,0,14.2-1,18.1,10c3.9,11,12.9,30.7,16.5,33.6c3.6,2.9,7.4,10.7,6.8,13.3"/>
<path class="st5" d="M243.4,196.3c0,1.5-1.6,2.7-4.2,2.7s-3.9-1.2-3.9-2.7s1.3-2.7,3.9-2.7S243.4,194.7,243.4,196.3z"/>
<path class="st4" d="M219.5,246.7c0,0,2.4-10.2-2.1-25.1s-5.2-11-6.8-13.3s-17.1-7.2-17.1-7.2c0.1,1.2,1.8,4.7,4.1,8.9
	c-0.4-1.5-1-3-1.8-4.4c-2.3-3.9,1.6-2.9,1.6-2.9c1.6,0,11,13.3,15.2,29.4c4.2,16.2-1.3,24.6-1.3,24.6L219.5,246.7z"/>
<path class="st4" d="M193.6,201.1c0,0,1.9,7.3,3.5,8.3c1.6,1.1,11.3,11.1,11.3,11.1l-1.3-8.1l-5.2-7.8l-1.4-1L193.6,201.1z"/>
<path class="st7" d="M150.6,223.4l0.5-16.7c0,0-10.6,4.5-11.6,23.9s1.6,55.9,5.2,56.3s20.4-3.6,20.4-3.6s2.6-46.9,1.6-53
	C165.7,224.2,150.6,223.4,150.6,223.4z"/>
<path class="st4" d="M151.4,206.8h-2.6c0,0-10.6,4.5-11.6,23.9s1.6,55.9,5.2,56.3c3.6,0.3,20.4-3.6,20.4-3.6s2.6-46.9,1.6-53
	C163.4,224.2,151.4,206.8,151.4,206.8z"/>
<ellipse class="st2" cx="165.2" cy="163.1" rx="20" ry="22.5"/>
<ellipse class="st3" cx="179.6" cy="175.4" rx="4" ry="6"/>
<circle class="st2" cx="145.1" cy="140.6" r="16.5"/>
<path class="st2" d="M147.3,153.9c-8.1,4.1-18,0.9-22.2-7.2c-0.9-1.8-1.5-3.9-1.7-5.9c-1.4,9,4.8,17.4,13.8,18.8
	c9,1.4,17.4-4.8,18.8-13.8c0.2-1.3,0.2-2.7,0.1-4.1C155.3,146.9,152,151.4,147.3,153.9z"/>
<path class="st2" d="M136.1,143.4c-5.6-7.2-4.3-17.5,2.8-23.1c1.6-1.3,3.5-2.2,5.5-2.8c-9.1,0.4-16.2,8.1-15.8,17.2
	s8.1,16.2,17.2,15.8c1.4-0.1,2.7-0.3,4-0.7C144.4,149.9,139.4,147.6,136.1,143.4z"/>
<ellipse class="st2" cx="189.4" cy="153.3" rx="11.6" ry="8.4"/>
</svg>
