<?xml version="1.0" encoding="utf-8"?>
<!-- Generator: Adobe Illustrator 24.0.1, SVG Export Plug-In . SVG Version: 6.00 Build 0)  -->
<svg version="1.1" id="Layer_1" xmlns="http://www.w3.org/2000/svg" xmlns:xlink="http://www.w3.org/1999/xlink" x="0px" y="0px"
	 viewBox="0 0 1300 400" style="enable-background:new 0 0 1300 400;" xml:space="preserve">
<style type="text/css">
	.st0{opacity:5.000000e-02;fill:#020202;enable-background:new    ;}
	.st1{fill:url(#SVGID_1_);stroke:#000000;stroke-width:1.6452;stroke-miterlimit:10;}
	.st2{fill:url(#SVGID_2_);}
	.st3{fill:url(#SVGID_3_);}
	.st4{fill:#E53935;}
	.st5{opacity:0.2;enable-background:new    ;}
</style>
<ellipse class="st0" cx="1404.9" cy="1082.5" rx="8.3" ry="1.7"/>
<linearGradient id="SVGID_1_" gradientUnits="userSpaceOnUse" x1="0" y1="102" x2="1300" y2="102" gradientTransform="matrix(1 0 0 -1 0 302)">
	<stop  offset="0" style="stop-color:#489DD7"/>
	<stop  offset="1" style="stop-color:#C8D3D1"/>
	<stop  offset="1" style="stop-color:#457FC1"/>
</linearGradient>
<rect y="0" class="st1" width="1300" height="400"/>
<linearGradient id="SVGID_2_" gradientUnits="userSpaceOnUse" x1="329.0232" y1="757.8649" x2="329.0232" y2="584.9743" gradientTransform="matrix(1 0 0 1 -133.4507 -471.4196)">
	<stop  offset="0" style="stop-color:#808080;stop-opacity:0.25"/>
	<stop  offset="0.5351" style="stop-color:#808080;stop-opacity:0.12"/>
	<stop  offset="1" style="stop-color:#808080;stop-opacity:0.1"/>
</linearGradient>
<path class="st2" d="M213,214.6c-7.5-15.3-1.5-28.5,9-37.8c14.5-6.8,28.8-3.8,39.3,9.8c6.9-4,15.6-4.9,22.8-3.3
	c5.5-20.9,0.4-45.9-18.1-59.4c-24.1-17.6-57.8-12.3-75.3,11.8c-24.1-17.6-57.8-12.3-75.3,11.8c-17.6,24.1-12.3,57.8,11.8,75.3
	l87.1,63.6l23.1-32L213,214.6z"/>
<linearGradient id="SVGID_3_" gradientUnits="userSpaceOnUse" x1="390.1214" y1="733.8649" x2="390.1214" y2="646.7797" gradientTransform="matrix(1 0 0 1 -133.4507 -471.4196)">
	<stop  offset="0" style="stop-color:#808080;stop-opacity:0.25"/>
	<stop  offset="0.5351" style="stop-color:#808080;stop-opacity:0.12"/>
	<stop  offset="1" style="stop-color:#808080;stop-opacity:0.1"/>
</linearGradient>
<path class="st3" d="M261.6,188.7c-7.5-12.9-24-17.2-36.9-9.7s-17.2,24-9.7,36.9l0,0l27.2,46.5l46.5-27.2c12.9-7.5,17.2-24,9.7-36.9
	C291,185.5,274.5,181.2,261.6,188.7z"/>
<path class="st4" d="M261.4,189.5c-7.2-12.3-22.9-16.4-35.2-9.2c-12.2,7.2-16.4,22.9-9.2,35.1l25.9,44.4l44.4-25.9
	c12.3-7.2,16.4-22.9,9.2-35.2C289.4,186.5,273.6,182.4,261.4,189.5z"/>
<path class="st5" d="M286.9,234.2c12.3-7.2,16.4-22.9,9.2-35.2c-7.1-12.2-22.8-16.4-35-9.3l25.6,44.6L286.9,234.2z"/>
<path class="st4" d="M282.3,182.2c-7.1-1.6-14.6-0.5-20.9,3.2c-8-13.7-25.7-18.3-39.4-10.3c-13.7,8-18.3,25.7-10.3,39.4l22.9,39.1
	l-21.2,29.1L169.9,251l3.7-2.1c15.6-9.1,20.9-29.2,11.7-44.8c-8.3-14.2-25.9-20-41-13.6c-1.3,0.5-2.5,1.2-3.8,1.9
	c-6.4-11-18.7-17.3-31.4-16.1c0.2-2.6,0.6-5.2,1.2-7.7c0.1-0.3,0.1-0.6,0.2-0.8c0.3-1.1,0.6-2.2,1-3.3c0-0.1,0.1-0.2,0.1-0.3
	c0.2-0.5,0.3-1,0.5-1.5c0.2-0.6,0.4-1.1,0.6-1.7c0.1-0.3,0.2-0.5,0.3-0.8c0.1-0.3,0.2-0.5,0.3-0.8l0,0c0.1-0.3,0.2-0.5,0.4-0.8v-0.1
	c0.1-0.2,0.2-0.5,0.3-0.7c0.1-0.3,0.3-0.5,0.4-0.8c0.3-0.6,0.6-1.1,0.9-1.7c0.1-0.2,0.2-0.4,0.3-0.6c0.1-0.2,0.3-0.5,0.4-0.7
	c0.1-0.1,0.1-0.2,0.2-0.3c0.4-0.6,0.8-1.3,1.2-1.9c0.1-0.1,0.2-0.3,0.3-0.4c0.1-0.2,0.3-0.4,0.4-0.6c0.2-0.2,0.3-0.5,0.5-0.7
	c16.8-23,49-28.1,72-11.3c16.8-23,49-28.1,72-11.3C280,139.8,287.8,161.6,282.3,182.2z"/>
<path class="st4" d="M137.5,196.9c-8.1-13.8-25.9-18.5-39.7-10.4s-18.5,25.9-10.4,39.7l29.3,50.1l50.1-29.3
	c13.8-8.1,18.5-25.9,10.4-39.7C169.1,193.5,151.3,188.8,137.5,196.9L137.5,196.9z"/>
<path class="st5" d="M190.9,138.6l-46.7,51.8c-1.3,0.5-2.5,1.2-3.8,1.9c-6.4-11-18.7-17.3-31.4-16.1c0.2-2.6,0.6-5.2,1.2-7.7
	c0.1-0.3,0.1-0.6,0.2-0.8c0.3-1.1,0.6-2.2,1-3.3c0-0.1,0.1-0.2,0.1-0.3c0.2-0.5,0.3-1,0.5-1.5c0.2-0.6,0.4-1.1,0.6-1.7
	c0.1-0.3,0.2-0.5,0.3-0.8c0.1-0.3,0.2-0.5,0.3-0.8l0,0c0.1-0.3,0.2-0.5,0.4-0.8v-0.1c0.1-0.2,0.2-0.5,0.3-0.7
	c0.1-0.3,0.3-0.5,0.4-0.8c0.3-0.6,0.6-1.1,0.9-1.7c0.1-0.2,0.2-0.4,0.3-0.6c0.1-0.2,0.3-0.5,0.4-0.7c0.1-0.1,0.1-0.2,0.2-0.3
	c0.4-0.6,0.8-1.3,1.2-1.9c0.1-0.1,0.2-0.3,0.3-0.4c0.1-0.2,0.3-0.4,0.4-0.6c0.2-0.2,0.3-0.5,0.5-0.7
	C135.6,126.8,167.8,121.8,190.9,138.6c-0.1,0,0-0.1,0-0.1V138.6z"/>
</svg>
