<?xml version="1.0" encoding="utf-8"?>
<!-- Generator: Adobe Illustrator 24.0.1, SVG Export Plug-In . SVG Version: 6.00 Build 0)  -->
<svg version="1.1" id="Layer_1" xmlns="http://www.w3.org/2000/svg" xmlns:xlink="http://www.w3.org/1999/xlink" x="0px" y="0px"
	 viewBox="0 0 1300 400" style="enable-background:new 0 0 1300 400;" xml:space="preserve">
<style type="text/css">
	.st0{fill:url(#SVGID_1_);stroke:#000000;stroke-width:1.6452;stroke-miterlimit:10;}
	.st1{fill:#F0F0F0;}
	.st2{fill:#FFFFFF;}
	.st3{fill:#FFB6B6;}
	.st4{fill:#2F2E41;}
	.st5{fill:#CACACA;}
	.st6{fill:#3F3D56;}
	.st7{fill:#63C7FF;}
	.st8{fill:#FFB8B8;}
	.st9{fill:#E4E4E4;}
	.st10{fill:#F2F2F2;}
	.st11{fill:#9E616A;}
	.st12{opacity:0.2;enable-background:new    ;}
</style>
<linearGradient id="SVGID_1_" gradientUnits="userSpaceOnUse" x1="0" y1="594.3712" x2="1300" y2="594.3712" gradientTransform="matrix(1 0 0 1 0 -392)">
	<stop  offset="0" style="stop-color:#007194"/>
	<stop  offset="1" style="stop-color:#41C1C9"/>
</linearGradient>
<rect y="2.4" class="st0" width="1300" height="400"/>
<path class="st1" d="M105.5,250.3c1.3-10.1,7.5-20.1,17.2-23.4c-3.8,10.4-3.8,21.9,0,32.3c1.5,4,3.6,8.3,2.2,12.4
	c-0.9,2.5-3,4.5-5.4,5.7c-2.4,1.2-5,1.8-7.6,2.3l-0.5,0.4C107.3,270.7,104.3,260.4,105.5,250.3z"/>
<path class="st2" d="M122.9,227c-5.6,6.3-9.1,14.2-10,22.7c-0.2,1.8-0.2,3.6,0.2,5.4c0.4,1.7,1.3,3.3,2.5,4.6
	c1.1,1.2,2.4,2.3,3.2,3.8c0.8,1.5,0.9,3.3,0.3,5c-0.7,2-2.1,3.7-3.5,5.2c-1.6,1.7-3.2,3.5-3.9,5.8c-0.1,0.3-0.5,0.1-0.4-0.1
	c1.2-4,5-6.3,6.9-9.9c0.9-1.7,1.2-3.6,0.4-5.4c-0.7-1.6-2-2.7-3.2-3.9c-1.2-1.2-2.1-2.8-2.6-4.4c-0.4-1.8-0.6-3.6-0.4-5.4
	c0.3-4.1,1.3-8.1,2.9-11.9c1.8-4.3,4.3-8.3,7.4-11.8C122.8,226.5,123.1,226.8,122.9,227L122.9,227z"/>
<path class="st2" d="M113,247c-2.9-0.7-4.8-3.4-4.6-6.3c0-0.3,0.5-0.3,0.5,0c-0.2,2.7,1.6,5.2,4.3,5.9
	C113.4,246.6,113.3,247,113,247L113,247z"/>
<path class="st2" d="M114.9,259.2c2.5-1.5,4.4-3.9,5.2-6.7c0.1-0.3,0.5-0.1,0.4,0.1c-0.9,2.9-2.8,5.4-5.4,7
	C114.8,259.7,114.6,259.3,114.9,259.2L114.9,259.2z"/>
<path class="st2" d="M117.4,234.6c1,0.5,2.3,0.4,3.2-0.2c0.2-0.2,0.4,0.3,0.2,0.4c-1.1,0.7-2.4,0.7-3.6,0.2c-0.1,0-0.2-0.2-0.1-0.3
	C117.1,234.6,117.3,234.6,117.4,234.6L117.4,234.6z"/>
<path class="st1" d="M152.3,245c-0.2,0.1-0.3,0.2-0.5,0.3c-2,1.3-4,2.8-5.8,4.5c-0.1,0.1-0.3,0.3-0.4,0.4c-4.3,4-7.8,8.8-10.3,14.1
	c-1,2.1-1.9,4.3-2.5,6.5c-0.9,3.1-1.7,6.5-3.5,9c-0.2,0.3-0.4,0.5-0.6,0.8H112c0,0-0.1,0-0.1-0.1l-0.7,0c0-0.1,0.1-0.2,0.1-0.4
	c0-0.1,0-0.1,0-0.2c0,0,0-0.1,0-0.1c0,0,0,0,0,0c0,0,0-0.1,0-0.1c0.2-0.7,0.3-1.4,0.5-2c0,0,0,0,0,0c1.4-5.2,3.2-10.3,5.7-15
	c0.1-0.1,0.2-0.3,0.2-0.4c1.2-2.1,2.5-4.1,4-6c0.8-1,1.7-2,2.6-3c2.4-2.4,5.1-4.5,8.1-6.1c6-3.2,12.9-4.4,19.3-2.4
	C151.9,244.9,152.1,244.9,152.3,245z"/>
<path class="st2" d="M152.2,245.2c-8.3,1.6-15.9,5.9-21.6,12.1c-1.3,1.3-2.3,2.8-3.1,4.5c-0.7,1.6-1,3.4-0.8,5.2
	c0.2,1.6,0.5,3.3,0.2,5c-0.3,1.7-1.3,3.2-2.8,4.1c-1.8,1.2-3.9,1.7-5.9,2.1c-2.3,0.4-4.7,0.9-6.6,2.3c-0.2,0.2-0.5-0.2-0.3-0.4
	c3.3-2.5,7.8-2,11.5-3.7c1.7-0.8,3.2-2.2,3.6-4.1c0.4-1.7,0-3.4-0.2-5.1c-0.2-1.7,0-3.5,0.6-5.1c0.7-1.7,1.7-3.2,2.9-4.6
	c2.7-3.1,5.9-5.7,9.4-7.8c4-2.4,8.4-4.1,13-5C152.5,244.7,152.5,245.1,152.2,245.2L152.2,245.2z"/>
<path class="st2" d="M132.3,255.1c-1.9-2.3-1.8-5.6,0.1-7.8c0.2-0.2,0.5,0.1,0.3,0.3c-1.8,2.1-1.9,5.2-0.1,7.3
	C132.9,255.1,132.5,255.4,132.3,255.1L132.3,255.1z"/>
<path class="st2" d="M126.5,266c2.9,0.3,5.8-0.5,8.2-2.2c0.2-0.2,0.5,0.2,0.3,0.4c-2.5,1.8-5.5,2.6-8.5,2.3
	C126.1,266.5,126.2,266,126.5,266z"/>
<path class="st2" d="M143.3,247.9c0.5,1,1.5,1.7,2.7,1.8c0.3,0,0.2,0.5-0.1,0.4c-1.3-0.1-2.4-0.9-3-2c-0.1-0.1,0-0.2,0.1-0.3
	C143.1,247.8,143.2,247.8,143.3,247.9L143.3,247.9z"/>
<polygon class="st3" points="242.1,276 246.5,274.5 242.9,256.8 236.4,259 "/>
<path class="st4" d="M240.5,274.9l1.2-0.4l4.2-3.6l3.3,1.1l0,0c3.1-1,6.4,0.6,7.4,3.7l0.1,0.2l-14.2,4.8L240.5,274.9z"/>
<polygon class="st3" points="220.7,273.1 225.2,274.2 231.5,257.2 224.8,255.6 "/>
<path class="st4" d="M219.9,271.3l1.3,0.3l5.5-0.8l2.2,2.7l0,0c3.1,0.7,5.1,3.9,4.3,7l0,0.2l-14.6-3.5L219.9,271.3z"/>
<rect x="182.1" y="257.3" class="st5" width="8" height="13.3"/>
<rect x="197.8" y="260" transform="matrix(0.5615 -0.8275 0.8275 0.5615 -137.616 283.5719)" class="st5" width="1.8" height="23.2"/>
<rect x="161.8" y="270.7" transform="matrix(0.8275 -0.5615 0.5615 0.8275 -122.6107 144.2094)" class="st5" width="23.2" height="1.8"/>
<circle class="st5" cx="208.4" cy="278.1" r="2.5"/>
<circle class="st5" cx="185.9" cy="278.1" r="2.5"/>
<circle class="st5" cx="163.8" cy="278.1" r="2.5"/>
<rect x="185" y="265.1" class="st5" width="1.8" height="13"/>
<rect x="184.3" y="245.7" class="st5" width="3.4" height="17.6"/>
<path class="st6" d="M168.6,248.4v-4.1c0-1.6,1.3-2.9,2.9-2.9h26.7c1.6,0,2.9,1.3,2.9,2.9v4.1c0,1.6-1.3,2.9-2.9,2.9h-26.7
	C169.9,251.3,168.6,250,168.6,248.4z"/>
<path class="st6" d="M152.5,240.8l-17.3-29.7c-1.2-2-0.5-4.6,1.5-5.8l1-0.6c2-1.2,4.6-0.5,5.8,1.5l17.3,29.7c1.2,2,0.5,4.6-1.5,5.8
	l-1,0.6C156.2,243.5,153.7,242.8,152.5,240.8z"/>
<path class="st6" d="M168.7,248.3c-7.8,0-14.1-6.3-14.1-14.1h1.5c0,6.9,5.6,12.5,12.6,12.5c2.6,0,5.1-0.8,7.2-2.3l0.9,1.2
	C174.5,247.4,171.6,248.3,168.7,248.3z"/>
<path class="st4" d="M184.7,227c0,0,42.6-12.9,49.1,3s12.5,34.2,12.5,34.2l-8.4,2.7l-16.4-27.4c0,0-39.4,9.9-47.7-1.7L184.7,227z"/>
<path class="st7" d="M153.9,194.7l-9.9-0.8l-1.9,12.2c0,0,12.2,31.6,33.1,34.6l19.8-17.9l-21.9-8.2L153.9,194.7z"/>
<circle class="st8" cx="147" cy="175.9" r="12.9"/>
<path class="st4" d="M150.6,189.3c-0.6,0.5-1.5,0.8-2.7,0.8c-7.4,0.2-14.1-4.5-16.3-11.6c-0.5-1.7-1-4.3-0.1-6.8
	c0.6-1.8,1.9-3.3,3-4.5c1-1.1,2-2.2,3-3.2c1.2-1.2,2.7-2.6,4.5-3.2c1.3-0.5,2.8-0.5,4.2-0.5c0.5,0,1,0,1.5-0.1
	c1.2,0,2.4-0.3,3.5-0.9c0.5-0.2,1-0.3,1.5-0.1c0.5,0.2,0.9,0.6,1.1,1.1c0.2,0.5,0.3,0.9,0.9,1.1c0.4,0.1,0.8,0,1.1-0.3
	c0.2-0.1,0.4-0.2,0.6-0.1c0.2,0.1,0.4,0.2,0.4,0.4l0,0.1c0.2-0.2,0.5-0.2,0.8-0.1c0.4,0.1,0.6,0.5,0.6,0.9c-0.2,1.6-0.8,3.1-1.8,4.3
	c-0.7,0.8-1.5,1.5-2.5,2.1l-0.2,0.1l-0.1-0.2c-4.3,1.6-5.6,6.1-5.4,9.8l-0.4,0.1c-0.1-0.2-0.2-0.5-0.4-0.6c-0.3-0.2-0.6-0.2-0.8-0.1
	c-0.6,0.2-1,0.7-1,1.3c0,0.6,0.2,1.2,0.6,1.6c0.4,0.4,1,0.8,1.5,1.1c0.3,0.1,0.5,0.3,0.8,0.5c1.4,0.9,2.5,2.4,2.9,4
	c0.2,0.8,0.3,1.8-0.3,2.7C150.9,189,150.7,189.1,150.6,189.3z"/>
<path class="st4" d="M235.4,234.9c-2,17.1-6.2,33.1-6.2,33.1l-8-1.1l1.8-32.3"/>
<path class="st6" d="M156.7,177.9c-0.8,0-1.5-0.5-1.7-1.3c-5.2-2.7-2.4-4.6-2.1-6.8c-0.3-0.9,0.2-1.9,1.2-2.2c0,0,0,0,0,0l5.3-1.6
	c0.9-0.3,1.9,0.2,2.2,1.2l2.1,6.8c0.3,0.9-0.2,1.9-1.2,2.2l-5.3,1.6C157.1,177.9,156.9,177.9,156.7,177.9z"/>
<path class="st7" d="M160.2,165.8c0.8,0,1.5,0.5,1.7,1.3l2.2,6.9c0.1,0.5,0.1,1-0.1,1.4c-0.2,0.4-0.6,0.8-1,0.9l-1.2,0.4l-3.3-10.4
	l1.2-0.4C159.8,165.8,160,165.8,160.2,165.8z"/>
<path class="st6" d="M132.7,181.8c-0.5,0-1-0.3-1.1-0.8l-0.6-1.8c-0.2-0.6,0.2-1.3,0.8-1.4c0,0,0,0,0,0l23.9-7.4
	c0.6-0.2,1.3,0.2,1.4,0.8c0,0,0,0,0,0l0.6,1.8c0.2,0.6-0.2,1.3-0.8,1.4l-23.9,7.4C133,181.8,132.9,181.8,132.7,181.8z"/>
<path class="st9" d="M197.9,237.8h-3.6c-1,0-1.7-0.7-1.8-1.7l-0.6-10.8c-0.1-1,0.7-1.8,1.7-1.9c0,0,0.1,0,0.1,0h4.8
	c1,0,1.8,0.8,1.8,1.8c0,0,0,0.1,0,0.1l-0.6,10.8C199.6,237,198.8,237.8,197.9,237.8z"/>
<polygon class="st5" points="200.2,225.9 200.1,226.7 192.1,226.7 192.1,225.9 "/>
<polygon class="st5" points="200.1,227.7 200,228.5 192.2,228.5 192.2,227.7 "/>
<polygon class="st5" points="200,229.5 199.9,230.3 192.3,230.3 192.3,229.5 "/>
<polygon class="st5" points="199.9,231.3 199.8,232.1 192.4,232.1 192.4,231.3 "/>
<polygon class="st5" points="199.8,233.1 199.7,233.9 192.5,233.9 192.5,233.1 "/>
<polygon class="st5" points="199.7,234.9 199.6,235.7 192.6,235.7 192.6,234.9 "/>
<ellipse class="st5" cx="196.2" cy="223.8" rx="1.3" ry="0.3"/>
<path class="st5" d="M196.3,224.1c-0.2,0-0.3-0.1-0.3-0.3v0v-5.7h-1.9c-0.2,0-0.3-0.1-0.3-0.3c0-0.2,0.1-0.3,0.3-0.3h2.2
	c0.2,0,0.3,0.1,0.3,0.3v0v6C196.6,224,196.5,224.1,196.3,224.1C196.3,224.1,196.3,224.1,196.3,224.1z"/>
<path class="st3" d="M195.3,229c-1.6-1.3-4-1.1-5.4,0.5c-0.1,0.2-0.3,0.4-0.4,0.6l-13.4-2.4l2.8,6.5l12.3,1.3
	c1.9,0.9,4.2,0.1,5.1-1.8C197.1,232.1,196.7,230.1,195.3,229L195.3,229z"/>
<path class="st7" d="M186.6,235.6l-24.5-1.9l0-0.1c-0.1-0.2-9.4-17.8-10.8-21.8c-0.9-2.4-0.8-5.1,0-7.5l0-0.1l0.1,0
	c2.3-1.3,5.3-0.9,7.1,1.1c4.2,4.7,7.3,10.2,9,16.3l1,3.4l17.5,3.9L186.6,235.6z"/>
<path id="af4baad4-c88d-44ba-bf25-f9ac1002d243-406" class="st10" d="M249,107L358.2,91v104.6L249,179.7V107z"/>
<path class="st6" d="M358.6,196.1l-110-16v-73.3l110-16.1V196.1z M249.4,179.3l108.4,15.8V91.5l-108.4,15.8V179.3z"/>
<path id="ff4ff120-a9b9-45f5-a9d3-5a86b5774f09-407" class="st2" d="M300.6,127.9c-0.2-0.4-0.3-0.7-0.5-1.1c-0.2-0.4-0.4-0.7-0.6-1
	c-0.2-0.3-0.4-0.6-0.7-0.8c-0.2-0.2-0.5-0.4-0.8-0.5c-0.3-0.1-0.7-0.1-1-0.1c-0.4,0.1-0.7,0.2-1,0.4c-0.3,0.2-0.7,0.4-1,0.7
	c-0.3,0.3-0.6,0.6-0.9,0.9c-0.9,0.9-1.7,1.7-2.6,2.6c-0.8,0.9-1.7,1.8-2.5,2.7c-0.8,0.9-1.6,1.8-2.4,2.7c-0.8,0.9-1.5,1.8-2.3,2.8
	l0,0.1l1.8-0.2l1.8-0.2l1.8-0.2l1.8-0.2c0.4-0.1,0.9-0.1,1.3-0.2c0.5-0.1,0.9-0.2,1.3-0.3c0.5-0.1,0.9-0.3,1.3-0.5
	c0.4-0.2,0.9-0.5,1.3-0.8c0.2-0.1,0.3-0.3,0.5-0.4c0.2-0.1,0.3-0.3,0.5-0.4c0.2-0.1,0.3-0.2,0.5-0.3c0.2-0.1,0.3-0.1,0.5-0.1
	c0.2,0,0.4,0,0.6,0.1c0.2,0.1,0.4,0.2,0.6,0.4c0.2,0.2,0.4,0.4,0.5,0.5c0.2,0.2,0.3,0.4,0.5,0.7c0.9,1.4,1.7,2.9,2.3,4.5
	c0.7,1.6,1.3,3.3,1.9,5c0.6,1.7,1.3,3.4,2,5c0.7,1.5,1.6,3,2.7,4.3c-0.7-2.3-1.4-4.6-2.1-6.8c-0.7-2.2-1.5-4.4-2.3-6.6
	c-0.8-2.2-1.6-4.3-2.4-6.4C302.3,131.9,301.5,129.9,300.6,127.9L300.6,127.9z"/>
<path id="aabaacff-0bee-43d0-a5f7-3609016c3fe5-408" class="st7" d="M276.8,128.5L276.8,128.5L276.8,128.5L276.8,128.5l-0.1,0.1
	c-0.1,0.1-0.1,0.1-0.2,0.2c-0.1,0.1-0.1,0.1-0.2,0.2c-0.1,0.1-0.1,0.1-0.2,0.2l-0.2,0.2c-0.1,0.1-0.2,0.2-0.4,0.3
	c-0.1,0.1-0.2,0.2-0.4,0.3c-0.1,0.1-0.2,0.2-0.4,0.3c-0.1,0.1-0.2,0.2-0.4,0.3c-0.2,0.2-0.5,0.5-0.7,0.7c-0.2,0.2-0.5,0.5-0.7,0.7
	c-0.2,0.2-0.4,0.5-0.7,0.7c-0.2,0.3-0.4,0.5-0.6,0.8c-0.1,0.1-0.2,0.3-0.3,0.4c-0.1,0.1-0.2,0.3-0.3,0.4c-0.1,0.1-0.2,0.3-0.3,0.4
	c-0.1,0.1-0.2,0.3-0.3,0.4l0,0l0,0l0,0l0,0l0,0l0,0l0,0l0,0c-0.2-0.4-0.4-0.9-0.5-1.4c-0.1-0.5-0.2-1-0.3-1.5c0-0.5,0-1.1,0-1.6
	c0-0.5,0.1-1,0.3-1.6c0.1-0.5,0.3-0.9,0.6-1.4c0.2-0.4,0.5-0.8,0.8-1.1c0.3-0.3,0.6-0.6,0.9-0.8c0.3-0.2,0.7-0.3,1-0.4
	c0.4,0,0.7,0,1.1,0.1c0.4,0.1,0.7,0.3,1,0.5c0.3,0.3,0.6,0.6,0.8,0.9c0.3,0.4,0.5,0.8,0.6,1.3l0,0l0,0l0,0l0,0l0,0.1l0,0.1
	L276.8,128.5L276.8,128.5z"/>
<path id="bb114f98-b27e-4f6c-8dcb-dec1941c81cb-409" class="st2" d="M277.2,162.8c0.4,0,0.8,0.1,1.2,0.2c0.4,0.1,0.8,0.1,1.2,0.2
	c0.4,0.1,0.8,0.2,1.2,0.3s0.8,0.2,1.2,0.4c1.3,0.4,2.5,0.9,3.7,1.5c1.3,0.6,2.5,1.3,3.7,2c1.3,0.8,2.5,1.7,3.7,2.6
	c1.3,1,2.5,2.1,3.6,3.2c0.4,0.4,0.8,0.8,1.2,1.2s0.8,0.8,1.2,1.2c0.4,0.4,0.8,0.9,1.1,1.3c0.4,0.4,0.7,0.9,1.1,1.4l0.1,0.2l0.1,0.2
	l0.1,0.2l0.1,0.2c0,0,0.1,0,0.1,0.1c0,0,0.1,0,0.1,0c0,0,0-0.1,0-0.1c0,0,0-0.1,0-0.1c-0.4-0.5-0.7-0.9-1.1-1.4
	c-0.4-0.5-0.8-0.9-1.1-1.3c-0.4-0.4-0.8-0.9-1.2-1.3c-0.4-0.4-0.8-0.8-1.2-1.2c-0.4-0.4-0.8-0.8-1.2-1.2c-0.4-0.4-0.8-0.7-1.2-1.1
	c-0.4-0.4-0.8-0.7-1.2-1s-0.8-0.7-1.2-1c-0.4-0.3-0.8-0.6-1.2-0.9c-0.4-0.3-0.8-0.6-1.2-0.8c-0.4-0.3-0.8-0.5-1.2-0.8
	c-0.4-0.2-0.8-0.5-1.2-0.7c-0.4-0.2-0.8-0.4-1.2-0.6c-0.4-0.2-0.8-0.4-1.2-0.6c-0.4-0.2-0.8-0.4-1.2-0.5c-0.4-0.2-0.8-0.3-1.2-0.5
	c-0.4-0.1-0.8-0.3-1.2-0.4c-0.4-0.1-0.8-0.2-1.2-0.3c-0.4-0.1-0.8-0.2-1.2-0.3c-0.4-0.1-0.8-0.1-1.2-0.2l-0.2,0l-0.2,0l-0.2,0
	l-0.2,0c0,0,0,0,0,0c0,0,0,0,0,0c0,0,0,0,0,0c0,0,0,0,0,0.1C277.1,162.7,277.1,162.7,277.2,162.8
	C277.1,162.8,277.1,162.8,277.2,162.8C277.1,162.8,277.1,162.8,277.2,162.8C277.2,162.8,277.2,162.8,277.2,162.8L277.2,162.8z"/>
<path id="e686dcc4-3a5c-45d7-a372-f96757b2bc76-410" class="st2" d="M276.8,153.3c0.7,0.1,1.4,0.2,2.2,0.3c0.7,0.1,1.5,0.2,2.2,0.3
	c0.7,0.1,1.5,0.2,2.2,0.4c0.8,0.1,1.5,0.3,2.3,0.4c0.8,0.2,1.5,0.3,2.3,0.5c0.8,0.2,1.6,0.4,2.3,0.6c0.8,0.2,1.6,0.5,2.4,0.8
	c0.8,0.3,1.6,0.6,2.4,0.9c0.7,0.3,1.4,0.6,2.1,0.9c0.7,0.3,1.4,0.7,2.1,1.1c0.7,0.4,1.4,0.8,2.1,1.2c0.7,0.4,1.4,0.9,2.1,1.4
	c0.7,0.5,1.3,1,1.9,1.5s1.3,1.1,1.9,1.7c0.6,0.6,1.2,1.2,1.8,1.8c0.6,0.6,1.2,1.3,1.8,2c0.6,0.7,1.1,1.4,1.7,2.1
	c0.5,0.7,1.1,1.5,1.6,2.3c0.5,0.8,1,1.6,1.5,2.5c0.5,0.9,0.9,1.7,1.4,2.6c0.1,0.1,0.1,0.2,0.2,0.3s0.1,0.2,0.2,0.3
	c0.1,0.1,0.1,0.2,0.2,0.3s0.1,0.2,0.2,0.4c0,0,0,0.1,0.1,0.1c0,0,0.1,0,0.1,0c0,0,0.1-0.1,0.1-0.1c0,0,0-0.1,0-0.1
	c-0.4-0.9-0.8-1.8-1.3-2.7c-0.5-0.9-0.9-1.7-1.4-2.6c-0.5-0.8-1-1.6-1.6-2.4c-0.5-0.8-1.1-1.5-1.7-2.2c-0.6-0.7-1.2-1.4-1.8-2.1
	c-0.6-0.7-1.2-1.3-1.8-1.9c-0.6-0.6-1.2-1.2-1.9-1.7s-1.3-1.1-1.9-1.6c-0.7-0.5-1.4-1-2-1.5c-0.7-0.5-1.4-0.9-2-1.3
	c-0.7-0.4-1.4-0.8-2.1-1.1c-0.7-0.4-1.4-0.7-2.1-1c-0.8-0.3-1.6-0.7-2.4-1c-0.8-0.3-1.6-0.6-2.4-0.8c-0.8-0.3-1.6-0.5-2.3-0.7
	c-0.8-0.2-1.6-0.4-2.3-0.6c-0.8-0.2-1.5-0.3-2.3-0.5c-0.8-0.1-1.5-0.3-2.3-0.4c-0.8-0.1-1.5-0.2-2.2-0.4c-0.7-0.1-1.5-0.2-2.2-0.3
	l-0.3,0l-0.3,0l-0.3,0l-0.3,0c0,0-0.1,0-0.1,0c0,0,0,0.1,0,0.1C276.7,153.1,276.7,153.2,276.8,153.3
	C276.7,153.2,276.8,153.3,276.8,153.3z"/>
<path id="b63e2850-e30b-4f93-aa42-78b25661d067-411" class="st2" d="M324.8,176.8c-0.1-0.2-0.2-0.4-0.3-0.6
	c-0.1-0.2-0.2-0.4-0.3-0.6c-0.1-0.2-0.2-0.4-0.3-0.6c-0.1-0.2-0.2-0.4-0.3-0.6c-0.9-1.7-1.8-3.3-2.7-5c-0.9-1.7-1.7-3.3-2.6-5
	c-0.8-1.6-1.7-3.3-2.5-5c-0.8-1.6-1.6-3.3-2.4-5c-0.5-1.1-1-2.2-1.5-3.4c-0.5-1.1-1-2.2-1.5-3.4c-0.5-1.1-1-2.2-1.4-3.4
	c-0.5-1.1-0.9-2.2-1.4-3.4c-0.2-0.5-0.4-1.1-0.6-1.6c-0.2-0.5-0.4-1.1-0.6-1.6c-0.2-0.5-0.4-1.1-0.6-1.6c-0.2-0.5-0.4-1.1-0.6-1.6
	c-0.2-0.4-0.3-0.8-0.5-1.2c-0.2-0.4-0.3-0.8-0.5-1.2c-0.2-0.4-0.3-0.8-0.4-1.2c-0.1-0.4-0.3-0.8-0.4-1.2c0-0.1-0.1-0.2-0.1-0.4
	c0-0.1-0.1-0.2-0.1-0.4s-0.1-0.2-0.1-0.4l-0.1-0.4c-0.1-0.3-0.2-0.6-0.3-0.8c-0.1-0.3-0.2-0.6-0.3-0.8c-0.1-0.3-0.2-0.6-0.3-0.8
	c-0.1-0.3-0.2-0.5-0.3-0.8c-0.1-0.3-0.2-0.6-0.4-0.9c-0.1-0.3-0.3-0.6-0.4-0.9c-0.1-0.3-0.3-0.6-0.5-0.8c-0.2-0.2-0.4-0.5-0.6-0.7
	c-0.1-0.1-0.2-0.2-0.3-0.2c-0.1-0.1-0.2-0.1-0.3-0.2c-0.1-0.1-0.2-0.1-0.3-0.1c-0.1,0-0.2,0-0.3-0.1c-0.2,0-0.3,0-0.5,0.1
	c-0.2,0-0.3,0.1-0.5,0.2c-0.2,0.1-0.3,0.2-0.5,0.3c-0.1,0.1-0.3,0.2-0.4,0.3c-1,0.9-2.1,1.7-3,2.7c-1,0.9-1.9,1.9-2.9,2.9
	c-0.9,1-1.8,2-2.7,3c-0.9,1-1.7,2.1-2.5,3.2c-0.8,1.1-1.6,2.2-2.4,3.3c-0.8,1.1-1.5,2.3-2.2,3.5c-0.7,1.2-1.4,2.4-2,3.6
	c-0.6,1.2-1.3,2.5-1.9,3.7c0,0,0,0.1-0.1,0.1c0,0-0.1,0-0.1,0c0,0,0-0.1,0-0.1c0,0,0-0.1,0-0.1c0.1-0.2,0.1-0.3,0.2-0.5
	c0.1-0.2,0.1-0.3,0.2-0.5c0.1-0.2,0.1-0.3,0.2-0.5c0.1-0.2,0.1-0.3,0.2-0.5c0.9-1.9,1.9-3.7,3-5.5c1.1-1.8,2.2-3.5,3.4-5.2
	c1.2-1.7,2.4-3.3,3.8-4.9c1.3-1.6,2.7-3.1,4.1-4.5c0.2-0.2,0.5-0.5,0.7-0.7s0.5-0.5,0.7-0.7c0.3-0.2,0.5-0.5,0.8-0.7
	c0.3-0.2,0.5-0.5,0.8-0.7c0.1-0.1,0.3-0.2,0.4-0.3c0.1-0.1,0.3-0.2,0.4-0.3c0.1-0.1,0.3-0.2,0.4-0.3c0.1-0.1,0.3-0.2,0.4-0.3
	c0.1-0.1,0.3-0.2,0.4-0.3c0.1-0.1,0.3-0.2,0.4-0.3c0.1-0.1,0.3-0.1,0.4-0.2c0.1,0,0.3-0.1,0.4-0.1c0.5,0,1,0.1,1.4,0.4
	c0.4,0.4,0.8,0.8,1.1,1.3c0.3,0.6,0.6,1.2,0.8,1.8c0.2,0.6,0.5,1.2,0.6,1.8c0.1,0.2,0.1,0.3,0.2,0.5c0.1,0.2,0.1,0.3,0.2,0.5
	c0.1,0.2,0.1,0.3,0.2,0.5s0.1,0.3,0.2,0.5c0.2,0.7,0.5,1.3,0.7,2s0.5,1.3,0.7,2c0.2,0.7,0.5,1.3,0.7,2s0.5,1.3,0.8,2
	c0.2,0.4,0.3,0.8,0.5,1.2c0.2,0.4,0.3,0.8,0.5,1.2c0.2,0.4,0.3,0.8,0.5,1.2c0.2,0.4,0.3,0.8,0.5,1.2c0.5,1.3,1,2.5,1.6,3.8
	c0.5,1.3,1.1,2.5,1.6,3.8c0.6,1.3,1.1,2.5,1.7,3.8c0.6,1.3,1.2,2.6,1.8,3.8c0.8,1.7,1.6,3.4,2.5,5.1c0.8,1.7,1.7,3.4,2.6,5.1
	c0.9,1.7,1.8,3.4,2.7,5.1c0.9,1.7,1.9,3.4,2.9,5.1c0,0,0,0.1,0,0.1c0,0,0,0.1,0,0.1C325,176.8,325,176.9,324.8,176.8
	C324.9,176.9,324.9,176.8,324.8,176.8z"/>
<path id="be6f29ee-45a1-4b5e-b111-fe61a3bc9058-412" class="st2" d="M285.3,132.1l-0.1-0.1l-0.1-0.1l-0.1-0.1l-0.1-0.1
	c-0.2-0.3-0.4-0.7-0.7-1c-0.2-0.3-0.5-0.7-0.7-1c-0.2-0.3-0.5-0.6-0.8-0.8c-0.3-0.2-0.5-0.5-0.8-0.7c-0.1-0.1-0.3-0.2-0.4-0.2
	c-0.1-0.1-0.3-0.1-0.4-0.2c-0.1,0-0.3-0.1-0.5-0.1c-0.2,0-0.3,0-0.5,0c-0.2,0-0.3,0-0.5,0.1c-0.2,0-0.3,0.1-0.5,0.1
	c-0.2,0.1-0.3,0.1-0.5,0.2c-0.2,0.1-0.3,0.2-0.4,0.3c-0.1,0-0.1,0.1-0.2,0.1c-0.1,0-0.1,0.1-0.2,0.1c-0.1,0.1-0.1,0.1-0.2,0.2
	c-0.1,0.1-0.1,0.1-0.2,0.2c-0.1,0.1-0.1,0.1-0.2,0.2s-0.1,0.1-0.2,0.2c-0.1,0.1-0.1,0.1-0.2,0.2l-0.2,0.2c-0.1,0.1-0.3,0.2-0.4,0.4
	c-0.1,0.1-0.3,0.2-0.4,0.4c-0.1,0.1-0.3,0.3-0.4,0.4c-0.1,0.1-0.3,0.3-0.4,0.4c-0.3,0.3-0.5,0.5-0.8,0.8s-0.5,0.5-0.8,0.8
	s-0.5,0.6-0.7,0.8c-0.2,0.3-0.5,0.6-0.7,0.9c-0.1,0.2-0.2,0.3-0.4,0.5c-0.1,0.2-0.2,0.3-0.4,0.5c-0.1,0.2-0.2,0.3-0.4,0.5
	c-0.1,0.2-0.2,0.3-0.4,0.5c-0.1,0.1-0.2,0.3-0.3,0.4s-0.2,0.3-0.3,0.4c-0.1,0.1-0.2,0.3-0.3,0.5c-0.1,0.2-0.2,0.3-0.3,0.5
	c0,0,0,0-0.1,0c0,0,0,0-0.1,0c0,0,0-0.1,0-0.1c0,0,0-0.1,0-0.1l0.1-0.1l0.1-0.1l0.1-0.1l0.1-0.1c0.1-0.1,0.2-0.2,0.2-0.3
	c0.1-0.1,0.2-0.2,0.2-0.3c0.1-0.1,0.2-0.2,0.2-0.3c0.1-0.1,0.2-0.2,0.2-0.3c0.1-0.2,0.3-0.4,0.4-0.6c0.2-0.2,0.3-0.4,0.5-0.6
	c0.2-0.2,0.3-0.4,0.5-0.6c0.2-0.2,0.3-0.4,0.5-0.6c0.2-0.3,0.5-0.6,0.7-0.9c0.3-0.3,0.5-0.6,0.8-0.8c0.3-0.3,0.5-0.5,0.8-0.8
	c0.3-0.3,0.5-0.5,0.8-0.8c0.1-0.1,0.3-0.3,0.4-0.4c0.1-0.1,0.3-0.3,0.4-0.4c0.1-0.1,0.3-0.2,0.4-0.4c0.1-0.1,0.3-0.2,0.4-0.4
	l0.1-0.1c0,0,0.1-0.1,0.1-0.1c0,0,0.1-0.1,0.1-0.1c0,0,0.1-0.1,0.1-0.1c0.1-0.1,0.2-0.2,0.3-0.2s0.2-0.1,0.3-0.2
	c0.1-0.1,0.2-0.1,0.3-0.2c0.1-0.1,0.2-0.1,0.3-0.2c0.1-0.1,0.3-0.2,0.5-0.2c0.2-0.1,0.3-0.1,0.5-0.1c0.2,0,0.3-0.1,0.5-0.1
	c0.2,0,0.3,0,0.5,0c0.2,0,0.3,0.1,0.5,0.1c0.2,0,0.3,0.1,0.4,0.2c0.1,0.1,0.3,0.1,0.4,0.2c0.1,0.1,0.3,0.2,0.4,0.3
	c0.3,0.2,0.6,0.5,0.8,0.8c0.3,0.3,0.5,0.6,0.8,0.9c0.2,0.3,0.5,0.7,0.7,1c0.2,0.4,0.5,0.7,0.7,1.1c0,0,0,0.1,0,0.1c0,0,0,0.1,0,0.1
	C285.4,132.2,285.4,132.2,285.3,132.1C285.3,132.2,285.3,132.2,285.3,132.1z"/>
<path id="f1703c2c-b32c-4f49-bbb5-823edaf9ca09-413" class="st2" d="M311.6,147.3l3.4-1.6l1.7-0.8c0.1-0.1,0.3-0.1,0.4-0.2
	c0.1-0.1,0.3-0.1,0.4-0.2c0.1-0.1,0.3-0.1,0.4-0.2c0.1-0.1,0.3-0.1,0.4-0.2c0.1,0,0.3-0.1,0.4-0.1c0.3,0,0.5,0,0.8,0
	c0.1,0,0.3,0.1,0.4,0.1c0.1,0.1,0.2,0.1,0.3,0.2c0.1,0.1,0.2,0.1,0.3,0.2c0.1,0.1,0.2,0.2,0.3,0.3c0.1,0.1,0.2,0.2,0.3,0.3
	c0.1,0.1,0.2,0.2,0.3,0.3c0.1,0.1,0.2,0.2,0.3,0.4c0.1,0.1,0.2,0.2,0.2,0.4c0.1,0.1,0.2,0.2,0.2,0.4c0.1,0.2,0.2,0.3,0.3,0.5
	c0.1,0.2,0.2,0.3,0.3,0.5l0.3,0.5l0.3,0.5c0.4,0.6,0.8,1.3,1.2,1.9s0.8,1.3,1.2,2c0.4,0.7,0.8,1.3,1.2,2c0.4,0.7,0.8,1.3,1.2,2
	c0.4,0.7,0.8,1.3,1.2,2c0.4,0.7,0.8,1.4,1.2,2c0.4,0.7,0.8,1.4,1.2,2.1c0.4,0.7,0.8,1.4,1.2,2.1c0.4,0.7,0.8,1.4,1.2,2.1
	c0.4,0.7,0.8,1.4,1.2,2.1c0.4,0.7,0.8,1.4,1.3,2.1s0.8,1.4,1.3,2.2l0.2,0.3l0.2,0.3l0.2,0.3l0.2,0.3c0,0,0.1,0.1,0.1,0.1
	c0,0,0.1,0,0.1,0c0,0,0.1-0.1,0.1-0.1c0,0,0-0.1,0-0.1c-0.4-0.7-0.9-1.5-1.3-2.2c-0.4-0.7-0.8-1.5-1.3-2.2c-0.4-0.7-0.8-1.4-1.3-2.2
	c-0.4-0.7-0.8-1.4-1.3-2.1c-0.4-0.7-0.8-1.4-1.3-2.1c-0.4-0.7-0.8-1.4-1.3-2.1c-0.4-0.7-0.8-1.4-1.2-2.1c-0.4-0.7-0.8-1.4-1.2-2.1
	c-0.4-0.7-0.8-1.4-1.2-2c-0.4-0.7-0.8-1.4-1.2-2c-0.4-0.7-0.8-1.3-1.2-2c-0.4-0.7-0.8-1.3-1.2-2l-0.3-0.5l-0.3-0.5l-0.3-0.5
	l-0.3-0.5c-0.1-0.1-0.2-0.3-0.3-0.4c-0.1-0.1-0.2-0.3-0.3-0.4c-0.1-0.1-0.2-0.3-0.3-0.4c-0.1-0.1-0.2-0.3-0.3-0.4
	c-0.2-0.2-0.3-0.5-0.5-0.7c-0.2-0.2-0.4-0.4-0.6-0.6c-0.2-0.2-0.4-0.3-0.7-0.4c-0.2-0.1-0.5-0.1-0.7-0.2c-0.1,0-0.3,0-0.4,0
	c-0.1,0-0.3,0.1-0.4,0.1c-0.1,0-0.3,0.1-0.4,0.1c-0.1,0.1-0.3,0.1-0.4,0.2l-0.4,0.2l-0.4,0.2l-0.4,0.2l-0.4,0.2l-3.4,1.7l-0.8,0.4
	c0,0-0.1,0.1-0.1,0.1c0,0,0,0.1,0,0.1C311.4,147.2,311.4,147.2,311.6,147.3C311.5,147.3,311.5,147.3,311.6,147.3z"/>
<path id="b0037319-74a5-4008-9317-45f3792eb6f0-414" class="st2" d="M277.5,126.7l-0.2,0.2c-0.3-0.6-0.7-1.1-1.1-1.6
	c-0.4-0.4-0.9-0.7-1.4-0.9c-0.5-0.2-1-0.2-1.5-0.2c-0.5,0.1-1,0.3-1.5,0.6c-0.5,0.4-0.9,0.8-1.3,1.3c-0.4,0.6-0.7,1.2-0.9,1.8
	c-0.3,0.7-0.4,1.4-0.5,2.1c-0.1,0.8-0.1,1.6-0.1,2.3c0,0.4,0.1,0.8,0.1,1.2c0.1,0.4,0.2,0.7,0.3,1.1c0.1,0.3,0.2,0.7,0.4,1
	c0.1,0.3,0.3,0.6,0.5,0.9l-0.1,0.2c-0.2-0.3-0.4-0.6-0.5-0.9c-0.2-0.3-0.3-0.7-0.4-1c-0.1-0.4-0.2-0.8-0.3-1.1
	c-0.1-0.4-0.1-0.8-0.1-1.2c-0.1-0.8,0-1.6,0.1-2.4c0.1-0.8,0.3-1.5,0.6-2.2c0.2-0.7,0.6-1.3,1-1.9c0.4-0.5,0.8-1,1.3-1.4
	c0.5-0.3,1-0.5,1.5-0.6c0.5-0.1,1.1,0,1.6,0.2c0.5,0.2,1,0.5,1.4,0.9C276.8,125.5,277.2,126.1,277.5,126.7z"/>
<path id="aafff38a-0033-470b-af8f-2720d14bfd24-415" class="st11" d="M293.6,146.2C293.5,146.2,293.5,146.2,293.6,146.2
	c-0.1-0.1-0.1-0.2-0.2-0.2c0,0,0-0.1-0.1-0.1c0-0.1,0-0.1,0-0.2c0-0.1,0-0.1,0-0.2c0-0.1,0-0.1,0-0.2c0,0,0-0.1,0-0.1
	c0,0,0-0.1,0.1-0.1l-0.7-9.5l1.1,0.1l0.3,9.4c0,0.1,0.1,0.1,0.1,0.2c0,0.1,0,0.2,0,0.3c0,0.1,0,0.2,0,0.3c0,0.1,0,0.2-0.1,0.2
	c0,0.1-0.1,0.1-0.1,0.2c0,0-0.1,0.1-0.2,0.1c-0.1,0-0.1,0-0.2,0C293.7,146.3,293.6,146.3,293.6,146.2z"/>
<path id="e5744499-f715-4e36-9399-61aee0985ddd-416" class="st4" d="M294.3,135.2l-0.3,3.2l0,1.9l-1.2,0.2l-0.2-1.6l-0.1-4.3
	c0-0.2,0-0.3,0-0.5c0-0.1,0.1-0.3,0.2-0.4c0.1-0.1,0.1-0.2,0.3-0.3c0.1-0.1,0.2-0.1,0.3-0.2l0,0c0.1,0,0.2,0,0.3,0
	c0.1,0,0.2,0.1,0.3,0.2c0.1,0.1,0.2,0.2,0.2,0.4c0.1,0.2,0.1,0.3,0.1,0.5L294.3,135.2z"/>
<path id="a9ca9720-7309-4a38-9680-36d71a5e15ab-417" class="st11" d="M289.7,162.9l-0.7,0l-0.3-4.1l1.1,0.1V162.9z"/>
<path id="bee5ad7f-ff29-4d45-ab11-22ff698eac35-418" class="st4" d="M289.9,163.9l-2.3-0.2v0c0-0.2,0-0.3,0.1-0.5
	c0-0.1,0.1-0.3,0.2-0.4c0.1-0.1,0.2-0.2,0.3-0.3c0.1-0.1,0.2-0.1,0.3-0.1l0,0l1.4,0.1L289.9,163.9z"/>
<path id="a21bf55f-1c38-45bb-a579-610ecd01da49-419" class="st11" d="M295.8,163.3l-0.7-0.1l-0.4-4.1l1.1,0.1L295.8,163.3z"/>
<path id="e08b6af7-be9b-47f0-ac97-9ea1ae8db3f0-420" class="st4" d="M296,164.3l-2.4-0.2v0c0-0.2,0-0.3,0.1-0.5
	c0-0.1,0.1-0.3,0.2-0.4c0.1-0.1,0.2-0.2,0.3-0.3c0.1-0.1,0.2-0.1,0.4-0.1l0,0l1.5,0.1V164.3z"/>
<path id="ec3ccaec-a5a5-4434-ae33-6511140caff3-421" class="st11" d="M292.9,127.2c0.2,0,0.4,0,0.6,0.1c0.2,0.1,0.4,0.3,0.5,0.5
	c0.2,0.2,0.3,0.5,0.3,0.7c0.1,0.3,0.1,0.6,0.1,0.9c0,0.3,0,0.6-0.1,0.9c-0.1,0.3-0.2,0.5-0.3,0.7c-0.1,0.2-0.3,0.4-0.5,0.5
	c-0.2,0.1-0.4,0.2-0.6,0.2c-0.2,0-0.4,0-0.6-0.2c-0.2-0.1-0.4-0.3-0.5-0.5c-0.2-0.2-0.3-0.5-0.3-0.7c-0.1-0.3-0.1-0.6-0.1-0.9
	c0-0.3,0-0.6,0.1-0.9c0.1-0.3,0.2-0.5,0.3-0.7c0.1-0.2,0.3-0.4,0.5-0.5C292.5,127.3,292.7,127.2,292.9,127.2z"/>
<path id="e036711a-3868-4837-b3a6-788b0ed04356-422" class="st5" d="M292.7,132.7l1.1,0.1l0,0c0.1,0.3,0.3,0.6,0.3,0.9
	c0.1,0.3,0.1,0.6,0.2,1c0,0.3,0,0.7,0,1c0,0.3-0.1,0.7-0.1,1l-0.8,3.5c0,0,0.1,0.2,0.2,0.6c0.1,0.4,0.3,0.9,0.4,1.5
	c0.1,0.6,0.3,1.3,0.4,2.1c0.1,0.8,0.2,1.6,0.2,2.3c0,1.2,0.2,2.4,0.3,3.6c0.2,1.5,0.5,3.2,0.8,4.8c0.3,1.6,0.6,3.1,0.8,4.2
	c0.2,1.1,0.4,1.8,0.4,1.8l-3.1,0.3l-1.4-11.9l-1.8,11.6l-2.1-0.6l1.1-15.2l0.8-5l0-2.5c0,0,0-0.1,0-0.3c0-0.3,0-0.5,0-0.8
	c0-0.3,0.1-0.7,0.1-1c0.1-0.3,0.2-0.7,0.4-1l1-2L292.7,132.7z"/>
<path id="bb8fbc15-773e-43e2-a398-6f49aea3cb57-423" class="st4" d="M291.1,128.7l2.3-0.1v-1.5c-0.1-0.1-0.3-0.1-0.4-0.2
	c-0.1,0-0.2-0.1-0.4-0.1c-0.1,0-0.2,0-0.3,0.1c-0.1,0.1-0.2,0.2-0.3,0.3c-0.1,0-0.3,0.1-0.4,0.1c-0.1,0.1-0.2,0.2-0.3,0.3
	c-0.1,0.1-0.2,0.3-0.2,0.5C291.1,128.4,291.1,128.6,291.1,128.7z"/>
<path id="bfd64cff-ffcf-41c5-9f43-f81c5f9489c0-424" class="st4" d="M293.5,126.9c0.3,0,0.7,0.1,0.9,0.4c0.3,0.3,0.4,0.6,0.6,1
	c0.1,0.4,0.2,0.9,0.3,1.3c0.1,0.4,0.1,0.8,0.1,1.2c0,0.2,0,0.3,0,0.5c0,0.1-0.1,0.2-0.1,0.4c-0.1,0.1-0.1,0.2-0.2,0.2
	c-0.1,0.1-0.2,0.1-0.3,0.1l-0.1-1.1l-0.3,1.1l-0.1,0l-0.1,0h-0.2l-0.1-0.3l-0.2,0.3c-0.2,0-0.5,0-0.7,0c-0.2,0-0.4,0-0.6-0.1
	c-0.2-0.1-0.3-0.2-0.4-0.3c-0.1-0.2-0.2-0.5-0.1-0.8c0-0.4,0-0.8,0.1-1.2c0.1-0.4,0.1-0.9,0.3-1.3c0.1-0.4,0.3-0.7,0.5-1.1
	C292.8,127.1,293.2,126.9,293.5,126.9z"/>
<path id="a5e17919-4dc8-491b-a8f8-b724daf8bc20-425" class="st12" d="M291.5,140.9l-0.1-3.7l-0.2-1.6l-0.4,1.6L291.5,140.9z"/>
<path id="aba19b91-f9bc-42d8-9081-f302e7a60142-426" class="st7" d="M294.4,140.4l-1.8,0V133l1.8-0.1c0.2,0,0.3,0,0.5,0.1
	c0.2,0.1,0.3,0.2,0.4,0.4c0.1,0.2,0.2,0.4,0.3,0.6c0.1,0.2,0.1,0.5,0.1,0.7v3.8c0,0.2,0,0.5-0.1,0.7c-0.1,0.2-0.2,0.4-0.3,0.6
	c-0.1,0.2-0.2,0.3-0.4,0.4C294.7,140.3,294.6,140.4,294.4,140.4L294.4,140.4z"/>
<path id="ed07398e-425f-476c-be6b-a3651f18917c-427" class="st6" d="M294.1,136.4C294.1,136.4,294.1,136.4,294.1,136.4
	c-0.1,0-0.1-0.1-0.2-0.1c0,0,0-0.1,0-0.1c0,0,0-0.1,0-0.1v-2.8l0.4,0v2.8c0,0,0,0.1,0,0.1c0,0,0,0.1,0,0.1
	C294.3,136.3,294.3,136.3,294.1,136.4C294.2,136.4,294.2,136.4,294.1,136.4L294.1,136.4z"/>
<path id="ebf3c613-bcbf-4092-85ba-c68bf9c5e996-428" class="st6" d="M294.7,139.8l-1.3,0c0,0-0.1,0-0.1,0c0,0-0.1-0.1-0.1-0.1
	c0,0,0-0.1-0.1-0.1c0-0.1,0-0.1,0-0.2v-1.1c0-0.1,0-0.1,0-0.2c0,0,0-0.1,0.1-0.1c0,0,0.1-0.1,0.1-0.1c0,0,0.1,0,0.1,0l1.3,0
	c0,0,0.1,0,0.1,0c0,0,0.1,0.1,0.1,0.1c0,0,0,0.1,0.1,0.1c0,0.1,0,0.1,0,0.2v1.1c0,0.1,0,0.1,0,0.2c0,0,0,0.1-0.1,0.1
	c0,0-0.1,0.1-0.1,0.1C294.8,139.8,294.7,139.8,294.7,139.8z"/>
<path id="b7342335-cfca-46c4-a9d4-7ff25269ba84-429" class="st7" d="M291,137.6c-0.1-0.2-0.2-0.3-0.2-0.5c-0.1-0.2-0.1-0.4-0.2-0.5
	c0-0.2-0.1-0.4-0.1-0.6c0-0.2,0-0.4,0-0.6c0-0.4,0-0.8,0.1-1.2c0.1-0.3,0.2-0.6,0.3-1c0.1-0.2,0.3-0.5,0.5-0.7
	c0.2-0.2,0.4-0.2,0.6-0.3c0.1,0,0.2,0,0.4,0.1c0.1,0.1,0.2,0.1,0.3,0.2c0.1,0.1,0.2,0.2,0.3,0.3c0.1,0.1,0.2,0.3,0.2,0.4l-0.1,0.1
	c0-0.1-0.1-0.3-0.2-0.4c-0.1-0.1-0.1-0.2-0.2-0.3c-0.1-0.1-0.2-0.1-0.3-0.2c-0.1,0-0.2-0.1-0.3-0.1c-0.2,0-0.4,0.1-0.5,0.2
	c-0.2,0.2-0.3,0.4-0.4,0.6c-0.1,0.3-0.2,0.6-0.3,0.9c-0.1,0.4-0.1,0.7-0.1,1.1c0,0.2,0,0.4,0,0.6c0,0.2,0,0.4,0.1,0.5
	c0,0.2,0.1,0.3,0.2,0.5c0.1,0.2,0.1,0.3,0.2,0.5L291,137.6z"/>
<path id="b7b642b4-9c5f-47de-b7a4-9ef0518be937-430" class="st11" d="M291.7,146.6c0,0-0.1-0.1-0.1-0.1c0,0-0.1-0.1-0.1-0.1
	c0-0.1,0-0.1,0-0.2c0-0.1,0-0.1,0-0.2c0-0.1,0-0.1,0-0.2c0-0.1,0-0.1,0-0.2c0-0.1,0-0.1,0.1-0.2c0,0,0-0.1,0.1-0.1l-0.3-10.4
	l1.2,0.2l-0.1,10.3c0,0.1,0.1,0.2,0.1,0.3c0,0.2,0.1,0.4,0,0.6c0,0.1-0.1,0.2-0.1,0.3c0,0.1-0.1,0.1-0.2,0.2c-0.1,0-0.1,0.1-0.2,0.1
	c-0.1,0-0.1,0-0.2,0C291.8,146.7,291.8,146.7,291.7,146.6L291.7,146.6z"/>
<path id="fb8e0b0f-20d5-4e98-8c73-aaf11f36490a-431" class="st5" d="M293,134.6l-0.4,3.4l0,2.1l-1.3,0.1l-0.2-1.8l0-4.7
	c0-0.2,0-0.3,0.1-0.5c0-0.2,0.1-0.3,0.2-0.4c0.1-0.1,0.2-0.2,0.3-0.3c0.1-0.1,0.2-0.1,0.4-0.1l0,0c0.1,0,0.3,0,0.4,0.1
	c0.1,0.1,0.2,0.1,0.3,0.3c0.1,0.1,0.2,0.3,0.2,0.4c0.1,0.2,0.1,0.3,0.1,0.5L293,134.6z"/>
<path id="bc235a67-7b20-4a20-8858-2e3f29967952-432" class="st2" d="M293.1,165.7c0-0.1,0.1-0.2,0.2-0.2c0.1,0,0.2-0.1,0.4,0
	c0.2,0,0.3,0.1,0.5,0.1c0.2,0.1,0.4,0.2,0.6,0.3c0.2,0.1,0.4,0.2,0.5,0.4c0.1,0.1,0.3,0.3,0.4,0.4c0.1,0.1,0.2,0.3,0.2,0.4
	c0,0.1,0.1,0.2,0,0.3c0,0.1-0.1,0.2-0.2,0.2c-0.1,0-0.2,0.1-0.4,0c-0.2,0-0.3-0.1-0.5-0.1c-0.2-0.1-0.4-0.2-0.6-0.3
	c-0.2-0.1-0.4-0.2-0.5-0.4c-0.1-0.1-0.3-0.3-0.4-0.4c-0.1-0.1-0.2-0.3-0.2-0.4C293.1,166,293.1,165.8,293.1,165.7z"/>
<path id="b50bb785-b8db-4d08-96ef-ee58b0a94edf-433" class="st2" d="M298.2,165.8c0-0.1,0.1-0.1,0.2-0.2c0.1,0,0.3,0,0.4,0.1
	c0.2,0.1,0.3,0.1,0.5,0.2c0.2,0.1,0.4,0.3,0.5,0.4c0.2,0.2,0.3,0.3,0.5,0.5c0.1,0.2,0.3,0.3,0.4,0.5c0.1,0.1,0.2,0.3,0.2,0.5
	c0,0.1,0,0.2,0,0.3c0,0.1-0.1,0.1-0.2,0.2c-0.1,0-0.3,0-0.4-0.1c-0.2-0.1-0.3-0.1-0.5-0.2c-0.2-0.1-0.4-0.3-0.5-0.4
	c-0.2-0.2-0.3-0.3-0.5-0.5c-0.1-0.2-0.3-0.3-0.4-0.5c-0.1-0.1-0.2-0.3-0.2-0.5C298.2,166,298.2,165.9,298.2,165.8z"/>
<path id="b534d4cc-211b-4c90-a5f7-10469ec4cf05-434" class="st2" d="M300.6,170.9c0-0.1,0.1-0.2,0.2-0.2c0.1,0,0.3,0,0.4,0
	c0.2,0.1,0.3,0.1,0.5,0.2c0.2,0.1,0.4,0.2,0.6,0.4c0.2,0.2,0.4,0.3,0.5,0.5c0.1,0.2,0.3,0.3,0.4,0.5c0.1,0.1,0.2,0.3,0.2,0.5
	c0,0.1,0,0.2,0,0.3c0,0.1-0.1,0.2-0.2,0.2c-0.1,0-0.3,0-0.4,0c-0.2-0.1-0.3-0.1-0.5-0.2c-0.2-0.1-0.4-0.2-0.6-0.4
	c-0.2-0.2-0.4-0.3-0.5-0.5c-0.1-0.2-0.3-0.3-0.4-0.5c-0.1-0.1-0.2-0.3-0.2-0.5C300.5,171.1,300.5,171,300.6,170.9z"/>
<path id="a5f32c8e-80f6-4d19-8d94-c7ef166aad5d-435" class="st2" d="M305.6,173c0-0.1,0.1-0.2,0.2-0.2c0.1,0,0.3,0,0.4,0
	c0.2,0.1,0.4,0.1,0.5,0.2c0.2,0.1,0.4,0.3,0.6,0.4c0.2,0.2,0.4,0.3,0.5,0.5c0.1,0.2,0.3,0.3,0.4,0.5c0.1,0.1,0.2,0.3,0.2,0.5
	c0,0.1,0,0.2,0,0.4c0,0.1-0.1,0.2-0.2,0.2c-0.1,0-0.3,0-0.4,0c-0.2-0.1-0.4-0.1-0.5-0.2c-0.2-0.1-0.4-0.3-0.6-0.4
	c-0.2-0.2-0.4-0.3-0.5-0.5c-0.1-0.2-0.3-0.3-0.4-0.5c-0.1-0.1-0.2-0.3-0.2-0.5C305.6,173.2,305.6,173.1,305.6,173z"/>
<path id="a1534ae8-adba-47e7-9a6c-73e1b741057c-436" class="st2" d="M281.6,129.9c-0.3-0.2-0.7-0.4-1.1-0.5c-0.4-0.1-0.8-0.1-1.1,0
	c-0.4,0.1-0.8,0.2-1.1,0.4c-0.4,0.2-0.7,0.5-1,0.8c0.6,0.1,1.2,0.3,1.8,0.4c0.6,0.2,1.2,0.3,1.8,0.5c0.6,0.2,1.2,0.4,1.8,0.6
	c0.6,0.2,1.2,0.4,1.8,0.7c-0.3-0.2-0.5-0.5-0.7-0.7c-0.2-0.3-0.5-0.5-0.7-0.8c-0.2-0.3-0.4-0.5-0.7-0.8
	C282.1,130.3,281.9,130.1,281.6,129.9z"/>
<path id="ea354f02-1fc1-46f1-9fac-9aa5a529dbd3-437" class="st10" d="M277.2,130.6l-0.3,0.3c0,0,0-0.1,0.1-0.1c0,0,0-0.1,0.1-0.1
	C277.1,130.7,277.1,130.7,277.2,130.6C277.2,130.6,277.2,130.6,277.2,130.6L277.2,130.6z"/>
<path id="f109d977-ca8a-46c1-80d5-cfdd41118b93-438" class="st2" d="M321.1,147.4c-0.1-0.1-0.2-0.3-0.3-0.4
	c-0.1-0.1-0.2-0.3-0.3-0.4c-0.1-0.1-0.2-0.2-0.3-0.3c-0.1-0.1-0.2-0.2-0.4-0.3l-0.5,0c0.9,2.2,1.9,4.3,3,6.4c1.1,2.1,2.3,4.1,3.6,6
	c1.3,2,2.7,3.9,4.1,5.7c1.5,1.8,3,3.6,4.7,5.3l-3.5-5.7l-3.4-5.6l-3.4-5.4L321.1,147.4z"/>
<path class="st5" d="M286.4,281.4h-194c-0.3,0-0.5-0.2-0.5-0.5c0-0.2,0.2-0.4,0.5-0.5h194c0.3,0,0.5,0.2,0.5,0.5
	C286.9,281.2,286.7,281.4,286.4,281.4z"/>
<path class="st6" d="M159.3,170.6c-0.4,0-0.8-0.3-0.9-0.6l-0.5-1.4c-0.2-0.5,0.1-1,0.6-1.2s1,0.1,1.2,0.6c0,0,0,0,0,0l0.5,1.4
	c0.2,0.5-0.1,1-0.6,1.2h0C159.5,170.6,159.4,170.6,159.3,170.6z"/>
<path class="st6" d="M160.4,174.4c-0.4,0-0.8-0.3-0.9-0.7l-0.4-1.5c-0.1-0.5,0.2-1,0.7-1.2c0.5-0.1,1,0.1,1.2,0.7l0.4,1.5
	c0.1,0.5-0.1,1-0.7,1.2c0,0,0,0,0,0C160.5,174.4,160.5,174.4,160.4,174.4z"/>
</svg>
