<?xml version="1.0" encoding="utf-8"?>
<!-- Generator: Adobe Illustrator 24.0.1, SVG Export Plug-In . SVG Version: 6.00 Build 0)  -->
<svg version="1.1" id="Layer_1" xmlns="http://www.w3.org/2000/svg" xmlns:xlink="http://www.w3.org/1999/xlink" x="0px" y="0px"
	 viewBox="0 0 1300 400" style="enable-background:new 0 0 1300 400;" xml:space="preserve">
<style type="text/css">
	.st0{fill:url(#SVGID_1_);stroke:#000000;stroke-width:1.6452;stroke-miterlimit:10;}
	.st1{opacity:0.1;fill:#63C7FF;enable-background:new    ;}
	.st2{opacity:0.1;}
	.st3{fill:none;stroke:#535461;stroke-width:2;stroke-miterlimit:10;}
	.st4{fill:#63C7FF;}
	.st5{opacity:0.25;enable-background:new    ;}
	.st6{fill:#535461;}
	.st7{fill:#EAEAF3;}
	.st8{fill:#FFFFFF;}
</style>
<linearGradient id="SVGID_1_" gradientUnits="userSpaceOnUse" x1="0" y1="1370.7749" x2="1300" y2="1370.7749" gradientTransform="matrix(1 0 0 1 0 -1172)">
	<stop  offset="0" style="stop-color:#007194"/>
	<stop  offset="1" style="stop-color:#41C1C9"/>
</linearGradient>
<rect y="-1.2" class="st0" width="1300" height="400"/>
<path class="st1" d="M87.4,171.8c4.7,19.1,14.7,35.7,30.5,43.7c32.8,16.7,106.7,8.1,161.8-1.8c27.9-5,53.2-18.7,71.8-39L87.4,171.8z
	"/>
<path class="st1" d="M376.6,81.7h-30.3c-1.4,0-2.6-1.1-2.6-2.5c0-1.4,1.2-2.5,2.6-2.5h5.2c-1.4,0-2.6-1.1-2.6-2.5
	c0-1.4,1.2-2.5,2.6-2.5h-3.7c-1.4,0-2.6-1.1-2.6-2.5c0-1.4,1.2-2.5,2.6-2.5h15.8c-3.5-1.5-7.6-2.6-12.3-3.2
	c-43.1-5.3-58.4-1.8-63.9,1.8c-6.7,4.4-14.2,7.7-22.1,9.2c-26.6,5.2-76.3,11.5-121.3-2c-22.4-6.7-39,4.6-49,23.6h286.8
	c-0.4-5.5-1.5-10.6-3.6-15C377.8,81.5,377.2,81.7,376.6,81.7z"/>
<path class="st1" d="M84.9,131.9c-1.2,11.1-0.8,22.4,1.2,33.4l265.7,9.2c7.4-8.1,13.6-17.1,18.5-26.8L84.9,131.9z M189.9,155.7h-5.2
	c1.4,0,2.6,1.1,2.6,2.5s-1.2,2.5-2.6,2.5h-30.3c-1.4,0-2.6-1.1-2.6-2.5s1.2-2.5,2.6-2.5h5.2c-1.4,0-2.6-1.1-2.6-2.5
	c0-1.4,1.2-2.5,2.6-2.5l0,0h-3.7c-1.4,0-2.6-1.1-2.6-2.5c0-1.4,1.2-2.5,2.6-2.5l0,0h30.3c1.4,0,2.6,1.1,2.6,2.5
	c0,1.4-1.2,2.5-2.6,2.5h3.7c1.4,0,2.6,1.1,2.6,2.5C192.6,154.6,191.4,155.7,189.9,155.7z"/>
<path class="st1" d="M381.9,96.3l-290,6.7c-3.5,8.6-5.9,18.4-6.9,28.5h291.9c1.9-5.9,3.3-12,4.2-18.1
	C381.9,107.4,382.2,101.7,381.9,96.3z M143.8,118.3h-5.2c1.4,0,2.6,1.1,2.6,2.5c0,1.4-1.2,2.5-2.6,2.5h-30.3c-1.4,0-2.6-1.1-2.6-2.5
	c0-1.4,1.2-2.5,2.6-2.5h5.2c-1.4,0-2.6-1.1-2.6-2.5s1.2-2.5,2.6-2.5h-3.7c-1.4,0-2.6-1.1-2.6-2.5c0-1.4,1.2-2.5,2.6-2.5h30.3
	c1.4,0,2.6,1.1,2.6,2.5c0,1.4-1.2,2.5-2.6,2.5h3.7c1.4,0,2.6,1.1,2.6,2.5S145.2,118.3,143.8,118.3z"/>
<g class="st2">
	<path class="st3" d="M268.1,221.7c0,0,7.7-17.9,21.9-24.6c6-2.8,10.9-7.3,14-12.9c1.4-2.7,2.6-5.5,3.5-8.4"/>
	<path class="st4" d="M316.6,171.6c-1.5,1.8-9.2,4.4-9.2,4.4s0.9-7.7,2.4-9.5c1.6-1.7,4.4-1.8,6.1-0.3
		C317.6,167.6,317.8,169.9,316.6,171.6L316.6,171.6z"/>
	<path class="st4" d="M313.9,185.7c-2.3,0.7-10.2-1.1-10.2-1.1s5.2-6,7.5-6.7c2.3-0.6,4.7,0.7,5.3,2.9
		C317,182.8,316,184.9,313.9,185.7z"/>
	<path class="st4" d="M299.6,202.4c-2.3-0.5-8.3-5.8-8.3-5.8s7.7-2.7,10-2.2c2.3,0.6,3.7,2.9,3,5.1
		C303.8,201.4,301.7,202.6,299.6,202.4L299.6,202.4z"/>
	<path class="st4" d="M285.7,212.7c-2.4-0.1-9.2-4.4-9.2-4.4s7.1-3.9,9.5-3.8c2.4-0.1,4.4,1.7,4.5,4c0.1,2.3-1.8,4.2-4.2,4.3
		C286.1,212.7,285.9,212.7,285.7,212.7z"/>
	<path class="st4" d="M296.3,179.6c0.3,2.3,5.5,8.3,5.5,8.3s3.4-7.1,3.1-9.3c-0.5-2.2-2.7-3.7-5.1-3.3
		C297.7,175.7,296.2,177.5,296.3,179.6z"/>
	<path class="st4" d="M280.3,191.8c1,2.1,7.8,6.3,7.8,6.3s1-7.7,0-9.8c-0.9-2.1-3.4-3.2-5.6-2.4c-2.2,0.8-3.4,3.2-2.5,5.3
		C280.1,191.5,280.2,191.6,280.3,191.8L280.3,191.8z"/>
	<path class="st4" d="M266.4,205.7c0.6,2.2,6.6,7.5,6.6,7.5s2.4-7.4,1.8-9.6c-0.8-2.2-3.2-3.3-5.5-2.6
		C267.2,201.7,266,203.7,266.4,205.7L266.4,205.7z"/>
	<path class="st5" d="M316.6,171.6c-1.5,1.8-9.2,4.4-9.2,4.4s0.9-7.7,2.4-9.5c1.6-1.7,4.4-1.8,6.1-0.3
		C317.6,167.6,317.8,169.9,316.6,171.6L316.6,171.6z"/>
	<path class="st5" d="M313.9,185.7c-2.3,0.7-10.2-1.1-10.2-1.1s5.2-6,7.5-6.7c2.3-0.6,4.7,0.7,5.3,2.9
		C317,182.8,316,184.9,313.9,185.7z"/>
	<path class="st5" d="M299.6,202.4c-2.3-0.5-8.3-5.8-8.3-5.8s7.7-2.7,10-2.2c2.3,0.6,3.7,2.9,3,5.1
		C303.8,201.4,301.7,202.6,299.6,202.4L299.6,202.4z"/>
	<path class="st5" d="M285.7,212.7c-2.4-0.1-9.2-4.4-9.2-4.4s7.1-3.9,9.5-3.8c2.4-0.1,4.4,1.7,4.5,4c0.1,2.3-1.8,4.2-4.2,4.3
		C286.1,212.7,285.9,212.7,285.7,212.7z"/>
	<path class="st5" d="M296.3,179.6c0.3,2.3,5.5,8.3,5.5,8.3s3.4-7.1,3.1-9.3c-0.5-2.2-2.7-3.7-5.1-3.3
		C297.7,175.7,296.2,177.5,296.3,179.6z"/>
	<path class="st5" d="M280.3,191.8c1,2.1,7.8,6.3,7.8,6.3s1-7.7,0-9.8c-0.9-2.1-3.4-3.2-5.6-2.4c-2.2,0.8-3.4,3.2-2.5,5.3
		C280.1,191.5,280.2,191.6,280.3,191.8L280.3,191.8z"/>
	<path class="st5" d="M266.4,205.7c0.6,2.2,6.6,7.5,6.6,7.5s2.4-7.4,1.8-9.6c-0.8-2.2-3.2-3.3-5.5-2.6
		C267.2,201.7,266,203.7,266.4,205.7L266.4,205.7z"/>
</g>
<g class="st2">
	<path class="st3" d="M262.7,195.5c0,0,1-19.3,12.1-30.1c4.7-4.5,7.8-10.3,8.7-16.6c0.4-3,0.5-6,0.4-9"/>
	<path class="st4" d="M290.9,132.9c-0.8,2.1-7.2,7-7.2,7s-1.8-7.6-1-9.7c0.6-2.2,3-3.5,5.3-2.9c2.3,0.6,3.7,2.9,3.1,5.1
		C291.1,132.6,291,132.8,290.9,132.9z"/>
	<path class="st4" d="M293.3,147.1c-1.9,1.4-10,2.2-10,2.2s2.8-7.3,4.7-8.7c1.8-1.5,4.5-1.4,6.1,0.3c1.6,1.7,1.4,4.3-0.4,5.8
		C293.6,146.9,293.5,147,293.3,147.1z"/>
	<path class="st4" d="M285.6,167.3c-2.4,0.3-9.8-2.9-9.8-2.9s6.3-5,8.7-5.3c2.4-0.4,4.6,1,5.1,3.2c0.5,2.2-1.1,4.4-3.4,4.9
		C286,167.3,285.8,167.3,285.6,167.3L285.6,167.3z"/>
	<path class="st4" d="M276.1,181.4c-2.3,0.7-10.2-1.3-10.2-1.3s5.3-5.9,7.6-6.6c2.3-0.5,4.7,0.8,5.2,3
		C279.3,178.6,278.2,180.6,276.1,181.4L276.1,181.4z"/>
	<path class="st4" d="M274.6,146.9c1.1,2,8.1,6.1,8.1,6.1s0.8-7.7-0.3-9.8c-1.2-2-3.9-2.6-5.9-1.5
		C274.5,142.7,273.7,144.9,274.6,146.9L274.6,146.9z"/>
	<path class="st4" d="M263.7,163.5c1.7,1.6,9.6,3.5,9.6,3.5s-1.7-7.6-3.4-9.2c-1.8-1.5-4.5-1.4-6.1,0.3
		C262.3,159.5,262.3,161.9,263.7,163.5L263.7,163.5z"/>
	<path class="st4" d="M255.5,181c1.4,1.9,8.8,5,8.8,5s-0.3-7.8-1.7-9.7c-1.5-1.8-4.2-2.1-6.1-0.6C254.9,176.9,254.4,179.2,255.5,181
		L255.5,181z"/>
</g>
<path class="st1" d="M165.6,261.1c10.7,3.4,23.7,1.3,35.8,1.6c1.7,0,3.4,0.1,4.7,0.7c1.3,0.6,2,1.5,2.9,2.4c3.4,3,10.3,4,16.4,3.5
	s11.7-2.2,17.4-3.5c9.9-2.2,21.2-3.3,31-0.8c0.9,0.2,1.8,0.5,2.8,0.4c2.1-0.2,2.8-1.8,4.3-2.8c2.7-1.7,8.6-1.2,9.8-3.4
	c0.7-1.3-0.9-2.6-2.7-3.5c-6.7-3.4-16.2-4-25-3.4c-8.7,0.5-17.3,2-26.1,2c-11,0-21.5-2.2-32.4-3.1c-7.5-0.6-15.7-0.6-22.8,1.3
	C174.2,254.3,172.5,258.8,165.6,261.1z"/>
<rect x="183.4" y="108.6" class="st6" width="1.9" height="25.5"/>
<rect x="183.4" y="142.9" class="st6" width="1.9" height="14.4"/>
<path class="st6" d="M197.6,83.6h59.9c7.1,0,12.8,5.4,12.8,12.2v152.2c0,6.7-5.7,12.2-12.8,12.2h-59.9c-7.1,0-12.8-5.4-12.8-12.2
	V95.7C184.8,89,190.5,83.6,197.6,83.6z"/>
<path class="st4" d="M197.6,91.8h59.9c7.1,0,12.8,5.4,12.8,12.2v136.4c0,6.7-5.7,12.2-12.8,12.2h-59.9c-7.1,0-12.8-5.4-12.8-12.2
	V104C184.8,97.3,190.5,91.8,197.6,91.8z"/>
<path class="st7" d="M221.6,87.4h12.2c0.5,0,1,0.4,1,0.9l0,0c0,0.5-0.4,0.9-1,0.9h-12.2c-0.5,0-1-0.4-1-0.9l0,0
	C220.6,87.8,221,87.4,221.6,87.4z"/>
<ellipse class="st7" cx="239.6" cy="88.5" rx="1.4" ry="1.3"/>
<path class="st8" d="M205.4,163.1v18.8c0,2.5-2,4.5-4.6,4.5c0,0,0,0-0.1,0c-2.6,0-5.2-2-5.2-4.5v-18.8c0-2.5,2.5-4.5,5.2-4.5
	C203.3,158.6,205.4,160.6,205.4,163.1z M207.2,188.6c0,2.7,2.3,4.8,5,4.8c0,0,0,0,0,0h3.4l0.1,9.9c0,6,9.4,6,9.4,0v-9.9h6.4v9.9
	c0,6,9.5,6,9.5,0v-9.9h3.5c2.8,0,5-2.2,5-4.8c0,0,0,0,0,0v-29.2h-42.3V188.6z M249.6,157.9H207c0-7,4.4-13,10.9-16.2l-3.3-5.7
	c-0.5-0.8,0.7-1.3,1.1-0.6l3.3,5.8c5.9-2.5,12.6-2.5,18.5,0l3.3-5.8c0.4-0.7,1.6-0.2,1.1,0.6l-3.3,5.7
	C245.3,144.9,249.6,150.9,249.6,157.9z M220.4,148.8c0-0.9-0.8-1.7-1.8-1.7c-1,0-1.8,0.8-1.7,1.8c0,0.9,0.8,1.6,1.7,1.6
	C219.6,150.6,220.4,149.8,220.4,148.8L220.4,148.8z M239.8,148.8c0-0.9-0.8-1.7-1.8-1.7c-1,0-1.8,0.8-1.7,1.7c0,0.9,0.8,1.7,1.8,1.7
	C239.1,150.5,239.8,149.8,239.8,148.8L239.8,148.8z M256,158.6c-2.6,0-4.7,2-4.7,4.4c0,0,0,0,0,0v18.8c0,2.5,2.1,4.5,4.7,4.5
	c0,0,0,0,0,0c2.6,0,5.2-2,5.2-4.5v-18.8C261.2,160.6,258.7,158.6,256,158.6L256,158.6z"/>
<rect x="207.5" y="207.8" class="st6" width="17.6" height="0.8"/>
<rect x="231.6" y="207.8" class="st6" width="11.7" height="0.8"/>
<rect x="192" y="207.8" class="st6" width="11.7" height="0.8"/>
<rect x="250.1" y="207.8" class="st6" width="11.7" height="0.8"/>
</svg>
