<?xml version="1.0" encoding="utf-8"?>
<!-- Generator: Adobe Illustrator 24.0.1, SVG Export Plug-In . SVG Version: 6.00 Build 0)  -->
<svg version="1.1" id="Layer_1" xmlns="http://www.w3.org/2000/svg" xmlns:xlink="http://www.w3.org/1999/xlink" x="0px" y="0px"
	 viewBox="0 0 1300 400" style="enable-background:new 0 0 1300 400;" xml:space="preserve">
<style type="text/css">
	.st0{fill:url(#SVGID_1_);stroke:#000000;stroke-width:1.6452;stroke-miterlimit:10;}
	.st1{opacity:0.1;fill:#0D8CD8;enable-background:new    ;}
	.st2{fill:#3A3768;}
	.st3{fill:#D48A9B;}
	.st4{opacity:5.000000e-02;enable-background:new    ;}
	.st5{fill:#EFC6CD;}
	.st6{opacity:0.1;enable-background:new    ;}
	.st7{fill:#FFFFFF;}
	.st8{fill:#D3DAE1;}
	.st9{fill:url(#SVGID_2_);}
	.st10{fill:#585B8A;}
	.st11{opacity:0.2;enable-background:new    ;}
	.st12{fill:#636992;}
	.st13{fill:#FFD6D6;}
	.st14{fill:#DCE6F2;}
	.st15{fill:#565988;}
	.st16{fill:#505484;}
	.st17{fill:#575988;}
	.st18{fill:#D28690;}
	.st19{fill:#575989;}
	.st20{fill:#353045;}
	.st21{fill:#F0F3F7;}
	.st22{fill:#663D5C;}
	.st23{fill:#0D8CD8;}
	.st24{opacity:0.3;enable-background:new    ;}
	.st25{opacity:0.15;}
	.st26{fill:#4B4770;}
</style>
<linearGradient id="SVGID_1_" gradientUnits="userSpaceOnUse" x1="0" y1="592.6166" x2="1300" y2="592.6166" gradientTransform="matrix(1 0 0 1 0 -392)">
	<stop  offset="0" style="stop-color:#007194"/>
	<stop  offset="1" style="stop-color:#41C1C9"/>
</linearGradient>
<rect y="0.6" class="st0" width="1300" height="400"/>
<path class="st1" d="M86,120.7h0.4c-0.3-0.1-0.5-0.4-0.5-0.7l0,0c0-0.5,0.8-0.9,1.7-0.9h12.1c0.9,0,1.7,0.4,1.7,0.9l0,0
	c0,0.5-0.8,0.9-1.7,0.9h-0.3c0.3,0.1,0.5,0.4,0.5,0.7c0,0.4-0.6,0.8-1.3,0.9h3.5c1,0,1.7,0.4,1.7,0.9s-0.8,0.9-1.7,0.9H90
	c-1,0-1.7-0.4-1.7-0.9c0-0.4,0.6-0.8,1.3-0.9h-3.5c-1,0-1.7-0.4-1.7-0.9S85.1,120.7,86,120.7z"/>
<ellipse transform="matrix(0.2002 -0.9798 0.9798 0.2002 -1.4285 417.1332)" class="st1" cx="254.8" cy="209.4" rx="18.4" ry="60.5"/>
<path class="st2" d="M247.9,157.8c0,0,3.2-15.8,15.5-14.3c0,0,8.5,0.6,10.2,6.1v12.3L247.9,157.8z"/>
<polygon class="st3" points="315.2,163.7 205.7,154.6 191.7,157.5 192.6,177.1 193.5,177.2 194.6,206.7 302,226 313.4,216.3 
	313.4,184.4 314.9,183.6 "/>
<polygon class="st4" points="315.3,163.7 315,183.6 303.2,189.1 303,168.3 "/>
<polygon class="st4" points="313.4,184.4 313.6,215.8 302.2,225.4 302.9,189.1 "/>
<polygon class="st4" points="193.7,178.4 303,191.8 303,189.2 193.6,177.4 "/>
<polygon class="st4" points="313.4,185.6 313.4,184.4 302.6,189.2 302.6,191.8 "/>
<polygon class="st5" points="191.5,157.5 205.6,154.6 315,163.7 302.8,168.3 "/>
<polygon class="st6" points="303.4,164.2 308.8,164.6 299.9,167.2 295.3,166.9 "/>
<polygon class="st7" points="303.4,164 308.8,164.3 299.9,167 295.3,166.7 "/>
<path class="st8" d="M302.7,164.6c0.2-0.1,0.4,0.1,0.7,0.1c0.1,0,0.3,0,0.4,0c0.3,0,0.5,0.2,0.8,0.1"/>
<path class="st8" d="M302.5,164.8c0.2-0.1,0.4,0.1,0.7,0.1c0.1,0,0.3,0,0.4,0c0.3,0,0.5,0.2,0.8,0.1"/>
<path class="st8" d="M301.8,165.1c0.2-0.1,0.4,0.1,0.7,0.1c0.1,0,0.3,0,0.4,0c0.3,0,0.5,0.2,0.8,0.1"/>
<polygon class="st6" points="280.2,161.6 285.5,161.9 276.6,164.6 272.1,164.3 "/>
<polygon class="st7" points="280.2,161.3 285.5,161.7 276.6,164.4 272.1,164 "/>
<path class="st8" d="M279.5,161.9c0.2-0.1,0.4,0.1,0.7,0.1c0.1,0,0.3,0,0.4,0c0.3,0,0.5,0.2,0.8,0.1"/>
<path class="st8" d="M279.2,162.1c0.2-0.1,0.4,0.1,0.7,0.1c0.1,0,0.3,0,0.4,0c0.3,0,0.5,0.2,0.8,0.1"/>
<path class="st8" d="M278.6,162.4c0.2-0.1,0.4,0.1,0.7,0.1c0.1,0,0.3,0,0.4,0c0.3,0,0.5,0.2,0.8,0.1"/>
<polygon class="st6" points="291.3,162.9 296.7,163.3 287.8,165.9 283.2,165.6 "/>
<polygon class="st7" points="291.3,162.7 296.7,163 287.8,165.7 283.2,165.4 "/>
<path class="st8" d="M290.7,163.3c0.2-0.1,0.4,0.1,0.7,0.1c0.1,0,0.3,0,0.4,0c0.3,0,0.5,0.2,0.8,0.1"/>
<path class="st8" d="M290.4,163.4c0.2-0.1,0.4,0.1,0.7,0.1c0.1,0,0.3,0,0.4,0c0.3,0,0.5,0.2,0.8,0.1"/>
<path class="st8" d="M289.7,163.8c0.2-0.1,0.4,0.1,0.7,0.1c0.1,0,0.3,0,0.4,0c0.3,0,0.5,0.2,0.8,0.1"/>
<ellipse class="st1" cx="169.7" cy="261.1" rx="57.3" ry="11.8"/>
<linearGradient id="SVGID_2_" gradientUnits="userSpaceOnUse" x1="232.0371" y1="696.2527" x2="232.0371" y2="530.4509" gradientTransform="matrix(1 0 0 1 -54.11 -427.71)">
	<stop  offset="0" style="stop-color:#808080;stop-opacity:0.25"/>
	<stop  offset="0.54" style="stop-color:#808080;stop-opacity:0.12"/>
	<stop  offset="1" style="stop-color:#808080;stop-opacity:0.1"/>
</linearGradient>
<path class="st9" d="M232.5,164.5c-0.6-5.4-3-10.5-3-10.5l0.2-1.8c0,0,0-0.9,0-2.3c0-0.8,0.1-1.7,0.3-2.5c0.5-1.6-0.6-3.5-0.7-3.7
	s0.1-3.6-1.1-5.3c-1.1-1.7-8.5-4.8-8.5-4.8s-0.4-0.8-1-1.8l0.1-0.1c-0.5-0.8-1-1.6-1.7-2.3c-0.5-0.5-0.9-0.8-1.2-0.6
	c-0.1-0.5-0.3-0.9-0.3-1.4c0.1,0,0.2,0,0.2,0.1c0.3,0.1,0.6,0.1,0.9,0c0.7-0.2,1.1-0.8,1.5-1.4c1.9-2.9,3.6-6.1,3.9-9.6
	c0.1-0.7,0.1-1.4-0.1-2.1c-0.2-0.5-0.4-1.1-0.7-1.5c-0.5-1-1.1-1.9-1.9-2.8c-1.3-1.4-3.1-2.2-5-2.7c-2.1-0.6-4.3-0.7-6.5-0.5
	c-0.6,0.1-1.1,0.2-1.7,0.2c-0.7,0-1.4,0-2.2,0l-3.7-0.2v-0.1h-0.6c-0.2,0.5,0,1.1,0.3,1.5c0.3,0.5,0.7,0.9,0.6,1.5s-0.4,1-0.7,1.4
	c-0.3,0.5-0.5,1-0.2,1.5c0,0.1,0.1,0.1,0.2,0.2c0.3,0.3,0.9,0.4,1.4,0.4h0.1c-1.2,1.6-1.9,3.6-1.9,5.6c0,3.5,2,6.7,5.1,8.3
	c0.1,0.2,0.1,0.4,0.2,0.6c0.6,2,0.8,4.1,0.6,6.1l-0.1,0.1v-0.2c0,0-4.4,3-5.7,3.7c-1.3,0.8-2.6,3.4-2.7,4.2
	c-0.1,0.7-2.1,11.7-2.1,11.7c-0.4,1.1-0.8,2.2-1,3.4l-2.6,2.3c0,0-5.4,0.5-6.9,0.1v0.3c-1.4-0.3-2.8-0.5-4.2-0.6
	c-0.8-0.1-1.5,0-2.3,0.3h-0.1l0,0c-0.8,0.1-1.6,0.3-2.4,0.7c-0.1,0-0.2,0.1-0.3,0.1v-0.4l-5.8-0.3l-3-0.6c0,0-1.1-0.8-1.7-0.7
	s-1.9-0.7-1.9-0.7c-0.3-0.2-0.6-0.4-1-0.6c-0.1-0.7-0.2-1.1-0.2-1.1s-2.3-9.2-4-14.6c-1.2-3.6-2.8-5.4-3.8-6.2
	c-0.4-0.8-0.7-1.3-0.7-1.3c-0.2-0.7-1.2-2.2-1.5-2.2c0-0.1-0.1-0.1-0.1-0.1c-0.1,0-0.1,0-0.2,0c-0.5-2.4-0.8-5.5,0-8.1
	c2.1-1.7,3.3-4.2,3.3-6.9v-0.1V116c0-2.1-0.7-4.1-2.1-5.7l-0.1-0.1c0,0,0.1,0,0.1-0.1c0.4-0.4,0.6-0.9,0.5-1.5
	c-0.1-0.5-0.6-1-0.8-1.5c-0.1-0.4-0.2-0.8-0.3-1.2c-0.2-0.6-0.5-1.1-0.9-1.6v0.1c-1.1-1.2-3-1.9-4.7-1.6c-1.3,0.2-2.5,0.8-3.7,1
	c-0.9,0.1-1.9,0-2.8,0.1s-1.7,0.3-2.5,0.7c-0.2,0.1-0.4,0.2-0.5,0.4s-0.2,0.5-0.3,0.7c-0.3,1.1-1.3,2-2,2.9
	c-0.8,1.1-1.3,2.4-1.4,3.8c0,0.3,0,0.7,0.1,1c0.1,0.2,0.2,0.4,0.2,0.6c0.1,0.6-0.2,1.2-0.3,1.9c-0.2,0.8-0.1,1.6,0.2,2.4
	c1.1,2.5,4.8,3.3,5.6,6c0.6,0.3,1.2,0.5,1.8,0.6c0.1,0.3,0.1,0.5,0.1,0.8l0,0c-1,1-1.2,2.8-1.2,2.8l-0.1,0.1c-0.4,0.3-1.8,1.5-3,2.3
	c-1.5,1-4,4.5-5.7,5.5s-3.2,7.4-2.8,9.7s1.9,8.8,1.3,11.1c-0.6,2.4,0.9,13.1,0.9,13.1c1,0.2,2.1,0.5,3,0.9v0.5l-0.1,1.4
	c0,0-2.8,10.1-1.7,18c1.1,7.8-0.5,8.6-0.5,8.6s0.3,3.5-0.5,4.7s-1,3.9-1,3.9s-0.1,6,0.1,7.6c0.2,1.7,0.2,4.8-0.3,5.5
	c-0.6,0.7-1.7,5.5-1.6,6.9c0.1,1.4-2.1,4.8-0.9,9c1.2,4.3-3.4,4.3-3.4,4.3s0.6,6.5,1.8,8.4l0.2,0.3c0,0.1-0.1,0.2-0.1,0.3
	c-0.5,1.7-1.1,4.4-0.7,5c0.7,1,1,0.8,1,0.8l0.2,4.3c0,0,5,4.2,8.8,4s3.1-4,3.1-4l-3.2-8.4l-0.1-0.3l3.6-6.8c0,0,1-3,1.2-4
	s1.6-4.8,1.6-4.8s3.4-8.1,3.5-9c0.1-1,0.3-6.2,1-7.2c0.7-1.1,2.5-7.1,2.5-7.1l0,0c0.6,0.6,0.9,1.5,0.6,2.4c-0.4,1.5-0.2,4.7-0.2,4.7
	s-0.2,2.7-0.5,4c-0.3,1.4-0.4,12.6,0.2,15.2c0.5,2.1,0.4,6.1,0.4,7.6c-0.4,1.6-0.7,3.6-0.1,3.8c1.1,0.4,6.5,0.3,6.5,0.3
	s2.3-0.8,5.5,2c3.1,2.8,12.8-0.8,12.8-0.8s3-0.8-2.9-3.1c-4.1-1.6-6.7-2.7-8.5-3.9c0-0.1,0.1-0.2,0.1-0.2s-2.4-2.3-0.4-6.3
	s1.9-7.4,1.9-7.4l0.3-13.5l-1-18l-0.8-18.9h0.1c0.1,3.5,0.8,11.7,4.3,10.1c4.5-2,0.7-7.2,0.7-7.2l-2-3.9l0.6-0.2l-2.2-7.2
	c-0.2-1.4-0.2-2.8-0.1-4.3c0-0.8,0-1.7-0.1-2.5c2.9-0.5,5.7-1.1,6.2-0.9c0.6,0.1,3.9,0.2,5.2,0.2c-0.4,0.3-0.8,0.7-0.8,0.7l5.3,3.6
	c0,0,1.8-1,2.2-2c0.4-0.1,0.7-0.3,1-0.5c0.1,1.2,0.4,2.6,1.5,2.6c0.3,0,0.6-0.1,0.8-0.2l8.7-1.7l-0.7,4.7l0.5,0.9
	c-0.3,3.9-0.6,8.1-0.8,11.8l-0.1,0.8h0.1c-0.4,5.7-0.7,10-0.7,10c0.5-0.9,1.2-1.7,2.2-2.2l0.1,8.4c0,0,0.4,13.3,0.4,15.1
	s0.1,5.9,0.1,5.9s0.9,5,1.5,6.6s1,9.1,1,9.1s1.3,2.1,0.7,2.8s2.2,2.5,2.2,2.5s-1.7,2.4-1.9,3.9c0,0.2,0.2,0.4,0.5,0.6
	c-0.1,0.1-0.2,0.2-0.3,0.2c-0.8,0.5-2,0.9-3.8,0.8c-4.8-0.4-8.2,4-5.3,5s11.9,1.1,11.9,1.1s2.7-1.7,4.8-0.9c0,1.8,0.1,3.4,0.1,3.6
	l0,0c-1.3,1.1-3.7,3.1-6,3.9c-3.4,1.1-4.2,5.8,0.2,6.4c4.4,0.6,10.8-0.7,10.8-0.7s3.3-2.5,5.9-3c2.5-0.5,4.7-1.8,4.3-3.2
	c-0.3-0.9-1-3.4-1.5-5c0-0.1-0.1-0.2-0.1-0.3c0.1-0.2,0.2-0.3,0.2-0.5c0,0-1.3-6.8-0.2-8.5c1.1-1.7,0.5-18.6,0.5-18.6
	s-1.8-4.3-0.9-6.9c0.9-2.6-1.5-6.3-1.5-6.3s0.3-7.4,1-11.5c0-0.2,0.1-0.3,0.1-0.5c1.2-0.4,2.3-0.8,3.5-1.3c0,0,0.6-9.3,1-11.4
	c0-0.2,0.1-0.5,0.2-0.9l0.3-1.5l0,0l0.3-1.7l0,0l1.1-5.8l2-2.6l5.3-5.4C231.8,172.7,233.1,169.8,232.5,164.5z M151.2,131.2
	L151.2,131.2L151.2,131.2L151.2,131.2z M203.3,137.8l-0.2,0.4l0.7-0.7l-1,1.1l0.3-0.7L203.3,137.8z M198.2,148.2
	c-0.2,0.5-0.4,1.1-0.6,1.7l0.4-1.2L198.2,148.2z"/>
<path class="st10" d="M182,165.2c0,0-0.7,4.6,1.4,4.7c2.1,0.1,3.5-3.6,3.5-3.6l-0.8-2.9L182,165.2z"/>
<path class="st11" d="M182,165.2c0,0-0.7,4.6,1.4,4.7c2.1,0.1,3.5-3.6,3.5-3.6l-0.8-2.9L182,165.2z"/>
<path class="st12" d="M135.4,265.1c-3.7,0.2-8.5-4-8.5-4l-0.2-4.3c0,0-0.3,0.2-1-0.8c-0.4-0.6,0.2-3.3,0.6-5
	c0.2-0.8,0.4-1.4,0.4-1.4l8.1,2.2l0.4,1l3.2,8.4C138.4,261.1,139.1,265,135.4,265.1z"/>
<path class="st12" d="M172.7,252.8c0,0-9.4,3.6-12.5,0.8c-3.1-2.8-5.3-2-5.3-2s-5.3,0.1-6.4-0.3c-0.6-0.2-0.3-2.2,0.1-3.9
	c0.3-1.1,0.5-2,0.5-2s9.3-3.1,10.7-1.2c0.4,0.6,1,1.1,1.5,1.5c1.7,1.2,4.3,2.3,8.4,4C175.6,252,172.7,252.8,172.7,252.8z"/>
<path class="st13" d="M164.3,179.3l2.6,5.2c0,0,3.7,5.2-0.6,7.2c-4.3,2-4.3-11.6-4.3-11.6L164.3,179.3z"/>
<path class="st14" d="M153.5,134.6c0,0,2.8,1.3,4.5,6.7s3.9,14.6,3.9,14.6s1.5,10.4,1.3,13c-0.2,1.4-0.1,2.9,0.1,4.3l2.2,7.2
	l-4.3,1.5l-6.7-25.6L153.5,134.6z"/>
<path class="st4" d="M153.5,134.6c0,0,2.8,1.3,4.5,6.7s3.9,14.6,3.9,14.6s1.5,10.4,1.3,13c-0.2,1.4-0.1,2.9,0.1,4.3l2.2,7.2
	l-4.3,1.5l-6.7-25.6L153.5,134.6z"/>
<path class="st6" d="M134.8,251.7l0.4,1l-0.5,0.9c-1.9,0.8-6.4,0.2-6.4,0.2s-0.8-1.1-2-2.9c0.2-0.8,0.4-1.4,0.4-1.4L134.8,251.7z"/>
<path class="st6" d="M161.8,246.1c-2.3,5.3-10.3,3.3-12.5,2.7c-0.4-0.1-0.6-0.2-0.6-0.2s0-0.4,0-1.1c0.3-1.1,0.5-2,0.5-2
	s9.3-3.1,10.7-1.2c0.4,0.6,1,1.1,1.5,1.5C161.6,245.8,161.7,245.9,161.8,246.1z"/>
<path class="st15" d="M161.4,239.3c-1.9,4,0.4,6.3,0.4,6.3c-2.3,5.3-10.3,3.3-12.5,2.7c-0.4-0.1-0.6-0.2-0.6-0.2s0.2-5.6-0.4-8.2
	c-0.6-2.7-0.5-13.8-0.2-15.2s0.5-4,0.5-4s-0.2-3.1,0.2-4.7c0.2-0.8,0-1.8-0.6-2.4l0,0c0,0-1.8,6-2.4,7.1c-0.6,1-0.9,6.3-1,7.2
	c-0.1,1-3.4,9-3.4,9s-1.3,3.7-1.5,4.7s-1.2,4-1.2,4l-3.9,7.5c-1.9,0.8-6.4,0.2-6.4,0.2s-0.9-1.1-2.1-3s-1.8-8.4-1.8-8.4
	s4.4-0.1,3.3-4.3c-1.1-4.3,1-7.6,0.9-9s1-6.2,1.5-6.9c0.6-0.7,0.5-3.8,0.3-5.5s-0.1-7.6-0.1-7.6s0.2-2.7,1-3.9
	c0.8-1.2,0.5-4.7,0.5-4.7s1.5-0.8,0.5-8.6s1.7-17.9,1.7-17.9l0.1-1.4l0.1-2.3c0,0,23-1.4,24.9,0.3c0.5,0.5,0.9,1.1,1.2,1.7
	c0.6,1.4,1.1,2.8,1.3,4.3l1,24.4l1,17.9l-0.3,13.5C163.2,231.9,163.3,235.3,161.4,239.3z"/>
<path class="st6" d="M154.5,191.2l-2.4,52.3l-2.9,4.8c-0.4-0.1-0.6-0.2-0.6-0.2s0.2-5.6-0.4-8.2c-0.6-2.7-0.5-13.8-0.2-15.2
	s0.5-4,0.5-4s-0.2-3.1,0.2-4.7c0.2-0.8,0-1.8-0.6-2.4v-0.3L154.5,191.2z"/>
<path class="st6" d="M128.5,247.4c0,0,6.3-2.5,7.2-1.7s-7.4,2-7.4,2L128.5,247.4z"/>
<path class="st6" d="M159.5,240.8c-0.2,0.1-6.4,2.3-5.8,4.6S159.5,240.8,159.5,240.8z"/>
<path class="st13" d="M140.4,121.7c0,0,2.1,5,1,7.5c-1.1,2.5,11.7,6.9,11.7,6.9s-3.7-9.7-0.1-15.1
	C156.6,115.5,140.4,121.7,140.4,121.7z"/>
<path class="st16" d="M215.3,265c-2.5,0.5-5.7,3-5.7,3s-6.3,1.3-10.6,0.7c-4.3-0.6-3.6-5.3-0.2-6.4c2.3-0.8,4.7-2.7,5.9-3.9
	c0.5-0.5,0.9-0.8,0.9-0.8l12-2.4c0,0,0.2,0.7,0.5,1.6c0.5,1.6,1.2,4.1,1.5,5C219.9,263.2,217.8,264.4,215.3,265z"/>
<path class="st16" d="M212.2,255.7c0,0-5.1,0.5-7.2-0.7c-2.1-1.2-5.1,0.7-5.1,0.7s-8.7-0.2-11.6-1.1s0.4-5.4,5.1-5
	c1.7,0.2,2.9-0.2,3.7-0.8c0.8-0.6,1.4-1.4,1.6-2.4l10.2,0.6l1.4,3.6L212.2,255.7z"/>
<path class="st6" d="M210.5,252.4c0,0-11.8-1.9-13.4-3.5c0.8-0.6,1.4-1.4,1.6-2.4l10.2,0.6l1.4,3.6L210.5,252.4z"/>
<path class="st17" d="M192.9,184.6l0.1,17.7c0,0,0.4,13.3,0.4,15.1s0.1,5.9,0.1,5.9s0.9,5,1.4,6.6s1,9.1,1,9.1s1.3,2.1,0.7,2.8
	c-0.5,0.8,2.1,2.5,2.1,2.5s-1.7,2.4-1.8,3.9s13.5,3.8,13.5,3.8l-5.3-54.4l-4.2-13.6L192.9,184.6z"/>
<path class="st6" d="M192.9,184.6l0.1,17.7c0,0,0.4,13.3,0.4,15.1s0.1,5.9,0.1,5.9s0.9,5,1.4,6.6s1,9.1,1,9.1s1.3,2.1,0.7,2.8
	c-0.5,0.8,2.1,2.5,2.1,2.5s-1.7,2.4-1.8,3.9s13.5,3.8,13.5,3.8l-5.3-54.4l-4.2-13.6L192.9,184.6z"/>
<path class="st6" d="M218,256.8c-3.9,9.4-13.3,2.1-13.3,2.1s0-0.2,0-0.5c0.5-0.5,0.9-0.8,0.9-0.8l12-2.4
	C217.6,255.2,217.7,255.9,218,256.8z"/>
<path class="st17" d="M218.2,256c-3.9,9.9-13.5,2.5-13.5,2.5s-0.3-5.1,0.3-7.5c0.6-2.4-0.7-9.4-0.7-9.4s-0.7-6.3-1.4-7.7
	c-0.7-1.4-0.6-4.3-0.6-4.6s0.2-2.2-0.3-3.5s-0.8-4.6-0.8-4.6s0-4.6-0.5-7.3l-1.9-9.3l-3.4-19.1l1.1-0.2l18.9-3.3
	c0,0,3.6,18.1,2.4,20c-0.3,0.4-0.5,1.3-0.7,2.4c-0.7,4.1-0.9,11.5-0.9,11.5s2.4,3.7,1.4,6.3c-0.9,2.6,0.8,6.9,0.8,6.9
	s0.5,16.9-0.5,18.6S218.2,256,218.2,256z"/>
<path class="st18" d="M216.3,132.4c0,0-17.1,12.1-13.3,6c2.1-3.3,1.7-7.4,0.9-10.5c-0.4-1.6-1-3.1-1.7-4.6c0,0,14.6-6.2,12.6-0.6
	c-0.5,1.3-0.6,2.7-0.6,4C214.4,128.8,215.1,130.7,216.3,132.4z"/>
<path class="st18" d="M185.5,160.1c0,0-7.2-2.1-8.5,0s0.4,6.6,2.5,7.3c2.2,0.7,7.2-2.5,7.2-2.5L185.5,160.1z"/>
<path class="st10" d="M193.8,156.5l-3,2.8c0,0-5.3,0.5-6.8,0.1c0,0,1.4,9.3-0.6,10.4l12.2-2.5L193.8,156.5z"/>
<path class="st6" d="M193.8,156.5l-3,2.8c0,0-5.3,0.5-6.8,0.1c0,0,1.4,9.3-0.6,10.4l12.2-2.5L193.8,156.5z"/>
<path class="st6" d="M155,116.6c0,5-4.1,9.1-9.1,9.1c-4.7-2.2-9.1-4.1-9.1-9.1c-0.2-5,3.7-9.2,8.7-9.4s9.2,3.7,9.4,8.7
	C155,116.1,155,116.4,155,116.6L155,116.6z"/>
<path class="st13" d="M155,116.4c0,5-4,9-9,9.1c-5,0-9-4-9.1-9c0-5,4-9,9-9.1c2.7,0,5.3,1.2,7,3.3C154.3,112.2,155,114.3,155,116.4z
	"/>
<path class="st6" d="M160.3,171.8c-0.9,0.6-1.8,1-2.8,1.5c0,0-4.6-0.7-5.3,0.1c-0.7,0.8-6.5,1.1-6.5,1.1s-8.9-0.4-10.3-1.6
	c-0.4-0.3-0.9-0.6-1.4-0.8l0.1-2.3c0,0,23-1.4,24.9,0.3C159.6,170.6,160,171.1,160.3,171.8z"/>
<path class="st14" d="M161.4,170.1c-0.2,1-3.9,2.6-3.9,2.6s-4.6-0.7-5.3,0.1c-0.7,0.8-6.5,1.1-6.5,1.1s-8.9-0.4-10.3-1.6
	c-1.3-1.1-4.3-1.7-4.3-1.7s-1.5-10.7-0.9-13.1s-0.9-8.8-1.3-11.1s1-8.6,2.7-9.7c1.7-1,4.1-4.5,5.6-5.5c1.2-0.9,2.6-2,3-2.3l0.1-0.1
	c0,0,0.2-1.9,1.2-2.8c1-1,9.8,6.1,9.8,6.1s0.1,0.5,0.7-0.5c0.1-0.2,1.3,1.5,1.5,2.2c0,0,4.8,8.5,5.1,10.2c0.3,1.7,1.6,7.4,1.8,8.8
	c0.1,0.4,0.2,1.6,0.3,3.3c0,0.3,0,0.7,0.1,1c0.2,2.8,0.4,6.3,0.5,9c0,0.3,0,0.6,0,0.9C161.4,168.1,161.5,169.1,161.4,170.1z"/>
<path class="st6" d="M130.8,148.4c0,0,3.3,4,4.4,4C136.2,152.4,130.8,148.4,130.8,148.4z"/>
<path class="st6" d="M137.7,157c0,0-5.4,5.9-4.7,7C133.8,165.1,137.7,157,137.7,157z"/>
<path class="st6" d="M133.8,168.8c0,0,6.2-6.8,6.5-9.2L133.8,168.8z"/>
<path class="st6" d="M141.6,169.3c0,0,7.2-3.8,7.8-6.8C150,159.5,141.6,169.3,141.6,169.3z"/>
<path class="st6" d="M150.7,132.6l-1,2.4l1.7,0.8l1.6,4.6c0,0,4.5,9,4.3,13.7s0.8,11.7,0.8,11.7l2.6-0.5l-1.2-13.8
	c-0.2-2.1-0.7-4.2-1.6-6.2c-2.1-4.7-5.9-13.5-6.2-13.5c-0.3,0-0.1,0.1-0.1,0.1L150.7,132.6z"/>
<path class="st19" d="M151,132.4l-1,2.4l1.7,0.8l1.6,4.6c0,0,4.5,9,4.3,13.7s0.8,11.7,0.8,11.7l2.6-0.5l-1.2-13.8
	c-0.2-2.1-0.7-4.2-1.6-6.2c-2.1-4.7-5.9-13.5-6.2-13.5c-0.3,0-0.1,0.1-0.1,0.1L151,132.4z"/>
<path class="st13" d="M180.4,167.8c-1.3-0.1-4.3-1.6-5.5-2.3l-0.5-0.3l0.1-4.7c0.3-0.2,0.6-0.3,0.9-0.5c1.6-0.7,4.9-1.7,6.6,1.4
	C184.1,165.7,182,167.9,180.4,167.8z"/>
<path class="st6" d="M153,110.6c-0.1,0.1-0.3,0.1-0.4,0.2c-1.1,0.2-2.2-0.7-3.1-0.1c-0.5,0.4-0.7,1.1-0.8,1.7
	c-0.1,1.1-0.3,2.3-0.4,3.4c0,0.4-0.1,0.8-0.2,1.2c-0.4,1-1.7,1.5-2.8,1.5c-0.4,0-0.9-0.1-1.2-0.4c-0.2-0.2-0.3-0.5-0.5-0.7
	c-1.4-1.2-1.8,1.7-1.5,2.5c0.6,1.4,2.7,2.7,1.8,4.4c-0.2,0.3-0.4,0.5-0.7,0.7c-4.8-1.5-7.4-6.6-5.9-11.4c1.5-4.8,6.6-7.4,11.4-5.9
	C150.3,108.2,151.8,109.2,153,110.6z"/>
<path class="st20" d="M143.3,117.4c0.2,0.2,0.3,0.5,0.5,0.7c0.3,0.3,0.8,0.4,1.2,0.4c1.1,0,2.3-0.5,2.8-1.5c0.1-0.4,0.2-0.8,0.3-1.2
	l0.4-3.4c0.1-0.7,0.2-1.4,0.8-1.7c0.9-0.6,2.1,0.3,3.1,0.1c0.8-0.2,1.3-1,1.1-1.8c-0.1-0.5-0.5-1-0.7-1.5c-0.1-0.4-0.2-0.8-0.3-1.2
	c-0.6-2.2-3.2-3.4-5.4-3.1c-1.2,0.2-2.4,0.8-3.7,1c-0.9,0.1-1.8,0-2.7,0.1c-0.8,0.1-1.7,0.3-2.4,0.7c-0.2,0.1-0.4,0.2-0.5,0.4
	s-0.2,0.5-0.3,0.7c-0.3,1.1-1.3,2-2,2.9c-0.8,1.1-1.3,2.4-1.3,3.8c0,0.3,0,0.7,0.1,1c0.1,0.2,0.2,0.4,0.2,0.6
	c0.1,0.6-0.2,1.2-0.3,1.9c-0.2,0.8-0.1,1.6,0.2,2.4c1.1,2.5,4.7,3.3,5.4,6c0.7,0.3,1.4,0.5,2.1,0.6c0.7,0,1.5-0.3,1.9-0.9
	c0.9-1.7-1.2-3-1.8-4.4C141.4,119.1,141.8,116.2,143.3,117.4z"/>
<path class="st6" d="M214.9,122.7c-0.5,1.3-0.6,2.7-0.6,4c-0.4,0.4-0.9-0.7-1.4-0.5c-1.4,0.8-3,2.7-4.7,2.7c-1.5,0-2.9-0.3-4.3-1
	c-0.4-1.6-1-3.1-1.7-4.6C202.3,123.3,216.8,117.1,214.9,122.7z"/>
<path class="st18" d="M217.6,119.1c0,5.2-4.2,9.4-9.4,9.4c-5.2,0-9.4-4.2-9.4-9.4s4.2-9.4,9.4-9.4
	C213.4,109.6,217.6,113.8,217.6,119.1L217.6,119.1z"/>
<path class="st21" d="M217.2,134.5c0,0-1.8,1.9-2,2.1c-0.2,0.2-5.4,21.8-5.5,22.1s-6.1,19.8-6.1,19.8l-9.7,4.7l0.8-23.9l7.1-19.7
	c0,0,2.3-2.7,3.1-3.6s9.7-6.8,9.7-6.8l1.5,3.2L217.2,134.5z"/>
<path class="st6" d="M216,132.9l-11.1,8l-0.2-4.4c0.7-1,9.7-6.8,9.7-6.8L216,132.9z"/>
<path class="st21" d="M216.2,132.4l-11.1,8l-0.2-4.4c0.7-1,9.7-6.8,9.7-6.8L216.2,132.4z"/>
<path class="st10" d="M204.5,134l0.4,1.9l-2.5,2.5L204.5,134c-0.1,0-4.3,3-5.6,3.7c-1.3,0.8-2.5,3.4-2.6,4.2
	c0,0.7-2.1,11.7-2.1,11.7s-1.5,4-1.1,5.2s-2.3,37.3-2.3,37.3c0.7-1.4,2.1-2.4,3.6-2.8l-1-21.4c0,0,1.2-14.2,1.2-14.4
	c0.1-0.2,2.7-8.4,2.7-8.4L204.5,134z"/>
<path class="st6" d="M205.2,136.2l-0.2,4c0,0-2.7,8.5-3.6,9.9s-3.7,9.7-3.7,9.7l-1.5,14.4l-2.7,1.2l-1.3-2.4l2.2-13.9
	c0,0,4.1-11.7,4.7-12.9l3-6.4L205.2,136.2z"/>
<path class="st22" d="M204.9,136l-0.2,4c0,0-2.7,8.5-3.6,9.9s-3.7,9.7-3.7,9.7l-1.5,14.4l-2.7,1.2l-1.3-2.4l2.2-13.9
	c0,0,4.1-11.7,4.7-12.9l3.1-6.4L204.9,136z"/>
<path class="st18" d="M173.6,166.2l5.2,3.6c0,0,3.7-2.1,1.5-3.4s-4-1.5-4.7-1.5S173.6,166.2,173.6,166.2z"/>
<path class="st18" d="M177.5,159.6c-0.2,0.1-0.4,0.4-0.4,0.7c0,1.1,0.1,4,1,2.7c1.1-1.6,0.9-3.1,2.7-2c1.1,0.7,2,1.5,2.8,2.5
	l-0.5-3.5C183.1,160,179.5,158.3,177.5,159.6z"/>
<path class="st6" d="M217.7,201.8c-0.3,0.4-0.5,1.3-0.7,2.4c-10.6,3.2-18.3-3.5-18.3-3.5c-0.9-3.2-1.7-6.4-2.3-9.7
	c-0.2-1.1-0.1-3.3,0-5.9l18.9-3.3C215.4,181.9,218.9,200,217.7,201.8z"/>
<path class="st10" d="M228.6,147.8c-0.5,1.6-0.3,4.8-0.3,4.8l-4.3,20.5c0,0-2.1,15.8-2.5,17.9c-0.4,2.1-1,11.4-1,11.4
	c-12.3,6-21.8-2.2-21.8-2.2c-0.9-3.2-1.7-6.4-2.3-9.7c-0.6-3.6,1.2-17.9,2-24.3c0.3-1.9,0.4-3.1,0.4-3.1l3.2-11.8
	c0,0,3.9-9.9,5.3-12.8s7.3-9.4,7.3-9.4c0.7-0.5,1.9,1.2,2.7,2.6c0.6,1.1,1.1,2.2,1.1,2.2s7.2,3.1,8.3,4.8c1.1,1.7,0.9,5.1,1,5.3
	C228,144.3,229.1,146.2,228.6,147.8z"/>
<path class="st6" d="M211.5,140.5c0,0,0.5,3.2-0.8,4.2c-1.3,0.9-11.4,20.6-12,21.9c0.3-1.9,0.4-3.1,0.4-3.1l3.2-11.8
	c0,0,3.9-9.9,5.3-12.8c1.4-2.9,7.3-9.4,7.3-9.4c0.7-0.5,1.9,1.2,2.7,2.6C216.3,134.8,213.6,139.8,211.5,140.5z"/>
<path class="st10" d="M211.3,140.3c0,0,0.5,3.2-0.8,4.2c-1.4,1-11.4,20.6-12,21.9c0.3-1.9,0.4-3.1,0.4-3.1l3.2-11.8
	c0,0,3.9-9.9,5.3-12.8s7.3-9.4,7.3-9.4c0.7-0.5,1.9,1.2,2.7,2.6C216.1,134.5,213.4,139.6,211.3,140.3z"/>
<polygon class="st23" points="225.6,169.2 222.2,186.9 222.2,186.9 221.9,188.6 221.9,188.6 221.2,192.4 218,191.8 216.6,191.4 
	196.4,187.2 194.9,186.9 191.5,186.1 192.2,181.7 192.5,179.9 194.9,163.7 "/>
<path class="st18" d="M206.8,183.7c0,0-8,2.9-6.3,6.3s13-2.7,13-2.7L206.8,183.7z"/>
<path class="st6" d="M212.5,208.4c0,0.2,0.3,3.3,1.5,4.4C215.3,213.8,212.5,208.4,212.5,208.4z"/>
<path class="st6" d="M204.5,219.3c0,0,1.4,4,7.2,5.6C217.4,226.5,204.5,219.3,204.5,219.3z"/>
<path class="st6" d="M217.6,119.1c0,3.4-1.8,6.5-4.7,8.2c-0.5-0.3-1-0.7-1.4-1.2s-0.7-1.2-0.5-1.8c0.2-0.5,0.7-0.8,0.8-1.3
	c0.1-0.3,0-0.6,0-0.9c-0.1-0.5-0.2-0.9-0.3-1.4c-0.1-0.4-0.2-0.9-0.6-1s-0.7,0.2-1,0.5c-0.8,0.6-2.2,1-3.1,0.5s-0.7-2.1-0.8-3
	c0-0.2-0.1-0.3-0.2-0.4c-0.1,0-0.3-0.1-0.4,0c-0.5,0-0.9-0.4-1-0.9s-0.2-1-0.2-1.5c-0.1-0.5-0.2-1-0.7-1.3c-0.3-0.2-0.7-0.2-1.1-0.2
	h-1.8c3.1-4.2,9-5.1,13.2-2C216.2,113.3,217.6,116.1,217.6,119.1L217.6,119.1z"/>
<path class="st22" d="M210.1,120.2c0.3-0.2,0.6-0.6,1-0.5s0.5,0.6,0.6,1l0.3,1.4c0.1,0.3,0.1,0.6,0,0.9c-0.1,0.5-0.7,0.8-0.9,1.3
	c-0.2,0.6,0.1,1.3,0.5,1.8c0.7,0.9,1.8,1.5,2.9,1.7c0.3,0.1,0.6,0.1,0.9,0c0.7-0.2,1.1-0.8,1.5-1.4c1.9-2.9,3.5-6.1,3.8-9.6
	c0.1-0.7,0.1-1.4-0.1-2.1c-0.2-0.5-0.4-1.1-0.6-1.5c-0.5-1-1.1-1.9-1.8-2.8c-1.3-1.4-3.1-2.2-4.9-2.7c-2.1-0.6-4.2-0.7-6.3-0.5
	c-0.6,0.1-1.1,0.2-1.7,0.2c-0.7,0-1.4,0-2.1,0l-4.2-0.2c-0.2,0.5,0,1.1,0.3,1.5c0.3,0.5,0.6,0.9,0.6,1.5s-0.4,1-0.7,1.4
	c-0.3,0.5-0.5,1-0.2,1.5c0.3,0.4,0.9,0.5,1.4,0.5h2.1c0.4,0,0.7,0,1.1,0.2c0.4,0.3,0.6,0.8,0.7,1.3c0,0.5,0.1,1,0.2,1.5
	s0.5,0.9,1,0.9c0.1,0,0.3,0,0.4,0c0.1,0.1,0.2,0.2,0.2,0.4c0.1,0.9-0.1,2.5,0.8,3S209.3,120.8,210.1,120.2z"/>
<path class="st6" d="M222.1,138.8c-2.1-0.2-4.2,1.1-4.9,3.1c-1.1,3.2-3,9-2.5,11.3c0.7,3.3,1.4,8.7,1.4,8.7s3.4,2,1.7,4
	c-1.7,2-2.2,4.8-2.2,4.8s-2.2,1-2.7,3c-0.5,2.1-3.7,4.9-3.7,4.9l-4.9,4.9c0,0,8.1,8.2,9.7,8.6l5-5.9l5.9-7.8l5.1-5.4
	c0,0,1.2-2.8,0.6-8.2s-3-10.5-3-10.5l0.2-1.8C227.8,152.6,228.4,139.6,222.1,138.8z"/>
<path class="st10" d="M222.5,138.8c-2.1-0.2-4.2,1.1-4.9,3.1c-1.1,3.2-3,9-2.5,11.3c0.7,3.3,1.4,8.7,1.4,8.7s3.4,2,1.7,4
	c-1.7,2-2.2,4.8-2.2,4.8s-2.2,1-2.7,3c-0.5,2.1-3.7,4.9-3.7,4.9l-4.9,4.9c0,0,8.1,8.2,9.7,8.6l5-5.9l5.9-7.8l5.1-5.4
	c0,0,1.2-2.8,0.6-8.2s-3-10.5-3-10.5l0.2-1.8C228.3,152.6,228.9,139.6,222.5,138.8z"/>
<path class="st6" d="M217.5,157.2c0,0,5.1,6.3,7.3,4.9S217.5,157.2,217.5,157.2z"/>
<path class="st6" d="M219.4,152.3c0.5,0.2,5,6.4,7.3,5.7C229,157.3,219.4,152.3,219.4,152.3z"/>
<path class="st6" d="M220.7,163c0,0,0.3,3.6,4,3.1S220.7,163,220.7,163z"/>
<polygon class="st6" points="204.4,134.3 202.4,138.7 204.9,136.2 "/>
<polygon class="st21" points="204.4,134 202.4,138.5 204.9,136 "/>
<polygon class="st24" points="196.4,187.2 194.9,186.9 192.2,181.7 192.5,179.9 "/>
<polygon class="st24" points="222.2,186.9 221.9,188.6 221.9,188.6 218,191.8 216.6,191.4 "/>
<path class="st6" d="M161.4,167.1c-0.7,0.1-1.5,0.2-2.1,0.3c-3.7,0.5-12.4-3.9-12.4-3.9s-10.7-8.9-13.8-17.4
	c-3.1-8.5,3.7-9.7,3.7-9.7c2.5-1.4,8.1,2.6,8.9,3.3s1.4,2.4,1.4,3.4c-0.1,1.1,1.8,2.5,1.8,2.5s3.2,5.6,4,6.2c0.8,0.6,1,1.1,1.2,2.2
	c0.2,1,2.4,1.9,3.3,1.8c0.9-0.1,2,0.3,2,0.8c0,0.4,0.9,0.6,1.6,0.6C161.1,160.3,161.3,164.4,161.4,167.1z"/>
<path class="st6" d="M161.3,166.2c-0.6,0.1-1.1,0.2-1.6,0.2c-3.7,0.5-12.4-3.9-12.4-3.9s-10.7-8.9-13.8-17.4
	c-3.1-8.5,3.7-9.7,3.7-9.7c2.5-1.4,8.1,2.6,8.9,3.3s1.4,2.4,1.4,3.4c-0.1,1.1,1.8,2.5,1.8,2.5s3.2,5.6,4,6.2s1,1.1,1.2,2.2
	s2.4,1.9,3.3,1.8c0.9-0.1,2,0.3,2,0.8c0,0.3,0.5,0.5,1.1,0.6c0,0.3,0,0.7,0.1,1C161,160,161.2,163.5,161.3,166.2z"/>
<path class="st6" d="M175.3,160.1l-0.2,5.4h-0.2l-0.5-0.3l0.1-4.7C174.7,160.4,175,160.3,175.3,160.1z"/>
<path class="st14" d="M136.7,136c0,0-6.8,1.3-3.7,9.7c3.1,8.5,13.8,17.4,13.8,17.4s8.8,4.3,12.4,3.9c3.7-0.5,9.3-1.8,10-1.6
	s5.6,0.2,5.6,0.2l0.2-5.7l-5.7-0.3l-2.9-0.6c0,0-1-0.8-1.6-0.7s-1.9-0.7-1.9-0.7s-1-0.8-1.7-0.8s-2.1-0.2-2.1-0.7s-1.1-0.8-2-0.8
	s-3-0.8-3.3-1.8c-0.2-1-0.4-1.6-1.2-2.2c-0.8-0.6-4-6.2-4-6.2s-1.9-1.4-1.8-2.5s-0.6-2.8-1.4-3.4S139.3,134.5,136.7,136z"/>
<path class="st6" d="M154.1,155.4c0,0-2.6,2.6-1.9,3.1L154.1,155.4z"/>
<path class="st6" d="M156.9,157.5c0,0-3.4,2.6-2.5,2.8C155.3,160.4,156.9,157.5,156.9,157.5z"/>
<path class="st6" d="M151.1,161.3c0.5,0.2,7.7,4.5,10.4,4.5L151.1,161.3z"/>
<path class="st6" d="M151.6,132.7c0,0-1.3,4.2-1.8,4.2c-0.4,0-6.8-5.2-9.4-7.3l0.1-0.1c0,0,0.2-1.9,1.2-2.8
	C142.8,125.6,151.6,132.7,151.6,132.7z"/>
<path class="st14" d="M151.4,132.2c0,0-1.3,4.2-1.8,4.2c-0.4,0-6.8-5.2-9.4-7.3l0.1-0.1c0,0,0.2-1.9,1.2-2.8
	S151.4,132.2,151.4,132.2z"/>
<g class="st25">
	<path d="M134.3,118.7L134.3,118.7c0.8,1.9,3.2,2.9,4.5,4.4C138,121.2,135.7,120.3,134.3,118.7z"/>
	<path d="M142.9,123.2c-0.3,0.6-1.1,1-1.9,0.9c-0.6,0-1.3-0.2-1.9-0.5c0.2,0.3,0.4,0.7,0.5,1c0.7,0.3,1.4,0.5,2.1,0.6
		c0.7,0,1.5-0.3,1.9-0.9c0.5-1,0-1.9-0.7-2.8C143.2,122.1,143.2,122.7,142.9,123.2z"/>
	<path d="M153.5,109c-0.1-0.5-0.5-1-0.7-1.5c-0.1-0.4-0.2-0.8-0.3-1.2c-0.2-0.6-0.5-1.1-0.9-1.6c0.1,0.1,0.1,0.3,0.1,0.4
		c0.1,0.4,0.2,0.8,0.3,1.2c0.2,0.5,0.6,0.9,0.7,1.5c0.1,0.8-0.3,1.6-1.1,1.8c-1,0.2-2.2-0.7-3.1-0.1c-0.6,0.4-0.7,1.1-0.8,1.7
		c-0.1,1.1-0.3,2.3-0.4,3.4c0,0.4-0.1,0.8-0.2,1.2c-0.4,1-1.7,1.5-2.8,1.5c-0.4,0-0.9-0.1-1.2-0.4c-0.2-0.2-0.3-0.4-0.5-0.7
		c-1.4-1.2-1.8,1.7-1.5,2.5c0.2,0.4,0.4,0.7,0.7,1c-0.3-0.9,0.1-3.6,1.5-2.5c0.2,0.2,0.4,0.4,0.5,0.7c0.3,0.3,0.8,0.4,1.2,0.4
		c1.1,0,2.3-0.5,2.8-1.5c0.1-0.4,0.2-0.8,0.2-1.2c0.1-1.1,0.3-2.3,0.4-3.4c0.1-0.7,0.2-1.4,0.8-1.7c0.9-0.6,2.1,0.3,3.1,0.1
		C153.1,110.5,153.6,109.8,153.5,109z"/>
</g>
<path class="st6" d="M216.2,127.1c-0.3,0.1-0.6,0-0.9,0c-1.1-0.2-2.2-0.8-2.9-1.7c-0.4-0.5-0.7-1.2-0.5-1.8c0.2-0.5,0.7-0.8,0.8-1.3
	c0.1-0.3,0-0.6,0-0.9l-0.3-1.4c-0.1-0.4-0.2-0.9-0.6-1s-0.7,0.2-1,0.5c-0.8,0.6-2.2,1-3.1,0.5s-0.7-2.1-0.8-3c0-0.2-0.1-0.3-0.2-0.4
	c-0.1,0-0.3-0.1-0.4,0c-0.5,0-0.9-0.4-1-0.9s-0.2-1-0.2-1.5c-0.1-0.5-0.2-1-0.7-1.3c-0.3-0.2-0.7-0.2-1.1-0.2h-2.1
	c-0.5,0-1.1,0-1.4-0.5c-0.3-0.4-0.1-1,0.2-1.5s0.7-0.9,0.7-1.4s-0.3-1-0.6-1.5c-0.2-0.2-0.3-0.5-0.4-0.8h-0.6
	c-0.2,0.5,0,1.1,0.3,1.5c0.3,0.5,0.6,0.9,0.6,1.5s-0.4,1-0.7,1.4s-0.5,1-0.2,1.5c0.3,0.4,0.9,0.5,1.4,0.5h2.1c0.4,0,0.7,0,1.1,0.2
	c0.4,0.3,0.6,0.8,0.7,1.3c0,0.5,0.1,1,0.2,1.5s0.5,0.9,1,0.9c0.1,0,0.3,0,0.4,0c0.1,0.1,0.2,0.2,0.2,0.4c0.1,0.9-0.1,2.5,0.8,3
	s2.4,0.1,3.1-0.5c0.3-0.2,0.7-0.6,1-0.5s0.5,0.6,0.6,1l0.3,1.4c0.1,0.3,0.1,0.6,0,0.9c-0.1,0.5-0.7,0.8-0.9,1.3
	c-0.2,0.6,0.1,1.3,0.5,1.8c0.7,0.9,1.8,1.5,2.9,1.7c0.3,0.1,0.6,0.1,0.9,0c0.5-0.1,0.9-0.5,1.2-0.9
	C216.5,126.9,216.3,127,216.2,127.1z"/>
<ellipse class="st1" cx="325.2" cy="223.8" rx="6.8" ry="1.1"/>
<ellipse class="st1" cx="255.4" cy="266.1" rx="19.8" ry="3"/>
<ellipse class="st1" cx="311.8" cy="253.2" rx="15.5" ry="2.4"/>
<ellipse class="st1" cx="309.3" cy="276.9" rx="26.2" ry="4"/>
<path class="st23" d="M319.8,213.7c0,0-1,4.5,3.3,5l0.3-0.5C323.4,218.2,320.1,215.1,319.8,213.7z"/>
<path class="st23" d="M324.8,218.2l-1,0.2h-0.1c0,0-2.7-2.2-2.6-7c0.4,0.7,0.8,1.4,1.3,2C323.4,214.9,324.6,216.7,324.8,218.2z"/>
<path class="st23" d="M325.1,218.7c-0.2,0.1-0.4,0.1-0.5,0.1c-2.6-0.6-1.7-9-1.7-9c0.1,0.1,0.3,1.1,0.9,2.5
	C324.8,214.7,326,218.1,325.1,218.7z"/>
<path class="st23" d="M330.9,213.7c0,0,0.2,4.5-4.1,5l-0.3-0.5C326.4,218.2,330.6,215.1,330.9,213.7z"/>
<path class="st23" d="M329.6,211.4c0,4.8-3.4,7-3.4,7h-0.1l-1-0.2c0.2-1.5,1.4-3.4,2.5-4.8C328.1,212.7,328.8,212,329.6,211.4z"/>
<path class="st23" d="M326.1,218.2c-0.2,0.2-0.3,0.3-0.6,0.4l0,0c-0.1,0-0.1,0.1-0.2,0.1c-0.6,0.1-0.8-0.3-0.8-1.1
	c0.1-1.4,0.9-3.8,1.7-5.6c0.4-0.9,0.9-1.7,1.6-2.3C327.8,209.8,327.7,216.3,326.1,218.2z"/>
<path class="st23" d="M325.3,206.8c0,0-2.9,10.2-0.4,11.7S326,207.7,325.3,206.8z"/>
<path class="st6" d="M319.8,213.7c0,0-1,4.5,3.3,5l0.3-0.5C323.4,218.2,320.1,215.1,319.8,213.7z"/>
<path class="st6" d="M324.8,218.2l-1,0.2h-0.1c0,0-2.7-2.2-2.6-7c0.4,0.7,0.8,1.4,1.3,2C323.4,214.9,324.6,216.7,324.8,218.2z"/>
<path class="st6" d="M325.1,218.7c-0.2,0.1-0.4,0.1-0.5,0.1c-2.6-0.6-1.7-9-1.7-9c0.1,0.1,0.3,1.1,0.9,2.5
	C324.8,214.7,326,218.1,325.1,218.7z"/>
<path class="st6" d="M330.9,213.7c0,0,0.2,4.5-4.1,5l-0.3-0.5C326.4,218.2,330.6,215.1,330.9,213.7z"/>
<path class="st6" d="M329.6,211.4c0,4.8-3.4,7-3.4,7h-0.1l-1-0.2c0.2-1.5,1.4-3.4,2.5-4.8C328.1,212.7,328.8,212,329.6,211.4z"/>
<path class="st6" d="M326.1,218.2c-0.2,0.2-0.3,0.3-0.6,0.4l0,0c-0.1,0-0.1,0.1-0.2,0.1c-0.6,0.1-0.8-0.3-0.8-1.1
	c0.1-1.4,0.9-3.8,1.7-5.6c0.4-0.9,0.9-1.7,1.6-2.3C327.8,209.8,327.7,216.3,326.1,218.2z"/>
<path class="st6" d="M325.3,206.8c0,0-2.9,10.2-0.4,11.7S326,207.7,325.3,206.8z"/>
<path class="st23" d="M319.8,213.7c0,0-0.6,4.5,3.7,5l0.3-0.5C323.8,218.2,320.1,215.1,319.8,213.7z"/>
<path class="st23" d="M325.2,218.2l-1,0.2h-0.1c0,0-3.1-2.2-3-7c0,0,0.8,0.8,1.7,2C323.8,214.9,325,216.7,325.2,218.2z"/>
<path class="st6" d="M325.2,218.2l-1,0.2c-0.9-0.8-1.3-3-1.5-5C323.8,214.9,325,216.7,325.2,218.2z"/>
<path class="st23" d="M325.5,218.7c-0.2,0.1-0.4,0.1-0.5,0.1c-2.6-0.6-2.1-9-2.1-9c0.1,0.1,0.7,1.1,1.3,2.5
	C325.2,214.7,326.4,218.1,325.5,218.7z"/>
<path class="st23" d="M330.9,213.7c0,0,0.6,4.5-3.7,5l-0.3-0.5C326.8,218.2,330.6,215.1,330.9,213.7z"/>
<path class="st23" d="M329.6,211.4c0,4.8-3,7-3,7h-0.1l-1-0.2c0.2-1.5,1.4-3.4,2.5-4.8C328.8,212.3,329.6,211.4,329.6,211.4z"/>
<path class="st6" d="M327.9,213.5c-0.1,1.8-0.5,3.8-1.3,4.8c-0.1,0.1-0.1,0.1-0.2,0.2l-1-0.2C325.7,216.7,326.9,214.9,327.9,213.5z"
	/>
<path class="st23" d="M326.5,218.2c-0.2,0.2-0.3,0.3-0.6,0.4l0,0c-0.1,0-0.1,0.1-0.2,0.1c-0.6,0.1-0.8-0.3-0.8-1.1
	c0.1-1.4,0.9-3.8,1.7-5.6c0.6-1.3,1.1-2.3,1.2-2.3C327.8,209.8,328.1,216.3,326.5,218.2z"/>
<path class="st6" d="M325.5,218.7c-0.1,0-0.3,0-0.4-0.1c-1.2-0.8-1.2-3.6-0.9-6.3C325.2,214.7,326.4,218.1,325.5,218.7z"/>
<path class="st6" d="M326.5,218.2c-0.1,0.3-0.3,0.5-0.6,0.4l0,0c-0.1,0-0.2-0.1-0.3-0.1c-0.3-0.2-0.6-0.5-0.7-0.9
	c0.1-1.4,0.9-3.8,1.7-5.6C326.8,214.6,326.9,217.2,326.5,218.2z"/>
<path class="st23" d="M325.3,206.8c0,0-2.5,10.2,0,11.7C327.8,220.1,326,207.7,325.3,206.8z"/>
<polygon class="st26" points="330.1,218 319.8,218 319.8,219.7 321.4,219.7 321.4,220 322,223.3 328,223.3 328.6,220 328.7,219.7 
	330.1,219.7 "/>
<polygon class="st6" points="330.1,218 319.8,218 319.8,219.7 321.4,219.7 321.4,220 322,223.3 328,223.3 328.6,220 328.7,219.7 
	330.1,219.7 "/>
<polygon class="st26" points="329.2,219 329,220 328.4,223.3 322.4,223.3 321.8,220 321.6,219 "/>
<polygon class="st6" points="329.2,219 329,220 321.8,220 321.6,219 "/>
<rect x="320.2" y="218" class="st26" width="10.3" height="1.7"/>
<circle class="st1" cx="57.7" cy="76.5" r="3"/>
<circle class="st1" cx="327.2" cy="156.7" r="4"/>
<circle class="st1" cx="334.8" cy="148.2" r="2.9"/>
<circle class="st1" cx="62.8" cy="65.8" r="4"/>
<circle class="st1" cx="47.5" cy="83.9" r="4"/>
</svg>
