<?xml version="1.0" encoding="utf-8"?>
<!-- Generator: Adobe Illustrator 24.0.1, SVG Export Plug-In . SVG Version: 6.00 Build 0)  -->
<svg version="1.1" id="Layer_1" xmlns="http://www.w3.org/2000/svg" xmlns:xlink="http://www.w3.org/1999/xlink" x="0px" y="0px"
	 viewBox="0 0 1300 400" style="enable-background:new 0 0 1300 400;" xml:space="preserve">
<style type="text/css">
	.st0{fill:url(#SVGID_1_);stroke:#000000;stroke-width:1.6452;stroke-miterlimit:10;}
	.st1{fill:#F1F1F1;}
	.st2{fill:#FFFFFF;}
	.st3{fill:#3F3D56;}
	.st4{fill:#63C7FF;}
	.st5{opacity:0.1;enable-background:new    ;}
	.st6{fill:#CACACA;}
	.st7{fill:#FFB8B8;}
	.st8{fill:#2F2E41;}
	.st9{fill:#CCCCCC;}
</style>
<linearGradient id="SVGID_1_" gradientUnits="userSpaceOnUse" x1="0" y1="-580" x2="1300" y2="-580" gradientTransform="matrix(1 0 0 -1 0 -380)">
	<stop  offset="0" style="stop-color:#007194"/>
	<stop  offset="1" style="stop-color:#41C1C9"/>
</linearGradient>
<rect class="st0" width="1300" height="400"/>
<path class="st1" d="M353.4,260c2.6,4.5,0.4,19.5,0.4,19.5s-14.2-5.9-16.8-10.4c-2.6-4.5-1-10.1,3.6-12.6
	C345.1,253.9,350.9,255.5,353.4,260z"/>
<path class="st2" d="M354,279.5l-0.3,0.1c-2.9-13.6-13.1-22.8-13.2-22.9l0.2-0.2C340.8,256.4,351.1,265.7,354,279.5z"/>
<path class="st1" d="M376.7,265c-3.5,6.2-23.1,14.6-23.1,14.6s-3.2-20.8,0.2-27c3.5-6.2,11.4-8.5,17.7-5S380.2,258.8,376.7,265
	L376.7,265z"/>
<path class="st2" d="M353.8,279.9l-0.3-0.3c14.2-13.3,17.9-31.8,17.9-31.9l0.4,0.1C371.8,247.9,368.1,266.5,353.8,279.9z"/>
<path class="st3" d="M155.1,218c-2.2,0-4.5-0.3-6.7-0.8l-0.4-0.1l-0.4-0.2c-14.4-7.1-26.5-16.4-36-27.8
	c-7.9-9.5-14.1-20.2-18.2-31.8c-5-13.8-7.3-28.4-7-43.1c0-0.3,0-0.5,0-0.7c0-7.1,4-13.4,10.2-15.9c4.8-2,48-19.4,51.1-20.7
	c5.9-2.9,12.2-0.5,13.2-0.1c2.3,0.9,42.2,17,50.9,21c8.9,4.2,11.3,11.7,11.3,15.4c0,17.1-3,33-8.9,47.4
	c-4.8,11.6-11.6,22.4-20.1,31.8c-16.4,18.1-32.7,24.5-32.9,24.6C159.2,217.7,157.2,218.1,155.1,218z M151.2,208.6
	c1.4,0.3,4.7,0.8,6.8,0c2.7-1,16.4-8,29.2-22.1C205,167,214,142.3,214,113.4c0-0.6-0.5-4.8-6.1-7.4c-8.5-4-50-20.7-50.5-20.8l-0.1,0
	c-0.9-0.4-3.6-1.1-5.6-0.1l-0.4,0.2c-0.5,0.2-46.4,18.7-51.3,20.7c-3.4,1.4-4.6,4.9-4.6,7.7c0,0.2,0,0.5,0,0.9
	C95.1,134.2,99.7,183,151.2,208.6z"/>
<path class="st4" d="M149.7,81c0,0-46.3,18.7-51.3,20.7c-5,2-7.4,6.9-7.4,11.8s-3.7,68.6,58.7,99.3c0,0,5.7,1.5,10,0
	c4.3-1.5,58.9-27.6,58.9-99.5c0,0,0-7.3-8.7-11.4c-8.7-4.1-50.7-20.9-50.7-20.9S154,78.7,149.7,81z"/>
<path class="st5" d="M154.6,95.6v99.8c0,0-46.7-22.1-46.3-80.3L154.6,95.6z"/>
<polygon class="st2" points="155.2,167.3 140.3,148.5 149,141.9 156,150.8 179.9,126.1 187.8,133.5 "/>
<path class="st6" d="M378.5,280.5H242.4c-0.2,0-0.4-0.2-0.4-0.4c0-0.2,0.2-0.4,0.4-0.4h136.1c0.2,0,0.4,0.2,0.4,0.4
	C378.8,280.4,378.7,280.5,378.5,280.5z"/>
<polygon class="st7" points="281.7,275 287.3,275 289.9,254.1 281.7,254.1 "/>
<path class="st8" d="M280.3,273.2l10.9,0h0c3.8,0,6.9,3.1,6.9,6.8v0.2l-17.8,0L280.3,273.2z"/>
<polygon class="st7" points="300.3,275 305.8,275 308.5,254.1 300.3,254.1 "/>
<path class="st8" d="M298.9,273.2l10.9,0h0c3.8,0,6.9,3.1,6.9,6.8v0.2l-17.8,0L298.9,273.2z"/>
<polygon class="st8" points="290.4,201.5 291.7,267.9 281,267.3 273.6,224.9 271.2,196.1 "/>
<path class="st8" d="M308.8,190.3l1.5,78.7l-12.5-0.4l-2.7-46.8l-4.7-16.9l-19.2-8.8l3.1-21.2l28.2-0.4L308.8,190.3z"/>
<ellipse class="st7" cx="287.3" cy="110.5" rx="9.6" ry="9.4"/>
<polygon class="st9" points="295.2,123.9 296.7,126.1 300.6,136.8 297.5,178.8 279.1,179.1 276.7,131.1 281.6,125 "/>
<path class="st8" d="M269.3,132.2l-3.1-0.4c0,0-0.8,0.4-1.2,3.1c-0.4,2.7-5.1,26.5-5.1,26.5l6.3,29.2l7-9.2l-4.3-16.2l4.3-16.2
	L269.3,132.2z"/>
<polygon class="st8" points="309.2,131.8 311.6,131.8 317.4,163 311.9,187.2 306.5,178.4 308,168.8 307.3,160.3 304.5,155.3 "/>
<path class="st8" d="M292.9,110.5l-1.7-0.4c0,0-1.3-7.3-4.4-6.4c-3,0.9-10.9,1.7-10.9-1.7c0-3.4,7.4-6.4,11.8-6
	c4.4,0.4,9.9,1.8,11.3,8.1c2.3,10.1-4.7,12.6-4.7,12.6l0.1-0.4C295.1,114.2,294.5,112,292.9,110.5z"/>
<path class="st8" d="M266.6,131.8l12.5-5l2.9-2.1l8.8,38.3l4.1-39.4l16.2,8.3l-5.5,26.2l-0.8,10l2.3,8.1c0,0,8.2,5.8,5.5,11.9
	c-2.7,6.2-5.9,6.5-5.9,6.5s-13.3-12.3-14.1-15.4s-2-8.5-2-8.5s-6.7,24.6-14.5,24.2c-7.8-0.4-7.8-8.5-7.8-8.5l2-8.5l3.1-8.8
	l-1.6-14.6L266.6,131.8z"/>
</svg>
