<?xml version="1.0" encoding="utf-8"?>
<!-- Generator: Adobe Illustrator 24.0.1, SVG Export Plug-In . SVG Version: 6.00 Build 0)  -->
<svg version="1.1" id="Layer_1" xmlns="http://www.w3.org/2000/svg" xmlns:xlink="http://www.w3.org/1999/xlink" x="0px" y="0px"
	 viewBox="0 0 1300 400" style="enable-background:new 0 0 1300 400;" xml:space="preserve">
<style type="text/css">
	.st0{fill:url(#SVGID_1_);stroke:#000000;stroke-width:1.6452;stroke-miterlimit:10;}
	.st1{opacity:0.1;fill:#0D8CD8;enable-background:new    ;}
	.st2{fill:#EAECF0;}
	.st3{fill:#3A3768;}
	.st4{opacity:0.1;enable-background:new    ;}
	.st5{fill:#EFC6CD;}
	.st6{fill:#D48A9B;}
	.st7{fill:#DFE6F5;}
	.st8{opacity:0.15;enable-background:new    ;}
	.st9{fill:#4C4C56;}
	.st10{fill:#D1D9EC;}
	.st11{fill:#0D8CD8;}
	.st12{fill:url(#SVGID_2_);}
	.st13{fill:url(#SVGID_3_);}
	.st14{fill:#D38884;}
	.st15{fill:#A36468;}
	.st16{fill:#444053;}
	.st17{fill:#67647E;}
	.st18{opacity:0.1;}
	.st19{fill:#D3DAE1;}
	.st20{fill:#FFFFFF;}
	.st21{fill:#D5E1F4;}
	.st22{fill:url(#SVGID_4_);}
	.st23{fill:#EFB7B9;}
	.st24{opacity:5.000000e-02;enable-background:new    ;}
	.st25{opacity:0.7;}
	.st26{fill:#2E001E;}
	.st27{fill:#FF2BC2;}
	.st28{fill:#EA6C00;}
	.st29{fill:#FDAD00;}
	.st30{fill:#FDD231;}
	.st31{fill:#FEEEB7;}
</style>
<linearGradient id="SVGID_1_" gradientUnits="userSpaceOnUse" x1="-1.818989e-12" y1="590.7431" x2="1300" y2="590.7431" gradientTransform="matrix(1 0 0 1 0 -392)">
	<stop  offset="0" style="stop-color:#007194"/>
	<stop  offset="1" style="stop-color:#41C1C9"/>
</linearGradient>
<rect x="0" y="-1.3" class="st0" width="1300" height="400"/>
<path class="st1" d="M392.5,280c-1.5,3.6-3.8,6.7-6.4,9.1c-0.4,0.4-0.8,0.7-1.2,1.1c-0.5,0.5-1.1,0.9-1.6,1.3
	c-4.3,3.3-9.4,5.5-14.3,7.1c-1.4,0.5-2.7,0.9-4.1,1.3c-1.2,0.3-2.3,0.7-3.4,0.9c-0.5,0.1-0.9,0.2-1.3,0.3c-0.5,0.1-0.9,0.2-1.4,0.3
	l-0.6,0.2c-12.8,2.8-25.7,3.3-38.8,2.6h-0.6l-1-0.1c-2.6-0.2-5.3-0.4-7.9-0.6l-1-0.1h-0.5c-1.4-0.2-3-0.3-4.4-0.5
	c-2-0.2-3.9-0.5-5.9-0.8h-0.3h-0.2l0,0c-7-1-14.1-2-21.1-3.2l-1-0.2l-1.8-0.3l-1.5-0.3l0,0l-0.5-0.1c-2.3-0.4-4.8-0.8-7.1-1.2
	l-0.4-0.1c-4.4-0.7-8.9-1.5-13.4-2l-0.5-0.1l0,0c-1.8-0.3-3.7-0.5-5.5-0.8l-1.4-0.2l-1.9-0.2c-5.1-0.6-10.3-1.1-15.4-1.4
	c-2.4-0.2-5-0.3-7.4-0.3c-2.1-0.1-4.1-0.1-6.1-0.1c-2.8,0-5.6,0-8.3,0.1l0,0h-0.6c-4,0.1-7.8,0.2-11.8,0.4h-0.7h-0.3
	c-8.4,0.4-16.8,0.8-25.1,1.2l-2.1,0.1h-0.3c-2.9,0.1-5.8,0.2-8.7,0.3h-0.8l0,0H153h-1.3c-1.4,0-2.7,0-4.1,0h-1.6
	c-4.9,0-9.8-0.2-14.7-0.5h-0.5c-9.5-0.6-18.8-1.8-28-4.2c-1-0.2-1.9-0.5-2.9-0.8c-6.3-1.6-12.5-4-18.7-6.7c-2.9-1.4-5.8-2.8-7.9-5.4
	c-5.5-6.6-3.4-19.6,3.7-23.4c5.6-2.9,12.2-0.6,18.2-1.8c0.4-0.1,0.7-0.2,1.1-0.3c0.8-0.3,1.5-0.7,2.3-1.1c0.3-0.2,0.5-0.3,0.7-0.5
	c0.5-0.4,1.1-0.8,1.6-1.2c0.9-0.7,1.7-1.5,2.5-2.2c0.4-0.4,0.7-0.8,1-1.1c1.2-1.3,2.2-2.7,3.1-4.4c0.3-0.6,0.6-1.3,0.8-1.8
	c0.1-0.3,0.3-0.7,0.4-1.1c0.2-0.5,0.3-1,0.4-1.6c0.4-2.4-0.2-4.8-2.2-6.9c-0.2-0.2-0.4-0.4-0.5-0.5c-0.4-0.3-0.8-0.6-1.2-0.9
	c-0.2-0.1-0.4-0.2-0.5-0.3c-2.5-1.3-5.9-1.7-8.6-2.6l0,0c-0.8-0.3-1.7-0.6-2.4-1c-0.5-0.3-1-0.6-1.5-0.9l0,0l-0.1-0.1l0,0
	c-4.2-2.6-7.9-6.2-10.9-10.6c-0.7-1.1-1.4-2.3-2-3.5c-0.2-0.4-0.4-0.8-0.5-1.1c-4.9-10.5-5.4-23.9-0.3-34.2c0.6-1.3,1.4-2.4,2.1-3.6
	c0.3-0.4,0.5-0.8,0.7-1.1c4.9-6.8,11.8-11.4,18.9-14.8c9.5-4.6,19.4-7.5,29.4-9.4c2.1-0.4,4.1-0.8,6.1-1.1
	c8.6-1.3,17.2-1.9,25.8-2.5c8-0.5,16.2-0.8,24.3-1c2.7,0,5.5-0.1,8.3-0.1c6.2,0,12.5,0.1,18.7,0.4c2.1,0.1,4.1,0.2,6.1,0.3
	c5.2,0.3,10.5,0.8,15.7,1.4c2.5,0.3,5.1,0.6,7.5,0.9c19,2.4,37.8,6.7,55.9,13.2c2.1,0.8,4.1,1.6,6.1,2.3c7.6,3,15.1,6.4,22.5,10.3
	c0.7,0.4,1.4,0.8,2.1,1.1c4.6,2.5,9.1,5.1,13.5,8c5.9,3.8,11.5,7.9,16.9,12.6c2.1,1.8,4.2,3.8,6.1,5.7c3.5,3.5,6.8,7.4,9.8,11.4
	c0.3,0.4,0.5,0.8,0.8,1.1c1.4,1.9,2.6,4,3.9,6c6,10.2,10,21.8,12.9,33.7C394.9,258.6,396.6,270.3,392.5,280z"/>
<path class="st1" d="M388.8,244.5H365v-36h10.6c-0.3-0.4-0.5-0.8-0.8-1.1H365V196c-2-1.9-4.1-3.9-6.1-5.7v17.3h-54.9v-37.8h24.5
	c-0.7-0.4-1.4-0.8-2.1-1.1h-22.5v-10.3c-2.1-0.8-4.1-1.6-6.1-2.3v12.6h-78.4l-0.2-0.2l22.6-25.6c-2.5-0.3-5-0.6-7.5-0.9l-15.7,17.7
	v-19c-2.1-0.1-4.1-0.2-6.1-0.3V161l-18.7-20.9c-2.8,0-5.5,0-8.3,0.1l25.3,28.5l-0.2,0.2h-75.2v-25.2c-2.1,0.3-4.1,0.7-6.1,1.1v24.1
	H80.9c-0.3,0.4-0.5,0.8-0.7,1.1h49.1v37.8H78.4c0.2,0.4,0.4,0.8,0.5,1.1h50.3v36h-24.7c-0.4,0.4-0.7,0.8-1,1.1h25.8v36.8
	c2.1,0.4,4.1,0.7,6.1,1.1v-37.9h77V292c2.1,0,4.1,0,6.1,0.1v-46.2h79.1v56.2h0.3c2,0.3,4,0.5,5.9,0.8v-57.2h54.9v55.8
	c0.5-0.1,0.9-0.2,1.4-0.3c0.5-0.1,0.9-0.2,1.3-0.3c1.2-0.3,2.3-0.6,3.4-0.9v-54.2h24C388.9,245.2,388.8,244.9,388.8,244.5z
	 M212.4,244.5h-77v-36h77V244.5z M212.4,207.4h-77v-37.8h75.9l1.1,1V207.4z M297.7,244.5h-79.1v-36h79.1V244.5z M297.7,207.4h-79.1
	v-37.8h79.1V207.4z M358.7,244.5h-54.9v-36h54.9V244.5z"/>
<path class="st2" d="M153,295.3L153,295.3L153,295.3L153,295.3L153,295.3z"/>
<path class="st2" d="M154.5,293.6h-0.8l0,0h-0.9h-1.3l-0.2-1.7l-0.1-1.6l-0.6-7.6v-0.2v-0.1l-0.2-2.1l2.6-1.2l0.4,3.1v0.2l0,0
	l0.6,6.3l0.2,1.9l0.1,1.2l0.1,1l0,0L154.5,293.6z"/>
<polygon class="st3" points="163.8,295.3 163.9,295.4 163.7,295.4 163.7,295.3 "/>
<path class="st3" d="M187.8,295.4L187.8,295.4L187.8,295.4z"/>
<path class="st3" d="M204.3,251.7C204.3,251.8,204.3,251.8,204.3,251.7L204.3,251.7c0,0.1-2.4,7.9-3.2,14.7
	c-0.1,0.5-0.1,0.9-0.1,1.4c0,0.5-0.1,1-0.1,1.4c0,0.5,0,1.1,0,1.6c0,0.1,0,0.2,0,0.3c0,0.2,0,0.5,0,0.7s0,0.5,0,0.7s0,0.5,0.1,0.7
	c0.6,7.3,2.9,17.9,2.9,17.9s0.1,0.3,0.2,0.8h-0.6c-4,0.1-7.8,0.2-11.8,0.4h-0.7h-0.3c-8.4,0.4-16.8,0.8-25.1,1.2l-2.1,0.1h-0.3
	c-2.9,0.1-5.8,0.2-8.7,0.3h-0.8c0.2-0.3,0.5-0.7,0.6-0.9c0.2-0.2,0.5-0.5,0.7-0.6c1.4-1,2.8-1.7,4.2-2.2c0.4-0.1,0.6-0.2,1-0.1h2
	h0.3l3,0.1l25.7,0.6h0.1h0.2c0.3-0.1,0.6-0.2,0.9-0.4c1-0.5,1.7-1.6,1.8-2.8c0-0.1,0-0.2,0-0.3c0-0.2,0-0.3,0-0.5c0-0.1,0-0.2,0-0.4
	s0-0.3-0.1-0.4c-0.6-4.1-1.7-16.8-1.7-16.8l0,0c0,0,0-0.6,0-1.5c0-0.1,0-0.2,0-0.2v-0.2c0-0.2,0-0.4,0-0.7c0-0.1,0-0.3,0-0.5
	s0-0.5,0.1-0.7l0,0c0-0.2,0-0.3,0-0.5s0,0,0-0.1c0.5-4.8,1.7-12.6,5.9-15.5c1.9-1.4,3.2-1.6,4.1-1.4c1.3,0.4,1.5,1.9,1.6,2.9
	c0,0.1,0,0.1,0,0.2C204.3,251.3,204.3,251.5,204.3,251.7z"/>
<path class="st4" d="M153,295.3L153,295.3L153,295.3L153,295.3L153,295.3z"/>
<polygon class="st4" points="163.8,295.3 163.9,295.4 163.7,295.4 163.7,295.3 "/>
<path class="st4" d="M187.8,295.4L187.8,295.4L187.8,295.4z"/>
<path class="st4" d="M204.3,251.7C204.3,251.8,204.3,251.8,204.3,251.7c0,0.1-2,6.6-3,12.8l0,0c-0.1,0.5-0.1,0.9-0.2,1.3
	c0,0.2-0.1,0.4-0.1,0.7c-0.1,0.5-0.1,0.9-0.1,1.4c0,0.5-0.1,1-0.1,1.4c0,0.5,0,1.1,0,1.6c0,0.1,0,0.2,0,0.3c0,0.2,0,0.5,0,0.7
	s0,0.5,0,0.7s0,0.5,0.1,0.7c0,0.2,0,0.5,0.1,0.7c0.1,1,0.2,1.9,0.4,2.9c0.9,6.8,2.5,14.3,2.5,14.3s0.1,0.3,0.2,0.8l0,0h-0.6
	c-4,0.1-7.8,0.2-11.8,0.4h-0.7h-0.3c-8.4,0.4-16.8,0.8-25.1,1.2l-2.1,0.1h-0.3c-2.9,0.1-5.8,0.2-8.7,0.3h-0.8l0,0
	c0.2-0.4,0.5-0.7,0.7-1c0.2-0.2,0.5-0.5,0.7-0.7c1.4-1,2.8-1.7,4.2-2.2c0.4-0.1,0.6-0.2,1-0.1h2h0.3l3,0.1l25.7,0.6l0,0
	c0,0,0.1,0,0.2-0.1c0.3-0.1,0.6-0.2,0.9-0.4c1-0.5,1.6-1.6,1.8-2.7c0-0.1,0-0.2,0-0.3c0-0.2,0-0.3,0-0.5c0-0.1,0-0.2,0-0.4
	c0-0.1,0-0.3-0.1-0.4c-0.6-4.1-1.7-16.8-1.7-16.8s0-0.6,0-1.5c0-0.1,0-0.2,0-0.2V267c0-0.2,0-0.4,0-0.7c0-0.1,0-0.3,0-0.5
	s0-0.5,0.1-0.7l0,0c0-0.2,0-0.3,0-0.5s0,0,0-0.1c0.1-0.6,0.1-1.3,0.2-1.9c0.5-4.8,2.1-11.1,5.7-13.6c1.9-1.4,3.2-1.6,4-1.4
	c1.3,0.4,1.6,1.9,1.7,2.9c0,0.1,0,0.1,0,0.2C204.3,251.2,204.3,251.5,204.3,251.7z"/>
<path class="st3" d="M153,295.3L153,295.3L153,295.3L153,295.3L153,295.3z"/>
<polygon class="st3" points="163.8,295.3 163.9,295.4 163.7,295.4 163.7,295.3 "/>
<path class="st3" d="M187.8,295.4L187.8,295.4L187.8,295.4z"/>
<path class="st3" d="M203.5,251.4c0,0-3.6,11.8-3.4,18.9c0.2,7.1,3,20.4,3,20.4s0.1,0.5,0.3,1.3c-4,0.1-7.8,0.2-11.8,0.4h-0.7h-0.3
	c-8.4,0.4-16.8,0.8-25.1,1.2l-2.1,0.1h-0.3c-2.9,0.1-5.8,0.2-8.7,0.3h-0.8l0,0h-0.9c0.4-0.8,0.9-1.5,1.5-1.9l0.1-0.1
	c1.4-1,2.8-1.6,4.2-2.1c0.4-0.1,0.6-0.2,1-0.1l2.6,0.1h0.3l3.1,0.1l25.1,0.6c0.4-0.1,0.7-0.2,1-0.4c0.1-0.1,0.2-0.1,0.4-0.2l0,0
	c0.3-0.2,0.6-0.5,0.8-0.8c0.5-0.7,0.9-1.7,0.6-3.3c-0.6-4.1-1.7-16.8-1.7-16.8s-0.2-15.4,6-19.7c2.5-1.7,3.9-1.6,4.7-1
	c0,0,0.1,0,0.1,0.1C203.7,249,203.5,251.4,203.5,251.4z"/>
<path class="st2" d="M103.4,280.4l-0.1,1.3l-0.6,7.6c-1-0.2-1.9-0.5-2.9-0.8l0.7-6.9l0.3-2.3L103.4,280.4z"/>
<polygon class="st5" points="85.5,277.8 100.7,239.5 161.9,245.2 167.5,277.8 "/>
<polygon class="st6" points="85.5,281.2 85.5,277.8 167.5,277.8 167.5,282.8 "/>
<path class="st7" d="M108.6,272.3l36.7,0.9c0.3,0,0.5-0.3,0.5-0.6c0-0.1,0-0.1,0-0.2l-5.7-18.3l-24.7-0.6l-7.3,17.7
	c-0.2,0.4,0,0.8,0.3,1C108.4,272.2,108.5,272.3,108.6,272.3z"/>
<path class="st8" d="M108.6,272.3l36.7,0.9c0.3,0,0.5-0.3,0.5-0.6c0-0.1,0-0.1,0-0.2l-5.7-18.3l-24.7-0.6l-7.3,17.7
	c-0.2,0.4,0,0.8,0.3,1C108.4,272.2,108.5,272.3,108.6,272.3z"/>
<path class="st7" d="M108.4,271.5l37.1,1l-5.1-18.1c-0.2-0.6-0.6-1-1.2-1.1l-23.8-0.6L108.4,271.5z"/>
<path class="st9" d="M111.4,267.4l4.4-11.6c0.2-0.5,0.6-0.8,1.1-0.8h11c0.6,0,1.2,0.6,1.2,1.4v12.5c0,0.8-0.5,1.4-1.2,1.4
	c0,0,0,0-0.1,0l-15.5-1c-0.6,0-1.2-0.7-1.1-1.5C111.3,267.8,111.3,267.6,111.4,267.4z"/>
<path class="st10" d="M133.2,265.9l0.2-6.6c0-0.6,0.4-1,0.8-1h3.2c0.5,0,0.7,0.4,0.8,0.9l1,6.6c0.1,0.6-0.3,1.1-0.7,1.2
	c-0.1,0-0.1,0-0.2,0h-4.4C133.6,267,133.2,266.5,133.2,265.9L133.2,265.9z"/>
<path class="st9" d="M89.9,222.9l12.3-1.3c0.4-0.1,0.7,0.2,0.9,0.6l11.6,31.2l-6.5,17.3c0.2-0.6,0.4,3.7-1.1,0l-18.5-45.8
	C88.4,224.4,89.4,223,89.9,222.9z"/>
<path class="st8" d="M89.9,222.9l12.3-1.3c0.4-0.1,0.7,0.2,0.9,0.6l11.6,31.2l-6.5,17.3c0.2-0.6,0.4,3.7-1.1,0l-18.5-45.8
	C88.4,224.4,89.4,223,89.9,222.9z"/>
<path class="st9" d="M89.9,222.9l12.9-1.9c0.4-0.1,0.7,0.2,0.9,0.6l11.6,31.2l-7,18.7l-19-47.2c-0.2-0.5,0-1.1,0.4-1.4
	C89.8,222.9,89.9,222.9,89.9,222.9z"/>
<path class="st11" d="M93.2,225.1l9.4-1.7c0.4-0.1,0.7,0.2,0.9,0.6l9.8,28.4c0.1,0.2,0.1,0.5,0,0.8l-4.5,11.1
	c-0.2,0.5-0.6,0.7-1,0.4c-0.2-0.1-0.3-0.2-0.4-0.4l-14.9-37.8c-0.2-0.5,0-1.1,0.4-1.4C93,225.1,93.1,225.1,93.2,225.1z"/>
<linearGradient id="SVGID_2_" gradientUnits="userSpaceOnUse" x1="205.7135" y1="859.4161" x2="205.7135" y2="859.4161" gradientTransform="matrix(1 0 0 1 -17.96 -564.03)">
	<stop  offset="0" style="stop-color:#808080;stop-opacity:0.25"/>
	<stop  offset="0.54" style="stop-color:#808080;stop-opacity:0.12"/>
	<stop  offset="1" style="stop-color:#808080;stop-opacity:0.1"/>
</linearGradient>
<path class="st12" d="M187.8,295.4L187.8,295.4L187.8,295.4z"/>
<linearGradient id="SVGID_3_" gradientUnits="userSpaceOnUse" x1="135.2392" y1="810.8445" x2="210.9467" y2="810.8445" gradientTransform="matrix(1 0 0 1 -17.96 -564.03)">
	<stop  offset="0" style="stop-color:#808080;stop-opacity:0.25"/>
	<stop  offset="0.54" style="stop-color:#808080;stop-opacity:0.12"/>
	<stop  offset="1" style="stop-color:#808080;stop-opacity:0.1"/>
</linearGradient>
<path class="st13" d="M193,289.1c0,0-0.2,0.4-0.5,1v0.1c-0.3,0.5-0.5,1.3-0.9,1.9h-0.7h-0.3c-8.4,0.4-16.8,0.8-25.1,1.2l-2.1,0.1
	h-0.3c-2.9,0.1-5.8,0.2-8.7,0.3h-0.8l0,0h-0.9h-1.3c-1.4,0-2.7,0-4.1,0h-1.6c-4.9,0-9.8-0.2-14.7-0.5h-0.5c1-2.4,2.7-6.5,4.1-7.9
	c1.1-1,8.8-2.1,15.9-2.9l0.7-0.1l0,0l2-0.2c2.7-0.3,5.1-0.5,6.9-0.7h0.2l-0.9-3.7l-1.4-5.3l0.4-4.5v-0.4l0,0c-0.4,0-0.7,0-1.1-0.2
	l-13.3-0.6h-0.3l0,0l-5.1-0.2l0,0c-2.7-0.1-4.7-0.2-4.8-0.2c-0.1,0-0.2,0-0.3-0.1c-0.1-0.1-0.3-0.1-0.4-0.2
	c-0.1-0.1-0.2-0.3-0.3-0.4h-0.1H133l-0.7,0.1h-0.4v-0.1c0-0.1-0.1-0.3-0.1-0.4h-0.2l-2.5-0.1l0,0c0,0-6.5,0.6-9.8-0.9l0,0
	c-1.3-0.6-2.1-1.4-2-2.5c0-0.3,0.1-0.6,0.2-0.8c-1.1-2.4,4.2-6.8,8.3-5.6c1.1,0.4,2.3,0.4,3.3,0.2c0.6-0.2,1.2-0.5,1.7-0.9
	c0.1,0,0.1-0.1,0.2-0.1c-0.1-0.1-0.2-0.1-0.2-0.1c-0.3-0.2-0.5-0.3-0.9-0.4l1.1-0.4l0,0c0,0,3.9-0.4,6.4-0.6l0,0
	c0.7,0,1.4-0.1,1.8-0.1c1.7,0.1,5-1.4,5.1-1.8c0.1-0.5,1.6,0,1.6,0l1.3-0.6c1.3-0.6,2.1-1.5,2.1-2s1.2-1.3,1.2-1.3
	c0.5-1.1,1.5-2.1,2.6-3.2c0.9-0.9,1.9-1.6,2.6-2.1c0.3-2.1,0.6-4.3,1.1-6.4c0.5-1.9,2-3.4,2.6-3.9l0.2-0.2c-0.2-0.9-0.4-1.6-0.6-2.4
	c0-0.1,0-0.1-0.1-0.2c-0.1-0.2-0.1-0.3-0.2-0.5l-0.1-0.2c-0.2,0-0.3,0.1-0.5,0.1c-0.5,0.1-0.9,0.1-1.4,0.1c-4.3,0-8.1-3.4-9.3-8.2
	l0,0c-0.2-1-0.4-1.9-0.4-3c0-1,0.1-1.9,0.4-2.9l0,0c0-0.2,0.1-0.4,0.2-0.6c0,0,0,0,0-0.1s0.1-0.2,0.1-0.3c-0.5,0.1-0.8,0.1-1.3,0.1
	h-0.3c-0.8,0-1.6-0.1-2.3-0.5l0,0c-0.2-0.1-0.4-0.2-0.5-0.3l0,0c-0.2-0.2-0.4-0.3-0.5-0.6c0.6-0.6,1-1.5,1.2-2.3
	c0.1-0.7,0-1.6,0.4-2.1c0.2-0.3,0.4-0.5,0.6-0.7c1.4-1.2,2.7-2.8,4-4.3c1.4-1.5,3-2.6,4.8-2.7c2.4-0.1,4.5,1.9,6.9,2.3
	c0.7,0.1,1.5,0.1,2.3,0.3c0.8,0.3,1.5,0.8,2.3,1.4c0.6,0.4,1.2,1,1.6,1.6c0.3,0.6,0.5,1.2,0.6,1.8c0.3,1.4,0.5,2.8,0.5,4.3
	c0.1,1.5,0,3,0.1,4.5c0.1,1.3,0.5,2.5,1.1,3.6l0,0c0.1,0.2,0.2,0.4,0.4,0.5c-0.3,0.1-0.5,0.2-0.7,0.2c-0.4,0.1-0.8,0.2-1.3,0.3
	c-0.2,0-0.4,0.1-0.5,0.1c-0.1,0-0.3,0-0.4,0l0.3,0.2l0.7,0.6l0,0l0.3,0.2l0.5,0.4c0.1-0.4,0.3-0.5,0.5-0.5c0.4-0.4,0.9,0.5,0.9,0.5
	c0.4,0.8,1.3,1.6,2,2c0.5,0.3,0.9,0.6,1.4,0.9c10.5,7.4,9.7,18.4,10.4,19.3c0.6,0.9,0.6,4.1,0.6,4.1s1.5,10.8,2.3,11.7
	c0.7,1,0,1.3,0.6,2.3c0.6,1.1,0.5,3.8,0.5,3.8s0.5,6.6,1.9,7.9c1.4,1.3,3.2,12,3.5,14.2L193,289.1z"/>
<path class="st14" d="M131.8,254.6c0,0-1.4,2.7-5.6,1.5c-4.2-1.3-9.6,3.5-7.9,5.8c1.5,2.3,11.5-0.7,11.5-0.7l3.8-0.9l-0.3-3.8
	L131.8,254.6z"/>
<path class="st4" d="M131.8,254.6c0,0-1.4,2.7-5.6,1.5c-4.2-1.3-9.6,3.5-7.9,5.8c1.5,2.3,11.5-0.7,11.5-0.7l3.8-0.9l-0.3-3.8
	L131.8,254.6z"/>
<path class="st15" d="M133.2,254.5l-1.8-0.1l-1.1,0.4c0,0,3.4,0.6,2.5,6.2l3.7-0.3L133.2,254.5z"/>
<path class="st4" d="M133.2,254.5l-1.8-0.1l-1.1,0.4c0,0,3.4,0.6,2.5,6.2l3.7-0.3L133.2,254.5z"/>
<path class="st16" d="M156.7,242c0,0-4.9,3.3-6.2,6.1c0,0-1.2,0.7-1.2,1.3s-0.7,1.4-2,1.9l-1.3,0.6c0,0-1.4-0.4-1.6,0
	s-3.3,1.8-5,1.7s-8,0.7-8,0.7c2.4,1.3,3.8,4.5,3.2,7.6l15.2-0.8l5.8-1.6l3.3-4L156.7,242z"/>
<path class="st4" d="M156.7,242c0,0-4.9,3.3-6.2,6.1c0,0-1.2,0.7-1.2,1.3s-0.7,1.4-2,1.9l-1.3,0.6c0,0-1.4-0.4-1.6,0s-3.3,1.8-5,1.7
	s-8,0.7-8,0.7c2.4,1.3,3.8,4.5,3.2,7.6l15.2-0.8l5.8-1.6l3.3-4L156.7,242z"/>
<path class="st14" d="M134.3,265.9l-2.2-0.1l-2.5-0.1c0,0-11.8,1.1-11.6-3.4c0.3-4.5,9.4-6.1,10.6-4.8c1,1,3.2,1.7,4.2,2.1
	c0.4,0.1,0.5,0.2,0.5,0.2L134.3,265.9z"/>
<path class="st4" d="M134.3,265.9l-2.2-0.1c-0.8-3.5,0.2-5.4,0.7-6.2c0.4,0.1,0.5,0.2,0.5,0.2L134.3,265.9z"/>
<path class="st15" d="M135.8,266.1l-2.3,0.2l-1.1,0.1c-1.4-5,0.9-7.1,0.9-7.1h0.7l1.2,0.2L135.8,266.1z"/>
<path class="st14" d="M162.8,232.4l-2.6,5.9c0,0-0.4-6-1.6-8.9c-0.3-0.8-0.6-1.3-1.1-1.4c-1.1-0.4,5.3-8.7,5.3-8.7
	c0.2,0.1,1.4,1,3,2.2c1.6,1.4,3.6,2.9,5,4C173.3,227.4,162.8,232.4,162.8,232.4z"/>
<path class="st16" d="M159.4,232.5c0,0-2.2,1.6-2.7,4c-0.6,2.4-1.2,6.7-1.2,6.7s1,10.2,1.4,10.7c0.5,0.5,2.4,10.7,2.4,10.7l1.8-1.5
	l-2.4-12.9C158.8,250.2,160.4,233.6,159.4,232.5z"/>
<path class="st4" d="M159.4,232.5c0,0-2.2,1.6-2.7,4c-0.6,2.4-1.2,6.7-1.2,6.7s1,10.2,1.4,10.7c0.5,0.5,2.4,10.7,2.4,10.7l1.8-1.5
	l-2.4-12.9C158.8,250.2,160.4,233.6,159.4,232.5z"/>
<polygon class="st15" points="168.6,255.3 158.1,255.3 159.8,235.4 168.6,235.4 "/>
<path class="st17" d="M144,295.3L144,295.3l-0.2,0.1L144,295.3z"/>
<path class="st17" d="M164,286.2l-2.1,1l-0.3,0.1l-7.5,3.4l-2.9,1.3l-3.9,1.7h-1.6c-4.9,0-9.8-0.2-14.7-0.5c0.9-2.4,2.6-6.4,4-7.7
	c1.1-1,8.6-2,15.5-2.9c0.9-0.1,1.7-0.2,2.5-0.3h0.2c2.7-0.3,5.2-0.6,6.9-0.7h0.3l2.2-0.2l0.3-0.3l0.3,1.5l0.3,1.2L164,286.2z"/>
<path class="st4" d="M144,295.3L144,295.3l-0.2,0.1L144,295.3z"/>
<path class="st4" d="M164,286.2l-2.1,1l-0.3,0.1l-7.5,3.4l-2.9,1.3l-3.9,1.7h-1.6c-4.9,0-9.8-0.2-14.7-0.5c0.9-2.4,2.6-6.4,4-7.7
	c1.1-1,8.6-2,15.5-2.9c0.9-0.1,1.7-0.2,2.5-0.3h0.2c2.7-0.3,5.2-0.6,6.9-0.7h0.3l2.2-0.2l0.3-0.3l0.3,1.5l0.3,1.2L164,286.2z"/>
<path class="st17" d="M144,295.3L144,295.3l-0.2,0.1L144,295.3z"/>
<path class="st17" d="M153,295.3L153,295.3L153,295.3L153,295.3L153,295.3z"/>
<polygon class="st17" points="163.9,295.4 163.7,295.4 163.7,295.3 163.8,295.3 "/>
<path class="st17" d="M165.8,282.8l-0.2,6.8v0.4l0,0l-0.1,3.4l-2.1,0.1h-0.3c-2.9,0.1-5.8,0.2-8.7,0.3h-0.8l0,0h-0.9h-1.3
	c-1.4,0-2.7,0-4.1,0h-1.6c1.4-1.1,3.3-2.2,5.3-3.4c0.9-0.5,1.8-1.1,2.8-1.6c2.5-1.4,5.1-2.7,7.1-3.8l0.3-0.1
	c0.8-0.4,1.5-0.8,2.2-1.1C164.9,283.2,165.7,282.7,165.8,282.8L165.8,282.8z"/>
<path class="st4" d="M147.2,254.8c0.5,1.3,1.1,2.6,1.9,3.6c0.2,0.2,0.4,0.3,0.5,0.1c0-0.1,0.1-0.2,0.1-0.3c0-0.6-0.2-1.2-0.5-1.6
	c-0.3-0.5-0.6-1-0.8-1.6s-0.5-1.6-1.1-1.6C146.5,253.2,147,254.4,147.2,254.8z"/>
<path class="st4" d="M165.7,221.5c0,0.2-0.1,0.3-0.1,0.5c-1.1,3.8-3.7,6.7-7,7.5c-0.3-0.8-0.6-1.3-1.1-1.4c-1.1-0.4,5.3-8.7,5.3-8.7
	C163,219.3,164.2,220.3,165.7,221.5z"/>
<path class="st14" d="M166.1,218.3c0,6.1-4.2,11.1-9.4,11.1c-5.1,0-9.4-4.9-9.4-11.1c0-6.2,4.2-11.1,9.4-11.1
	C161.9,207.2,166.1,212.1,166.1,218.3L166.1,218.3z"/>
<path class="st17" d="M160.3,234.9c0,0-2,2.8-1.6,4.7h2.3l1.7-2.3L160.3,234.9z"/>
<path class="st4" d="M167.3,223l-7.5,12.1c0,0,1.9,3.3,2.8,3.4c0.9,0.2,6.1-14.3,6.1-14.3L167.3,223z"/>
<path class="st15" d="M167.4,222.8l-7.5,12.2c0,0,1.9,3.2,2.8,3.4c0.9,0.2,6.1-14.3,6.1-14.3L167.4,222.8z"/>
<path class="st17" d="M159,238.3c0,0-0.4,6.8-0.7,8.1c-0.4,1.4,0,13.8,0,13.8l3.4-1.6l-0.6-19.1L159,238.3z"/>
<polygon class="st4" points="163.8,295.3 163.9,295.4 163.7,295.4 163.7,295.3 "/>
<path class="st4" d="M187.8,295.4L187.8,295.4L187.8,295.4z"/>
<path class="st4" d="M191.9,289.4c0,0-0.1,0.1-0.2,0.3c-0.1,0.2-0.2,0.5-0.4,0.8l0,0c-0.2,0.5-0.5,1-0.7,1.6
	c-8.4,0.4-16.8,0.8-25.1,1.2l-2.1,0.1h-0.3l-0.9-3.5l0,0l-0.1-0.4l-0.5-2.2l-0.5-2.2l-0.5-2.4l-0.2-0.9l-0.1-0.2l-0.9-3.7l-1.3-4.9
	l0.4-4.8l0,0v-0.4l0.4-4.3l0.1-1.3l0,0v-0.7v-0.2l0,0l0.1-1.6l0.2-4.6l0.1-2.3l0,0v-0.4l0,0l0.2-4.7l0.5-1.9l0.3-1l0.6-2.2l0.1-0.6
	l0,0c0.2-0.9,0.6-2.5,1-4.1l0,0V238l0,0v-0.1l0.3-1.2l0.4-1.5c0.1-0.6,0.2-1,0.2-1.1c0-0.2,0.5-1.3,1.3-2.6l0,0
	c1.4-2.7,3.5-6.8,3.7-8.1l0,0c0-0.1,0-0.2,0.1-0.2c0.1-0.4,0.3-0.5,0.5-0.5c0.1,0,0.2,0.1,0.2,0.1c0.2,0.1,0.3,0.3,0.5,0.5
	c0.4,0.8,1.2,1.5,2,2l0.2,0.1l0.1,0.1c0.6,0.4,1.2,0.7,1.2,0.7c10.2,7.3,9.6,18.2,10.2,19.1c0.6,0.9,0.6,4,0.6,4s1.5,10.7,2.2,11.6
	c0.7,1,0.1,1.3,0.6,2.2c0.6,1.1,0.5,3.8,0.5,3.8s0.5,6.5,1.9,7.9C189.9,276.4,191.9,289.4,191.9,289.4z"/>
<path class="st16" d="M192.2,289.3l-0.1,0.3l0,0c-0.1,0.2-0.3,0.5-0.5,1l0,0c-0.2,0.5-0.5,1.1-0.7,1.6h-0.3
	c-8.4,0.4-16.8,0.8-25.1,1.2l-2.1,0.1l-0.9-3.5l0,0l-0.1-0.4l-0.5-2.3l-0.5-2.2l-0.5-2.2l-0.2-0.9l0,0l-1-3.9l-1.3-5.1l0.4-4.2
	l0.1-0.6l0.4-4.8l0,0l0.2-3.7l0.2-4.5l0.1-1.2l0.1-1.4v-0.6l0.2-4.5l0.5-1.9l0.3-0.9l0.5-1.9l0.1-0.4c0,0,0.5-2.1,1-4.4
	c0-0.1,0-0.2,0.1-0.2c0-0.2,0.1-0.4,0.1-0.6l0,0c0-0.2,0.1-0.4,0.1-0.6c0.2-0.6,0.3-1.2,0.4-1.6c0.2-0.6,0.3-1.1,0.3-1.2
	c0-0.2,0.5-1.3,1.3-2.7c1.4-2.6,3.2-6.3,3.6-7.9c0-0.1,0-0.2,0.1-0.2l0,0c0-0.3,0.1-0.5,0.3-0.7c0.4-0.4,0.9,0.5,0.9,0.5
	c0.4,0.8,1.2,1.5,2,2c0.5,0.3,0.9,0.6,1.4,0.9c10.2,7.3,9.6,18.2,10.2,19.1c0.6,0.9,0.6,4,0.6,4s1.5,10.7,2.2,11.6
	c0.7,1,0.1,1.3,0.6,2.2c0.6,1.1,0.5,3.8,0.5,3.8s0.5,6.5,1.9,7.9C190.2,276.3,192.2,289.3,192.2,289.3z"/>
<path class="st4" d="M171.3,225.6c-1,1.7-2.6,4.8-3.1,7c0,0-1.6,1.9-2.2,1.8c-0.6-0.1,0.5,1.5,0.5,1.5l-6.2,10.3l0.9-3.2
	c0,0,1.9-7.8,2-8.5c0.1-0.7,4.6-8.7,5-10.8c0.3-1.6,1.2-0.2,1.2-0.2C169.7,224.2,170.6,225,171.3,225.6z"/>
<path class="st16" d="M171.3,225.3c-1,1.7-2.6,4.8-3.1,7c0,0-1.6,1.9-2.2,1.8c-0.5-0.1,0.5,1.5,0.5,1.5l-6.2,10.3l0.9-3.2
	c0,0,1.9-7.8,2-8.5c0.1-0.7,4.6-8.7,5-10.8c0.3-1.6,1.2-0.2,1.2-0.2C169.7,224,170.6,224.8,171.3,225.3z"/>
<path class="st4" d="M179.7,246.7c0.1,2.3-2.9,5.6-3,5.8c-0.1,0.2-9.1,8.9-9.1,8.9l-6.4,5.8c-0.7,0.7-1.6,1.2-2.5,1.4l0.5-5.2
	l0.5-10.6c1-1.4,2-2.7,2-3.2c0-0.9,1.7-1.9,1.7-1.9s1.2-1.2,1-1.7c-0.2-0.7,0.6-3.8,0.6-3.8c0.5-8.8,8-9.7,8-9.7s3.7,1.7,6.3,3.6
	C181.9,237.9,179.7,244.3,179.7,246.7z"/>
<path class="st4" d="M135.8,266.1l-2.3,0.2c-0.9-1.9,0.4-7,0.4-7h0.2l1.2,0.2L135.8,266.1z"/>
<path class="st16" d="M173,232c0,0-7.7,0.9-8,9.7c0,0-0.8,3.1-0.6,3.8c0.2,0.7-1,1.7-1,1.7s-1.6,1-1.7,1.9c0,0.9-4.2,5.9-4.2,5.9
	s-1.7,2.3-5.8,2.6c-4,0.3-5.9,1.7-5.9,1.7s-2-1.6-3.3-1.2c-1.4,0.5-8.3,1.2-8.3,1.2s-1.8,7.3,0.5,7.7c0.3,0.1,22.8,1,22.8,1
	s1.5,0.9,3.9-1.3c2.3-2.1,6.4-5.8,6.4-5.8s8.9-8.7,9.1-8.9c0.2-0.2,3.1-3.4,3-5.8s2.1-8.7-0.5-10.6C176.6,233.7,173,232,173,232z"/>
<path class="st4" d="M166.1,218.3c0,1.2-0.2,2.3-0.5,3.5c-0.1-0.2-0.3-0.4-0.4-0.6c-0.5-0.8-0.9-1.6-1.4-2.4
	c-0.4-0.7-0.8-1.4-1.4-1.8c-0.5-0.5-1.4-0.7-2-0.3c-0.5,0.4-0.8,1.2-0.8,1.8c0,0.8,0,1.5,0.1,2.2c0,0.3,0,0.6-0.2,0.8
	c-0.2,0.2-0.5,0.3-0.7,0.3l-0.8,0.1c-0.3,0.1-0.6-0.1-0.7-0.4l0,0c-0.7-1.5-1.2-3.4-2.4-4.1c-0.8-0.5-1.9-0.4-2.3-1.3
	c-0.4-0.6-0.3-1.4-0.2-2c0.1-0.8,0.3-1.6,0.5-2.3c0.2-0.6,0.5-1.6-0.3-1.7c-0.5-0.1-1.2,0.6-1.4,1c-0.3,0.4-0.3,1.1-0.5,1.6
	c-0.4,0.9-1,1.6-1.7,1.9c-0.4,0.2-0.8,0.3-1.2,0.4c1.6-5.8,6.9-9.1,11.8-7.2C163.5,209.1,166.1,213.5,166.1,218.3L166.1,218.3z"/>
<path class="st16" d="M151.1,210.8c-0.3,0.5-0.3,1.1-0.5,1.6c-0.4,0.9-1,1.6-1.7,1.9c-0.7,0.3-1.5,0.5-2.3,0.5
	c-1.3,0-2.7-0.2-3.6-1.4c0.6-0.6,1-1.4,1.1-2.3c0.1-0.7,0-1.5,0.4-2c0.2-0.3,0.4-0.5,0.6-0.7c1.4-1.2,2.6-2.8,3.9-4.3
	c1.4-1.4,2.9-2.6,4.7-2.7c2.3-0.1,4.4,1.9,6.8,2.2c0.7,0.1,1.4,0.1,2.2,0.3c0.8,0.3,1.5,0.8,2.2,1.4c0.6,0.4,1.2,1,1.5,1.6
	c0.3,0.6,0.5,1.2,0.6,1.8c0.3,1.4,0.5,2.8,0.5,4.2c0.1,1.5,0,3,0.1,4.5c0.1,1.5,0.5,3,1.4,4.1c-0.6,0.2-1.3,0.4-1.9,0.5
	c-0.4,0.1-0.8,0.1-1.2-0.1c-0.3-0.2-0.5-0.6-0.7-1l-1.4-2.4c-0.4-0.7-0.8-1.4-1.4-1.8c-0.5-0.5-1.4-0.7-2-0.3
	c-0.5,0.4-0.8,1.2-0.8,1.8c0,0.8,0,1.5,0.1,2.2c0,0.3,0,0.6-0.2,0.8c-0.2,0.2-0.5,0.3-0.7,0.3l-0.8,0.1c-0.3,0.1-0.6-0.1-0.7-0.4
	l0,0c-0.7-1.5-1.2-3.4-2.4-4.1c-0.8-0.5-1.9-0.4-2.3-1.3c-0.4-0.6-0.3-1.4-0.2-2c0.1-0.8,0.3-1.6,0.5-2.3c0.2-0.6,0.5-1.6-0.3-1.7
	C152.1,209.7,151.4,210.3,151.1,210.8z"/>
<path class="st4" d="M172.4,236.9c0.7-0.1,1.4-0.2,2.1,0.1c-1.7-0.9-4.5-0.5-6.1,0.7C168.5,238.1,171.9,237,172.4,236.9z"/>
<path class="st4" d="M173.2,239.6c1.7,0.1,3.5,0.4,5.1-0.2c-1.4-0.6-2.9-0.2-4.3-0.4c-1.2-0.1-2.3-0.6-3.4-0.3
	c-0.5,0.1-2.2,1.1-2.1,1.7C170,239.7,171.6,239.4,173.2,239.6z"/>
<path class="st4" d="M168.6,244.1c0.4,0,0.7,0,1.1,0.1c1.3,0.4,2.6,0.5,4,0.5c1,0,2.1-0.2,2.8-1L168.6,244.1z"/>
<path class="st4" d="M163.1,254.5c1.2,0.7,2.5,1,3.9,0.9s2.6-0.4,3.9-0.9c0.5-0.2,1.2-0.5,1.5-1L163.1,254.5z"/>
<path class="st4" d="M175.5,255.9c2.6,1.7,5.5,2.8,8.5,3.1c-1.5-0.7-3.1-1.4-4.6-2c-1.5-0.7-3.2-1.2-4.8-1.6
	C174.9,255.5,175.2,255.7,175.5,255.9z"/>
<path class="st4" d="M179.7,254c0.5,0.1,1.1,0.1,1.6,0.1c0.3,0,0.6,0,0.8-0.3c-1.2,0.1-2.3-0.3-3.5-0.6c-0.4-0.1-0.9-0.3-1.2-0.1
	C177.8,253.5,179,253.9,179.7,254z"/>
<path class="st4" d="M186.9,283.6c0.6,1.3,1.3,2.6,2.2,3.7c0.5,0.6,1,1.2,1.6,1.6c-1-3.1-2.1-6.3-3.8-9c-0.5-0.7-1.1-1.6-1.8-1.8
	c-0.2,0.8,0.4,2.1,0.6,2.8C186,281.8,186.5,282.7,186.9,283.6z"/>
<path class="st4" d="M156.4,260.2c-0.1,0.5-0.1,1.2,0.2,1.6c0.1,0.2,0.4,0.4,0.5,0.4c-0.1,0-0.3-1.6-0.3-1.8c-0.1-0.4,0-1.3-0.3-1.6
	C156.4,259.2,156.4,259.7,156.4,260.2z"/>
<path class="st4" d="M157.9,259.6c0.2,1,0.7,1.7,1.4,2.2c-0.5-0.7-0.6-1.6-1.1-2.4c-0.2-0.3-0.3-0.6-0.5-0.7
	C157.7,259,157.8,259.3,157.9,259.6z"/>
<path class="st4" d="M156.6,250c-0.8,0.6-1.8,0.8-2.8,0.4c-0.2-0.1-0.7-0.3-0.5-0.7c0.1-0.4,0.7-0.1,0.9-0.1l1.2,0.2
	C155.6,249.9,156.4,250.1,156.6,250z"/>
<path class="st4" d="M152.5,252.3c0.5-0.1,1.1,0.4,1.6,0.7c0.6,0.2,1.2,0.3,1.8,0.3c0.3,0,0.6,0,0.9-0.3
	C155.4,252.6,154,252.1,152.5,252.3z"/>
<polygon class="st15" points="159.4,232.5 159.5,232.5 160.1,235.4 159.4,236.3 "/>
<g class="st18">
	<path d="M144.3,209.4c-0.1,0.5-0.1,1-0.1,1.5c0-0.2,0.1-0.3,0.1-0.5C144.3,210,144.3,209.7,144.3,209.4z"/>
	<path d="M152.7,209.7c0.3,0,0.5,0.3,0.5,0.6l0,0c0.1-0.6,0.2-1.3-0.4-1.4c-0.5-0.1-1.2,0.6-1.4,1c-0.3,0.5-0.3,1.1-0.5,1.6
		c-0.4,0.9-1,1.6-1.7,1.9c-0.7,0.3-1.5,0.5-2.3,0.5c-1.2,0-2.5-0.2-3.3-1.1c-0.1,0.1-0.2,0.3-0.4,0.4c0.8,1.2,2.3,1.5,3.6,1.4
		c0.8,0,1.6-0.2,2.3-0.5c0.7-0.4,1.4-1.1,1.7-1.9c0.2-0.5,0.3-1.1,0.5-1.6C151.4,210.3,152.1,209.7,152.7,209.7z"/>
	<path d="M167.4,221.3c-0.4,0.1-0.8,0.1-1.2-0.1c-0.3-0.2-0.5-0.6-0.7-1c-0.5-0.8-0.9-1.6-1.4-2.4c-0.4-0.7-0.8-1.4-1.4-1.8
		c-0.5-0.5-1.4-0.7-2-0.3c-0.5,0.4-0.8,1.2-0.8,1.8v0.1c0.1-0.6,0.4-1,0.7-1.3c0.6-0.4,1.4-0.2,2,0.3c0.5,0.5,1,1.2,1.4,1.8
		c0.5,0.8,0.9,1.6,1.4,2.4c0.2,0.4,0.5,0.7,0.7,1c0.4,0.2,0.8,0.2,1.2,0.1c0.6-0.1,1.3-0.3,1.9-0.5c-0.1-0.2-0.3-0.3-0.4-0.5
		C168.4,221,167.8,221.2,167.4,221.3z"/>
	<path d="M159.9,220.5c-0.2,0.2-0.5,0.3-0.7,0.3l-0.8,0.1c-0.3,0.1-0.6-0.1-0.7-0.4l0,0c-0.7-1.5-1.2-3.4-2.4-4.1
		c-0.8-0.5-1.9-0.4-2.3-1.3c-0.3-0.5-0.4-1.2-0.3-1.7c0,0.1,0,0.2-0.1,0.3c-0.1,0.7-0.2,1.5,0.2,2c0.5,0.9,1.5,0.9,2.3,1.3
		c1.3,0.7,1.8,2.6,2.4,4.1c0.1,0.2,0.2,0.4,0.4,0.5c0.2,0.1,0.3,0.1,0.5,0l0.8-0.1c0.3,0,0.5-0.1,0.7-0.3
		C159.9,221,160,220.7,159.9,220.5L159.9,220.5C159.9,220.4,159.9,220.5,159.9,220.5z"/>
</g>
<path class="st2" d="M275.4,298.7l-1.8-0.3v-31.3l0.4,0.1l1.1,0.4v1.1v0.8v1.2v1.4v2.8v0.3v0.4v0.8v0.5v1.2v0.8l0.1,14.2v0.4
	l0.1,4.9v0.1L275.4,298.7z"/>
<path class="st19" d="M276.4,298.8l-1-0.2V298v-0.1l-0.1-4.9v-0.4l-0.1-14.2v-0.6v-1.2v-0.5v-0.8V275v-0.3v-2.8v-1.4v-1.2v-0.8v-1.1
	h1.1v1.2v0.8v0.9v1.2v3v0.7v0.7v0.5v0.6v0.8l0,0l0.1,14.8v0.4v4.9v0.1V298.8z"/>
<path class="st19" d="M276.4,300.6L276.4,300.6z"/>
<path class="st2" d="M384.9,263.1v27c-0.5,0.5-1.1,0.9-1.6,1.3v-22.5v-2.4L384.9,263.1z"/>
<path class="st19" d="M386.1,262.7v26.4c-0.4,0.4-0.8,0.7-1.2,1.1v-27L386.1,262.7z"/>
<path class="st2" d="M360.2,301.1c-0.7,0.2-1.4,0.3-2.1,0.5v-24.4v-1.1l2-1v2.2L360.2,301.1z"/>
<path class="st19" d="M361.4,274.3v26.5c-0.5,0.1-0.9,0.2-1.3,0.3l-0.1-23.8V275l0.1-0.1l0,0L361.4,274.3z"/>
<path class="st2" d="M243.2,293.7l-1.9-0.2l-0.3-27.6v-0.8v-0.5h1.8v0.7v0.8L243.2,293.7z"/>
<path class="st19" d="M244.6,293.9l-1.4-0.2l-0.3-27.6v-0.8v-0.7h1.4v0.9v0.8L244.6,293.9z"/>
<polygon class="st4" points="360.2,274.9 361.4,274.3 361.4,277.5 360.3,278 "/>
<polygon class="st4" points="386.1,262.7 386.1,267.9 384.9,268.3 383.3,268.9 383.3,266.6 384.9,263.1 "/>
<polygon class="st6" points="386.1,252.9 386.1,267.1 360.3,277.3 360.1,262.1 "/>
<polygon class="st5" points="240.7,252 274.7,244.3 386.1,252.9 360.1,262.1 "/>
<polygon class="st4" points="244.3,264.6 244.3,266.2 242.9,266.1 241.1,265.9 241.1,264.6 "/>
<polygon class="st4" points="276.2,269.5 275.1,269.4 273.6,269.2 273.6,267 275.1,267.6 276.2,267.6 "/>
<polygon class="st6" points="240.7,252 240.7,265.1 360.3,277.3 360.1,262.1 "/>
<polygon class="st6" points="335.5,267.6 319.8,267.6 319.8,260.9 335.5,262.1 "/>
<polygon class="st4" points="335.5,267.6 319.8,267.6 319.8,260.9 335.5,262.1 "/>
<polygon class="st4" points="298.9,259.4 298.9,270 358.8,275.4 358.8,264.1 335.5,262.5 333.1,265 323.6,264.2 320.2,261.3 "/>
<polygon class="st20" points="298.6,259 298.6,269.6 358.5,275 358.5,263.7 335.1,262.1 332.8,264.6 323.3,263.8 319.8,260.9 "/>
<polygon class="st6" points="261.6,256.1 275.8,257.3 275.6,262.7 266.4,262.7 260.2,259.8 "/>
<polygon class="st4" points="261.6,256.1 275.8,257.3 275.6,262.7 266.4,262.7 260.2,259.8 "/>
<polygon class="st4" points="242.7,254.7 242.7,264.2 297.1,269.3 297.1,259.2 276.2,257.7 273.9,259.7 265.4,259.1 262,256.5 "/>
<polygon class="st20" points="242.4,254.3 242.4,263.8 296.7,268.9 296.7,258.8 275.8,257.3 273.6,259.3 265.1,258.7 261.6,256.1 
	"/>
<polygon class="st4" points="358.8,254.3 366.4,254.9 353.9,259.4 347.4,258.8 "/>
<polygon class="st20" points="358.8,253.9 366.4,254.5 353.9,259 347.4,258.4 "/>
<path class="st19" d="M357.9,255c0.3-0.2,0.6,0.1,0.9,0.2c0.2,0,0.4,0,0.5,0c0.4,0.1,0.7,0.4,1.1,0.2L357.9,255z"/>
<path class="st19" d="M357.6,255.3c0.3-0.2,0.6,0.1,0.9,0.2c0.2,0,0.4,0,0.5,0c0.4,0.1,0.7,0.4,1.1,0.2L357.6,255.3z"/>
<path class="st19" d="M356.7,255.7c0.3-0.2,0.6,0.1,0.9,0.2c0.2,0,0.4,0,0.5,0c0.4,0.1,0.7,0.4,1.1,0.2L356.7,255.7z"/>
<polygon class="st4" points="307.4,249.3 324.4,250.7 320.7,256.8 302.1,254.5 "/>
<polygon class="st3" points="307.1,248.9 324.1,250.3 320.5,256.4 301.8,254.1 "/>
<polygon class="st21" points="307.8,249.4 322.6,250.5 319.5,255.5 303.2,253.6 "/>
<path class="st3" d="M276.4,300.6L276.4,300.6z"/>
<path class="st4" d="M276.4,300.6L276.4,300.6z"/>
<path class="st3" d="M276.3,300.6L276.3,300.6z"/>
<path class="st3" d="M297.9,299.8c0,0.1,0,0.2,0,0.3s0,0.2,0,0.3c-0.1,0.6-0.2,1.2-0.4,1.6l0,0c-7-1-14.1-2-21.1-3.2l-1-0.2
	l-1.8-0.3l-1.5-0.3l0,0c-1.6-0.1-3.3-0.2-5-0.6c-1-0.2-2.1-0.4-3.1-0.8c-4.4-0.7-8.9-1.5-13.4-2l-0.5-0.1c0.1-0.6,0.2-0.9,0.2-0.9
	s1-4.5,1.7-9.5l0,0c0.2-1.1,0.4-2.2,0.5-3.3c0.1-0.9,0.2-1.7,0.3-2.6c0.1-0.5,0.1-0.9,0.1-1.4c0-0.2,0-0.5,0.1-0.7
	c0-0.2,0-0.5,0-0.7s0-0.4,0-0.7v-0.3c0-0.5,0-0.9,0-1.4c-0.2-2.4-0.5-4.8-1-7.1c-0.1-0.4-0.2-0.8-0.3-1.2c0-0.1-0.1-0.3-0.1-0.4
	c-0.9-4.2-2-7.6-2-7.6s0,0,0-0.1l0,0v-0.1c0-0.1,0-0.3,0-0.5v-0.1c0-0.4,0.1-0.7,0.2-1.1c0-0.1,0.1-0.2,0.1-0.4
	c0.2-0.7,0.6-1.2,1.3-1.4l0,0c0.8-0.2,2,0,3.8,1.3c0.3,0.2,0.5,0.4,0.8,0.7c0.1,0.1,0.3,0.3,0.4,0.4c2.1,2.3,3.2,6,3.8,9.5
	c0,0.1,0,0.3,0.1,0.4c0.1,0.4,0.1,0.9,0.2,1.3c0.1,0.7,0.2,1.4,0.3,2c0,0.2,0,0.3,0,0.5s0,0.3,0,0.5c0,0.5,0.1,1,0.1,1.4
	c0.1,1.1,0,1.7,0,1.7l0,0v0.1l0,0c0,0,0,0.1,0,0.2s0,0.1,0,0.2s0,0.3,0,0.5c0,0.3-0.1,0.6-0.1,1l0,0c0,0.3-0.1,0.6-0.1,0.9
	c-0.1,0.7-0.1,1.5-0.2,2.2c0,0.2,0,0.3,0,0.5c-0.1,0.7-0.1,1.5-0.2,2.1l0,0c-0.1,0.9-0.2,1.6-0.3,2.5c0,0.2,0,0.4-0.1,0.5
	c-0.2,1.9-0.5,3.8-0.5,4.9c0,0.2,0,0.3-0.1,0.5c0,0.1,0,0.1,0,0.2c0,0.2,0,0.3,0,0.5c0.2,2.8,2.7,3.3,2.7,3.3l11.7-0.3h1.7h1
	l9.1-0.2l0,0h0.8l4.5-0.1c0.3,0,0.6,0,0.9,0.1c1.4,0.5,2.7,1.2,4,2c0.4,0.3,0.7,0.7,1,1.1c0,0,0,0,0,0.1c0.6,0.9,1,1.9,1.1,3.1
	c0,0.1,0,0.2,0,0.2C297.9,299.5,297.9,299.7,297.9,299.8z"/>
<path class="st4" d="M276.3,300.6L276.3,300.6z"/>
<path class="st4" d="M297.9,299.8c0,0.1,0,0.2,0,0.3s0,0.2,0,0.3c-0.1,0.6-0.2,1.2-0.5,1.6c-7-1-14.1-2-21.1-3.2l-1-0.2l-1.8-0.3
	l-1.5-0.3l0,0c-1.6-0.1-3.3-0.2-5-0.6c-1-0.2-2.1-0.4-3.1-0.8c-4.4-0.7-8.9-1.5-13.4-2l-0.5-0.1l0,0c0.1-0.6,0.2-1,0.2-1
	s0.8-3.7,1.5-8l0,0c0.1-0.3,0.1-0.6,0.2-0.9l0.1-0.5l0,0c0.2-1.1,0.4-2.2,0.5-3.3c0.1-0.9,0.2-1.7,0.3-2.6c0.1-0.5,0.1-0.9,0.1-1.4
	c0-0.2,0-0.5,0.1-0.7c0-0.2,0-0.5,0-0.7s0-0.4,0-0.7v-0.3c0-0.5,0-0.9,0-1.4c-0.2-2.4-0.5-4.8-0.9-7.1c-0.1-0.4-0.2-0.8-0.3-1.2
	c0-0.1-0.1-0.3-0.1-0.4c-0.9-4.2-2-7.6-2-7.6l0,0l0,0V257c0-0.1,0-0.3,0-0.5v-0.1c0-0.4,0.1-0.7,0.2-1.1c0-0.1,0.1-0.2,0.1-0.4
	c0.2-0.7,0.7-1.3,1.4-1.5c0.8-0.2,2,0.1,3.7,1.3c0.3,0.2,0.6,0.5,0.9,0.7l0,0c0.1,0.1,0.3,0.3,0.4,0.4c2.1,2.3,3.2,6,3.7,9.5
	c0,0.1,0,0.3,0.1,0.4c0.1,0.4,0.1,0.9,0.2,1.3c0.1,0.7,0.2,1.4,0.2,2c0,0.2,0,0.4,0,0.5c0,0.2,0,0.3,0,0.5c0,0.5,0.1,1,0.1,1.4
	c0.1,1.1,0,1.7,0,1.7v0.1c0,0,0,0,0,0.1l0,0c0,0,0,0.1,0,0.2s0,0.1,0,0.2s0,0.3,0,0.5c0,0.3-0.1,0.6-0.1,1l0,0
	c0,0.3-0.1,0.6-0.1,0.9c-0.1,0.7-0.1,1.5-0.2,2.2c0,0.2,0,0.3,0,0.5c-0.1,0.7-0.1,1.5-0.2,2.1l0,0c-0.1,0.9-0.2,1.6-0.3,2.4
	c0,0.2,0,0.4-0.1,0.5c-0.2,1.9-0.5,3.8-0.5,4.8c0,0.2-0.1,0.4-0.1,0.6c0,0.1,0,0.1,0,0.2c0,0.2,0,0.3,0,0.5c0.2,2.8,2.7,3.3,2.7,3.3
	l11.7-0.3h1.7h1l9.1-0.2h0.8l4.5-0.1c0.3,0,0.6,0,0.9,0.1c1.4,0.4,2.8,1.2,4,2c0.4,0.3,0.7,0.7,1.1,1.1c0,0,0,0,0,0.1
	c0.6,0.9,1,1.9,1.1,3.1c0,0.1,0,0.2,0,0.2C297.9,299.5,297.9,299.7,297.9,299.8z"/>
<path class="st3" d="M276.3,300.6L276.3,300.6z"/>
<path class="st3" d="M297.9,302.1l-0.5-0.1l0,0c-7-1-14.1-2-21.1-3.2l-1-0.2l-1.8-0.3L272,298l0,0c-1.6-0.1-3.3-0.2-5-0.6
	c-1-0.2-2.1-0.4-3.1-0.8c-4.4-0.7-8.9-1.5-13.4-2c0.1-0.5,0.2-1,0.3-1.4c0,0,2.6-12.4,2.8-19c0.1-2.3-0.4-5.2-0.9-8l0,0
	c-0.1-0.4-0.2-0.8-0.3-1.2l-0.1-0.4c-0.9-4.4-2.1-7.9-2.1-7.9c0-0.5,0-0.9,0.1-1.4c0-0.1,0-0.2,0.1-0.4c0.1-0.6,0.4-1.1,0.7-1.5l0,0
	c0,0,0,0,0.1,0c0.7-0.7,2.1-0.7,4.4,0.9c0.5,0.3,0.9,0.8,1.4,1.2c0.1,0.1,0.2,0.3,0.4,0.4c1.9,2.4,2.9,6.1,3.4,9.4l0.1,0.4
	c0.1,0.4,0.1,0.8,0.2,1.3l0,0l0,0c0.1,0.5,0.1,1.1,0.2,1.5l0,0c0.1,1.4,0.2,2.8,0.2,4.3c0,0-0.1,1.3-0.3,3.2
	c-0.1,0.8-0.2,1.6-0.2,2.4v0.1v0.5c-0.2,1.6-0.3,3.2-0.5,4.7c0,0.2,0,0.4-0.1,0.6c-0.2,1.7-0.4,3.2-0.5,4.2
	c-0.5,3.9,2.6,4.5,2.6,4.5l11-0.3h1.7h1h0.5h0.2l8.8-0.2h0.8l5.1-0.1c0.3,0,0.6,0,0.9,0.1c1.4,0.4,2.8,1.2,4,2
	c0.4,0.3,0.6,0.6,0.9,1c0,0,0,0,0.1,0.1C298.7,297.3,298.9,299.9,297.9,302.1z"/>
<polygon class="st9" points="337.4,242.3 340.8,250.9 340.2,250.9 336.2,242.4 "/>
<polygon class="st4" points="337.4,242.3 340.8,250.9 340.2,250.9 336.2,242.4 "/>
<polygon class="st9" points="337.4,250.9 340.8,250.9 340.8,251.9 337.4,252 "/>
<polygon class="st4" points="337.4,250.9 340.8,250.9 340.8,251.9 337.4,252 "/>
<path class="st9" d="M310.8,210.4v30.2c0,1.3,0.8,2.2,1.9,2.2h42.6c1.1,0,1.9-1,1.9-2.2l0,0l-0.5-30.3c0-1.3-0.9-2.2-1.9-2.2h-42
	C311.6,208,310.8,209.1,310.8,210.4z"/>
<path class="st4" d="M310.8,210.4v30.2c0,1.3,0.8,2.2,1.9,2.2h42.6c1.1,0,1.9-1,1.9-2.2l0,0l-0.5-30.3c0-1.3-0.9-2.2-1.9-2.2h-42
	C311.6,208,310.8,209.1,310.8,210.4z"/>
<path class="st9" d="M309.3,210.4v30.2c0,1.3,0.8,2.2,1.9,2.2h42.6c1.1,0,1.9-1,1.9-2.2l0,0l-0.5-30.3c0-1.3-0.8-2.2-1.9-2.2h-42
	C310.2,208,309.3,209.1,309.3,210.4C309.3,210.3,309.3,210.3,309.3,210.4z"/>
<path class="st11" d="M311,212.2v26.7c0,1.3,0.8,2.2,1.9,2.2h39.4c1.1,0,1.9-1,1.9-2.2l0,0v-26.7c0-1.3-0.8-2.2-1.9-2.2h-39.4
	C311.8,210,311,210.9,311,212.2z"/>
<polygon class="st9" points="328.1,242.4 331.8,250.9 340.2,250.9 336,241.1 "/>
<polygon class="st9" points="325.1,250.9 324.4,251.9 337.4,251.9 337.4,250.9 "/>
<linearGradient id="SVGID_4_" gradientUnits="userSpaceOnUse" x1="-1689.9651" y1="868.2278" x2="-1689.9651" y2="761.3987" gradientTransform="matrix(1 0 0 1 1979.37 -564.03)">
	<stop  offset="0" style="stop-color:#808080;stop-opacity:0.25"/>
	<stop  offset="0.54" style="stop-color:#808080;stop-opacity:0.12"/>
	<stop  offset="1" style="stop-color:#808080;stop-opacity:0.1"/>
</linearGradient>
<path class="st22" d="M270.4,219.5c-0.9-3.1-0.9-6.5-2.1-9.5c-0.2-0.4-0.4-0.9-0.5-1.4c-0.1-0.3-0.1-0.6-0.1-0.9h-0.1h-0.1h-0.1l0,0
	h-0.1c0,0.1,0,0.2,0.1,0.3c0.1,0.5,0.3,0.9,0.5,1.4c1.2,3,1.2,6.5,2.1,9.6c0,0.1,0.1,0.3,0.2,0.4
	C270.3,219.6,270.3,219.6,270.4,219.5C270.4,219.6,270.4,219.6,270.4,219.5z M270.4,219.5c-0.9-3.1-0.9-6.5-2.1-9.5
	c-0.2-0.4-0.4-0.9-0.5-1.4c-0.1-0.3-0.1-0.6-0.1-0.9h-0.1h-0.1h-0.1l0,0h-0.1c0,0.1,0,0.2,0.1,0.3c0.1,0.5,0.3,0.9,0.5,1.4
	c1.2,3,1.2,6.5,2.1,9.6c0,0.1,0.1,0.3,0.2,0.4C270.3,219.6,270.3,219.6,270.4,219.5C270.4,219.6,270.4,219.6,270.4,219.5z
	 M270.4,219.5c-0.9-3.1-0.9-6.5-2.1-9.5c-0.2-0.4-0.4-0.9-0.5-1.4c-0.1-0.3-0.1-0.6-0.1-0.9h-0.1h-0.1h-0.1l0,0h-0.1
	c0,0.1,0,0.2,0.1,0.3c0.1,0.5,0.3,0.9,0.5,1.4c1.2,3,1.2,6.5,2.1,9.6c0,0.1,0.1,0.3,0.2,0.4C270.3,219.6,270.3,219.6,270.4,219.5
	C270.4,219.6,270.4,219.6,270.4,219.5z M270.4,219.5c-0.9-3.1-0.9-6.5-2.1-9.5c-0.2-0.4-0.4-0.9-0.5-1.4c-0.1-0.3-0.1-0.6-0.1-0.9
	h-0.1h-0.1h-0.1l0,0h-0.1c0,0.1,0,0.2,0.1,0.3c0.1,0.5,0.3,0.9,0.5,1.4c1.2,3,1.2,6.5,2.1,9.6c0,0.1,0.1,0.3,0.2,0.4
	C270.3,219.6,270.3,219.6,270.4,219.5C270.4,219.6,270.4,219.6,270.4,219.5z M270.4,219.5c-0.9-3.1-0.9-6.5-2.1-9.5
	c-0.2-0.4-0.4-0.9-0.5-1.4c-0.1-0.3-0.1-0.6-0.1-0.9h-0.1h-0.1h-0.1l0,0h-0.1c0,0.1,0,0.2,0.1,0.3c0.1,0.5,0.3,0.9,0.5,1.4
	c1.2,3,1.2,6.5,2.1,9.6c0,0.1,0.1,0.3,0.2,0.4C270.3,219.6,270.3,219.6,270.4,219.5C270.4,219.6,270.4,219.6,270.4,219.5z
	 M270.4,219.5c-0.9-3.1-0.9-6.5-2.1-9.5c-0.2-0.4-0.4-0.9-0.5-1.4c-0.1-0.3-0.1-0.6-0.1-0.9h-0.1h-0.1h-0.1l0,0h-0.1
	c0,0.1,0,0.2,0.1,0.3c0.1,0.5,0.3,0.9,0.5,1.4c1.2,3,1.2,6.5,2.1,9.6c0,0.1,0.1,0.3,0.2,0.4C270.3,219.6,270.3,219.6,270.4,219.5
	C270.4,219.6,270.4,219.6,270.4,219.5z M270.4,219.5c-0.9-3.1-0.9-6.5-2.1-9.5c-0.2-0.4-0.4-0.9-0.5-1.4c-0.1-0.3-0.1-0.6-0.1-0.9
	h-0.1h-0.1h-0.1l0,0h-0.1c0,0.1,0,0.2,0.1,0.3c0.1,0.5,0.3,0.9,0.5,1.4c1.2,3,1.2,6.5,2.1,9.6c0,0.1,0.1,0.3,0.2,0.4
	C270.3,219.6,270.3,219.6,270.4,219.5C270.4,219.6,270.4,219.6,270.4,219.5z M318.9,250.4L318.9,250.4h-0.2H318.9L318.9,250.4
	l0.2-0.1l0,0c0.3-0.1,0.6-0.2,0.9-0.3l0,0l0.3-0.1l0,0l0,0c2.6-0.9-0.5-1.7-4.3-2.3l0,0c-4.2-0.7-9.3-1.1-9.3-1.1l-1.6,0.3l0,0
	c-2,0.3-5.1,0.8-5.5,1c-0.6,0.2-5.7,0.5-7.4,0.6c-0.1-0.1-0.2-0.3-0.3-0.3l-5.2-0.3v0.9l0,0l0,0c0-1.2-0.3-2.2-0.7-3.3v-0.1
	c-1.4-3-1.6-3.8-1.6-3.8l0,0c0-0.1,0-0.1,0-0.2c-0.5-1.8-2.1-5.1-5-9.7l-0.1-0.2l-0.4-2l-0.1-0.4h-1.8c0.3-1.7,0.7-3.6,1.3-5.2
	c0-0.1,0.1-0.2,0.1-0.3v-0.1c0-0.1,0.1-0.2,0.1-0.3c0.1,0,0.2,0,0.3,0l0,0c4.3-0.2,7.8-4.3,8.1-9.4l0,0c0-0.2,0-0.4,0-0.6
	c0-1.7-0.4-3.5-1.1-4.9c0,0,0-0.1-0.1-0.1v-0.1l-0.1-0.2c0.6-0.2,1.4,0.2,2-0.3c0.2-0.2,0.4-0.4,0.5-0.7c0.1-0.3,0.3-0.7,0.3-1l0,0
	l0,0l0,0c0,0,0,0,0-0.1l0,0c0-0.2,0-0.5,0-0.7c0-0.5-0.1-1-0.2-1.4c-0.4-1-1-1.7-1.8-2.1c-0.5-0.2-0.9-0.3-1.3-0.4
	c-1.8-0.6-3.3-1.9-5.1-2.7c-1.2-0.6-2.5-0.8-3.8-0.7c-0.8,0-1.5,0.3-2.3,0.7c-0.5,0.4-1,0.8-1.5,1.3c-1.3,1.2-2.6,2.1-3.7,3.6
	c-0.2,0.3-0.4,0.5-0.5,0.8c-0.1,0.2-0.2,0.3-0.3,0.5c-0.2-0.2-0.5-0.4-0.6-0.3l0,0c-0.1,0-0.1,0-0.2,0c-0.1,0-0.3,0-0.4,0
	c-0.3,0.1-2.3,0.7-2.3,1.1c-0.9,0.5-1.6,1.1-2.3,1.7c-1.7,1.8-2.1,4.7-2.3,7.4c-0.3,3.1-0.4,6.2-0.3,9.3c0,1.2,0.1,2.2,0.1,3.4
	c-0.1,1.4-0.3,2.6-0.5,4c-0.3,1.4-0.5,2.7-0.8,4.1c-0.1,0.7-0.4,1.4-0.9,1.6h0.2c-0.1,0-0.1,0.1-0.2,0.1c0.3,0,0.5,0.1,0.7,0.1h0.2
	c0.1,0,0.3,0,0.4-0.1c0.2-0.1,0.4-0.2,0.5-0.3c0-0.1,0-0.1,0.1-0.2c0.2-0.2,0.3-0.4,0.4-0.6c0,0.4,0,0.8-0.1,1.2c0,0.1,0,0.1,0,0.2
	c-0.2,0.8-0.5,1.6-1,2.1l0.3-0.3c-0.1,0.1-0.2,0.3-0.3,0.4c0.4-0.4,0.8-0.7,1.2-1.1l0,0c0,0,0.1,0,0.1-0.1l0,0l0.7-0.7
	c0,0.1,0,0.2,0,0.3s0,0.2,0,0.3l0,0c0,0,0,0.1,0,0.2c-0.1,2.3-0.2,7.9,0.3,9.2c0,0.1,0.1,0.2,0.1,0.2c0.5,1.6,0.7,2.2,0.6,3
	c0,0.6,0.3,2.1,0.5,3.4c0.1,0.5,0.2,1.1,0.1,1.6c0,0.3,0,0.6,0.1,0.9c0,0.2,0.1,0.3,0.1,0.5c0,0.1,0,0.1,0,0.2
	c0.3,1.2,0.6,2.7,0.3,3.3c-0.1,0.2-0.2,0.4-0.3,0.7c-0.3,1-0.4,2.3-0.7,2.9c-0.5,0.7-0.3,1.7-0.3,1.9l0,0c0,0,0,0.1-0.1,0.3
	c-0.1,0.3-0.1,0.7-0.2,1.2l0,0c-0.1,0.7-0.3,1.4-0.5,1.9l0,0c-0.2,0.5-0.3,0.8-0.5,0.9c-0.5,0.2-0.8,3.4-0.8,3.4s-1.3,2.4-1,3.1
	c0.1,0.1,0.1,0.3,0.2,0.4l-0.1,0.2c-0.7,1.3-1.7,3.7-0.7,4.9c0.4,0.4,0.7,0.8,1.2,1.1c-0.1,0.1-0.1,0.3-0.2,0.4
	c-1.1,2.9-2.7,9.8,3.6,12.6c0.6,0.3,1.3,0.5,1.9,0.8c1,0.3,2,0.6,3.1,0.8c1.4,0.3,3,0.4,4.4,0.5c0.6,0,1.4,0,2,0s1.2,0,1.8-0.1
	c0.4,0,0.6,0,1-0.1c1.9-0.1,3.8-0.4,5.7-0.8l8.9-1.9c0,0,3.8,0.2,5.1,1.1l0,0c0,0,0.3-0.2,0.6-0.5l0,0c0.2-0.1,0.4-0.3,0.5-0.5
	c1.4-1.3,3.8-3.7,5.3-7v-0.1h0.3h0.1h0.2l0.5-0.1l0,0h0.1c1.2-0.2,2.2-0.4,2.2-0.4s0,1.5,0.1,3.2c0,0.5,0,1.1,0.1,1.6
	c0.1,1.8,0.1,3.5,0.1,3.5c0,0.1,1.2,3.7,2.4,7.3l1,0.1c2.6,0.3,5.3,0.5,7.9,0.6l1,0.1h0.6c-0.5-3.2-0.8-6.3-0.8-6.3l-1.6-9.2
	c0,0-0.2-1.9-1.4-10.4c-1-6.8-6.9-6.2-9.1-5.7c-0.3,0.1-0.5,0.1-0.5,0.1v-0.5c0,0-4.2,0.4-8.1,0.6h-0.9c-0.9,0-1.7,0.1-2.4,0.1
	c-0.6,0-1.3,0-2-0.1c-3-0.4-6.3,0.8-6.3,0.8s-4.3,0.9-4.9,0.5c-0.2-0.1-0.4-0.1-0.5-0.1s-0.2,0-0.3,0c0.2-0.1,0.4-0.3,0.3-0.6
	c-0.2-0.9-0.3-2,0.3-2.8c0.2-0.4,0.5-0.9,0.9-1.5l0.7-1.3V268v-0.4l0.2-3.2l0.5-3v-0.2v-0.3v-0.2h0.1l0,0c1.3,0.5,2.6,0.9,3.6,0.5
	l0,0c0.1,0,0.2-0.1,0.3-0.1l0,0v0.2v0.4l4.7-0.3h0.1c0,0,0.2-1.1,0.4-2.5c0-0.1,0-0.2,0.1-0.4s0-0.3,0.1-0.5c0-0.1,0-0.2,0-0.2h0.2
	h0.1c2.2-0.1,5.1-0.3,6.4-0.9l0,0c0.2-0.1,0.3-0.2,0.5-0.3c0.5-0.6,2.4-1.3,4.2-1.9l0,0l0.7-0.3c0.5-0.2,1.1-0.4,1.5-0.5
	c1.1-0.3,1.8-0.6,1.8-0.6s7.2,0.8,12.6-1.1l0,0h0.1C322.6,251.6,321.3,250.9,318.9,250.4z M267.4,207.4c0,0.1,0,0.2,0,0.3l0,0l0,0
	l0,0l0,0v0.1v0.1c0,0.1,0,0.2,0.1,0.3c0.1,0.5,0.3,0.9,0.5,1.4c1.2,3,1.2,6.5,2.1,9.6c0,0.1,0.1,0.3,0.2,0.4c0,0,0.1,0.1,0.2,0.1
	h0.1l0,0h0.1v0.1l0,0l0,0c-0.4,0.8-0.8,1.5-1.2,2.1c-0.4,0.1-0.6,0.2-1,0.5l-0.2,0.1l-0.1,0.1c-0.1-0.6-0.3-1.2-0.4-1.6
	c-0.6-3-1-6.1-1.1-9.2c0-0.1,0-0.1,0-0.2c0-0.1,0-0.3,0-0.4c0-0.8,0-1.6,0.1-2.4c0-0.4,0.1-0.8,0.3-1.1l0,0
	C267.1,207.5,267.2,207.4,267.4,207.4L267.4,207.4z M270.4,219.5c-0.9-3.1-0.9-6.5-2.1-9.5c-0.2-0.4-0.4-0.9-0.5-1.4
	c-0.1-0.3-0.1-0.6-0.1-0.9h-0.1h-0.1h-0.1l0,0h-0.1c0,0.1,0,0.2,0.1,0.3c0.1,0.5,0.3,0.9,0.5,1.4c1.2,3,1.2,6.5,2.1,9.6
	c0,0.1,0.1,0.3,0.2,0.4C270.3,219.6,270.3,219.6,270.4,219.5C270.4,219.6,270.4,219.6,270.4,219.5L270.4,219.5z M270.4,219.5
	c-0.9-3.1-0.9-6.5-2.1-9.5c-0.2-0.4-0.4-0.9-0.5-1.4c-0.1-0.3-0.1-0.6-0.1-0.9h-0.1h-0.1h-0.1l0,0h-0.1c0,0.1,0,0.2,0.1,0.3
	c0.1,0.5,0.3,0.9,0.5,1.4c1.2,3,1.2,6.5,2.1,9.6c0,0.1,0.1,0.3,0.2,0.4C270.3,219.6,270.3,219.6,270.4,219.5
	C270.4,219.6,270.4,219.6,270.4,219.5L270.4,219.5z M270.4,219.5c-0.9-3.1-0.9-6.5-2.1-9.5c-0.2-0.4-0.4-0.9-0.5-1.4
	c-0.1-0.3-0.1-0.6-0.1-0.9h-0.1h-0.1h-0.1l0,0h-0.1c0,0.1,0,0.2,0.1,0.3c0.1,0.5,0.3,0.9,0.5,1.4c1.2,3,1.2,6.5,2.1,9.6
	c0,0.1,0.1,0.3,0.2,0.4C270.3,219.6,270.3,219.6,270.4,219.5C270.4,219.6,270.4,219.6,270.4,219.5L270.4,219.5z M270.4,219.5
	c-0.9-3.1-0.9-6.5-2.1-9.5c-0.2-0.4-0.4-0.9-0.5-1.4c-0.1-0.3-0.1-0.6-0.1-0.9h-0.1h-0.1h-0.1l0,0h-0.1c0,0.1,0,0.2,0.1,0.3
	c0.1,0.5,0.3,0.9,0.5,1.4c1.2,3,1.2,6.5,2.1,9.6c0,0.1,0.1,0.3,0.2,0.4C270.3,219.6,270.3,219.6,270.4,219.5
	C270.4,219.6,270.4,219.6,270.4,219.5L270.4,219.5z M270.4,219.5c-0.9-3.1-0.9-6.5-2.1-9.5c-0.2-0.4-0.4-0.9-0.5-1.4
	c-0.1-0.3-0.1-0.6-0.1-0.9h-0.1h-0.1h-0.1l0,0h-0.1c0,0.1,0,0.2,0.1,0.3c0.1,0.5,0.3,0.9,0.5,1.4c1.2,3,1.2,6.5,2.1,9.6
	c0,0.1,0.1,0.3,0.2,0.4C270.3,219.6,270.3,219.6,270.4,219.5C270.4,219.6,270.4,219.6,270.4,219.5L270.4,219.5z M270.4,219.5
	c-0.9-3.1-0.9-6.5-2.1-9.5c-0.2-0.4-0.4-0.9-0.5-1.4c-0.1-0.3-0.1-0.6-0.1-0.9h-0.1h-0.1h-0.1l0,0h-0.1c0,0.1,0,0.2,0.1,0.3
	c0.1,0.5,0.3,0.9,0.5,1.4c1.2,3,1.2,6.5,2.1,9.6c0,0.1,0.1,0.3,0.2,0.4C270.3,219.6,270.3,219.6,270.4,219.5
	C270.4,219.6,270.4,219.6,270.4,219.5L270.4,219.5z"/>
<path class="st23" d="M279.7,221.2c-0.5,0.6-0.8,1.3-1.1,1.9c0,0.1-0.1,0.2-0.1,0.3c-1.3,3.3-1.6,7.9-1.6,7.9s-0.7-0.4-1.8-1.1
	c-2-1.2-5.1-3.2-6.4-4.8c-0.5-0.7-0.7-1.4-0.3-1.7c0.1-0.1,0.2-0.2,0.3-0.3c0.4-0.4,0.7-0.9,1-1.4c0.4-0.7,0.8-1.4,1.2-2.1
	c0.2-0.5,0.5-0.9,0.6-1.4l0.1-0.2c0.8-1.8,1.4-3.5,1.4-3.5s0.3,0.1,0.7,0.3C275.7,216.3,281.5,219,279.7,221.2z"/>
<path class="st23" d="M318,298c0,0,0.4,3,0.8,6.2l-1-0.1c-2.6-0.2-5.3-0.4-7.9-0.6c-1.5-4.2-3.1-9-3.1-9.1s-0.1-1.6-0.1-3.5
	c0-0.7,0-1.3-0.1-1.9l0,0c0-1-0.1-1.7-0.1-2.3c0-0.4,0-0.6,0-0.6s-1.4,0.3-2.7,0.5l-0.5,0.1c-0.3,0-0.5,0.1-0.8,0.1
	c-0.2,0-0.5,0-0.6,0c-0.5-0.2,0.5-5.3,0.5-5.3l2.3-6.5l0.6-1.8l0.3-0.1c0.2,0,0.4-0.1,0.5-0.1c2.2-0.5,7.9-1.1,8.9,5.7
	c1.3,8.4,1.4,10.3,1.4,10.3L318,298z"/>
<path class="st23" d="M320.1,311.4h-0.7l0,0H320.1L320.1,311.4z"/>
<path class="st24" d="M318,298c0,0,0.4,3,0.8,6.2l-1-0.1c-2.6-0.2-5.3-0.4-7.9-0.6c-1.5-4.2-3.1-9-3.1-9.1s-0.1-1.6-0.1-3.5
	c0-0.7,0-1.3-0.1-1.9l0,0c0-1-0.1-1.7-0.1-2.3c0-0.4,0-0.6,0-0.6s-1.4,0.3-2.7,0.5l-0.5,0.1c-0.3,0-0.5,0.1-0.8,0.1
	c-0.2,0-0.5,0-0.6,0c-0.5-0.2,0.5-5.3,0.5-5.3l2.3-6.5l0.6-1.8l0.3-0.1c0.2,0,0.4-0.1,0.5-0.1c2.2-0.5,7.9-1.1,8.9,5.7
	c1.3,8.4,1.4,10.3,1.4,10.3L318,298z"/>
<path class="st24" d="M320.1,311.4h-0.7l0,0H320.1L320.1,311.4z"/>
<path class="st23" d="M317.7,304.1c-2.6-0.2-5.3-0.4-7.9-0.6l-1-0.1h-0.5c-1.3-3.6-2.3-7.1-2.3-7.2s-0.1-1.6-0.1-3.5
	c-0.1-2.2-0.2-4.8-0.2-4.8h-0.2h-0.1l0,0h-0.1l-0.5,0.1h-0.3c-0.5,0.1-1,0.2-1.5,0.3H303h-0.3h-0.3l0,0c-0.2,0-0.5,0.1-0.6,0.1h-0.3
	c-0.2,0-0.5,0-0.6,0c-0.5-0.2,0.5-5.3,0.5-5.3l2.9-8.3h0.1c0.2,0,0.5-0.1,0.9-0.2c0.2,0,0.4-0.1,0.5-0.1c2.5-0.4,7.3-0.3,8.2,5.8
	c1.3,8.4,1.4,10.3,1.4,10.3l1.6,9.1C317.1,299.8,317.4,301.7,317.7,304.1z"/>
<path class="st4" d="M305.9,292.7c-0.1-2.2-0.2-4.8-0.2-4.8s-2.8,0.6-4.1,0.7l0.3-1.1c0,0,4.8-1.6,4.9-0.7
	C306.9,287.4,306.2,290.7,305.9,292.7z"/>
<path class="st4" d="M306,272.8v2.4c0,0-0.3,4.3-2.1,10.9c0,0.1-0.1,0.3-0.1,0.4c-0.2,0.7-0.5,1.3-0.7,1.8c-0.5,0.1-1,0.2-1.4,0.2
	c-0.2,0-0.5,0-0.6,0c-0.5-0.2,0.5-5.3,0.5-5.3l2.9-8.3h0.1l0.6-1.8C305.1,273.1,305.4,273,306,272.8z"/>
<path class="st16" d="M305.4,272.4v2.8c0,0-0.3,4.3-2.1,10.9c-0.1,0.2-0.1,0.3-0.2,0.5s-0.1,0.4-0.2,0.6c-0.2,0.5-0.4,0.9-0.5,1.3
	l0,0c-1.4,3.3-3.7,5.6-5.1,6.9c-0.2,0.2-0.4,0.4-0.5,0.5l0,0c-0.3,0.2-0.5,0.4-0.6,0.5c-0.1,0.1-0.2,0.1-0.2,0.1
	c-1.4-1-5.1-1.2-5.1-1.2l-8.8,1.9c-1.9,0.4-3.9,0.7-5.8,0.8l-1,0.1c-0.5,0-1.2,0-1.8,0c-0.5,0-1,0-1.5,0l0,0c-1.6-0.1-3.3-0.2-5-0.6
	c-0.9-0.2-1.8-0.4-2.6-0.7c-0.6-0.2-1.3-0.5-1.8-0.8c-6.1-2.9-4.5-9.6-3.5-12.6c0.1-0.2,0.1-0.3,0.2-0.4c0.3-0.6,0.4-1,0.4-1
	l0.5-1.2l0,0l0.6-1.9l0.2-0.4v-0.1l0.5-1.5l6.9-1.1l5.1-0.8l1.5-0.2l1.1-0.2l2-0.3l0.7-0.1c0.5-0.1,0.9-0.1,1.4-0.1
	c0.3,0,0.5,0,0.7,0.1c0.5,0.3,4.8-0.5,4.8-0.5s3.3-1.2,6.2-0.8c1.4,0.1,2.9,0.1,4.3,0l0,0h0.4h0.5h0.1
	C301.2,272.9,305.4,272.4,305.4,272.4z"/>
<path class="st4" d="M280.3,280.7c0,0-3.3,9-3.5,9.2c-0.2,0.2-0.1,3,0,2.8c0.1-0.2,4.8-12.4,4.8-12.4L280.3,280.7z"/>
<path class="st4" d="M296.5,273.1c0,0-1.7,1.3-2.2,2.3c-0.5,1.1-5.1,11.4-6.3,13c-1,1.4-1.8,2.8-2.6,4.4c-0.1,0.3-0.1,2,0.7,0.4
	c0.8-1.6,0.6-1.9,2.2-4c1.6-2,3.3-6.7,4.1-7.6c0.7-1,1.6-3.7,2.8-5.3l2.3-3.1L296.5,273.1z"/>
<path class="st4" d="M296.9,291c0,0-1.2-1-2.3,0.7C293.5,293.4,296.9,291,296.9,291z"/>
<path class="st4" d="M298.4,291.5c0,0-1,2-1.4,2.2C296.5,293.8,298.4,291.5,298.4,291.5z"/>
<path class="st4" d="M296.9,292c0,0-0.8,1.6-1.4,1.5L296.9,292z"/>
<path class="st23" d="M291.4,248.6c0,0,7.2-0.4,7.8-0.7c0.7-0.3,7-1.3,7-1.3s18.7,1.6,13.4,3.5c-5.3,1.9-12.5,1.1-12.5,1.1
	s-7,2.1-8.1,3.3c-1.1,1.2-9.1,1.2-9.1,1.2L291.4,248.6z"/>
<path class="st24" d="M291.4,248.6c0,0,7.2-0.4,7.8-0.7c0.7-0.3,7-1.3,7-1.3s18.7,1.6,13.4,3.5c-5.3,1.9-12.5,1.1-12.5,1.1
	s-7,2.1-8.1,3.3c-1.1,1.2-9.1,1.2-9.1,1.2L291.4,248.6z"/>
<path class="st15" d="M265.9,229.2c0,0-6.6,2.6-3.4,9.4c3.2,6.8,7.3,9.9,7.3,9.9l10.6,8.7c0,0,4.4,3,6.5,1.7l3.3-0.3l0.5-10.4
	c0,0-2.8,2.6-5.9-1c-3.1-3.6-6.8-6-7-7.9C277.5,237.4,269.7,227.5,265.9,229.2z"/>
<path class="st17" d="M286.6,251c0,0,3.4,1.5,3.2,1.6c-0.1,0.1-3.2,1.5-3.2,1.5l0.3,5.5l4.6-0.3c0,0,1.7-10,0.3-11.1l-5.1-0.3
	L286.6,251z"/>
<path class="st4" d="M286.6,251c0,0,3.4,1.5,3.2,1.6c-0.1,0.1-3.2,1.5-3.2,1.5l0.3,5.5l4.6-0.3c0,0,1.7-10,0.3-11.1l-5.1-0.3
	L286.6,251z"/>
<path class="st4" d="M279.7,221.2c-0.5,0.6-0.8,1.3-1.1,1.9c0,0.1-0.1,0.2-0.1,0.3c-2.5,0-4.2-2.3-5.8-4.4c-0.3-0.4-1,0.2-1.2-0.2
	c0-0.1-0.1-0.1-0.1-0.2l0.1-0.2c0.8-1.8,1.4-3.5,1.4-3.5s0.3,0.1,0.7,0.3C275.7,216.3,281.5,219,279.7,221.2z"/>
<path class="st23" d="M287,213.3c0,5.4-3.7,9.9-8.3,10h-0.1c-2.4,0-4.7-1.3-6.3-3.4c-0.3-0.4-0.5-0.8-0.8-1.2
	c-2.5-4.7-1.4-10.8,2.5-13.8c3.9-3,9.1-1.6,11.6,3C286.5,209.5,287,211.3,287,213.3z"/>
<path class="st4" d="M278.4,275c0,0-0.6,1-1.4,1.7c-0.5,0.7-1.1,1.3-1.4,1.5c-0.8,0.4-4.7,3.8-4.7,3.8s-3.1,2.4-3.8,3.2
	c-0.8,0.7-3.6,0.3-3.6,0.3s-2.7-0.7-4.4-1.9c0.2-0.5,0.4-1,0.5-1.4l1.8-5l6.9-1.1L278.4,275z"/>
<path class="st17" d="M278.3,274.4c0,0-0.6,1-1.4,1.7c-0.5,0.7-1.1,1.3-1.4,1.5c-0.8,0.4-4.7,3.8-4.7,3.8s-3.1,2.4-3.8,3.2
	c-0.8,0.7-3.6,0.3-3.6,0.3s-3.9-1-5.2-2.8c-1-1.3,0-3.6,0.7-4.9c0.3-0.6,0.5-0.9,0.5-0.9L278.3,274.4z"/>
<path class="st17" d="M283.3,243.2c-2.3-0.2-9.9-11.2-9.9-11.2l0.2-0.3l1.6-2.6h3.7l0.5,2.4c2.8,4.8,4.5,7.9,5,9.9
	C284.6,242.7,284.3,243.4,283.3,243.2z"/>
<path class="st4" d="M283.3,243.2c-2.3-0.2-9.9-11.2-9.9-11.2l0.2-0.3c1.4,1.5,2.6,3.1,3.8,4.8c5.6,7.8,6.7,5.6,6.9,4.9
	C284.6,242.7,284.3,243.4,283.3,243.2z"/>
<path class="st4" d="M278.3,274.4c0,0-0.6,1-1.4,1.7c-0.4,0.2-0.7,0.3-1.2,0.3c-0.9,0-2.9,1.6-2.9,1.6s-3.6-0.2-4.2,0.2
	c-0.7,0.5-3.2,0.5-3.2,0.5c-4.8,1.6-6.1-0.9-6.4-1.6c0.3-0.6,0.5-0.9,0.5-0.9L278.3,274.4z"/>
<path class="st15" d="M286.6,250.5c0,0.2,0,0.3,0,0.5c0,0.2,0,0.3-0.1,0.5c-0.1,0.8-0.3,1.6-0.6,2.3c-0.6,1.2-2.4,5.9-2.4,5.9
	l-0.1,0.9l-0.1,0.5l-0.1,0.5l-0.5,3.2l-0.2,3.7c0,0-1.1,1.8-1.6,2.6c-0.5,0.8-0.5,1.9-0.3,2.8c0.2,0.9-1.5,1-1.5,1s-2.4,1.5-3.3,1.4
	c-0.9-0.1-2.9,1.6-2.9,1.6s-3.6-0.2-4.2,0.2c-0.6,0.4-3.2,0.5-3.2,0.5c-5.1,1.7-6.2-1.2-6.5-1.8c-0.3-0.6,1-3,1-3s0.3-3.1,0.8-3.3
	s1.2-4.4,1.2-4.4s-0.2-1.3,0.3-1.9c0.5-0.7,0.5-2.6,1-3.5c0.5-1-0.6-4-0.4-4.8c0.2-0.8-0.6-4.1-0.5-4.9c0.1-0.9-0.2-1.6-0.7-3.2
	c-0.5-1.5-0.4-7.9-0.3-9.7c0-0.3,0-0.5,0-0.5s0.5-1.8,1.7-5.4c1-2.7,3.1-3.8,4.1-4.1c0.2-0.1,0.4-0.1,0.5-0.2c0.3,0,0.5,0.1,0.7,0.2
	c1,0.4,3,1.6,5.8,4.7c1.3,1.4,2.4,2.8,3.5,4.4c6.3,8.8,6.9,4.8,6.9,4.8s0.3,0.8,1.6,3.8C286.6,246.9,286.7,248.9,286.6,250.5z"/>
<path class="st4" d="M276.1,228.6l-6.4-6c0,0-2.3,0.3-3.2,4.9l6.6,6.8L276.1,228.6z"/>
<path class="st17" d="M276.1,228.6l-1.1,1.8l-1.2,1.9l-0.8,1.5l-5.2-5.2l-0.9-1l-0.5-0.5c0.5-2.5,1.4-3.7,2.2-4.3
	c0.4-0.3,0.7-0.5,1.1-0.6L276.1,228.6z"/>
<path class="st23" d="M319.9,252.5c-5.3,1.8-12.5,1.1-12.5,1.1s-7,2.1-8.1,3.3c-0.7,0.7-4.2,1-6.7,1.1c-1.4,0.1-2.3,0.1-2.3,0.1
	l1.4-7.2h0.9c1.9-0.1,6.5-0.4,7-0.6c0.7-0.3,7-1.3,7-1.3S325.3,250.6,319.9,252.5z"/>
<path class="st4" d="M286.5,251.4c-0.1,0.8-0.3,1.6-0.6,2.3c-0.6,1.2-2.4,5.9-2.4,5.9l-0.3,1.7c-0.9-0.4-1.7-0.9-2.5-1.4l-10.6-8.7
	c0,0-4.1-3.2-7.3-9.9c-3.2-6.8,3.4-9.4,3.4-9.4c3.8-1.6,11.5,8.2,11.9,10.2s4.1,4.4,7,7.9C285.6,250.6,286,251.1,286.5,251.4z"/>
<path class="st4" d="M286.6,250.5c0,0.3-0.1,0.6-0.1,0.9c-0.1,0.8-0.3,1.6-0.6,2.3c-0.6,1.2-2.4,5.9-2.4,5.9l-0.1,0.9
	c-0.9-0.4-1.8-0.9-2.6-1.5l-10.6-8.7c0,0-4.1-3.2-7.3-9.9c-3.2-6.8,3.4-9.4,3.4-9.4c3.8-1.6,11.5,8.2,11.9,10.2
	c0.4,1.9,4.1,4.4,7,7.9C285.6,249.7,286,250.1,286.6,250.5z"/>
<path class="st15" d="M291,250.7l-0.5,10.4l-3.3,0.3c-0.1,0-0.2,0.1-0.3,0.1c-2.1,0.9-6.2-1.8-6.2-1.8l-10.6-8.7
	c0,0-4.1-3.2-7.3-9.9c-3.2-6.8,3.4-9.4,3.4-9.4c3.8-1.6,11.5,8.2,11.9,10.2c0.4,1.9,4.1,4.4,7,7.9c0.5,0.5,1,1,1.5,1.4
	C288,251.9,289.7,251.8,291,250.7z"/>
<path class="st4" d="M291,250.7l-0.5,10.4l-3.3,0.3c-0.1,0-0.2,0.1-0.3,0.1l-0.2-5c0,0,3.2-1.5,3.2-1.5c0.2-0.1-3.2-1.6-3.2-1.6V251
	C288,251.9,289.7,251.8,291,250.7z"/>
<path class="st4" d="M292.6,258c-1.4,0.1-2.3,0.1-2.3,0.1l1.5-7.1h0.9C293.1,252.1,292.9,255.3,292.6,258z"/>
<path class="st17" d="M286.9,253.4c0,0,3.4,1.5,3.2,1.6c-0.1,0.1-3.2,1.5-3.2,1.5l0.3,5.5l4.6-0.3c0,0,1.7-10,0.3-11.1l-5.1-0.3
	L286.9,253.4L286.9,253.4z"/>
<path class="st4" d="M266.6,260c0,0-1.2,1.3-2.1,1.6L266.6,260z"/>
<path class="st4" d="M263.9,263.8c0,0,2.8-0.1,3.2-0.8C267.3,262.3,263.9,263.8,263.9,263.8z"/>
<path class="st4" d="M262.5,268.6c0.2,0,3.5-0.6,3.7-1.1L262.5,268.6z"/>
<path class="st4" d="M261.5,271.6c1.3,0,3.2-1.6,3.2-1.6L261.5,271.6z"/>
<path class="st4" d="M269.3,272.4c0,0,7.3,0,7.7-1.6C277.3,269.2,269.3,272.4,269.3,272.4z"/>
<path class="st4" d="M274.8,250c0.2,0,5.8,0,6.3-1C281.8,248.2,274.8,250,274.8,250z"/>
<path class="st4" d="M268.6,223.6c0.1,0.3,0.1,0.7,0.1,1c0,0.4,0,0.8-0.1,1.1c-0.1,0.7-0.3,1.4-0.5,2l-0.1,0.2
	c-0.1,0.2-0.2,0.5-0.3,0.7c-0.5,1-0.9,1.9-1.4,2.9c-1.3,2-2.7,3.8-4.4,5.4c-0.3,0.3-0.5,0.6-0.9,0.9c0-0.3,0-0.5,0-0.5
	s0.5-1.8,1.7-5.4c1-2.7,3.1-3.8,4.1-4.1l-0.5-0.5c0.5-2.5,1.4-3.7,2.2-4.3C268.5,223.2,268.6,223.4,268.6,223.6z"/>
<path class="st4" d="M285.7,208c-0.1,0-0.2,0.1-0.3,0.1c-0.5,0.4-0.7,1.2-1.1,1.6c-0.5,0.6-1.3,0.7-2,0.8c-0.7,0.1-1.5,0.3-1.9,1.1
	c-0.3,0.6-0.3,1.3-0.4,1.8c0,0.1-0.1,0.2-0.1,0.3c-0.1,0.1-0.2,0.1-0.4,0.1c-1.4,0.1-2.4-0.5-3.7-0.9c-0.6-0.2-1.4-0.2-1.8,0.3
	c-0.5,0.5-0.5,1.2-0.5,1.8v0.1c0.1,0.7,0.1,1.4,0.1,1.9c-0.1,1.1-0.6,1.9-1.4,2.4c-0.4,0.2-0.7,0.3-1.1,0.4c-0.2,0-0.3,0-0.5-0.1
	c0.3-0.5,0.5-1,0.7-1.5c-2.5-4.7-1.4-10.8,2.5-13.8c3.9-3,9.1-1.6,11.6,2.9C285.7,207.9,285.7,207.9,285.7,208L285.7,208z"/>
<path class="st16" d="M288,206.8c-0.1,0.3-0.3,0.5-0.5,0.7c-0.6,0.5-1.5-0.1-2.3,0.4c-0.5,0.4-0.7,1.2-1.1,1.6
	c-0.5,0.6-1.3,0.7-2,0.8c-0.7,0.1-1.5,0.3-1.9,1.1c-0.3,0.6-0.3,1.3-0.4,1.8c0,0.1-0.1,0.2-0.1,0.3c-0.1,0.1-0.2,0.1-0.4,0.1
	c-1.4,0.1-2.4-0.5-3.7-0.9c-0.6-0.2-1.4-0.2-1.8,0.3s-0.5,1.2-0.5,1.8c0.1,0.7,0.1,1.4,0.1,2c-0.2,1.5-1.3,2.6-2.5,2.8
	c-0.2,0-0.4,0-0.5-0.2c-0.1-0.1-0.2-0.2-0.2-0.4c-0.9-3.1-0.9-6.5-2.1-9.5c-0.2-0.4-0.4-0.9-0.5-1.4c0-0.1,0-0.2-0.1-0.3
	c0-0.2-0.1-0.4-0.1-0.6c-0.1,0-0.2,0.1-0.4,0.2l-0.1,0.1c-0.2,0.3-0.3,0.7-0.3,1.1c-0.2,4.2,0.1,8.3,1,12.3c0.3,1,0.5,2,0.5,3.1
	c0,1.2-0.3,2.2-0.6,3.3c-1.7,4.8-5.2,8.3-8.8,11.4c0.7-1,1.1-2.1,1.1-3.4c-0.1,0.5-0.5,0.9-0.9,1s-0.8,0.1-1.3,0
	c0.5-0.2,0.7-1,0.9-1.6c0.3-1.4,0.5-2.6,0.7-4c0.3-1.3,0.5-2.6,0.5-3.9c0-1.2,0-2.2-0.1-3.4c-0.1-3.1,0-6.2,0.3-9.2
	c0.2-2.6,0.5-5.5,2.3-7.4c0.7-0.7,1.5-1.3,2.3-1.7c0-0.3,2.1-1,2.3-1.1c0.1,0,0.3,0,0.4,0c0.3-0.1,0.6,0.1,0.7,0.5
	c0.1-0.2,0.2-0.4,0.4-0.6c0.2-0.3,0.4-0.6,0.5-0.8c1.1-1.4,2.4-2.3,3.7-3.6c0.5-0.5,0.9-0.9,1.4-1.3c0.7-0.4,1.4-0.7,2.2-0.7
	c1.3-0.1,2.5,0.2,3.7,0.7c1.7,0.8,3.2,2.1,5,2.7c0.5,0.1,0.9,0.3,1.3,0.4c1.6,0.8,2.3,2.9,1.7,4.8
	C288.2,206.6,288.1,206.7,288,206.8L288,206.8z"/>
<g class="st18">
	<path d="M259.8,236.4c0.2-0.6,0.3-1.3,0.3-1.9c-0.1,0.5-0.5,0.9-0.9,1c-0.1,0-0.2,0.1-0.4,0.1c-0.2,0.5-0.4,1.1-0.8,1.2
		c0.5,0.1,0.8,0.1,1.3,0C259.5,236.7,259.7,236.6,259.8,236.4z"/>
	<path d="M288.3,204.2c0,0.5-0.1,1.1-0.4,1.6c-0.1,0.3-0.3,0.5-0.5,0.7c-0.6,0.5-1.5,0-2.3,0.4c-0.5,0.4-0.7,1.2-1.1,1.6
		c-0.5,0.6-1.3,0.7-2,0.8c-0.7,0.1-1.5,0.3-1.9,1.1c-0.3,0.6-0.3,1.3-0.4,1.8c0,0.3-0.2,0.5-0.4,0.5l0,0c-1.4,0.1-2.4-0.5-3.7-0.9
		c-0.6-0.2-1.4-0.2-1.8,0.3s-0.5,1.2-0.5,1.8c0.1,0.7,0.1,1.4,0.1,2c-0.2,1.6-1.3,2.6-2.5,2.8c-0.2,0-0.4,0-0.5-0.2
		c-0.1-0.1-0.2-0.2-0.2-0.4c-0.9-3.1-0.9-6.5-2.1-9.5c-0.2-0.4-0.4-0.9-0.5-1.4c-0.1-0.3-0.1-0.6-0.1-0.9c-0.2,0-0.3,0.1-0.5,0.3
		c-0.2,0.3-0.3,0.7-0.3,1.1c-0.1,2.6,0,5.3,0.3,7.9c-0.2-2.2-0.3-4.5-0.2-6.7c0-0.4,0.1-0.8,0.3-1.1c0.1-0.2,0.3-0.3,0.5-0.3
		c0,0.3,0.1,0.6,0.1,0.9c0.1,0.5,0.3,0.9,0.5,1.4c1.1,3,1.1,6.4,2.1,9.5c0,0.1,0.1,0.3,0.2,0.4c0.2,0.1,0.4,0.2,0.5,0.2
		c1.3-0.1,2.3-1.3,2.5-2.8c0-0.7,0-1.4-0.1-2c0-0.7,0.1-1.5,0.5-1.8c0.5-0.5,1.2-0.5,1.8-0.3c1.3,0.4,2.3,1,3.7,0.9
		c0.1,0,0.3,0,0.4-0.1s0.1-0.2,0.1-0.3c0.1-0.6,0.1-1.3,0.4-1.8c0.4-0.7,1.2-1,1.9-1.1c0.7-0.1,1.5-0.2,2-0.8
		c0.5-0.5,0.5-1.4,1.1-1.6c0.6-0.4,1.5,0.1,2.3-0.4c0.2-0.2,0.4-0.4,0.5-0.7C288.4,206.1,288.4,205.1,288.3,204.2z"/>
	<path d="M268.4,223.2c0,1.2-0.3,2.2-0.6,3.3c-1.5,4.3-4.5,7.6-7.7,10.5c-0.1,0.9-0.5,1.6-1,2.3c3.5-3.2,7-6.7,8.8-11.4
		c0.5-1.1,0.6-2.1,0.6-3.3C268.5,224,268.4,223.5,268.4,223.2C268.4,223.1,268.4,223.2,268.4,223.2z"/>
</g>
<path class="st4" d="M268.8,204.2c-0.3,1.4-0.6,3.2-0.8,4.1c0-0.2-0.1-0.4-0.1-0.6c-0.1,0-0.2,0.1-0.3,0.2c0-1,0.1-2.4,0.2-3.5
	c0.3-0.1,0.6,0.1,0.7,0.5C268.5,204.5,268.7,204.4,268.8,204.2z"/>
<path class="st17" d="M268.7,204.2c-0.3,1.4-0.6,3.2-0.8,4.1c0-0.2-0.1-0.4-0.1-0.6c-0.1,0-0.2,0.1-0.4,0.2c0-1,0.1-2.4,0.2-3.5
	c0.3-0.1,0.6,0.1,0.7,0.5C268.4,204.5,268.5,204.4,268.7,204.2z"/>
<g class="st25">
	<path class="st26" d="M325.4,129.8h46.2v53.3h-46.2V129.8z"/>
	<path class="st27" d="M323.4,127.3v58.4h50.4v-58.4H323.4z M325.5,129.8h46.2v53.3h-46.3L325.5,129.8z"/>
	<path class="st27" d="M360,151.8c-0.4-0.2-0.8-0.3-1.3-0.3c-2.6,0-4.4,2.4-4.4,6.4c0,4.6,1.8,6.4,4.2,6.4c0.5,0,1-0.1,1.4-0.3
		L360,151.8L360,151.8z M350.6,158.2c0-5.8,3.2-10.4,8.3-10.4c0.4,0,0.7,0,1.1,0.1v-6.5c0-0.1,0.1-0.3,0.2-0.3l0,0h3.3
		c0.2,0,0.2,0.1,0.2,0.2v22.8c0,0.8,0,1.6,0.1,2.4c0,0.2,0,0.2-0.1,0.3c-1.7,1-3.5,1.5-5.4,1.5C353.9,168.4,350.6,165,350.6,158.2
		L350.6,158.2z M343.4,154.1l5.9,13.6c0.1,0.2,0,0.4-0.1,0.4h-3.7c-0.2,0-0.4-0.1-0.5-0.3c-1.4-3.3-2.7-6.7-4.2-10.3l0,0
		c-1.3,3.3-2.6,7-4,10.3c-0.1,0.2-0.2,0.3-0.4,0.3H333c-0.2,0-0.3-0.2-0.1-0.4l5.8-13.2l-5.6-13c-0.1-0.1-0.1-0.2,0-0.3
		c0,0,0.1-0.1,0.2-0.1h3.6c0.2,0,0.3,0.1,0.4,0.3c1.4,3.3,2.7,6.6,4,9.9l0,0c1.2-3.3,2.5-6.6,3.9-9.9c0.1-0.2,0.2-0.3,0.4-0.3h3.4
		c0.2,0,0.3,0.2,0.1,0.4L343.4,154.1L343.4,154.1z"/>
</g>
<g class="st25">
	<path id="_x38_8e22766-bb2e-4d8a-8c4e-873561c02ed1" class="st28" d="M133.8,151.3l15.8,36.6l-26.5-36.6H133.8z"/>
	<path id="dcb2c17a-6570-4f03-a416-11c2a206e419" class="st28" d="M165.5,151.3L149.7,188l26.5-36.6H165.5z"/>
	<path id="d2c5ae9b-dccc-4d4c-8aa0-840002be2480" class="st29" d="M133.8,151.3h31.6L149.6,188L133.8,151.3z"/>
	<path id="_x36_16bf47a-f8e5-41ce-b525-03b6ad416eda" class="st30" d="M149.7,131l-15,1.8l-0.8,18.4L149.7,131z"/>
	<path id="ca73b31d-b223-4f6c-ac2e-edd2597912ec" class="st30" d="M149.7,131l15,1.8l0.8,18.4L149.7,131z"/>
	<path id="_x32_a7c7013-4804-45aa-950a-2b5376f70ef0" class="st29" d="M176.2,151.3l-11.5-18.4l0.8,18.4H176.2z"/>
	<path id="_x35_dac32ab-c712-4de9-a97f-2e05661e9f0b" class="st29" d="M123.1,151.3l11.5-18.4l-0.8,18.4H123.1z"/>
	<path id="_x32_d1bbfda-86f6-4da7-9bb0-15ddbbfa97e7" class="st31" d="M149.7,131l-15.8,20.4h31.6L149.7,131z"/>
</g>
</svg>
