<?xml version="1.0" encoding="utf-8"?>
<!-- Generator: Adobe Illustrator 24.0.1, SVG Export Plug-In . SVG Version: 6.00 Build 0)  -->
<svg version="1.1" id="Layer_1" xmlns="http://www.w3.org/2000/svg" xmlns:xlink="http://www.w3.org/1999/xlink" x="0px" y="0px"
	 viewBox="0 0 1300 400" style="enable-background:new 0 0 1300 400;" xml:space="preserve">
<style type="text/css">
	.st0{fill:url(#SVGID_1_);stroke:#000000;stroke-width:1.6452;stroke-miterlimit:10;}
	.st1{fill:#F0F0F0;}
	.st2{fill:#FFFFFF;}
	.st3{fill:#E5E5E5;}
	.st4{fill:#E6E6E6;}
	.st5{fill:#F2F2F2;}
	.st6{fill:#3F3D56;}
	.st7{fill:#FFB6B6;}
	.st8{fill:#2F2E41;}
	.st9{fill:#63C7FF;}
	.st10{fill:#CACACA;}
</style>
<linearGradient id="SVGID_1_" gradientUnits="userSpaceOnUse" x1="-9.094947e-13" y1="984.6929" x2="1300" y2="984.6929" gradientTransform="matrix(1 0 0 1 0 -782)">
	<stop  offset="0" style="stop-color:#007194"/>
	<stop  offset="1" style="stop-color:#41C1C9"/>
</linearGradient>
<rect x="0" y="2.7" class="st0" width="1300" height="400"/>
<path id="e7a552b9-89f6-403f-a662-c184ed590622-562" class="st1" d="M340.6,264.7c-0.1,5.5-1.1,11-2.8,16.2c0,0.1-0.1,0.2-0.1,0.4
	h-10.4c0-0.1,0-0.2,0-0.4c0.7-7.8-3.3-54.9-8-63.1C319.8,218.5,341.4,239.9,340.6,264.7z"/>
<path id="b08f6207-3c71-42fa-8723-265175c281aa-563" class="st1" d="M339.8,280.9c-0.1,0.1-0.2,0.2-0.3,0.4h-7.8
	c0.1-0.1,0.1-0.2,0.2-0.4c1.3-2.3,5.1-9.1,8.6-16.2c3.8-7.6,7.3-15.5,7-18.4C347.7,247,350.3,266.7,339.8,280.9z"/>
<path class="st2" d="M304.1,247.6H108.7V99.1h195.4V247.6z"/>
<path class="st3" d="M304.1,247.6H108.7V99.1h195.4V247.6z M111.6,244.8h189.6V102H111.6L111.6,244.8z"/>
<path class="st4" d="M159.9,211.1h-14.8c-0.8,0-1.5-0.7-1.5-1.5v-20.1c0-0.8,0.7-1.5,1.5-1.5h14.8c0.8,0,1.5,0.7,1.5,1.5v20.1
	C161.4,210.4,160.7,211.1,159.9,211.1z"/>
<path class="st4" d="M186.9,211.1h-14.8c-0.8,0-1.5-0.7-1.5-1.5v-39.2c0-0.8,0.7-1.5,1.5-1.5h14.8c0.8,0,1.5,0.7,1.5,1.5v39.2
	C188.4,210.4,187.7,211.1,186.9,211.1z"/>
<path class="st4" d="M213.8,211.1H199c-0.8,0-1.5-0.7-1.5-1.5v-20.1c0-0.8,0.7-1.5,1.5-1.5h14.8c0.8,0,1.5,0.7,1.5,1.5v20.1
	C215.3,210.4,214.7,211.1,213.8,211.1z"/>
<path class="st4" d="M240.8,211.1H226c-0.8,0-1.5-0.6-1.5-1.4v-46.9c0-0.8,0.7-1.4,1.5-1.4h14.8c0.8,0,1.5,0.6,1.5,1.4v46.9
	C242.3,210.5,241.6,211.1,240.8,211.1z"/>
<path class="st5" d="M267.8,211.1H253c-0.8,0-1.5-0.7-1.5-1.5v-60.3c0-0.8,0.7-1.5,1.5-1.5h14.8c0.8,0,1.5,0.7,1.5,1.5v60.3
	C269.3,210.4,268.6,211.1,267.8,211.1z"/>
<ellipse class="st6" cx="152.5" cy="178.9" rx="3.1" ry="3"/>
<ellipse class="st6" cx="179.5" cy="159.3" rx="3.1" ry="3"/>
<ellipse class="st6" cx="206.4" cy="178.9" rx="3.1" ry="3"/>
<ellipse class="st6" cx="233.4" cy="149.8" rx="3.1" ry="3"/>
<ellipse class="st6" cx="260.4" cy="138.7" rx="3.1" ry="3"/>
<polygon class="st6" points="206.5,179.6 179.5,159.6 152.8,179.3 152.2,178.5 179.5,158.3 206.4,178.2 233.1,149.3 233.2,149.3 
	260.2,138.6 260.6,139.5 233.7,150.2 "/>
<polygon class="st7" points="298.1,276.8 293.5,276.8 291.4,259.3 298.1,259.3 "/>
<path class="st8" d="M299.3,281.2l-14.8,0V281c0-3.1,2.6-5.7,5.8-5.7h0l9.1,0L299.3,281.2z"/>
<path class="st8" d="M281.7,202.7l2.6,41l8.8,28.9l6.8,0.5l-3.4-35.2l1.5-23.4c0,0,7.1-5.2,3.2-11.5L281.7,202.7z"/>
<polygon class="st7" points="301.1,276.8 296.5,276.8 294.4,259.3 301.1,259.3 "/>
<path class="st8" d="M302.3,281.2l-14.8,0V281c0-3.1,2.6-5.7,5.8-5.7h0l9.1,0L302.3,281.2z"/>
<path class="st8" d="M284.7,202.7l2.6,41l8.8,28.9l6.8,0.5l-3.4-35.2l1.5-23.4c0,0,7.1-5.2,3.2-11.5L284.7,202.7z"/>
<path class="st6" d="M298.9,209c-7.8,0-17-4.7-17.6-5l-0.1-0.1l18-45.2l8.9-4.1c2.1-1,4.7-0.1,5.7,2c0.3,0.7,0.5,1.5,0.4,2.3
	l-3.5,31.3l-3.7,16.2l0,0C304.8,208.3,301.9,209,298.9,209z"/>
<path class="st7" d="M270.2,179.1c1.8-1.1,4.1-0.6,5.2,1.1c0.1,0.2,0.2,0.4,0.3,0.6l13.4-0.7l-3.5,5.9l-12.2-0.2
	c-2,0.7-4.1-0.4-4.8-2.4C268,181.8,268.7,180,270.2,179.1L270.2,179.1z"/>
<path class="st6" d="M296.6,188.4l-13.4-0.3l0.2-8.8l6.3-2l10.4-14.4c2.2-3,6.3-3.7,9.4-1.5s3.7,6.3,1.6,9.2
	c-0.1,0.1-0.1,0.2-0.2,0.3L296.6,188.4z"/>
<ellipse class="st7" cx="304.3" cy="144.1" rx="8.9" ry="8.8"/>
<path class="st8" d="M293,136.8c0.9-0.9,2.1-1.5,3.3-1.7c1.2-0.3,2.6-0.3,3.6-1.1c1.1-0.9,1.6-2.6,3-2.9c0.6-0.1,1.2-0.1,1.8,0.1
	c2.2,0.7,4.2,1.9,5.6,3.7c0.3,0.5,0.8,0.9,1.3,1.3c0.3,0.1,0.6,0.3,0.9,0.4c0.3,0.2,0.6,0.6,0.7,0.9c1,2,1.2,4.3,0.6,6.4
	c-0.3,1.3-1,2.4-1.3,3.7s-2.1,3.7-2.5,3.1s-0.9-1.2-1.1-1.9c-0.4-1.4,0-2.7-1.1-3.7c-0.7-0.6-1.9-1-2.3-0.2c-0.2,0.3-0.2,0.7-0.3,1
	c-0.3,0.6-1.2,0.7-1.8,0.4c-0.6-0.4-1-1-1.1-1.6c-0.9-2.9-2.4-4.8-5.5-3.5c-1.2,0.5-2.6,0.8-3.7,0C291.7,140.1,292,138,293,136.8z"
	/>
<path class="st9" d="M273,215.9h-14.8c-0.8,0-1.5-0.7-1.5-1.5v-60.3c0-0.8,0.7-1.5,1.5-1.5H273c0.8,0,1.5,0.7,1.5,1.5v60.3
	C274.6,215.2,273.9,215.9,273,215.9z"/>
<path class="st7" d="M269.8,184.3c1.8-1.1,4.1-0.6,5.2,1.1c0.1,0.2,0.2,0.4,0.3,0.6l13.4-0.7l-3.5,5.9L273,191
	c-2,0.7-4.1-0.4-4.8-2.4C267.6,187,268.3,185.2,269.8,184.3L269.8,184.3z"/>
<path class="st6" d="M296.2,193.6l-13.4-0.3l0.2-8.8l6.3-2l10.4-14.4c2.2-3,6.3-3.7,9.4-1.5c3,2.1,3.7,6.3,1.6,9.2
	c-0.1,0.1-0.1,0.2-0.2,0.3L296.2,193.6z"/>
<path class="st10" d="M354.7,281.7H211.9c-0.2,0-0.4-0.2-0.4-0.4c0-0.2,0.2-0.4,0.4-0.4c0,0,0,0,0,0h142.8c0.2,0,0.4,0.2,0.4,0.4
	C355.1,281.5,354.9,281.7,354.7,281.7C354.7,281.7,354.7,281.7,354.7,281.7z"/>
</svg>
