<?xml version="1.0" encoding="utf-8"?>
<!-- Generator: Adobe Illustrator 24.0.1, SVG Export Plug-In . SVG Version: 6.00 Build 0)  -->
<svg version="1.1" id="Layer_1" xmlns="http://www.w3.org/2000/svg" xmlns:xlink="http://www.w3.org/1999/xlink" x="0px" y="0px"
	 viewBox="0 0 1300 400" style="enable-background:new 0 0 1300 400;" xml:space="preserve">
<style type="text/css">
	.st0{fill:url(#SVGID_1_);stroke:#000000;stroke-width:1.6452;stroke-miterlimit:10;}
	.st1{fill:#F2F2F2;}
	.st2{fill:#3F3D56;}
	.st3{fill:#FFFFFF;}
	.st4{opacity:0.2;enable-background:new    ;}
	.st5{fill:#E5E5E5;}
	.st6{fill:#FFB6B6;}
	.st7{fill:#2F2E41;}
	.st8{fill:#63C7FF;}
	.st9{fill:#E6E6E6;}
	.st10{fill:#CACACA;}
</style>
<linearGradient id="SVGID_1_" gradientUnits="userSpaceOnUse" x1="9.094947e-13" y1="1760.9845" x2="1300" y2="1760.9845" gradientTransform="matrix(1 0 0 1 0 -1562)">
	<stop  offset="0" style="stop-color:#007194"/>
	<stop  offset="1" style="stop-color:#41C1C9"/>
</linearGradient>
<rect x="0" y="-1" class="st0" width="1300" height="400"/>
<path class="st1" d="M92.2,253.4l-7.7-6.5c0.9-5.2,3-10.1,6.2-14.3c0.3,9.4,9.8,15.6,13.1,24.4c2,5.5,1.5,11.7-1.6,16.8l-0.8,7.1
	c-8.5-4.4-14.6-12.3-16.7-21.6c-0.6-2.6-0.8-5.2-0.7-7.9C88,252.6,92.2,253.4,92.2,253.4z"/>
<path class="st1" d="M306.7,265.7l5.3-8.5c5.3,0.1,10.4,1.6,15,4.1c-9.2,1.6-14.1,11.9-22.3,16.4c-5.2,2.8-11.4,3.1-16.8,0.8
	l-7.1,0.2c3.2-9,10.1-16.1,19-19.5c2.5-0.9,5.1-1.5,7.7-1.8C306.8,261.5,306.7,265.7,306.7,265.7z"/>
<polygon class="st1" points="137.5,238.1 107.9,236.4 111.9,207.7 138,235.8 "/>
<polygon class="st1" points="133.7,267.4 103.6,265.4 107.6,239.3 133.9,265.4 "/>
<path class="st2" d="M302.3,146.3L302.3,146.3v-26.5c0-8.5-6.9-15.3-15.4-15.3l0,0h-56.2c-8.5,0-15.4,6.9-15.4,15.3c0,0,0,0,0,0
	v145.5c0,8.5,6.9,15.3,15.4,15.3l0,0h56.2c8.5,0,15.4-6.9,15.4-15.3V165.2l0,0c0.5,0,1-0.4,1-1c0,0,0,0,0,0v-16.9
	C303.3,146.7,302.8,146.3,302.3,146.3z"/>
<path class="st3" d="M299,119.9v145.3c0,6.3-5.1,11.4-11.3,11.5c0,0-0.1,0-0.1,0h-56.5c-6.3,0-11.5-5.1-11.5-11.5V119.9
	c0-6.3,5.1-11.5,11.5-11.5h6.9c-1.1,2.8,0.2,6,3,7.1c0.7,0.3,1.3,0.4,2.1,0.4h32.2c3,0,5.4-2.5,5.4-5.5c0-0.7-0.1-1.4-0.4-2h7.3
	C293.9,108.4,299,113.6,299,119.9z"/>
<path class="st2" d="M286.6,273.1c0,1.5,0,3-0.1,4.5c0,0-0.1,0-0.1,0h-56.5c-5.3,0-9.8-3.6-11.1-8.7c-0.1-0.4-0.2-0.9-0.2-1.3
	c-0.1-0.5-0.1-1-0.1-1.5v-64.7c4.3,0.2,8.7,0.8,12.9,1.8c0.4,0.1,0.8,0.2,1.2,0.3c0,0,0.1,0,0.1,0c0.4,0.1,0.8,0.2,1.2,0.3
	c8.7,2.4,16.9,6.4,24.2,11.9c0.4,0.3,0.8,0.6,1.2,1l0.1,0.1c0.7,0.5,1.4,1.1,2,1.7c0.1,0.1,0.3,0.3,0.4,0.4c0.4,0.3,0.7,0.6,1.1,0.9
	c7.7,6.9,13.8,15.4,17.9,25c0.1,0.3,0.3,0.6,0.4,0.9c0.1,0.1,0.1,0.3,0.2,0.4c0,0.1,0.1,0.2,0.1,0.3
	C284.8,254.8,286.6,263.9,286.6,273.1z"/>
<path class="st2" d="M215.7,161.1c-0.7,0-1.3-0.6-1.3-1.3v-8.9c0-0.7,0.6-1.3,1.3-1.3c0.7,0,1.3,0.6,1.3,1.3l0,0v8.9
	C217,160.6,216.4,161.1,215.7,161.1z"/>
<path class="st2" d="M215.4,143.9c-0.7,0-1.3-0.6-1.3-1.3v-8.9c0-0.7,0.6-1.3,1.3-1.3c0.7,0,1.3,0.6,1.3,1.3l0,0v8.9
	C216.7,143.3,216.1,143.9,215.4,143.9z"/>
<path class="st3" d="M250.2,109.9c0-0.7,0.6-1.3,1.3-1.3h8.9c0.7,0,1.3,0.6,1.3,1.3c0,0.7-0.6,1.3-1.3,1.3c0,0,0,0,0,0h-8.9
	C250.8,111.2,250.2,110.7,250.2,109.9z"/>
<path class="st2" d="M215.7,176.3c-0.7,0-1.3-0.6-1.3-1.3v-8.9c0-0.7,0.6-1.3,1.3-1.3c0.7,0,1.3,0.6,1.3,1.3v8.9
	C217,175.7,216.4,176.3,215.7,176.3z"/>
<circle class="st3" cx="265.3" cy="109.9" r="1.3"/>
<path class="st4" d="M260.5,266.6c0-11.4,9.2-20.7,20.7-20.7c0,0,0,0,0,0h0.1c-0.1-0.1-0.1-0.3-0.2-0.4c-0.1-0.3-0.3-0.6-0.4-0.9
	h-20.2v-25.9h1.2c-0.1-0.1-0.3-0.3-0.4-0.4c-0.7-0.6-1.3-1.1-2-1.7l-0.1-0.1v0.8h-25.4v-13.6c-0.4-0.1-0.8-0.2-1.2-0.3
	c0,0-0.1,0-0.1,0v14h-12.9v1.3h12.9v25.9h-12.9v1.3h12.9v20.7h-12.8c0.1,0.4,0.1,0.9,0.2,1.3h12.6v8.7h1.3v-8.7h25.4v8.7h1.3v-8.7
	h22.1v-1.3H260.5z M259.2,266.6h-25.4V246h25.4V266.6z M259.2,244.7h-25.4v-0.5c0-14,11.4-25.4,25.4-25.4V244.7z"/>
<polygon class="st5" points="146.6,171.9 132.5,280.3 132.5,281 131.9,281 132,280.3 146.1,171.9 "/>
<polygon class="st5" points="117.3,172.1 101.8,280.3 101.7,281 101.1,281 101.2,280.3 116.7,172 "/>
<polygon class="st2" points="168.5,280.9 167.9,280.9 167.8,280.3 137.7,168.7 138.3,168.5 168.4,280.3 "/>
<rect x="182.5" y="166.4" transform="matrix(0.9621 -0.2726 0.2726 0.9621 -54.256 58.3382)" class="st2" width="0.6" height="116.1"/>
<rect x="163.9" y="262.8" transform="matrix(0.9793 -0.2025 0.2025 0.9793 -49.5759 41.6122)" class="st2" width="29.3" height="0.6"/>
<rect x="159" y="245.4" transform="matrix(0.9793 -0.2025 0.2025 0.9793 -46.1519 40.243)" class="st2" width="29.3" height="0.6"/>
<rect x="154.2" y="227.8" transform="matrix(0.9818 -0.1899 0.1899 0.9818 -40.2395 36.1938)" class="st2" width="29.1" height="0.6"/>
<rect x="149.8" y="210.4" transform="matrix(0.981 -0.1938 0.1938 0.981 -37.7044 35.781)" class="st2" width="28.4" height="0.6"/>
<path class="st2" d="M116.8,172.1c-0.9-5.9,3.2-11.5,9.1-12.4c5.9-0.9,11.5,3.2,12.4,9.1l-0.6,0.1c-0.9-5.6-6.1-9.5-11.7-8.6
	s-9.5,6.1-8.6,11.7c0,0,0,0,0,0L116.8,172.1z"/>
<path class="st2" d="M145.9,172.2c-1-5.9,3-11.5,8.9-12.5s11.5,3,12.5,8.9c0,0,0,0,0,0l-0.6,0.1c-0.9-5.6-6.2-9.4-11.8-8.5
	c-5.6,0.9-9.4,6.2-8.5,11.8L145.9,172.2z"/>
<polygon class="st6" points="175.8,195.8 170.3,209.4 188.4,209.3 186.6,195.8 "/>
<polygon class="st6" points="180.3,258.1 183,258.5 185.8,248.3 181.8,247.7 "/>
<path class="st7" d="M179.8,256.7l4.3,0.4l-0.3,1.8l3.6,3.4c0.5,0.4,0.5,1.2,0.1,1.6c-0.3,0.3-0.6,0.4-1,0.4l-5.1-0.7l-0.6-1.9
	l-0.6,1.8l-1.9-0.3L179.8,256.7z"/>
<polygon class="st6" points="149.1,250.5 151.3,252.2 158.8,244.7 155.6,242.3 "/>
<path class="st7" d="M149.4,249.1l3.6,2.4l-1.1,1.5l1.5,4.7c0.2,0.6-0.1,1.3-0.8,1.4c-0.4,0.1-0.8,0-1.1-0.2l-4-3.1l0.4-2l-1.4,1.2
	l-1.5-1.2L149.4,249.1z"/>
<path class="st7" d="M171.3,206.2l-1.8,2.4l-4.8,20.7l-10.8,14.6l3.6,3.5l13.8-13.4l6.8-14.3l3.4,13.2l-0.9,17.7l5.8-0.3
	c1.6-20.5,4-41.6,1.1-47.6l0,0c-3.9,3.4-8.9,5-14,4.5L171.3,206.2z"/>
<path class="st8" d="M180.9,173.9l4.6,5c1,1.1,1.6,2.5,1.8,4l0,0c0.1,0.7,0.1,1.3,0,2l-1,7.2l1.7,11c0,0-2.5,1.5-7.3,4.6
	c-1.9,1.3-11,1.3-11,0.9c0.1-1.8,1.7-6.6,2-12.5c0.5-7.2-0.1-15.9,1.5-20C175.1,171.1,180.9,173.9,180.9,173.9z"/>
<path class="st6" d="M165.2,206c0.8-1.1,0.5-2.6-0.6-3.4c-0.1-0.1-0.2-0.2-0.4-0.2l0.2-5.5L161,196l-0.1,7.8
	c-0.5,1.3,0.2,2.7,1.4,3.1C163.4,207.3,164.5,206.9,165.2,206L165.2,206z"/>
<path class="st8" d="M160.7,183.8c0.2-0.5,0.6-0.9,1.1-1.1c1.8-0.7,9.4-7,9.7-6.9l2.4-1.2c0.1,0,2.5,0.1,3.7,1.4
	c0.5,0.6,0.7,1.3,0.6,2.1c-0.3,3.2-11.2,10.3-12.3,10.2l-1.2,9l0.5,3.4l-4.4,0.1l-1.4-5.1C159.2,195.4,158.9,188.4,160.7,183.8z"/>
<ellipse transform="matrix(0.1448 -0.9895 0.9895 0.1448 -27.0849 325.5)" class="st8" cx="174.8" cy="178.4" rx="4.5" ry="3.8"/>
<polygon class="st2" points="145.2,195 145.1,194.5 172,188.4 172,188.9 "/>
<path class="st9" d="M254.1,154h10.3c2.2,0,4,1.8,4,4v0c0,2.2-1.8,4-4,4h-10.3c-2.2,0-4-1.8-4-4v0C250.1,155.9,251.9,154,254.1,154z
	"/>
<path class="st9" d="M235,170.2h48.7c2.2,0,4,1.8,4,4l0,0c0,2.2-1.8,4-4,4H235c-2.2,0-4-1.8-4-4l0,0
	C230.9,172,232.7,170.2,235,170.2z"/>
<path class="st8" d="M214.1,182.3h48.7c2.2,0,4,1.8,4,4v0c0,2.2-1.8,4-4,4h-48.7c-2.2,0-4-1.8-4-4v0
	C210,184.1,211.9,182.3,214.1,182.3z"/>
<path class="st10" d="M326.9,280.5c0,0.2-0.2,0.3-0.3,0.3c0,0,0,0,0,0l-171.9,0.1l-0.6,0l-35.5,0H118l-30.2,0h-0.6l-9.4,0
	c-0.2,0-0.3-0.2-0.3-0.3c0-0.2,0.2-0.3,0.3-0.3l9.5,0h0.6l30.2,0h0.6l35.2,0h0.6l30,0h0.4l141.7-0.1
	C326.8,280.2,326.9,280.3,326.9,280.5C326.9,280.5,326.9,280.5,326.9,280.5z"/>
<path class="st6" d="M185.7,168.9c-2.1,2.8-6.1,3.4-8.9,1.3c-2.8-2.1-3.4-6.1-1.3-8.9c2.1-2.8,6.1-3.4,8.9-1.3
	c1.2,0.9,2,2.1,2.3,3.6c0,0.1,0,0.2,0,0.2C187.2,165.6,186.8,167.5,185.7,168.9z"/>
<path class="st7" d="M187.4,163.9c-0.2-0.8-0.1-0.4-0.3-1.2c0,0.4-0.1,0.8-0.2,1.1l-7.5-1.1l0.6-4.3c2.3-0.5,4.6-1,5.6,0.8
	c2.4,0.3,4.1,2.6,3.7,5L187.4,163.9z"/>
<path class="st7" d="M183,175.6c0-0.1,0-0.2,0-0.2c0-0.6-0.1-1.2-0.2-1.8c-0.1-0.6-0.3-1.3-0.4-1.9c0.1,1.1-0.1,2.3-0.7,3.3
	c-1.1-1.2-0.4-2.9-2-3.1c-4-0.6-7.2-4.8-6.6-8.8c0.6-4,2.7-6.7,6.7-6.1c4,0.6,6.9,2.9,6.4,6.8C181,164.2,183.9,175.3,183,175.6z"/>
<circle class="st7" cx="174.2" cy="157.9" r="2.6"/>
<path class="st7" d="M177.4,155.7c-0.5-1.1-1.5-1.8-2.7-2c1.4,0.6,2,2.2,1.4,3.6c-0.1,0.3-0.4,0.6-0.6,0.9l0.5-0.5
	c0.3,0.3,0.7,0.3,1.1,0.1c0.3-0.2,0.5-0.6,0.6-1C177.6,156.5,177.5,156.1,177.4,155.7z"/>
<path class="st6" d="M211.1,183.7c-1.2-0.6-2.6-0.1-3.2,1.1c-0.1,0.1-0.1,0.3-0.2,0.4l-5.5,0.6l-0.5,3.4l7.7-0.9
	c1.3,0.3,2.6-0.5,2.9-1.8C212.6,185.3,212.1,184.2,211.1,183.7L211.1,183.7z"/>
<path class="st8" d="M189.6,191.1c-0.5-0.1-1-0.5-1.3-1c-1-1.7-8.2-8.4-8.1-8.7l-1.5-2.2c0-0.1-0.3-2.5,0.9-3.8
	c0.5-0.6,1.2-0.9,2-0.9c3.2-0.1,11.2,10,11.3,11.1l9.6-0.3l3.3-0.9l0.7,4.4l-4.8,2C201.3,191.1,194.4,192.2,189.6,191.1z"/>
</svg>
