<?xml version="1.0" encoding="utf-8"?>
<!-- Generator: Adobe Illustrator 24.0.1, SVG Export Plug-In . SVG Version: 6.00 Build 0)  -->
<svg version="1.1" id="Layer_1" xmlns="http://www.w3.org/2000/svg" xmlns:xlink="http://www.w3.org/1999/xlink" x="0px" y="0px"
	 viewBox="0 0 1300 400" style="enable-background:new 0 0 1300 400;" xml:space="preserve">
<style type="text/css">
	.st0{fill:url(#SVGID_1_);stroke:#000000;stroke-width:1.6452;stroke-miterlimit:10;}
	.st1{fill:#3F3D56;}
	.st2{fill:#E6E8EC;}
	.st3{fill:#63C7FF;}
	.st4{opacity:0.3;fill:#FFFFFF;enable-background:new    ;}
	.st5{fill:#FFFFFF;}
	.st6{fill:#FFB8B8;}
	.st7{fill:#2F2E41;}
	.st8{fill:#F2F2F2;}
</style>
<linearGradient id="SVGID_1_" gradientUnits="userSpaceOnUse" x1="-9.094947e-13" y1="-970" x2="1300" y2="-970" gradientTransform="matrix(1 0 0 -1 0 -770)">
	<stop  offset="0" style="stop-color:#007194"/>
	<stop  offset="1" style="stop-color:#41C1C9"/>
</linearGradient>
<rect x="0" class="st0" width="1300" height="400"/>
<path class="st1" d="M281.6,281.3c-7.9-1.2-15.5-2.3-22.8-3.2l2.8-5.6c-1-0.3-5.2,2.9-5.2,2.9l3.6-16.3c-4.9,0.7-7.2,17.3-7.2,17.3
	l-5.5-5.5l2.7,6.3c-22.3-2.4-41.6-3.1-57.8-2.9l2.4-4.8c-1-0.3-5.2,2.9-5.2,2.9L193,256c-4.9,0.7-7.2,17.3-7.2,17.3l-5.5-5.5
	l2.9,6.6c-11.1,0.3-22.2,1.2-33.2,2.7c2.4-7.5,10.8-14.7,10.8-14.7c-6.4,2-9.8,5.3-11.5,8.3c-0.4-15.4,2-30.8,7-45.3
	c0,0-13,29.4-11.1,48.9l0.2,3.5c-11.3,1.8-17,3.5-17,3.5H281.6z"/>
<path class="st1" d="M311.4,240.9c-2.2,0-3.9-1.8-3.9-3.9s1.7-3.9,3.9-3.9s3.9,1.8,3.9,3.9C315.3,239.1,313.6,240.9,311.4,240.9z
	 M311.4,233.7c-1.8,0-3.3,1.5-3.3,3.3s1.5,3.3,3.3,3.3s3.3-1.5,3.3-3.3C314.7,235.2,313.2,233.7,311.4,233.7z"/>
<path class="st1" d="M342.6,280.8h-6.4v-6.4h6.4V280.8z M336.7,280.3h5.4v-5.4h-5.4V280.3z"/>
<path class="st1" d="M125.2,281.1l-4.4-4.7l4.7-4.4l4.4,4.7L125.2,281.1z M121.5,276.4l3.7,4l4-3.7l-3.7-4L121.5,276.4z"/>
<rect x="79.5" y="280.4" class="st1" width="279.1" height="0.7"/>
<path class="st1" d="M252.5,135.3v21.4c0,0.4-0.3,0.7-0.7,0.7h-0.5v111.6c0,6.4-5.2,11.6-11.6,11.6H170c-6.4,0-11.6-5.2-11.6-11.6
	c0,0,0,0,0,0V161.4h-0.4c-0.3,0-0.5-0.2-0.5-0.5v-12.2c0-0.3,0.2-0.5,0.5-0.5c0,0,0,0,0,0h0.4v-4.6H158c-0.3,0-0.6-0.2-0.5-0.6v-12
	c0-0.3,0.2-0.6,0.5-0.6h0.4v-6.3H158c-0.3,0-0.5-0.2-0.5-0.5c0,0,0,0,0,0v-6.6c0-0.3,0.2-0.5,0.5-0.5h0.4v-13.3
	c0-6.4,5.2-11.6,11.6-11.6h69.6c6.4,0,11.6,5.2,11.6,11.6v31.2h0.5C252.2,134.5,252.5,134.9,252.5,135.3z"/>
<path class="st2" d="M196.9,97.6h11.3c0.5,0,0.8,0.4,0.8,0.8v1c0,0.5-0.4,0.8-0.8,0.8h-11.3c-0.5,0-0.8-0.4-0.8-0.8v-1
	C196,98,196.4,97.6,196.9,97.6z"/>
<ellipse class="st2" cx="212.5" cy="99" rx="1.5" ry="1.5"/>
<path class="st3" d="M245.7,105.6V270c0,2.2-0.9,4.2-2.6,5.6c-1.3,1.1-3,1.8-4.8,1.8h-66.6c-1.2,0-2.4-0.3-3.4-0.8
	c-0.2-0.1-0.5-0.3-0.7-0.4c-2-1.4-3.2-3.7-3.3-6.1V105.6c0-4.1,3.3-7.4,7.4-7.4c0,0,0,0,0,0h10v1.3c0,3.4,2.7,6.1,6.1,6.1h33.9
	c3.4,0,6.1-2.7,6.1-6.1v-1.3h10.6C242.4,98.2,245.7,101.5,245.7,105.6C245.7,105.6,245.7,105.6,245.7,105.6z"/>
<path class="st4" d="M245.7,246.5V270c0,2.2-0.9,4.2-2.6,5.6c-1.3,1.1-3,1.8-4.8,1.8h-66.6c-1.2,0-2.4-0.3-3.4-0.8
	c-0.2-0.1-0.5-0.3-0.7-0.4c-2-1.4-3.2-3.7-3.3-6.1v-23.5C187.5,225.7,222.5,225.7,245.7,246.5z"/>
<path class="st4" d="M241.7,276.6c-1.1,0.6-2.2,0.8-3.4,0.8h-66.6c-1.2,0-2.4-0.3-3.4-0.8c8.4-20.3,31.7-29.9,52-21.5
	C230,259.1,237.7,266.8,241.7,276.6L241.7,276.6z"/>
<path class="st4" d="M227.2,277c-0.6,0.3-1.3,0.5-2.1,0.5h-40.3c-0.7,0-1.4-0.2-2.1-0.5c5.1-12.3,19.2-18.1,31.4-13
	C220.1,266.4,224.8,271.1,227.2,277z"/>
<path class="st5" d="M221.9,161.9c-6.7,0-14-1.3-19.7-5.6c-8-6-17.8-5.7-24.6-4.3c-4.5,0.9-8.9,2.4-13.1,4.4l-0.3-0.6
	c4.2-2,8.7-3.5,13.3-4.4c7-1.4,17-1.7,25.1,4.5c15.3,11.5,42.7,1.2,42.9,1.1l0.2,0.6c-5.1,1.8-10.4,3.1-15.8,3.9
	C227.3,161.7,224.6,161.9,221.9,161.9z"/>
<path class="st4" d="M164.3,156c0,0,22.4-5.5,38.1,2s43.3-0.1,43.3-0.1"/>
<path class="st4" d="M185.5,164.5c-2.7,0-5.4-0.3-8.1-0.8c-4.6-0.9-9.1-2.4-13.3-4.4l0.3-0.6c4.2,2,8.6,3.5,13.1,4.4
	c6.8,1.3,16.6,1.6,24.6-4.3c8.2-6.1,19.6-6.1,27.7-5c5.4,0.7,10.7,2,15.8,3.9l-0.2,0.6c-0.3-0.1-27.7-10.4-42.9,1.1
	C197.2,163.3,191.1,164.5,185.5,164.5z"/>
<path class="st4" d="M185.6,161.9c-11.3,0-21.3-4.1-21.4-4.1l0.2-0.6c0.2,0.1,22.5,9.1,37.8,0c15.6-9.2,43.2-1,43.5-0.9l-0.2,0.6
	c-0.3-0.1-27.7-8.2-43,0.8C197.3,160.8,191.3,161.9,185.6,161.9z"/>
<path class="st4" d="M164.3,157c0,0,22.4,7.5,38.1,0s43.3-0.7,43.3-0.7"/>
<path class="st6" d="M251.4,176.9v9.5c0,0,0.8,10.6,4.9,16c0,0,6.8,9.7,7.8,7.6l-1.2-6.9l-4-3.8l-2.1-11.8l-0.6-10.6L251.4,176.9z"
	/>
<polygon class="st6" points="293.4,262.9 293.4,269.9 287.7,272 287.7,263.8 "/>
<polygon class="st6" points="281.8,262.1 285.6,270.7 280.3,273 279.1,264.6 "/>
<path class="st7" d="M291.3,196.5c0,0,7.6,68.7,4.7,68.8c-2.8,0.2-8.3,3.8-8.3,1.3s-4.4-34.6-4.4-34.6l-4.2-16.5v22.8l4.4,25.9
	c0,0-4.2,5.5-7.2,2.3l-6.4-25.3c0,0-8.5-38.4-8.2-41.5C261.7,199.7,281.2,183,291.3,196.5z"/>
<path class="st7" d="M289.8,270.3c0,0,1.5-3.2,4.9-1.1l2.8,3.4c0,0,7.3,6.1,2.1,7.4c-5.4,1.3-8.6-0.1-8.6-0.1s-0.9-0.6-1.7-0.6
	s-2.5-1.3-2.5-1.7c0-0.4,0.6-7.1,0.6-7.1c0.4-0.2,1-0.1,1.3,0.2C289.4,271.2,289.8,270.3,289.8,270.3z"/>
<path class="st7" d="M278.6,269.2c0,0,3.6-2.9,5.3,0.4c0,0,1.1,0.4,1.2,0c0.1-0.4,1.1-0.6,1.1,1.5c0,2.1,1,7.3,0.1,7.5
	c-0.9,0.2-1.9,0.8-1.7,1.5c0.2,0.8-1,0.9-5.4,0.7c-4.4-0.2-4.6-1.9-4.6-1.9s0-2.5,1.1-3.8C276.9,273.7,278.6,269.2,278.6,269.2z"/>
<path class="st6" d="M271.6,144.6c0,0-0.9,7,5.1,9.5c6.1,2.5-13.5,10.6-15.4,5.9c-1.9-4.8,0.4-6.3,0.4-6.3s1.9-1.9,0.2-7
	L271.6,144.6z"/>
<ellipse class="st6" cx="265.5" cy="141.2" rx="8.3" ry="8.4"/>
<path class="st8" d="M275.2,156.4c0,0-5.7,3-11.2,0.8c-5.5-2.3-5.3,7.6-5.3,7.6l2.8,7.4l19.7-1.9l-1.3-11.4L275.2,156.4z"/>
<path class="st1" d="M272.3,149.9c2,0.4,3.8,1.8,4.7,3.7l9.1,2.9l2.3,3.2l-2.7,23.4c0,0,4.9,4.8,4.9,7.4s6.1,11.8,3,10.6
	c-3-1.1-8.5-5.1-8.5-5.1s-13.8,0.6-18.2,4.4c-4.4,3.8-6.1,2.7-6.1,2.7s-4.6-19.8-4.7-22.8c-0.2-3-5.5-21.3-5.5-21.3l9.5-5.3l2.4-2.7
	l6.7,10.7l6.1-7.4C275.3,154.1,272.3,151.7,272.3,149.9z"/>
<path class="st6" d="M291.3,174.3l1.1,6.1c0,0,5.1,19,4.4,25.5c0,0,0.6,14.5-2.7,12.7c-3.2-1.7-1.5-12.2-1.5-12.2l-4.6-18.8l-2.5-11
	L291.3,174.3z"/>
<path class="st1" d="M286.5,158.5l1.9,1.1c0,0,7.2,15,5.5,16.2c-1.7,1.1-9.1,3.6-9.1,3.6L286.5,158.5z"/>
<polygon class="st1" points="255.2,158.9 250.8,158.8 249.7,160.6 251.1,179 257.9,180.5 "/>
<path class="st7" d="M272.3,134.1l1.5-0.5c0,0-3.1-3.2-7.5-2.9l1.2-1.2c0,0-3-1.1-5.7,1.8c-1.4,1.5-3.1,3.3-4.1,5.3H256l0.7,1.3
	l-2.4,1.3l2.4-0.2c-0.2,1.2-0.2,2.4,0.2,3.5l0.5,1.5c0,0,2.2-4.4,2.2-4.9v1.4c0,0,1.5-1.2,1.5-2.1l0.8,1l0.4-1.5l5.1,1.5l-0.8-1.2
	l3.1,0.4l-1.2-1.5c0,0,3.6,1.8,3.7,3.3s1.1,3.5,1.1,3.5l1.1-1.3C274.5,142.4,276.2,136.2,272.3,134.1z"/>
<ellipse class="st6" cx="272.5" cy="141.3" rx="0.7" ry="1.7"/>
<path class="st1" d="M86,270.1c4,7.5,12.6,10.7,12.6,10.7s2-9-2-16.5c-4-7.5-12.6-10.7-12.6-10.7S81.9,262.6,86,270.1z"/>
<path class="st3" d="M88.7,267.6c7.3,4.4,10.1,13.1,10.1,13.1s-9,1.6-16.3-2.8c-7.3-4.4-10.1-13.1-10.1-13.1S81.4,263.2,88.7,267.6z
	"/>
<path class="st4" d="M164.3,156c0,0,22.4-11.7,38.1,0c15.6,11.7,43.3,1.1,43.3,1.1"/>
<ellipse class="st5" cx="205.1" cy="271.9" rx="3.6" ry="3.6"/>
</svg>
