<?xml version="1.0" encoding="utf-8"?>
<!-- Generator: Adobe Illustrator 24.0.1, SVG Export Plug-In . SVG Version: 6.00 Build 0)  -->
<svg version="1.1" id="Layer_1" xmlns="http://www.w3.org/2000/svg" xmlns:xlink="http://www.w3.org/1999/xlink" x="0px" y="0px"
	 viewBox="0 0 1300 400" style="enable-background:new 0 0 1300 400;" xml:space="preserve">
<style type="text/css">
	.st0{fill:url(#SVGID_1_);stroke:#000000;stroke-width:1.6452;stroke-miterlimit:10;}
	.st1{fill:#0D8CD8;}
	.st2{fill:#3F3D56;}
	.st3{opacity:0.2;enable-background:new    ;}
	.st4{fill:#D0CDE1;}
	.st5{fill:#2F2E41;}
	.st6{fill:#FFB9B9;}
</style>
<linearGradient id="SVGID_1_" gradientUnits="userSpaceOnUse" x1="-9.094947e-13" y1="-188.8409" x2="1300" y2="-188.8409" gradientTransform="matrix(1 0 0 -1 0 10)">
	<stop  offset="0" style="stop-color:#007194"/>
	<stop  offset="1" style="stop-color:#41C1C9"/>
</linearGradient>
<rect x="0" y="-1.2" class="st0" width="1300" height="400"/>
<path class="st1" d="M146.7,273.1c-0.3,0-0.7,0.1-1,0.4c-0.8-2.2-2-3.6-3.3-3.6c-1.4,0-2.5,1.4-3.3,3.6c-0.3-0.2-0.6-0.4-1-0.4
	c-1.6,0-2.8,2.8-2.8,6.2h14C149.5,275.9,148.2,273.1,146.7,273.1z"/>
<rect x="131.3" y="278.9" class="st2" width="71.2" height="0.7"/>
<path class="st1" d="M399.9,258.4c-0.3,0-0.7,0.1-1,0.4c-0.8-2.2-2-3.6-3.3-3.6s-2.5,1.4-3.3,3.6c-0.3-0.2-0.6-0.4-1-0.4
	c-1.6,0-2.8,2.8-2.8,6.2h14C402.7,261.2,401.5,258.4,399.9,258.4z"/>
<path class="st2" d="M369.7,143.7h-67.8v-1.5h-30.8v1.5H203c-2.5,0-4.6,2.2-4.6,4.9l0,0v99.9c0,2.7,2.1,4.9,4.6,4.9l0,0h166.8
	c2.5,0,4.6-2.2,4.6-4.9l0,0v-99.9C374.3,145.9,372.2,143.7,369.7,143.7L369.7,143.7z"/>
<rect x="204.5" y="152.4" class="st3" width="163.6" height="99.3"/>
<ellipse class="st1" cx="286.2" cy="147.9" rx="1.6" ry="1.8"/>
<rect x="167.3" y="263.9" class="st2" width="237.4" height="0.7"/>
<path class="st1" d="M308.7,189.5v-7.4c0-4.9-3.7-9-8.4-9l0,0h-6.8c0-1-2.9-1.8-6.8-1.9v-8.9c2.6-0.4,4.4-2.9,4.1-5.6
	c-0.3-2.8-2.7-4.8-5.2-4.4c-2.6,0.4-4.4,2.9-4.1,5.6c0.3,2.2,1.9,4.1,4.1,4.4v8.9c-3.7,0.1-6.8,0.9-6.8,1.9h-8c-4.6,0-8.4,4-8.4,9
	l0,0v7.4c-1,0-1.7,3.5-1.7,7.8c0,4.3,0.8,7.8,1.7,7.8v8.6c0,4.9,3.7,9,8.4,9l0,0h29.5c4.6,0,8.4-4,8.4-9l0,0v-8.6
	c1,0,1.7-3.5,1.7-7.8C310.4,193.1,309.7,189.5,308.7,189.5z"/>
<path class="st2" d="M272.5,176h26.1c4.1,0,7.5,3.5,7.5,8l0,0v28.1c0,4.4-3.3,8-7.5,8l0,0h-26.1c-4.1,0-7.5-3.5-7.5-8l0,0V184
	C265.1,179.6,268.4,176,272.5,176z"/>
<path class="st1" d="M276.2,196.9c-2.9,0-5.3-2.5-5.3-5.7c0-0.2,0.2-0.3,0.3-0.3s0.3,0.2,0.3,0.3c0,2.8,2.1,5,4.7,5
	c2.6,0,4.7-2.2,4.7-5l0,0c0-0.2,0.2-0.3,0.3-0.3c0.2,0,0.3,0.2,0.3,0.3C281.5,194.4,279.1,196.9,276.2,196.9z"/>
<path class="st1" d="M285.6,207.6c-2.3,0-4.1-2-4.1-4.4c0-0.2,0.2-0.3,0.3-0.3s0.3,0.2,0.3,0.3c0,2.1,1.6,3.8,3.6,3.8
	c1.9,0,3.6-1.7,3.6-3.8c0-0.2,0.1-0.3,0.3-0.3c0.2,0,0.3,0.1,0.3,0.3l0,0C289.7,205.7,287.8,207.6,285.6,207.6z"/>
<path class="st1" d="M294.9,196.9c-2.9,0-5.3-2.5-5.3-5.7c0-0.2,0.2-0.3,0.3-0.3s0.3,0.2,0.3,0.3c0,2.8,2.1,5,4.7,5
	c2.6,0,4.7-2.2,4.7-5l0,0c0-0.2,0.2-0.3,0.3-0.3c0.2,0,0.3,0.2,0.3,0.3C300.2,194.4,297.9,196.9,294.9,196.9z"/>
<ellipse class="st1" cx="276.2" cy="191.6" rx="2.6" ry="2.8"/>
<ellipse class="st1" cx="294.9" cy="191.6" rx="2.6" ry="2.8"/>
<ellipse class="st1" cx="285.6" cy="204.7" rx="2.3" ry="1.3"/>
<path class="st2" d="M378.9,249.9h-15.9v-1.3c0-0.1-0.1-0.3-0.3-0.3l0,0h-5.5c-0.1,0-0.3,0.1-0.3,0.3l0,0v1.2h-3.4v-1.2
	c0-0.1-0.1-0.3-0.3-0.3h-5.5c-0.1,0-0.3,0.1-0.3,0.3l0,0v1.2h-3.4v-1.2c0-0.1-0.1-0.3-0.3-0.3l0,0h-5.5c-0.1,0-0.3,0.1-0.3,0.3l0,0
	v1.2h-3.4v-1.2c0-0.1-0.1-0.3-0.3-0.3l0,0h-5.5c-0.1,0-0.3,0.1-0.3,0.3l0,0v1.2h-3.4v-1.2c0-0.1-0.1-0.3-0.3-0.3l0,0h-5.5
	c-0.1,0-0.3,0.1-0.3,0.3l0,0v1.2h-3.4v-1.2c0-0.1-0.1-0.3-0.3-0.3l0,0h-5.5c-0.1,0-0.3,0.1-0.3,0.3l0,0v1.2h-3.4v-1.2
	c0-0.1-0.1-0.3-0.3-0.3l0,0h-42.9c-0.1,0-0.3,0.1-0.3,0.3l0,0v1.2H260v-1.2c0-0.1-0.1-0.3-0.3-0.3l0,0h-5.5c-0.1,0-0.3,0.1-0.3,0.3
	v1.2h-3.4v-1.2c0-0.1-0.1-0.3-0.3-0.3l0,0H245c-0.1,0-0.3,0.1-0.3,0.3l0,0v1.2h-3.4v-1.2c0-0.1-0.1-0.3-0.3-0.3l0,0h-5.5
	c-0.1,0-0.3,0.1-0.3,0.3l0,0v1.2H232v-1.2c0-0.1-0.1-0.3-0.3-0.3l0,0h-5.5c-0.1,0-0.3,0.1-0.3,0.3l0,0v1.2h-3.4v-1.2
	c0-0.1-0.1-0.3-0.3-0.3l0,0h-5.5c-0.1,0-0.3,0.1-0.3,0.3l0,0v1.2h-3.4v-1.2c0-0.1-0.1-0.3-0.3-0.3l0,0h-5.5c-0.1,0-0.3,0.1-0.3,0.3
	l0,0v1.2h-10.5c-3,0-5.5,2.6-5.5,5.9l0,0v2.7c0,3.3,2.4,5.9,5.5,5.9h182c3,0,5.5-2.6,5.5-5.9v-2.7
	C384.3,252.6,381.9,249.9,378.9,249.9L378.9,249.9z"/>
<rect x="229.5" y="222.4" class="st1" width="109.2" height="0.7"/>
<path class="st4" d="M237.3,222.2h-26.9c0.9-10.9,0.9-21.8,0-32.7h26.9C235.9,200.6,235.8,211.5,237.3,222.2z"/>
<rect x="214.3" y="196" class="st2" width="19.4" height="1.4"/>
<rect x="214.3" y="200.5" class="st2" width="19.4" height="1.4"/>
<rect x="214.3" y="205" class="st2" width="19.4" height="1.4"/>
<rect x="214.3" y="209.6" class="st2" width="19.4" height="1.4"/>
<rect x="214.3" y="214.1" class="st2" width="19.4" height="1.4"/>
<path class="st5" d="M165.9,112.8c0,0-4.2-1.6-6.9,4.8c-2.7,6.5-6.9,13.6-6.9,13.6l2.4,0.7c0,0,0.6-4.6,2.1-5.2l-0.6,5.9
	c0,0,18.1,6.8,26.2-0.7l-0.3-2.2c0,0,1.2,0.3,1.2,2.2l0.9-0.9c0,0-0.9-2-3.6-4.6c-1.8-1.7-2.4-4.9-2.6-7c-0.2-1.7-0.8-3.3-1.8-4.6
	C174.2,112.6,170.9,110.2,165.9,112.8z"/>
<polygon class="st6" points="153.7,256 155,264 160.2,263 161.2,256 "/>
<path class="st5" d="M161.2,260.5l-7.1,0.7l0.3,6.2l-0.3,8c0,0-4.2,9,1.9,8.4c6.2-0.7,5.5-4.2,5.5-4.2l1.6-2.1l-1-5.2L161.2,260.5z"
	/>
<polygon class="st6" points="182.8,256 181.5,264 176.3,263 175.4,256 "/>
<path class="st5" d="M175.4,260.5l7.1,0.7l-0.3,6.2l0.3,8c0,0,4.2,9-1.9,8.4c-6.2-0.7-5.5-4.2-5.5-4.2l-1.6-2.1l1-5.2L175.4,260.5z"
	/>
<ellipse class="st6" cx="167.9" cy="126.3" rx="7.5" ry="8"/>
<path class="st6" d="M163.1,130.5l1,12.6l9.1-0.4c0,0-2.6-8-1-11.2L163.1,130.5z"/>
<path class="st5" d="M168.3,140.6l3.7-2.5l4.1,2.1l6.5,3.2l-2.3,29.6c0,0,5.2,18.5,4.2,27.5c-1,9,10.7,54.3,1.3,56.5
	c-9.4,2.1-16.2,4.2-16.5,0.7c-0.3-3.5-1-56.8-1-56.8s-1,56.5-4.9,57.1c-3.9,0.7-20.7,3.4-19.4-0.7c1.3-4.1,10-77.4,14.2-81.6
	l0.6-3.4l-5.5-28.2l10.3-5.5L168.3,140.6z"/>
<path class="st6" d="M148.9,183.9l-0.3,14.3c0,0-3.1,14.1,2.2,14c5.3-0.1,1.4-14,1.4-14l2.3-14L148.9,183.9z"/>
<path class="st6" d="M197.8,168.8l9.1,10.4c0,0,11.1,8.3,7.1,12c-4,3.7-9.7-9.4-9.7-9.4l-10.3-8.8L197.8,168.8z"/>
<polygon class="st4" points="158.4,175 180.6,174.3 180.3,172.6 180.3,172.6 158.8,172.2 "/>
<ellipse class="st5" cx="162.9" cy="173.6" rx="1.9" ry="2.1"/>
<path class="st5" d="M156,144.5l-2.1-0.6c0,0-2.8,1.2-3.4,5s-9.1,33.8-4.9,35.5s10.4,2.4,10.4,1.8c0-0.7,2.6-26.8,2.6-26.8
	L156,144.5z"/>
<path class="st5" d="M175.8,145.8l6.8-2.3c0,0,3.2,0,3.2,3.8c0,1.6,6.2,14.5,6.2,14.5s14.9,11.5,12.6,11.8c-3.9,0.7-6.2,8-6.2,8
	l-14.6-14L175.8,145.8z"/>
<path class="st5" d="M158.8,127c0,0,2.4-3.5,4.5-4.2s2.4-3.9,2.4-3.9s5.5,6.5,8.7,6.8c3.3,0.3,0.3-7.8,0.3-7.8l-6.1-1.6l-5.7,0.7
	l-4.5,3.3L158.8,127z"/>
<ellipse class="st6" cx="160.7" cy="125.1" rx="1" ry="1.6"/>
</svg>
