<?xml version="1.0" encoding="utf-8"?>
<!-- Generator: Adobe Illustrator 24.0.1, SVG Export Plug-In . SVG Version: 6.00 Build 0)  -->
<svg version="1.1" id="Layer_1" xmlns="http://www.w3.org/2000/svg" xmlns:xlink="http://www.w3.org/1999/xlink" x="0px" y="0px"
	 viewBox="0 0 1300 400" style="enable-background:new 0 0 1300 400;" xml:space="preserve">
<style type="text/css">
	.st0{fill:url(#SVGID_1_);stroke:#000000;stroke-width:1.6452;stroke-miterlimit:10;}
	.st1{fill:#F2F2F2;}
	.st2{fill:#3F3D56;}
	.st3{fill:none;stroke:#3F3D56;stroke-width:4;stroke-miterlimit:10;}
	.st4{fill:#57B793;}
	.st5{opacity:0.1;enable-background:new    ;}
	.st6{fill:#656380;}
	.st7{opacity:0.2;enable-background:new    ;}
	.st8{fill:#63C7FF;}
	.st9{opacity:5.000000e-02;enable-background:new    ;}
	.st10{fill:#FFC0C6;}
	.st11{fill:#605D82;}
	.st12{fill:#535070;}
</style>
<linearGradient id="SVGID_1_" gradientUnits="userSpaceOnUse" x1="0" y1="979.7501" x2="1300" y2="979.7501" gradientTransform="matrix(1 0 0 1 0 -782)">
	<stop  offset="0" style="stop-color:#007194"/>
	<stop  offset="1" style="stop-color:#41C1C9"/>
</linearGradient>
<rect y="-2.2" class="st0" width="1300" height="400"/>
<path class="st1" d="M302,193.6l2.3-1.3c0.2-0.1,0.4-0.3,0.6-0.4c-10-1.6-17.5-9.6-18-19.2c-0.2-3.2,0.5-6.4,1.9-9.3
	c2.6-5.5,7.7-9.7,13.9-11.3l-0.1,8.4l4.9-9.2c0,0,0,0,0.1,0c12-0.5,22.1,8.2,22.7,19.5c0,0,0,0,0,0c0,0.4,0,0.8,0,1.1
	c1.7-1.8,3.3-3.8,4.3-6c2.1-4.4,2.1-9.3,2-15.4c-0.3-11.9-0.9-24-1.6-36c-10.6-1.1-18.8-9.3-19.3-19.4c0-0.6,0-1.2,0-1.9
	c0-0.2,0-0.3,0-0.5c0-0.6,0.1-1.2,0.2-1.8c0-0.1,0-0.2,0.1-0.3c0.1-0.5,0.2-1,0.3-1.5c0-0.2,0.1-0.4,0.1-0.5c0.2-0.5,0.3-1,0.5-1.5
	c0.1-0.2,0.1-0.3,0.2-0.5c0.2-0.4,0.3-0.7,0.5-1.1c0.1-0.2,0.2-0.4,0.3-0.6c0,0,0-0.1,0.1-0.1l0,0c4.7-8.8,15.4-13.2,25.5-10.4
	l-0.1,11l4.9-9.1c8.2,4.4,12.4,13.4,10.3,22.1h0c0,0.1-0.1,0.3-0.1,0.4c-0.1,0.3-0.1,0.5-0.2,0.8c-0.1,0.3-0.2,0.7-0.3,1
	c-0.1,0.2-0.2,0.5-0.3,0.8c-0.1,0.4-0.3,0.7-0.5,1.1c-0.1,0.2-0.2,0.4-0.3,0.6c-0.3,0.5-0.6,1-0.9,1.5c-0.1,0.2-0.2,0.3-0.4,0.5
	c-0.2,0.3-0.5,0.7-0.7,1c-0.2,0.2-0.3,0.4-0.5,0.6c-0.2,0.3-0.5,0.6-0.7,0.8c-0.2,0.2-0.4,0.4-0.6,0.6c-0.3,0.3-0.5,0.5-0.8,0.8
	c-0.2,0.2-0.4,0.3-0.6,0.5c-0.3,0.3-0.7,0.5-1,0.8c-0.2,0.1-0.3,0.3-0.5,0.4c-0.5,0.4-1,0.7-1.6,1c-0.1,0.1-0.2,0.1-0.3,0.2
	c-0.5,0.3-0.9,0.5-1.4,0.7c-0.2,0.1-0.4,0.2-0.6,0.3c-0.4,0.2-0.8,0.3-1.2,0.5c-0.2,0.1-0.5,0.2-0.7,0.2c-0.4,0.1-0.8,0.2-1.2,0.4
	c-0.2,0.1-0.5,0.1-0.7,0.2c-0.4,0.1-0.9,0.2-1.4,0.3c0,0-0.1,0-0.1,0c0.3,5.1,0.6,10.1,0.8,15.2c5.2-10.2,18.2-14.4,29-9.4
	c0.4,0.2,0.8,0.4,1.1,0.6l-3.8,9.9l7.9-7.1c4.2,3.7,6.7,8.7,7,14.1c0.1,1.9-0.1,3.8-0.6,5.6c-2.7,11-14.4,17.8-26.1,15.3
	c-5.8-1.3-10.8-4.8-13.8-9.7c0,0.5,0,1,0.1,1.5c0.1,5.3,0.3,11.9-2.5,17.8c-1.9,4-5,7.3-8,10.2c-2,1.9-4,3.7-6.1,5.5
	c-2.1,2.6-4.7,4.7-7.8,6.1c-3.4,2.5-7,4.8-10.7,7l-2.2,1.4c-2.1,1.2-4.2,2.4-6.3,3.7c0.4,0,0.7-0.1,1.1-0.1
	c9.4-0.4,18.1,5,21.4,13.3l-13.6,10.4l14.9-3.3c0,11.3-9.7,20.5-21.7,20.5c-3.2,0-6.4-0.7-9.4-2c0.3,0.4,0.7,0.8,1,1.2
	c0.7,0.8,1.3,1.6,2,2.3c8.8,10.5,11.3,20.6,6.9,28.2l-5.3-2.7c4.3-7.4-2.1-16.9-6.3-21.9c-0.6-0.8-1.3-1.5-1.9-2.3
	c-5.6-6.6-12-14.1-11.9-23.3C276.3,208.6,290.5,200.3,302,193.6z"/>
<ellipse class="st2" cx="232.7" cy="269.7" rx="138.5" ry="6"/>
<path class="st3" d="M344.6,267.4c0.9-1.6-0.1-3.5-1.3-4.9s-2.6-2.9-2.6-4.7c0-2.6,2.9-4.1,5.3-5.5c1.7-1,3.3-2.2,4.7-3.6
	c0.6-0.5,1.1-1.1,1.5-1.8c0.5-1,0.5-2.2,0.4-3.3c-0.1-3.7-0.3-7.4-0.6-11"/>
<path class="st4" d="M356.4,232.4c-0.1-1.4-0.9-2.6-2.1-3.3l-1,1.8l0-2.2c-2.3-0.6-4.6,0.6-5.3,2.7c-0.1,0.4-0.2,0.9-0.2,1.4
	c0.1,2.2,2.1,3.9,4.5,3.8C354.7,236.5,356.5,234.7,356.4,232.4L356.4,232.4L356.4,232.4z"/>
<path class="st4" d="M348.8,259.7c-1.1,2-3.6,2.7-5.7,1.7c-2.1-1-2.9-3.4-1.8-5.4c1.1-2,3.6-2.7,5.7-1.7c0.9,0.5,1.7,1.2,2,2.2
	l-2.7,2l2.9-0.6C349.3,258.5,349.1,259.1,348.8,259.7z"/>
<path class="st4" d="M346.7,251.9c-2.3,0.1-4.3-1.6-4.5-3.8c0,0,0,0,0,0c0-0.6,0.1-1.3,0.4-1.8c0.5-1.1,1.5-1.9,2.7-2.2l0,1.7l1-1.8
	l0,0c2.4-0.1,4.4,1.6,4.5,3.8S349.1,251.8,346.7,251.9L346.7,251.9z"/>
<path class="st4" d="M357.1,245.3c-2.4,0.1-4.3-1.6-4.5-3.8c-0.1-2.2,1.7-4.1,4.1-4.2c0.8,0,1.6,0.1,2.3,0.5l-0.8,2l1.6-1.4
	c0.8,0.7,1.3,1.7,1.4,2.8c0,0.4,0,0.7-0.1,1.1C360.6,244,359,245.3,357.1,245.3z"/>
<path class="st5" d="M355.8,233.5c-1,0.1-1.9,0.4-2.9,0.5c-1,0.1-2.1-0.2-2.7-0.9c-0.3-0.4-0.5-0.9-0.8-1.3c-0.3-0.4-0.6-0.7-1.1-1
	c-1,2-0.1,4.4,2,5.4c2.1,1,4.7,0.1,5.7-1.9c0.1-0.3,0.2-0.5,0.3-0.8C356.2,233.5,356,233.5,355.8,233.5z"/>
<path class="st5" d="M357.1,245.3c-2.3,0.1-4.3-1.6-4.5-3.8c0-0.7,0.1-1.3,0.4-1.9c0.3,0.2,0.6,0.5,0.9,0.8c0.3,0.4,0.5,0.9,0.8,1.3
	c0.7,0.7,1.8,1,2.8,0.9c1,0,2-0.3,3-0.4c0.1,0,0.3,0,0.4,0C360.6,244,359,245.3,357.1,245.3z"/>
<path class="st5" d="M346.7,251.9c-2.3,0.1-4.3-1.6-4.5-3.8c0,0,0,0,0,0c0-0.6,0.1-1.3,0.4-1.8c0.4,0.2,0.7,0.5,0.9,0.8
	c0.3,0.4,0.5,1,0.9,1.4c0.7,0.8,1.9,1,3,1c1.1,0,2.1-0.3,3.1-0.3C350.1,250.7,348.5,251.8,346.7,251.9z"/>
<path class="st5" d="M348.8,259.7c-1,2-3.5,2.9-5.6,2s-3.1-3.3-2.1-5.3c0.4,0.2,0.7,0.5,0.9,0.8c0.4,0.5,0.7,1,1.1,1.4
	c0.9,0.8,2.3,1.1,3.5,1.2C347.4,259.8,348.1,259.8,348.8,259.7z"/>
<path class="st6" d="M338.2,265.6c0,0,3.4-0.1,4.4-0.8s5.2-1.5,5.4-0.4c0.3,1.1,5.1,5.5,1.3,5.5c-3.8,0-8.8-0.6-9.8-1.1
	S338.2,265.6,338.2,265.6z"/>
<path class="st7" d="M349.3,269.5c-3.8,0-8.8-0.6-9.8-1.1c-0.8-0.4-1.1-2-1.2-2.8h-0.1c0,0,0.2,2.6,1.2,3.2c1,0.6,6,1.2,9.8,1.1
	c1.1,0,1.5-0.4,1.5-0.9C350.5,269.3,350.1,269.5,349.3,269.5z"/>
<path class="st3" d="M153.3,258.6c-2.2-3.9,0.3-8.6,3.2-12c2.9-3.4,6.4-7,6.3-11.4c-0.1-6.3-7.2-10-12.8-13.4
	c-4.2-2.5-8.1-5.4-11.5-8.8c-1.4-1.3-2.7-2.8-3.5-4.5c-1.2-2.5-1.1-5.3-1.1-8c0.2-9,0.7-18,1.4-26.9"/>
<path class="st4" d="M124.5,173.2c0.2-3.3,2.1-6.4,5.2-8l2.3,4.3l-0.1-5.3c5.5-1.5,11.3,1.4,12.9,6.6c1.6,5.2-1.5,10.7-7,12.2
	c-5.5,1.5-11.3-1.4-12.9-6.6C124.6,175.4,124.4,174.3,124.5,173.2L124.5,173.2z"/>
<path class="st4" d="M143,239.7c2.6,4.8,8.9,6.7,14,4.3c3.3-1.6,5.5-4.8,5.6-8.3c0.1-1.4-0.2-2.7-0.7-4c-2.1-5.1-8.1-7.6-13.5-5.6
	c-2.8,1-5,3.1-6,5.7l6.5,5l-7.1-1.6C141.9,236.8,142.3,238.3,143,239.7z"/>
<path class="st4" d="M148.2,220.6c5.7,0.2,10.6-3.9,10.9-9.4c0.2-4.6-2.9-8.7-7.6-9.9l0.1,4l-2.3-4.4h0c-5.7-0.3-10.6,3.9-10.9,9.4
	C138,215.8,142.4,220.4,148.2,220.6L148.2,220.6L148.2,220.6z"/>
<path class="st4" d="M122.9,204.7c5.7,0.3,10.6-3.9,10.9-9.3c0.3-5.4-4.1-10-9.9-10.3c-2-0.1-3.9,0.3-5.6,1.3l1.8,4.8l-3.8-3.4
	c-2,1.7-3.2,4.2-3.4,6.8c0,0.9,0,1.8,0.3,2.7C114.3,201.5,118.3,204.5,122.9,204.7z"/>
<path class="st5" d="M125.9,175.8c2.4,0.2,4.7,1,7.1,1.1c2.4,0.1,5.1-0.4,6.6-2.2c0.8-1,1.2-2.2,1.9-3.2c0.7-1,1.6-1.8,2.6-2.3
	c2.6,4.8,0.5,10.8-4.6,13.2c-5.1,2.4-11.4,0.5-14-4.4c-0.4-0.7-0.7-1.5-0.9-2.3C125.1,175.8,125.5,175.8,125.9,175.8z"/>
<path class="st5" d="M122.9,204.7c5.7,0.2,10.6-3.9,10.9-9.4c0.1-1.6-0.3-3.2-1-4.6c-0.8,0.5-1.5,1.2-2.1,2
	c-0.7,1.1-1.2,2.3-2.1,3.2c-1.6,1.8-4.4,2.4-6.9,2.3c-2.5-0.1-4.9-0.8-7.4-1c-0.3,0-0.7-0.1-1-0.1
	C114.3,201.5,118.3,204.5,122.9,204.7z"/>
<path class="st5" d="M148.2,220.6c5.7,0.3,10.6-3.9,10.9-9.3c0.1-1.5-0.2-3.1-0.9-4.5c-0.9,0.5-1.6,1.2-2.2,2
	c-0.8,1.1-1.3,2.3-2.3,3.3c-1.8,1.8-4.7,2.5-7.4,2.4c-2.6-0.1-5.1-0.6-7.6-0.8C140,217.7,143.8,220.4,148.2,220.6z"/>
<path class="st5" d="M143,239.7c2.6,4.8,8.9,6.7,14,4.3c3.3-1.6,5.5-4.8,5.6-8.3c0.1-1.4-0.2-2.7-0.7-4c-0.9,0.5-1.6,1.2-2.3,1.9
	c-1,1.1-1.6,2.4-2.8,3.5c-2.1,2-5.6,2.8-8.6,2.9C146.5,240,144.8,239.9,143,239.7z"/>
<polygon class="st8" points="225.3,264.3 185.2,272.1 184.3,272 149,268.6 149,226.4 192.2,219.6 223.5,223 223.5,223.2 
	223.5,223.3 "/>
<polygon class="st5" points="225.3,264.3 185.2,272.1 184.3,272 184.3,228.7 223.5,223.2 "/>
<polygon class="st9" points="223.5,223.3 223.5,223.3 184.3,228.7 149,226.4 192.2,219.6 223.5,223 223.5,223.2 "/>
<polygon class="st2" points="269.4,266.1 229.3,273.8 228.4,273.7 193.1,270.4 193.1,228.2 236.3,221.3 267.6,224.7 267.6,224.9 
	267.6,225 "/>
<polygon class="st5" points="269.4,266.1 229.3,273.8 228.4,273.7 228.4,230.5 267.6,224.9 "/>
<polygon class="st9" points="267.6,225 267.6,225 228.4,230.5 193.1,228.2 236.3,221.3 267.6,224.7 267.6,224.9 "/>
<polygon class="st2" points="241.7,224.7 201.6,232.5 200.7,232.4 165.4,229 165.4,186.8 208.6,179.9 239.9,183.4 239.9,183.6 
	239.9,183.7 "/>
<polygon class="st5" points="241.7,224.7 201.6,232.5 200.7,232.4 200.7,189.1 239.9,183.6 "/>
<polygon class="st9" points="239.9,183.7 239.9,183.7 200.7,189.1 165.4,186.8 208.6,179.9 239.9,183.4 239.9,183.6 "/>
<polygon class="st2" points="264.5,226.5 243.6,230.5 243.1,230.5 224.7,228.7 224.7,206.7 247.2,203.1 263.6,204.9 263.6,205 
	263.6,205.1 "/>
<polygon class="st5" points="264.5,226.5 243.6,230.5 243.1,230.5 243.1,207.9 263.6,205 "/>
<polygon class="st9" points="263.6,205.1 263.6,205.1 243.1,207.9 224.7,206.7 247.2,203.1 263.6,204.9 263.6,205 "/>
<polygon class="st2" points="208.3,183.7 187.4,187.8 186.9,187.7 168.5,186 168.5,163.9 191,160.4 207.3,162.2 207.4,162.2 
	207.4,162.3 "/>
<polygon class="st5" points="208.3,183.7 187.4,187.8 186.9,187.7 186.9,165.1 207.4,162.2 "/>
<polygon class="st9" points="207.4,162.3 207.3,162.3 186.9,165.1 168.5,163.9 191,160.4 207.3,162.2 207.4,162.2 "/>
<polygon class="st8" points="245.1,182.9 224.1,186.9 223.7,186.9 205.3,185.1 205.3,163.1 227.8,159.5 244.1,161.3 244.1,161.4 
	244.1,161.4 "/>
<polygon class="st5" points="245.1,182.9 224.1,186.9 223.7,186.9 223.7,164.3 244.1,161.4 "/>
<polygon class="st9" points="244.1,161.4 244.1,161.4 223.7,164.3 205.3,163.1 227.8,159.5 244.1,161.3 244.1,161.4 "/>
<polygon class="st2" points="256,160.8 235.1,164.8 234.6,164.8 216.2,163 216.2,141 238.7,137.4 255.1,139.2 255.1,139.3 
	255.1,139.3 "/>
<polygon class="st5" points="256,160.8 235.1,164.8 234.6,164.8 234.6,142.2 255.1,139.3 "/>
<polygon class="st9" points="255.1,139.3 255.1,139.3 234.6,142.2 216.2,141 238.7,137.4 255.1,139.2 255.1,139.3 "/>
<path class="st10" d="M270.3,115.7c-0.2,1.9-1.7,3.4-2.3,5.2c-0.8,2.7,0.6,5.6,2.6,7.7c3.2,3.4,7.8,5.4,12.7,5.7
	c0.7,0.1,1.4,0,2.1-0.2c0.6-0.2,1.1-0.6,1.6-1c1.5-1.4,2.3-3.4,2.6-5.4s0.2-4,0.1-6c0-0.4-0.1-0.8-0.2-1.2c-0.2-0.4-0.5-0.7-0.8-1
	c-1.1-0.9-2.3-1.8-3.5-2.4c-0.5-0.3-1.1-0.6-1.5-1.1c-0.2-0.4-0.4-0.8-0.5-1.3l-0.4-1.9c-0.1-0.5-0.3-1.1-0.6-1.5
	c-0.7-0.9-2-1-3.2-1l-4.3-0.2c-1.3,0-3.1-0.4-4.4-0.2c-1.2,0.2-0.8,1.3-0.6,2.2C270.1,113.4,270.3,114.6,270.3,115.7z"/>
<path class="st5" d="M270.3,115.7c-0.2,1.9-1.7,3.4-2.3,5.2c-0.8,2.7,0.6,5.6,2.6,7.7c3.2,3.4,7.8,5.4,12.7,5.7
	c0.7,0.1,1.4,0,2.1-0.2c0.6-0.2,1.1-0.6,1.6-1c1.5-1.4,2.3-3.4,2.6-5.4s0.2-4,0.1-6c0-0.4-0.1-0.8-0.2-1.2c-0.2-0.4-0.5-0.7-0.8-1
	c-1.1-0.9-2.3-1.8-3.5-2.4c-0.5-0.3-1.1-0.6-1.5-1.1c-0.2-0.4-0.4-0.8-0.5-1.3l-0.4-1.9c-0.1-0.5-0.3-1.1-0.6-1.5
	c-0.7-0.9-2-1-3.2-1l-4.3-0.2c-1.3,0-3.1-0.4-4.4-0.2c-1.2,0.2-0.8,1.3-0.6,2.2C270.1,113.4,270.3,114.6,270.3,115.7z"/>
<path class="st11" d="M297.3,199.8l-1.8,18.7c-0.5,4.9-1,9.8-1.9,14.7c-0.3,1.7-0.7,3.3-1.1,5c-1.2,4.6-3,9-3.6,13.7
	c0,0.1,0,0.3,0,0.4c-0.1,1-0.2,2.1-0.6,3c-0.3,0.7-0.7,1.4-1,2.1c-0.6,1.4-0.7,3-0.8,4.5c-2.2-1.2-4.6-1.9-7.1-2.3
	c-1.2-0.2-2.5-0.3-3.3-1.1c-0.9-0.9-0.8-2.4-0.7-3.6c0.5-3.9,1-7.8,1.4-11.7c0.2-1.7,0.5-3.3,0.9-5c0.2-0.5,0.4-1.1,0.6-1.6
	c0.3-0.7,0.6-1.5,0.8-2.2c0.3-1.2,0.5-2.4,0.6-3.7c0.5-3.9,1.1-7.8,1.6-11.8l0-0.2c0.8-5.9,1.4-11.9,1.2-17.9c0-0.9-0.1-1.8-0.1-2.7
	c-0.1-1.3-0.2-2,0.9-2.8c1.2-0.9,2.9-1.5,4.3-2.1c0.8-0.3,9.2-3.2,9.4-2.5c0.4,1.3,0.6,2.7,0.6,4.1
	C297.6,196.4,297.5,198.1,297.3,199.8z"/>
<path class="st5" d="M293.6,233.1c-0.3,1.7-0.7,3.3-1.1,5c-1.2,4.6-3,9-3.6,13.7c0,0.1,0,0.3,0,0.4c-3.8-5.1-7-10.6-10.6-15.7
	c0.3-0.7,0.6-1.5,0.8-2.2c0.3-1.2,0.5-2.5,0.6-3.7c0.5-3.9,1.1-7.8,1.6-11.8l0-0.2c0.2,0.8,0.5,1.6,0.9,2.4
	c2.5,4.7,8.4,7.1,11.2,11.7C293.5,232.8,293.6,233,293.6,233.1z"/>
<path class="st11" d="M263,191.4c0.1,3.8,0.8,7.6,1.4,11.3l1.3,7.7c0.7,4.2,1.5,8.6,3.6,12.4c1.6,2.8,3.9,5.3,6,7.8
	c5.1,6.3,8.9,13.4,13.8,19.8c1.4,1.9,3.4,3.9,5.8,3.5c1.6-0.3,2.7-1.5,4-2.4c1.5-1.1,3.2-1.9,4.4-3.4c1.1-1.4,1.4-3.8-0.2-4.8
	c-0.5-0.3-1.2-0.5-1.8-0.7c-2.4-0.9-4-3.1-5-5.3c-1-2.3-1.6-4.7-2.9-6.8c-2.9-4.5-8.8-6.9-11.2-11.7c-1.4-2.7-1.5-5.7-1.6-8.7
	l-0.3-7.6c0-0.8-0.1-1.7,0.3-2.4c0.9-2,3.8-2.2,6.1-2.5c2.6-0.3,5.2-1,7.5-2.2c1.3-0.7,2.6-1.5,3.3-2.8c0.7-1.1,0.7-2.5,0.8-3.8
	l0.8-13.7c0.1-1.2,0.1-2.4-0.3-3.5c-1.1-2.8-4.8-3.7-7.9-3.5c-5.8,0.2-11.2,2.6-16.7,4.2c-1.4,0.4-2.7,0.8-4.1,1
	c-1.2,0.2-2.7,0.1-3.9,0.5c-2.1,0.7-2,5-2.3,6.8C263.2,184.3,262.9,187.8,263,191.4z"/>
<path class="st12" d="M294.1,254.6c0.5,0.5,0.7,1.2,0.8,1.9c0.7,3.8,1.1,7.6,1.2,11.4c0,0.4,0,0.7,0.2,1c0.1,0.2,0.3,0.3,0.6,0.4
	c1.5,0.7,3.2-0.3,4.5-1.3c2.3-1.9,4.2-4.4,4.4-7.3c0-0.7-0.1-1.5,0.1-2.2c0.2-1.1,0.9-2,1.5-3c1-1.6,1.8-3.3,2.4-5.1
	c0.2-0.7,0.4-1.5-0.2-2c-0.2-0.1-0.4-0.3-0.7-0.3l-6.7-2.4c-0.6-0.2-2,3.3-2.3,3.7c-0.6,0.9-1.1,1.5-2.2,1.7
	c-1.1,0.2-2.5-0.1-3.6,0.4C292.2,252.5,293.1,253.6,294.1,254.6z"/>
<path class="st12" d="M283.8,256.8c-0.1-0.2-0.3-0.4-0.5-0.6c-0.3-0.2-0.7-0.3-1-0.3c-1.3-0.2-2.8-0.3-3.7,0.6
	c-0.8,0.8-0.7,2.2-1.4,3.2c-0.2,0.3-0.5,0.5-0.7,0.9c-0.2,0.5-0.3,1-0.3,1.5c0,1.5-0.1,2.9,0,4.4c0.1,1.2,0.3,2.5,1.1,3.5
	c1.3,1.5,3.6,1.8,5.7,1.9l1.7,0.1c0.5,0.1,0.9,0,1.4-0.1c0.6-0.2,1-0.7,1.2-1.2c0.9-2.1-0.5-4.3-1.4-6.3
	C284.9,261.7,285.1,259,283.8,256.8z"/>
<path class="st2" d="M269.8,105.2c0-0.2,0-0.4,0.1-0.6c0.2-0.4,0.9-0.3,1.4-0.2c2,0.5,4,0,6,0.2c2,0.1,4.3,1.1,4.7,2.9
	c1.5-1,2.7-2.2,3.7-3.6c0.6-0.8,1-1.7,1-2.6c-0.1-1.4-1.3-2.4-2.4-3.3l-3.3-2.6c-0.4-0.4-0.9-0.7-1.5-0.9c-0.8-0.2-1.6-0.1-2.4-0.1
	c-2.4,0-5-1-7.2,0c-0.9,0.4-1.6,1.2-2.2,1.9l-3,3.3c-0.2,0.2-0.4,0.5-0.5,0.8c-0.1,0.4,0.1,0.8,0.2,1.2c0.1,0.7-0.2,1.5,0.1,2.3
	c0.4,1.2,2,1.4,2.9,2c0.3,0.3,0.9,1.1,1.3,1.1C269.3,107,269.8,105.8,269.8,105.2z"/>
<ellipse class="st10" cx="274.9" cy="106" rx="9.6" ry="9"/>
<path class="st2" d="M277.1,125.8c-0.7-1.8-2.5-3-4.5-2.9c-0.3,0.1-0.6,0-0.8-0.1c-0.1-0.1-0.3-0.2-0.3-0.4c-0.6-1-1-2-1.4-3.1
	c-0.2-0.5-0.4-1-0.9-1.2c-0.4-0.1-0.8,0.2-1.1,0.5c-0.2,0.3-0.5,0.6-0.8,0.9c-1.2,1-3.3,0.1-4.6,1c-0.2,0.2-0.4,0.3-0.6,0.5
	c-0.2,0.1-0.5,0.2-0.7,0.3c-2.5,0.8-4.9,1.7-7.3,2.7c0.9,4.8,1.7,9.8,3.7,14.3c0.9,2.2,2,4.3,2.8,6.5c1.7,4.9,1.8,10.2,1.8,15.3
	c0,3.5,0,7.1-1.2,10.5c-0.3,0.8-0.6,1.5-0.7,2.3s0.2,1.7,0.9,2.1c0.4,0.2,0.9,0.4,1.3,0.4c2.1,0.3,4.2-0.2,6.3-0.7
	c5.5-1.2,11.2-1.9,16.8-2.6l9.5-1.1c0.7,0,1.3-0.2,2-0.5c1.7-0.9,1.9-3.3,0.8-4.9c-0.5-0.7-1.2-1.4-1.7-2.2s-0.5-1.9,0.3-2.5
	c1.5-1.1,1.1-3.2,1.1-5c0.2-5.1,0.2-10.1-0.1-15.2c-0.1-1.1-0.1-2.1-0.1-3.2c0.1-1.8,0.6-3.5,1-5.3l2.9-10.7
	c-0.8-1.1-2.2-1.8-3.5-2.2s-2.8-0.4-4.1-0.8c-2.7-0.8-5.2-2.8-8.1-2.7c-0.2,0-0.4,0.1-0.6,0.1c-0.6,0.3-0.5,1.2-0.6,1.9
	c-0.1,1.6-1.3,2.8-2.6,3.8s-2.9,1.6-4.1,2.6C277.4,124.8,277.2,125.3,277.1,125.8z"/>
<path class="st10" d="M239.2,135.9c-0.6,0.4-1.3,0.7-2,1c-0.7,0.2-1.4,0.4-1.9,0.9c-0.3,0.2-0.5,0.5-0.7,0.8c-1,1.7-0.4,3.8,1.4,4.7
	c0.6,0.3,1.3,0.5,2,0.4c0.9,0,1.7-0.4,2.5-0.7l6.8-2.8c1.1-0.5,2.4-1,2.9-2.1c0.1-0.1,0.1-0.2,0.1-0.3c-0.1-0.1-0.2-0.2-0.3-0.3
	c-1.5-0.9-2.9-2.1-3.9-3.5c-0.3-0.4-0.6-1.2-1-1.4C243.6,131.9,240.3,135.2,239.2,135.9z"/>
<path class="st10" d="M311.4,133.7l2.5,2.7c0.5,0.6,1.1,1.1,1.6,1.8c1.2,1.6,2.2,3.3,2.9,5.1c0.5,1.3,1,2.8,0.8,4.2
	c-0.1,0.7-0.3,1.4-0.6,2.1c-0.5,1.3-1,2.6-1.7,3.8c-0.6,0.9-1.2,1.8-1.9,2.7c-1.9,2.4-4,4.7-6.3,6.8c-0.9,0.8-1.2,2.1-1.6,3.2
	c-0.7,2-2.3,3.5-3.9,5c-0.5,0.5-1.1,1-1.7,1.4c-0.9,0.6-2,0.8-3,0.8c-0.5,0-0.9-0.1-1.4-0.3c-1.1-0.5-1.6-1.7-1.7-2.8
	c-0.1-1,0.1-2,0.5-3c1.4-3,5.1-4.3,7.7-6.5c1.5-1.3,2.7-2.9,3.8-4.5c0.8-1,1.4-2.1,1.9-3.2c0.6-1.5,0.4-3.2,0.9-4.7
	c0.2-0.6,0.6-1.2,0.8-1.8s0.3-1.4-0.1-1.9c-0.3-0.3-0.7-0.6-1.1-0.8c-1.7-0.8-3.5-1.8-3.8-3.5c-0.1-1,0.1-1.9,0.7-2.7
	c0.6-0.8,1.3-1.5,2.1-2.1C309.4,135,310.7,134.3,311.4,133.7z"/>
<path class="st10" d="M237.6,139.7c-0.4-0.8-1-1.7-1.9-2.1c-0.9-0.4-1.9-0.4-2.7,0c-0.9,0.4-1.7,0.8-2.4,1.4l-2.1,1.5
	c-0.5,0.3-0.9,0.7-1.3,1.1c-0.3,0.5-0.6,1.1-0.7,1.7c-0.3,1.4-0.6,2.8-0.3,4.3c0.3,2.3,1.8,4.3,3.4,6c1,1.1,2.2,2.2,3.8,2.2
	c0.7,0,1.4-0.2,1.7-0.8c0.1-0.2,0.1-0.5,0.1-0.7c0.2-2.5-0.8-5-1.9-7.4c-0.3-0.6-0.6-1.3-0.6-2c0-0.1,0-0.2,0.1-0.3
	c0.1-0.1,0.2-0.2,0.4-0.2c1.5-0.3,4.2,0.8,5.3-0.8C239,142.6,238.1,140.6,237.6,139.7z"/>
<path class="st2" d="M269.3,102.4c0-0.2,0-0.4,0.1-0.6c0.2-0.4,0.9-0.3,1.4-0.2c2,0.5,4,0,6,0.2c2,0.1,4.3,1.1,4.7,2.9
	c1.5-1,2.7-2.2,3.7-3.6c0.6-0.8,1-1.7,1-2.6c-0.1-1.4-1.3-2.4-2.4-3.3l-3.3-2.6c-0.4-0.4-0.9-0.7-1.5-0.9c-0.8-0.2-1.6-0.1-2.4-0.1
	c-2.4,0-5-1-7.2,0c-0.9,0.4-1.6,1.2-2.2,1.9l-3,3.3c-0.2,0.2-0.4,0.5-0.5,0.8c-0.1,0.4,0.1,0.8,0.2,1.2c0.1,0.7-0.2,1.5,0.1,2.3
	c0.4,1.2,2,1.4,2.9,2c0.3,0.3,0.9,1.1,1.3,1.1C268.8,104.2,269.3,102.9,269.3,102.4z"/>
<path class="st2" d="M249,127.2c-0.4,0.2-0.7,0.5-1,0.9c-0.3,0.5-0.4,1.1-0.7,1.7c-0.6,1.1-2.2,1.5-3.1,2.5
	c-0.2,0.1-0.3,0.3-0.3,0.5c0,0.3,0.1,0.5,0.3,0.7l4.5,6.7c1.5,0.1,3-0.8,4.5-0.6c0.6,0,1.1,0.2,1.7,0.1c0.4-0.2,0.7-0.4,1.1-0.6
	c0.9-0.5,2.1-0.6,2.9-1.3c0.8-0.7,0.8-1.8,0.8-2.7c0-0.8-0.1-1.7-0.3-2.5c-0.7-2.6-2.8-4.6-4.1-6.9c-0.6-1.1-1-1.8-2.3-1
	C251.5,125.2,250.2,126.3,249,127.2z"/>
<path class="st2" d="M304.1,123.7c0.9,0.5,1.6,1.2,2.3,1.9c0.7,0.8,1.1,1.9,1.7,2.7c0.7,0.9,1.5,1.5,2.2,2.3c1.1,1.2,1.9,2.6,2.6,4
	c-1.8,2.2-3.8,4.3-5.9,6.3c-0.2,0.3-0.5,0.5-0.9,0.6c-0.5,0-1-0.1-1.3-0.5c-0.3-0.3-0.6-0.7-0.9-1.1c-0.7-0.7-1.7-1.2-2.8-1.3
	c-1-0.1-2.1-0.1-3.1,0c-0.2,0-0.5,0-0.7-0.1c-0.2-0.1-0.3-0.2-0.4-0.4c-1.2-2-0.8-4.5-0.4-6.7l1-5.2c0.1-1,0.4-2,0.8-2.9
	c0.4-0.8,1.2-2.1,2.3-1.8S303.2,123.1,304.1,123.7z"/>
<polygon class="st8" points="217.4,161.6 196.5,165.7 196,165.6 177.6,163.9 177.6,141.8 200.1,138.2 216.5,140 216.5,140.1 
	216.5,140.2 "/>
<polygon class="st5" points="217.4,161.6 196.5,165.7 196,165.6 196,143 216.5,140.1 "/>
<polygon class="st9" points="216.5,140.2 216.5,140.2 196,143 177.6,141.8 200.1,138.2 216.5,140 216.5,140.1 "/>
<polygon class="st2" points="228.4,139.8 207.4,143.9 206.9,143.8 188.5,142.1 188.5,120 211.1,116.4 227.4,118.2 227.4,118.3 
	227.4,118.4 "/>
<polygon class="st5" points="228.4,139.8 207.4,143.9 206.9,143.8 206.9,121.2 227.4,118.3 "/>
<polygon class="st9" points="227.4,118.4 227.4,118.4 206.9,121.2 188.5,120 211.1,116.4 227.4,118.2 227.4,118.3 "/>
</svg>
