<?xml version="1.0" encoding="utf-8"?>
<!-- Generator: Adobe Illustrator 24.0.1, SVG Export Plug-In . SVG Version: 6.00 Build 0)  -->
<svg version="1.1" id="Layer_1" xmlns="http://www.w3.org/2000/svg" xmlns:xlink="http://www.w3.org/1999/xlink" x="0px" y="0px"
	 viewBox="0 0 1300 400" style="enable-background:new 0 0 1300 400;" xml:space="preserve">
<style type="text/css">
	.st0{fill:url(#SVGID_1_);stroke:#000000;stroke-width:1.6452;stroke-miterlimit:10;}
	.st1{fill:#FFFFFF;}
	.st2{fill:#CCCCCC;}
	.st3{fill:#F2F2F2;}
	.st4{fill:#3F3D56;}
	.st5{fill:#FF6582;}
	.st6{fill:#E6E6E6;}
</style>
<linearGradient id="SVGID_1_" gradientUnits="userSpaceOnUse" x1="9.094947e-13" y1="-190" x2="1300" y2="-190" gradientTransform="matrix(1 0 0 -1 0 10)">
	<stop  offset="0" style="stop-color:#007194"/>
	<stop  offset="1" style="stop-color:#41C1C9"/>
</linearGradient>
<rect x="0" class="st0" width="1300" height="400"/>
<path class="st1" d="M292.2,218.3v0.3c-0.7-0.8-1.4-1.6-2.2-2.3c-0.3-0.3-0.6-0.7-0.9-1c-1.3-1.4-2.6-2.7-3.9-4.1
	c-1.3-1.4-2.6-2.7-3.9-4.1c-0.3-0.3-0.6-0.7-1-1c-0.3-0.3-0.5-0.5-0.8-0.8c-0.3-0.2-0.7-0.4-1-0.5c-0.4-0.1-0.9-0.1-1.3,0
	c-0.5,0.1-1,0.3-1.5,0.4c-0.5,0.2-1,0.3-1.5,0.5c-1,0.3-2,0.6-3,0.9c-0.1,0-0.1,0-0.1-0.1v0l0,0c0,0,0-0.1,0.1-0.1c0,0,0,0,0,0
	c0.2-0.1,0.5-0.1,0.7-0.2c1-0.3,2-0.6,3-0.9c0.5-0.2,1-0.3,1.5-0.5c0.5-0.2,0.9-0.3,1.4-0.3c0.8,0.1,1.6,0.4,2.1,0.9
	c0.3,0.3,0.6,0.6,0.9,0.8c0.3,0.3,0.7,0.7,1,1c1.3,1.4,2.7,2.7,4,4.1c1.3,1.4,2.6,2.8,3.9,4.2c0.1,0.1,0.2,0.2,0.3,0.3
	C290.8,216.7,291.5,217.5,292.2,218.3z"/>
<path class="st1" d="M279.4,206.6c-0.3-0.3-0.6-0.6-1-0.7l-0.4,0c3.2,4.7,7.4,8.7,12.4,11.9C286.7,214,283.1,210.3,279.4,206.6z"/>
<path class="st2" d="M346.5,255.5l-16.3-82.2c-0.6-2.8-3.1-4.8-6.1-4.9c-0.1,0-0.3,0-0.4,0l-11.1,0.4l-1.2,0l-5.5,0.2l-1.2,0
	l-3.6,0.1l-71.9,2.4c-0.1,0-0.2,0-0.3,0l-16.1-0.3l-6-0.1l-0.2,0l-4.4-0.1l-38.4-0.8l-10.2-0.2l-5-0.1l-1.2,0l-5.7-0.1l-1.2,0
	l-5.9-0.1l-1.2,0l-6.4-0.1l-1,0l-5.7-0.1l-0.9,0h-0.1c-3.1,0-5.8,2.2-6.3,5.1l-14.8,85.3c-0.6,3.3,1.8,6.4,5.3,6.9
	c0.3,0.1,0.7,0.1,1,0.1h84.7c1.2,0,2.5,0.4,3.5,1.1l1.6,1.1c1.1,0.8,2.4,1.2,3.8,1.2c16.4-4.1,33.6-4.1,49.9,0
	c1.7,0,3.3-0.6,4.5-1.8c1-1,2.4-1.5,3.8-1.6l84.2-4.2c3.5-0.2,6.3-3,6.1-6.4C346.6,256.1,346.5,255.8,346.5,255.5L346.5,255.5z"/>
<path class="st3" d="M323.4,242.7c-0.2,5.8-5.4,10.3-11.6,10.1c-4.9-0.2-10.7-0.2-17.1-0.1c-20.7,0.4-46.7,3.1-62.3,12.7
	c-2,1.2-4.3,1.8-6.6,1.7c-0.2,0-0.3,0-0.5,0c-2.4-0.2-4.7-1.2-6.5-2.7c-8.6-7.4-28.4-16.4-73.6-17c-0.2,0-0.4,0-0.6,0
	c-6.2-0.4-10.8-5.4-10.4-11.2c0,0,0,0,0,0l4.4-66.4l0.7-10l1.2-17.4c0.2-3.6,3.4-6.5,7.3-6.5h0l26.9,0.1c11.3,0.5,20.7,1.8,28.2,4.1
	c2.5,0.7,5,1.7,7.4,2.8c3.3,1.5,6.2,3.5,8.6,6.1c1.5,1.6,3.6,2.7,5.8,3c0.4,0,0.7,0.1,1.1,0.1c2.1,0.1,4.1-0.5,5.9-1.6
	c17.6-11.1,53.4-11.9,73.2-11.5c5.7,0.1,10.4,4.3,10.9,9.7l0.8,9.9l0.8,9.9l4.6,57.1l1.3,15.9C323.4,241.9,323.4,242.3,323.4,242.7z
	"/>
<path class="st4" d="M152,159.3c16.2-4.9,34.3-3.6,49.7,3.3c4.4,1.9,8.5,4.4,12.4,7.2c1.1,0.8,2.6-0.6,1.5-1.4
	c-14.1-10.3-31.9-15.2-49.7-13.7c-4.9,0.4-9.8,1.3-14.5,2.7C150.1,157.8,150.6,159.7,152,159.3L152,159.3z"/>
<path class="st4" d="M241.3,170.6c15.1-7.5,33.2-9.1,49.6-4.9c4.7,1.2,9.2,2.9,13.5,5c1.2,0.6,2.3-1.1,1.1-1.8
	c-15.6-7.9-34.4-9.7-51.5-5.3c-4.8,1.2-9.4,2.9-13.7,5.1C238.9,169.4,240,171.2,241.3,170.6z"/>
<path class="st4" d="M241.3,184.1c15.1-7.5,33.2-9.1,49.6-4.9c4.7,1.2,9.2,2.9,13.5,5c1.2,0.6,2.3-1.1,1.1-1.8
	c-15.6-7.9-34.4-9.7-51.5-5.3c-4.8,1.2-9.4,2.9-13.7,5.1C238.9,183,240,184.7,241.3,184.1L241.3,184.1z"/>
<path class="st4" d="M305.9,197c0-0.4-0.2-0.7-0.5-0.8c-12.5-6.2-26.7-8.7-40.8-7.2c-0.1,0-0.2,0-0.3,0h0c-0.1,0-0.2,0-0.3,0
	c-8.4,0.9-16.5,3.3-23.9,6.9c-0.3,0.2-0.5,0.5-0.5,0.9v25.3c0,0.6,0.5,1,1.1,1c0.1,0,0.2,0,0.3,0c0.3-0.1,0.7-0.2,1-0.3
	c7.5-1.9,15.3-3.1,23.1-3.4c0.2,0,0.3,0,0.5,0c6.3-0.3,12.7,0,19,0.6c0.1,0,0.3,0,0.4,0c0.3,0,0.7,0.1,1,0.1c0.1,0,0.3,0,0.4,0
	c1.3,0.1,2.5,0.3,3.8,0.5c1.8,0.3,3.6,0.6,5.4,0.9c0.1,0,0.2,0,0.3,0.1c2.9,0.5,5.8,1.2,8.7,1.9c0.6,0.1,1.2-0.2,1.3-0.7
	c0-0.1,0-0.2,0-0.2L305.9,197C305.9,197,305.9,197,305.9,197z"/>
<path class="st5" d="M266.3,190.3c-0.8-0.4-1.7-0.4-2.5-0.2c-0.8,0.3-1.4,0.8-1.7,1.5c-0.3,0.7-0.5,1.4-0.6,2.1c0,0.3,0,0.6,0.3,0.8
	c0.2,0.1,0.5,0,0.6-0.1c0.2-0.1,0.3-0.3,0.4-0.5c1.1-1.5,2.9-2.5,4.8-2.5l0.8,0.3C267.8,191.1,267.1,190.7,266.3,190.3z"/>
<path class="st1" d="M274.9,196.1c-0.6-0.9-1.4-1.8-2.5-2.1c-1.3-0.3-2.7,0.3-3.9,1c-3.4,1.9-6.8,4-10,6.2l0,0l7.5-0.4
	c1.8-0.1,3.7-0.2,5.2-0.9c0.6-0.3,1.2-0.6,1.9-0.7c0.8,0,1.6,0.4,2.2,1c3.4,3.1,4.4,7.8,8.3,10.5
	C281.2,205.6,278.3,200.7,274.9,196.1z"/>
<path class="st1" d="M265.6,219.4c-0.2,0-0.3,0-0.5,0c-1.2-0.4-2.4-0.8-3.7-1.1c-0.8-0.2-1.6-0.4-2.4-0.5c-0.9-0.2-1.9-0.3-2.8-0.5
	c-1.8-0.2-3.6-0.4-5.4-0.4c-0.1,0-0.1,0-0.1-0.1c0-0.1,0-0.1,0.1-0.1c0,0,0,0,0,0c0.2,0,0.5,0,0.7,0c1.8,0.1,3.6,0.2,5.4,0.5
	c0.9,0.1,1.9,0.3,2.8,0.5c0.8,0.2,1.7,0.4,2.5,0.6C263.3,218.6,264.4,219,265.6,219.4z"/>
<path class="st1" d="M286.3,220.2c-0.1,0-0.2,0-0.4,0c-0.5-0.4-1-0.8-1.5-1.1c-0.7-0.4-1.3-0.9-2-1.3c-1.5-0.9-3.1-1.6-4.8-2.3
	c-2.6-1-5.3-1.8-8.1-2.4c-3.2-0.7-6.3-1.1-9.6-1.4c-3.2-0.3-6.4-0.5-9.7-0.7c-0.1,0-0.1-0.2,0-0.2c0.4,0,0.8,0,1.2,0.1
	c3.3,0.2,6.5,0.4,9.8,0.8c3.2,0.3,6.4,0.8,9.5,1.6c2.7,0.6,5.3,1.5,7.8,2.5c1.4,0.6,2.9,1.3,4.2,2.1c0.9,0.5,1.7,1.1,2.5,1.6
	C285.7,219.7,286,220,286.3,220.2z"/>
<path class="st1" d="M285,220.1c-0.1,0-0.3,0-0.4,0c-0.2-0.1-0.3-0.2-0.5-0.3c-1.1-0.7-2.3-1.4-3.5-2c-1.1-0.6-2.2-1.1-3.3-1.5
	c-2.6-1-5.3-1.8-8.1-2.4c-3.2-0.7-6.3-1.1-9.6-1.4c-3.2-0.3-6.4-0.5-9.7-0.7c-0.1,0-0.1-0.2,0-0.2c0.4,0,0.8,0,1.2,0.1
	c3.3,0.2,6.5,0.4,9.8,0.8c3.2,0.3,6.4,0.8,9.5,1.6c2.7,0.6,5.3,1.5,7.8,2.5c1,0.4,1.9,0.8,2.8,1.3
	C282.5,218.4,283.8,219.2,285,220.1z"/>
<path class="st1" d="M295.9,221.7c-0.1,0-0.2,0-0.3-0.1c-0.1-0.1-0.3-0.3-0.4-0.4c-0.6-0.7-1.2-1.3-1.8-2c-2.4-2.7-4.6-5.4-6.8-8.2
	c-1.8-2.4-3.6-4.8-5.2-7.3c-0.8-1.2-1.5-2.4-2.3-3.6c-0.6-0.9-1.1-1.9-1.7-2.8c-0.2-0.3-0.3-0.5-0.5-0.8c-0.4-0.6-0.7-1.3-1.1-1.9
	c-0.4-0.8-1-1.4-1.7-2c-0.4-0.2-0.8-0.4-1.2-0.4c-0.6,0-1.2,0.2-1.8,0.4c-4,1.8-7.8,4-11.3,6.5c-3.4,2.5-6.5,5.4-9.2,8.6
	c-0.1,0.1-0.3,0-0.2-0.1c0.3-0.4,0.7-0.8,1-1.1c2.6-2.9,5.5-5.5,8.7-7.8c0,0,0,0,0,0c0.3-0.2,0.6-0.4,0.8-0.6
	c1.8-1.2,3.6-2.4,5.6-3.4c1-0.5,2-1,3-1.5c0.3-0.1,0.5-0.2,0.8-0.4c0.3-0.1,0.5-0.2,0.8-0.4c0.5-0.2,1.1-0.4,1.6-0.4
	c2,0,3,1.9,3.7,3.2c0.2,0.4,0.5,0.8,0.7,1.2c0.9,1.5,1.8,3,2.7,4.5c0.6,0.9,1.2,1.8,1.8,2.7c0.9,1.3,1.7,2.6,2.6,3.9c0,0,0,0,0,0
	l0,0h0c1.1,1.5,2.2,3,3.3,4.5c2,2.5,4,5,6.1,7.4C294.4,220.1,295.1,220.9,295.9,221.7z"/>
<path class="st5" d="M270.2,191.8l-0.2,0.1c-0.9-1.5-2.6-2.4-4.4-2.5c-2.9-0.2-5.5,1.7-5.8,4.1c-0.1,1,0.2,2,0.9,2.8l-0.2,0.1
	c-0.7-0.8-1-1.9-0.9-3c0.2-2.6,2.9-4.5,6-4.3C267.5,189.3,269.2,190.2,270.2,191.8z"/>
<path class="st1" d="M255.6,196.8c-1.6-0.6-3.4-0.5-4.8,0.3c2.6,0.4,5.3,0.9,7.9,1.5C257.6,198.1,256.7,197.3,255.6,196.8z"/>
<path class="st1" d="M250.8,197.1l-0.3,0.2C250.6,197.2,250.7,197.1,250.8,197.1L250.8,197.1z"/>
<path class="st1" d="M259.5,198.2c-0.1-0.1-0.2-0.2-0.3-0.3c-0.9-0.9-2-1.7-3.2-2.2c-0.6-0.2-1.3-0.4-1.9-0.4c-0.7,0-1.4,0.1-2,0.4
	c-0.3,0.1-0.6,0.2-0.9,0.3c-0.3,0.1-0.7,0.3-1,0.4c-0.6,0.3-1.2,0.6-1.8,0.9c-1.2,0.6-2.3,1.3-3.4,2c-0.6,0.4-1.1,0.7-1.7,1.1
	c-0.5,0.4-1,0.7-1.5,1.1c-0.1,0.1-0.3-0.1-0.2-0.1c0.1-0.1,0.3-0.2,0.4-0.3c0.4-0.3,0.7-0.6,1.1-0.8c0.7-0.5,1.4-1,2.1-1.4
	c1.1-0.7,2.3-1.4,3.5-2c0.6-0.3,1.2-0.6,1.8-0.9c0.2-0.1,0.4-0.2,0.6-0.2c0.4-0.2,0.9-0.3,1.4-0.5c0.7-0.2,1.4-0.2,2.1-0.2
	c0.7,0.1,1.3,0.3,1.9,0.6c1.2,0.6,2.2,1.4,3.1,2.4C259.8,198.2,259.6,198.3,259.5,198.2z"/>
<path class="st4" d="M152,172.9c16.2-4.9,34.3-3.6,49.7,3.3c4.4,1.9,8.5,4.4,12.4,7.2c1.1,0.8,2.6-0.6,1.5-1.4
	c-14.1-10.3-31.9-15.2-49.7-13.7c-4.9,0.4-9.8,1.3-14.5,2.7C150.1,171.3,150.6,173.3,152,172.9L152,172.9z"/>
<path class="st4" d="M152,186.4c16.2-4.9,34.3-3.6,49.7,3.3c4.4,1.9,8.5,4.4,12.4,7.2c1.1,0.8,2.6-0.6,1.5-1.4
	c-14.1-10.3-31.9-15.2-49.7-13.7c-4.9,0.4-9.8,1.3-14.5,2.7C150.1,184.9,150.6,186.8,152,186.4L152,186.4z"/>
<path class="st4" d="M152,200c16.2-4.9,34.3-3.6,49.7,3.3c4.4,1.9,8.5,4.4,12.4,7.2c1.1,0.8,2.6-0.6,1.5-1.4
	c-14.1-10.3-31.9-15.2-49.7-13.7c-4.9,0.4-9.8,1.3-14.5,2.7C150.1,198.4,150.6,200.4,152,200L152,200z"/>
<path class="st4" d="M152,213.6c16.2-4.9,34.3-3.6,49.7,3.3c4.4,1.9,8.5,4.4,12.4,7.2c1.1,0.8,2.6-0.6,1.5-1.4
	c-14.1-10.3-31.9-15.2-49.7-13.7c-4.9,0.4-9.8,1.3-14.5,2.7C150.1,212,150.6,214,152,213.6L152,213.6z"/>
<path class="st4" d="M152,227.1c16.2-4.9,34.3-3.6,49.7,3.3c4.4,1.9,8.5,4.4,12.4,7.2c1.1,0.8,2.6-0.6,1.5-1.4
	c-14.1-10.3-31.9-15.2-49.7-13.7c-4.9,0.4-9.8,1.3-14.5,2.7C150.1,225.6,150.6,227.5,152,227.1L152,227.1z"/>
<rect x="224.9" y="150.5" class="st6" width="1.1" height="116"/>
</svg>
