<?xml version="1.0" encoding="utf-8"?>
<!-- Generator: Adobe Illustrator 24.0.1, SVG Export Plug-In . SVG Version: 6.00 Build 0)  -->
<svg version="1.1" id="Layer_1" xmlns="http://www.w3.org/2000/svg" xmlns:xlink="http://www.w3.org/1999/xlink" x="0px" y="0px"
	 viewBox="0 0 1300 400" style="enable-background:new 0 0 1300 400;" xml:space="preserve">
<style type="text/css">
	.st0{fill:url(#SVGID_1_);stroke:#000000;stroke-width:1.6452;stroke-miterlimit:10;}
	.st1{fill:#F2F2F2;}
	.st2{fill:#3F3D56;}
	.st3{fill:#FFB9B9;}
	.st4{fill:#575A89;}
	.st5{fill:#0D8CD8;}
	.st6{fill:none;stroke:#3F3D56;stroke-width:1.6169;stroke-miterlimit:10;}
	.st7{opacity:0.1;enable-background:new    ;}
</style>
<linearGradient id="SVGID_1_" gradientUnits="userSpaceOnUse" x1="0" y1="-190" x2="1300" y2="-190" gradientTransform="matrix(1 0 0 -1 0 10)">
	<stop  offset="0" style="stop-color:#007194"/>
	<stop  offset="1" style="stop-color:#41C1C9"/>
</linearGradient>
<rect y="0" class="st0" width="1300" height="400"/>
<path class="st1" d="M317.7,246.5l-1.5-18.3l-4.1,19.3c0,0,0.1,4.9,0.2,10.3h5.3C317.8,251.6,317.7,246.5,317.7,246.5z"/>
<path class="st1" d="M243.1,253c-0.4-1.7-0.7-3.5-0.8-5.2l-0.6-6.4c-0.3-1.8-0.5-3.3-0.7-4.6c-1.8-9.6-3.8-10-3.8-10
	c-0.1,0.1-0.2,0.1-0.3,0.2c-0.2,0.2-0.5,0.5-0.6,0.7c-3,3.9-5.1,14.1-6.2,20.8c-0.6,3.7-0.9,6.4-0.9,6.4s0.3,1.1,0.6,2.8h13.9
	C243.6,256.1,243.4,254.5,243.1,253z"/>
<path class="st1" d="M352.1,75.2H157.3c-23.2,0-42.1,19.3-42.1,42.8v96.8c0,23.5,19,42.8,42.1,42.8H219l-0.8-3.8c0,0-2-13.5,0-23.9
	c0.6-3.3,1.1-6.6,1.4-9.9c0.3-3.7,0.8-7.5,1.8-11.2c0.1-0.2,0.1-0.4,0.2-0.7c-0.5-0.1-0.7-0.3-0.6-0.3c0.3-0.2,0.5-0.7,0.6-1.5
	c0.6-5,1.6-9.8,3.1-14.6c-2,1.3-3.4,1.5-4.3,0.9c-3.1-0.8-1.8-8.1-1.8-8.1s1.9-15.6,2.6-21.3c0.4-3.3,5.2-5.1,9.5-6.1
	c0.5-0.9,0.7-2,0.6-3c0-0.1,0-0.1-0.1-0.2c-0.6-1.2-1.7-2.2-2-3.5c-0.2-0.4-0.3-0.7-0.4-1.1c-0.4-2.1,1.7-4,2.2-6.2
	c-0.6-0.6-1-1.3-1.3-2.1c-0.9-1.9-0.5-4,2.4-5.7c0.6-0.4,1.2-0.7,1.7-0.9c0.2-0.2,0.5-0.3,0.7-0.4c2-0.9,4-1.8,5.2-3.6
	c0.3-0.5,0.6-1,1.1-1.2c0.3-0.1,0.5-0.2,0.7-0.2c3.9-0.3,7.4,3.1,11.2,2.6c1.2-0.2,2.4-0.7,3.5-0.3c0.7,0.3,1.3,0.8,1.8,1.4
	c2.8,3.3,3.9,7.7,3.1,12c-0.5,2.6-1.7,5.2-0.8,7.8c0.6,1.9,2.3,3.3,2.3,5.2c0,1.6-1.1,2.9-2.2,4.1c0.2,0.2,0.3,0.3,0.4,0.5
	c2.7,3,2.1,5.6,1.7,6.6l0,0l-1.4,13.3l-1.1,8.9c0,0-0.3,3.6-2.9,4.5c-0.7,0.4-1.7,0.5-3.1,0.1c-0.8-0.3-1.6-0.6-2.2-0.7
	c0.6,1.9,1.6,5.8,1.4,9.5c-0.2,5.2,0.5,5.7,0.5,5.7c0,0.1-0.1,0.1-0.2,0.2c2.7,6.1,2.8,12.3-0.1,18.5c-3.2,7,0.2,23.5,0.2,23.5
	s0.3,2.5,0.4,5.4h48.9c-0.7-7.6-1.7-15-2.1-15.9c-0.6-1.4,0.2-24.3,0.6-32.2c-0.2,0-0.3-0.1-0.5-0.1c-0.3-0.1-0.5-0.1-0.6-0.2
	c0,0.4,0,0.8,0.1,1.2c0.3,0.7-0.4,1.2-1.6,1.5c0.6,3.4,1.6,9.6-1.3,10.9c-2.9,1.2-2.9-6.4-2.9-10.4c-0.4,0-0.7,0-1.1,0
	c-3.5,0,1-41.5,0.8-44.2c-0.2-2.7,1.7-13.9,1.7-13.9s0.6-2.3,2.5-2.7c1.8-0.4,10.8-5.7,10.8-5.7c0.5-0.7,1.1-1.3,1.8-1.8V144
	c0.3-0.2,0.5-0.5,0.7-0.7c-0.1-1.9-0.4-4.2-0.6-5.8c-1-1-1.7-2.3-1.9-3.7c-0.4-0.3-0.7-0.7-1.1-0.9c-0.8-1-1.4-2.2-1.4-3.6
	c0-1.3,0.2-2.6,0.6-3.8c0.1-0.4,0.3-0.8,0.5-1.2c0.3-0.5,0.6-0.8,1.1-1.1c0.1-0.1,0.3-0.2,0.4-0.3c0.3-0.6,0.6-1,1.2-1.3
	c1-0.7,2.4-0.7,3.7-0.7c0,0,0,0,0.1,0c0.3,0,0.5-0.1,0.7-0.1c0.3-0.1,0.5-0.3,0.6-0.6c0.2,0.2,0.4,0.4,0.6,0.5c0.3,0,0.6,0,0.7,0
	c0.1-0.3,0.3-0.6,0.4-0.7c0.1,0.3,0.2,0.6,0.3,0.8c0.3,0,0.6,0.1,0.7,0.1c0.2-0.2,0.4-0.3,0.6-0.5c0,0,0.2,0.5,0.3,0.7
	c0.2,0,0.3,0.1,0.4,0.1c0.2,0,0.5-0.1,0.6-0.1c0.7,0,1.5,0.2,2.1,0.6c0.6,0.4,1,0.9,1.3,1.6c0.8,1.3,1.3,2.8,1.5,4.3
	c0.4,0.6,0.6,1.2,0.8,1.9c0.4,2.1-1.7,3.8-2,6c-0.2,1.1,0,2.3-0.6,3.4c-0.3,0.4-0.6,0.7-0.9,1c-0.2,0.2-0.5,0.3-0.7,0.5
	c0,1.3,0.2,2.5,0.5,3.7l0.3,1c0.5,0.3,0.8,0.7,1.4,1c0,0,5.8,2.5,7.9,3.8c1.8,1.1,3.8,1.2,4.4,2.7h0.2c0,0,2.1,23.4,2.3,27.4
	c0.2,4,2.7,28.6,2.3,29.6c-0.2,0.4-1.1,0.8-2.3,1.2c0.6,3.2,1.8,10.2-1.2,11.4c-3,1.3-2.9-7-2.9-10.8c-0.4,0-0.6-0.2-0.7-0.4
	c0-0.2-0.2-0.9-0.3-2.1c-0.3,0-0.6,0.1-0.8,0.1c-0.1,0-0.1,0-0.2,0c2.7,8.4-3.2,30.7-4.3,35c-0.6,2.2-1.2,7.9-1.7,13.6h25.6
	c23.2,0,42.1-19.3,42.1-42.8v-96.8C394.2,94.5,375.3,75.2,352.1,75.2z"/>
<ellipse class="st2" cx="177.6" cy="126.3" rx="28.2" ry="26.2"/>
<path class="st3" d="M224.2,211.6L224.2,211.6c0,0,9.5-6.6,9.5-9.6s6.5-22.7,10.1-13.9s-5.1,21.1-5.1,21.1s-9.5,17.6-15.2,20.6
	c-5.7,3-10.4,1.2-10.4,1.2v-8.1l5.4-8.1C219.9,212.8,222,211.6,224.2,211.6z"/>
<path class="st4" d="M197.1,165.3c0,0,14.3,4.6,15.7,6.7c1.5,2.1,2.1-1.5,6.3,12.4c4.1,13.9,5.2,27.4,5.2,27.4s-10.3,3.5-9.1,17.1
	c1.2,13.6-1.7,28.4-1.7,28.4h-3.7l-8.2-25.7l9.8-39C211.4,192.6,197.4,168.6,197.1,165.3z"/>
<ellipse class="st3" cx="192.3" cy="134.6" rx="17.9" ry="18.1"/>
<path class="st3" d="M199.2,148.2c0,0-5.1,16.9-0.6,19.3c4.5,2.4,9.5,13.3,9.5,13.3l-7.7,8.8h-17.9l-8-9.1l-3.3-15.4l4.5-3.6
	c0,0,4.8-12.1,4.8-18.4S199.2,148.2,199.2,148.2z"/>
<path class="st5" d="M200.6,166.9c0,0-3.6-0.9-1.5,2.7s4.1,10.3-3.3,10.6s-14.9-3.6-17.3-11.8c-2.4-8.1-3.3-7.6-4.1-7.3
	c-0.9,0.3-10.4,10.3-10.4,10.3l3.3,18.7l1.2,67.1H212c0,0,1.7-19.3-1.2-23.8c-2.9-4.6,2.7-16,2.7-16s5.1-7.8,1.2-23
	C210.8,179.3,202.2,166.9,200.6,166.9z"/>
<path class="st4" d="M176.6,161.1c0,0-4.5-2.1-8.4,1.5c-3.9,3.6-12.5,6.6-12.5,8.5s7.5,53.5,2.4,62.5c-5.1,9.1-10.4,23.5-10.4,23.5
	h24.8c0,0,4-15.1,8.2-23.3c4.1-8.1,3.9-31.1,2.7-38C182.2,189,176.6,161.1,176.6,161.1z"/>
<polygon class="st3" points="150.4,241.2 151.9,257.3 168,257.3 166.5,237.3 "/>
<polygon class="st2" points="223.6,232.8 227.5,257.3 313.5,257.3 320.9,208.1 "/>
<polygon class="st2" points="324.1,204.7 325,209.3 213.8,236.5 213.8,232.5 "/>
<polygon class="st2" points="277.2,212.8 276.6,218 283.1,217.1 280.4,212 "/>
<path class="st6" d="M241.1,160.9c0,0,13.1-0.9,16.7,9.3c3.6,10.3,11.9,28.7,15.2,31.4c3.3,2.7,6.8,10,6.3,12.4"/>
<path class="st5" d="M243.1,160.8c0,1.4-1.5,2.5-3.9,2.5s-3.6-1.1-3.6-2.5c0-1.4,1.2-2.5,3.6-2.5S243.1,159.3,243.1,160.8z"/>
<path class="st4" d="M221.1,207.9c0,0,2.2-9.5-1.9-23.5c-4.1-13.9-4.8-10.3-6.3-12.4c-1.5-2.1-15.7-6.7-15.7-6.7
	c0.1,1.1,1.7,4.4,3.8,8.3c-0.4-1.4-0.9-2.8-1.7-4.1c-2.1-3.6,1.5-2.7,1.5-2.7c1.5,0,10.1,12.4,14,27.5c3.9,15.1-1.2,23-1.2,23
	L221.1,207.9z"/>
<path class="st4" d="M197.2,165.3c0,0,1.7,6.8,3.2,7.8c1.5,1,10.4,10.4,10.4,10.4l-1.2-7.6l-4.8-7.3l-1.3-0.9L197.2,165.3z"/>
<path class="st7" d="M157.7,186.1l0.5-15.6c0,0-9.8,4.2-10.7,22.3s1.5,52.2,4.8,52.6c3.3,0.4,18.8-3.4,18.8-3.4s2.4-43.8,1.5-49.5
	S157.7,186.1,157.7,186.1z"/>
<path class="st4" d="M158.4,170.6H156c0,0-9.8,4.2-10.7,22.3s1.5,52.2,4.8,52.6c3.3,0.3,18.8-3.4,18.8-3.4s2.4-43.8,1.5-49.5
	C169.5,186.8,158.4,170.6,158.4,170.6z"/>
<ellipse class="st2" cx="171.1" cy="129.7" rx="18.4" ry="21"/>
<ellipse class="st3" cx="184.4" cy="141.2" rx="3.7" ry="5.6"/>
<ellipse class="st2" cx="152.6" cy="108.7" rx="15.2" ry="15.4"/>
<path class="st2" d="M154.6,121.1c-7.5,3.8-16.6,0.8-20.4-6.7c-0.8-1.7-1.4-3.6-1.6-5.5c-1.3,8.4,4.4,16.3,12.7,17.6
	c8.3,1.3,16-4.5,17.3-12.9c0.2-1.2,0.2-2.5,0.1-3.8C162,114.6,159,118.8,154.6,121.1z"/>
<path class="st2" d="M144.3,111.3c-5.2-6.7-4-16.4,2.6-21.6c1.5-1.2,3.2-2.1,5.1-2.6c-8.4,0.4-14.9,7.6-14.5,16.1
	c0.4,8.5,7.5,15.1,15.8,14.8c1.3-0.1,2.5-0.3,3.7-0.7C152,117.4,147.4,115.3,144.3,111.3z"/>
<ellipse class="st2" cx="193.4" cy="120.6" rx="10.7" ry="7.8"/>
</svg>
