<?xml version="1.0" encoding="utf-8"?>
<!-- Generator: Adobe Illustrator 24.0.1, SVG Export Plug-In . SVG Version: 6.00 Build 0)  -->
<svg version="1.1" id="Layer_1" xmlns="http://www.w3.org/2000/svg" xmlns:xlink="http://www.w3.org/1999/xlink" x="0px" y="0px"
	 viewBox="0 0 1300 400" style="enable-background:new 0 0 1300 400;" xml:space="preserve">
<style type="text/css">
	.st0{fill:url(#SVGID_1_);stroke:#000000;stroke-width:1.6452;stroke-miterlimit:10;}
	.st1{fill:#3F3D56;}
	.st2{fill:#0D8CD8;}
	.st3{fill:#D0CDE1;}
	.st4{fill:#FFB8B8;}
	.st5{fill:#2F2E41;}
	.st6{fill:#575A89;}
	.st7{opacity:0.2;enable-background:new    ;}
</style>
<linearGradient id="SVGID_1_" gradientUnits="userSpaceOnUse" x1="0" y1="592" x2="1300" y2="592" gradientTransform="matrix(1 0 0 1 0 -392)">
	<stop  offset="0" style="stop-color:#007194"/>
	<stop  offset="1" style="stop-color:#41C1C9"/>
</linearGradient>
<rect class="st0" width="1300" height="400"/>
<polygon class="st1" points="236.3,218.8 268.1,102.5 467.5,160.8 435.7,277.1 "/>
<ellipse class="st2" cx="271.6" cy="107.4" rx="1.7" ry="1.7"/>
<ellipse class="st2" cx="276.7" cy="108.9" rx="1.7" ry="1.7"/>
<ellipse class="st2" cx="281.7" cy="110.3" rx="1.7" ry="1.7"/>
<path class="st2" d="M373.9,176.3c-2.7-0.5-5.4-0.5-8.1,0.2c0.8-2.7,1-5.6,0.6-8.4c-2.7,1-5.2,2.7-7.2,4.8c-0.6-2.9-1.9-5.7-3.7-8
	c-1.8,2.2-3,4.7-3.8,7.5c-1.9-2-4.2-3.5-6.8-4.5c0,0-1.2,6.3,1.7,11.5c2.6,4.6,7.5,6.8,8.6,7.2l0,0l0,0c0.1,0,0.2,0.1,0.2,0.1
	s0-0.1,0.1-0.3c0,0,0,0,0.1-0.1v0.1c-0.1,0.2-0.1,0.3-0.1,0.3s0.1,0,0.2,0l0,0l0,0c1.1,0.2,6.4,1.1,11-1.5
	C371.7,182.3,373.9,176.3,373.9,176.3z"/>
<ellipse class="st2" cx="364" cy="155.7" rx="4.3" ry="4.4"/>
<polygon class="st2" points="288.9,175.6 417.9,213.4 417.1,216.3 288.1,178.5 "/>
<polygon class="st2" points="297.1,193.6 319.3,200.1 313,223.1 290.8,216.6 "/>
<polygon class="st2" points="338.4,205.7 360.6,212.2 354.3,235.2 332.1,228.7 "/>
<polygon class="st2" points="379.7,217.8 401.9,224.3 395.6,247.3 373.4,240.8 "/>
<polygon class="st2" points="292.4,222.1 308.9,226.9 308.4,228.9 291.8,224 "/>
<polygon class="st2" points="333.7,234.1 350.2,239 349.7,240.9 333.1,236.1 "/>
<polygon class="st2" points="375,246.2 391.5,251 391,253 374.4,248.2 "/>
<ellipse class="st3" cx="208.4" cy="259.6" rx="110.5" ry="4.2"/>
<ellipse class="st3" cx="404.7" cy="307.5" rx="86" ry="4.2"/>
<path class="st1" d="M362.5,274.7h24.8v10.7h-14.4v10.7h14.4v10.7h-24.8V274.7z M392.3,274.7h24.8v9.3h-14.4v1.9h14.4v21.4h-24.8
	v-9.8h14.4v-1.9h-14.4V274.7L392.3,274.7z M422.1,274.7h24.8v9.3h-14.4v1.9h14.4v21.4h-24.8v-9.8h14.4v-1.9h-14.4V274.7L422.1,274.7
	z"/>
<path class="st1" d="M145.7,225.6h10.2v10.5h9.4v-10.5h10.3v31.7h-10.2v-10.6H156v10.6h-10.2L145.7,225.6L145.7,225.6z M189,236.1
	h-9v-10.5h28.3v10.5h-9v21.2h-10.2L189,236.1L189,236.1L189,236.1z M212.8,225.6h10.7l6.6,11.1l6.6-11.1h10.7v31.7h-10.2v-15.7
	l-7,11.3H230l-7-11.3v15.7h-10v-31.7H212.8z M252.3,225.6h10.2v21.2h14.4v10.5h-24.6L252.3,225.6L252.3,225.6z"/>
<polygon class="st4" points="127.7,247.4 126.8,257.2 133.5,256.6 133.5,248.2 "/>
<polygon class="st4" points="121.5,247.4 122.3,257.2 115.6,256.6 115.6,248.2 "/>
<path class="st5" d="M139.1,171.8c0,0,2.2,13.9,2.2,15.9s-0.8,15.1-2.2,17.7c-1.4,2.6-1.7,3.8-1.1,4.9c0.6,1.2,0.3,0.9,0,1.7
	s-0.8,0.6,0,1.7c0.7,1,0.7,2.4,0,3.5c-0.6,0.9,1.1,24.3-1.1,26.1c-2.2,1.7-2.8,7.5-2.8,7.5l-7.3-0.9v-6.4c0,0-1.7-4.6-0.6-7.5
	c1.1-2.9,1.7-18.2,1.7-18.2s-0.3-1.4,0-2.3c0.3-0.9,0-1.4-0.6-1.7s-0.8-1.4-0.8-1.4l-0.8-21.1l-3.4,20.9c0,0,3.4,28.4,0,32.1v6.7
	H115l1.1-7.2c0,0-2.2-6.7-1.1-8.1s-3.4-24.6-2.8-25.5c0.6-0.9,0.3-1.2,0-1.7c-0.3-0.6-1.1-1.2-0.8-1.7s0-1.7,0-1.7
	s-5.3-27.2-2.8-29.8C111.2,172.4,139.1,171.8,139.1,171.8z"/>
<path class="st5" d="M128.5,253.4c0,0,0.6-2.8,5-1.8c0,0,1.1,2.4,1.1,3.6c0,1.2,1.1,9,1.1,9s4.5,7.8-1.1,7.8s-7.6-2-7.8-4.1
	c-0.3-2,0.3-2.6-0.8-3.5s-1.7-0.9-1.4-2c0.3-1.2,0.8-7,0.8-7s0.3-4.3,1.8-3.2l1.5,1.2"/>
<path class="st5" d="M120.7,253.4c0,0-0.6-2.8-5-1.8c0,0-1.1,2.4-1.1,3.6c0,1.2-1.1,9-1.1,9s-4.5,7.8,1.1,7.8s7.6-2,7.8-4.1
	c0.3-2-0.3-2.6,0.8-3.5s1.7-0.9,1.4-2c-0.3-1.2-0.8-7-0.8-7s-0.3-4.3-1.8-3.2l-1.5,1.2"/>
<ellipse class="st4" cx="128.8" cy="110.7" rx="7.6" ry="7.8"/>
<path class="st4" d="M122.6,111.8c0,0-3.1,12.5-3.6,12.7c-0.6,0.3,12.9,1.4,12.9,1.4s-3.4-10.7,0-12.5L122.6,111.8z"/>
<path class="st3" d="M120.7,119.4L120.7,119.4l-9.2,6.6l1.7,51.8c0,0,12.3-1.4,15.1-1.2c2.8,0.3,11.8-2.6,11.8-2.6l-3.9-48.7
	c-0.2-2-1.7-3.5-3.6-3.7l-1.7-0.1c0,0-1.7,4.3-6.7,2.1C122.3,122.9,121.1,121.3,120.7,119.4z"/>
<path class="st6" d="M120.9,118.9l-11.4,5.6l-2.2,33.3c0,0-4.5,20-0.8,25.8c3.6,5.8,9.8,6.4,9.8,6.4s8.1-33.3,5.9-44.6
	S120.9,118.9,120.9,118.9z"/>
<path class="st4" d="M99.4,169.2v4.3c0,0-1.7,9.6,3.6,9.3s2.8-10.4,2.8-10.4l-1.7-3.2L99.4,169.2z"/>
<path class="st4" d="M148.7,177.9l-0.6,4.9c0,0,2.8,9.8-2.5,10.1s-1.5-10.1-1.5-10.1l1.7-5.6L148.7,177.9z"/>
<path class="st6" d="M130.6,120.6L130.6,120.6c5.1,1.3,9.8,3.8,13.8,7.4l0,0l-3.9,21.4l-0.6,7.8c0,0,10.4,38.2-1.7,32.7
	c0,0-10.4-33.3-9-48.7C130.7,126,130.6,120.6,130.6,120.6z"/>
<path class="st6" d="M140.8,127.8c0.3-0.3,3.6,0.4,3.6,0.4s6.2,22.5,6.2,26.2c0,3.8,0.8,25.2,0.8,25.2l-7.4,0.8l-6-29.8L140.8,127.8
	z"/>
<path class="st6" d="M111.4,124.6h-2c0,0-5.6,2.3-5.9,4.9c-0.3,2.6-7.8,29-7.8,29l2,13.3l7.3-1.2l1.4-14.8l7.3-16.2L111.4,124.6z"/>
<path class="st5" d="M127.3,112.8l0.3-2.1c0.1-0.5,0.3-1.1,0.8-1c0.4,0.1,1.2,0.5,1.4,0.4c0.5-0.4,1.3,0.3,1.9-0.1
	c0.2-0.1,0.4-0.5,0.7-0.5c0.2,0,0.4,0.1,0.5,0.2c0.4,0.3,0.8,0.6,1.3,0.7s1,0,1.3-0.4c0.1-0.1,0.1-0.2,0.2-0.2c0.1,0,0.2,0,0.3,0
	l1.4,0.4c0.4-1.6,0.2-3.3-0.7-4.7c-0.6-0.8-1.3-1.5-2.1-2.1c-0.9-0.7-1.8-1.4-2.7-2c-1-0.7-2.1-1.2-3.3-1.5
	c-1.2-0.2-2.6,0.1-3.3,1.1c-0.4-0.3-0.6-0.6-0.8-1.1c-0.3,0.3-0.3,0.8-0.1,1.1l0.1,0.1l-1.2-0.8c-0.3,0.4,0.3,1,0,1.5
	c-0.1,0.1-0.2,0.2-0.3,0.2c-0.7,0.3-1.3,0.7-1.8,1.2c-0.7,0.8-1.1,1.7-1.4,2.7c-0.7,2.1-1.2,4.6-0.2,6.6c0.1,0.2,1.6,4,1.9,4.1
	c0.7,0.5,0.2-0.7,0.7,0c0.4,0.5,0.3-1.6,0.9-1.1c0.5,0.3,1.1,0.4,1.6,0.1c0.2-0.2,0.2-1.1,0-2c-0.1-0.6,0.3-1.1,0.8-1.2
	c0.1,0,0.3,0,0.4,0C126.6,112.8,127.3,112.9,127.3,112.8z"/>
<polygon class="st7" points="141.5,154 144.6,180.3 142.6,180.3 "/>
<polygon class="st7" points="109.1,143.8 107.5,154 110.5,143.8 109.6,143.8 "/>
</svg>
