<?xml version="1.0" encoding="utf-8"?>
<!-- Generator: Adobe Illustrator 24.0.1, SVG Export Plug-In . SVG Version: 6.00 Build 0)  -->
<svg version="1.1" id="Layer_1" xmlns="http://www.w3.org/2000/svg" xmlns:xlink="http://www.w3.org/1999/xlink" x="0px" y="0px"
	 viewBox="0 0 1300 400" style="enable-background:new 0 0 1300 400;" xml:space="preserve">
<style type="text/css">
	.st0{fill:url(#SVGID_1_);stroke:#000000;stroke-width:1.6452;stroke-miterlimit:10;}
	.st1{fill:#3F3D56;}
	.st2{fill:#0D8CD8;}
	.st3{fill:#D0CDE1;}
	.st4{fill:#FFB8B8;}
	.st5{fill:#2F2E41;}
	.st6{fill:#575A89;}
	.st7{opacity:0.2;enable-background:new    ;}
</style>
<linearGradient id="SVGID_1_" gradientUnits="userSpaceOnUse" x1="0" y1="-1360" x2="1300" y2="-1360" gradientTransform="matrix(1 0 0 -1 0 -1160)">
	<stop  offset="0" style="stop-color:#007194"/>
	<stop  offset="1" style="stop-color:#41C1C9"/>
</linearGradient>
<rect y="0" class="st0" width="1300" height="400"/>
<polygon class="st1" points="179.6,209.5 202.3,123.2 344.8,166.4 322.1,252.8 "/>
<ellipse class="st2" cx="204.8" cy="126.8" rx="1.2" ry="1.3"/>
<ellipse class="st2" cx="208.4" cy="127.9" rx="1.2" ry="1.3"/>
<ellipse class="st2" cx="212" cy="128.9" rx="1.2" ry="1.3"/>
<path class="st2" d="M277.9,177.9c-1.9-0.4-3.9-0.4-5.8,0.1c0.6-2,0.7-4.2,0.4-6.2c-1.9,0.7-3.7,2-5.1,3.6c-0.4-2.2-1.4-4.2-2.6-5.9
	c-1.3,1.6-2.1,3.5-2.7,5.6c-1.4-1.5-3-2.6-4.9-3.3c0,0-0.9,4.7,1.2,8.5c1.9,3.4,5.4,5,6.1,5.3l0,0l0,0c0.1,0,0.1,0.1,0.1,0.1
	s0-0.1,0.1-0.2c0,0,0,0,0.1-0.1v0.1c-0.1,0.1-0.1,0.2-0.1,0.2s0.1,0,0.1,0l0,0l0,0c0.8,0.1,4.6,0.8,7.9-1.1
	C276.4,182.4,277.9,177.9,277.9,177.9z"/>
<ellipse class="st2" cx="270.8" cy="162.6" rx="3.1" ry="3.3"/>
<polygon class="st2" points="217.2,177.4 309.4,205.5 308.8,207.6 216.6,179.6 "/>
<polygon class="st2" points="223,190.8 238.9,195.6 234.4,212.7 218.5,207.8 "/>
<polygon class="st2" points="252.5,199.8 268.4,204.6 263.9,221.7 248,216.8 "/>
<polygon class="st2" points="282.1,208.7 297.9,213.6 293.4,230.6 277.6,225.8 "/>
<polygon class="st2" points="219.7,211.9 231.5,215.5 231.1,217 219.2,213.3 "/>
<polygon class="st2" points="249.2,220.8 261,224.5 260.6,225.9 248.8,222.3 "/>
<polygon class="st2" points="278.7,229.8 290.5,233.4 290.2,234.9 278.3,231.3 "/>
<ellipse class="st3" cx="159.6" cy="239.8" rx="79" ry="3.1"/>
<ellipse class="st3" cx="299.9" cy="275.3" rx="61.5" ry="3.1"/>
<path class="st1" d="M269.8,251h17.7v7.9h-10.3v7.9h10.3v7.9h-17.7V251z M291.1,251h17.7v6.9h-10.3v1.4h10.3v15.9h-17.7v-7.3h10.3
	v-1.4h-10.3V251L291.1,251z M312.4,251h17.7v6.9h-10.3v1.4h10.3v15.9h-17.7v-7.3h10.3v-1.4h-10.3V251L312.4,251z"/>
<path class="st1" d="M114.8,214.5h7.3v7.8h6.7v-7.8h7.4v23.5h-7.3v-7.9h-6.7v7.9h-7.3L114.8,214.5L114.8,214.5z M145.7,222.3h-6.4
	v-7.8h20.2v7.8h-6.4v15.7h-7.3L145.7,222.3L145.7,222.3L145.7,222.3z M162.8,214.5h7.6l4.7,8.2l4.7-8.2h7.6v23.5h-7.3v-11.7l-5,8.4
	H175l-5-8.4v11.7h-7.1v-23.5H162.8z M191,214.5h7.3v15.7h10.3v7.8H191L191,214.5L191,214.5z"/>
<polygon class="st4" points="101.9,230.7 101.3,238 106.1,237.5 106.1,231.3 "/>
<polygon class="st4" points="97.5,230.7 98,238 93.3,237.5 93.3,231.3 "/>
<path class="st5" d="M110.1,174.6c0,0,1.6,10.3,1.6,11.8s-0.6,11.2-1.6,13.1c-1,1.9-1.2,2.8-0.8,3.6c0.4,0.9,0.2,0.7,0,1.3
	c-0.2,0.6-0.6,0.4,0,1.3c0.5,0.7,0.5,1.8,0,2.6c-0.4,0.7,0.8,18-0.8,19.4c-1.6,1.3-2,5.6-2,5.6l-5.2-0.7v-4.8c0,0-1.2-3.4-0.4-5.6
	c0.8-2.2,1.2-13.5,1.2-13.5s-0.2-1,0-1.7s0-1-0.4-1.3c-0.4-0.2-0.6-1-0.6-1l-0.6-15.7L98,204.6c0,0,2.4,21.1,0,23.8v5h-5.2l0.8-5.3
	c0,0-1.6-5-0.8-6s-2.4-18.3-2-18.9c0.4-0.7,0.2-0.9,0-1.3c-0.2-0.4-0.8-0.9-0.6-1.3c0.2-0.4,0-1.3,0-1.3s-3.8-20.2-2-22.1
	C90.1,175,110.1,174.6,110.1,174.6z"/>
<path class="st5" d="M102.5,235.2c0,0,0.4-2.1,3.6-1.3c0,0,0.8,1.8,0.8,2.7c0,0.9,0.8,6.7,0.8,6.7s3.2,5.8-0.8,5.8
	c-4,0-5.4-1.5-5.6-3c-0.2-1.5,0.2-1.9-0.6-2.6c-0.8-0.7-1.2-0.7-1-1.5c0.2-0.9,0.6-5.2,0.6-5.2s0.2-3.2,1.3-2.4l1.1,0.9"/>
<path class="st5" d="M96.9,235.2c0,0-0.4-2.1-3.6-1.3c0,0-0.8,1.8-0.8,2.7c0,0.9-0.8,6.7-0.8,6.7s-3.2,5.8,0.8,5.8
	c4,0,5.4-1.5,5.6-3c0.2-1.5-0.2-1.9,0.6-2.6s1.2-0.7,1-1.5c-0.2-0.9-0.6-5.2-0.6-5.2s-0.2-3.2-1.3-2.4l-1.1,0.9"/>
<ellipse class="st4" cx="102.7" cy="129.2" rx="5.4" ry="5.8"/>
<path class="st4" d="M98.3,130.1c0,0-2.2,9.3-2.6,9.4c-0.4,0.2,9.2,1,9.2,1s-2.4-7.9,0-9.3L98.3,130.1z"/>
<path class="st3" d="M96.9,135.7L96.9,135.7l-6.6,4.9l1.2,38.4c0,0,8.8-1,10.8-0.9c2,0.2,8.4-1.9,8.4-1.9l-2.8-36.1
	c-0.1-1.5-1.2-2.6-2.6-2.7l-1.2-0.1c0,0-1.2,3.2-4.8,1.6C98,138.3,97.2,137.1,96.9,135.7z"/>
<path class="st6" d="M97,135.3l-8.2,4.2l-1.6,24.7c0,0-3.2,14.8-0.6,19.1c2.6,4.3,7,4.8,7,4.8s5.8-24.7,4.2-33.1
	C96.4,146.6,97,135.3,97,135.3z"/>
<path class="st4" d="M81.7,172.7v3.2c0,0-1.2,7.1,2.6,6.9c3.8-0.2,2-7.7,2-7.7l-1.2-2.4H81.7z"/>
<path class="st4" d="M116.9,179.1l-0.4,3.6c0,0,2,7.3-1.8,7.5c-3.8,0.2-1.1-7.5-1.1-7.5l1.2-4.2L116.9,179.1z"/>
<path class="st6" d="M104,136.6L104,136.6c3.6,1,7,2.8,9.9,5.5l0,0l-2.8,15.9l-0.4,5.8c0,0,7.4,28.4-1.2,24.3c0,0-7.4-24.7-6.4-36.1
	C104.1,140.6,104,136.6,104,136.6z"/>
<path class="st6" d="M111.3,141.9c0.2-0.2,2.6,0.3,2.6,0.3s4.4,16.7,4.4,19.4c0,2.8,0.6,18.7,0.6,18.7l-5.3,0.6l-4.3-22.1
	L111.3,141.9z"/>
<path class="st6" d="M90.3,139.6h-1.4c0,0-4,1.7-4.2,3.6c-0.2,1.9-5.6,21.5-5.6,21.5l1.4,9.9l5.2-0.9l1-11l5.2-12L90.3,139.6z"/>
<path class="st5" d="M101.6,130.8l0.2-1.6c0.1-0.4,0.2-0.8,0.6-0.7c0.3,0.1,0.9,0.4,1,0.3c0.4-0.3,0.9,0.2,1.4-0.1
	c0.1-0.1,0.3-0.4,0.5-0.4c0.1,0,0.3,0.1,0.4,0.1c0.3,0.2,0.6,0.4,0.9,0.5c0.4,0.1,0.7,0,0.9-0.3c0.1-0.1,0.1-0.1,0.1-0.1
	c0.1,0,0.1,0,0.2,0l1,0.3c0.3-1.2,0.1-2.4-0.5-3.5c-0.4-0.6-0.9-1.1-1.5-1.6c-0.6-0.5-1.3-1-1.9-1.5c-0.7-0.5-1.5-0.9-2.4-1.1
	c-0.9-0.1-1.9,0.1-2.4,0.8c-0.3-0.2-0.4-0.4-0.6-0.8c-0.2,0.2-0.2,0.6-0.1,0.8l0.1,0.1l-0.9-0.6c-0.2,0.3,0.2,0.7,0,1.1
	c-0.1,0.1-0.1,0.1-0.2,0.1c-0.5,0.2-0.9,0.5-1.3,0.9c-0.5,0.6-0.8,1.3-1,2c-0.5,1.6-0.9,3.4-0.1,4.9c0.1,0.1,1.1,3,1.4,3
	c0.5,0.4,0.1-0.5,0.5,0c0.3,0.4,0.2-1.2,0.6-0.8c0.4,0.2,0.8,0.3,1.1,0.1c0.1-0.1,0.1-0.8,0-1.5c-0.1-0.4,0.2-0.8,0.6-0.9
	c0.1,0,0.2,0,0.3,0C101.1,130.8,101.6,130.9,101.6,130.8z"/>
<polygon class="st7" points="111.8,161.4 114,180.9 112.6,180.9 "/>
<polygon class="st7" points="88.6,153.8 87.5,161.4 89.6,153.8 89,153.8 "/>
</svg>
